<svg width="88" height="89" fill="none" xmlns="http://www.w3.org/2000/svg"><g clip-path="url(#clip0_1184_3507)"><ellipse cx="35.2" cy="35.099" rx="28.914" ry="28.831" fill="#EDF3F9"/><path fill-rule="evenodd" clip-rule="evenodd" d="M64.368 57.846L86.11 77.092c2.583 2.29 2.44 6.445 0 8.888l-1.144 1.145c-2.44 2.443-6.58 2.578-8.876 0L56.806 65.499a35.176 35.176 0 01-21.075 6.968C16.196 72.467.361 56.611.361 37.05c0-19.562 15.835-35.418 35.37-35.418 19.536 0 35.371 15.856 35.371 35.418a35.209 35.209 0 01-6.734 20.796zm-28.538 6.49c12.208 0 22.552-8.04 26.009-19.128a27.453 27.453 0 001.242-8.158c0-15.073-12.198-27.287-27.25-27.287C20.777 9.763 8.58 21.977 8.58 37.05a27.125 27.125 0 004.23 14.603c4.826 7.626 13.334 12.683 23.02 12.683z" fill="#EDF3F9"/><path fill-rule="evenodd" clip-rule="evenodd" d="M64.008 56.214L85.75 75.46c2.584 2.29 2.44 6.446 0 8.889l-1.143 1.144c-2.44 2.443-6.58 2.579-8.876 0L56.446 63.868a35.177 35.177 0 01-21.075 6.968C15.835 70.845 0 54.979 0 35.418S15.835 0 35.371 0s35.371 15.857 35.371 35.418a35.21 35.21 0 01-6.734 20.796zm-28.538 6.49c12.208 0 22.552-8.04 26.008-19.128a27.453 27.453 0 001.243-8.158c0-15.072-12.199-27.287-27.25-27.287-15.053 0-27.252 12.224-27.252 27.287a27.126 27.126 0 004.232 14.603c4.825 7.627 13.332 12.684 23.02 12.684z" fill="#8ABC36"/><path fill-rule="evenodd" clip-rule="evenodd" d="M17.717 39.718h-2.314c0 2.262.45 4.065 1.36 5.417 1.071 1.596 2.682 2.398 4.834 2.398 2.836 0 4.735-1.325 5.699-3.975.576-1.569.864-4.12.864-7.653 0-3.282-.315-5.76-.954-7.446-.99-2.624-2.8-3.93-5.41-3.93-1.981 0-3.512.648-4.583 1.947-1.072 1.297-1.612 2.992-1.612 5.084h2.269c0-1.46.324-2.66.972-3.597.649-.938 1.603-1.406 2.872-1.406 1.405 0 2.467.775 3.178 2.316.63 1.38.954 3.182.954 5.418h-5.41v2.028h5.41c0 3.065-.216 5.229-.657 6.49-.63 1.795-1.827 2.687-3.592 2.687-1.458 0-2.503-.622-3.142-1.857-.495-.956-.738-2.263-.738-3.921zm14.53 7.238h-2.314V25.033h2.314v10.34l7.103-10.34h2.89l-5.95 8.194 6.076 13.73h-2.44l-5.284-11.413-2.395 3.39v8.022zm17.258.577c-2.125 0-3.736-.775-4.834-2.316-1.324-1.848-1.98-4.922-1.98-9.222 0-3.255.368-5.76 1.115-7.527 1.099-2.624 3.043-3.93 5.825-3.93 2.125 0 3.736.775 4.834 2.316 1.324 1.848 1.981 4.895 1.981 9.14 0 3.31-.37 5.851-1.116 7.609-1.108 2.623-3.043 3.93-5.825 3.93zm-.045-2.019c1.98 0 3.33-1.172 4.051-3.516.414-1.379.621-3.38.621-5.994 0-2.533-.234-4.534-.702-5.995-.747-2.29-2.035-3.434-3.88-3.434-1.791 0-3.06 1.144-3.8 3.434-.494 1.542-.746 3.543-.746 5.995 0 2.758.18 4.76.54 5.994.657 2.344 1.962 3.516 3.916 3.516z" fill="#8ABC36"/></g><defs><clipPath id="clip0_1184_3507"><path fill="#fff" d="M0 0h88v89H0z"/></clipPath></defs></svg>