<svg width="83" height="90" fill="none" xmlns="http://www.w3.org/2000/svg"><g clip-path="url(#clip0_192_19914)"><path opacity=".3" d="M50.58 53.428c5.568.36 8.406-.935 11.064-1.421.575-.108 1.509-.27 2.64-.45.97-2.536 1.347-5.109 1.222-7.358a27.171 27.171 0 00-.485-3.85c-4.203.343-4.293 2.25-8.083 3.977-4.185 1.906-8.586.215-8.28-2.609.287-2.842.072-3.904-3.485-11.603-1.167-2.555-1.4-4.497-1.203-5.99-4.58-.27-8.37-.144-8.37-.144s-7.167.863-11.585 6.134c.197.036 3.79.72 6.232 4.857 2.515 4.264-3.574 7.016 0 9.355 3.575 2.356 3.934 9.444 3.934 12.646 0 1.925-.647 4.317-2.173 5.918 1.921.684 4.13 1.206 6.663 1.53.988.125 1.94.197 2.874.233.072-1.457.305-3.274.862-5.217 1.347-4.587 2.605-6.35 8.173-6.008z" fill="#C2D8EC"/><path d="M30.247 44.343c-3.574-2.356 2.515-5.109 0-9.354-2.442-4.137-6.017-4.821-6.232-4.857a13.908 13.908 0 00-2.946 5.918c-2.173 9.3-2.317 22.11 10.957 26.858 1.508-1.619 2.173-3.993 2.173-5.918-.018-3.202-.377-10.308-3.952-12.647zm14.927-14.229c3.538 7.7 3.772 8.779 3.484 11.603-.287 2.842 4.113 4.515 8.28 2.608 3.79-1.727 3.88-3.633 8.083-3.975-1.4-7.286-5.568-13.456-11.657-14.967-2.874-.72-6.322-1.08-9.412-1.26-.197 1.494.036 3.436 1.222 5.99zm19.11 21.461c-1.131.18-2.065.342-2.64.45-2.658.486-5.496 1.78-11.064 1.42-5.569-.359-6.844 1.422-8.173 6.027a23.276 23.276 0 00-.862 5.217c13.04.63 20.099-6.134 22.74-13.114z" fill="#8ABC36"/><path d="M82.192 50.334c.592-3.31.88-6.674.79-10.092-.108-3.508-1.042-7.196-1.707-10.632-.502-2.608-.574-4.839-2.155-7.087-.072-.108-.162-.234-.305-.252-.108-.018-.216.036-.306.072-2.209 1.115-4.13 2.698-6.34 3.831-1.096.558-4.76 1.71-5.101 2.95-.27.918 1.383 3.31 1.724 4.228a35.947 35.947 0 011.42 4.93c1.4 6.475 1.49 13.545-.324 19.967-1.724 6.098-5.586 11.531-10.705 15.237-5.748 4.138-14.585 4.443-21.338 3.166-2.317-.432-6.107-.594-6.125-3.346 0-.45.323-4.875.593-4.965-4.49 1.367-9.035 2.752-13.705 2.968-2.91.144-5.82-.162-8.711.144-3.718.396-.036 3.994.916 5.091.646.738 1.293 1.475 2.011 2.159.916.881 1.94 1.655 2.964 2.428 2.084 1.583 4.185 3.166 6.268 4.731 1.527 1.152 3.216 3.472 4.922 4.156.593-1.493.916-3.148 1.347-4.713.198-.738.52-3.616 1.221-3.958.54-.27 3.215.918 3.952 1.044 1.4.27 2.82.431 4.203.755 2.586.594 5.227.9 7.867 1.061 5.155.288 10.49-.701 15.213-2.626a26.093 26.093 0 004.114-2.105c8.19-5.09 13.417-14.05 15.931-23.188a67.946 67.946 0 001.366-5.954zM.807 39.684c-.592 3.31-.88 6.674-.79 10.092.108 3.508 1.042 7.196 1.706 10.632.503 2.608.575 4.839 2.156 7.088.072.107.162.233.305.251.108.018.216-.036.306-.072 2.209-1.115 4.13-2.698 6.34-3.831 1.096-.558 4.76-1.71 5.101-2.95.27-.918-1.383-3.31-1.724-4.228a35.956 35.956 0 01-1.42-4.929c-1.4-6.476-1.49-13.546.324-19.968 1.724-6.098 5.586-11.531 10.705-15.237 5.748-4.137 14.585-4.443 21.338-3.166 2.317.432 6.107.594 6.125 3.346 0 .45-.323 4.875-.593 4.965 4.49-1.367 9.035-2.752 13.705-2.968 2.91-.144 5.82.162 8.711-.144 3.718-.396.036-3.994-.916-5.091a38.15 38.15 0 00-2.011-2.159c-.916-.881-1.94-1.655-2.964-2.428a1431.79 1431.79 0 00-6.268-4.731C59.433 3.004 57.727.684 56.038 0c-.593 1.493-.916 3.148-1.347 4.713-.198.738-.521 3.616-1.221 3.958-.54.27-3.216-.918-3.952-1.044-1.401-.27-2.82-.431-4.203-.755-2.587-.594-5.227-.9-7.867-1.061-5.191-.288-10.508.701-15.231 2.608a26.09 26.09 0 00-4.114 2.105C9.896 15.597 4.67 24.574 2.173 33.712a68.356 68.356 0 00-1.366 5.972z" fill="#8ABC36"/></g><defs><clipPath id="clip0_192_19914"><path fill="#fff" d="M0 0h83v90H0z"/></clipPath></defs></svg>