<svg width="70" height="84" fill="none" xmlns="http://www.w3.org/2000/svg"><g clip-path="url(#clip0_192_21737)"><path d="M9.007 56.079c-2.6-1.198-8.283.111-8.88-1.783C-.937 50.94 5.03 42.585 6.408 35.33c1.279-6.74-1.392-11.573 2.6-19.733C13 7.422 24.75-.641 37.593.042c12.843.682 29.082 8.23 31.966 27.016 2.06 13.41-3.267 24.773-8.481 29.02-5.2 4.248-9.093 9.456-7.886 25.095 0 3.746-24.92 3.133-26.127 1.782-1.208-1.364 1.037-12.254-.696-12.421-1.733-.167-14.932 2.548-14.236-2.047.696-4.596.142-8.384-2.628-8.662-1.705-.167-.498-3.746-.498-3.746z" fill="#8ABC36"/><path d="M38.729 43.88s8.922.85 12.346-10.291c3.424-11.14 5.697-13.717 5.697-13.717s-.17-.836-2.287.265c-2.117 1.086-15.841 4.692-17.191 11.516-1.35 6.824.17 10.737 1.435 12.227z" fill="#fff"/><path d="M37.237 46.484c-.17.056-.327-.098-.44-.223-.128-.125-.37-.209-.455-.056-.029.042-.029.098-.029.154.029 1.462.043 2.91.072 4.372.028 1.435.042 2.883.27 4.317.028.167.07.348.213.446.127.083.298.07.44.042.327-.07.64-.167.952-.307.17-.07.327-.167.412-.32.085-.153.07-.334.07-.501a65.627 65.627 0 01-.042-6.253c.157-3.607 1.45-7.019 2.842-10.36 1.492-3.594 3.296-7.27 5.995-10.153.37-.403 1.322-1.128.924-1.49-.398-.362-1.535.543-1.904.933-6.152 6.573-9.49 19.26-9.647 19.845-.028.125-.042.25-.028.362a.972.972 0 00.724.821c.526.14 1.08-.167 1.222-.682.014-.028-.213-.766.085-1.964 0-.014.015-.027.015-.055l-1.691 1.072z" fill="#006C2B"/><path d="M35.802 45.314s-5.512 2.173-9.831-4.289c-4.305-6.462-6.238-7.687-6.238-7.687s-.042-.557 1.506-.25c1.55.306 10.983.069 13.142 4.177 2.174 4.108 1.947 6.88 1.421 8.05z" fill="#fff"/><path d="M37.635 47.152a.645.645 0 01-.298.655.674.674 0 01-.91-.209c-.014-.014-.014-.53-.425-1.24-1.421-2.353-5.13-7.547-8.894-9.775-.313-.181-1.066-.474-.867-.78.185-.306 1.08.07 1.392.25 5.172 3.05 9.718 10.529 9.931 10.863.029.083.057.167.071.236z" fill="#006C2B"/></g><defs><clipPath id="clip0_192_21737"><path fill="#fff" d="M0 0h70v84H0z"/></clipPath></defs></svg>