<svg width="62" height="86" fill="none" xmlns="http://www.w3.org/2000/svg"><g clip-path="url(#clip0_192_14507)"><path d="M5.565 19.434c0 .095-.019.171-.019.266a508.254 508.254 0 00-.67 44.187c.115 3.686.25 7.371.44 11.038.115 2.26-1.319 8.263.268 10.011 1.913 2.09 12.756.475 15.701.475h25.263c2.218 0 7.802 1.045 9.62-.646 1.988-1.862.822-7.77.822-10.277.019-16.832.038-33.644.038-50.476 0-2.45-.02-4.996-1.167-7.18-7.974-.361-15.892.265-23.981-.172-8.338-.436-16.734-.664-24.919 1.33-.401.095-.822.21-1.09.532-.21.247-.287.59-.306.912z" fill="#8ABC36"/><path opacity=".2" d="M11.111 24.165c-.306 2.09.115 4.939.096 6.42l-.058 10.202c-.019 6.801-.019 13.602.02 20.403.019 5.205-.823 10.391-.44 15.597.115 1.443.344 3.001 1.434 3.951.86.74 2.085.93 3.213 1.007.822.038 1.76 0 2.314-.627.344-.38.459-.912.535-1.425.67-4.065-.019-8.169.249-12.196.287-4.217.076-8.51.076-12.747V28.002c0-2.318.536-4.388-1.338-5.7-.88-.607-4.57-.968-5.355-.094-.402.418-.631 1.12-.746 1.957zm15.854-.001c-.306 2.09.114 4.94.095 6.421l-.057 10.202c-.02 6.8-.02 13.602.02 20.403.018 5.205-.823 10.391-.44 15.596.114 1.444.344 3.002 1.434 3.952.86.74 2.084.93 3.212 1.007.823.038 1.76 0 2.314-.627.345-.38.46-.912.536-1.425.67-4.065-.02-8.169.248-12.196.306-4.237.096-8.549.096-12.766V27.983c0-2.318.535-4.389-1.339-5.7-.88-.607-4.57-.968-5.354-.094-.402.437-.631 1.14-.765 1.975zm15.873 0c-.306 2.09.114 4.94.095 6.421l-.057 10.202c-.02 6.8-.02 13.602.02 20.403.018 5.205-.823 10.391-.44 15.596.114 1.444.343 3.002 1.434 3.952.86.74 2.084.93 3.212 1.007.823.038 1.76 0 2.314-.627.345-.38.46-.912.536-1.425.67-4.066-.02-8.169.248-12.196.287-4.218.077-8.51.077-12.747V28.002c0-2.318.535-4.389-1.339-5.7-.88-.607-4.57-.968-5.354-.094-.402.418-.632 1.12-.746 1.956z" fill="#000"/><path d="M61.598 13.602l.058-5.186c0-.247-.02-.513-1.377-.741-6.273-.019-12.507 0-18.78 0C40.371 2.242 35.551-.532 29.833.076c-4.36.456-9.963 2.964-10.23 7.561h-4.82C10.23 7.675 4.59 8.701.344 7.087a5.259 5.259 0 00-.115.816c-.153 2.204.632 4.958-.229 6.44.23.266.535.304.899.342 2.256.209 15.05.057 18.531.057h29.833c2.62 0 9.2.114 11.36-.076 2.352-.209.975-.798.975-1.064zM21.687 7.656c1.434-2.64 4.207-3.875 7.343-4.521 4.57-.97 7.593.912 9.046 4.578-2.046 0-4.074 0-6.139-.019-3.404-.038-6.827-.038-10.25-.038z" fill="#8ABC36"/></g><defs><clipPath id="clip0_192_14507"><path fill="#fff" d="M0 0h62v86H0z"/></clipPath></defs></svg>