<svg width="63" height="96" fill="none" xmlns="http://www.w3.org/2000/svg"><g clip-path="url(#clip0_1184_3356)" fill-rule="evenodd" clip-rule="evenodd" fill="#81AF29"><path d="M31.506 0C48.899 0 63 14.305 63.01 31.96c.022 25.46-15.566 19.507-15.632 40.4 0 .938-.748 1.698-1.673 1.698H33.52V52.104c7.54-1.396 13.98-8.532 14.916-17.052.407-3.629-.253-6.979-1.695-9.726-8.531.156-16.27 7.884-17.316 17.297a18.298 18.298 0 00.011 4.255c.1.848.187 1.284.187 2.144v25.036H17.448c-.925 0-1.684-.76-1.673-1.698C15.929 52.014.055 58.056 0 31.96-.044 14.304 14.102 0 31.506 0zm-2.521 38.09c-2.642-4.043-7.167-6.7-12.308-6.7-.99 0-1.97.1-2.906.29-.198.983-.308 2.01-.308 3.06 0 8.274 6.605 14.974 14.762 14.974h.21a21.175 21.175 0 01.55-11.624zm6 6.175l-.474-1.776a.746.746 0 00-.914-.536.769.769 0 00-.528.927l.891 3.395a.745.745 0 00.44.502.71.71 0 00.65.134l3.347-.904a.768.768 0 00.528-.927.755.755 0 00-.913-.536l-1.75.48 1.86-3.272h.022l4.018-1.094a.925.925 0 00.638-1.117.91.91 0 00-1.1-.647l-2.313.625 2.136-3.74 3.192-.872a.769.769 0 00.529-.927.755.755 0 00-.914-.536l-1.75.48 1.035-1.83a.756.756 0 00-.276-1.028.725.725 0 00-1.012.279l-1.035 1.831-.473-1.775a.755.755 0 00-.914-.536.769.769 0 00-.529.927l.86 3.238-2.125 3.74-.617-2.344a.91.91 0 00-1.1-.648.925.925 0 00-.64 1.117l1.08 4.076.01.022-1.86 3.272zM19.517 77.888H43.23c1.145 0 2.08.949 2.08 2.11s-.935 2.11-2.08 2.11H19.517c-1.145 0-2.08-.949-2.08-2.11.01-1.161.935-2.11 2.08-2.11zm0 6.822H43.23c1.145 0 2.08.95 2.08 2.111 0 1.161-.935 2.11-2.08 2.11H19.517c-1.145 0-2.08-.949-2.08-2.11.01-1.161.935-2.11 2.08-2.11zm7.09 7.08h9.544c1.145 0 2.08.95 2.08 2.11 0 1.162-.935 2.111-2.08 2.111h-9.544c-1.145 0-2.08-.949-2.08-2.11 0-1.162.935-2.11 2.08-2.11z"/></g><defs><clipPath id="clip0_1184_3356"><path fill="#fff" d="M0 0h63v96H0z"/></clipPath></defs></svg>