<svg width="91" height="76" fill="none" xmlns="http://www.w3.org/2000/svg"><g clip-path="url(#clip0_192_22649)"><path d="M43.84.593C15.836-3.507-.296 14.426 0 32.013.297 49.603 19.65 57.87 19.65 57.87c14.993 5.846 26.717 7.789 26.717 7.789L48.249 76l6.242-10.59c15.637-1.316 40.901-11.774 35.816-29.477C85.237 18.247 71.829 4.693 43.84.593z" fill="#8ABC36"/><path d="M34.313 37.415c-5.086-.938-10.42-.642-15.555.066.413-7.295 2.444-14.722 3.534-21.886.231-1.564-2.097-2.207-2.427-.593-1.652 7.97-2.312 16.633-5.07 24.29-.412 1.137.76 2.586 1.965 2.438 5.78-.708 11.36-.445 17.157-.51 2.13-.033 2.56-3.41.396-3.805z" fill="#fff"/><path d="M33.85 24.406c-2.36-.083-4.738.098-7.1.164-2.113.066-4.672-.23-6.703.395-.545.165-.991.709-.942 1.285.033.346.1.593.298.873.264.379.693.576 1.155.444h.017c1.354.28 2.94.132 4.227.165 3.038.066 6.11.28 9.132.181 2.295-.082 2.18-3.442-.083-3.507zm-1.106-9.321c-3.963-.461-8.008-.676-12.004-.824-1.37-.05-1.635 2.207-.264 2.405 3.93.56 7.975 1.087 11.938 1.334 1.684.098 1.998-2.734.33-2.915zm21.136 22.05c-.181-.247-.363-.494-.528-.74-1.387-1.895-3.996-.742-3.93 1.185-2.923 2.174-6.093 1.779-7.794-2.207-1.04-2.453-.611-5.236.017-7.723 1.32-5.237 6.604-11.231 12.35-8.02 1.223.675 2.577-1.038 1.487-1.993-8.504-7.46-16.991 4.265-18.362 11.973-.726 4.117.495 9.88 4.31 12.301 4.326 2.75 8.652 1.153 12.153-2.124.66-.61.859-1.878.297-2.652zm16.793-16.303c-.578-.362-1.172-.362-1.684-.132-3.699-1.976-7.447 6.324-8.47 8.564-2.148 4.66-3.237 12.466 2.13 15.644 5.762 3.41 9.51-1.103 11.442-6.258 2.329-6.208 2.824-13.767-3.418-17.818zm-1.932 19.762c-2.856 1.778-4.805 1.498-5.845-.873-1.156-1.861-.826-4.348-.446-6.34.165-.873 2.774-8.844 5.251-10.145.1.297.264.593.561.84 5.268 4.331 3.352 11.264.48 16.518z" fill="#fff"/></g><defs><clipPath id="clip0_192_22649"><path fill="#fff" d="M0 0h91v76H0z"/></clipPath></defs></svg>