<svg width="60" height="60" fill="none" xmlns="http://www.w3.org/2000/svg"><path d="M54.75 45.844L45.047 9.609a3.75 3.75 0 00-4.594-2.648l-7.242 1.945-.234.07A3.75 3.75 0 0030 7.5h-7.5c-.66.002-1.307.18-1.875.516A3.703 3.703 0 0018.75 7.5h-7.5a3.75 3.75 0 00-3.75 3.75v37.5a3.75 3.75 0 003.75 3.75h7.5a3.703 3.703 0 001.875-.516 3.703 3.703 0 001.875.516H30a3.75 3.75 0 003.75-3.75V25.406l6.516 24.305a3.75 3.75 0 003.632 2.79 4.67 4.67 0 00.961-.118l7.243-1.945a3.75 3.75 0 002.648-4.594zm-13.336-35.25l1.477 5.414-7.243 1.945-1.476-5.414 7.242-1.945zM30 11.25v28.125h-7.5V11.25H30zm-11.25 0v5.625h-7.5V11.25h7.5zM30 48.75h-7.5v-5.625H30v5.625zm21.14-1.945l-7.242 1.945-1.476-5.437 7.266-1.946 1.453 5.438z" fill="#00A0E3"/></svg>