<svg width="60" height="60" fill="none" xmlns="http://www.w3.org/2000/svg"><path d="M47.227 12.773a24.329 24.329 0 00-34.453 0 24.328 24.328 0 000 34.454 24.33 24.33 0 0034.453 0 24.329 24.329 0 000-34.454zM30 40.055a7.477 7.477 0 00-7.57-2.297L26.016 30h7.968l3.587 7.758A7.477 7.477 0 0030 40.055zm9.375 8.32a20.86 20.86 0 01-7.5 2.156V45a3.75 3.75 0 017.5 0v3.375zm5.203-3.797a25.8 25.8 0 01-1.453 1.336V41.25a2.296 2.296 0 00-.164-.797l-11.25-24.375h-.023a.963.963 0 00-.117-.21c0-.024 0-.024-.024-.048l-.117-.164h-.024a1.074 1.074 0 00-.164-.164h-.047l-.164-.14h-.046l-.188-.118h-.023l-.211-.07h-.07l-.212-.047h-.562l-.235.047h-.046l-.188.07h-.047l-.21.094h-.024l-.164.14h-.047l-.164.165h-.024l-.117.164-.047.047a.961.961 0 01-.117.21l-5.18 11.25-6.07 13.149a2.298 2.298 0 00-.164.797v4.664a25.832 25.832 0 01-1.453-1.336 20.626 20.626 0 1129.156 0z" fill="#00A0E3"/></svg>