<svg width="60" height="60" viewBox="0 0 60 60" fill="none" xmlns="http://www.w3.org/2000/svg">
<path d="M38.8594 52.5H48.75C49.7446 52.5 50.6984 52.1049 51.4016 51.4016C52.1049 50.6984 52.5 49.7446 52.5 48.75V39.9141C52.4989 39.6064 52.4212 39.3039 52.2739 39.0338C52.1266 38.7637 51.9143 38.5346 51.6562 38.3672C51.4018 38.1916 51.1066 38.0843 50.7988 38.0555C50.491 38.0268 50.181 38.0776 49.8984 38.2031C49.2343 38.4655 48.5266 38.6007 47.8125 38.6016C44.7188 38.6016 42.1875 36 42.1875 32.8125C42.1875 29.625 44.7188 27.0234 47.8125 27.0234C48.5266 27.0243 49.2343 27.1595 49.8984 27.4219C50.181 27.5474 50.491 27.5982 50.7988 27.5695C51.1066 27.5407 51.4018 27.4334 51.6562 27.2578C51.9143 27.0904 52.1266 26.8613 52.2739 26.5912C52.4212 26.3211 52.4989 26.0186 52.5 25.7109V16.875C52.5 15.8804 52.1049 14.9266 51.4016 14.2233C50.6984 13.5201 49.7446 13.125 48.75 13.125H40.2656C40.2891 12.8203 40.3125 12.4922 40.3125 12.1875C40.3125 9.94974 39.4235 7.80362 37.8412 6.22129C36.2589 4.63895 34.1128 3.75 31.875 3.75C29.6372 3.75 27.4911 4.63895 25.9088 6.22129C24.3264 7.80362 23.4375 9.94974 23.4375 12.1875C23.4375 12.4922 23.4609 12.8203 23.4844 13.125H15C14.0054 13.125 13.0516 13.5201 12.3483 14.2233C11.6451 14.9266 11.25 15.8804 11.25 16.875V24.4219L10.3125 24.375C8.07474 24.375 5.92862 25.2639 4.34629 26.8463C2.76395 28.4286 1.875 30.5747 1.875 32.8125C1.875 35.0503 2.76395 37.1964 4.34629 38.7787C5.92862 40.361 8.07474 41.25 10.3125 41.25L11.25 41.2031V48.75C11.25 49.7446 11.6451 50.6984 12.3483 51.4016C13.0516 52.1049 14.0054 52.5 15 52.5H24.8906" fill="#00A0E3"/>
</svg>
