<svg width="60" height="60" fill="none" xmlns="http://www.w3.org/2000/svg"><path d="M38.86 52.5h9.89a3.75 3.75 0 003.75-3.75v-8.836a1.852 1.852 0 00-.844-1.547 1.805 1.805 0 00-1.758-.164 5.696 5.696 0 01-2.086.399c-3.093 0-5.624-2.602-5.624-5.79 0-3.187 2.53-5.789 5.624-5.789a5.704 5.704 0 012.086.399 1.805 1.805 0 001.758-.164 1.85 1.85 0 00.844-1.547v-8.836a3.75 3.75 0 00-3.75-3.75h-8.484c.023-.305.047-.633.047-.938a8.438 8.438 0 00-16.876 0c0 .305.024.633.047.938H15a3.75 3.75 0 00-3.75 3.75v7.547l-.938-.047a8.437 8.437 0 100 16.875l.938-.047v7.547A3.75 3.75 0 0015 52.5h9.89" fill="#00A0E3"/></svg>