<svg width="60" height="60" fill="none" xmlns="http://www.w3.org/2000/svg"><path d="M46.523 13.148c-2.836-4.851-6.703-7.523-10.898-7.523h-11.25c-4.195 0-8.063 2.672-10.898 7.523C10.64 18 9.375 23.672 9.375 30c0 6.328 1.453 12.328 4.102 16.852 2.648 4.523 6.703 7.523 10.898 7.523h11.25c4.195 0 8.063-2.672 10.898-7.523C49.36 42 50.625 36.328 50.625 30c0-6.328-1.453-12.328-4.102-16.852zm.305 14.977h-7.5c-.187-4.031-.96-7.898-2.273-11.25h7.172c1.43 3.14 2.39 7.031 2.601 11.25zm-4.828-15h-6.727a20.856 20.856 0 00-2.812-3.75h3.164c2.344 0 4.547 1.406 6.375 3.75zm-6.375 37.5h-3.164a20.856 20.856 0 002.812-3.75H42c-1.828 2.344-4.031 3.75-6.375 3.75zm8.602-7.5h-7.172c1.312-3.352 2.086-7.219 2.273-11.25h7.5c-.21 4.219-1.172 8.11-2.601 11.25z" fill="#00A0E3"/></svg>