<svg width="60" height="60" fill="none" xmlns="http://www.w3.org/2000/svg"><path d="M55.71 4.29a1.898 1.898 0 00-2.671 0l-11.79 11.812-1.265-1.266a7.477 7.477 0 00-10.594 0l-5.953 5.953-.539-.562a1.898 1.898 0 00-2.672 2.671l.563.54-5.953 5.953a7.475 7.475 0 000 10.593L16.1 41.25 4.29 53.04a1.898 1.898 0 000 2.671 1.922 1.922 0 002.672 0L18.75 43.898l1.265 1.266a7.524 7.524 0 0010.594 0l5.953-5.953.54.563a1.922 1.922 0 002.671 0 1.898 1.898 0 000-2.672l-.562-.54 5.953-5.953a7.475 7.475 0 000-10.593l-1.266-1.266L55.711 6.961a1.898 1.898 0 000-2.672zM42.516 27.96l-5.953 5.953-10.476-10.477 5.953-5.953a3.728 3.728 0 015.297 0l5.18 5.18a3.725 3.725 0 010 5.297zm11.766 10.125a1.851 1.851 0 01-1.781 1.289 1.71 1.71 0 01-.586-.094l-5.625-1.875a1.875 1.875 0 111.172-3.562l5.625 1.875a1.873 1.873 0 011.195 2.367zM5.72 21.914a1.875 1.875 0 012.367-1.195l5.625 1.875a1.875 1.875 0 01-.586 3.656 1.71 1.71 0 01-.586-.094l-5.625-1.875a1.875 1.875 0 01-1.195-2.367zm15-13.828a1.875 1.875 0 113.562-1.172l1.875 5.625a1.875 1.875 0 01-1.195 2.367 1.71 1.71 0 01-.586.094 1.851 1.851 0 01-1.781-1.289L20.72 8.086zm18.56 43.828a1.875 1.875 0 01-1.195 2.367 1.71 1.71 0 01-.586.094 1.851 1.851 0 01-1.781-1.289l-1.875-5.625a1.875 1.875 0 113.562-1.172l1.875 5.625z" fill="#00A0E3"/></svg>