<svg width="100" height="100" fill="none" xmlns="http://www.w3.org/2000/svg"><path d="M93.75 21.875v25a3.125 3.125 0 01-1.914 2.89 3.32 3.32 0 01-1.211.235 3.243 3.243 0 01-2.227-.898L78.125 38.789 55.352 61.602a3.164 3.164 0 01-4.454 0L37.5 48.164 11.602 74.102c-.6.573-1.397.894-2.227.898a3.32 3.32 0 01-2.227-.898 3.164 3.164 0 010-4.454l28.125-28.125a3.164 3.164 0 014.454 0l13.398 13.438 20.586-20.586-10.313-10.273a3.283 3.283 0 01-.664-3.438 3.164 3.164 0 012.891-1.914h25a3.125 3.125 0 013.125 3.125z" fill="#00A0E3"/></svg>