<svg width="100" height="100" fill="none" xmlns="http://www.w3.org/2000/svg"><path d="M90.625 50A40.664 40.664 0 0050 9.375a40.625 40.625 0 100 81.25A40.664 40.664 0 0090.625 50zm-6.406-3.125H68.672c-.625-11.563-4.688-22.266-11.524-30.508a34.453 34.453 0 0127.07 30.508zm-46.602 6.25h24.766C61.68 64.375 57.187 74.883 50 82.188c-7.188-7.305-11.68-17.813-12.383-29.063zm0-6.25C38.32 35.625 42.813 25.117 50 17.812c7.188 7.305 11.68 17.813 12.383 29.063H37.617zm19.531 36.758c6.836-8.242 10.899-18.945 11.524-30.508h15.547a34.454 34.454 0 01-27.07 30.508z" fill="#00A0E3"/></svg>