<svg width="60" height="60" fill="none" xmlns="http://www.w3.org/2000/svg"><path d="M43.125 39.375v3.75a1.875 1.875 0 11-3.75 0v-3.75a9.375 9.375 0 10-18.75 0v3.75a1.875 1.875 0 11-3.75 0v-3.75a13.125 13.125 0 1126.25 0zM30 18.75A20.648 20.648 0 009.375 39.375v3.75a1.875 1.875 0 103.75 0v-3.75a16.875 16.875 0 1133.75 0v3.75a1.875 1.875 0 103.75 0v-3.75A20.648 20.648 0 0030 18.75zm0-7.5A28.148 28.148 0 001.875 39.375v3.75a1.875 1.875 0 103.75 0v-3.75a24.375 24.375 0 1148.75 0v3.75a1.875 1.875 0 103.75 0v-3.75A28.148 28.148 0 0030 11.25z" fill="#00A0E3"/></svg>