<svg width="60" height="60" fill="none" xmlns="http://www.w3.org/2000/svg"><path d="M46.875 5.625h-33.75a3.75 3.75 0 00-3.75 3.75v41.25a3.75 3.75 0 003.75 3.75h33.75a3.75 3.75 0 003.75-3.75V9.375a3.75 3.75 0 00-3.75-3.75zM22.5 11.25h15a1.875 1.875 0 110 3.75h-15a1.875 1.875 0 110-3.75zM42.375 46.5a1.898 1.898 0 01-2.625-.375 12.187 12.187 0 00-19.5 0 1.874 1.874 0 01-1.5.75 1.805 1.805 0 01-1.125-.375 1.875 1.875 0 01-.375-2.625 15.89 15.89 0 016.422-5.086 9.375 9.375 0 1112.656 0 15.89 15.89 0 016.422 5.086 1.875 1.875 0 01-.375 2.625zm-6.75-14.625A5.625 5.625 0 1130 26.25a5.649 5.649 0 015.625 5.625z" fill="#00A0E3"/></svg>