<svg width="60" height="60" viewBox="0 0 60 60" fill="none" xmlns="http://www.w3.org/2000/svg">
<path d="M43.125 39.375V43.125C43.125 43.6223 42.9275 44.0992 42.5758 44.4508C42.2242 44.8025 41.7473 45 41.25 45C40.7527 45 40.2758 44.8025 39.9242 44.4508C39.5725 44.0992 39.375 43.6223 39.375 43.125V39.375C39.375 36.8886 38.3873 34.504 36.6291 32.7459C34.871 30.9877 32.4864 30 30 30C27.5136 30 25.129 30.9877 23.3709 32.7459C21.6127 34.504 20.625 36.8886 20.625 39.375V43.125C20.625 43.6223 20.4275 44.0992 20.0758 44.4508C19.7242 44.8025 19.2473 45 18.75 45C18.2527 45 17.7758 44.8025 17.4242 44.4508C17.0725 44.0992 16.875 43.6223 16.875 43.125V39.375C16.875 35.894 18.2578 32.5556 20.7192 30.0942C23.1806 27.6328 26.519 26.25 30 26.25C33.481 26.25 36.8194 27.6328 39.2808 30.0942C41.7422 32.5556 43.125 35.894 43.125 39.375ZM30 18.75C24.5318 18.7562 19.2894 20.9312 15.4228 24.7978C11.5562 28.6644 9.3812 33.9068 9.375 39.375V43.125C9.375 43.6223 9.57254 44.0992 9.92418 44.4508C10.2758 44.8025 10.7527 45 11.25 45C11.7473 45 12.2242 44.8025 12.5758 44.4508C12.9275 44.0992 13.125 43.6223 13.125 43.125V39.375C13.125 34.8995 14.9029 30.6072 18.0676 27.4426C21.2322 24.2779 25.5245 22.5 30 22.5C34.4755 22.5 38.7677 24.2779 41.9324 27.4426C45.0971 30.6072 46.875 34.8995 46.875 39.375V43.125C46.875 43.6223 47.0725 44.0992 47.4242 44.4508C47.7758 44.8025 48.2527 45 48.75 45C49.2473 45 49.7242 44.8025 50.0758 44.4508C50.4275 44.0992 50.625 43.6223 50.625 43.125V39.375C50.6188 33.9068 48.4438 28.6644 44.5772 24.7978C40.7106 20.9312 35.4682 18.7562 30 18.75ZM30 11.25C22.5427 11.2562 15.3926 14.2214 10.1195 19.4945C4.84636 24.7676 1.88121 31.9177 1.875 39.375V43.125C1.875 43.6223 2.07254 44.0992 2.42417 44.4508C2.77581 44.8025 3.25272 45 3.75 45C4.24728 45 4.72419 44.8025 5.07583 44.4508C5.42746 44.0992 5.625 43.6223 5.625 43.125V39.375C5.625 32.9103 8.19307 26.7105 12.7643 22.1393C17.3355 17.5681 23.5353 15 30 15C36.4647 15 42.6645 17.5681 47.2357 22.1393C51.8069 26.7105 54.375 32.9103 54.375 39.375V43.125C54.375 43.6223 54.5725 44.0992 54.9242 44.4508C55.2758 44.8025 55.7527 45 56.25 45C56.7473 45 57.2242 44.8025 57.5758 44.4508C57.9275 44.0992 58.125 43.6223 58.125 43.125V39.375C58.1188 31.9177 55.1536 24.7676 49.8805 19.4945C44.6074 14.2214 37.4573 11.2562 30 11.25Z" fill="#00A0E3"/>
</svg>
