<svg width="60" height="60" viewBox="0 0 60 60" fill="none" xmlns="http://www.w3.org/2000/svg">
<path d="M30 31.875C34.1421 31.875 37.5 28.5171 37.5 24.375C37.5 20.2329 34.1421 16.875 30 16.875C25.8579 16.875 22.5 20.2329 22.5 24.375C22.5 28.5171 25.8579 31.875 30 31.875Z" fill="#00A0E3"/>
<path d="M52.5 46.875H31.875V43.0313C36.6612 42.5502 41.0794 40.2481 44.216 36.601C47.3525 32.9539 48.9673 28.2408 48.7265 23.4366C48.4857 18.6323 46.4076 14.1043 42.9221 10.7892C39.4366 7.47401 34.8103 5.62524 30 5.62524C25.1897 5.62524 20.5634 7.47401 17.0779 10.7892C13.5924 14.1043 11.5143 18.6323 11.2735 23.4366C11.0327 28.2408 12.6475 32.9539 15.784 36.601C18.9206 40.2481 23.3388 42.5502 28.125 43.0313V46.875H7.5C7.00272 46.875 6.52581 47.0726 6.17417 47.4242C5.82254 47.7758 5.625 48.2527 5.625 48.75C5.625 49.2473 5.82254 49.7242 6.17417 50.0758C6.52581 50.4275 7.00272 50.625 7.5 50.625H52.5C52.9973 50.625 53.4742 50.4275 53.8258 50.0758C54.1775 49.7242 54.375 49.2473 54.375 48.75C54.375 48.2527 54.1775 47.7758 53.8258 47.4242C53.4742 47.0726 52.9973 46.875 52.5 46.875ZM18.75 24.375C18.75 22.15 19.4098 19.9749 20.646 18.1248C21.8821 16.2748 23.6391 14.8329 25.6948 13.9814C27.7505 13.1299 30.0125 12.9071 32.1948 13.3412C34.3771 13.7753 36.3816 14.8467 37.955 16.4201C39.5283 17.9934 40.5998 19.998 41.0338 22.1802C41.4679 24.3625 41.2451 26.6245 40.3936 28.6802C39.5422 30.7359 38.1002 32.4929 36.2502 33.729C34.4001 34.9652 32.225 35.625 30 35.625C27.0163 35.625 24.1548 34.4397 22.045 32.33C19.9353 30.2202 18.75 27.3587 18.75 24.375Z" fill="#00A0E3"/>
</svg>
