<svg width="60" height="60" fill="none" xmlns="http://www.w3.org/2000/svg"><path d="M52.734 5.39c-4.992 0-10.617 2.766-16.664 8.18-4.242 3.797-7.875 8.133-10.383 11.414A14.086 14.086 0 007.5 38.437c0 7.313-3.797 10.57-3.984 10.735a1.804 1.804 0 00-.586 2.062A1.829 1.829 0 004.687 52.5h16.875a14.086 14.086 0 0013.454-18.188c3.28-2.507 7.617-6.14 11.414-10.382 5.414-6.047 8.18-11.672 8.18-16.664a1.875 1.875 0 00-1.876-1.875zM29.156 26.626a98.374 98.374 0 012.39-2.93 17.672 17.672 0 014.759 4.758 98.374 98.374 0 01-2.93 2.39 13.923 13.923 0 00-4.219-4.218zm9.985-.68a21.819 21.819 0 00-5.086-5.086c4.593-4.968 10.78-10.406 16.593-11.507-1.101 5.812-6.539 12-11.507 16.593z" fill="#00A0E3"/></svg>