<svg width="60" height="60" viewBox="0 0 60 60" fill="none" xmlns="http://www.w3.org/2000/svg">
<path d="M50.625 15H41.0859C40.6347 12.3869 39.275 10.0172 37.2466 8.30913C35.2183 6.60102 32.6518 5.66431 30 5.66431C27.3482 5.66431 24.7817 6.60102 22.7534 8.30913C20.725 10.0172 19.3653 12.3869 18.9141 15H9.375C8.38044 15 7.42661 15.3951 6.72335 16.0984C6.02009 16.8016 5.625 17.7555 5.625 18.75V48.75C5.625 49.7446 6.02009 50.6984 6.72335 51.4017C7.42661 52.1049 8.38044 52.5 9.375 52.5H50.625C51.6196 52.5 52.5734 52.1049 53.2766 51.4017C53.9799 50.6984 54.375 49.7446 54.375 48.75V18.75C54.375 17.7555 53.9799 16.8016 53.2766 16.0984C52.5734 15.3951 51.6196 15 50.625 15ZM30 9.37502C31.6623 9.37819 33.2768 9.93184 34.5913 10.9495C35.9058 11.9671 36.8462 13.3915 37.2656 15H22.7344C23.1538 13.3915 24.0942 11.9671 25.4087 10.9495C26.7232 9.93184 28.3377 9.37819 30 9.37502Z" fill="#00A0E3"/>
</svg>
