<svg width="60" height="60" fill="none" xmlns="http://www.w3.org/2000/svg"><path d="M58.125 35.625A1.875 1.875 0 0156.25 37.5H52.5v3.75a1.875 1.875 0 11-3.75 0V37.5H45a1.875 1.875 0 110-3.75h3.75V30a1.875 1.875 0 013.75 0v3.75h3.75a1.875 1.875 0 011.875 1.875zM15 15.937h2.812v2.813a1.875 1.875 0 003.75 0v-2.813h2.813a1.875 1.875 0 100-3.75h-2.813V9.376a1.875 1.875 0 10-3.75 0v2.813H15a1.875 1.875 0 100 3.75zM43.125 45H41.25v-1.875a1.875 1.875 0 10-3.75 0V45h-1.875a1.875 1.875 0 100 3.75H37.5v1.875a1.875 1.875 0 003.75 0V48.75h1.875a1.875 1.875 0 100-3.75zm-.54-17.414L17.649 52.5a3.726 3.726 0 01-5.296 0L7.5 47.648a3.726 3.726 0 010-5.296L42.352 7.5a3.773 3.773 0 015.296 0l4.852 4.852a3.725 3.725 0 010 5.296l-9.914 9.938zm-6.187-8.836l4.852 4.852L49.852 15 45 10.148l-8.602 8.602z" fill="#00A0E3"/></svg>