<svg width="60" height="60" viewBox="0 0 60 60" fill="none" xmlns="http://www.w3.org/2000/svg">
<path d="M33.7501 18.7501C33.7501 18.2528 33.9477 17.7759 34.2993 17.4242C34.651 17.0726 35.1279 16.8751 35.6251 16.8751H58.1251C58.6224 16.8751 59.0993 17.0726 59.451 17.4242C59.8026 17.7759 60.0001 18.2528 60.0001 18.7501C60.0001 19.2473 59.8026 19.7243 59.451 20.0759C59.0993 20.4275 58.6224 20.6251 58.1251 20.6251H35.6251C35.1279 20.6251 34.651 20.4275 34.2993 20.0759C33.9477 19.7243 33.7501 19.2473 33.7501 18.7501ZM58.1251 28.1251H35.6251C35.1279 28.1251 34.651 28.3226 34.2993 28.6742C33.9477 29.0259 33.7501 29.5028 33.7501 30.0001C33.7501 30.4973 33.9477 30.9743 34.2993 31.3259C34.651 31.6775 35.1279 31.8751 35.6251 31.8751H58.1251C58.6224 31.8751 59.0993 31.6775 59.451 31.3259C59.8026 30.9743 60.0001 30.4973 60.0001 30.0001C60.0001 29.5028 59.8026 29.0259 59.451 28.6742C59.0993 28.3226 58.6224 28.1251 58.1251 28.1251ZM58.1251 39.3751H41.2501C40.7529 39.3751 40.276 39.5726 39.9243 39.9242C39.5727 40.2759 39.3751 40.7528 39.3751 41.2501C39.3751 41.7473 39.5727 42.2243 39.9243 42.5759C40.276 42.9275 40.7529 43.1251 41.2501 43.1251H58.1251C58.6224 43.1251 59.0993 42.9275 59.451 42.5759C59.8026 42.2243 60.0001 41.7473 60.0001 41.2501C60.0001 40.7528 59.8026 40.2759 59.451 39.9242C59.0993 39.5726 58.6224 39.3751 58.1251 39.3751ZM25.5705 33.3047C27.4423 31.8778 28.8194 29.8998 29.508 27.6491C30.1965 25.3985 30.1618 22.9885 29.4088 20.7586C28.6558 18.5286 27.2223 16.591 25.3103 15.2186C23.3982 13.8461 21.1038 13.1079 18.7502 13.1079C16.3965 13.1079 14.1021 13.8461 12.1901 15.2186C10.278 16.591 8.84452 18.5286 8.09148 20.7586C7.33845 22.9885 7.30378 25.3985 7.99235 27.6491C8.68091 29.8998 10.058 31.8778 11.9298 33.3047C9.59887 34.3359 7.53177 35.8817 5.88372 37.8261C4.23567 39.7704 3.04948 42.0629 2.41421 44.5313C2.34369 44.8082 2.33657 45.0974 2.39338 45.3774C2.45019 45.6574 2.56948 45.921 2.74234 46.1485C2.91454 46.3766 3.13781 46.5611 3.39424 46.6873C3.65068 46.8135 3.93312 46.8778 4.2189 46.8751H33.2814C33.5672 46.8778 33.8496 46.8135 34.1061 46.6873C34.3625 46.5611 34.5858 46.3766 34.758 46.1485C34.9308 45.921 35.0501 45.6574 35.1069 45.3774C35.1637 45.0974 35.1566 44.8082 35.0861 44.5313C34.4508 42.0629 33.2646 39.7704 31.6166 37.8261C29.9685 35.8817 27.9014 34.3359 25.5705 33.3047Z" fill="#00A0E3"/>
</svg>
