<svg width="60" height="60" viewBox="0 0 60 60" fill="none" xmlns="http://www.w3.org/2000/svg">
<path d="M58.1249 35.625C58.1249 36.1223 57.9274 36.5992 57.5758 36.9508C57.2241 37.3025 56.7472 37.5 56.2499 37.5H52.4999V41.25C52.4999 41.7473 52.3024 42.2242 51.9508 42.5758C51.5991 42.9275 51.1222 43.125 50.6249 43.125C50.1277 43.125 49.6507 42.9275 49.2991 42.5758C48.9475 42.2242 48.7499 41.7473 48.7499 41.25V37.5H44.9999C44.5027 37.5 44.0257 37.3025 43.6741 36.9508C43.3225 36.5992 43.1249 36.1223 43.1249 35.625C43.1249 35.1277 43.3225 34.6508 43.6741 34.2992C44.0257 33.9475 44.5027 33.75 44.9999 33.75H48.7499V30C48.7499 29.5027 48.9475 29.0258 49.2991 28.6742C49.6507 28.3225 50.1277 28.125 50.6249 28.125C51.1222 28.125 51.5991 28.3225 51.9508 28.6742C52.3024 29.0258 52.4999 29.5027 52.4999 30V33.75H56.2499C56.7472 33.75 57.2241 33.9475 57.5758 34.2992C57.9274 34.6508 58.1249 35.1277 58.1249 35.625ZM14.9999 15.9375H17.8124V18.75C17.8124 19.2473 18.01 19.7242 18.3616 20.0758C18.7132 20.4275 19.1902 20.625 19.6874 20.625C20.1847 20.625 20.6616 20.4275 21.0133 20.0758C21.3649 19.7242 21.5624 19.2473 21.5624 18.75V15.9375H24.3749C24.8722 15.9375 25.3491 15.74 25.7008 15.3883C26.0524 15.0367 26.2499 14.5598 26.2499 14.0625C26.2499 13.5652 26.0524 13.0883 25.7008 12.7367C25.3491 12.385 24.8722 12.1875 24.3749 12.1875H21.5624V9.375C21.5624 8.87772 21.3649 8.40081 21.0133 8.04918C20.6616 7.69755 20.1847 7.5 19.6874 7.5C19.1902 7.5 18.7132 7.69755 18.3616 8.04918C18.01 8.40081 17.8124 8.87772 17.8124 9.375V12.1875H14.9999C14.5027 12.1875 14.0257 12.385 13.6741 12.7367C13.3225 13.0883 13.1249 13.5652 13.1249 14.0625C13.1249 14.5598 13.3225 15.0367 13.6741 15.3883C14.0257 15.74 14.5027 15.9375 14.9999 15.9375ZM43.1249 45H41.2499V43.125C41.2499 42.6277 41.0524 42.1508 40.7008 41.7992C40.3491 41.4475 39.8722 41.25 39.3749 41.25C38.8777 41.25 38.4007 41.4475 38.0491 41.7992C37.6975 42.1508 37.4999 42.6277 37.4999 43.125V45H35.6249C35.1277 45 34.6507 45.1975 34.2991 45.5492C33.9475 45.9008 33.7499 46.3777 33.7499 46.875C33.7499 47.3723 33.9475 47.8492 34.2991 48.2008C34.6507 48.5525 35.1277 48.75 35.6249 48.75H37.4999V50.625C37.4999 51.1223 37.6975 51.5992 38.0491 51.9508C38.4007 52.3025 38.8777 52.5 39.3749 52.5C39.8722 52.5 40.3491 52.3025 40.7008 51.9508C41.0524 51.5992 41.2499 51.1223 41.2499 50.625V48.75H43.1249C43.6222 48.75 44.0991 48.5525 44.4508 48.2008C44.8024 47.8492 44.9999 47.3723 44.9999 46.875C44.9999 46.3777 44.8024 45.9008 44.4508 45.5492C44.0991 45.1975 43.6222 45 43.1249 45ZM42.5859 27.5859L17.6484 52.5C17.3018 52.8501 16.8894 53.128 16.4348 53.3176C15.9802 53.5073 15.4925 53.6049 14.9999 53.6049C14.5074 53.6049 14.0197 53.5073 13.5651 53.3176C13.1105 53.128 12.698 52.8501 12.3515 52.5L7.49993 47.6484C7.14987 47.3019 6.87198 46.8894 6.68232 46.4348C6.49267 45.9802 6.39502 45.4926 6.39502 45C6.39502 44.5074 6.49267 44.0198 6.68232 43.5652C6.87198 43.1106 7.14987 42.6981 7.49993 42.3516L42.3515 7.5C43.0575 6.80437 44.0088 6.41443 44.9999 6.41443C45.9911 6.41443 46.9424 6.80437 47.6484 7.5L52.4999 12.3516C52.85 12.6981 53.1279 13.1106 53.3175 13.5652C53.5072 14.0198 53.6048 14.5074 53.6048 15C53.6048 15.4926 53.5072 15.9802 53.3175 16.4348C53.1279 16.8894 52.85 17.3019 52.4999 17.6484L42.5859 27.5859ZM36.3984 18.75L41.2499 23.6016L49.8515 15L44.9999 10.1484L36.3984 18.75Z" fill="#00A0E3"/>
</svg>
