<svg width="60" height="60" fill="none" xmlns="http://www.w3.org/2000/svg"><path d="M54.047 11.578a7.477 7.477 0 00-10.594 0 7.075 7.075 0 00-1.219 1.57l-6.61-1.804a7.5 7.5 0 10-14.155 3.375l-7.946 7.148a7.5 7.5 0 00-9.445.961 7.476 7.476 0 000 10.594 7.407 7.407 0 005.297 2.203 7.524 7.524 0 004.758-1.687L30.539 45.96a7.5 7.5 0 001.664 8.086 7.478 7.478 0 0010.594 0 7.475 7.475 0 000-10.594 10.15 10.15 0 00-1.102-.937l6.399-18.164h.656a7.405 7.405 0 005.297-2.204 7.477 7.477 0 000-10.57zm-15.89 29.695a7.594 7.594 0 00-5.415 1.665L16.336 30.914a7.593 7.593 0 00-.305-6.258l7.945-7.148a7.594 7.594 0 004.149 1.242 7.407 7.407 0 005.297-2.203 7.075 7.075 0 001.218-1.57l6.61 1.804a7.407 7.407 0 002.203 5.39c.344.34.712.652 1.101.938l-6.398 18.164z" fill="#00A0E3"/></svg>