<svg width="60" height="60" fill="none" xmlns="http://www.w3.org/2000/svg"><path d="M33.75 18.75a1.875 1.875 0 011.875-1.875h22.5a1.875 1.875 0 110 3.75h-22.5a1.875 1.875 0 01-1.875-1.875zm24.375 9.375h-22.5a1.875 1.875 0 000 3.75h22.5a1.875 1.875 0 000-3.75zm0 11.25H41.25a1.875 1.875 0 000 3.75h16.875a1.875 1.875 0 000-3.75zm-32.555-6.07a11.25 11.25 0 10-13.64 0A16.876 16.876 0 002.414 44.53a1.899 1.899 0 00.328 1.617 1.828 1.828 0 001.477.727H33.28a1.829 1.829 0 001.477-.727 1.9 1.9 0 00.328-1.617 16.876 16.876 0 00-9.515-11.226z" fill="#00A0E3"/></svg>