<svg width="60" height="60" viewBox="0 0 60 60" fill="none" xmlns="http://www.w3.org/2000/svg">
<path d="M30.0003 17.8125C32.04 17.8125 34.0338 18.4173 35.7297 19.5505C37.4255 20.6836 38.7473 22.2942 39.5278 24.1786C40.3084 26.0629 40.5126 28.1364 40.1147 30.1369C39.7168 32.1373 38.7346 33.9748 37.2924 35.417C35.8501 36.8593 34.0126 37.8414 32.0122 38.2393C30.0118 38.6373 27.9383 38.433 26.0539 37.6525C24.1695 36.872 22.559 35.5502 21.4258 33.8543C20.2927 32.1584 19.6878 30.1646 19.6878 28.125C19.6878 25.39 20.7743 22.7669 22.7083 20.833C24.6423 18.899 27.2653 17.8125 30.0003 17.8125ZM54.1878 17.3438C54.0219 17.6313 53.7825 17.8696 53.4943 18.0343C53.206 18.199 52.8792 18.2842 52.5472 18.2812C52.2168 18.2839 51.8923 18.1947 51.6097 18.0234L50.5316 17.3906C50.0063 17.841 49.4025 18.1906 48.7503 18.4219V19.6875C48.7503 20.1848 48.5528 20.6617 48.2012 21.0133C47.8495 21.365 47.3726 21.5625 46.8753 21.5625C46.3781 21.5625 45.9011 21.365 45.5495 21.0133C45.1979 20.6617 45.0003 20.1848 45.0003 19.6875V18.4219C44.3482 18.1906 43.7444 17.841 43.2191 17.3906L42.141 18.0234C41.8584 18.1947 41.5338 18.2839 41.2035 18.2812C40.7928 18.2788 40.3943 18.1415 40.0692 17.8906C39.7441 17.6397 39.5104 17.289 39.4039 16.8924C39.2974 16.4958 39.3241 16.0752 39.4798 15.6952C39.6356 15.3152 39.9118 14.9969 40.266 14.7891L41.3441 14.1562C41.277 13.8167 41.2456 13.4711 41.2503 13.125C41.2456 12.7789 41.277 12.4333 41.3441 12.0937L40.266 11.4609C40.0499 11.3415 39.8599 11.1801 39.7071 10.9862C39.5543 10.7922 39.4418 10.5697 39.3763 10.3317C39.3108 10.0937 39.2936 9.84493 39.3256 9.60013C39.3576 9.35533 39.4383 9.11941 39.5628 8.90625C39.817 8.47689 40.23 8.16486 40.7125 8.03766C41.195 7.91046 41.7081 7.97832 42.141 8.22656L43.2191 8.85938C43.7444 8.409 44.3482 8.0594 45.0003 7.82813V6.5625C45.0003 6.06522 45.1979 5.58831 45.5495 5.23667C45.9011 4.88504 46.3781 4.6875 46.8753 4.6875C47.3726 4.6875 47.8495 4.88504 48.2012 5.23667C48.5528 5.58831 48.7503 6.06522 48.7503 6.5625V7.82813C49.4025 8.0594 50.0063 8.409 50.5316 8.85938L51.6097 8.22656C52.0425 7.97832 52.5557 7.91046 53.0382 8.03766C53.5206 8.16486 53.9336 8.47689 54.1878 8.90625C54.3124 9.11941 54.3931 9.35533 54.4251 9.60013C54.4571 9.84493 54.4399 10.0937 54.3744 10.3317C54.3088 10.5697 54.1964 10.7922 54.0436 10.9862C53.8908 11.1801 53.7008 11.3415 53.4847 11.4609L52.4066 12.0937C52.4737 12.4333 52.5051 12.7789 52.5003 13.125C52.5051 13.4711 52.4737 13.8167 52.4066 14.1562L53.4847 14.7891C53.7008 14.9085 53.8908 15.0699 54.0436 15.2638C54.1964 15.4578 54.3088 15.6803 54.3744 15.9183C54.4399 16.1563 54.4571 16.4051 54.4251 16.6499C54.3931 16.8947 54.3124 17.1306 54.1878 17.3438ZM46.8753 15C47.2462 15 47.6087 14.89 47.917 14.684C48.2254 14.478 48.4657 14.1851 48.6076 13.8425C48.7495 13.4999 48.7867 13.1229 48.7143 12.7592C48.642 12.3955 48.4634 12.0614 48.2012 11.7992C47.9389 11.537 47.6048 11.3584 47.2411 11.286C46.8774 11.2137 46.5004 11.2508 46.1578 11.3927C45.8152 11.5346 45.5224 11.775 45.3163 12.0833C45.1103 12.3916 45.0003 12.7542 45.0003 13.125C45.0003 13.6223 45.1979 14.0992 45.5495 14.4508C45.9011 14.8025 46.3781 15 46.8753 15ZM52.1253 25.4531C51.6355 25.512 51.1886 25.7614 50.8815 26.1475C50.5744 26.5336 50.4319 27.0251 50.4847 27.5156C50.5783 28.3404 50.6252 29.1699 50.6253 30C50.6322 35.0469 48.7799 39.9196 45.4222 43.6875C43.9044 41.5103 41.9486 39.6742 39.68 38.2969C37.0753 40.7923 33.6075 42.1854 30.0003 42.1854C26.3932 42.1854 22.9254 40.7923 20.3206 38.2969C18.0521 39.6742 16.0962 41.5103 14.5785 43.6875C11.9413 40.7149 10.219 37.0437 9.61876 33.1155C9.0185 29.1873 9.56581 25.1693 11.1949 21.5448C12.8239 17.9202 15.4654 14.8435 18.8015 12.6845C22.1377 10.5255 26.0265 9.3763 30.0003 9.375C30.6422 9.37114 31.2838 9.40243 31.9222 9.46875C32.1684 9.4903 32.4165 9.46313 32.6522 9.38881C32.888 9.31449 33.1067 9.19446 33.2961 9.03559C33.4854 8.87671 33.6416 8.6821 33.7558 8.46286C33.8699 8.24362 33.9397 8.00404 33.9613 7.75781C33.9828 7.51158 33.9557 7.26352 33.8813 7.02779C33.807 6.79206 33.687 6.57328 33.5281 6.38393C33.3692 6.19459 33.1746 6.03839 32.9554 5.92426C32.7361 5.81013 32.4966 5.74029 32.2503 5.71875C31.5238 5.64844 30.7503 5.625 30.0003 5.625C25.0888 5.6267 20.2924 7.11211 16.2396 9.88657C12.1868 12.661 9.06668 16.5951 7.28812 21.1733C5.50955 25.7514 5.15551 30.7601 6.27239 35.5429C7.38928 40.3257 9.92498 44.6596 13.5472 47.9766L13.8519 48.2578C18.308 52.1989 24.0515 54.3744 30.0003 54.3744C35.9492 54.3744 41.6927 52.1989 46.1488 48.2578L46.4535 47.9766C48.9522 45.6964 50.9474 42.9198 52.3115 39.8243C53.6756 36.7288 54.3786 33.3827 54.3753 30C54.3798 29.0288 54.325 28.0583 54.2113 27.0938C54.1822 26.849 54.1052 26.6123 53.9846 26.3974C53.864 26.1824 53.7022 25.9933 53.5085 25.8409C53.3147 25.6885 53.0929 25.5759 52.8555 25.5093C52.6182 25.4428 52.3701 25.4237 52.1253 25.4531Z" fill="#00A0E3"/>
</svg>
