<svg width="60" height="60" fill="none" xmlns="http://www.w3.org/2000/svg"><path d="M41.25 54.375a1.875 1.875 0 01-1.875 1.875h-18.75a1.875 1.875 0 110-3.75h18.75a1.875 1.875 0 011.875 1.875zm9.375-30a20.556 20.556 0 01-7.875 16.219 3.773 3.773 0 00-1.5 3V45a3.75 3.75 0 01-3.75 3.75h-15A3.75 3.75 0 0118.75 45v-1.406a3.796 3.796 0 00-1.453-2.977 20.577 20.577 0 01-7.922-16.125c-.07-11.18 8.977-20.484 20.133-20.742a20.602 20.602 0 0121.117 20.625zm-11.789.54a1.898 1.898 0 00-2.672 0L30 31.101l-6.164-6.188a1.898 1.898 0 00-2.671 2.672l6.96 6.938v8.601a1.875 1.875 0 003.75 0v-8.602l6.961-6.937a1.898 1.898 0 000-2.672z" fill="#00A0E3"/></svg>