<svg width="60" height="60" fill="none" xmlns="http://www.w3.org/2000/svg"><path d="M30 17.813a10.312 10.312 0 110 20.624 10.312 10.312 0 010-20.624zm24.188-.47a1.875 1.875 0 01-1.64.938 1.78 1.78 0 01-.938-.258l-1.078-.632c-.526.45-1.13.8-1.782 1.03v1.267a1.875 1.875 0 11-3.75 0v-1.266a5.626 5.626 0 01-1.78-1.031l-1.079.632a1.78 1.78 0 01-.938.258 1.875 1.875 0 01-.937-3.492l1.078-.633a4.97 4.97 0 01-.094-1.031 4.972 4.972 0 01.094-1.031l-1.078-.633a1.852 1.852 0 01-.703-2.555 1.898 1.898 0 012.578-.68l1.078.633c.525-.45 1.13-.8 1.781-1.03V6.562a1.875 1.875 0 013.75 0v1.265a5.628 5.628 0 011.782 1.031l1.078-.632a1.898 1.898 0 012.578.68 1.85 1.85 0 01-.703 2.554l-1.078.633c.067.34.098.685.093 1.031.005.346-.026.692-.093 1.031l1.078.633a1.852 1.852 0 01.703 2.555zM46.875 15a1.875 1.875 0 100-3.75 1.875 1.875 0 000 3.75zm5.25 10.453a1.875 1.875 0 00-1.64 2.063c.093.824.14 1.654.14 2.484a20.531 20.531 0 01-5.203 13.688 19.053 19.053 0 00-5.742-5.391 13.992 13.992 0 01-19.36 0 19.053 19.053 0 00-5.742 5.39A20.625 20.625 0 0130 9.376a17.37 17.37 0 011.922.094 1.882 1.882 0 10.328-3.75c-.726-.07-1.5-.094-2.25-.094a24.375 24.375 0 00-16.453 42.352l.305.28a24.375 24.375 0 0032.297 0l.304-.28A24.305 24.305 0 0054.375 30c.005-.971-.05-1.942-.164-2.906a1.875 1.875 0 00-2.086-1.64z" fill="#00A0E3"/></svg>