<svg width="60" height="60" fill="none" xmlns="http://www.w3.org/2000/svg"><path d="M56.25 26.25h-2.531l-6.516-14.648a3.727 3.727 0 00-3.422-2.227H16.22a3.726 3.726 0 00-3.422 2.227L6.28 26.25H3.75a1.875 1.875 0 000 3.75h1.875v18.75a3.75 3.75 0 003.75 3.75H15a3.75 3.75 0 003.75-3.75V45h22.5v3.75A3.75 3.75 0 0045 52.5h5.625a3.75 3.75 0 003.75-3.75V30h1.875a1.875 1.875 0 100-3.75zM18.75 37.5H15a1.875 1.875 0 110-3.75h3.75a1.875 1.875 0 010 3.75zm22.5 0a1.875 1.875 0 110-3.75H45a1.875 1.875 0 010 3.75h-3.75z" fill="#00A0E3"/></svg>