<svg width="60" height="61" viewBox="0 0 60 61" fill="none" xmlns="http://www.w3.org/2000/svg">
<path d="M54.375 15V11.25C54.375 10.2554 53.9799 9.30161 53.2766 8.59835C52.5734 7.89509 51.6196 7.5 50.625 7.5H9.375C8.38044 7.5 7.42661 7.89509 6.72335 8.59835C6.02009 9.30161 5.625 10.2554 5.625 11.25V15C5.625 15.9946 6.02009 16.9484 6.72335 17.6516C7.42661 18.3549 8.38044 18.75 9.375 18.75V41.25H7.5C7.00272 41.25 6.52581 41.4475 6.17417 41.7992C5.82254 42.1508 5.625 42.6277 5.625 43.125C5.625 43.6223 5.82254 44.0992 6.17417 44.4508C6.52581 44.8025 7.00272 45 7.5 45H28.125V49.0781C26.874 49.5204 25.8196 50.3908 25.1482 51.5353C24.4768 52.6798 24.2316 54.0248 24.456 55.3326C24.6804 56.6404 25.3599 57.8268 26.3744 58.6821C27.3889 59.5373 28.6731 60.0064 30 60.0064C31.3269 60.0064 32.6111 59.5373 33.6256 58.6821C34.6401 57.8268 35.3196 56.6404 35.544 55.3326C35.7684 54.0248 35.5232 52.6798 34.8518 51.5353C34.1804 50.3908 33.126 49.5204 31.875 49.0781V45H52.5C52.9973 45 53.4742 44.8025 53.8258 44.4508C54.1775 44.0992 54.375 43.6223 54.375 43.125C54.375 42.6277 54.1775 42.1508 53.8258 41.7992C53.4742 41.4475 52.9973 41.25 52.5 41.25H50.625V18.75C51.6196 18.75 52.5734 18.3549 53.2766 17.6516C53.9799 16.9484 54.375 15.9946 54.375 15ZM30 56.25C29.6292 56.25 29.2666 56.14 28.9583 55.934C28.65 55.728 28.4096 55.4351 28.2677 55.0925C28.1258 54.7499 28.0887 54.3729 28.161 54.0092C28.2334 53.6455 28.412 53.3114 28.6742 53.0492C28.9364 52.7869 29.2705 52.6084 29.6342 52.536C29.9979 52.4637 30.3749 52.5008 30.7175 52.6427C31.0601 52.7846 31.353 53.025 31.559 53.3333C31.765 53.6416 31.875 54.0042 31.875 54.375C31.875 54.8723 31.6775 55.3492 31.3258 55.7008C30.9742 56.0525 30.4973 56.25 30 56.25ZM9.375 11.25H50.625V15H9.375V11.25Z" fill="#00A0E3"/>
</svg>
