<svg width="44" height="61" viewBox="0 0 44 61" fill="none" xmlns="http://www.w3.org/2000/svg">
<g clip-path="url(#clip0_480_4572)">
<path d="M3.94938 13.7846C3.94938 13.8519 3.93581 13.9058 3.93581 13.9732C3.32507 24.4026 3.16221 34.8725 3.46079 45.3154C3.54222 47.9295 3.63723 50.5436 3.77295 53.1442C3.85438 54.7477 2.83649 59.0057 3.96295 60.2453C5.32014 61.7276 13.0154 60.5822 15.1055 60.5822C21.0771 60.5822 27.0623 60.5822 33.0339 60.5822C34.6082 60.5822 38.5712 61.3233 39.8605 60.1241C41.272 58.8036 40.4441 54.6129 40.4441 52.8343C40.4577 40.8957 40.4713 28.9706 40.4713 17.032C40.4713 15.2937 40.4577 13.4881 39.6434 11.9385C33.9839 11.6825 28.3652 12.1272 22.6243 11.8173C16.7069 11.5073 10.7489 11.3456 4.94013 12.7605C4.65512 12.8279 4.35654 12.9087 4.16653 13.1378C4.01724 13.3129 3.96295 13.5555 3.94938 13.7846Z" fill="#D1D1D1"/>
<path opacity="0.1" d="M7.88524 17.1401C7.66809 18.6223 7.96667 20.6435 7.9531 21.6945C7.93953 24.1065 7.92595 26.5185 7.91238 28.9304C7.89881 33.7544 7.89881 38.5783 7.92595 43.4023C7.93953 47.0943 7.34236 50.7729 7.6138 54.465C7.69523 55.4891 7.85809 56.594 8.63169 57.2677C9.24242 57.7933 10.111 57.928 10.9118 57.9819C11.4954 58.0089 12.1604 57.9819 12.554 57.5372C12.7983 57.2677 12.8797 56.8905 12.934 56.5266C13.409 53.643 12.9204 50.7325 13.1104 47.8759C13.314 44.8845 13.1647 41.8392 13.1647 38.8343C13.1647 32.5147 13.1647 26.1951 13.1647 19.862C13.1647 18.218 13.5447 16.7493 12.2147 15.8195C11.5904 15.3884 8.97099 15.1323 8.41454 15.7522C8.12953 16.0486 7.96667 16.5472 7.88524 17.1401Z" fill="black"/>
<path opacity="0.1" d="M19.1362 17.1399C18.9191 18.6221 19.2176 20.6433 19.2041 21.6943C19.1905 24.1063 19.1769 26.5183 19.1634 28.9302C19.1498 33.7542 19.1498 38.5781 19.1769 43.4021C19.1905 47.0941 18.5933 50.7727 18.8648 54.4648C18.9462 55.4889 19.1091 56.5938 19.8827 57.2675C20.4934 57.7931 21.362 57.9278 22.1627 57.9817C22.7463 58.0087 23.4114 57.9817 23.8049 57.537C24.0492 57.2675 24.1307 56.8903 24.1849 56.5264C24.66 53.6429 24.1714 50.7323 24.3614 47.8757C24.5785 44.8708 24.4292 41.8121 24.4292 38.8207C24.4292 32.501 24.4292 26.1814 24.4292 19.8483C24.4292 18.2044 24.8093 16.7356 23.4792 15.8059C22.8549 15.3747 20.2355 15.1187 19.6791 15.7385C19.3941 16.0484 19.2312 16.547 19.1362 17.1399Z" fill="black"/>
<path opacity="0.1" d="M30.4009 17.1398C30.1837 18.622 30.4823 20.6432 30.4687 21.6943C30.4552 24.1062 30.4416 26.5182 30.428 28.9302C30.4144 33.7541 30.4144 38.5781 30.4416 43.402C30.4551 47.0941 29.858 50.7727 30.1294 54.4648C30.2109 55.4888 30.3737 56.5938 31.1473 57.2675C31.758 57.793 32.6266 57.9278 33.4274 57.9817C34.011 58.0086 34.676 57.9817 35.0696 57.537C35.3139 57.2675 35.3953 56.8902 35.4496 56.5264C35.9246 53.6428 35.436 50.7323 35.626 47.8756C35.8296 44.8842 35.6803 41.839 35.6803 38.8341C35.6803 32.5145 35.6803 26.1948 35.6803 19.8617C35.6803 18.2178 36.0603 16.7491 34.7303 15.8193C34.106 15.3881 31.4866 15.1321 30.9302 15.7519C30.6452 16.0484 30.4823 16.5469 30.4009 17.1398Z" fill="black"/>
<path d="M43.715 9.64799C43.7286 8.42179 43.7421 7.19559 43.7557 5.96939C43.7557 5.79422 43.7421 5.60558 42.7785 5.44388C38.327 5.43041 33.9025 5.44388 29.451 5.44388C28.6502 1.59012 25.2301 -0.377192 21.1721 0.0539988C18.0777 0.377392 14.1012 2.15605 13.9112 5.41693C12.7711 5.41693 11.6311 5.41693 10.4911 5.41693C7.26095 5.44388 3.25725 6.17152 0.244294 5.02617C0.203578 5.20134 0.176434 5.40346 0.162862 5.60558C0.0542875 7.16864 0.610734 9.12248 0 10.1735C0.162862 10.3621 0.380012 10.3891 0.637878 10.416C2.23936 10.5643 11.3189 10.4565 13.789 10.4565C20.8464 10.4565 27.9038 10.4565 34.9611 10.4565C36.8205 10.4565 41.4892 10.5373 43.0228 10.4026C44.6922 10.2544 43.715 9.83664 43.715 9.64799ZM15.3905 5.43041C16.4084 3.55742 18.3763 2.68157 20.6021 2.22343C23.8458 1.53622 25.9901 2.87021 27.0216 5.47083C25.5694 5.47083 24.1308 5.47083 22.665 5.45736C20.2492 5.43041 17.8199 5.43041 15.3905 5.43041Z" fill="#D1D1D1"/>
</g>
<defs>
<clipPath id="clip0_480_4572">
<rect width="44" height="61" fill="white"/>
</clipPath>
</defs>
</svg>
