<svg width="70" height="54" viewBox="0 0 70 54" fill="none" xmlns="http://www.w3.org/2000/svg">
<g clip-path="url(#clip0_480_4593)">
<path d="M24.9619 52.175C24.3488 52.1849 23.6862 52.175 23.1818 51.8396C22.7268 51.5437 22.4697 51.0307 22.262 50.5276C20.4324 46.0292 21.7181 40.939 23.0235 36.2631C25.4465 27.6018 27.8695 18.9207 31.3013 10.6047C32.3595 8.03983 33.5463 5.45525 35.4352 3.41323C37.3242 1.37121 40.034 -0.0789151 42.813 0.167705C45.5327 0.414326 47.9063 2.24918 49.4392 4.49836C50.9721 6.74754 51.8127 9.39131 52.6039 11.9956C55.0665 20.0354 57.3807 28.1246 59.5367 36.2532C60.4564 39.7256 62.5728 45.3288 61.5146 48.9394C60.8619 51.1589 58.4785 52.6387 56.2038 52.5499C53.2369 52.4414 50.3491 51.8495 47.2239 51.8889C39.7966 51.9876 32.3793 52.0764 24.9619 52.175Z" fill="#C6C6C6"/>
<path d="M14.1921 17.6383C14.8349 16.79 15.5371 15.9514 16.4865 15.4681C18.3062 14.5605 20.5314 15.2412 22.2325 16.346C26.0895 18.8714 28.2356 23.2514 30.0949 27.4637C33.0124 34.0731 35.7222 40.9292 36.1672 48.1305C36.2265 49.1268 36.2265 50.2021 35.6826 51.0406C34.9607 52.1455 33.5266 52.5006 32.2311 52.7373C25.9016 53.8915 19.4337 54.2467 13.0152 53.8027C9.712 53.5759 6.41869 53.1418 3.17484 52.4907C0.860625 52.0271 -0.296482 51.4056 0.0793308 49.0084C0.563931 45.8912 2.66057 42.1524 3.699 39.0746C6.2209 31.528 9.3164 24.0307 14.1921 17.6383Z" fill="#D1D1D1"/>
<path d="M24.6158 17.7468C24.6455 16.711 20.8181 15.3595 20.0863 15.0438C18.1083 14.1856 16.0117 15.1425 14.5579 16.5433C13.5392 17.5298 12.7678 18.7333 12.036 19.9368C10.5822 22.3438 9.23719 24.81 8.00096 27.3354C7.80316 27.7398 7.6746 28.6375 8.26798 28.8546C8.72292 29.0223 9.48443 28.2232 9.82068 27.9667C10.8888 27.148 11.8877 26.2503 12.8371 25.2934C13.0448 25.0862 13.2524 24.8692 13.5392 24.7903C14.2909 24.5831 14.8744 25.4611 15.0919 26.2108C15.3095 26.9605 15.5765 27.8878 16.348 28.0358C16.704 28.1048 17.0699 27.9766 17.3963 27.8089C18.7611 27.0986 19.661 25.7669 20.8478 24.7903C21.0456 24.6226 21.2731 24.4647 21.5302 24.4647C21.9654 24.4647 22.2621 24.8889 22.4796 25.2736C23.5279 27.148 24.5763 29.0321 25.6345 30.9065C25.7927 31.1925 26.0103 31.5082 26.3366 31.5279C26.5147 31.5378 26.6927 31.449 26.841 31.3504C27.4938 30.9163 27.9784 30.2455 28.1663 29.4859C28.3047 28.9335 28.3047 28.3515 28.5124 27.8188C28.7201 27.2861 29.2541 26.8126 29.808 26.9408C29.7585 25.8063 29.1058 24.8001 28.5322 23.8235C27.296 21.742 26.2872 19.4929 24.6158 17.7468Z" fill="#EDECEB"/>
<path d="M30.0749 13.1005C30.0255 13.3668 30.0057 13.6825 30.2233 13.8403C30.4408 14.008 30.7672 13.8995 31.0144 13.7614C32.2705 13.1005 33.388 12.2028 34.3077 11.1275C34.555 10.8414 34.8517 10.506 35.2374 10.5455C35.4154 10.5652 35.5638 10.6638 35.7121 10.7625C37.3439 11.9364 38.0955 13.9587 39.2625 15.5864C40.0636 16.7011 41.3394 17.7369 42.6745 17.4311C43.9305 17.145 44.6129 15.833 45.2558 14.7282C45.8986 13.6134 46.9667 12.4395 48.2326 12.6861C48.7172 12.7848 49.1424 13.0807 49.5578 13.3471C50.3886 13.8699 51.2786 14.2941 52.2182 14.59C52.7621 14.7676 53.5137 14.8268 53.7709 14.3138C53.9093 14.0376 53.8302 13.7022 53.7511 13.4063C53.0489 10.802 52.327 8.16805 51.0215 5.81036C49.7161 3.45267 47.7381 1.35146 45.1865 0.443901C42.724 -0.434067 40.2515 0.0591735 37.9868 1.21336C35.7418 2.35768 34.4561 4.47861 32.9331 6.46144C31.4892 8.34562 30.5002 10.7625 30.0749 13.1005Z" fill="#EDECEB"/>
<path d="M7.26913 11.6405C7.13067 11.6109 6.97243 11.5912 6.82409 11.5714C6.31971 11.5024 5.79555 11.4333 5.48896 11.0091C5.10326 10.4863 4.76701 9.48009 5.12304 8.95725C5.59775 8.27658 6.01312 7.85239 6.84387 7.55645C7.04166 7.4874 7.45703 7.41834 7.84274 7.42821C8.0702 7.43807 8.25811 7.46767 8.39656 7.52686C8.24822 6.83632 8.41634 6.01754 8.87127 5.27768C9.47455 4.30106 10.4438 3.66971 11.4822 3.59079C12.6195 3.50201 13.9843 4.19255 14.7755 5.24808C15.2601 5.89916 15.4678 6.5897 15.3491 7.21118C15.6755 7.24078 16.4073 7.34929 16.8227 7.60577C17.3963 7.96091 18.1875 8.82901 18.1776 9.4209C18.1776 9.97333 17.871 10.8217 17.3765 11.2952C17.0996 11.5616 16.793 11.6898 16.4666 11.6799C16.348 11.6799 16.2293 11.6503 16.1106 11.6109C16.0216 11.6208 15.8831 11.6306 15.7348 11.6405C15.4777 11.6602 15.1513 11.6799 15.0524 11.6997C14.4887 11.8082 13.9546 11.7983 13.3909 11.7885C13.1931 11.7885 12.9953 11.7786 12.7975 11.7885C12.5602 11.7885 12.3228 11.7983 12.0756 11.7983C11.5811 11.8082 11.0668 11.8181 10.5624 11.8082C10.2855 11.7983 10.0086 11.7983 9.7218 11.7983C9.39543 11.7983 9.04929 11.7983 8.72293 11.7885C8.1691 11.7786 7.69439 11.7293 7.26913 11.6405Z" fill="#EDECEB"/>
<path d="M63.2257 34.9807C62.6521 34.9609 62.0587 34.9215 61.4949 34.8919C61.0103 34.8623 60.5257 34.8327 60.051 34.813C59.1807 34.7735 58.3005 34.7044 57.45 34.6255C57.0346 34.5861 56.6292 34.5565 56.2138 34.5269C55.8677 34.4973 55.5215 34.4874 55.1853 34.4677C54.2161 34.4184 53.3062 34.369 52.3469 34.1224C52.1788 34.0731 51.6249 34.004 51.1799 33.9547C50.9228 33.9251 50.6755 33.8955 50.537 33.8659C50.3294 33.9251 50.1217 33.9449 49.914 33.935C49.3503 33.9153 48.836 33.6588 48.391 33.1754C47.5899 32.3073 47.1745 30.798 47.2339 29.851C47.2932 28.825 48.7569 27.4242 49.7755 26.8817C50.5272 26.4772 51.8029 26.3884 52.3568 26.3687C52.2282 25.2836 52.6535 24.1195 53.5732 23.0541C55.0468 21.3278 57.4896 20.2821 59.428 20.5682C61.1983 20.8247 62.8103 22.0282 63.73 23.7644C64.4322 25.0961 64.63 26.5167 64.3036 27.6906C64.5608 27.6018 64.8871 27.5722 65.2729 27.5821C65.9355 27.6018 66.6475 27.7695 66.9838 27.9076C68.3881 28.5093 69.0508 29.2887 69.7925 30.5119C70.3562 31.4392 69.654 33.1359 68.9321 34.0041C68.3486 34.7045 67.4387 34.7636 66.5684 34.8228C66.3113 34.8426 66.0541 34.8524 65.797 34.8919C65.0553 34.9807 64.2344 35.0201 63.2257 34.9807Z" fill="#EDECEB"/>
</g>
<defs>
<clipPath id="clip0_480_4593">
<rect width="70" height="54" fill="white"/>
</clipPath>
</defs>
</svg>
