<svg width="61" height="51" viewBox="0 0 61 51" fill="none" xmlns="http://www.w3.org/2000/svg">
<g clip-path="url(#clip0_480_4620)">
<path d="M29.3874 0.397843C10.6147 -2.35384 -0.199462 9.68062 -0.000224194 21.483C0.199014 33.2854 13.1716 38.8329 13.1716 38.8329C23.2221 42.756 31.0809 44.06 31.0809 44.06L32.3427 51L36.5267 43.8943C47.0089 43.0102 63.9441 35.9929 60.5349 24.1131C57.1368 12.2444 48.1489 3.14952 29.3874 0.397843Z" fill="#D1D1D1"/>
<path d="M23.0012 25.1076C19.592 24.4777 16.0168 24.6766 12.5744 25.1518C12.8511 20.2563 14.2126 15.2723 14.9431 10.4652C15.0981 9.41532 13.5374 8.98434 13.316 10.0673C12.2092 15.416 11.7664 21.2288 9.91792 26.3674C9.64121 27.1299 10.4271 28.1024 11.2351 28.003C15.1092 27.5278 18.8504 27.7046 22.7356 27.6604C24.1634 27.6383 24.4512 25.3729 23.0012 25.1076Z" fill="white"/>
<path d="M22.6916 16.3774C21.1088 16.3222 19.5149 16.4437 17.9321 16.4879C16.5153 16.5321 14.7996 16.3332 13.4381 16.7531C13.0729 16.8637 12.774 17.2283 12.8072 17.6151C12.8293 17.8472 12.8736 18.013 13.0065 18.2008C13.1836 18.455 13.4713 18.5876 13.7813 18.4992C13.7813 18.4992 13.7813 18.4992 13.7923 18.4992C14.7 18.6871 15.7626 18.5876 16.6259 18.6097C18.6626 18.6539 20.7214 18.7976 22.747 18.7313C24.2855 18.676 24.208 16.4216 22.6916 16.3774Z" fill="white"/>
<path d="M21.9501 10.1227C19.2936 9.81324 16.5817 9.66957 13.9031 9.57012C12.9844 9.53696 12.8073 11.0509 13.726 11.1836C16.3604 11.5593 19.0722 11.9129 21.7287 12.0787C22.8577 12.145 23.068 10.2442 21.9501 10.1227Z" fill="white"/>
<path d="M36.1174 24.9198C35.9956 24.7541 35.8738 24.5883 35.7632 24.4225C34.8334 23.1517 33.0845 23.9253 33.1288 25.2182C31.1696 26.6769 29.0444 26.4117 27.9043 23.7374C27.207 22.0908 27.4948 20.2232 27.9154 18.5545C28.8009 15.0403 32.3429 11.0178 36.1948 13.1727C37.0139 13.6258 37.9216 12.4765 37.191 11.8355C31.4906 6.82948 25.8013 14.6977 24.8825 19.8696C24.3955 22.6323 25.2146 26.5001 27.7715 28.1246C30.6715 29.9701 33.5715 28.8982 35.9181 26.699C36.3609 26.2901 36.4937 25.4392 36.1174 24.9198Z" fill="white"/>
<path d="M47.375 13.9795C46.9876 13.7363 46.5891 13.7363 46.2459 13.8911C43.7665 12.5649 41.2539 18.1346 40.5677 19.6375C39.1287 22.7649 38.3982 28.0031 41.9955 30.1359C45.8585 32.4235 48.3712 29.3955 49.6662 25.9366C51.2269 21.7704 51.559 16.698 47.375 13.9795ZM46.0799 27.2406C44.165 28.4341 42.8589 28.2462 42.1616 26.6549C41.3868 25.4061 41.6081 23.7374 41.8627 22.4003C41.9734 21.8146 43.7223 16.4659 45.3826 15.5929C45.449 15.7918 45.5597 15.9907 45.7589 16.1565C49.2899 19.0629 48.0059 23.7153 46.0799 27.2406Z" fill="white"/>
</g>
<defs>
<clipPath id="clip0_480_4620">
<rect width="61" height="51" fill="white"/>
</clipPath>
</defs>
</svg>
