<svg width="64" height="57" viewBox="0 0 64 57" fill="none" xmlns="http://www.w3.org/2000/svg">
<g clip-path="url(#clip0_480_4565)">
<path d="M17.298 15.0183C17.4091 15.0183 17.5203 15.0183 17.6315 15.0294C18.8432 15.0853 20.2106 15.3535 21.4668 15.5434C22.2895 15.6664 23.1566 15.7893 23.9125 15.9792C24.3016 16.0686 24.7463 16.3033 25.4022 16.4039C25.6912 16.4486 26.047 16.5156 26.4472 16.5268C26.8696 16.5491 27.3588 16.5156 27.8146 16.2586C28.1925 16.0463 28.4927 15.7558 28.7817 15.4764C29.0597 15.197 29.3153 14.9177 29.5266 14.7166C30.4493 13.8673 31.4498 13.0739 32.4392 12.2359C32.8727 11.8783 33.3063 11.409 33.7288 11.0067C34.0845 10.6603 34.4291 10.3698 34.6626 10.2468C35.4963 12.0906 36.1967 13.9567 36.5747 15.8563C36.0077 15.8899 35.4185 15.8899 34.8182 15.8899C33.8622 15.8899 32.8616 15.9234 31.85 16.1804C31.6165 16.2363 31.4498 16.4262 31.4053 16.6497C31.1719 16.795 31.0385 17.0743 31.1274 17.3537C31.2274 17.6889 31.5721 17.8789 31.8945 17.7895H31.9389C31.9945 17.7895 32.139 17.823 32.3169 17.9236C32.5837 18.0577 32.9061 18.2923 33.2174 18.5382C33.5398 18.784 33.8399 19.0298 34.1623 19.2086C35.6409 20.0243 37.1416 21.2982 38.7314 22.2257C39.4762 22.6615 40.6657 23.3431 41.744 24.1141C42.2776 24.494 42.789 24.9075 43.1892 25.2986C43.5894 25.6897 43.8785 26.0808 44.0008 26.3825C44.1342 26.7066 44.501 26.8518 44.8123 26.7177C44.9679 26.6507 45.0791 26.5389 45.1347 26.3937C45.2347 26.3602 45.3348 26.3043 45.4015 26.2037C45.5794 25.9691 45.8906 25.6338 46.2686 25.2651C46.8245 24.6952 47.5137 24.0359 48.1585 23.4101C48.8144 22.7844 49.4258 22.1921 49.826 21.7675C50.5486 21.0077 51.3935 19.9685 52.0939 18.9181C52.4385 18.3929 52.7498 17.8677 52.9721 17.3649C53.2056 16.862 53.3612 16.3815 53.3945 15.9122C53.3945 15.834 53.3945 15.7669 53.3945 15.6887C53.3945 15.6552 53.3723 15.6328 53.3723 15.5993C53.3945 15.5546 53.4168 15.4988 53.4168 15.4429C53.4501 15.0965 53.2056 14.7948 52.8609 14.7501C52.6497 14.7277 52.4607 14.7166 52.2606 14.7054C51.3713 14.6607 50.582 14.7277 49.8371 14.7948C49.0923 14.8618 48.4142 14.9177 47.7027 14.8842C47.447 14.873 47.1913 14.8395 46.9245 14.8059C46.8356 13.9008 46.6132 13.0851 46.3576 12.3141C46.0796 11.4537 45.7795 10.6268 45.6238 9.72165C45.446 8.79418 45.3126 7.93376 45.1013 7.07334C44.8901 6.21293 44.6011 5.34133 44.1231 4.41387C44.0341 4.23508 43.9007 3.9222 43.7673 3.55345C43.5672 3.00591 43.3338 2.34662 43.0669 1.75439C42.9335 1.46386 42.8001 1.1845 42.6445 0.938666C42.4889 0.692831 42.3221 0.469346 42.0442 0.290557C41.6551 0.0558975 41.2327 2.61534e-05 40.7991 -0.0223224C40.1988 -0.044671 39.554 0.0223747 38.9537 0.0782461C38.3645 0.145292 37.8198 0.201163 37.5418 0.189989C36.1856 0.145292 34.9405 0.312906 33.7399 0.257035L33.6065 0.24586C33.1173 0.223512 32.5837 0.100595 31.9834 0.0782461C31.6277 0.0558975 31.2497 0.0782461 30.8495 0.178815C30.5604 0.24586 30.3826 0.514043 30.3937 0.804574C27.5144 3.41936 24.813 6.29115 22.1449 9.08472C21.011 10.2692 20.3996 10.772 19.7215 11.3084C19.0433 11.8448 18.2874 12.4035 16.9867 13.6326C16.8644 13.7444 16.7977 13.912 16.7866 14.0684C16.7421 14.1578 16.7088 14.2472 16.7088 14.3478C16.6754 14.7277 16.9533 15.0071 17.298 15.0183Z" fill="#D1D1D1"/>
<path d="M63.5549 43.6132C61.954 39.5904 59.9975 35.6012 58.1076 31.6567C57.3072 29.9917 57.0293 29.1648 56.7402 28.2709C56.4512 27.3769 56.1621 26.3936 55.3951 24.561C55.3284 24.4046 55.2061 24.2928 55.0616 24.2258C55.006 24.1476 54.9282 24.0694 54.8392 24.0247C54.528 23.8794 54.1611 24.0023 54.0055 24.3152C53.4496 25.4661 52.4936 26.673 51.682 27.8239C51.1929 28.5055 50.7038 29.2319 50.1924 29.8129C50.059 29.9582 49.8922 30.1035 49.7032 30.2823C49.5142 30.461 49.2919 30.6734 49.0918 30.9415C48.9362 31.165 48.7361 31.4332 48.5471 31.7573C48.3692 32.0813 48.2024 32.4612 48.1802 32.9082C48.1802 33.02 48.1802 33.1429 48.2024 33.2658C48.2691 33.7239 48.447 34.1374 48.6249 34.5397C48.8028 34.9419 49.0029 35.3219 49.1251 35.6236C49.6476 36.9086 50.0812 38.2495 50.5592 39.5904C50.7593 40.1715 51.0706 40.8084 51.3374 41.4007C51.4708 41.7024 51.582 41.9817 51.6598 42.2276C51.7043 42.3617 51.7376 42.4846 51.7599 42.5851C49.3475 42.3617 46.9796 42.0041 44.7006 41.3113C44.9007 40.7749 45.1564 40.2274 45.4232 39.6463C45.8234 38.7747 46.2236 37.8361 46.3793 36.7633C46.4126 36.5063 46.2792 36.2605 46.068 36.1376C46.0346 35.8582 45.8234 35.6236 45.5344 35.59C45.1898 35.5565 44.8896 35.8023 44.8451 36.1376C44.8451 36.1488 44.7784 36.2381 44.6228 36.3499C44.3893 36.5175 43.978 36.6963 43.5667 36.8639C43.1554 37.0315 42.744 37.1768 42.3994 37.3891C40.8986 38.3054 38.8976 38.9982 37.2078 39.9592C36.4519 40.395 35.2735 41.0766 34.0395 41.6465C33.4281 41.9259 32.7944 42.1717 32.2052 42.3505C31.616 42.5181 31.0713 42.6075 30.6377 42.5851C30.571 42.5851 30.5155 42.574 30.4488 42.574C30.1041 42.5293 29.7929 42.7863 29.7595 43.1215C29.7373 43.3226 29.8262 43.5126 29.9596 43.6467C29.9485 43.7696 29.9707 43.8925 30.0374 43.9931C30.3932 44.5853 30.9379 45.8145 31.4826 47.0548C32.0274 48.3064 32.561 49.5802 32.9389 50.3736C33.4614 51.4687 34.2619 52.8431 35.129 54.0499C35.5625 54.6534 36.0183 55.2121 36.463 55.6702C36.9188 56.1284 37.3635 56.4971 37.8526 56.7094C37.8971 56.7318 37.9415 56.7318 37.986 56.7318C38.0305 56.7876 38.0749 56.8323 38.1305 56.8659C38.4196 57.0447 38.8087 56.9553 38.9865 56.6647C39.6869 55.5361 40.0093 54.4634 40.3428 53.5024C40.6318 52.6867 40.9209 51.9492 41.4323 51.234C42.4439 51.6475 43.4222 51.871 44.3893 52.0498C45.4343 52.2509 46.4571 52.4185 47.5132 52.7537C49.6588 53.413 51.4152 54.0723 53.7831 54.184H53.7942H53.8165C54.1722 54.1952 54.8392 54.307 55.5507 54.4187C56.2622 54.5304 57.0293 54.6422 57.6963 54.6757C57.952 54.6869 58.1965 54.6869 58.4189 54.6645C58.6523 54.6422 58.8636 54.5975 59.0859 54.4857C59.4861 54.2623 59.7418 53.9159 59.9419 53.5583C60.242 53.0107 60.4533 52.3626 60.6423 51.7704C60.7312 51.4799 60.8201 51.1893 60.8979 50.9547C60.9758 50.72 61.0536 50.5189 61.1203 50.396C61.7762 49.1221 62.1208 47.8594 62.7211 46.7755C62.899 46.4403 63.1547 46.105 63.4104 45.7139C63.6549 45.3228 63.8995 44.8423 63.9773 44.2613C64.044 43.9819 63.8439 43.7026 63.5549 43.6132Z" fill="#D1D1D1"/>
<path d="M27.0918 46.8873C26.6916 46.1498 26.2691 45.3788 25.9801 44.6636C25.9023 44.4848 25.8467 44.2614 25.78 44.0044C25.7022 43.7473 25.6132 43.468 25.4576 43.1663C25.3131 42.8981 25.1352 42.5405 24.8795 42.1941C24.6238 41.8477 24.2792 41.5013 23.7678 41.3337C23.3899 41.2108 23.0119 41.1773 22.6228 41.1549C22.167 41.1326 21.7223 41.1437 21.3777 41.1214H21.2554C19.8769 41.0208 18.4873 40.8197 17.0866 40.6632C16.8309 40.6297 16.553 40.6185 16.2639 40.5962C15.9082 40.585 15.5413 40.5739 15.1856 40.5515C14.8521 40.5403 14.5297 40.518 14.2629 40.4733C14.1184 40.4509 13.985 40.4286 13.8738 40.3951C15.1411 38.3278 16.5085 36.3388 18.1316 34.5956C18.5207 35.0202 18.8986 35.4896 19.2877 35.9812C19.888 36.7299 20.5439 37.5009 21.4333 38.1155C21.6556 38.2608 21.9224 38.2496 22.1337 38.1155C22.4005 38.2049 22.7006 38.1155 22.8563 37.8697C23.0452 37.5791 22.9563 37.188 22.6673 37.0093L22.6561 36.9981C22.6339 36.9757 22.5894 36.8528 22.5672 36.6629C22.545 36.4729 22.545 36.2271 22.5561 35.97C22.5783 35.5789 22.6228 35.1432 22.6339 34.7521C22.645 34.5733 22.645 34.4056 22.6339 34.238C22.4783 32.4725 22.7562 30.3717 22.6339 28.4274C22.5783 27.4999 22.4783 26.0249 22.545 24.5835C22.5783 23.8907 22.645 23.2202 22.7673 22.628C22.8896 22.0357 23.0786 21.5329 23.3009 21.1865C23.4899 20.8959 23.4121 20.5048 23.1231 20.3149C22.9452 20.2031 22.7451 20.192 22.5672 20.259C22.4672 20.2031 22.3449 20.1584 22.2226 20.1696C21.5778 20.2143 20.3661 20.1808 19.1099 20.1249C18.2761 20.0914 17.4201 20.0355 16.6753 20.002C16.1305 19.9797 15.6414 19.9573 15.2412 19.9573C14.0294 19.9461 12.4508 20.0579 10.9834 20.3037C10.2497 20.4266 9.54932 20.5831 8.93789 20.7842C8.32646 20.9853 7.80397 21.22 7.39264 21.5776C7.35929 21.6111 7.33706 21.6558 7.30371 21.6893C7.23701 21.7005 7.18142 21.7228 7.12584 21.7564C6.8368 21.9352 6.74786 22.3263 6.92573 22.6168C7.6261 23.7454 8.43763 24.5164 9.138 25.2427C9.73831 25.8573 10.2608 26.4607 10.6832 27.2318C9.87171 27.9581 9.23805 28.7515 8.63774 29.5337C7.99296 30.3829 7.39264 31.2322 6.62558 32.0367C5.08033 33.6793 3.71295 34.9755 2.56791 37.0763C2.45674 37.2886 2.2344 37.6127 1.97871 37.9814C1.58962 38.5401 1.12271 39.1882 0.733619 39.8028C0.533515 40.1157 0.366761 40.4174 0.222241 40.7079C0.0888387 40.9985 -0.0223304 41.2778 -0.0334473 41.6019V41.7025C-0.0112135 42.1606 0.177774 42.5405 0.411229 42.8869C0.76697 43.4009 1.245 43.8814 1.68967 44.3061C2.13435 44.7307 2.54567 45.133 2.70131 45.3453C3.5462 46.4962 4.52448 47.379 5.21373 48.3958C5.42495 48.7087 5.61394 49.0887 5.85851 49.4909C6.10308 49.882 6.41436 50.3178 6.89238 50.6531C7.14807 50.8318 7.4927 50.776 7.6928 50.5525C8.71555 50.6307 9.74943 50.6977 10.7833 50.7424C14.0961 50.8989 17.4534 50.9101 20.7663 50.9436C21.2554 50.9436 21.6779 50.9548 22.0558 50.9771C23.2565 51.033 23.9346 51.1447 24.7684 51.2676C25.6021 51.3906 26.5804 51.5358 28.2924 51.6476C28.4592 51.6587 28.6148 51.6029 28.7371 51.5023C28.8371 51.4911 28.9372 51.4576 29.015 51.3906C29.2818 51.1782 29.3374 50.7871 29.1262 50.5078C28.4147 49.5356 27.7588 48.1277 27.0918 46.8873Z" fill="#D1D1D1"/>
</g>
<defs>
<clipPath id="clip0_480_4565">
<rect width="64" height="57" fill="white"/>
</clipPath>
</defs>
</svg>
