<svg width="52" height="63" viewBox="0 0 52 63" fill="none" xmlns="http://www.w3.org/2000/svg">
<g clip-path="url(#clip0_480_4607)">
<path d="M6.69115 42.0592C4.75975 41.161 0.538112 42.1427 0.0948399 40.7223C-0.696717 38.2052 3.736 31.9387 4.75975 26.4972C5.70962 21.4421 3.72545 17.818 6.69115 11.6976C9.65685 5.5668 18.3851 -0.48045 27.926 0.031321C37.4669 0.543092 49.5302 6.2039 51.6727 20.2933C53.203 30.3511 49.2452 38.8737 45.3719 42.0592C41.5091 45.2447 38.6173 49.1509 39.5144 60.8798C39.5144 63.6893 21.0025 63.2298 20.1054 62.2167C19.2083 61.1931 20.8758 53.0257 19.5882 52.9004C18.3006 52.775 8.49589 54.8117 9.01305 51.365C9.5302 47.9184 9.11859 45.0776 7.06054 44.8687C5.79405 44.7434 6.69115 42.0592 6.69115 42.0592Z" fill="#D1D1D1"/>
<path d="M28.7703 32.91C28.7703 32.91 35.3982 33.5471 37.9418 25.1917C40.4853 16.8362 42.174 14.904 42.174 14.904C42.174 14.904 42.0473 14.2774 40.4747 15.1025C38.9022 15.9171 28.7069 18.6222 27.7043 23.7399C26.7017 28.8576 27.8309 31.7924 28.7703 32.91Z" fill="white"/>
<path d="M27.6621 34.863C27.5354 34.9048 27.4193 34.7899 27.3349 34.6959C27.2399 34.6019 27.0605 34.5392 26.9972 34.6541C26.9761 34.6855 26.9761 34.7272 26.9761 34.769C26.9972 35.8657 27.0077 36.9519 27.0288 38.0485C27.05 39.1243 27.0605 40.2105 27.2294 41.2863C27.2505 41.4116 27.2821 41.5474 27.3877 41.6205C27.4827 41.6831 27.6093 41.6727 27.7149 41.6518C27.9576 41.5996 28.1898 41.5265 28.422 41.422C28.5486 41.3698 28.6647 41.2967 28.7281 41.1818C28.7914 41.0669 28.7808 40.9312 28.7808 40.8058C28.6964 39.2392 28.6858 37.6725 28.7492 36.1163C28.8653 33.4113 29.8257 30.8524 30.86 28.3458C31.9682 25.6511 33.3085 22.8939 35.3138 20.7319C35.5882 20.429 36.2953 19.8859 35.9998 19.6143C35.7043 19.3428 34.86 20.0217 34.5856 20.3141C30.0157 25.2438 27.5354 34.7586 27.4193 35.1972C27.3982 35.2912 27.3877 35.3852 27.3982 35.4688C27.4299 35.7508 27.641 36.0119 27.9365 36.085C28.327 36.1894 28.7386 35.9597 28.8441 35.5732C28.8547 35.5523 28.6858 34.9988 28.9075 34.1006C28.9075 34.0901 28.918 34.0797 28.918 34.0588L27.6621 34.863Z" fill="#9D9D9D"/>
<path d="M26.5962 33.9858C26.5962 33.9858 22.5012 35.6151 19.2928 30.7689C16.0949 25.9228 14.6595 25.0037 14.6595 25.0037C14.6595 25.0037 14.6278 24.5859 15.7782 24.8157C16.9286 25.0455 23.9366 24.8679 25.5408 27.949C27.1556 31.0301 26.9867 33.1085 26.5962 33.9858Z" fill="white"/>
<path d="M27.9576 35.3644C27.9893 35.5524 27.9049 35.7508 27.736 35.8553C27.5038 35.991 27.2083 35.9284 27.0605 35.6986C27.05 35.6882 27.05 35.3017 26.7439 34.7691C25.6885 33.004 22.9339 29.1083 20.137 27.4372C19.9049 27.3014 19.3455 27.0821 19.4932 26.8523C19.6304 26.6225 20.2954 26.9045 20.5275 27.0403C24.3692 29.3276 27.7465 34.9362 27.9049 35.1868C27.926 35.2495 27.9471 35.3122 27.9576 35.3644Z" fill="#9D9D9D"/>
</g>
<defs>
<clipPath id="clip0_480_4607">
<rect width="52" height="63" fill="white"/>
</clipPath>
</defs>
</svg>
