<svg width="701" height="548" viewBox="0 0 701 548" fill="none" xmlns="http://www.w3.org/2000/svg">
<g clip-path="url(#clip0_885_2546)">
<path fill-rule="evenodd" clip-rule="evenodd" d="M351.594 472.798L0 270.004L349.406 68.5768L701 271.302L351.594 472.798Z" fill="#94C237"/>
<path fill-rule="evenodd" clip-rule="evenodd" d="M0 270.004V345.275L351.594 548V472.798L0 270.004Z" fill="#729824"/>
<path fill-rule="evenodd" clip-rule="evenodd" d="M701 271.302V346.504L351.594 548V472.798L701 271.302Z" fill="#82B02C"/>
<path fill-rule="evenodd" clip-rule="evenodd" d="M701 325.262V346.504L351.594 548V526.758L701 325.262Z" fill="#B3532D"/>
<path fill-rule="evenodd" clip-rule="evenodd" d="M0 324.032V345.275L351.594 548V526.758L0 324.032Z" fill="#7D3715"/>
<path fill-rule="evenodd" clip-rule="evenodd" d="M351.594 472.798L0 270.004L349.406 68.5768L701 271.302L351.594 472.798Z" fill="url(#paint0_linear_885_2546)"/>
<path fill-rule="evenodd" clip-rule="evenodd" d="M131.172 232.574L54.4385 279.567L131.172 314.743L137.259 317.544L196.143 281.821L257.899 244.322L196.143 208.804L182.602 201.018L131.172 232.574Z" fill="url(#paint1_linear_885_2546)"/>
<path fill-rule="evenodd" clip-rule="evenodd" d="M148.817 67.3474L154.631 217.479C182.055 233.257 202.162 244.868 229.928 260.783L305.226 217.479L311.039 67.3474H148.817Z" fill="#00665B"/>
<path fill-rule="evenodd" clip-rule="evenodd" d="M229.928 260.783L230.201 97.4009L311.039 67.4156L305.225 217.479L229.928 260.783Z" fill="url(#paint2_linear_885_2546)"/>
<path fill-rule="evenodd" clip-rule="evenodd" d="M303.722 46.9246L309.466 37.3621L286.761 24.521C285.872 23.9063 284.777 23.5648 283.615 23.5648C280.537 23.5648 278.007 26.092 278.007 29.1657C278.007 31.0099 278.896 32.6491 280.332 33.6737H280.4C280.742 33.8786 281.084 34.0835 281.426 34.2884L303.722 46.9246Z" fill="url(#paint3_linear_885_2546)"/>
<path fill-rule="evenodd" clip-rule="evenodd" d="M311.996 42.0067C311.996 45.0804 309.466 47.6076 306.388 47.6076C303.311 47.6076 300.78 45.0804 300.78 42.0067C300.78 38.9331 303.311 36.4058 306.388 36.4058C309.466 36.4058 311.996 38.9331 311.996 42.0067Z" fill="#074D41"/>
<path fill-rule="evenodd" clip-rule="evenodd" d="M262.208 23.3598L267.953 13.7973L245.247 0.956251C244.358 0.341518 243.264 0 242.101 0C239.024 0 236.493 2.52723 236.493 5.6009C236.493 7.4451 237.382 9.08438 238.818 10.1089L238.887 10.1772C239.229 10.3822 239.571 10.5871 239.913 10.792L262.208 23.3598Z" fill="#00665B"/>
<path fill-rule="evenodd" clip-rule="evenodd" d="M270.415 18.442C270.415 21.5156 267.885 24.0429 264.807 24.0429C261.73 24.0429 259.199 21.5156 259.199 18.442C259.199 15.3683 261.73 12.8411 264.807 12.8411C267.953 12.8411 270.415 15.3683 270.415 18.442Z" fill="#074D41"/>
<path fill-rule="evenodd" clip-rule="evenodd" d="M229.928 120.419C228.218 120.419 226.577 119.941 225.072 119.122L149.775 75.817C146.765 74.0411 144.919 70.8992 144.919 67.4157C144.919 63.9322 146.765 60.7902 149.775 59.0143L225.072 15.6415C226.577 14.8219 228.218 14.3438 229.928 14.3438C231.638 14.3438 233.279 14.8219 234.784 15.6415L310.081 59.0143C313.091 60.7902 314.937 63.9322 314.937 67.4157C314.937 70.8992 313.091 74.0411 310.081 75.817L234.784 119.122C233.279 119.941 231.638 120.419 229.928 120.419Z" fill="#074D41"/>
<path d="M314.869 57.3068H144.919V67.3474H314.869V57.3068Z" fill="#074D41"/>
<path fill-rule="evenodd" clip-rule="evenodd" d="M229.928 110.31C228.218 110.31 226.577 109.832 225.072 109.013L149.775 65.7081C146.765 63.9322 144.919 60.7902 144.919 57.3067C144.919 53.8232 146.765 50.6813 149.775 48.9054L225.072 5.53257C226.577 4.71293 228.218 4.2348 229.928 4.2348C231.638 4.2348 233.279 4.71293 234.784 5.53257L310.081 48.9054C313.091 50.6813 314.937 53.8232 314.937 57.3067C314.937 60.7902 313.091 63.9322 310.081 65.7081L234.784 109.013C233.279 109.901 231.638 110.31 229.928 110.31Z" fill="#00665B"/>
<path fill-rule="evenodd" clip-rule="evenodd" d="M229.928 104.505C229.244 104.505 228.56 104.3 228.013 103.958L152.716 60.6536C151.485 59.9706 150.801 58.7411 150.801 57.3068C150.801 55.8724 151.485 54.6429 152.716 53.9599L228.013 10.5871C228.629 10.2456 229.244 10.0406 229.928 10.0406C230.612 10.0406 231.296 10.2456 231.843 10.5871L307.141 53.9599C308.372 54.6429 309.056 55.8724 309.056 57.3068C309.056 58.7411 308.372 59.9706 307.141 60.6536L231.843 104.026C231.296 104.3 230.612 104.505 229.928 104.505Z" fill="#074D41"/>
<path d="M309.124 47.7443H150.801V57.3751H309.124V47.7443Z" fill="#074D41"/>
<path fill-rule="evenodd" clip-rule="evenodd" d="M229.928 94.9421C229.244 94.9421 228.56 94.7372 228.013 94.3956L152.716 51.0911C151.485 50.4081 150.801 49.1786 150.801 47.7443C150.801 46.3099 151.485 45.0804 152.716 44.3974L228.013 1.02458C228.629 0.68306 229.244 0.478149 229.928 0.478149C230.612 0.478149 231.296 0.68306 231.843 1.02458L307.141 44.3974C308.372 45.0804 309.056 46.3099 309.056 47.7443C309.056 49.1786 308.372 50.4081 307.141 51.0911L231.843 94.3956C231.296 94.7372 230.612 94.9421 229.928 94.9421Z" fill="#00665B"/>
<path fill-rule="evenodd" clip-rule="evenodd" d="M218.37 74.9291C218.37 74.9291 219.875 75.7487 221.79 76.9099C223.705 78.0028 223.363 78.6858 223.363 82.5791L230.202 78.6175C230.202 78.6175 230.202 77.2514 230.202 74.7242C230.202 72.197 230.475 73.1532 226.372 70.626L218.37 74.9291Z" fill="#0F9C85"/>
<path fill-rule="evenodd" clip-rule="evenodd" d="M182.123 52.0473C181.918 51.7741 181.576 51.5692 181.098 51.7058C178.978 52.1839 178.978 53.7549 178.978 53.7549V57.7165L187.184 53.4817V49.3152L182.123 52.0473Z" fill="#0F9C85"/>
<path fill-rule="evenodd" clip-rule="evenodd" d="M178.977 57.7165L180.413 58.6728C180.413 58.6728 180.413 57.1018 180.413 55.7357C180.413 54.3697 181.85 55.4625 183.081 56.4871C184.312 57.4433 216.797 75.8853 219.601 77.3197C222.405 78.8224 221.516 81.2813 221.516 81.2813L223.294 82.5108C223.294 82.5108 223.294 81.1447 223.294 79.5737C223.294 78.0027 223.089 77.6612 220.49 76.1585C217.891 74.6558 202.025 65.5032 199.494 64.0688C196.964 62.6344 183.491 54.6429 181.029 53.4134C178.567 52.184 178.909 54.0282 178.909 54.5063C178.977 55.0527 178.977 57.7165 178.977 57.7165Z" fill="#074D41"/>
<path fill-rule="evenodd" clip-rule="evenodd" d="M222.747 77.5929L230.065 72.9483C230.065 72.9483 230.065 72.7434 229.381 72.2652L229.313 72.1969L228.902 71.992L189.51 49.2469C189.51 49.2469 187.39 47.3344 185.269 48.4956C183.149 49.7251 180.14 51.4326 180.14 51.4326C180.14 51.4326 178.978 51.9108 178.909 53.6184C178.978 53.2768 179.32 52.3889 181.713 53.755L221.653 76.7733C222.063 77.0465 222.611 77.4563 222.747 77.5929Z" fill="#027B65"/>
<path fill-rule="evenodd" clip-rule="evenodd" d="M195.255 152.932L191.904 153.342L200.111 160.24L202.231 152.385L198.811 152.795C198.811 152.795 197.033 147.877 195.46 143.643C193.887 139.408 191.152 133.397 186.638 131.621C182.124 129.845 181.167 132.372 179.594 134.626C178.021 136.949 173.165 143.643 173.165 143.643L176.721 147.946C176.721 147.946 179.799 143.847 181.303 141.662C182.808 139.476 185.202 134.558 188.211 137.359C191.152 140.091 191.699 144.052 195.255 152.932Z" fill="white"/>
<path fill-rule="evenodd" clip-rule="evenodd" d="M199.7 164.68L203.325 164.407C203.325 164.407 206.676 173.286 208.249 177.384C209.822 181.551 208.386 185.376 205.377 186.264C202.367 187.152 194.844 181.688 194.844 181.688V186.059L188.895 175.95L194.708 172.467L194.639 176.906C194.639 176.906 198.264 179.024 200.247 180.117C202.299 181.278 203.598 181.209 204.282 180.117C205.035 179.092 205.24 178.272 199.7 164.68Z" fill="white"/>
<path fill-rule="evenodd" clip-rule="evenodd" d="M173.78 148.424L175.832 159.079L172.549 155.118C172.549 155.118 170.292 157.167 170.497 159.079C170.703 160.992 171.318 163.382 175.079 165.568C178.841 167.754 186.227 171.989 186.227 171.989V176.77C186.227 176.77 177.131 171.647 174.122 169.734C171.113 167.89 168.309 165.295 166.873 160.309C165.368 155.322 167.215 152.659 168.924 150.541L165.573 146.443L173.78 148.424Z" fill="white"/>
<path fill-rule="evenodd" clip-rule="evenodd" d="M240.46 296.848L163.795 343.84L240.46 379.017L246.547 381.817L305.431 346.094L367.256 308.596L305.431 273.078L291.958 265.291L240.46 296.848Z" fill="url(#paint4_linear_885_2546)"/>
<path fill-rule="evenodd" clip-rule="evenodd" d="M258.994 130.938L264.807 281.069C292.232 296.848 312.339 308.459 340.105 324.374L415.403 281.138L421.216 131.006L258.994 130.938Z" fill="#E8BC00"/>
<path fill-rule="evenodd" clip-rule="evenodd" d="M340.104 324.374L340.378 160.992L421.215 131.006L415.402 281.138L340.104 324.374Z" fill="url(#paint5_linear_885_2546)"/>
<path fill-rule="evenodd" clip-rule="evenodd" d="M413.967 110.515L419.711 100.953L397.006 88.1117C396.117 87.497 395.023 87.1555 393.86 87.1555C390.782 87.1555 388.252 89.6827 388.252 92.7564C388.252 94.6005 389.141 96.2398 390.577 97.2644L390.646 97.3327C390.988 97.5376 391.33 97.7425 391.671 97.9474L413.967 110.515Z" fill="url(#paint6_linear_885_2546)"/>
<path fill-rule="evenodd" clip-rule="evenodd" d="M422.173 105.597C422.173 108.671 419.643 111.198 416.565 111.198C413.487 111.198 410.957 108.671 410.957 105.597C410.957 102.524 413.487 99.9965 416.565 99.9965C419.643 99.9965 422.173 102.524 422.173 105.597Z" fill="#E38C00"/>
<path fill-rule="evenodd" clip-rule="evenodd" d="M372.385 86.9505L378.129 77.388L355.424 64.5469C354.535 63.9322 353.441 63.5907 352.278 63.5907C349.2 63.5907 346.67 66.1179 346.67 69.1916C346.67 71.0358 347.559 72.6751 348.995 73.6996L349.064 73.7679C349.406 73.9728 349.747 74.1778 350.089 74.3827L372.385 86.9505Z" fill="#E8BC00"/>
<path fill-rule="evenodd" clip-rule="evenodd" d="M380.592 82.0327C380.592 85.1063 378.062 87.6336 374.984 87.6336C371.906 87.6336 369.376 85.1063 369.376 82.0327C369.376 78.959 371.906 76.4318 374.984 76.4318C378.13 76.5001 380.592 78.959 380.592 82.0327Z" fill="#E38C00"/>
<path fill-rule="evenodd" clip-rule="evenodd" d="M340.105 184.01C338.395 184.01 336.754 183.532 335.249 182.712L259.951 139.408C256.942 137.632 255.096 134.49 255.096 131.006C255.096 127.523 256.942 124.381 259.951 122.605L335.249 79.2322C336.754 78.4126 338.395 77.9344 340.105 77.9344C341.815 77.9344 343.456 78.4126 344.96 79.2322L420.258 122.605C423.336 124.381 425.114 127.523 425.114 131.006C425.114 134.49 423.267 137.632 420.258 139.408L344.96 182.712C343.524 183.532 341.815 184.01 340.105 184.01Z" fill="#E38C00"/>
<path d="M425.114 120.897H255.164V130.938H425.114V120.897Z" fill="#E38C00"/>
<path fill-rule="evenodd" clip-rule="evenodd" d="M340.105 173.969C338.395 173.969 336.754 173.491 335.249 172.672L259.951 129.367C256.942 127.591 255.096 124.449 255.096 120.966C255.096 117.482 256.942 114.34 259.951 112.564L335.249 69.1916C336.754 68.3719 338.395 67.8938 340.105 67.8938C341.815 67.8938 343.456 68.3719 344.96 69.1916L420.258 112.564C423.336 114.34 425.114 117.482 425.114 120.966C425.114 124.449 423.267 127.591 420.258 129.367L344.96 172.672C343.524 173.491 341.815 173.969 340.105 173.969Z" fill="#E8BC00"/>
<path fill-rule="evenodd" clip-rule="evenodd" d="M340.105 168.095C339.421 168.095 338.737 167.89 338.19 167.549L262.892 124.244C261.661 123.561 260.978 122.332 260.978 120.897C260.978 119.463 261.661 118.234 262.892 117.551L338.19 74.1778C338.806 73.8363 339.421 73.6313 340.105 73.6313C340.789 73.6313 341.473 73.8363 342.02 74.1778L417.318 117.551C418.549 118.234 419.233 119.463 419.233 120.897C419.233 122.332 418.549 123.561 417.318 124.244L342.02 167.549C341.473 167.959 340.789 168.095 340.105 168.095Z" fill="#E38C00"/>
<path d="M419.301 111.335H260.978V120.966H419.301V111.335Z" fill="#E38C00"/>
<path fill-rule="evenodd" clip-rule="evenodd" d="M340.105 158.533C339.421 158.533 338.737 158.328 338.19 157.986L262.892 114.682C261.661 113.999 260.978 112.769 260.978 111.335C260.978 109.901 261.661 108.671 262.892 107.988L338.19 64.6153C338.806 64.2738 339.421 64.0688 340.105 64.0688C340.789 64.0688 341.473 64.2738 342.02 64.6153L417.318 107.988C418.549 108.671 419.233 109.901 419.233 111.335C419.233 112.769 418.549 113.999 417.318 114.682L342.02 157.986C341.473 158.328 340.789 158.533 340.105 158.533Z" fill="#E8BC00"/>
<path fill-rule="evenodd" clip-rule="evenodd" d="M328.547 138.52C328.547 138.52 330.051 139.339 331.966 140.501C333.881 141.593 333.539 142.276 333.539 146.17L340.378 142.208C340.378 142.208 340.378 140.842 340.378 138.315C340.378 135.788 340.652 136.744 336.549 134.217L328.547 138.52Z" fill="#FFD800"/>
<path fill-rule="evenodd" clip-rule="evenodd" d="M292.3 115.638C292.095 115.365 291.753 115.16 291.274 115.297C289.154 115.775 289.154 117.346 289.154 117.346V121.307L297.361 117.072V112.838L292.3 115.638Z" fill="#FFD800"/>
<path fill-rule="evenodd" clip-rule="evenodd" d="M289.154 121.307L290.59 122.264C290.59 122.264 290.59 120.693 290.59 119.326C290.59 117.96 292.026 119.053 293.257 120.078C294.488 121.034 326.974 139.476 329.778 140.979C332.582 142.481 331.761 144.94 331.761 144.94L333.539 146.17C333.539 146.17 333.539 144.804 333.539 143.233C333.539 141.662 333.334 141.32 330.735 139.818C328.136 138.315 312.27 129.162 309.739 127.728C307.209 126.293 293.736 118.302 291.274 117.072C288.812 115.843 289.154 117.619 289.154 118.165C289.154 118.712 289.154 121.307 289.154 121.307Z" fill="#E38C00"/>
<path fill-rule="evenodd" clip-rule="evenodd" d="M332.924 141.184L340.242 136.539C340.242 136.539 340.242 136.334 339.558 135.924L339.49 135.856L339.079 135.651L299.618 112.906C299.618 112.906 297.498 110.925 295.378 112.155C293.258 113.384 290.249 115.092 290.249 115.092C290.249 115.092 289.086 115.57 289.018 117.277C289.086 116.936 289.428 116.048 291.822 117.414L331.761 140.432C332.309 140.705 332.787 141.047 332.924 141.184Z" fill="#EDC400"/>
<path fill-rule="evenodd" clip-rule="evenodd" d="M305.432 216.523L302.081 216.932L310.288 223.831L312.408 215.976L308.988 216.386C308.988 216.386 307.21 211.468 305.637 207.233C304.064 202.998 301.328 196.988 296.815 195.212C292.301 193.436 291.343 195.963 289.77 198.217C288.197 200.471 283.342 207.233 283.342 207.233L286.898 211.536C286.898 211.536 289.976 207.438 291.48 205.252C292.985 203.067 295.378 198.149 298.388 200.949C301.328 203.75 301.876 207.643 305.432 216.523Z" fill="white"/>
<path fill-rule="evenodd" clip-rule="evenodd" d="M309.877 228.271L313.57 227.998C313.57 227.998 316.921 236.877 318.494 240.975C320.067 245.142 318.631 248.967 315.622 249.855C312.613 250.743 305.09 245.278 305.09 245.278V249.65L299.14 239.541L304.953 236.057L304.884 240.497C304.884 240.497 308.509 242.614 310.492 243.707C312.544 244.869 313.844 244.8 314.527 243.707C315.28 242.683 315.417 241.863 309.877 228.271Z" fill="white"/>
<path fill-rule="evenodd" clip-rule="evenodd" d="M283.957 212.014L286.009 222.67L282.726 218.708C282.726 218.708 280.469 220.757 280.674 222.67C280.948 224.582 281.495 226.973 285.256 229.159C289.018 231.344 296.404 235.579 296.404 235.579V240.36C296.404 240.36 287.308 235.238 284.299 233.325C281.29 231.481 278.554 228.885 277.049 223.899C275.545 218.913 277.391 216.249 279.101 214.132L275.75 210.034L283.957 212.014Z" fill="white"/>
<path fill-rule="evenodd" clip-rule="evenodd" d="M351.389 359.209L274.724 406.202L351.389 441.378L357.476 444.11L416.428 408.387L478.185 370.957L416.428 335.439L402.887 327.652L351.389 359.209Z" fill="url(#paint7_linear_885_2546)"/>
<path fill-rule="evenodd" clip-rule="evenodd" d="M370.47 193.572L376.283 343.704C403.707 359.482 423.814 371.094 451.581 387.008L526.878 343.704L532.691 193.572H370.47Z" fill="#2B4899"/>
<path fill-rule="evenodd" clip-rule="evenodd" d="M451.58 387.008L451.854 223.558L532.623 193.572L526.809 343.704L451.58 387.008Z" fill="url(#paint8_linear_885_2546)"/>
<path fill-rule="evenodd" clip-rule="evenodd" d="M525.373 173.081L531.118 163.519L508.412 150.678C507.523 150.063 506.429 149.722 505.266 149.722C502.189 149.722 499.658 152.249 499.658 155.322C499.658 157.167 500.547 158.806 501.983 159.83L502.052 159.899C502.394 160.104 502.736 160.309 503.078 160.514L525.373 173.081Z" fill="url(#paint9_linear_885_2546)"/>
<path fill-rule="evenodd" clip-rule="evenodd" d="M533.58 168.164C533.58 171.237 531.05 173.764 527.972 173.764C524.895 173.764 522.364 171.237 522.364 168.164C522.364 165.09 524.895 162.563 527.972 162.563C531.118 162.631 533.58 165.09 533.58 168.164Z" fill="#322782"/>
<path fill-rule="evenodd" clip-rule="evenodd" d="M483.792 149.585L489.537 140.022L466.831 127.181C465.942 126.567 464.848 126.225 463.685 126.225C460.608 126.225 458.077 128.752 458.077 131.826C458.077 133.67 458.966 135.309 460.402 136.334L460.471 136.402C460.813 136.607 461.155 136.812 461.497 137.017L483.792 149.585Z" fill="#2B4899"/>
<path fill-rule="evenodd" clip-rule="evenodd" d="M492.068 144.667C492.068 147.741 489.537 150.268 486.46 150.268C483.382 150.268 480.852 147.741 480.852 144.667C480.852 141.593 483.382 139.066 486.46 139.066C489.537 139.066 492.068 141.593 492.068 144.667Z" fill="#322782"/>
<path fill-rule="evenodd" clip-rule="evenodd" d="M451.58 246.576C449.871 246.576 448.229 246.098 446.725 245.278L371.427 201.974C368.349 200.198 366.571 197.056 366.571 193.572C366.571 190.089 368.418 186.947 371.427 185.171L446.725 141.798C448.229 140.979 449.871 140.501 451.58 140.501C453.29 140.501 454.931 140.979 456.436 141.798L531.734 185.171C534.743 186.947 536.589 190.089 536.589 193.572C536.589 197.056 534.743 200.198 531.734 201.974L456.436 245.278C454.931 246.166 453.222 246.576 451.58 246.576Z" fill="#322782"/>
<path d="M536.521 183.532H366.571V193.572H536.521V183.532Z" fill="#322782"/>
<path fill-rule="evenodd" clip-rule="evenodd" d="M451.58 236.535C449.871 236.535 448.229 236.057 446.725 235.238L371.427 191.933C368.349 190.157 366.571 187.015 366.571 183.532C366.571 180.048 368.418 176.906 371.427 175.13L446.725 131.758C448.229 130.938 449.871 130.46 451.58 130.46C453.29 130.46 454.931 130.938 456.436 131.758L531.734 175.13C534.743 176.906 536.589 180.048 536.589 183.532C536.589 187.015 534.743 190.157 531.734 191.933L456.436 235.238C454.931 236.057 453.222 236.535 451.58 236.535Z" fill="#2B4899"/>
<path fill-rule="evenodd" clip-rule="evenodd" d="M451.581 230.73C450.897 230.73 450.213 230.525 449.666 230.183L374.368 186.879C373.137 186.196 372.453 184.966 372.453 183.532C372.453 182.097 373.137 180.868 374.368 180.185L449.666 136.812C450.281 136.471 450.897 136.266 451.581 136.266C452.265 136.266 452.948 136.471 453.496 136.812L528.793 180.185C530.024 180.868 530.708 182.097 530.708 183.532C530.708 184.966 530.024 186.196 528.793 186.879L453.496 230.183C452.88 230.525 452.196 230.73 451.581 230.73Z" fill="#322782"/>
<path d="M530.708 173.901H372.385V183.532H530.708V173.901Z" fill="#322782"/>
<path fill-rule="evenodd" clip-rule="evenodd" d="M451.581 221.099C450.897 221.099 450.213 220.894 449.666 220.552L374.368 177.248C373.137 176.565 372.453 175.335 372.453 173.901C372.453 172.467 373.137 171.237 374.368 170.554L449.666 127.181C450.281 126.84 450.897 126.635 451.581 126.635C452.265 126.635 452.948 126.84 453.496 127.181L528.793 170.554C530.024 171.237 530.708 172.467 530.708 173.901C530.708 175.335 530.024 176.565 528.793 177.248L453.496 220.621C452.88 220.962 452.196 221.099 451.581 221.099Z" fill="#2B4899"/>
<path fill-rule="evenodd" clip-rule="evenodd" d="M439.954 201.086C439.954 201.086 441.459 201.906 443.374 203.067C445.289 204.16 444.947 204.843 444.947 208.736L451.786 204.774C451.786 204.774 451.786 203.408 451.786 200.881C451.786 198.354 452.059 199.31 447.956 196.783L439.954 201.086Z" fill="#5578BB"/>
<path fill-rule="evenodd" clip-rule="evenodd" d="M403.776 178.272C403.571 177.999 403.229 177.794 402.75 177.931C400.63 178.409 400.63 179.98 400.63 179.98V183.942L408.837 179.707V175.472L403.776 178.272Z" fill="#5578BB"/>
<path fill-rule="evenodd" clip-rule="evenodd" d="M400.629 183.942L402.066 184.898C402.066 184.898 402.066 183.327 402.066 181.961C402.066 180.595 403.502 181.688 404.733 182.712C405.964 183.668 438.449 202.11 441.253 203.545C444.057 204.979 443.168 207.506 443.168 207.506L444.946 208.736C444.946 208.736 444.946 207.37 444.946 205.799C444.946 204.228 444.741 203.886 442.142 202.384C439.544 200.881 423.677 191.728 421.147 190.294C418.616 188.86 405.143 180.868 402.681 179.639C400.219 178.409 400.561 180.185 400.561 180.731C400.629 181.278 400.629 183.942 400.629 183.942Z" fill="#322782"/>
<path fill-rule="evenodd" clip-rule="evenodd" d="M444.331 203.818L451.649 199.173C451.649 199.173 451.649 198.968 450.965 198.559L450.897 198.49L450.486 198.285L411.025 175.54C411.025 175.54 408.905 173.56 406.785 174.789C404.665 176.018 401.724 177.726 401.724 177.726C401.724 177.726 400.562 178.204 400.493 179.912C400.562 179.57 400.904 178.682 403.297 180.048L443.237 203.067C443.716 203.272 444.195 203.613 444.331 203.818Z" fill="#394C9C"/>
<path fill-rule="evenodd" clip-rule="evenodd" d="M416.839 279.089L413.488 279.498L421.695 286.397L423.815 278.542L420.395 278.952C420.395 278.952 418.617 274.034 417.044 269.799C415.471 265.565 412.736 259.554 408.222 257.778C403.708 256.002 402.751 258.529 401.178 260.783C399.605 263.106 394.749 269.799 394.749 269.799L398.305 274.102C398.305 274.102 401.383 270.004 402.887 267.819C404.392 265.633 406.786 260.783 409.795 263.515C412.736 266.316 413.283 270.277 416.839 279.089Z" fill="white"/>
<path fill-rule="evenodd" clip-rule="evenodd" d="M421.284 290.905L424.977 290.632C424.977 290.632 428.328 299.511 429.901 303.61C431.474 307.776 430.038 311.601 427.029 312.489C424.02 313.377 416.497 307.913 416.497 307.913V312.284L410.547 302.175L416.36 298.692L416.292 303.2C416.292 303.2 419.916 305.317 421.9 306.41C423.951 307.571 425.251 307.503 425.935 306.41C426.687 305.249 426.892 304.429 421.284 290.905Z" fill="white"/>
<path fill-rule="evenodd" clip-rule="evenodd" d="M395.364 274.581L397.416 285.236L394.133 281.274C394.133 281.274 391.876 283.323 392.081 285.236C392.355 287.148 392.902 289.539 396.663 291.725C400.425 293.91 407.811 298.145 407.811 298.145V302.927C407.811 302.927 398.715 297.804 395.706 295.891C392.697 294.047 389.961 291.452 388.457 286.465C386.952 281.479 388.799 278.815 390.508 276.698L387.157 272.6L395.364 274.581Z" fill="white"/>
</g>
<defs>
<linearGradient id="paint0_linear_885_2546" x1="344.837" y1="78.2664" x2="356.17" y2="463.099" gradientUnits="userSpaceOnUse">
<stop stop-color="#82B02C"/>
<stop offset="0.0233" stop-color="#84B22D"/>
<stop offset="0.178" stop-color="#8DBB33"/>
<stop offset="0.3955" stop-color="#92C036"/>
<stop offset="1" stop-color="#94C237"/>
</linearGradient>
<linearGradient id="paint1_linear_885_2546" x1="133.026" y1="302.289" x2="179.342" y2="221.39" gradientUnits="userSpaceOnUse">
<stop stop-color="#91C035"/>
<stop offset="1" stop-color="#729824"/>
</linearGradient>
<linearGradient id="paint2_linear_885_2546" x1="229.938" y1="164.084" x2="311.03" y2="164.084" gradientUnits="userSpaceOnUse">
<stop stop-color="#0F9C85"/>
<stop offset="1" stop-color="#047A65"/>
</linearGradient>
<linearGradient id="paint3_linear_885_2546" x1="229.935" y1="35.2242" x2="311.028" y2="35.2242" gradientUnits="userSpaceOnUse">
<stop stop-color="#0F9C85"/>
<stop offset="1" stop-color="#047A65"/>
</linearGradient>
<linearGradient id="paint4_linear_885_2546" x1="242.342" y1="366.592" x2="288.659" y2="285.692" gradientUnits="userSpaceOnUse">
<stop stop-color="#91C035"/>
<stop offset="1" stop-color="#729824"/>
</linearGradient>
<linearGradient id="paint5_linear_885_2546" x1="340.123" y1="227.683" x2="421.217" y2="227.683" gradientUnits="userSpaceOnUse">
<stop stop-color="#FFD800"/>
<stop offset="1" stop-color="#ECA200"/>
</linearGradient>
<linearGradient id="paint6_linear_885_2546" x1="340.124" y1="98.8251" x2="421.216" y2="98.8251" gradientUnits="userSpaceOnUse">
<stop stop-color="#FFD800"/>
<stop offset="1" stop-color="#ECA200"/>
</linearGradient>
<linearGradient id="paint7_linear_885_2546" x1="353.28" y1="428.924" x2="399.596" y2="348.025" gradientUnits="userSpaceOnUse">
<stop stop-color="#91C035"/>
<stop offset="1" stop-color="#729824"/>
</linearGradient>
<linearGradient id="paint8_linear_885_2546" x1="451.553" y1="290.281" x2="532.645" y2="290.281" gradientUnits="userSpaceOnUse">
<stop stop-color="#5578BB"/>
<stop offset="1" stop-color="#32509F"/>
</linearGradient>
<linearGradient id="paint9_linear_885_2546" x1="451.554" y1="161.421" x2="532.647" y2="161.421" gradientUnits="userSpaceOnUse">
<stop stop-color="#5578BB"/>
<stop offset="1" stop-color="#32509F"/>
</linearGradient>
<clipPath id="clip0_885_2546">
<rect width="701" height="548" fill="white"/>
</clipPath>
</defs>
</svg>
