<svg width="60" height="60" viewBox="0 0 60 60" fill="none" xmlns="http://www.w3.org/2000/svg">
<path d="M39.375 23.4375C39.375 24.1834 39.0787 24.8988 38.5512 25.4262C38.0238 25.9537 37.3084 26.25 36.5625 26.25C35.8166 26.25 35.1012 25.9537 34.5738 25.4262C34.0463 24.8988 33.75 24.1834 33.75 23.4375C33.75 22.6916 34.0463 21.9762 34.5738 21.4488C35.1012 20.9213 35.8166 20.625 36.5625 20.625C37.3084 20.625 38.0238 20.9213 38.5512 21.4488C39.0787 21.9762 39.375 22.6916 39.375 23.4375ZM54.375 13.125V43.125V46.875C54.375 47.8696 53.9799 48.8234 53.2766 49.5266C52.5734 50.2299 51.6196 50.625 50.625 50.625H9.375C8.38044 50.625 7.42661 50.2299 6.72335 49.5266C6.02009 48.8234 5.625 47.8696 5.625 46.875V39.375V13.125C5.625 12.1304 6.02009 11.1766 6.72335 10.4733C7.42661 9.77009 8.38044 9.375 9.375 9.375H50.625C51.6196 9.375 52.5734 9.77009 53.2766 10.4733C53.9799 11.1766 54.375 12.1304 54.375 13.125ZM50.625 38.6016V13.125H9.375V34.8516L17.9766 26.25C18.6825 25.5544 19.6339 25.1644 20.625 25.1644C21.6161 25.1644 22.5675 25.5544 23.2734 26.25L33.75 36.7266L38.6016 31.875C39.3075 31.1794 40.2589 30.7894 41.25 30.7894C42.2411 30.7894 43.1925 31.1794 43.8984 31.875L50.625 38.6016Z" fill="#00A0E3"/>
</svg>
