<svg width="60" height="60" viewBox="0 0 60 60" fill="none" xmlns="http://www.w3.org/2000/svg">
<path d="M55.7107 4.28911C55.3553 3.93702 54.8751 3.7395 54.3748 3.7395C53.8745 3.7395 53.3944 3.93702 53.0389 4.28911L41.2498 16.1016L39.9842 14.836C39.2895 14.1387 38.4641 13.5854 37.5551 13.2079C36.6461 12.8303 35.6716 12.636 34.6873 12.636C33.7031 12.636 32.7285 12.8303 31.8195 13.2079C30.9105 13.5854 30.0851 14.1387 29.3904 14.836L23.4373 20.7891L22.8982 20.2266C22.5339 19.9276 22.0714 19.7748 21.6007 19.7979C21.13 19.8211 20.6847 20.0184 20.3515 20.3517C20.0182 20.6849 19.8208 21.1302 19.7977 21.601C19.7746 22.0717 19.9274 22.5342 20.2264 22.8985L20.7889 23.4375L14.8357 29.3907C14.1384 30.0853 13.5851 30.9108 13.2076 31.8198C12.8301 32.7287 12.6357 33.7033 12.6357 34.6875C12.6357 35.6718 12.8301 36.6464 13.2076 37.5553C13.5851 38.4643 14.1384 39.2898 14.8357 39.9844L16.1014 41.25L4.28887 53.0391C3.93678 53.3946 3.73926 53.8747 3.73926 54.375C3.73926 54.8754 3.93678 55.3555 4.28887 55.711C4.64726 56.0575 5.12628 56.2512 5.62481 56.2512C6.12333 56.2512 6.60236 56.0575 6.96074 55.711L18.7498 43.8985L20.0154 45.1641C21.4244 46.561 23.3282 47.3448 25.3123 47.3448C27.2964 47.3448 29.2002 46.561 30.6092 45.1641L36.5623 39.211L37.1014 39.7735C37.4598 40.12 37.9388 40.3137 38.4373 40.3137C38.9358 40.3137 39.4149 40.12 39.7732 39.7735C40.1253 39.418 40.3228 38.9379 40.3228 38.4375C40.3228 37.9372 40.1253 37.4571 39.7732 37.1016L39.2107 36.5625L45.1639 30.6094C45.8612 29.9148 46.4145 29.0893 46.792 28.1803C47.1695 27.2714 47.3639 26.2968 47.3639 25.3125C47.3639 24.3283 47.1695 23.3537 46.792 22.4448C46.4145 21.5358 45.8612 20.7103 45.1639 20.0157L43.8982 18.75L55.7107 6.96099C56.0628 6.6055 56.2603 6.12539 56.2603 5.62505C56.2603 5.12471 56.0628 4.6446 55.7107 4.28911ZM42.5154 27.961L36.5623 33.9141L26.0857 23.4375L32.0389 17.4844C32.3854 17.1344 32.7979 16.8565 33.2525 16.6668C33.7071 16.4772 34.1947 16.3795 34.6873 16.3795C35.1799 16.3795 35.6676 16.4772 36.1221 16.6668C36.5767 16.8565 36.9892 17.1344 37.3357 17.4844L42.5154 22.6641C42.8655 23.0106 43.1434 23.4231 43.333 23.8777C43.5227 24.3323 43.6203 24.82 43.6203 25.3125C43.6203 25.8051 43.5227 26.2928 43.333 26.7474C43.1434 27.202 42.8655 27.6145 42.5154 27.961ZM54.2811 38.086C54.1609 38.463 53.923 38.7916 53.6025 39.0235C53.2819 39.2555 52.8955 39.3787 52.4998 39.375C52.3005 39.3782 52.1022 39.3464 51.9139 39.2813L46.2889 37.4063C46.055 37.3294 45.8385 37.2071 45.6518 37.0465C45.4651 36.8859 45.3119 36.6901 45.2009 36.4703C45.09 36.2505 45.0233 36.0109 45.0049 35.7654C44.9865 35.5198 45.0166 35.273 45.0936 35.0391C45.1705 34.8052 45.2928 34.5887 45.4534 34.4021C45.614 34.2154 45.8098 34.0622 46.0296 33.9512C46.2494 33.8402 46.4889 33.7736 46.7345 33.7552C46.98 33.7367 47.2268 33.7669 47.4607 33.8438L53.0857 35.7188C53.3197 35.7957 53.5362 35.918 53.7228 36.0786C53.9095 36.2392 54.0627 36.435 54.1737 36.6548C54.2847 36.8746 54.3513 37.1142 54.3697 37.3597C54.3882 37.6053 54.358 37.8521 54.2811 38.086ZM5.71856 21.9141C5.79548 21.6802 5.91774 21.4637 6.07834 21.277C6.23894 21.0903 6.43475 20.9371 6.65456 20.8261C6.87438 20.7151 7.11391 20.6485 7.35948 20.6301C7.60504 20.6117 7.85183 20.6418 8.08574 20.7188L13.7107 22.5938C14.1344 22.733 14.4945 23.0187 14.7265 23.3995C14.9585 23.7804 15.0472 24.2314 14.9767 24.6717C14.9061 25.1121 14.6809 25.5128 14.3415 25.8021C14.0021 26.0913 13.5707 26.2502 13.1248 26.25C12.9255 26.2532 12.7272 26.2214 12.5389 26.1563L6.91387 24.2813C6.67994 24.2044 6.46346 24.0821 6.27678 23.9215C6.09011 23.7609 5.93689 23.5651 5.8259 23.3453C5.7149 23.1255 5.64829 22.8859 5.62987 22.6404C5.61145 22.3948 5.64159 22.148 5.71856 21.9141ZM20.7186 8.08599C20.6416 7.85207 20.6115 7.60529 20.6299 7.35973C20.6483 7.11417 20.715 6.87465 20.826 6.65484C20.9369 6.43502 21.0901 6.23922 21.2768 6.07862C21.4635 5.91801 21.6799 5.79575 21.9139 5.7188C22.3863 5.5634 22.9011 5.60203 23.345 5.82619C23.789 6.05036 24.1257 6.44169 24.2811 6.91411L26.1561 12.5391C26.233 12.773 26.2632 13.0198 26.2447 13.2654C26.2263 13.5109 26.1597 13.7505 26.0487 13.9703C25.9377 14.1901 25.7845 14.3859 25.5978 14.5465C25.4112 14.7071 25.1947 14.8294 24.9607 14.9063C24.7724 14.9714 24.5741 15.0032 24.3748 15C23.9791 15.0037 23.5927 14.8805 23.2721 14.6485C22.9516 14.4166 22.7138 14.088 22.5936 13.711L20.7186 8.08599ZM39.2811 51.9141C39.358 52.148 39.3882 52.3948 39.3697 52.6404C39.3513 52.8859 39.2847 53.1255 39.1737 53.3453C39.0627 53.5651 38.9095 53.7609 38.7228 53.9215C38.5362 54.0821 38.3197 54.2044 38.0857 54.2813C37.8974 54.3464 37.6991 54.3782 37.4998 54.375C37.1041 54.3787 36.7177 54.2555 36.3971 54.0235C36.0766 53.7916 35.8387 53.463 35.7186 53.086L33.8436 47.461C33.7666 47.2271 33.7365 46.9803 33.7549 46.7347C33.7733 46.4892 33.84 46.2496 33.9509 46.0298C34.0619 45.81 34.2151 45.6142 34.4018 45.4536C34.5885 45.293 34.8049 45.1707 35.0389 45.0938C35.2728 45.0168 35.5196 44.9867 35.7651 45.0052C36.0107 45.0236 36.2502 45.0902 36.47 45.2012C36.6898 45.3122 36.8856 45.4654 37.0462 45.6521C37.2068 45.8387 37.3291 46.0552 37.4061 46.2891L39.2811 51.9141Z" fill="#00A0E3"/>
</svg>
