<svg width="100" height="100" viewBox="0 0 100 100" fill="none" xmlns="http://www.w3.org/2000/svg">
<path d="M81.25 12.5H18.75C17.0924 12.5 15.5027 13.1585 14.3306 14.3306C13.1585 15.5027 12.5 17.0924 12.5 18.75V81.25C12.5 82.9076 13.1585 84.4973 14.3306 85.6694C15.5027 86.8415 17.0924 87.5 18.75 87.5H81.25C82.9076 87.5 84.4973 86.8415 85.6694 85.6694C86.8415 84.4973 87.5 82.9076 87.5 81.25V18.75C87.5 17.0924 86.8415 15.5027 85.6694 14.3306C84.4973 13.1585 82.9076 12.5 81.25 12.5ZM31.25 81.25H18.75V18.75H31.25V81.25ZM68.75 59.375H43.75C42.9212 59.375 42.1263 59.0458 41.5403 58.4597C40.9542 57.8737 40.625 57.0788 40.625 56.25C40.625 55.4212 40.9542 54.6263 41.5403 54.0403C42.1263 53.4542 42.9212 53.125 43.75 53.125H68.75C69.5788 53.125 70.3737 53.4542 70.9597 54.0403C71.5458 54.6263 71.875 55.4212 71.875 56.25C71.875 57.0788 71.5458 57.8737 70.9597 58.4597C70.3737 59.0458 69.5788 59.375 68.75 59.375ZM68.75 46.875H43.75C42.9212 46.875 42.1263 46.5458 41.5403 45.9597C40.9542 45.3737 40.625 44.5788 40.625 43.75C40.625 42.9212 40.9542 42.1263 41.5403 41.5403C42.1263 40.9542 42.9212 40.625 43.75 40.625H68.75C69.5788 40.625 70.3737 40.9542 70.9597 41.5403C71.5458 42.1263 71.875 42.9212 71.875 43.75C71.875 44.5788 71.5458 45.3737 70.9597 45.9597C70.3737 46.5458 69.5788 46.875 68.75 46.875Z" fill="#00A0E3"/>
</svg>
