<svg width="60" height="60" viewBox="0 0 60 60" fill="none" xmlns="http://www.w3.org/2000/svg">
<path d="M46.875 5.625H13.125C12.1304 5.625 11.1766 6.02009 10.4733 6.72335C9.77009 7.42661 9.375 8.38044 9.375 9.375V50.625C9.375 51.6196 9.77009 52.5734 10.4733 53.2766C11.1766 53.9799 12.1304 54.375 13.125 54.375H46.875C47.8696 54.375 48.8234 53.9799 49.5266 53.2766C50.2299 52.5734 50.625 51.6196 50.625 50.625V9.375C50.625 8.38044 50.2299 7.42661 49.5266 6.72335C48.8234 6.02009 47.8696 5.625 46.875 5.625ZM22.5 11.25H37.5C37.9973 11.25 38.4742 11.4475 38.8258 11.7992C39.1775 12.1508 39.375 12.6277 39.375 13.125C39.375 13.6223 39.1775 14.0992 38.8258 14.4508C38.4742 14.8025 37.9973 15 37.5 15H22.5C22.0027 15 21.5258 14.8025 21.1742 14.4508C20.8225 14.0992 20.625 13.6223 20.625 13.125C20.625 12.6277 20.8225 12.1508 21.1742 11.7992C21.5258 11.4475 22.0027 11.25 22.5 11.25ZM42.375 46.5C41.975 46.7924 41.4766 46.9168 40.9862 46.8467C40.4957 46.7767 40.0521 46.5177 39.75 46.125C38.6148 44.6114 37.1427 43.3828 35.4504 42.5367C33.7581 41.6905 31.892 41.25 30 41.25C28.108 41.25 26.2419 41.6905 24.5496 42.5367C22.8573 43.3828 21.3852 44.6114 20.25 46.125C20.0753 46.3579 19.8489 46.5469 19.5885 46.677C19.3282 46.8072 19.0411 46.875 18.75 46.875C18.3435 46.8803 17.9471 46.7482 17.625 46.5C17.2272 46.2016 16.9642 45.7575 16.8938 45.2652C16.8235 44.7729 16.9516 44.2728 17.25 43.875C18.9093 41.6476 21.1235 39.894 23.6719 38.7891C22.2776 37.5135 21.3014 35.8464 20.8712 34.0063C20.441 32.1663 20.5769 30.2391 21.2611 28.4777C21.9453 26.7162 23.1458 25.2026 24.7053 24.1353C26.2647 23.0681 28.1103 22.497 30 22.497C31.8897 22.497 33.7353 23.0681 35.2947 24.1353C36.8542 25.2026 38.0547 26.7162 38.7389 28.4777C39.4231 30.2391 39.559 32.1663 39.1288 34.0063C38.6986 35.8464 37.7224 37.5135 36.3281 38.7891C38.8765 39.894 41.0907 41.6476 42.75 43.875C42.8977 44.072 43.0052 44.2961 43.0663 44.5347C43.1274 44.7732 43.141 45.0214 43.1062 45.2652C43.0713 45.5089 42.9888 45.7434 42.8634 45.9553C42.7379 46.1672 42.572 46.3523 42.375 46.5ZM35.625 31.875C35.625 32.9875 35.2951 34.0751 34.677 35.0001C34.0589 35.9251 33.1804 36.6461 32.1526 37.0718C31.1248 37.4976 29.9938 37.609 28.9026 37.3919C27.8115 37.1749 26.8092 36.6391 26.0225 35.8525C25.2359 35.0658 24.7001 34.0635 24.4831 32.9724C24.266 31.8812 24.3774 30.7502 24.8032 29.7224C25.2289 28.6946 25.9499 27.8161 26.8749 27.198C27.7999 26.5799 28.8875 26.25 30 26.25C31.4899 26.2562 32.9171 26.8508 33.9707 27.9043C35.0242 28.9579 35.6188 30.3851 35.625 31.875Z" fill="#00A0E3"/>
</svg>
