<svg width="60" height="60" viewBox="0 0 60 60" fill="none" xmlns="http://www.w3.org/2000/svg">
<path d="M54.0467 11.5782C53.352 10.8809 52.5266 10.3276 51.6176 9.95005C50.7086 9.57252 49.7341 9.37817 48.7498 9.37817C47.7655 9.37817 46.791 9.57252 45.882 9.95005C44.973 10.3276 44.1476 10.8809 43.4529 11.5782C42.9748 12.0417 42.5645 12.5703 42.2342 13.1485L35.6248 11.3438C35.641 9.85432 35.2132 8.39376 34.3961 7.14831C33.579 5.90286 32.4095 4.92893 31.0368 4.35067C29.6641 3.7724 28.1502 3.61601 26.6882 3.90141C25.2263 4.18681 23.8824 4.90108 22.8279 5.95318C21.6986 7.07979 20.9579 8.53713 20.7134 10.1135C20.469 11.6898 20.7335 13.3031 21.4686 14.7188L13.5232 21.8672C12.0797 20.9133 10.3506 20.4878 8.62918 20.6629C6.90775 20.8381 5.29982 21.603 4.07793 22.8282C3.38062 23.5228 2.82733 24.3483 2.4498 25.2573C2.07227 26.1662 1.87793 27.1408 1.87793 28.125C1.87793 29.1093 2.07227 30.0839 2.4498 30.9928C2.82733 31.9018 3.38062 32.7273 4.07793 33.4219C4.76996 34.1229 5.59487 34.6789 6.50439 35.0572C7.41391 35.4355 8.38976 35.6285 9.37481 35.6251C11.1078 35.6273 12.7884 35.0312 14.1326 33.9376L30.5389 45.961C29.9948 47.3238 29.8625 48.8162 30.1583 50.2535C30.4541 51.6908 31.165 53.0097 32.2029 54.0469C32.8976 54.7442 33.723 55.2975 34.632 55.6751C35.541 56.0526 36.5155 56.2469 37.4998 56.2469C38.4841 56.2469 39.4586 56.0526 40.3676 55.6751C41.2766 55.2975 42.102 54.7442 42.7967 54.0469C43.494 53.3523 44.0473 52.5268 44.4248 51.6178C44.8023 50.7089 44.9967 49.7343 44.9967 48.7501C44.9967 47.7658 44.8023 46.7912 44.4248 45.8823C44.0473 44.9733 43.494 44.1478 42.7967 43.4532C42.4523 43.1149 42.0841 42.8016 41.6951 42.5157L48.0936 24.3516H48.7498C49.7349 24.3551 50.7107 24.162 51.6202 23.7837C52.5297 23.4054 53.3547 22.8495 54.0467 22.1485C55.4478 20.7465 56.2349 18.8455 56.2349 16.8633C56.2349 14.8812 55.4478 12.9802 54.0467 11.5782ZM38.1561 41.2735C36.2043 41.1092 34.2645 41.7054 32.742 42.9376L16.3357 30.9141C16.7331 29.9094 16.9114 28.8315 16.8589 27.7523C16.8063 26.6732 16.5241 25.6177 16.0311 24.6563L23.9764 17.5079C25.2093 18.3158 26.6507 18.7474 28.1248 18.7501C29.1099 18.7535 30.0857 18.5605 30.9952 18.1822C31.9047 17.8039 32.7297 17.2479 33.4217 16.5469C33.8998 16.0834 34.3101 15.5548 34.6404 14.9766L41.2498 16.7813C41.2337 17.7821 41.4207 18.7757 41.7993 19.7022C42.178 20.6287 42.7405 21.4689 43.4529 22.1719C43.7973 22.5102 44.1655 22.8235 44.5545 23.1094L38.1561 41.2735Z" fill="#00A0E3"/>
</svg>
