<svg width="60" height="60" viewBox="0 0 60 60" fill="none" xmlns="http://www.w3.org/2000/svg">
<path d="M54.2342 28.8516C54.0908 29.1929 53.8495 29.484 53.5409 29.6884C53.2322 29.8928 52.87 30.0012 52.4998 30H43.1248V35.625C43.1248 36.1223 42.9273 36.5992 42.5756 36.9509C42.224 37.3025 41.7471 37.5 41.2498 37.5H18.7498C18.2525 37.5 17.7756 37.3025 17.424 36.9509C17.0724 36.5992 16.8748 36.1223 16.8748 35.625V30H7.49982C7.12965 30.0012 6.76741 29.8928 6.45877 29.6884C6.15013 29.484 5.90888 29.1929 5.76544 28.8516C5.63036 28.5053 5.59609 28.1278 5.6666 27.7628C5.73711 27.3978 5.90952 27.0602 6.16388 26.7891L28.6639 4.28911C29.0194 3.93702 29.4995 3.7395 29.9998 3.7395C30.5002 3.7395 30.9803 3.93702 31.3358 4.28911L53.8358 26.7891C54.0901 27.0602 54.2625 27.3978 54.333 27.7628C54.4035 28.1278 54.3693 28.5053 54.2342 28.8516ZM41.2498 48.75H18.7498C18.2525 48.75 17.7756 48.9476 17.424 49.2992C17.0724 49.6509 16.8748 50.1278 16.8748 50.625C16.8748 51.1223 17.0724 51.5992 17.424 51.9509C17.7756 52.3025 18.2525 52.5 18.7498 52.5H41.2498C41.7471 52.5 42.224 52.3025 42.5756 51.9509C42.9273 51.5992 43.1248 51.1223 43.1248 50.625C43.1248 50.1278 42.9273 49.6509 42.5756 49.2992C42.224 48.9476 41.7471 48.75 41.2498 48.75ZM41.2498 41.25H18.7498C18.2525 41.25 17.7756 41.4476 17.424 41.7992C17.0724 42.1509 16.8748 42.6278 16.8748 43.125C16.8748 43.6223 17.0724 44.0992 17.424 44.4509C17.7756 44.8025 18.2525 45 18.7498 45H41.2498C41.7471 45 42.224 44.8025 42.5756 44.4509C42.9273 44.0992 43.1248 43.6223 43.1248 43.125C43.1248 42.6278 42.9273 42.1509 42.5756 41.7992C42.224 41.4476 41.7471 41.25 41.2498 41.25Z" fill="#00A0E3"/>
</svg>
