<svg width="60" height="60" viewBox="0 0 60 60" fill="none" xmlns="http://www.w3.org/2000/svg">
<path d="M43.125 7.5H16.875C15.8804 7.5 14.9266 7.89509 14.2233 8.59835C13.5201 9.30161 13.125 10.2554 13.125 11.25V52.5C13.1268 52.8338 13.2166 53.1612 13.3853 53.4493C13.554 53.7373 13.7957 53.9758 14.0859 54.1406C14.364 54.2995 14.6798 54.3805 15 54.375C15.348 54.3756 15.6892 54.2782 15.9844 54.0937L30 45.3281L43.9922 54.0937C44.281 54.2674 44.61 54.363 44.9469 54.3712C45.2838 54.3794 45.6171 54.2999 45.9141 54.1406C46.2043 53.9758 46.446 53.7373 46.6147 53.4493C46.7834 53.1612 46.8732 52.8338 46.875 52.5V11.25C46.875 10.2554 46.4799 9.30161 45.7766 8.59835C45.0734 7.89509 44.1196 7.5 43.125 7.5Z" fill="#00A0E3"/>
</svg>
