<svg width="60" height="60" viewBox="0 0 60 60" fill="none" xmlns="http://www.w3.org/2000/svg">
<path d="M56.25 26.25H53.7188L47.2031 11.6016C46.9112 10.9378 46.432 10.3735 45.8242 9.97803C45.2164 9.58253 44.5064 9.37297 43.7812 9.37501H16.2187C15.4936 9.37297 14.7836 9.58253 14.1758 9.97803C13.568 10.3735 13.0888 10.9378 12.7969 11.6016L6.28125 26.25H3.75C3.25272 26.25 2.77581 26.4476 2.42417 26.7992C2.07254 27.1508 1.875 27.6277 1.875 28.125C1.875 28.6223 2.07254 29.0992 2.42417 29.4508C2.77581 29.8025 3.25272 30 3.75 30H5.625V48.75C5.625 49.7446 6.02009 50.6984 6.72335 51.4017C7.42661 52.1049 8.38044 52.5 9.375 52.5H15C15.9946 52.5 16.9484 52.1049 17.6516 51.4017C18.3549 50.6984 18.75 49.7446 18.75 48.75V45H41.25V48.75C41.25 49.7446 41.6451 50.6984 42.3484 51.4017C43.0516 52.1049 44.0054 52.5 45 52.5H50.625C51.6196 52.5 52.5734 52.1049 53.2766 51.4017C53.9799 50.6984 54.375 49.7446 54.375 48.75V30H56.25C56.7473 30 57.2242 29.8025 57.5758 29.4508C57.9275 29.0992 58.125 28.6223 58.125 28.125C58.125 27.6277 57.9275 27.1508 57.5758 26.7992C57.2242 26.4476 56.7473 26.25 56.25 26.25ZM18.75 37.5H15C14.5027 37.5 14.0258 37.3025 13.6742 36.9508C13.3225 36.5992 13.125 36.1223 13.125 35.625C13.125 35.1277 13.3225 34.6508 13.6742 34.2992C14.0258 33.9476 14.5027 33.75 15 33.75H18.75C19.2473 33.75 19.7242 33.9476 20.0758 34.2992C20.4275 34.6508 20.625 35.1277 20.625 35.625C20.625 36.1223 20.4275 36.5992 20.0758 36.9508C19.7242 37.3025 19.2473 37.5 18.75 37.5ZM41.25 37.5C40.7527 37.5 40.2758 37.3025 39.9242 36.9508C39.5725 36.5992 39.375 36.1223 39.375 35.625C39.375 35.1277 39.5725 34.6508 39.9242 34.2992C40.2758 33.9476 40.7527 33.75 41.25 33.75H45C45.4973 33.75 45.9742 33.9476 46.3258 34.2992C46.6775 34.6508 46.875 35.1277 46.875 35.625C46.875 36.1223 46.6775 36.5992 46.3258 36.9508C45.9742 37.3025 45.4973 37.5 45 37.5H41.25Z" fill="#00A0E3"/>
</svg>
