<svg width="60" height="60" viewBox="0 0 60 60" fill="none" xmlns="http://www.w3.org/2000/svg">
<path d="M50.625 42.1874C50.625 44.2619 49.8609 46.2636 48.4785 47.8103C47.0961 49.357 45.1923 50.3402 43.1309 50.5722C41.0695 50.8041 38.9949 50.2685 37.3033 49.0677C35.6118 47.8669 34.4219 46.085 33.9609 44.0624H26.0391C25.5781 46.085 24.3882 47.8668 22.6967 49.0676C21.0051 50.2684 18.9305 50.804 16.8691 50.572C14.8077 50.3401 12.904 49.3569 11.5216 47.8102C10.1392 46.2635 9.37503 44.2618 9.37503 42.1874C9.37503 40.113 10.1392 38.1113 11.5216 36.5646C12.904 35.018 14.8077 34.0348 16.8691 33.8028C18.9305 33.5709 21.0051 34.1065 22.6967 35.3072C24.3882 36.508 25.5781 38.2899 26.0391 40.3124H33.9609C34.4219 38.2898 35.6118 36.508 37.3033 35.3071C38.9949 34.1063 41.0695 33.5707 43.1309 33.8027C45.1923 34.0346 47.0961 35.0179 48.4785 36.5646C49.8609 38.1112 50.625 40.113 50.625 42.1874ZM58.125 26.2499H51.6094L40.6172 10.5468C40.2645 10.0479 39.7959 9.64213 39.2518 9.36432C38.7077 9.08651 38.1042 8.94499 37.4933 8.9519C36.8823 8.95882 36.2822 9.11397 35.7445 9.40403C35.2068 9.69409 34.7476 10.1104 34.4062 10.6171L30 17.2499L25.5938 10.6171C25.2524 10.1104 24.7932 9.69409 24.2555 9.40403C23.7178 9.11397 23.1177 8.95882 22.5067 8.9519C21.8958 8.94499 21.2923 9.08651 20.7482 9.36432C20.2041 9.64213 19.7355 10.0479 19.3828 10.5468L8.39062 26.2499H1.875C1.37772 26.2499 0.900806 26.4475 0.549175 26.7991C0.197544 27.1507 0 27.6276 0 28.1249C0 28.6222 0.197544 29.0991 0.549175 29.4507C0.900806 29.8024 1.37772 29.9999 1.875 29.9999H58.125C58.6223 29.9999 59.0992 29.8024 59.4508 29.4507C59.8025 29.0991 60 28.6222 60 28.1249C60 27.6276 59.8025 27.1507 59.4508 26.7991C59.0992 26.4475 58.6223 26.2499 58.125 26.2499Z" fill="#00A0E3"/>
</svg>
