<svg width="60" height="60" viewBox="0 0 60 60" fill="none" xmlns="http://www.w3.org/2000/svg">
<path d="M41.2504 54.3751C41.2504 54.8724 41.0529 55.3493 40.7012 55.7009C40.3496 56.0526 39.8727 56.2501 39.3754 56.2501H20.6254C20.1281 56.2501 19.6512 56.0526 19.2996 55.7009C18.948 55.3493 18.7504 54.8724 18.7504 54.3751C18.7504 53.8778 18.948 53.4009 19.2996 53.0493C19.6512 52.6977 20.1281 52.5001 20.6254 52.5001H39.3754C39.8727 52.5001 40.3496 52.6977 40.7012 53.0493C41.0529 53.4009 41.2504 53.8778 41.2504 54.3751ZM50.6254 24.3751C50.6316 27.4992 49.9256 30.5836 48.5611 33.394C47.1965 36.2043 45.2093 38.6667 42.7504 40.5939C42.286 40.9444 41.909 41.3976 41.6488 41.918C41.3885 42.4385 41.2522 43.012 41.2504 43.5939V45.0001C41.2504 45.9947 40.8553 46.9485 40.1521 47.6518C39.4488 48.355 38.495 48.7501 37.5004 48.7501H22.5004C21.5058 48.7501 20.552 48.355 19.8488 47.6518C19.1455 46.9485 18.7504 45.9947 18.7504 45.0001V43.5939C18.7488 43.0202 18.6172 42.4543 18.3655 41.9388C18.1139 41.4232 17.7486 40.9714 17.2973 40.6173C14.8435 38.7034 12.8558 36.258 11.4837 33.465C10.1115 30.672 9.39069 27.6041 9.37541 24.4923C9.30509 13.3126 18.352 4.00792 29.5082 3.75011C32.2587 3.68124 34.9951 4.16401 37.556 5.16993C40.1169 6.17585 42.4503 7.68454 44.4186 9.60697C46.3869 11.5294 47.9502 13.8266 49.0162 16.363C50.0822 18.8995 50.6294 21.6238 50.6254 24.3751ZM38.8363 24.9142C38.4809 24.5621 38.0007 24.3646 37.5004 24.3646C37.0001 24.3646 36.52 24.5621 36.1645 24.9142L30.0004 31.1017L23.8363 24.9142C23.472 24.6152 23.0095 24.4624 22.5388 24.4855C22.0681 24.5086 21.6228 24.706 21.2896 25.0393C20.9563 25.3725 20.7589 25.8178 20.7358 26.2885C20.7127 26.7592 20.8655 27.2217 21.1645 27.586L28.1254 34.5235V43.1251C28.1254 43.6224 28.323 44.0993 28.6746 44.4509C29.0262 44.8026 29.5031 45.0001 30.0004 45.0001C30.4977 45.0001 30.9746 44.8026 31.3262 44.4509C31.6779 44.0993 31.8754 43.6224 31.8754 43.1251V34.5235L38.8363 27.586C39.1884 27.2306 39.386 26.7504 39.386 26.2501C39.386 25.7498 39.1884 25.2697 38.8363 24.9142Z" fill="#00A0E3"/>
</svg>
