<svg width="1068" height="793" viewBox="0 0 1068 793" fill="none" xmlns="http://www.w3.org/2000/svg">
<path d="M803.971 401.937L784.777 403.572C782.534 403.766 780.346 404.321 778.269 405.236L759.657 413.385C746.335 419.233 736.974 431.568 734.952 445.981L719.331 557.324C715.814 582.353 735.229 604.694 760.488 604.694H803.971H847.454C872.713 604.694 892.128 582.353 888.611 557.324L872.99 445.981C870.968 431.568 861.607 419.233 848.285 413.385L829.673 405.236C827.596 404.321 825.408 403.766 823.164 403.572L803.971 401.937Z" fill="#42737E"/>
<path opacity="0.5" d="M870.497 587.232C851.055 598.458 826.1 605.248 804.691 595.603C794.61 591.057 786.079 583.462 780.069 574.204C777.272 569.88 775.554 564.17 771.262 561.066C767.356 558.239 762.177 558.017 757.718 556.52C748.384 553.388 743.067 545.71 740.131 536.646C738.358 531.186 737.251 525.504 736.115 519.905C734.675 512.726 733.456 505.491 732.487 498.229C731.573 491.355 730.936 484.453 730.493 477.552L719.303 557.352C715.786 582.381 735.201 604.722 760.46 604.722H847.426C866.675 604.722 882.518 591.694 887.392 574.426C882.462 579.526 876.507 583.767 870.497 587.232Z" fill="#42737E"/>
<path d="M828.732 465.91C827.734 463.637 822.583 452.217 818.096 452.217C809.898 452.217 807.71 452.217 802.365 452.217C801.949 452.217 801.506 452.273 801.063 452.356C803.223 452.716 805.55 454.13 808.679 459.535L816.351 472.978L812.086 475.417L826.1 477.219L832.027 464.025L828.732 465.91Z" fill="white"/>
<path d="M798.903 453.104C792.782 456.015 787.159 465.217 787.159 465.217L799.512 473.643L807.295 461.669C804.553 456.708 801.478 454.241 798.903 453.104Z" fill="white"/>
<path d="M781.925 478.051C780.457 480.046 773.173 490.219 775.388 494.099C779.487 501.195 780.595 503.108 783.254 507.737C783.476 508.097 783.725 508.457 784.002 508.79C783.254 506.739 783.309 503.995 786.411 498.617L794.194 485.257L798.432 487.752L792.975 474.697L778.601 476.166L781.925 478.051Z" fill="white"/>
<path d="M785.774 510.287C791.369 514.112 802.143 514.417 802.143 514.417L802.198 499.477L788.987 498.728C786.051 503.607 785.442 507.487 785.774 510.287Z" fill="white"/>
<path d="M816.074 514.195C818.539 514.472 830.255 515.692 832.498 511.811C836.597 504.715 837.705 502.803 840.364 498.174C840.586 497.814 840.752 497.398 840.89 496.982C839.505 498.673 837.096 499.976 830.892 499.976L816.157 499.92L816.185 494.986L807.627 506.24L816.074 517.965V514.195Z" fill="white"/>
<path d="M841.333 494.737C841.86 487.974 836.293 478.106 836.293 478.106L823.248 484.98L829.729 497.73C835.406 497.841 839.062 496.4 841.333 494.737Z" fill="white"/>
<path d="M803.971 395.285L787.99 390.822C783.891 389.686 780.65 386.498 779.459 382.396L777.272 374.967C776.524 372.417 778.435 369.867 781.066 369.867H826.903C829.562 369.867 831.445 372.417 830.698 374.967L828.51 382.396C827.291 386.498 824.078 389.686 819.979 390.822L803.971 395.285Z" fill="#42737E"/>
<path opacity="0.5" d="M877.228 476.055C872.907 476.332 868.531 476.388 864.238 475.861C859.308 475.251 854.461 473.727 850.473 470.678C845.903 467.185 842.967 462.085 841.029 456.763C839.948 453.77 839.339 450.638 838.453 447.589C837.816 445.482 837.123 443.375 836.403 441.269C834.548 435.892 832.609 430.542 830.809 425.137C828.51 418.235 826.239 411.084 824.826 403.794C824.272 403.711 823.718 403.628 823.164 403.572L803.971 401.937L784.777 403.572C782.534 403.766 780.346 404.321 778.269 405.236L759.657 413.385C746.335 419.233 736.974 431.568 734.952 445.981L719.331 557.324C715.814 582.353 735.229 604.694 760.488 604.694H847.454C872.713 604.694 892.128 582.353 888.611 557.324L877.228 476.055Z" fill="#42737E"/>
<path opacity="0.5" d="M888.611 557.352L877.2 476.055C872.879 476.332 868.503 476.388 864.21 475.861C859.28 475.251 854.434 473.727 850.445 470.678C845.875 467.185 842.94 462.085 841.001 456.763C839.921 453.77 839.311 450.638 838.425 447.589C837.788 445.482 837.096 443.375 836.376 441.269C834.52 435.892 832.581 430.542 830.781 425.137C828.482 418.235 826.211 411.084 824.799 403.794C824.245 403.711 823.691 403.628 823.137 403.572L803.943 401.937L784.75 403.572C782.506 403.766 780.318 404.321 778.241 405.236L769.24 409.171C771.345 419.815 773.339 430.487 774.557 441.297C775.361 448.448 775.97 455.71 775.471 462.889C775.167 467.268 774.613 472.923 771.289 476.221C768.797 478.688 764.144 479.243 761.069 477.635C757.58 475.833 755.918 471.703 754.949 468.128C753.453 462.667 753.121 456.93 753.01 451.303C752.899 444.9 753.231 438.497 753.73 432.15C754.145 426.689 754.727 421.229 755.281 415.768C755.281 415.713 755.281 415.685 755.281 415.63C744.285 422.06 736.697 433.203 734.896 446.009L719.276 557.352C715.758 582.381 735.173 604.722 760.432 604.722H847.399C872.713 604.722 892.128 582.353 888.611 557.352Z" fill="#42737E"/>
<path opacity="0.5" d="M826.571 376.076C827.54 374.385 828.787 372.944 830.199 371.724C829.507 370.643 828.316 369.895 826.876 369.895H781.038C778.38 369.895 776.496 372.445 777.244 374.995L779.432 382.424C780.651 386.526 783.863 389.713 787.962 390.85L803.943 395.312L819.924 390.85C821.17 390.49 822.361 389.935 823.414 389.242C823.525 384.696 824.3 380.04 826.571 376.076Z" fill="#42737E"/>
<path opacity="0.5" d="M794.665 386.387C789.901 381.925 787.159 375.91 784.75 369.895H781.094C778.435 369.895 776.552 372.445 777.299 374.995L779.487 382.424C780.706 386.526 783.919 389.713 788.018 390.85L803.999 395.312L816.213 391.903C808.513 392.596 800.537 391.875 794.665 386.387Z" fill="#42737E"/>
<path d="M815.603 403.6H792.366C789.624 403.6 787.381 401.383 787.381 398.611C787.381 395.867 789.597 393.622 792.366 393.622H815.603C818.345 393.622 820.589 395.839 820.589 398.611C820.589 401.355 818.345 403.6 815.603 403.6Z" fill="#33362E"/>
<path opacity="0.5" d="M810.092 402.27C804.248 401.355 798.847 398.722 796.687 393.622H792.338C789.596 393.622 787.353 395.839 787.353 398.611C787.353 401.355 789.569 403.6 792.338 403.6H815.576C816.517 403.6 817.404 403.323 818.179 402.852C815.465 402.852 812.778 402.686 810.092 402.27Z" fill="#33362E"/>
<g opacity="0.25">
<path d="M862.77 447.201C863.933 440.243 857.951 432.898 853.464 428.131C848.589 422.975 841.056 416.378 833.495 416.822C829.59 417.071 827.125 421.866 830.171 424.832C834.741 429.295 841.388 430.986 846.235 435.337C850.639 439.301 853.492 445.815 858.394 448.947C859.917 449.945 862.465 449.058 862.77 447.201Z" fill="white"/>
</g>
<g opacity="0.25">
<path d="M861.801 456.431C861.468 457.179 861.053 457.983 860.831 458.759C860.554 459.784 860.72 460.81 860.831 461.863C860.97 463.388 861.551 464.857 862.992 465.605C864.016 466.16 865.18 466.354 866.343 466.049C867.395 465.772 868.392 464.995 868.946 464.053C869.777 462.612 869.611 461.115 868.946 459.674C868.503 458.731 868.171 457.789 867.423 457.04C866.841 456.458 866.066 455.987 865.429 455.488C864.376 454.712 862.327 455.239 861.801 456.431Z" fill="white"/>
</g>
<path d="M648.041 401.937L667.234 403.572C669.478 403.766 671.666 404.321 673.743 405.236L692.355 413.385C705.677 419.233 715.038 431.568 717.06 445.981L732.681 557.324C736.198 582.353 716.783 604.694 691.524 604.694H648.041H604.558C579.299 604.694 559.884 582.353 563.401 557.324L579.022 445.981C581.044 431.568 590.405 419.233 603.727 413.385L622.339 405.236C624.416 404.321 626.604 403.766 628.847 403.572L648.041 401.937Z" fill="#42737E"/>
<path d="M672.801 465.91C671.804 463.637 666.653 452.217 662.166 452.217C653.968 452.217 651.78 452.217 646.435 452.217C646.019 452.217 645.576 452.273 645.133 452.356C647.293 452.716 649.62 454.13 652.749 459.535L660.421 472.978L656.156 475.417L670.17 477.219L676.097 464.025L672.801 465.91Z" fill="white"/>
<path d="M642.972 453.104C636.852 456.015 631.229 465.217 631.229 465.217L643.582 473.643L651.364 461.669C648.623 456.708 645.548 454.241 642.972 453.104Z" fill="white"/>
<path d="M625.995 478.051C624.527 480.046 617.243 490.219 619.458 494.099C623.557 501.195 624.665 503.108 627.324 507.737C627.546 508.097 627.795 508.457 628.072 508.79C627.324 506.739 627.379 503.995 630.481 498.617L638.264 485.257L642.502 487.752L637.046 474.697L622.671 476.166L625.995 478.051Z" fill="white"/>
<path d="M629.845 510.287C635.439 514.112 646.213 514.417 646.213 514.417L646.268 499.477L633.057 498.728C630.122 503.607 629.54 507.487 629.845 510.287Z" fill="white"/>
<path d="M660.144 514.195C662.609 514.472 674.325 515.692 676.568 511.811C680.667 504.715 681.775 502.803 684.434 498.174C684.655 497.814 684.822 497.398 684.96 496.982C683.575 498.673 681.166 499.976 674.962 499.976L660.227 499.92L660.255 494.986L651.697 506.24L660.144 517.965V514.195Z" fill="white"/>
<path d="M685.403 494.737C685.93 487.974 680.363 478.106 680.363 478.106L667.318 484.98L673.799 497.73C679.476 497.841 683.132 496.4 685.403 494.737Z" fill="white"/>
<path opacity="0.5" d="M732.681 557.352L717.06 446.009C715.038 431.595 705.677 419.261 692.355 413.412L673.743 405.263C671.666 404.349 669.478 403.794 667.234 403.6L648.041 401.965L628.847 403.6C626.604 403.794 624.416 404.349 622.339 405.263L620.788 405.928C614.224 410.613 606.746 413.994 598.908 415.879C588.161 422.337 580.766 433.369 578.994 446.009L577.609 455.904C582.622 454.629 587.497 452.827 592.344 451.136C600.403 448.309 608.435 445.371 616.522 442.599C624.97 439.717 633.473 437 642.141 434.894C648.899 433.258 656.073 431.706 663.08 432.15C667.29 432.399 672.247 433.646 673.992 437.97C674.906 440.216 674.768 442.738 674.325 445.066C673.577 449.03 671.915 452.938 669.727 456.32C659.341 472.59 637.488 475.889 619.874 477.663C609.543 478.716 599.129 479.132 588.798 480.129C583.896 480.601 578.828 481.155 573.898 482.208L563.346 557.38C559.828 582.409 579.243 604.75 604.502 604.75H691.469C716.783 604.722 736.198 582.353 732.681 557.352Z" fill="#42737E"/>
<path opacity="0.5" d="M605.666 413.218C609.765 411.722 613.614 409.754 617.243 407.481L603.727 413.412C602.813 413.828 601.899 414.244 601.04 414.715C602.591 414.272 604.142 413.773 605.666 413.218Z" fill="#42737E"/>
<path opacity="0.5" d="M714.567 587.232C695.125 598.458 670.17 605.248 648.761 595.603C638.68 591.057 630.149 583.462 624.139 574.204C621.342 569.88 619.625 564.17 615.304 561.066C611.399 558.239 606.22 558.017 601.76 556.52C592.427 553.388 587.109 545.71 584.201 536.646C582.428 531.186 581.321 525.504 580.185 519.905C578.745 512.726 577.526 505.491 576.557 498.229C575.643 491.355 575.006 484.453 574.563 477.552L563.373 557.352C559.856 582.381 579.271 604.722 604.53 604.722H691.496C710.745 604.722 726.588 591.694 731.462 574.426C726.532 579.526 720.577 583.767 714.567 587.232Z" fill="#42737E"/>
<path d="M648.041 395.285L664.022 390.822C668.121 389.686 671.361 386.498 672.58 382.396L674.768 374.967C675.516 372.417 673.605 369.867 670.973 369.867H625.136C622.477 369.867 620.594 372.417 621.342 374.967L623.53 382.396C624.748 386.498 627.961 389.686 632.088 390.822L648.041 395.285Z" fill="#42737E"/>
<path opacity="0.5" d="M670.974 369.895H648.124C646.684 371.697 645.41 373.609 644.274 375.55C641.255 380.622 638.763 385.944 635.495 390.878C635.328 391.127 635.107 391.377 634.941 391.626L648.041 395.285L664.022 390.822C668.121 389.686 671.361 386.498 672.58 382.396L674.768 374.967C675.516 372.445 673.605 369.895 670.974 369.895Z" fill="#42737E"/>
<path opacity="0.5" d="M657.375 386.387C662.138 381.925 664.88 375.91 667.29 369.895H670.946C673.605 369.895 675.488 372.445 674.74 374.995L672.552 382.424C671.333 386.526 668.121 389.713 663.994 390.85L648.013 395.312L635.799 391.903C643.526 392.596 651.503 391.875 657.375 386.387Z" fill="#42737E"/>
<path d="M659.673 403.6H636.436C633.694 403.6 631.451 401.383 631.451 398.611C631.451 395.867 633.667 393.622 636.436 393.622H659.673C662.415 393.622 664.659 395.839 664.659 398.611C664.659 401.355 662.415 403.6 659.673 403.6Z" fill="#33362E"/>
<path opacity="0.5" d="M654.162 402.27C648.318 401.355 642.917 398.722 640.757 393.622H636.408C633.666 393.622 631.423 395.839 631.423 398.611C631.423 401.355 633.639 403.6 636.408 403.6H659.646C660.587 403.6 661.474 403.323 662.249 402.852C659.535 402.852 656.848 402.686 654.162 402.27Z" fill="#33362E"/>
<g opacity="0.25">
<path d="M593.618 448.974C598.52 445.842 601.345 439.329 605.776 435.365C610.623 431.013 617.27 429.322 621.84 424.86C624.887 421.866 622.45 417.099 618.517 416.849C610.956 416.378 603.422 422.975 598.548 428.158C594.061 432.926 588.079 440.271 589.242 447.228C589.574 449.058 592.122 449.945 593.618 448.974Z" fill="white"/>
</g>
<g opacity="0.25">
<path d="M586.611 455.488C585.946 455.987 585.198 456.458 584.617 457.04C583.869 457.789 583.536 458.731 583.093 459.674C582.456 461.087 582.207 462.667 583.093 464.053C583.703 464.996 584.589 465.744 585.697 466.049C586.777 466.354 588.079 466.187 589.048 465.605C590.461 464.774 591.042 463.416 591.208 461.863C591.319 460.81 591.485 459.812 591.208 458.759C590.987 457.983 590.571 457.179 590.239 456.431C589.713 455.211 587.663 454.712 586.611 455.488Z" fill="white"/>
</g>
<path d="M492.111 401.937L472.917 403.572C470.674 403.766 468.486 404.321 466.408 405.236L447.797 413.385C434.475 419.233 425.113 431.568 423.091 445.981L407.471 557.324C403.953 582.353 423.368 604.694 448.627 604.694H492.111H535.594C560.853 604.694 580.268 582.353 576.75 557.324L561.13 445.981C559.108 431.568 549.747 419.233 536.425 413.385L517.813 405.236C515.736 404.321 513.548 403.766 511.304 403.572L492.111 401.937Z" fill="#42737E"/>
<path opacity="0.5" d="M558.637 587.232C539.194 598.458 514.24 605.248 492.831 595.603C482.749 591.057 474.219 583.462 468.209 574.204C465.411 569.88 463.694 564.17 459.401 561.066C455.496 558.239 450.317 558.017 445.858 556.52C436.524 553.388 431.206 545.71 428.271 536.646C426.498 531.186 425.39 525.504 424.255 519.905C422.814 512.726 421.596 505.491 420.626 498.229C419.712 491.355 419.075 484.453 418.632 477.552L407.443 557.352C403.926 582.381 423.341 604.722 448.6 604.722H535.566C554.815 604.722 570.657 591.694 575.532 574.426C570.602 579.526 564.647 583.767 558.637 587.232Z" fill="#42737E"/>
<path d="M516.871 465.91C515.874 463.637 510.723 452.217 506.236 452.217C498.038 452.217 495.85 452.217 490.504 452.217C490.089 452.217 489.646 452.273 489.203 452.356C491.363 452.716 493.689 454.13 496.819 459.535L504.491 472.978L500.226 475.417L514.24 477.219L520.167 464.025L516.871 465.91Z" fill="white"/>
<path d="M487.042 453.104C480.921 456.015 475.299 465.217 475.299 465.217L487.652 473.643L495.434 461.669C492.692 456.708 489.618 454.241 487.042 453.104Z" fill="white"/>
<path d="M470.064 478.051C468.596 480.046 461.312 490.219 463.528 494.099C467.627 501.195 468.735 503.108 471.394 507.737C471.615 508.097 471.865 508.457 472.141 508.79C471.394 506.739 471.449 503.995 474.551 498.617L482.334 485.257L486.571 487.752L481.115 474.697L466.741 476.166L470.064 478.051Z" fill="white"/>
<path d="M473.914 510.287C479.509 514.112 490.283 514.417 490.283 514.417L490.338 499.477L477.127 498.728C474.191 503.607 473.609 507.487 473.914 510.287Z" fill="white"/>
<path d="M504.214 514.195C506.679 514.472 518.394 515.692 520.638 511.811C524.737 504.715 525.845 502.803 528.504 498.174C528.725 497.814 528.891 497.398 529.03 496.982C527.645 498.673 525.235 499.976 519.032 499.976L504.297 499.92L504.325 494.986L495.767 506.24L504.214 517.965V514.195Z" fill="white"/>
<path d="M529.473 494.737C529.999 487.974 524.432 478.106 524.432 478.106L511.387 484.98L517.868 497.73C523.546 497.841 527.202 496.4 529.473 494.737Z" fill="white"/>
<path d="M492.111 395.285L476.13 390.822C472.031 389.686 468.79 386.498 467.599 382.396L465.411 374.967C464.664 372.417 466.575 369.867 469.206 369.867H515.043C517.702 369.867 519.585 372.417 518.838 374.967L516.65 382.396C515.431 386.498 512.218 389.686 508.119 390.822L492.111 395.285Z" fill="#42737E"/>
<path opacity="0.5" d="M482.805 386.387C478.041 381.925 475.299 375.91 472.889 369.895H469.233C466.575 369.895 464.691 372.445 465.439 374.995L467.627 382.424C468.846 386.526 472.058 389.713 476.158 390.85L492.138 395.312L504.352 391.903C496.653 392.596 488.676 391.875 482.805 386.387Z" fill="#42737E"/>
<path d="M503.743 403.6H480.506C477.764 403.6 475.521 401.383 475.521 398.611C475.521 395.867 477.736 393.622 480.506 393.622H503.743C506.485 393.622 508.728 395.839 508.728 398.611C508.728 401.355 506.485 403.6 503.743 403.6Z" fill="#33362E"/>
<path opacity="0.5" d="M498.259 402.27C492.415 401.355 487.014 398.722 484.854 393.622H480.506C477.764 393.622 475.521 395.839 475.521 398.611C475.521 401.355 477.736 403.6 480.506 403.6H503.743C504.685 403.6 505.571 403.323 506.346 402.852C503.605 402.852 500.918 402.686 498.259 402.27Z" fill="#33362E"/>
<g opacity="0.25">
<path d="M550.938 447.201C552.101 440.243 546.118 432.898 541.632 428.131C536.757 422.975 529.224 416.378 521.663 416.822C517.757 417.071 515.293 421.866 518.339 424.832C522.909 429.295 529.556 430.986 534.403 435.337C538.807 439.301 541.659 445.815 546.562 448.947C548.057 449.945 550.605 449.058 550.938 447.201Z" fill="white"/>
</g>
<g opacity="0.25">
<path d="M549.968 456.431C549.636 457.179 549.22 457.983 548.999 458.759C548.722 459.784 548.888 460.81 548.999 461.863C549.137 463.388 549.719 464.857 551.159 465.605C552.184 466.16 553.347 466.354 554.51 466.049C555.563 465.772 556.56 464.995 557.114 464.053C557.945 462.612 557.778 461.115 557.114 459.674C556.671 458.731 556.338 457.789 555.59 457.04C555.009 456.458 554.233 455.987 553.596 455.488C552.516 454.712 550.467 455.239 549.968 456.431Z" fill="white"/>
</g>
<path d="M301.588 437.638L285.607 439.024C283.724 439.19 281.896 439.661 280.179 440.41L264.669 447.201C253.563 452.079 245.78 462.335 244.091 474.364L231.073 567.164C228.137 588.008 244.34 606.634 265.361 606.634H301.616H337.87C358.919 606.634 375.094 588.008 372.158 567.164L359.141 474.364C357.451 462.335 349.669 452.079 338.563 447.201L323.053 440.41C321.335 439.661 319.508 439.19 317.624 439.024L301.588 437.638Z" fill="#42737E"/>
<path opacity="0.5" d="M357.008 592.055C340.806 601.423 320.006 607.05 302.17 599.04C293.778 595.27 286.66 588.923 281.647 581.217C279.32 577.614 277.88 572.846 274.307 570.268C271.039 567.912 266.746 567.718 263.035 566.471C255.252 563.866 250.821 557.463 248.383 549.923C246.916 545.378 245.974 540.638 245.032 535.954C243.841 529.967 242.816 523.952 242.013 517.881C241.238 512.172 240.712 506.406 240.352 500.641L231.018 567.136C228.082 587.98 244.284 606.607 265.306 606.607H337.787C353.851 606.607 367.034 595.769 371.106 581.356C366.979 585.624 362.021 589.172 357.008 592.055Z" fill="#42737E"/>
<path d="M322.194 490.94C321.363 489.055 317.07 479.547 313.331 479.547C306.49 479.547 304.662 479.547 300.231 479.547C299.871 479.547 299.511 479.575 299.151 479.658C300.951 479.963 302.89 481.155 305.493 485.645L311.891 496.843L308.318 498.867L320.006 500.364L324.936 489.387L322.194 490.94Z" fill="white"/>
<path d="M297.323 480.296C292.227 482.735 287.518 490.385 287.518 490.385L297.821 497.398L304.302 487.419C302.031 483.262 299.483 481.211 297.323 480.296Z" fill="white"/>
<path d="M283.198 501.057C281.979 502.72 275.886 511.201 277.769 514.444C281.176 520.376 282.09 521.956 284.333 525.809C284.499 526.114 284.721 526.419 284.97 526.696C284.333 524.977 284.389 522.704 286.964 518.214L293.445 507.071L296.991 509.15L292.448 498.285L280.484 499.504L283.198 501.057Z" fill="white"/>
<path d="M286.411 527.943C291.064 531.131 300.037 531.38 300.037 531.38L300.093 518.935L289.097 518.297C286.632 522.372 286.134 525.587 286.411 527.943Z" fill="white"/>
<path d="M311.642 531.186C313.691 531.436 323.468 532.433 325.324 529.218C328.73 523.286 329.644 521.706 331.888 517.854C332.054 517.549 332.22 517.216 332.331 516.856C331.168 518.242 329.174 519.35 323.994 519.35L311.725 519.295L311.753 515.193L304.607 524.561L311.642 534.318V531.186Z" fill="white"/>
<path d="M332.719 514.971C333.162 509.344 328.509 501.112 328.509 501.112L317.652 506.85L323.053 517.466C327.761 517.549 330.808 516.357 332.719 514.971Z" fill="white"/>
<path d="M301.588 432.094L288.266 428.38C284.832 427.41 282.145 424.777 281.148 421.367L279.32 415.186C278.683 413.08 280.29 410.945 282.478 410.945H320.671C322.887 410.945 324.465 413.08 323.828 415.186L322 421.367C321.003 424.777 318.317 427.438 314.882 428.38L301.588 432.094Z" fill="#42737E"/>
<path opacity="0.5" d="M293.806 424.666C289.845 420.952 287.574 415.935 285.524 410.918H282.478C280.262 410.918 278.683 413.052 279.32 415.159L281.148 421.34C282.145 424.749 284.832 427.41 288.266 428.352L301.588 432.067L311.753 429.212C305.355 429.849 298.708 429.267 293.806 424.666Z" fill="#42737E"/>
<path d="M311.254 439.024H291.894C289.596 439.024 287.74 437.167 287.74 434.866C287.74 432.565 289.596 430.708 291.894 430.708H311.254C313.553 430.708 315.409 432.565 315.409 434.866C315.409 437.167 313.553 439.024 311.254 439.024Z" fill="#33362E"/>
<path opacity="0.5" d="M306.684 437.915C301.81 437.167 297.295 434.977 295.523 430.708H291.894C289.596 430.708 287.74 432.565 287.74 434.866C287.74 437.167 289.596 439.024 291.894 439.024H311.254C312.057 439.024 312.777 438.802 313.414 438.414C311.143 438.386 308.9 438.275 306.684 437.915Z" fill="#33362E"/>
<g opacity="0.25">
<path d="M350.583 475.362C351.552 469.569 346.567 463.443 342.828 459.48C338.757 455.183 332.497 449.667 326.182 450.056C322.914 450.25 320.865 454.241 323.413 456.736C327.235 460.45 332.774 461.863 336.79 465.494C340.474 468.793 342.828 474.226 346.927 476.831C348.173 477.635 350.306 476.914 350.583 475.362Z" fill="white"/>
</g>
<g opacity="0.25">
<path d="M349.78 483.04C349.503 483.677 349.143 484.343 348.976 484.98C348.727 485.839 348.893 486.699 348.976 487.558C349.087 488.833 349.586 490.053 350.777 490.69C351.635 491.134 352.605 491.328 353.574 491.05C354.46 490.801 355.291 490.163 355.734 489.387C356.427 488.195 356.288 486.948 355.734 485.729C355.374 484.952 355.097 484.149 354.46 483.539C353.989 483.068 353.352 482.652 352.798 482.264C351.912 481.626 350.195 482.042 349.78 483.04Z" fill="white"/>
</g>
<path d="M197.644 543.659H180.001C163.162 543.659 150.034 529.08 151.807 512.31L160.226 432.233C161.196 423.114 164.353 414.327 169.449 406.705L174.878 398.556H201.244L210.717 411.195C217.447 420.148 221.352 430.903 221.961 442.101L225.95 513.724C226.836 529.994 213.902 543.659 197.644 543.659Z" fill="#FFB99E"/>
<path d="M150.81 512.227C149.951 520.487 152.638 528.775 158.177 534.956C163.744 541.137 171.693 544.685 180.001 544.685H197.644C205.787 544.685 213.375 541.414 218.97 535.51C224.565 529.579 227.417 521.845 226.947 513.696L225.95 495.569H152.554L150.81 512.227Z" fill="#525B5B"/>
<path opacity="0.5" d="M150.81 512.227C149.951 520.487 152.638 528.775 158.177 534.956C163.744 541.137 171.693 544.685 180.001 544.685H197.644C205.787 544.685 213.375 541.414 218.97 535.51C224.565 529.579 227.417 521.845 226.947 513.696L225.95 495.569H152.554L150.81 512.227Z" fill="#525B5B"/>
<path d="M224.952 441.907C224.288 430.099 220.189 418.845 213.098 409.366L210.55 405.956C210.329 405.679 210.024 405.485 209.692 405.457C205.897 405.097 200.109 404.46 193.573 403.517C184.35 402.187 176.899 397.89 174.296 396.2C173.714 395.839 172.967 395.978 172.579 396.56L166.956 405.014C161.611 413.024 158.26 422.338 157.263 431.9L144.938 517.272C144.882 517.715 145.104 518.159 145.492 518.353C148.428 519.739 161.251 525.033 187.867 525.033C214.456 525.033 228.83 520.931 232.181 519.85C232.652 519.711 232.929 519.24 232.874 518.769L224.952 441.907Z" fill="#6BB6B9"/>
<path opacity="0.5" d="M224.952 441.907C224.842 439.994 224.62 438.137 224.343 436.252C215.093 433.369 207.725 421.09 207.725 421.09L172.662 434.229C172.662 434.229 174.434 446.924 170.418 458.011C167.87 465.051 158.232 469.07 151.557 471.066L144.882 517.244C144.827 517.688 145.049 518.131 145.436 518.325C148.372 519.711 161.196 525.005 187.812 525.005C214.4 525.005 228.775 520.903 232.126 519.822C232.597 519.683 232.874 519.212 232.818 518.741L224.952 441.907Z" fill="#6BB6B9"/>
<path d="M149.951 511.312C149.951 511.312 160.863 517.494 187.978 517.494C215.093 517.494 227.805 512.671 227.805 512.671" stroke="#528787" stroke-width="0.5417" stroke-miterlimit="10" stroke-linecap="round" stroke-linejoin="round"/>
<path d="M207.753 411.943C204.402 411.611 199.084 411.057 193.046 410.197C182.826 408.728 175.099 403.129 175.099 403.129" stroke="#528787" stroke-width="0.5417" stroke-miterlimit="10" stroke-linecap="round" stroke-linejoin="round"/>
<path d="M217.724 493.573C210.218 496.622 201.688 493.129 198.475 485.673L176.816 435.421C173.244 427.133 177.176 417.515 185.541 414.105C193.933 410.696 203.46 414.854 206.673 423.335L226.033 474.531C228.885 482.07 225.202 490.524 217.724 493.573Z" fill="#D0B196"/>
<path d="M217.724 493.573C210.218 496.622 201.688 493.129 198.475 485.673L176.816 435.421C173.244 427.133 177.176 417.515 185.541 414.105C193.933 410.696 203.46 414.854 206.673 423.335L226.033 474.531C228.885 482.07 225.202 490.524 217.724 493.573Z" fill="#FFB99E"/>
<path d="M183.99 412.581C174.795 416.323 170.058 426.579 173.16 436.03L184.987 471.925C185.208 472.563 185.928 472.923 186.565 472.646L220.909 458.704C221.49 458.454 221.795 457.789 221.574 457.179L208.833 423.391C205.067 413.468 193.85 408.562 183.99 412.581Z" fill="#6BB6B9"/>
<path d="M272.562 439.911L282.949 464.497L218.61 493.379C211.021 496.788 202.075 493.296 198.835 485.618L198.78 485.479C195.511 477.774 199.25 468.904 207.005 465.855L272.562 439.911Z" fill="#FFB99E"/>
<path opacity="0.5" d="M269.931 461.531C260.376 466.104 250.876 470.622 240.767 473.921C236.834 475.224 232.818 476.36 228.691 476.887C225.7 477.275 221.878 477.552 219.275 475.639C216.422 473.56 216.837 469.375 217.973 466.465C218.915 464.081 220.327 461.974 221.85 459.923L207.033 465.772C199.278 468.848 195.539 477.718 198.807 485.396L198.862 485.535C202.103 493.213 211.021 496.733 218.638 493.296L282.976 464.414L279.874 457.096C276.523 458.51 273.199 459.979 269.931 461.531Z" fill="#FFB99E"/>
<path d="M282.976 464.497L272.562 439.911L302.585 424.999L315.63 455.849L300.231 462.362L282.976 464.497Z" fill="#FFB99E"/>
<path d="M305.853 432.732L302.585 425.026L310.34 421.783C312.473 420.896 314.91 421.894 315.796 424.001C316.71 426.135 315.686 428.602 313.553 429.489L305.853 432.732Z" fill="#FFB99E"/>
<path d="M312.39 448.143L309.122 440.437L316.877 437.194C319.009 436.307 321.446 437.305 322.333 439.44C323.247 441.574 322.222 444.041 320.089 444.928L312.39 448.143Z" fill="#FFB99E"/>
<path d="M315.63 455.849L312.362 448.143L317.569 445.981C319.702 445.094 322.139 446.092 323.025 448.226C323.939 450.36 322.914 452.827 320.782 453.714L315.63 455.849Z" fill="#D0B196"/>
<path d="M309.122 440.437L305.854 432.732L316.184 428.408C318.317 427.521 320.754 428.519 321.64 430.625C322.554 432.76 321.53 435.227 319.397 436.113L309.122 440.437Z" fill="#FFB99E"/>
<path d="M272.562 439.911L279.376 423.585L293.279 413.828L302.004 411.361C304.192 410.752 306.518 411.86 307.404 413.967C308.485 416.517 307.072 419.399 304.413 420.12L298.265 421.783L291.257 427.077L302.585 425.026L272.562 439.911Z" fill="#FFB99E"/>
<path opacity="0.5" d="M304.469 447.312C300.757 450.665 296.132 452.328 291.341 453.493C287.408 454.463 283.613 455.738 279.874 457.179L282.976 464.497L300.259 462.39L315.658 455.849L309.592 441.518C308.014 443.597 306.38 445.565 304.469 447.312Z" fill="#FFB99E"/>
<path d="M322.333 439.412C321.446 437.305 319.009 436.307 316.877 437.167L310.95 439.634C310.506 440.271 310.036 440.881 309.565 441.491L312.362 448.088L320.089 444.872C322.25 444.013 323.247 441.546 322.333 439.412Z" fill="#FFB99E"/>
<path d="M315.63 455.849L312.362 448.143L317.569 445.981C319.702 445.094 322.139 446.092 323.025 448.226C323.939 450.361 322.914 452.827 320.782 453.714L315.63 455.849Z" fill="#FFB99E"/>
<path d="M185.873 465.883L217.835 452.911" stroke="#528787" stroke-width="0.5417" stroke-miterlimit="10" stroke-linecap="round" stroke-linejoin="round"/>
<path d="M302.502 491.882C298.265 482.874 287.629 478.882 278.517 482.901L183.38 524.866C173.964 529.024 169.809 540.111 174.185 549.452L175.238 551.67C179.531 560.844 190.443 564.78 199.61 560.484L293.695 516.302C302.862 511.978 306.795 501.057 302.502 491.882Z" fill="#D0B196"/>
<path d="M357.257 579.914L378.611 553.111L298.237 485.784C290.343 479.16 278.545 480.351 272.119 488.417C265.804 496.345 267.106 507.903 275.027 514.223L357.257 579.914Z" fill="#D0B196"/>
<path d="M299.539 484.26C297.268 482.347 294.637 480.989 291.812 480.24C287.159 478.827 282.146 479.132 277.714 481.072L182.577 523.037C177.537 525.254 173.687 529.329 171.748 534.512C169.809 539.696 170.031 545.295 172.385 550.284L173.438 552.501C176.401 558.821 182.217 562.896 188.615 563.949C192.52 564.586 196.647 564.087 200.497 562.286L283.309 523.397L357.618 582.742L381.437 552.862L299.539 484.26Z" fill="#525B5B"/>
<path opacity="0.5" d="M300.342 484.953C290.094 485.396 279.736 484.925 269.461 484.703L182.577 523.037C177.537 525.255 173.687 529.329 171.748 534.512C169.809 539.696 170.031 545.295 172.385 550.284L173.438 552.501C176.401 558.821 182.217 562.896 188.615 563.949C192.52 564.586 196.647 564.087 200.497 562.286L283.309 523.397L357.618 582.742L381.437 552.862L300.342 484.953Z" fill="#525B5B"/>
<path d="M422.067 530.382L372.74 592.249L357.285 579.914L378.639 553.111L406.363 527.195C409.465 524.312 414.201 524.118 417.525 526.751L422.067 530.382Z" fill="#D0B196"/>
<path d="M384.428 578.944L394.26 571.627C394.343 571.544 394.426 571.488 394.509 571.377L426.831 530.826C427.302 530.244 427.219 529.357 426.609 528.886L420.018 523.619C415.171 519.766 408.136 520.044 403.621 524.257L378.473 547.762L339.781 515.359C339.227 514.888 338.397 514.943 337.898 515.498L310.285 545.655C309.759 546.237 309.814 547.152 310.451 547.651L372.297 597.044C372.878 597.515 373.765 597.432 374.236 596.822L384.954 583.379C385.231 583.047 385.314 582.603 385.203 582.215L384.428 578.944Z" fill="#343838"/>
<path opacity="0.5" d="M384.428 578.944L394.26 571.627C394.343 571.544 394.426 571.488 394.509 571.377L426.831 530.826C427.302 530.244 427.219 529.357 426.609 528.886L420.018 523.619C415.171 519.766 408.136 520.044 403.621 524.257L378.473 547.762L339.781 515.359C339.227 514.888 338.397 514.943 337.898 515.498L310.285 545.655C309.759 546.237 309.814 547.152 310.451 547.651L372.297 597.044C372.878 597.515 373.765 597.432 374.236 596.822L384.954 583.379C385.231 583.047 385.314 582.603 385.203 582.215L384.428 578.944Z" fill="#343838"/>
<path opacity="0.05" d="M795.69 383.81C791.092 385.279 786.522 386.803 781.925 388.328H786.633C794.111 388.328 801.09 385.528 806.491 380.456C802.918 381.592 799.29 382.673 795.69 383.81Z" fill="#525B5B"/>
<path d="M776.496 220.246H750.988V247.188H776.496V220.246Z" fill="#ECD2B1"/>
<path opacity="0.5" d="M757.857 231.832C763.977 233.135 770.348 232.442 776.524 231.028V220.246H751.016V229.67C753.231 230.557 755.502 231.333 757.857 231.832Z" fill="#ECD2B1"/>
<path opacity="0.5" d="M709.167 299.519C709.139 300.517 709.083 301.487 709.056 302.485C708.723 311.216 708.114 319.864 706.702 328.512C705.317 336.994 703.406 345.393 700.415 353.459C698.919 357.505 696.952 361.33 695.623 365.433C694.626 368.454 693.878 371.531 693.241 374.635L716.506 318.617C719.553 311.299 716.257 302.901 709.167 299.519Z" fill="#ECD2B1"/>
<path d="M798.016 511.007H834.132L810.839 370.311H771.289L798.016 511.007Z" fill="#ECD2B1"/>
<path d="M813.803 595.104H848.063L827.457 471.426H790.427L813.803 595.104Z" fill="#ECD2B1"/>
<path d="M836.403 513.003H836.486L812.529 368.288H768.88L788.073 469.431H787.99L812.169 597.1H850.418L836.403 513.003Z" fill="#525B5B"/>
<path opacity="0.5" d="M836.403 513.003H836.486L829.23 469.126C829.064 469.153 828.87 469.181 828.704 469.209C822.721 469.985 816.517 470.179 810.59 468.987C807.488 468.35 804.386 467.324 801.727 465.578C799.262 463.998 797.213 461.78 795.468 459.452C791.48 454.186 788.849 448.06 785.996 442.156C784.611 439.273 782.949 436.585 781.371 433.841L788.129 469.458H788.045L812.197 597.155H850.473L836.403 513.003Z" fill="#525B5B"/>
<path opacity="0.5" d="M797.351 382.673C801.949 381.232 806.602 379.874 811.144 378.294C812.113 377.961 813.055 377.601 814.024 377.241L812.557 368.315H768.907L773.145 390.573C781.149 387.857 789.236 385.196 797.351 382.673Z" fill="#525B5B"/>
<path d="M892.904 614.895H813.803V595.104H848.063L885.619 600.62C889.802 601.23 892.931 604.833 892.931 609.074V614.895H892.904Z" fill="#ECD2B1"/>
<path d="M886.201 596.656L851.525 591.556L839.007 516.385C838.896 515.775 838.37 515.331 837.76 515.331H796.188C795.385 515.331 794.803 516.052 794.942 516.828L809.815 595.464V615.892C809.815 617.555 811.144 618.886 812.806 618.886H827.845C828.814 618.886 829.728 618.415 830.31 617.611L831.446 616.003L842.247 618.803C842.496 618.858 842.746 618.886 842.995 618.886H893.928C895.59 618.886 896.919 617.555 896.919 615.892V609.074C896.919 602.893 892.294 597.571 886.201 596.656Z" fill="#417171"/>
<path d="M634.58 614.895H713.681V595.104H679.421L641.865 600.62C637.682 601.23 634.553 604.833 634.553 609.074V614.895H634.58Z" fill="#ECD2B1"/>
<path d="M641.31 596.656L675.986 591.556L688.505 516.385C688.616 515.775 689.142 515.331 689.751 515.331H731.323C732.127 515.331 732.708 516.052 732.57 516.828L717.697 595.464V615.892C717.697 617.555 716.367 618.886 714.706 618.886H699.667C698.697 618.886 697.783 618.415 697.202 617.611L696.066 616.003L685.265 618.803C685.015 618.858 684.766 618.886 684.517 618.886H633.583C631.921 618.886 630.592 617.555 630.592 615.892V609.074C630.592 602.893 635.19 597.571 641.31 596.656Z" fill="#417171"/>
<path d="M830.005 307.692L830.656 480.628L785.403 487.897L760.235 311.333L830.005 307.692Z" fill="#FFB99E"/>
<path d="M830.656 480.628L785.403 487.897L821.471 676.85L841.389 677.617C853.674 583.735 847.128 518.056 830.656 480.628Z" fill="#FFB99E"/>
<path d="M841.389 677.617L821.471 676.85C821.471 676.85 802.435 697.219 785.147 698.665C767.871 700.111 758.971 702.935 756.267 709.157C753.564 715.379 755.9 718.642 755.9 718.642L846.83 722.141C846.83 722.141 855.039 703.102 841.389 677.617Z" fill="#FFB204"/>
<path d="M820.59 685.739C820.911 685.75 821.207 685.546 821.294 685.218C821.392 684.846 821.171 684.453 820.789 684.354C818.423 683.735 816.3 682.311 814.817 680.363C814.581 680.055 814.134 679.996 813.826 680.232C813.518 680.456 813.459 680.904 813.695 681.212C815.362 683.413 817.758 685.007 820.431 685.712C820.484 685.724 820.537 685.737 820.59 685.739Z" fill="#FFF9DD"/>
<path d="M815.237 690.283C815.548 690.294 815.843 690.101 815.94 689.783C816.05 689.412 815.839 689.019 815.468 688.91C813.169 688.229 811.235 686.297 810.535 683.992C810.419 683.624 810.031 683.417 809.663 683.522C809.295 683.638 809.078 684.026 809.193 684.394C810.026 687.186 812.281 689.429 815.067 690.255C815.12 690.279 815.184 690.281 815.237 690.283Z" fill="#FFF9DD"/>
<path d="M809.654 694.069C809.975 694.08 810.271 693.877 810.358 693.548C810.457 693.176 810.235 692.783 809.853 692.695C807.508 692.087 805.52 690.197 804.798 687.88C804.683 687.512 804.283 687.305 803.915 687.42C803.547 687.536 803.34 687.935 803.456 688.304C804.322 691.065 806.694 693.322 809.494 694.053C809.559 694.055 809.612 694.068 809.654 694.069Z" fill="#FFF9DD"/>
<path d="M803.201 696.743C803.436 696.751 803.665 696.642 803.811 696.443C804.026 696.119 803.955 695.688 803.631 695.463C801.781 694.187 800.485 692.107 800.167 689.89C800.105 689.502 799.751 689.244 799.374 689.295C798.987 689.345 798.728 689.7 798.779 690.087C799.158 692.681 800.678 695.123 802.841 696.613C802.945 696.702 803.072 696.739 803.201 696.743Z" fill="#FFF9DD"/>
<path d="M846.719 690.398C844.433 691.185 842.173 692.112 839.981 693.255C835.094 695.813 831.249 699.211 828.853 703.088C826.299 707.206 825.204 712.136 825.762 716.964C825.812 717.351 825.533 717.695 825.146 717.735C825.113 717.744 825.071 717.743 825.039 717.741C824.696 717.729 824.406 717.473 824.365 717.118C823.775 711.989 824.945 706.741 827.659 702.339C830.191 698.253 834.224 694.679 839.34 692.012C841.608 690.828 843.954 689.872 846.317 689.056C846.451 689.511 846.585 689.954 846.719 690.398Z" fill="#FF8200"/>
<path d="M784.191 718.795C783.806 718.76 783.508 718.428 783.543 718.044C784.004 711.646 782.78 705.071 780.162 699.164C780.646 699.106 781.119 699.058 781.613 699.001C784.206 705.014 785.416 711.674 784.941 718.147C784.917 718.531 784.597 718.809 784.212 718.795C784.201 718.795 784.191 718.795 784.191 718.795Z" fill="#FF8200"/>
<path d="M823.079 683.792C821.702 685.168 820.282 686.585 818.843 687.936C815.3 691.249 809.806 695.841 803.147 697.362C801.247 697.799 799.314 697.977 797.379 697.898C795.658 697.837 793.955 697.552 792.29 697.097C793.092 696.825 793.894 696.533 794.687 696.207C797.369 696.666 800.144 696.603 802.831 696.002C809.166 694.555 814.451 690.127 817.883 686.918C819.311 685.587 820.721 684.169 822.086 682.804C824.005 680.891 825.969 678.936 828.057 677.104L830.121 677.188C827.65 679.242 825.331 681.548 823.079 683.792Z" fill="#FF8200"/>
<path d="M846.83 722.141L755.901 718.642C755.901 718.642 753.564 715.39 756.267 709.157L848.972 712.729C848.323 718.67 846.83 722.141 846.83 722.141Z" fill="#FFF9DD"/>
<path d="M787.622 324.957L635.659 386.936L586.105 379.276L728.677 266.98L787.622 324.957Z" fill="#FFB99E"/>
<path d="M635.659 386.936L586.104 379.276L618.48 560.613L636.917 568.171C645.696 478.683 643.938 424.16 635.659 386.936Z" fill="#FFB99E"/>
<path d="M636.927 568.182L618.491 560.624C618.491 560.624 593.615 573.217 576.894 568.643C560.161 564.069 550.84 563.665 546.17 568.576C541.5 573.498 542.574 577.358 542.574 577.358L626.756 611.865C626.756 611.865 641.002 596.809 636.927 568.182Z" fill="#FFB204"/>
<path d="M614.599 568.668C614.894 568.796 615.251 568.691 615.443 568.419C615.668 568.095 615.587 567.664 615.263 567.438C613.247 566.039 611.745 563.984 611.025 561.635C610.91 561.267 610.511 561.049 610.143 561.165C609.775 561.28 609.568 561.68 609.684 562.037C610.5 564.679 612.195 567.009 614.463 568.577C614.504 568.622 614.557 568.645 614.599 568.668Z" fill="#FFF9DD"/>
<path d="M608.015 571.102C608.3 571.219 608.646 571.124 608.847 570.863C609.083 570.55 609.013 570.109 608.7 569.884C606.77 568.456 605.616 565.974 605.754 563.569C605.778 563.184 605.48 562.853 605.095 562.828C604.71 562.804 604.379 563.103 604.354 563.488C604.188 566.394 605.521 569.268 607.857 571.01C607.909 571.055 607.962 571.078 608.015 571.102Z" fill="#FFF9DD"/>
<path d="M601.47 572.734C601.775 572.862 602.122 572.757 602.313 572.485C602.538 572.172 602.458 571.73 602.134 571.505C600.138 570.128 598.929 567.676 599.047 565.249C599.06 564.864 598.761 564.532 598.377 564.508C597.992 564.494 597.66 564.793 597.636 565.178C597.501 568.075 598.95 571.007 601.333 572.654C601.385 572.688 601.428 572.711 601.47 572.734Z" fill="#FFF9DD"/>
<path d="M594.489 573.034C594.711 573.127 594.958 573.104 595.166 572.961C595.485 572.737 595.554 572.3 595.329 571.982C594.023 570.158 593.519 567.752 593.982 565.552C594.06 565.169 593.816 564.797 593.434 564.719C593.051 564.641 592.678 564.885 592.601 565.268C592.06 567.84 592.657 570.656 594.176 572.798C594.269 572.908 594.373 572.987 594.489 573.034Z" fill="#FFF9DD"/>
<path d="M637.541 582.017C635.134 581.975 632.679 582.059 630.238 582.38C624.774 583.097 619.986 584.974 616.408 587.792C612.597 590.795 609.867 595.046 608.737 599.76C608.649 600.143 608.266 600.365 607.884 600.276C607.852 600.265 607.81 600.263 607.778 600.241C607.462 600.112 607.281 599.763 607.357 599.423C608.562 594.4 611.463 589.877 615.526 586.679C619.303 583.707 624.33 581.732 630.041 580.981C632.58 580.642 635.109 580.56 637.602 580.605C637.596 581.087 637.569 581.546 637.541 582.017Z" fill="#FF8200"/>
<path d="M569.066 587.202C568.708 587.04 568.551 586.627 568.713 586.269C571.35 580.419 572.45 573.819 572.014 567.379C572.481 567.492 572.948 567.605 573.436 567.729C573.805 574.263 572.66 580.926 569.988 586.849C569.837 587.197 569.435 587.355 569.076 587.214C569.076 587.214 569.076 587.214 569.066 587.202Z" fill="#FF8200"/>
<path d="M617.609 567.693C615.846 568.508 614.029 569.354 612.202 570.136C607.735 572.034 601.002 574.452 594.223 573.602C592.294 573.352 590.406 572.857 588.622 572.13C587.029 571.475 585.528 570.629 584.117 569.637C584.962 569.656 585.819 569.654 586.676 569.62C589.037 570.978 591.661 571.874 594.4 572.217C600.849 573.023 607.333 570.681 611.659 568.853C613.452 568.092 615.27 567.246 617.022 566.43C619.482 565.285 621.996 564.142 624.579 563.131L626.489 563.916C623.454 564.986 620.494 566.349 617.609 567.693Z" fill="#FF8200"/>
<path d="M626.756 611.865L542.564 577.347C542.564 577.347 541.49 573.487 546.16 568.565L632 603.751C629.348 609.119 626.756 611.865 626.756 611.865Z" fill="#FFF9DD"/>
<path d="M722.651 269.98L598.507 355.471C585.362 364.526 578.72 380.429 581.527 396.14C583.78 437.563 592.253 484.421 605.526 535.453C606.751 540.164 610.916 543.492 615.767 543.77C625.714 544.346 635.183 543.588 644.069 541.171C647.127 540.347 649.269 537.607 649.413 534.442C653.376 445.823 649.946 436.526 641.005 396.858C688.598 379.702 717.162 365.741 751.714 343.767L780.754 474.927C787.365 534.836 794.622 594.639 805.383 648.58C806.948 656.399 813.794 662.027 821.77 662.03C829.039 662.04 836.461 661.349 843.281 660.412C847.778 659.8 851.248 656.132 851.568 651.603C856.2 586.801 854.497 528.275 836.549 480.815L831.677 260.036L722.651 269.98Z" fill="#361A06"/>
<path d="M812.228 658.181C813.942 665.116 815.114 672.546 819.235 678.045C826.453 679.778 836.474 680.699 842.844 679.168C846.246 673.184 846.581 665.208 847.024 658.413L812.228 658.181Z" fill="#361A06"/>
<path d="M610.492 538.23C610.37 544.404 612.063 553.48 615.865 559.814C622.577 564.677 630.627 568.345 638.061 568.222C643.608 558.159 647.464 547.191 645.131 535.651L610.492 538.23Z" fill="#361A06"/>
<path d="M652.02 157.869L684.957 142.541L699.348 261.383L667.07 282.303L652.02 157.869Z" fill="#FFB99E"/>
<path d="M667.07 282.303L699.348 261.373L720.926 380.704L698.621 386.92C684.526 345.829 672.296 311.988 667.07 282.303Z" fill="#FFB99E"/>
<path d="M706.711 426.761L705.435 427.412C700.104 430.136 693.763 426.283 693.718 420.285L693.67 414.361L693.67 414.351L693.609 403.052C693.589 399.956 694.137 396.892 695.224 393.996L698.659 382.51L718.393 376.653C729.303 383.313 740.728 396.298 747.229 405.629C751.405 410.146 748.927 417.886 743.675 421.084C743.216 421.357 742.769 421.577 742.347 421.712C744.035 425.755 738.162 432.005 734.475 429.069C737.214 433.984 730.986 438.454 727.224 435.848L726.792 436.25C727.804 439.113 726.673 442.339 723.984 443.925C723.951 443.946 723.907 443.966 723.874 443.996C720.476 445.943 710.944 436.344 709.509 432.706L706.711 426.761Z" fill="#FFB99E"/>
<path d="M652.02 157.869C648.969 184.553 647.771 210.617 648.914 235.864C667.472 245.117 685.1 248.277 701.156 241.081L703.159 184.335L652.02 157.869Z" fill="#FF8200"/>
<path d="M701.452 232.407C697.523 233.617 693.478 234.47 689.372 234.936C677.87 236.254 666.584 234.196 655.842 230.069C653.402 229.126 650.997 228.099 648.616 227.019C648.637 227.919 648.681 228.82 648.702 229.72C655.807 232.862 663.101 235.518 670.795 236.829C680.947 238.558 691.495 237.859 701.372 234.953L701.462 232.407L701.452 232.407Z" fill="#FD6B00"/>
<path d="M652.02 157.869C686.287 202.532 701.656 228.441 711.315 277.793C739.13 305.663 810.923 335.095 839.658 290.193C833.102 219.653 789.222 131.294 736.689 87.0042C697.092 96.2825 654.169 118.207 652.02 157.869Z" fill="#FF8200"/>
<path d="M839.108 285.173C838.994 284.152 838.87 283.12 838.735 282.087C826.993 293.837 813.316 303.398 795.965 303.932C782.504 304.345 769.267 300.216 756.823 295.472C744.865 290.917 733.342 285.252 722.421 278.592C718.072 275.943 713.869 273.075 709.723 270.123C709.982 271.289 710.23 272.454 710.477 273.641C723.351 282.597 737.173 290.142 751.717 296.063C764.392 301.222 777.891 305.81 791.683 306.34C804.32 306.829 816.168 302.996 826.496 295.79C831.029 292.641 835.182 289.029 839.108 285.173Z" fill="#FD6B00"/>
<path d="M669.443 14.8893C661.123 10.0768 649.578 10.783 643.347 17.7909C624.94 10.2881 601.988 24.5227 592.557 40.2733C580.874 59.7671 587.188 86.214 609.108 94.8795C631.323 103.663 656.03 93.3982 678.055 102.41C682.857 104.379 688.556 106.389 693.21 102.838C697.49 99.5732 697.399 93.6591 697.27 88.8146C696.909 75.0741 694.501 61.4007 690.371 48.2982C686.443 35.8346 681.414 21.8009 669.443 14.8893Z" fill="#361A06"/>
<path d="M652.672 32.3189C625.386 19.5127 589.777 56.8369 599.042 76.1385C618.089 115.842 633.567 126.528 649.307 127.651C667.525 128.958 666.191 114.605 680.889 134.645C692.955 142.202 710.305 131.711 706.672 115.734C686.875 89.4113 689.003 70.3833 689.003 70.3833C689.003 70.3833 663.931 37.5992 652.672 32.3189Z" fill="#FFB99E"/>
<path d="M651.784 83.5683C652.846 85.0193 652.539 87.0537 651.088 88.1161C649.638 89.1785 647.604 88.8604 646.542 87.4202C645.479 85.9692 645.787 83.9348 647.237 82.8724C648.688 81.81 650.733 82.1177 651.784 83.5683Z" fill="#361A06"/>
<path d="M650.142 83.9922C650.53 84.5199 650.418 85.2655 649.891 85.6538C649.363 86.0421 648.618 85.9301 648.229 85.4024C647.841 84.8747 647.953 84.1291 648.481 83.7301C648.998 83.3415 649.754 83.4538 650.142 83.9922Z" fill="white"/>
<path d="M631.485 98.4641C632.547 99.9151 632.24 101.949 630.789 103.012C629.338 104.074 627.304 103.767 626.242 102.316C625.18 100.865 625.498 98.831 626.938 97.7682C628.389 96.6951 630.423 97.0132 631.485 98.4641Z" fill="#361A06"/>
<path d="M629.832 98.8877C630.22 99.4153 630.108 100.161 629.569 100.56C629.042 100.948 628.296 100.836 627.909 100.297C627.52 99.7698 627.632 99.0242 628.16 98.6252C628.699 98.2373 629.444 98.3493 629.832 98.8877Z" fill="white"/>
<path d="M625.705 86.8989C620.722 87.0229 616.538 90.3018 615.4 95.2622C615.185 96.1969 615.832 97.2799 616.752 97.6121C617.693 97.9452 618.631 97.4322 618.846 96.4975C619.314 94.4581 620.573 92.7678 622.248 91.724C623.091 91.1969 624.046 90.8237 625.048 90.6556C625.942 90.5052 626.987 90.6063 627.417 89.6471C627.522 89.4152 627.563 89.1596 627.551 88.8915C627.508 87.9798 626.648 86.868 625.705 86.8989Z" fill="#361A06"/>
<path d="M635.937 79.3897C638.033 74.3131 643.037 70.849 648.58 70.9268C649.618 70.942 650.474 71.8717 650.448 72.8988C650.422 73.9472 649.525 74.783 648.476 74.7674C646.208 74.7408 643.992 75.6263 642.261 77.075C641.389 77.8046 640.63 78.6879 640.049 79.6633C639.527 80.5229 639.209 81.6253 638.068 81.8206C637.798 81.8647 637.51 81.8438 637.245 81.7702C636.334 81.5024 635.539 80.35 635.937 79.3897Z" fill="#361A06"/>
<path d="M639.968 103.197C639.814 103.309 639.611 103.302 639.455 103.189C637.162 101.427 637.369 100.107 637.943 99.3131C638.528 98.5093 639.583 98.0325 641.097 97.9146C641.333 97.8908 641.541 98.0695 641.554 98.3055C641.567 98.5416 641.389 98.7387 641.163 98.7629C639.918 98.8688 639.06 99.2133 638.632 99.8086C638.114 100.518 638.564 101.434 639.971 102.511C640.159 102.657 640.192 102.915 640.046 103.103C640.024 103.145 640.001 103.166 639.968 103.197Z" fill="#D96B5A"/>
<path d="M642.756 107.932C647.885 105.168 652.512 101.476 656.686 96.9443C658.913 94.528 663.036 95.7122 663.596 98.955C664.493 104.159 664.13 110.817 658.105 114.684C652.421 118.317 646.863 117.136 642.823 115.14C639.855 113.676 639.853 109.5 642.756 107.932Z" fill="#361A06"/>
<path d="M663.884 104.426C660.175 104.884 656.112 105.951 653.64 108.348C651.223 110.683 650.163 114.018 649.716 117.001C652.356 117.115 655.214 116.52 658.095 114.673C662.137 112.085 663.61 108.25 663.884 104.426Z" fill="#C73900"/>
<path d="M646.677 7.76796C650.081 4.72926 655.027 3.5332 659.44 4.66342C655.127 7.96986 651.796 12.5531 649.999 17.6831C649.213 19.9147 647.441 20.6981 645.106 20.7121C643.425 20.7277 642.414 19.6533 642.16 18.0382C641.592 14.4095 644.046 10.0951 646.677 7.76796Z" fill="#361A06"/>
<path d="M602.181 88.4993C602.181 88.4993 609.677 78.7412 606.137 68.9255C606.137 68.9255 622.005 76.7563 636.166 70.4886C646.171 66.066 625.664 57.7395 625.664 57.7395C625.664 57.7395 653.813 66.7426 656.447 62.788C659.081 58.8333 650.343 51.6075 650.343 51.6075C650.343 51.6075 675.776 70.5268 691.602 62.8724C685.67 45.9156 671.419 30.7748 671.419 30.7748C671.419 30.7748 625.067 13.0659 605.239 41.3099C585.421 69.5434 602.181 88.4993 602.181 88.4993Z" fill="#361A06"/>
<path d="M698.544 64.563C698.102 71.3256 693.389 76.524 688.027 76.1741C682.666 75.8242 678.672 70.0615 679.114 63.299C679.556 56.5364 684.258 51.3376 689.63 51.6879C694.992 52.0377 698.986 57.8004 698.544 64.563Z" fill="#FFB99E"/>
<path d="M688.835 55.4183C686.769 55.7202 684.8 57.214 683.598 59.4203C682.992 60.5125 682.71 61.5198 682.718 62.4946C682.737 63.7802 683.359 64.9693 684.322 65.5816C685.191 66.1369 686.174 66.193 687.051 66.2347C687.681 66.2676 688.28 66.2995 688.754 66.509C689.492 66.8348 689.976 67.6657 689.895 68.466C689.813 69.2555 689.156 69.9818 688.369 70.1361C687.905 70.2268 687.611 70.6769 687.702 71.1405C687.793 71.6042 688.243 71.8985 688.706 71.8077C689.213 71.7078 689.681 71.4888 690.087 71.1926C690.901 70.5895 691.48 69.6677 691.58 68.6432C691.741 67.1177 690.832 65.5651 689.43 64.948C688.671 64.6214 687.848 64.571 687.132 64.535C686.405 64.4986 685.721 64.4638 685.24 64.147C684.759 63.8301 684.429 63.1653 684.422 62.4583C684.421 62.1692 684.475 61.8606 684.55 61.5527C685.232 61.052 686.231 60.6376 687.008 60.7828C687.879 60.9528 688.672 61.559 689.083 62.3551C689.292 62.7802 689.801 62.9373 690.226 62.7274C690.269 62.7076 690.313 62.6877 690.346 62.6567C690.676 62.4114 690.788 61.9656 690.598 61.5841C689.957 60.3194 688.737 59.3982 687.345 59.1135C686.824 59.0095 686.308 59.0662 685.801 59.1661C686.709 58.031 687.881 57.2692 689.087 57.0869C690.572 56.8609 692.457 57.7413 692.786 59.3377C692.877 59.8014 693.327 60.0956 693.79 60.0049C694.254 59.9035 694.548 59.4641 694.458 59.0005C693.982 56.6922 691.407 55.0379 688.835 55.4183Z" fill="#D96B5A"/>
<path d="M567.767 585.786C593.177 594.146 615.636 604.491 641.127 616.912C644.769 618.69 646.306 623.07 644.592 626.736C627.049 664.227 602.404 691.829 556.4 705.218C540.326 709.898 519.911 700.771 514.661 683.282C505.274 651.983 527.82 613.78 560.85 587.02C562.778 585.471 565.407 585.017 567.767 585.786Z" fill="#D84000"/>
<path d="M561.966 641.541C563.07 624.212 570.303 606.135 583.267 594.043C598.986 592.135 608.776 595.95 618.268 608.192C608.298 625.562 591.268 639.427 571.576 648.327C566.844 650.462 561.633 646.723 561.966 641.541Z" fill="#B33200"/>
<path d="M698.208 425.604C698.208 425.604 712.647 431.147 714.601 427.061C716.555 422.965 709.894 413.007 705.89 412.994C701.887 412.981 696.06 413.375 696.06 413.375L698.208 425.604Z" fill="#FFB99E"/>
<path d="M722.72 128.797L720.804 91.1765L831.927 62.7712L837.385 99.8316L722.72 128.797Z" fill="#FFB99E"/>
<path d="M818.524 66.6884L836.925 61.3093C845.925 58.6822 855.042 64.8506 856.062 74.1705C859.814 108.622 860.851 145.666 860.392 184.145L834.808 192.868L818.524 66.6884Z" fill="#FFB99E"/>
<path d="M720.804 91.1765L719.019 141.752L810.449 127.139C810.778 105.671 808.767 85.5971 798.64 70.4197L720.804 91.1765Z" fill="#FF8200"/>
<path d="M803.526 128.233C804.128 111.165 800.592 93.982 793.17 78.5789C792.233 76.6291 791.255 74.6136 790.145 72.6791L787.735 73.3222C788.837 75.1814 789.784 77.1637 790.693 79.0162C792.83 83.3641 794.652 87.8508 796.138 92.4649C799.044 101.434 800.748 110.799 801.133 120.214C801.248 123.013 801.235 125.818 801.125 128.631L803.526 128.233Z" fill="#FD6B00"/>
<path fill-rule="evenodd" clip-rule="evenodd" d="M736.417 165.237C736.611 165.209 736.94 165.253 737.162 165.27C737.162 165.27 737.162 165.27 737.183 165.257L738.946 165.277L738.968 165.263C738.982 165.286 739.004 165.272 739.004 165.272L740.598 165.118C740.691 165.122 740.691 165.122 740.77 165.104C740.827 165.099 740.871 165.072 740.95 165.054L741.18 165.035C741.18 165.035 741.223 165.008 741.237 165.03L741.942 164.902L741.964 164.889L743.425 164.569C743.447 164.556 743.526 164.538 743.526 164.538L744.102 164.397C744.225 164.351 744.16 164.392 744.283 164.347C744.362 164.328 744.391 164.279 744.471 164.261L745.437 163.97C745.754 163.897 746.238 163.658 746.563 163.549L747.365 163.237C747.676 163.106 747.85 162.997 748.153 162.902C748.206 163.086 748.143 163.373 748.126 163.539L747.957 164.481C747.963 164.539 747.941 164.552 747.925 164.624L747.839 165.019C747.831 165.055 747.809 165.068 747.801 165.104C747.711 165.347 747.648 165.634 747.499 165.881L747.027 166.577C746.505 167.243 746.329 167.104 745.905 167.491L745.947 167.558C746.091 167.5 746.141 167.531 746.228 167.477C746.387 167.44 746.438 167.377 746.596 167.341C746.899 167.246 746.951 167.183 747.247 167.029C747.479 166.916 747.665 166.924 747.905 166.776C748.267 166.582 749.302 166.062 749.571 165.864C749.666 165.774 749.674 165.738 749.826 165.643C750.087 165.481 750.246 165.444 750.457 165.251C750.56 165.125 750.574 165.147 750.727 165.053C750.922 164.931 750.829 164.927 750.982 164.832C751.098 164.729 751.134 164.737 751.251 164.634L752.016 163.972C752.046 163.923 752.06 163.945 752.111 163.882L752.141 163.833C752.163 163.819 752.163 163.819 752.163 163.819L752.469 163.536C752.469 163.536 752.491 163.522 752.477 163.5L752.499 163.486L752.667 163.32C752.762 163.23 752.792 163.18 752.887 163.09C752.946 162.991 752.894 163.054 752.968 162.978L754.336 161.198L754.723 160.461C754.752 160.412 754.774 160.398 754.79 160.326L754.82 160.277L755.175 159.343L755.196 159.33C755.273 159.065 755.356 158.859 755.411 158.607C755.433 158.594 755.419 158.572 755.419 158.572L755.427 158.536L755.547 157.903C755.622 157.392 755.682 156.858 755.584 156.361C755.558 156.222 755.531 156.178 755.519 156.061C755.458 155.479 755.238 155.027 754.948 154.463L754.587 153.882C754.517 153.77 754.475 153.703 754.398 153.627C754.307 153.529 754.229 153.453 754.174 153.363C753.977 153.145 753.892 153.105 753.688 152.922C753.561 152.814 753.386 152.582 753.171 152.623C753.066 152.843 753.036 154.349 752.95 154.744L752.543 157.197C752.526 157.363 752.54 157.386 752.486 157.543L751.27 161.12C751.27 161.12 751.24 161.169 751.232 161.205L750.904 161.843L750.853 161.906L750.236 163.002C750.112 163.141 750.102 163.271 749.95 163.366C749.958 163.33 749.928 163.379 749.965 163.294C749.973 163.258 749.995 163.245 750.003 163.209L750.181 162.912C750.181 162.912 750.181 162.912 750.203 162.899L751.079 160.959C751.125 160.838 751.126 160.744 751.194 160.609C751.231 160.524 751.231 160.524 751.269 160.438L751.651 159.209L751.673 159.195L751.728 158.944C751.75 158.931 751.736 158.908 751.736 158.908C751.736 158.908 751.758 158.895 751.744 158.872L751.765 158.859C751.751 158.836 751.751 158.836 751.773 158.823L752.039 157.697C752.025 157.675 752.047 157.661 752.047 157.661L752.139 156.984C752.342 156.145 752.489 155.217 752.549 154.342C752.551 154.248 752.529 154.262 752.567 154.176L752.609 153.468C752.65 153.194 752.62 152.903 752.648 152.607C752.703 152.356 752.742 151.836 752.61 151.576C752.088 151.901 752.061 152.197 751.435 152.307C750.889 152.399 750.424 152.719 749.931 152.994L749.719 153.188C749.573 153.341 749.434 153.458 749.338 153.642C749.278 153.741 749.278 153.741 749.205 153.817L749.146 153.916L749.138 153.952L748.832 154.576C748.832 154.576 748.808 154.684 748.786 154.697L748.696 154.94C748.71 154.962 748.71 154.962 748.688 154.975L748.373 156.411C748.328 156.873 748.235 157.985 748.277 158.392C748.281 158.545 748.293 158.661 748.283 158.791C748.213 159.455 748.236 160.123 748.237 160.804C748.241 160.956 748.275 161.059 748.257 161.225L748.224 161.804C748.203 162.158 748.231 162.543 748.16 162.866C748.099 162.718 748.028 162.701 747.942 162.661L747.417 162.398C747.417 162.398 747.403 162.376 747.381 162.39L747.332 162.358C747.161 162.278 747.106 162.189 746.959 162.001C746.715 161.657 746.215 161.193 745.825 161.001C745.725 160.939 745.64 160.899 745.533 160.873C745.27 160.788 745.335 160.748 745.006 160.704L744.263 160.577C744.22 160.604 744.242 160.591 744.184 160.595L743.804 160.615C743.574 160.634 743.281 160.599 743.057 160.676L741.515 161.107C741.01 161.266 740.309 161.547 739.882 161.782C739.708 161.89 739.672 161.881 739.528 161.94C739.484 161.967 739.462 161.98 739.361 162.012L738.203 162.577C737.726 162.78 737.222 162.939 736.751 163.201C736.711 163.04 736.762 162.977 736.736 162.838C736.696 162.677 736.676 162.596 736.658 162.421C736.626 162.224 736.599 162.179 736.674 162.009L736.825 161.574C736.873 161.358 736.934 161.165 736.981 160.95C736.977 160.798 736.993 160.726 736.988 160.573L736.936 159.955C736.838 159.117 736.316 158.326 735.79 157.723C735.685 157.602 735.615 157.49 735.475 157.361L731.469 154.364C731.081 154.079 730.252 153.571 729.978 153.276L728.414 151.924C728.4 151.902 728.4 151.902 728.4 151.902L728.322 151.826C728.245 151.75 728.273 151.794 728.217 151.705L728.19 151.66C728.148 151.593 728.19 151.66 728.126 151.607C727.719 151.147 727.35 150.601 727.197 150.015C727.089 149.647 727.017 148.949 727.038 148.594C726.799 148.743 726.86 148.891 726.813 149.106C726.804 149.236 726.774 149.286 726.75 149.393L726.499 151.998L726.559 154.038C726.565 154.096 726.543 154.109 726.557 154.132C726.553 154.32 726.547 154.262 726.579 154.459L726.835 156.036C726.869 156.139 726.903 156.242 726.915 156.358C727.258 158.221 728.23 160.221 729.477 161.646C729.779 161.986 730.075 162.267 730.449 162.53L731.74 163.247C732.237 163.465 732.816 163.57 733.339 163.586L733.432 163.59C733.489 163.585 733.546 163.581 733.604 163.576L734.861 163.414C734.962 163.382 734.927 163.374 735.042 163.364C735.2 163.328 734.998 163.391 735.2 163.328C735.366 163.255 735.511 163.197 735.614 163.071C735.445 162.897 735.261 162.794 735.084 162.656L733.765 161.554C733.652 161.469 733.611 161.402 733.498 161.317L733.139 160.982C733.089 160.951 733.026 160.898 732.984 160.831L730.8 158.531C730.072 157.65 729.288 156.34 728.819 155.392C728.743 155.222 728.765 155.208 728.654 155.029C728.344 154.385 728.429 154.425 728.104 153.852L728.147 153.825C728.548 154.568 728.85 155.248 729.269 155.825C729.339 155.936 729.485 156.124 729.527 156.191C729.589 156.339 729.589 156.339 729.722 156.504C730.176 157.09 730.51 157.626 731.029 158.171C731.12 158.269 731.212 158.368 731.267 158.457C731.694 158.998 732.166 159.417 732.644 159.895C733.086 160.364 733.537 160.797 734.038 161.167C734.116 161.243 734.242 161.35 734.32 161.426C734.615 161.707 734.927 161.917 735.23 162.162C735.266 162.171 735.266 162.171 735.266 162.171L735.329 162.225C735.71 162.546 736.312 162.884 736.642 163.269C736.41 163.381 736.462 163.319 736.281 163.368C736.093 163.454 736.05 163.481 735.87 163.531C735.747 163.577 735.638 163.644 735.48 163.681L733.882 164.023C733.824 164.028 733.824 164.028 733.767 164.032L732.664 164.005C732.343 163.926 732.05 163.891 731.766 163.726C731.695 163.709 731.645 163.677 731.596 163.646L731.213 163.419C731.086 163.312 731.094 163.276 730.957 163.299C730.988 163.59 731.428 163.813 731.632 163.996C732.152 164.541 732.802 165.004 733.417 165.459L733.813 165.709C733.876 165.762 733.863 165.74 733.962 165.802C734.322 166.043 734.329 166.101 734.782 166.346C735.038 166.466 735.264 166.635 735.555 166.764L736.116 167.036C736.287 167.116 737.103 167.507 737.353 167.569L740.549 168.341C740.799 168.403 741.759 168.395 742.025 168.385L742.908 168.301C743.001 168.305 742.965 168.296 743.066 168.264L743.577 168.164C743.995 168.059 744.232 168.004 744.638 167.783L745.275 167.449C745.703 167.214 745.624 167.233 745.922 166.985L746.419 166.521C746.441 166.508 746.427 166.485 746.427 166.485L746.794 166.009C746.854 165.91 746.905 165.847 746.943 165.762L746.972 165.712C747.144 165.358 747.33 165.025 747.43 164.653L747.493 164.366C747.523 164.316 747.531 164.28 747.525 164.222C747.578 164.065 747.631 163.908 747.591 163.747C747.082 163.753 746.378 164.222 745.946 164.304C745.831 164.314 745.867 164.323 745.744 164.368C745.6 164.427 745.55 164.396 745.362 164.481C745.008 164.64 744.649 164.646 744.281 164.781C743.935 164.904 743.574 165.004 743.208 165.045L742.575 165.191L742.553 165.205L742.359 165.232L742.337 165.246L741.79 165.338C741.194 165.398 740.604 165.517 740.002 165.519L739.321 165.54C739.321 165.54 739.307 165.517 739.285 165.531C739.285 165.531 739.285 165.531 739.263 165.544C739.25 165.522 739.25 165.522 739.228 165.536L739.192 165.527C739.156 165.518 739.156 165.518 739.156 165.518C739.135 165.532 739.121 165.509 739.121 165.509L737.582 165.412C737.302 165.4 736.637 165.348 736.417 165.237Z" fill="white"/>
<path fill-rule="evenodd" clip-rule="evenodd" d="M729.978 153.276C730.196 153.141 730.321 153.001 730.516 152.88C730.764 152.695 730.829 152.654 731.102 152.608L731.692 152.49C731.973 152.408 732.401 152.173 732.684 151.997C732.88 151.875 732.896 151.804 733.034 151.687C733.151 151.583 733.034 151.687 733.137 151.561C733.18 151.534 733.21 151.484 733.254 151.457L733.283 151.408C733.305 151.394 733.305 151.394 733.327 151.381C733.687 150.94 733.882 150.478 734.071 149.957L734.578 146.791C734.605 146.495 734.638 146.257 734.644 145.975L734.667 145.526C734.683 145.455 734.675 145.49 734.669 145.432L735.161 140.446C735.161 140.446 735.183 140.433 735.169 140.41L735.246 140.145C735.39 139.746 735.571 139.261 735.828 138.947C735.901 138.87 735.939 138.785 735.99 138.722C736.087 138.538 736.049 138.623 736.196 138.47C736.554 138.124 736.532 138.137 737.025 137.862C737.199 137.754 737.213 137.776 737.137 137.606C736.971 137.678 736.712 137.746 736.545 137.819C736.409 137.842 736.344 137.882 736.235 137.95C735.91 138.059 735.52 138.208 735.223 138.362C734.992 138.475 734.833 138.511 734.572 138.673C733.674 139.17 732.935 139.536 732.071 140.135L731.044 140.959C730.694 141.27 730.338 141.522 730.051 141.886C730.051 141.886 730.051 141.886 730.029 141.9L728.795 143.411C728.714 143.523 728.685 143.572 728.625 143.671L728.337 144.13C728.299 144.215 728.248 144.278 728.211 144.363L727.861 145.014C727.839 145.028 727.853 145.05 727.853 145.05C727.831 145.064 727.831 145.064 727.831 145.064C727.614 145.54 727.725 145.378 727.604 145.67L727.399 146.262C727.315 146.563 727.152 147.563 727.18 147.948L727.194 147.971L727.288 148.997C727.494 149.861 727.925 150.895 728.565 151.488L729.135 152.065C729.212 152.14 729.297 152.18 729.375 152.256C729.527 152.162 729.507 152.081 729.503 151.929C729.519 151.857 729.511 151.893 729.505 151.835C729.521 151.763 729.513 151.799 729.507 151.74C729.528 151.727 729.528 151.727 729.528 151.727C729.515 151.704 729.522 151.669 729.544 151.655C729.53 151.633 729.538 151.597 729.56 151.583C729.562 151.489 729.562 151.489 729.564 151.395L730.407 147.12C730.508 146.748 730.63 146.362 730.744 146.012C730.774 145.962 730.766 145.998 730.782 145.927L732.624 142.24C732.735 142.078 732.98 141.647 733.154 141.538C733.123 141.682 732.968 141.871 732.879 142.019L732.597 142.536C732.597 142.536 732.546 142.599 732.559 142.621L732.508 142.684C732.522 142.706 732.5 142.72 732.5 142.72C732.5 142.72 732.478 142.733 732.492 142.756L731.768 144.26C731.744 144.368 731.73 144.345 731.693 144.431L731.03 146.423C731.022 146.459 731 146.473 730.992 146.508L730.66 147.769C730.652 147.805 730.644 147.841 730.644 147.841L729.92 152.94C729.911 153.07 729.917 153.128 729.978 153.276Z" fill="white"/>
<path fill-rule="evenodd" clip-rule="evenodd" d="M746.485 140.071C746.276 140.171 745.848 140.065 745.618 140.084C745.489 140.071 745.503 140.093 745.41 140.089C745.396 140.067 745.374 140.08 745.374 140.08L745.224 140.081C745.202 140.094 745.202 140.094 745.188 140.072L743.408 140.218C743.236 140.232 743.113 140.277 742.94 140.291C742.919 140.305 742.861 140.309 742.84 140.323L739.707 141.061C739.47 141.116 739.238 141.228 738.979 141.297L738.488 141.478C738.387 141.51 738.395 141.474 738.272 141.519L736.783 142.134C736.588 142.256 736.487 142.288 736.306 142.338C735.96 142.46 735.639 142.721 735.271 142.857C734.852 143.056 734.565 143.079 735.147 143.337C735.304 143.395 735.403 143.457 735.524 143.506C735.886 143.653 736.369 144.283 736.942 144.671C737.36 144.907 737.148 144.759 737.524 144.928L738.131 145.078C738.238 145.105 738.251 145.127 738.323 145.145L738.545 145.162C738.838 145.197 739.147 145.16 739.442 145.1L739.592 145.1C739.614 145.086 739.614 145.086 739.614 145.086C740.721 144.925 741.871 144.396 742.813 143.873C743.407 143.566 746.181 142.058 746.809 141.854L748.448 141.238C748.585 141.215 748.505 141.234 748.585 141.215L748.8 141.174C748.822 141.161 748.836 141.183 748.858 141.17L749.347 141.082C750.121 141.066 750.937 141.117 751.631 141.553C751.744 141.638 751.8 141.728 751.966 141.655C751.786 141.365 750.521 140.446 750.209 140.237L749.41 139.679C749.204 139.59 749.055 139.497 748.857 139.372C748.822 139.363 748.772 139.332 748.722 139.301C748.722 139.301 748.709 139.279 748.687 139.292L748.588 139.23C748.502 139.19 748.439 139.136 748.34 139.074L747.751 138.758C747.729 138.771 747.729 138.771 747.716 138.749L746.415 138.162L746.394 138.176L745.405 137.799C745.383 137.812 745.369 137.79 745.333 137.781C745.333 137.781 745.333 137.781 745.298 137.772C745.262 137.763 745.262 137.763 745.262 137.763L744.228 137.507C744.228 137.507 744.192 137.498 744.178 137.476L743.635 137.379L743.6 137.371L743.107 137.305L743.071 137.296L739.664 137.399L739.189 137.508C738.49 137.695 737.96 138.055 737.358 138.398L736.35 139.397C736.107 139.734 735.893 140.022 735.749 140.421L735.339 141.947C735.316 142.055 735.308 142.091 735.356 142.216C735.573 142.081 735.759 142.089 736.064 141.899C736.339 141.759 736.512 141.745 736.808 141.592C736.996 141.506 736.989 141.542 737.155 141.469C737.313 141.433 737.4 141.379 737.531 141.298C737.719 141.212 737.768 141.243 738.101 141.098C738.267 141.026 738.202 141.067 738.281 141.048L738.786 140.89C738.887 140.858 738.909 140.844 738.974 140.804L743.184 139.954L744.002 139.911C744.037 139.919 744.073 139.928 744.073 139.928C744.095 139.915 744.095 139.915 744.095 139.915C744.13 139.923 744.13 139.923 744.13 139.923C744.152 139.91 744.152 139.91 744.166 139.932C744.188 139.919 744.223 139.928 744.223 139.928L745.828 139.984C745.935 140.011 746.028 140.015 746.157 140.028C746.307 140.027 746.372 139.987 746.485 140.071Z" fill="white"/>
<path fill-rule="evenodd" clip-rule="evenodd" d="M756.219 156.556C756.371 156.461 756.359 156.345 756.39 156.201L756.532 155.215C756.549 155.049 756.597 155.174 756.472 154.973C756.646 154.864 756.561 154.824 756.596 154.493L756.439 150.405C756.414 150.267 756.435 150.253 756.409 150.114L756.188 148.981C756.144 148.667 756.035 148.394 755.947 148.108C755.838 147.835 755.76 147.418 755.656 147.204C755.464 146.796 755.229 146.322 755.094 145.91C754.977 145.673 754.51 144.971 754.371 144.748C754.232 144.524 754.149 144.39 754.002 144.202C753.855 144.015 753.715 143.885 753.582 143.72C753.477 143.599 753.526 143.63 753.399 143.523C753.286 143.439 753.294 143.403 753.181 143.318L751.938 142.386C751.938 142.386 751.938 142.386 751.924 142.364L751.654 142.221C751.228 142.021 750.78 141.835 750.323 141.778L749.958 141.726C749.958 141.726 749.958 141.726 749.936 141.739L749.493 141.705C749.414 141.723 749.4 141.701 749.32 141.719L747.897 141.953C747.55 142.075 747.811 141.913 747.253 142.229C747.371 142.466 747.301 142.354 747.4 142.417L747.436 142.425L748.164 142.965C748.29 143.072 748.467 143.21 748.594 143.317L750.032 144.563C750.145 144.647 750.159 144.67 750.258 144.732L751.081 145.522C751.158 145.598 751.194 145.607 751.271 145.683C751.299 145.728 751.327 145.772 751.376 145.804L751.664 146.121C752.38 146.884 753.275 148.033 753.787 148.954L754.486 150.225C754.729 150.663 754.808 150.985 755.064 151.446L754.308 150.18C754.01 149.653 752.97 148.222 752.55 147.74C752.48 147.628 752.361 147.485 752.284 147.409C752.165 147.266 752.115 147.235 751.996 147.092C751.443 146.444 750.838 145.859 750.197 145.266L749.753 144.891C749.386 144.592 748.922 144.136 748.597 143.905C748.01 143.495 747.419 142.932 746.802 142.571L746.342 142.268C746.172 142.188 746.321 142.282 746.194 142.175L746.085 142.242C746.174 142.435 746.274 143.178 746.227 143.394L746.036 144.009C746.028 144.044 746.012 144.116 746.004 144.152C746.004 144.152 746.004 144.152 745.997 144.188C745.989 144.224 745.981 144.26 745.973 144.296C745.914 144.735 745.942 145.12 746.048 145.582C746.186 146.24 746.348 146.356 746.583 146.83C746.978 147.515 747.71 148.206 748.31 148.639L748.876 149.063C749.096 149.174 749.383 149.491 749.702 149.665L752.307 151.331C752.392 151.371 752.492 151.433 752.555 151.487L754.201 152.727C754.482 152.986 754.786 153.231 755.038 153.539C755.129 153.638 755.171 153.705 755.254 153.839C755.359 153.959 755.367 153.924 755.458 154.022C755.591 154.187 755.804 154.675 755.879 154.845C755.969 155.037 756.14 155.458 756.156 155.727C756.17 155.749 756.17 155.749 756.17 155.749C756.148 155.763 756.162 155.785 756.162 155.785C756.162 155.785 756.176 155.808 756.154 155.821L756.182 155.866C756.16 155.879 756.174 155.902 756.174 155.902C756.174 155.902 756.166 155.938 756.18 155.96L756.175 156.242C756.187 156.359 756.157 156.408 756.219 156.556Z" fill="white"/>
<path d="M737.258 152.316C738.077 152.178 739.13 151.493 739.613 151.007C739.656 150.98 739.686 150.931 739.751 150.89C739.371 150.91 739.036 150.808 738.758 150.361C738.472 149.949 738.385 149.663 738.808 149.276C739.267 148.897 739.747 149.281 740.005 149.648C740.255 150.05 740.224 150.194 740.182 150.467C740.204 150.454 740.226 150.44 740.262 150.449C740.823 149.945 742.076 148.949 742.895 148.812C742.632 148.728 742.503 148.715 742.245 148.348C741.995 147.946 741.826 147.431 742.305 147.133C742.791 146.8 743.202 147.072 743.452 147.474C743.702 147.877 743.691 148.101 743.606 148.401C743.956 148.091 745.97 147.738 745.021 146.406C744.292 145.96 744.725 145.784 744.995 145.926C745.492 146.144 745.681 146.739 745.681 146.739C746.097 148.186 745.357 148.646 744.839 149.123L745.558 150.474C745.572 150.496 745.586 150.518 745.599 150.541C746.129 150.956 746.466 151.304 746.762 151.585C746.762 151.585 747.174 151.763 747.796 151.841C748.123 151.979 748.365 152.077 748.527 152.193C749.158 152.576 749.234 153.086 749.061 153.1C748.933 153.087 748.544 152.802 748.415 152.789C747.336 152.654 745.884 152.503 745.884 152.503C745.665 152.298 745.433 152.07 745.116 151.802C745.176 152.044 745.178 152.29 745.188 152.501C745.219 152.792 745.29 153.151 745.433 153.527L745.924 154.461C745.924 154.461 746.188 154.886 746.303 155.218C746.405 155.526 746.101 156.056 745.986 156.066C745.907 156.084 745.825 155.515 745.825 155.515C744.702 154.291 744.015 153.478 743.925 152.604C743.873 151.986 743.814 151.309 743.139 150.272C742.648 150.113 741.985 150.649 741.431 151.117L742.563 152.986C742.577 153.008 742.569 153.044 742.569 153.044C743.388 154.023 743.484 154.614 744.128 155.02C744.511 155.247 745.116 155.832 745.38 156.256C745.541 156.466 745.69 156.901 745.504 156.892C745.375 156.879 745.315 156.638 745.208 156.611C745.123 156.571 745.002 156.522 744.867 156.451C744.52 156.233 743.508 155.963 743.149 155.628C742.762 155.249 742.391 154.798 742.02 154.346C742.022 154.593 742.033 154.803 742.037 154.956C742.047 155.166 742.051 155.319 742.065 155.341C742.099 155.444 742.559 155.747 742.708 155.841C743.019 156.05 743.84 156.594 743.781 157.033C743.799 157.208 743.75 157.518 743.657 157.513C743.564 157.509 743.349 157.116 743.228 157.067C742.836 156.97 742.354 156.68 742.14 156.627C741.377 156.079 741.023 156.237 740.86 155.781C740.764 155.53 740.776 155.306 740.753 154.979C740.753 154.638 740.726 154.158 740.626 153.415L739.724 152.643C739.469 152.863 739.243 153.035 738.968 153.175C738.903 153.215 738.845 153.22 738.78 153.26C738.614 153.333 738.434 153.383 738.24 153.41C739.2 154.518 740.025 155.555 740.025 155.555C740.353 156.033 740.355 156.28 740.289 156.755C740.189 157.468 740.16 158.199 739.986 158.648C739.941 158.769 740.104 159.226 740.039 159.266C739.965 159.343 739.577 159.057 739.43 158.87C739.235 158.557 739.298 156.813 739.123 156.24L738.78 155.833C738.769 156.398 738.648 156.69 738.603 156.811L738.581 156.825C738.52 157.018 738.36 157.148 738.158 157.212L736.456 156.998C736.118 157.085 736.025 157.421 735.932 157.077C735.838 156.732 736.045 156.386 736.384 156.3L737.479 156.022C737.51 155.878 737.522 155.654 737.478 155.341L736.375 153.857C735.265 153.771 735.105 153.561 734.894 153.32C734.644 152.918 734.485 152.613 734.404 152.385C734.287 152.148 734.197 151.956 734.227 151.906C734.286 151.807 734.464 151.851 734.71 152.102C734.837 152.209 734.947 152.482 735.079 152.647C735.328 153.144 736.348 153.037 736.565 152.561C736.337 152.485 736.208 152.472 735.972 152.092C735.728 151.748 735.622 151.287 736.016 150.949C736.423 150.634 736.901 150.771 737.179 151.218C737.465 151.629 737.408 151.975 737.258 152.316ZM738.603 156.811L738.611 156.775C738.589 156.789 738.603 156.811 738.581 156.825L738.603 156.811Z" fill="white"/>
<path d="M1007.1 497.01L272.368 505.963C106.634 494.321 16.1499 463.859 16.1499 463.859C16.1499 463.859 66.6956 518.852 82.2332 548.205C82.2332 548.205 129.815 649.265 222.072 688.985H885.287C885.315 688.985 958.959 634.99 1007.1 497.01Z" fill="#CBE3DE"/>
<path opacity="0.5" d="M904.342 584.211C883.598 588.258 863.02 593.136 842.358 597.709C819.426 602.809 796.382 607.522 773.339 612.012C726.366 621.159 679.199 629.197 631.866 636.321C615.359 638.787 598.825 641.033 582.345 643.638C567.611 645.966 552.821 648.101 537.893 648.71C524.82 649.237 510.141 649.182 498.121 643.306C492.388 640.506 488.15 636.154 486.184 629.973C483.719 622.268 484.799 613.786 486.239 605.969C487.458 599.317 489.009 592.72 490.228 586.04C491.529 579.055 492.776 572.07 494.382 565.141C496.044 557.879 498.038 550.617 500.891 543.715C503.162 538.227 506.07 532.628 510.501 528.525C514.933 524.451 520.86 522.705 526.676 521.79C534.542 520.57 542.601 520.681 550.522 521.097C558.776 521.513 567.002 522.344 575.227 523.037C584.007 523.758 592.815 523.73 601.622 523.98C649.98 525.421 698.199 530.077 746.557 531.519C770.597 532.24 794.665 531.99 818.706 532.018C842.718 532.045 866.759 531.962 890.771 531.408C914.396 530.854 937.966 529.717 961.535 527.888C973.002 527.001 984.8 526.668 996.377 525.338C1000.03 516.329 1003.63 506.933 1007.07 497.065L272.341 506.018C106.606 494.377 16.1226 463.915 16.1226 463.915C16.1226 463.915 33.7374 483.068 51.3799 504.799C51.6846 504.826 51.9892 504.826 52.2939 504.854C64.1756 505.63 76.0019 507.127 87.7729 508.984C100.319 510.98 112.727 513.696 125.301 515.553C150.117 519.184 175.127 521.18 199.832 525.67C208.058 527.167 217.087 528.47 224.177 533.265C228.664 536.286 232.098 540.278 234.896 544.851C240.629 554.22 246.029 563.783 251.209 573.456C257.8 585.791 264.087 598.375 269.294 611.374C271.538 616.946 273.587 622.628 275.027 628.476C276.08 632.634 276.966 637.097 276.523 641.421C276.108 645.412 274.252 647.962 270.541 649.597C264.392 652.286 256.969 651.815 250.489 651.094C242.706 650.235 235.062 648.516 227.445 646.743C220.106 645.024 212.683 643.804 205.288 642.391C183.297 638.15 161.556 632.579 139.399 629.225C160.974 652.064 188.587 674.627 222.128 689.04H885.343C885.343 689.04 930.543 655.862 973.278 575.147C950.069 576.172 926.915 579.804 904.342 584.211Z" fill="#CBE3DE"/>
<g opacity="0.5">
<path d="M487.07 601.895L272.535 604.5C270.402 604.362 268.325 604.195 266.22 604.029C266.746 605.221 267.245 606.413 267.743 607.605C269.294 607.716 270.845 607.826 272.424 607.937L486.405 605.332C486.599 604.195 486.849 603.031 487.07 601.895Z" fill="#B1D1CA"/>
<path d="M842.358 597.709C836.93 598.929 831.473 600.038 826.045 601.202L959.375 599.567C960.067 598.402 960.76 597.266 961.48 596.074L843.134 597.515C842.884 597.598 842.607 597.654 842.358 597.709Z" fill="#B1D1CA"/>
<path d="M924.727 648.96C925.668 647.823 926.61 646.659 927.552 645.467L272.535 653.45C225.672 650.152 184.793 645.329 150.228 640.118C151.668 641.504 153.136 642.89 154.631 644.248C188.255 649.209 227.611 653.755 272.396 656.887L924.727 648.96Z" fill="#B1D1CA"/>
<path d="M497.678 552.779L272.535 555.523C261.234 554.719 250.294 553.832 239.687 552.889C240.407 554.109 241.127 555.329 241.847 556.548C251.735 557.435 261.927 558.239 272.424 558.987L496.681 556.243C496.985 555.079 497.318 553.943 497.678 552.779Z" fill="#B1D1CA"/>
</g>
<path d="M271.925 518.076L271.288 518.02C126.575 507.848 26.7578 479.52 3.71446 472.479C0.917134 471.62 -0.523071 468.904 0.529387 466.437L6.4564 452.495C7.45346 450.139 10.3616 448.947 13.0481 449.751C35.122 456.458 132.225 483.927 272.812 493.85L1015.27 484.786C1018.15 484.758 1020.53 486.81 1020.56 489.387L1020.78 504.272C1020.81 506.85 1018.51 508.956 1015.63 508.984L271.925 518.076Z" fill="#E3EDEB"/>
<path opacity="0.5" d="M647.32 509.15C628.958 507.986 610.568 507.709 592.205 506.85C573.676 505.991 555.064 504.577 536.812 501.084C527.811 499.366 518.921 497.093 510.279 494.072C507.51 493.102 504.795 492.187 502.164 491.106L272.811 493.906C259.351 492.963 246.306 491.854 233.677 490.607C226.06 496.733 217.474 501.639 208.279 505.242C202.934 507.321 197.477 509.012 191.938 510.315C216.533 513.391 243.038 516.08 271.288 518.048L271.925 518.103L700.996 512.865C683.104 511.7 665.212 510.287 647.32 509.15Z" fill="#E3EDEB"/>
<path d="M959.375 599.567C960.067 598.402 960.76 597.266 961.48 596.074L272.535 604.473C201.965 599.511 144.91 591.085 102.729 583.047C103.615 584.377 104.529 585.708 105.471 587.093C147.486 594.938 203.571 603.087 272.424 607.91L959.375 599.567Z" fill="#B1D1CA"/>
<path d="M924.727 648.96C925.668 647.823 926.61 646.659 927.552 645.467L272.535 653.45C225.672 650.152 184.793 645.329 150.228 640.118C151.668 641.504 153.136 642.89 154.631 644.248C188.255 649.209 227.611 653.755 272.396 656.887L924.727 648.96Z" fill="#B1D1CA"/>
<path d="M272.535 555.523C180.694 549.064 111.675 536.702 68.6345 527.056C69.6593 528.47 70.6563 529.883 71.6257 531.269C115.081 540.832 182.965 552.668 272.396 558.96L985.52 550.256C986.046 549.092 986.6 547.956 987.126 546.791L272.535 555.523Z" fill="#B1D1CA"/>
<path d="M540.54 683.699C501.361 657.716 490.631 604.928 516.581 565.765L545.261 522.478C564.587 493.307 599.827 478.956 634.066 486.335L654.784 490.795L682.841 468.913L673.612 503.31L685.789 520.668C717.62 557.417 786.411 637.471 731.757 701.239C688.972 751.17 587.36 737.754 540.54 683.699Z" fill="#838C8A"/>
<path opacity="0.5" d="M523.126 641.724C522.654 627.135 524.972 612.256 529.282 598.365C537.728 571.101 555.048 547.187 577.743 529.986C586.215 523.565 595.819 518.62 605.697 514.795C616.666 510.538 628.246 507.621 639.954 506.501C653.362 505.228 667.412 506.516 679.603 511.835L673.594 503.289L682.823 468.892L654.766 490.774L634.048 486.314C599.808 478.935 564.59 493.268 545.243 522.457L516.563 565.744C492.967 601.364 499.716 648.286 530.637 676.032C526.09 665.156 523.522 653.519 523.126 641.724Z" fill="#838C8A"/>
<path opacity="0.5" d="M707.934 557.995C708.854 570.436 709.792 582.899 710.081 595.373C710.677 620.343 708.517 645.939 697.962 668.906C693.757 678.012 688.404 686.426 681.63 693.833C675.345 700.707 668.082 706.705 660.294 711.8C647.853 719.9 633.678 725.87 618.946 728.363C661.51 737.993 706.731 730.47 731.778 701.221C776.128 649.458 739.199 586.983 706.694 545.649C707.167 549.749 707.641 553.849 707.934 557.995Z" fill="#838C8A"/>
<path d="M644.411 678.657C633.253 688.322 619.734 695.008 604.827 698.019C582.068 702.624 558.861 698.083 539.506 685.255C520.132 672.406 506.936 652.814 502.295 630.028C497.673 607.262 502.195 584.056 515.007 564.709L543.687 521.422C563.585 491.389 599.208 476.888 634.434 484.476L654.301 488.757L686.101 463.962L675.662 502.927L687.361 519.564C708.08 549.068 708.616 587.548 688.718 617.581L660.038 660.868C655.573 667.558 650.315 673.543 644.411 678.657ZM561.85 506.349C556.198 511.245 551.133 516.989 546.821 523.474L518.14 566.762C505.859 585.283 501.547 607.463 505.963 629.271C510.4 651.06 523.027 669.826 541.556 682.123C560.085 694.419 582.266 698.749 604.067 694.35C625.851 689.929 644.605 677.316 656.886 658.794L685.566 615.507C704.606 586.768 704.088 549.959 684.28 521.718L671.585 503.635L679.584 473.825L655.249 492.813L633.661 488.152C607.567 482.519 581.257 489.54 561.85 506.349Z" fill="#BBCCC8"/>
<path d="M686.122 463.944L670.21 476.37C670.632 477.618 671.095 478.83 671.598 480.045L679.605 473.806L675.669 488.51C676.522 490.045 677.396 491.561 678.333 493.023L686.122 463.944Z" fill="#BBCCC8"/>
<g opacity="0.5">
<path d="M720.223 600.779C725.369 610.697 730.357 619.797 733.534 630.614C733.724 631.256 734.778 631.077 734.609 630.416C731.819 619.962 727.556 608.949 720.574 600.549C720.431 600.342 720.102 600.554 720.223 600.779Z" fill="#838C8A"/>
<path d="M719.673 625.018C726.175 636.585 730.64 648.889 732.768 662.007C732.864 662.583 733.741 662.411 733.645 661.834C731.425 648.612 726.981 636.29 719.937 624.9C719.849 624.756 719.606 624.856 719.673 625.018Z" fill="#838C8A"/>
<path d="M720.585 644.177C725.698 630.874 727.503 615.486 727.865 601.311C727.874 600.643 726.857 600.57 726.849 601.237C726.057 615.932 723.185 629.75 720.45 644.147C720.405 644.222 720.541 644.252 720.585 644.177Z" fill="#838C8A"/>
<path d="M725.359 657.937C725.371 658.036 725.405 658.117 725.417 658.216C725.415 658.255 725.451 658.297 725.511 658.282C727.621 658.434 728.994 654.054 729.768 652.578C731.643 648.863 733.277 644.954 734.351 640.907C734.54 640.193 733.468 639.802 733.24 640.512C732.318 643.255 731.492 646.024 730.377 648.713C729.903 649.857 729.41 650.981 728.897 652.122C728.546 652.902 725.676 658.176 725.464 657.846C725.424 657.843 725.362 657.898 725.359 657.937Z" fill="#838C8A"/>
<path d="M603.178 709.018C616.261 716.168 631.31 719.964 646.09 721.207C646.851 721.281 646.935 720.108 646.174 720.034C631.024 718.745 617.232 714.667 603.25 708.846C603.174 708.801 603.085 708.952 603.178 709.018Z" fill="#838C8A"/>
<path d="M626.397 708.708C642.216 711.911 658.088 712.172 674.029 709.805C674.863 709.669 674.622 708.374 673.787 708.511C658.046 711.108 642.16 711.043 626.406 708.591C626.346 708.606 626.337 708.723 626.397 708.708Z" fill="#838C8A"/>
<path d="M619.529 722.945C630.953 719.467 640.022 710.181 645.774 700.028C646.268 699.16 644.974 698.301 644.48 699.169C638.513 710.132 630.054 716.652 619.443 722.762C619.381 722.816 619.409 722.975 619.529 722.945Z" fill="#838C8A"/>
<path d="M659.554 718.602C664.541 715.603 668.014 711.237 670.13 705.811C670.42 705.047 669.192 704.644 668.94 705.411C667.131 710.683 663.855 715.023 659.466 718.458C659.364 718.51 659.452 718.654 659.554 718.602Z" fill="#838C8A"/>
<path d="M526.625 585.778C544.55 597.167 563.114 607.601 581.085 618.914C581.667 619.29 582.281 618.392 581.699 618.016C563.72 606.819 545.607 595.299 526.735 585.61C526.62 585.562 526.531 585.713 526.625 585.778Z" fill="#838C8A"/>
<path d="M550.812 583.457C569.384 594.872 587.694 606.662 606.09 618.341C606.597 618.672 607.104 617.903 606.618 617.554C588.552 605.369 569.834 594.08 550.922 583.288C550.808 583.24 550.698 583.409 550.812 583.457Z" fill="#838C8A"/>
<path d="M539.435 557.631C553.668 566.828 568.206 576.421 583.539 583.675C584.033 583.907 584.405 583.109 583.952 582.841C569.508 573.863 554.208 566.141 539.543 557.501C539.431 557.415 539.342 557.565 539.435 557.631Z" fill="#838C8A"/>
<path d="M534.028 613.066C544.889 591.594 554.893 569.471 564.576 547.442C564.834 546.852 563.913 546.55 563.637 547.119C553.234 568.781 543.003 590.77 533.82 612.953C533.773 613.067 533.981 613.18 534.028 613.066Z" fill="#838C8A"/>
<path d="M550.553 620.131C556.9 609.353 562.237 597.873 567.941 586.735C568.26 586.129 567.361 585.514 567.043 586.12C561.449 597.345 555.351 608.494 550.421 620.062C550.394 620.158 550.509 620.206 550.553 620.131Z" fill="#838C8A"/>
<path d="M592.552 617.305C599.548 604.315 606.601 591.349 613.808 578.433C614.168 577.791 613.214 577.113 612.833 577.773C605.497 590.582 598.517 603.632 591.973 616.89C591.786 617.309 592.347 617.703 592.552 617.305Z" fill="#838C8A"/>
</g>
<path d="M682.95 475.383L676.797 471.325C676.196 470.929 676.02 470.091 676.417 469.491L862.437 186.731C863.957 184.424 867.067 183.784 869.374 185.306C871.681 186.827 872.324 189.938 870.804 192.244L684.784 475.005C684.387 475.605 683.568 475.801 682.95 475.383Z" fill="#BBCCC8"/>
<path d="M869.925 184.461C867.168 182.632 863.44 183.405 861.613 186.16L813.431 259.43C813.124 259.88 813.278 260.48 813.709 260.766L822.154 266.286C822.586 266.573 823.204 266.44 823.49 266.009L871.669 192.778C873.457 190.02 872.703 186.272 869.925 184.461Z" fill="#2A2A2A"/>
<path opacity="0.5" d="M865.581 199.921C856.431 213.385 847.235 226.923 837.188 239.733C833.172 244.825 828.996 249.946 824.312 254.479C823.469 255.283 821.542 257.246 820.244 256.17C819.891 255.889 819.895 255.555 819.766 255.153C819.595 254.532 819.303 253.941 819.113 253.299C818.938 252.717 818.764 252.135 818.628 251.555L813.429 259.469C813.122 259.919 813.275 260.519 813.706 260.806L822.152 266.325C822.583 266.612 823.201 266.479 823.487 266.048L871.666 192.817C872.349 191.786 872.67 190.591 872.654 189.431C870.303 192.935 867.951 196.439 865.581 199.921Z" fill="#2A2A2A"/>
<g opacity="0.5">
<path d="M685.863 469.229C688.744 467.944 690.582 463.932 692.233 461.438C695.579 456.376 698.926 451.314 702.273 446.252C707.094 438.958 711.88 431.623 716.683 424.309C718.668 421.27 713.962 418.122 711.996 421.182C707.286 428.561 702.594 435.962 697.941 443.366C694.706 448.515 691.474 453.625 688.239 458.774C686.687 461.255 683.734 464.656 683.749 467.761C683.707 468.897 684.787 469.721 685.863 469.229Z" fill="white"/>
</g>
<g opacity="0.5">
<path d="M718.204 420.058C719.057 419.942 719.568 419.39 720.175 418.864C720.363 418.701 720.57 418.559 720.737 418.414C721.3 417.963 721.57 417.472 721.852 416.824C722.327 415.68 721.753 414.087 720.698 413.461C719.512 412.727 718.281 412.913 717.186 413.679C716.401 414.212 716.058 415.169 715.78 416.033C715.458 416.972 715.301 417.806 715.682 418.795C716.123 419.77 717.252 420.186 718.204 420.058Z" fill="white"/>
</g>
<g opacity="0.5">
<path d="M856.253 203.491C858.506 203.85 860.564 200.601 861.694 199.071C863.669 196.444 866.431 193.795 866.845 190.466C867.188 187.859 864.125 187.029 862.352 188.197C860.58 189.366 859.935 191.245 858.98 193.061C858.091 194.785 857.046 196.497 856.272 198.268C855.853 199.181 854.096 203.159 856.253 203.491Z" fill="white"/>
</g>
<path d="M720.716 441.251C720.716 441.251 705.623 424.827 710.504 420.898C715.385 416.97 723.41 426.215 723.41 426.215C723.41 426.215 714.924 418.806 718.584 415.508C722.245 412.211 730.498 418.606 730.498 418.606C730.498 418.606 722.003 412.374 725.898 408.785C729.782 405.206 737.13 411.494 737.13 411.494C737.13 411.494 728.42 405.597 732.014 402.94C735.609 400.294 746.915 409.976 746.915 409.976C746.915 409.976 731.871 432.179 720.716 441.251Z" fill="#FFB99E"/>
<path d="M832.538 221.379L831.589 221.57C828.516 222.179 825.783 219.545 826.288 216.457C827.887 206.652 830.499 193.916 831.247 192.132L835.067 183.08L851.987 172.326C862.969 179.685 873.912 187.824 880.22 197.759C884.332 202.605 881.441 210.501 875.861 213.581C875.381 213.843 874.903 214.051 874.459 214.174C876.022 218.427 869.679 224.628 866.003 221.425C868.613 226.625 861.973 230.963 858.198 228.109L857.734 228.511C858.656 231.509 857.341 234.804 854.493 236.32C854.449 236.34 854.416 236.36 854.373 236.38C850.774 238.245 845.608 236.606 844.287 232.78L842.501 227.266C841.151 223.043 836.872 220.525 832.538 221.379Z" fill="#FFB99E"/>
</svg>
