<svg width="1920" height="293" viewBox="0 0 1920 293" fill="none" xmlns="http://www.w3.org/2000/svg">
<path opacity="0.5" d="M25.2717 74.6902C54.5209 76.4907 83.7155 78.1276 112.965 79.0551C170.972 80.8557 229.307 83.0927 287.041 75.6177C335.335 69.3977 383.083 60.6132 431.705 56.7938C482.236 52.8108 533.149 54.3931 583.735 52.538C633.612 50.7375 683.215 55.7026 732.873 59.4674C783.514 63.2867 834.318 62.25 885.067 61.9227C935.817 61.5953 986.512 63.505 1037.26 63.6687C1087.25 63.8323 1136.96 61.5953 1186.84 58.7581C1210.96 57.3395 1235.18 56.6302 1259.2 59.1946C1284.35 61.8681 1309.56 64.1597 1334.83 66.3422C1343.4 67.0515 1351.96 67.8154 1360.53 68.5247C1366.42 68.5792 1372.37 68.6338 1378.32 68.7429C1417.17 69.4522 1455.65 72.4531 1494.28 76.327C1536.35 80.5829 1578.81 84.675 1621.1 81.2922C1660.88 78.1276 1699.95 68.8521 1739.68 65.1418C1759.11 63.3413 1778.7 62.3046 1798.18 63.6141C1819.24 65.0327 1840.09 69.2885 1861.04 71.7984C1886.85 74.9084 1912.83 76.9818 1938.75 76.8181V-223H-29.2432V75.1267C-11.1807 73.2716 7.0455 73.5989 25.2717 74.6902Z" fill="#5A5A5A"/>
<path opacity="0.5" d="M25.2717 115.69C54.5209 117.491 83.7155 119.128 112.965 120.055C170.972 121.856 229.307 124.093 287.041 116.618C335.335 110.398 383.083 101.613 431.705 97.7938C482.236 93.8108 533.149 95.3931 583.735 93.538C633.612 91.7375 683.215 96.7026 732.873 100.467C783.514 104.287 834.318 103.25 885.067 102.923C935.817 102.595 986.512 104.505 1037.26 104.669C1087.25 104.832 1136.96 102.595 1186.84 99.7581C1210.96 98.3395 1235.18 97.6302 1259.2 100.195C1284.35 102.868 1309.56 105.16 1334.83 107.342C1343.4 108.051 1351.96 108.815 1360.53 109.525C1366.42 109.579 1372.37 109.634 1378.32 109.743C1417.17 110.452 1455.65 113.453 1494.28 117.327C1536.35 121.583 1578.81 125.675 1621.1 122.292C1660.88 119.128 1699.95 109.852 1739.68 106.142C1759.11 104.341 1778.7 103.305 1798.18 104.614C1819.24 106.033 1840.09 110.289 1861.04 112.798C1886.85 115.908 1912.83 117.982 1938.75 117.818V-182H-29.2432V116.127C-11.1807 114.272 7.0455 114.599 25.2717 115.69Z" fill="#DADADA"/>
<g opacity="0.6">
<path d="M1226.34 293.123C1226.24 292.577 1226.07 292.141 1225.69 291.814C1225.03 291.159 1224.05 291.213 1223.29 291.541C1221 292.414 1217.61 297.433 1221.27 298.688C1221.82 298.852 1222.42 298.797 1222.96 298.525C1224.93 298.579 1226.73 295.687 1226.51 293.941C1226.45 293.56 1226.4 293.287 1226.34 293.123Z" fill="#636363"/>
<path d="M1308.91 289.577C1307.6 289.577 1306.02 292.632 1307.82 292.632C1309.18 292.578 1310.76 289.577 1308.91 289.577Z" fill="#636363"/>
<path d="M1375.43 275.609C1375.32 275.009 1375.21 274.9 1374.83 274.408C1374.77 274.354 1374.17 273.699 1374.56 274.19C1373.74 273.154 1372.59 273.208 1371.5 273.917C1369.97 274.845 1368.83 276.591 1368.93 278.391C1368.99 279.374 1369.32 280.083 1370.19 280.519C1370.35 281.229 1370.84 281.829 1371.77 281.774C1373.9 281.611 1374.94 279.21 1375.37 277.409C1375.43 276.809 1375.54 276.209 1375.43 275.609Z" fill="#636363"/>
<path d="M1118.02 270.043C1117.92 269.443 1117.81 269.279 1117.42 268.843C1117.37 268.788 1116.77 268.134 1117.15 268.625C1116.33 267.588 1115.19 267.697 1114.04 268.352C1112.51 269.279 1111.37 271.025 1111.48 272.826C1111.53 273.808 1111.86 274.517 1112.73 274.954C1112.89 275.663 1113.39 276.263 1114.31 276.209C1116.44 276.045 1117.53 273.644 1117.92 271.844C1118.02 271.244 1118.19 270.644 1118.02 270.043Z" fill="#636363"/>
<path d="M1618.15 263.932C1617.12 262.023 1614.61 264.751 1614.22 265.842C1614.01 266.497 1613.73 267.261 1614.17 267.915C1615.37 269.825 1617.77 267.151 1618.21 265.951C1618.48 265.242 1618.54 264.587 1618.15 263.932Z" fill="#636363"/>
<path d="M1528.99 269.116C1528.93 269.116 1528.82 269.116 1528.77 269.061C1527.46 268.843 1526.26 269.989 1525.66 271.025C1525.17 271.898 1524.78 274.19 1526.53 273.917C1526.64 273.917 1526.69 273.863 1526.8 273.863C1527.9 273.699 1528.82 272.881 1529.37 271.953C1529.81 271.189 1530.3 269.334 1528.99 269.116Z" fill="#636363"/>
<path d="M1683.8 275.99C1683.64 275.936 1683.47 275.936 1683.25 275.881C1681.73 275.772 1680.14 277.955 1680.03 279.319C1679.98 279.864 1680.03 280.301 1680.25 280.847C1680.8 281.883 1682.11 281.556 1682.87 281.065C1684.07 280.355 1684.78 279.21 1685.06 277.846C1685.06 277.791 1685.06 277.791 1685.06 277.736C1685.44 276.645 1684.67 276.045 1683.8 275.99Z" fill="#636363"/>
<path d="M1802.32 264.26C1802.16 263.55 1802.05 263.387 1801.62 262.841C1801.51 262.732 1800.85 262.023 1801.29 262.568C1800.31 261.313 1798.94 261.423 1797.63 262.241C1795.83 263.332 1794.47 265.406 1794.58 267.588C1794.63 268.734 1795.07 269.607 1796.05 270.152C1796.27 271.025 1796.81 271.735 1797.9 271.626C1800.41 271.407 1801.67 268.57 1802.22 266.442C1802.38 265.678 1802.49 264.969 1802.32 264.26Z" fill="#636363"/>
<path d="M1906.17 280.192C1906.01 279.428 1905.84 279.264 1905.41 278.664C1905.3 278.555 1904.59 277.791 1905.08 278.391C1904.04 277.027 1902.57 277.191 1901.2 278.009C1899.29 279.21 1897.82 281.392 1897.93 283.684C1897.99 284.884 1898.42 285.812 1899.51 286.412C1899.73 287.34 1900.33 288.049 1901.48 287.994C1904.15 287.776 1905.52 284.721 1906.06 282.483C1906.17 281.72 1906.28 280.956 1906.17 280.192Z" fill="#636363"/>
</g>
<g opacity="0.6">
<path d="M1084.35 110.722C1084.25 110.231 1084.08 109.74 1083.7 109.413C1083.05 108.758 1082.06 108.813 1081.3 109.14C1079.01 110.013 1075.62 115.033 1079.28 116.342C1079.83 116.506 1080.43 116.451 1080.97 116.179C1082.94 116.233 1084.74 113.341 1084.52 111.65C1084.46 111.159 1084.41 110.886 1084.35 110.722Z" fill="#636363"/>
<path d="M1148.42 174.996C1147.66 173.578 1145.8 175.597 1145.53 176.415C1145.36 176.906 1145.15 177.506 1145.47 177.943C1146.35 179.361 1148.15 177.343 1148.47 176.47C1148.64 175.978 1148.64 175.487 1148.42 174.996Z" fill="#636363"/>
<path d="M1419.79 186.673C1418.65 184.654 1416.03 187.546 1415.65 188.691C1415.43 189.401 1415.1 190.219 1415.54 190.928C1416.79 192.947 1419.36 190.11 1419.85 188.801C1420.18 188.091 1420.18 187.382 1419.79 186.673Z" fill="#636363"/>
<path d="M1350.93 121.198C1349.89 119.288 1347.38 122.017 1347 123.108C1346.78 123.763 1346.51 124.526 1346.94 125.181C1348.14 127.091 1350.54 124.417 1350.98 123.217C1351.25 122.508 1351.31 121.853 1350.93 121.198Z" fill="#636363"/>
<path d="M1338.7 203.259C1337.78 201.622 1335.65 203.968 1335.32 204.896C1335.1 205.442 1334.88 206.151 1335.26 206.697C1336.3 208.333 1338.38 205.987 1338.76 205.005C1338.98 204.405 1338.98 203.859 1338.7 203.259Z" fill="#636363"/>
<path d="M1471.09 162.829C1470.16 161.192 1468.03 163.538 1467.7 164.466C1467.49 165.011 1467.27 165.721 1467.65 166.266C1468.69 167.903 1470.76 165.557 1471.14 164.575C1471.36 163.975 1471.42 163.429 1471.09 162.829Z" fill="#636363"/>
<path d="M1096.91 183.344C1096.14 183.617 1095.16 184.708 1095.38 185.581C1095.43 185.69 1095.43 185.745 1095.43 185.854C1095.87 187.545 1097.78 185.472 1098 184.654C1098 184.544 1098.05 184.435 1098.05 184.272C1098.22 183.508 1097.56 183.126 1096.91 183.344Z" fill="#636363"/>
<path d="M1171.94 147.988C1170.63 147.988 1169.05 151.044 1170.85 151.044C1172.21 150.989 1173.74 147.988 1171.94 147.988Z" fill="#636363"/>
<path d="M1184.16 166.594C1184 166.648 1183.83 166.648 1183.67 166.648C1182.8 166.648 1181.98 167.521 1181.6 168.176C1181.38 168.558 1181.11 169.376 1181.32 169.922C1181.32 170.468 1181.54 170.959 1182.2 171.177C1183.02 171.504 1184.05 170.631 1184.49 170.031C1184.93 169.431 1185.36 168.831 1185.36 168.067C1185.47 167.358 1185.14 166.43 1184.16 166.594Z" fill="#636363"/>
<path d="M1075.95 204.732C1075.62 204.023 1074.86 204.078 1074.15 204.514C1073.93 204.46 1073.66 204.46 1073.33 204.623C1071.86 205.333 1070.88 207.079 1071.59 208.661C1071.8 209.097 1072.19 209.534 1072.68 209.643C1073.39 209.752 1074.1 209.588 1074.86 208.879C1075.79 207.952 1076.93 205.987 1075.95 204.732Z" fill="#636363"/>
<path d="M1303.56 157.591C1303.51 157.591 1303.4 157.591 1303.34 157.536C1302.03 157.318 1300.83 158.409 1300.23 159.501C1299.74 160.374 1299.41 162.665 1301.1 162.392C1301.21 162.392 1301.27 162.392 1301.38 162.338C1302.47 162.174 1303.4 161.356 1303.94 160.428C1304.32 159.664 1304.82 157.864 1303.56 157.591Z" fill="#636363"/>
<path d="M989.022 153.171C988.258 152.79 987.494 152.571 986.621 152.571C985.53 152.571 984.274 153.553 983.674 154.317C982.965 155.19 982.474 156.227 982.637 157.373C982.692 157.809 982.856 158.137 983.129 158.464C983.183 159.01 983.401 159.555 983.947 159.992C984.984 160.701 986.457 160.701 987.603 160.374C989.568 159.828 991.259 157.536 991.15 155.518C991.041 154.317 989.95 153.663 989.022 153.171Z" fill="#636363"/>
<path d="M907.932 123.053C907.004 122.617 906.076 122.344 905.04 122.344C903.73 122.344 902.257 123.49 901.493 124.472C900.674 125.509 900.074 126.764 900.183 128.073C900.238 128.564 900.456 129.001 900.729 129.382C900.783 130.092 901.056 130.747 901.711 131.183C902.966 132.056 904.712 132.056 906.076 131.62C908.423 130.965 910.442 128.237 910.333 125.836C910.387 124.363 909.078 123.599 907.932 123.053Z" fill="#636363"/>
<path d="M1132.98 203.969C1132.92 203.86 1132.87 203.751 1132.76 203.641C1131.99 202.441 1129.87 204.951 1130.85 205.606C1130.96 205.66 1131.07 205.715 1131.12 205.824C1131.99 206.369 1133.47 204.787 1132.98 203.969Z" fill="#636363"/>
<path d="M963.374 210.462C962.938 210.243 962.774 210.025 962.556 209.534C962.447 209.316 962.228 209.152 961.956 209.098C961.846 209.098 961.737 209.098 961.628 209.043C960.973 208.934 960.373 209.316 959.991 209.861C958.9 211.28 958.736 213.026 960.373 214.117C962.174 215.263 964.957 211.335 963.374 210.462Z" fill="#636363"/>
<path d="M1252.65 121.526C1252.54 120.925 1252.43 120.762 1252.05 120.325C1251.99 120.271 1251.39 119.616 1251.77 120.107C1250.96 119.07 1249.81 119.125 1248.66 119.834C1247.14 120.762 1245.99 122.508 1246.1 124.308C1246.15 125.29 1246.48 126 1247.35 126.436C1247.52 127.145 1248.01 127.746 1248.94 127.691C1251.06 127.527 1252.16 125.127 1252.54 123.326C1252.7 122.726 1252.81 122.126 1252.65 121.526Z" fill="#636363"/>
<path d="M952.461 97.0817C952.351 96.4815 952.242 96.3724 951.86 95.8813C951.806 95.8267 951.206 95.172 951.587 95.663C950.769 94.6264 949.623 94.7355 948.477 95.3902C946.949 96.3178 945.803 98.0638 945.912 99.9189C945.967 100.901 946.294 101.61 947.167 102.047C947.331 102.756 947.822 103.356 948.75 103.302C950.878 103.138 951.969 100.683 952.351 98.9368C952.461 98.282 952.624 97.6818 952.461 97.0817Z" fill="#636363"/>
<path d="M1003.16 229.612C1002.99 228.903 1002.88 228.739 1002.45 228.194C1002.34 228.085 1001.68 227.375 1002.12 227.921C1001.14 226.666 999.772 226.775 998.463 227.594C996.662 228.685 995.298 230.758 995.407 232.941C995.461 234.086 995.898 234.959 996.88 235.45C997.098 236.323 997.644 237.033 998.735 236.924C1001.25 236.705 1002.56 233.868 1003.05 231.74C1003.16 231.085 1003.26 230.376 1003.16 229.612Z" fill="#636363"/>
<path d="M1490.3 132.656C1490.13 131.947 1490.02 131.783 1489.59 131.238C1489.48 131.129 1488.82 130.419 1489.26 130.965C1488.28 129.71 1486.91 129.819 1485.6 130.637C1483.8 131.729 1482.44 133.802 1482.55 135.985C1482.6 137.13 1483.04 138.003 1484.02 138.549C1484.24 139.422 1484.79 140.131 1485.88 140.022C1488.39 139.804 1489.64 136.967 1490.19 134.839C1490.3 134.075 1490.46 133.366 1490.3 132.656Z" fill="#636363"/>
<path d="M1381.32 137.458C1381.16 136.748 1381.05 136.585 1380.61 136.039C1380.5 135.93 1379.85 135.221 1380.28 135.766C1379.3 134.511 1377.94 134.62 1376.63 135.439C1374.83 136.585 1373.46 138.603 1373.57 140.786C1373.63 141.932 1374.01 142.805 1375.05 143.296C1375.26 144.169 1375.81 144.878 1376.9 144.769C1379.41 144.551 1380.72 141.713 1381.21 139.585C1381.32 138.876 1381.49 138.167 1381.32 137.458Z" fill="#636363"/>
<path d="M1199.39 209.916C1198.51 209.206 1197.2 209.916 1196.55 210.571C1196.11 210.952 1195.68 211.498 1195.35 212.098C1194.97 212.698 1194.75 213.299 1194.8 214.008C1194.86 214.608 1195.24 214.881 1195.62 214.935V214.99C1196.17 215.154 1196.6 214.99 1197.1 214.881C1198.57 214.499 1201.08 211.28 1199.39 209.916Z" fill="#636363"/>
<path d="M1284.52 180.179C1284.35 180.125 1284.19 180.125 1283.97 180.07C1282.44 179.961 1280.86 182.144 1280.75 183.508C1280.7 184.108 1280.75 184.544 1280.97 185.036C1281.51 186.072 1282.82 185.745 1283.59 185.254C1284.79 184.544 1285.5 183.399 1285.77 182.035C1285.77 181.98 1285.77 181.98 1285.77 181.925C1286.1 180.78 1285.39 180.234 1284.52 180.179Z" fill="#636363"/>
<path d="M1569.97 169.922C1568.82 167.903 1566.2 170.795 1565.82 171.941C1565.6 172.65 1565.28 173.469 1565.71 174.178C1566.97 176.197 1569.53 173.359 1570.02 172.05C1570.3 171.341 1570.35 170.631 1569.97 169.922Z" fill="#636363"/>
<path d="M1482.22 98.7731C1481.18 96.8634 1478.67 99.5915 1478.29 100.683C1478.07 101.337 1477.8 102.101 1478.18 102.756C1479.38 104.666 1481.78 101.992 1482.22 100.792C1482.55 100.083 1482.6 99.4278 1482.22 98.7731Z" fill="#636363"/>
<path d="M1531.39 167.958C1530.46 166.321 1528.33 168.667 1528 169.595C1527.79 170.14 1527.57 170.85 1527.95 171.395C1528.99 173.032 1531.06 170.741 1531.44 169.704C1531.66 169.104 1531.66 168.504 1531.39 167.958Z" fill="#636363"/>
<path d="M1629.67 166.921C1628.74 165.284 1626.61 167.631 1626.28 168.558C1626.07 169.104 1625.85 169.813 1626.23 170.359C1627.27 171.996 1629.34 169.649 1629.72 168.667C1629.94 168.067 1629.99 167.521 1629.67 166.921Z" fill="#636363"/>
<path d="M1423.61 111.759C1423.56 111.759 1423.45 111.759 1423.39 111.704C1422.09 111.486 1420.88 112.632 1420.28 113.668C1419.79 114.541 1419.47 116.833 1421.16 116.56C1421.27 116.56 1421.32 116.506 1421.43 116.506C1422.58 116.342 1423.45 115.524 1423.99 114.541C1424.38 113.832 1424.92 111.977 1423.61 111.759Z" fill="#636363"/>
<path d="M1547.87 110.831C1547.7 110.777 1547.54 110.777 1547.32 110.722C1545.79 110.613 1544.21 112.796 1544.1 114.16C1544.05 114.705 1544.1 115.142 1544.32 115.687C1544.87 116.724 1546.18 116.397 1546.94 115.906C1548.14 115.196 1548.85 114.05 1549.12 112.686C1549.12 112.632 1549.12 112.632 1549.12 112.577C1549.5 111.432 1548.74 110.886 1547.87 110.831Z" fill="#636363"/>
<path d="M1747.54 195.566C1747.37 194.857 1747.26 194.693 1746.83 194.147C1746.72 194.038 1746.06 193.329 1746.5 193.929C1745.52 192.674 1744.15 192.783 1742.84 193.602C1741.04 194.748 1739.68 196.766 1739.79 198.949C1739.84 200.095 1740.28 200.968 1741.26 201.513C1741.48 202.386 1742.03 203.096 1743.12 202.987C1745.63 202.768 1746.88 199.931 1747.43 197.803C1747.54 196.985 1747.65 196.275 1747.54 195.566Z" fill="#636363"/>
<path d="M1662.57 102.975C1662.41 102.265 1662.3 102.102 1661.86 101.556C1661.75 101.447 1661.1 100.737 1661.54 101.338C1660.55 100.083 1659.19 100.192 1657.88 101.01C1656.08 102.102 1654.71 104.175 1654.82 106.357C1654.88 107.503 1655.26 108.376 1656.3 108.922C1656.52 109.795 1657.06 110.504 1658.15 110.395C1660.66 110.177 1661.97 107.339 1662.46 105.212C1662.57 104.393 1662.74 103.684 1662.57 102.975Z" fill="#636363"/>
<path d="M1917.36 117.542C1917.19 116.833 1917.08 116.67 1916.65 116.124C1916.54 116.015 1915.88 115.305 1916.32 115.851C1915.34 114.596 1913.97 114.705 1912.66 115.524C1910.86 116.615 1909.5 118.688 1909.61 120.871C1909.66 122.017 1910.1 122.89 1911.08 123.381C1911.3 124.254 1911.85 124.963 1912.94 124.854C1915.45 124.636 1916.7 121.798 1917.25 119.67C1917.36 119.016 1917.47 118.306 1917.36 117.542Z" fill="#636363"/>
<path d="M1912.01 222.356C1911.85 221.647 1911.74 221.483 1911.3 220.937C1911.19 220.828 1910.54 220.119 1910.97 220.665C1909.99 219.41 1908.63 219.519 1907.32 220.337C1905.52 221.483 1904.15 223.502 1904.26 225.684C1904.31 226.83 1904.75 227.703 1905.73 228.249C1905.95 229.122 1906.5 229.831 1907.59 229.722C1910.1 229.504 1911.41 226.666 1911.9 224.538C1912.01 223.775 1912.17 223.065 1912.01 222.356Z" fill="#636363"/>
<path d="M1833.59 132.984C1833.43 132.274 1833.32 132.111 1832.88 131.565C1832.77 131.456 1832.12 130.747 1832.56 131.292C1831.57 130.037 1830.21 130.146 1828.9 130.965C1827.1 132.056 1825.73 134.129 1825.84 136.312C1825.9 137.458 1826.28 138.331 1827.32 138.876C1827.54 139.749 1828.08 140.459 1829.17 140.35C1831.68 140.131 1832.99 137.294 1833.48 135.166C1833.59 134.402 1833.76 133.693 1833.59 132.984Z" fill="#636363"/>
<path d="M1601.45 118.797C1601.29 118.033 1601.13 117.87 1600.69 117.27C1600.58 117.16 1599.87 116.397 1600.36 116.997C1599.33 115.633 1597.85 115.796 1596.49 116.615C1594.58 117.815 1593.11 119.998 1593.21 122.289C1593.27 123.49 1593.71 124.417 1594.8 125.017C1595.02 125.945 1595.62 126.654 1596.76 126.6C1599.44 126.381 1600.8 123.326 1601.35 121.089C1601.45 120.325 1601.62 119.561 1601.45 118.797Z" fill="#636363"/>
<path d="M1772.42 96.6453C1772.26 95.8814 1772.09 95.7177 1771.66 95.1175C1771.55 95.0084 1770.84 94.2445 1771.33 94.8447C1770.29 93.4807 1768.82 93.6443 1767.45 94.4628C1765.54 95.6631 1764.07 97.8456 1764.18 100.137C1764.24 101.338 1764.67 102.265 1765.76 102.811C1765.98 103.738 1766.58 104.448 1767.73 104.393C1770.4 104.175 1771.77 101.119 1772.31 98.8823C1772.42 98.1184 1772.58 97.4091 1772.42 96.6453Z" fill="#636363"/>
<path d="M1721.78 158.136C1720.74 156.227 1718.23 158.955 1717.85 160.046C1717.63 160.701 1717.36 161.465 1717.8 162.119C1719 164.029 1721.4 161.356 1721.83 160.155C1722.11 159.446 1722.11 158.791 1721.78 158.136Z" fill="#636363"/>
<path d="M1838.89 202.714C1838.72 202.659 1838.56 202.659 1838.34 202.605C1836.81 202.495 1835.23 204.678 1835.12 206.042C1835.07 206.588 1835.12 207.024 1835.34 207.57C1835.88 208.606 1837.19 208.279 1837.96 207.788C1839.16 207.079 1839.87 205.933 1840.14 204.569C1840.14 204.569 1840.14 204.514 1840.14 204.46C1840.52 203.314 1839.76 202.714 1838.89 202.714Z" fill="#636363"/>
<path d="M1227.82 186.127C1227.71 186.018 1227.49 185.963 1227.38 185.909C1226.51 185.527 1225.53 186.836 1225.31 187.491C1225.03 188.31 1225.42 189.073 1226.34 188.801C1226.56 188.746 1226.73 188.637 1226.94 188.528C1227.6 188.2 1228.58 186.782 1227.82 186.127Z" fill="#636363"/>
</g>
<g opacity="0.6">
<path d="M986.512 19.822C985.748 18.4034 983.893 20.4222 983.62 21.2406C983.456 21.7317 983.238 22.3319 983.565 22.8229C984.438 24.2416 986.239 22.2228 986.567 21.3498C986.785 20.7496 986.785 20.3131 986.512 19.822Z" fill="#636363"/>
<path d="M1289.7 54.3598C1288.55 52.341 1285.93 55.2328 1285.55 56.3786C1285.28 57.0879 1285.01 57.9063 1285.44 58.6156C1286.75 60.6344 1289.26 57.7972 1289.75 56.4877C1290.03 55.7784 1290.08 55.1237 1289.7 54.3598Z" fill="#636363"/>
<path d="M1208.61 71.0011C1207.68 69.3642 1205.55 71.7104 1205.23 72.638C1205.01 73.1836 1204.79 73.8929 1205.17 74.4385C1206.21 76.0754 1208.28 73.7838 1208.66 72.7471C1208.88 72.1469 1208.88 71.6013 1208.61 71.0011Z" fill="#636363"/>
<path d="M1340.99 30.5707C1340.07 28.9338 1337.94 31.28 1337.61 32.2075C1337.39 32.7532 1337.18 33.4625 1337.56 34.0081C1338.59 35.645 1340.67 33.3533 1341.05 32.3167C1341.27 31.7165 1341.32 31.1163 1340.99 30.5707Z" fill="#636363"/>
<path d="M954.152 0.343255C953.443 0.616065 952.406 1.7073 952.624 2.5803C952.679 2.68942 952.679 2.744 952.679 2.85312C953.116 4.54454 955.025 2.47117 955.244 1.59818C955.244 1.48905 955.298 1.37993 955.298 1.21625C955.462 0.50694 954.862 0.125007 954.152 0.343255Z" fill="#636363"/>
<path d="M1022.31 11.3648C1022.15 11.4193 1021.98 11.4193 1021.82 11.4193C1020.95 11.4193 1020.13 12.2923 1019.74 12.9471C1019.53 13.329 1019.25 14.1474 1019.47 14.6931C1019.47 15.2387 1019.69 15.7297 1020.34 15.948C1021.16 16.2753 1022.2 15.4024 1022.64 14.8022C1023.07 14.202 1023.46 13.6018 1023.51 12.8379C1023.56 12.1286 1023.29 11.2556 1022.31 11.3648Z" fill="#636363"/>
<path d="M936.636 32.2622C936.308 31.5529 935.544 31.6075 934.835 32.044C934.617 31.9894 934.344 31.9894 934.016 32.1531C932.543 32.8624 931.561 34.6084 932.27 36.1907C932.488 36.6271 932.87 37.0636 933.361 37.1728C934.071 37.2819 934.78 37.1182 935.544 36.4089C936.472 35.5359 937.618 33.5171 936.636 32.2622Z" fill="#636363"/>
<path d="M1144.33 36.8998C1144.27 36.8998 1144.16 36.8998 1144.11 36.8452C1142.8 36.627 1141.6 37.7182 1141 38.8094C1140.51 39.6824 1140.13 41.9741 1141.87 41.7012C1141.98 41.7012 1142.03 41.6467 1142.14 41.6467C1143.24 41.483 1144.16 40.6646 1144.71 39.737C1145.15 38.9731 1145.64 37.118 1144.33 36.8998Z" fill="#636363"/>
<path d="M826.733 16.9847C825.969 16.6028 825.205 16.3845 824.332 16.3845C823.24 16.3845 821.985 17.3666 821.385 18.1305C820.676 19.0035 820.184 20.0402 820.294 21.186C820.348 21.6225 820.512 21.9498 820.785 22.2772C820.839 22.8774 821.058 23.423 821.603 23.8049C822.64 24.5142 824.113 24.5143 825.259 24.1869C827.224 23.6413 828.916 21.3496 828.806 19.3309C828.752 18.1305 827.66 17.4757 826.733 16.9847Z" fill="#636363"/>
<path d="M971.069 48.7943C971.014 48.6852 970.96 48.5761 970.905 48.5215C970.141 47.3211 968.013 49.831 968.995 50.4857C969.104 50.5403 969.213 50.5949 969.268 50.704C970.141 51.1405 971.615 49.5582 971.069 48.7943Z" fill="#636363"/>
<path d="M833.281 78.2033C832.845 77.985 832.681 77.7668 832.463 77.3303C832.353 77.112 832.135 76.9484 831.862 76.8938C831.753 76.8938 831.644 76.8938 831.535 76.8392C830.88 76.7301 830.28 77.112 829.898 77.6577C828.806 79.0763 828.643 80.8222 830.28 81.9135C832.081 83.0047 834.864 79.0763 833.281 78.2033Z" fill="#636363"/>
<path d="M1093.47 0.779914C1093.36 0.179732 1093.25 0.0160395 1092.87 -0.420456C1092.81 -0.475018 1092.21 -1.12977 1092.6 -0.638709C1091.78 -1.67539 1090.63 -1.56626 1089.54 -0.911515C1088.01 0.0160387 1086.87 1.76202 1086.97 3.56257C1087.03 4.54468 1087.36 5.25398 1088.23 5.69048C1088.39 6.39979 1088.88 6.99999 1089.81 6.94542C1091.94 6.78174 1092.98 4.38099 1093.41 2.58045C1093.47 1.98027 1093.58 1.3801 1093.47 0.779914Z" fill="#636363"/>
<path d="M878.465 23.3685C878.301 22.6592 878.192 22.4956 877.755 21.9499C877.646 21.8408 876.991 21.1315 877.428 21.7317C876.446 20.4768 875.081 20.5859 873.772 21.4043C871.971 22.5501 870.607 24.5689 870.716 26.7514C870.77 27.8972 871.207 28.7702 872.189 29.3158C872.408 30.1888 872.953 30.8981 874.045 30.789C876.555 30.5707 877.864 27.7335 878.356 25.6056C878.465 24.7872 878.628 24.0779 878.465 23.3685Z" fill="#636363"/>
<path d="M1360.15 0.397977C1359.99 -0.311329 1359.88 -0.475027 1359.38 -1.02065C1359.28 -1.12977 1358.62 -1.83907 1359.06 -1.29345C1358.08 -2.54838 1356.71 -2.43926 1355.4 -1.62083C1353.6 -0.529592 1352.24 1.54378 1352.35 3.72626C1352.4 4.87206 1352.84 5.74505 1353.82 6.23611C1354.04 7.1091 1354.58 7.81841 1355.67 7.70928C1358.18 7.49104 1359.44 4.65381 1359.99 2.52589C1360.2 1.81658 1360.31 1.10728 1360.15 0.397977Z" fill="#636363"/>
<path d="M1251.23 5.19935C1251.06 4.49004 1250.96 4.32637 1250.52 3.78075C1250.41 3.67162 1249.75 2.96231 1250.19 3.56249C1249.21 2.30757 1247.85 2.41671 1246.54 3.23513C1244.73 4.32637 1243.37 6.39973 1243.48 8.58221C1243.53 9.72801 1243.97 10.601 1244.95 11.1466C1245.17 12.0196 1245.72 12.7289 1246.81 12.6198C1249.32 12.4015 1250.63 9.56431 1251.12 7.43639C1251.23 6.61796 1251.34 5.90865 1251.23 5.19935Z" fill="#636363"/>
<path d="M1037.53 54.687C1036.66 53.9777 1035.35 54.687 1034.7 55.3418C1034.26 55.7237 1033.82 56.2693 1033.5 56.8695C1033.11 57.4697 1032.9 58.0699 1032.95 58.7792C1033.01 59.3794 1033.39 59.6522 1033.77 59.7613L1033.71 59.8159C1034.26 59.9795 1034.7 59.8159 1035.19 59.7067C1036.72 59.2702 1039.23 56.0511 1037.53 54.687Z" fill="#636363"/>
<path d="M1125.28 59.4886C1125.12 59.434 1124.95 59.434 1124.74 59.3794C1123.21 59.2703 1121.63 61.4528 1121.52 62.8168C1121.46 63.417 1121.52 63.8535 1121.73 64.3446C1122.28 65.3812 1123.59 65.0539 1124.35 64.5628C1125.55 63.8535 1126.26 62.7077 1126.54 61.3437C1126.54 61.2891 1126.54 61.2891 1126.54 61.2345C1126.86 60.0887 1126.16 59.4886 1125.28 59.4886Z" fill="#636363"/>
<path d="M1439.82 37.6638C1438.67 35.645 1436.05 38.5368 1435.67 39.6826C1435.45 40.3919 1435.13 41.2103 1435.56 41.9196C1436.82 43.9384 1439.38 41.1012 1439.87 39.7917C1440.2 39.0278 1440.2 38.3731 1439.82 37.6638Z" fill="#636363"/>
<path d="M1401.29 35.6449C1400.37 34.008 1398.24 36.3542 1397.91 37.2818C1397.69 37.8274 1397.47 38.5367 1397.86 39.0823C1398.89 40.7192 1400.97 38.4276 1401.35 37.3909C1401.57 36.7907 1401.57 36.2451 1401.29 35.6449Z" fill="#636363"/>
<path d="M1499.57 34.663C1498.65 33.0261 1496.52 35.3723 1496.19 36.2998C1495.97 36.8454 1495.75 37.5548 1496.14 38.1004C1497.17 39.7372 1499.25 37.3911 1499.63 36.4089C1499.85 35.8088 1499.9 35.2631 1499.57 34.663Z" fill="#636363"/>
<path d="M1678.67 29.916C1678.51 29.2067 1678.4 29.043 1677.96 28.4974C1677.85 28.3883 1677.2 27.679 1677.63 28.2246C1676.65 26.9697 1675.29 27.0788 1673.98 27.8972C1672.18 29.043 1670.81 31.0618 1670.92 33.2443C1670.98 34.3901 1671.41 35.2631 1672.39 35.8087C1672.61 36.6817 1673.16 37.391 1674.25 37.2819C1676.76 37.0637 1678.02 34.2264 1678.56 32.0985C1678.67 31.3346 1678.78 30.6253 1678.67 29.916Z" fill="#636363"/>
<path d="M1558.24 -7.29526C1558.07 -8.00456 1557.96 -8.16826 1557.53 -8.71388C1557.42 -8.82301 1556.76 -9.53232 1557.2 -8.93214C1556.22 -10.1871 1554.85 -10.0779 1553.54 -9.25949C1551.74 -8.11369 1550.38 -6.0949 1550.49 -3.91242C1550.54 -2.76662 1550.98 -1.89362 1551.96 -1.348C1552.18 -0.47501 1552.72 0.234299 1553.82 0.125175C1556.33 -0.0930733 1557.58 -2.9303 1558.13 -5.05822C1558.24 -5.87665 1558.34 -6.58595 1558.24 -7.29526Z" fill="#636363"/>
<path d="M1843.14 56.7605C1842.98 56.0512 1842.87 55.8875 1842.43 55.3419C1842.32 55.2328 1841.67 54.5235 1842.11 55.0691C1841.12 53.8142 1839.76 53.9233 1838.45 54.7417C1836.65 55.8875 1835.28 57.9063 1835.39 60.0888C1835.45 61.2346 1835.88 62.1076 1836.87 62.5986C1837.09 63.4716 1837.63 64.1809 1838.72 64.0718C1841.23 63.8536 1842.54 61.0163 1843.03 58.8884C1843.2 58.1791 1843.31 57.4698 1843.14 56.7605Z" fill="#636363"/>
<path d="M1591.69 25.8783C1590.65 23.9686 1588.14 26.6968 1587.76 27.788C1587.54 28.4427 1587.27 29.2066 1587.65 29.8613C1588.85 31.771 1591.25 29.0975 1591.69 27.8971C1592.01 27.1878 1592.01 26.5331 1591.69 25.8783Z" fill="#636363"/>
<path d="M1770.07 37.0635C1769.91 37.0089 1769.75 37.0089 1769.53 36.9544C1768 36.8453 1766.42 39.0277 1766.31 40.3918C1766.25 40.9374 1766.31 41.3739 1766.53 41.9195C1767.07 42.9562 1768.38 42.6288 1769.15 42.1378C1770.35 41.4284 1771.06 40.2826 1771.33 38.9186C1771.33 38.9186 1771.33 38.864 1771.33 38.8095C1771.66 37.6637 1770.95 37.118 1770.07 37.0635Z" fill="#636363"/>
<path d="M1065.97 30.8981C1065.86 30.789 1065.64 30.7344 1065.53 30.6799C1064.66 30.2979 1063.67 31.6074 1063.45 32.2622C1063.18 33.0806 1063.56 33.8444 1064.49 33.5716C1064.71 33.5171 1064.93 33.408 1065.09 33.2988C1065.75 32.9715 1066.73 31.5529 1065.97 30.8981Z" fill="#636363"/>
</g>
<g opacity="0.6">
<path d="M642.779 296.288C643.707 297.925 645.835 295.578 646.163 294.651C646.381 294.105 646.599 293.396 646.217 292.85C645.18 291.214 643.107 293.505 642.725 294.542C642.506 295.142 642.452 295.742 642.779 296.288Z" fill="#636363"/>
<path d="M579.479 273.317C580.406 274.954 582.535 272.608 582.862 271.68C583.08 271.135 583.299 270.425 582.917 269.88C581.88 268.243 579.806 270.534 579.424 271.571C579.206 272.171 579.151 272.717 579.479 273.317Z" fill="#636363"/>
<path d="M891.616 290.013C892.544 290.449 893.471 290.722 894.508 290.722C895.818 290.722 897.291 289.576 898.055 288.594C898.874 287.558 899.474 286.303 899.31 284.939C899.256 284.448 899.037 284.011 898.764 283.629C898.71 282.92 898.437 282.32 897.782 281.829C896.582 280.956 894.835 280.956 893.417 281.392C891.07 282.047 889.051 284.775 889.16 287.176C889.215 288.649 890.47 289.413 891.616 290.013Z" fill="#636363"/>
<path d="M840.375 292.905C840.43 293.014 840.539 293.123 840.593 293.287C841.521 294.76 844.031 291.704 842.831 290.941C842.722 290.886 842.613 290.777 842.449 290.722C841.467 290.013 839.72 291.923 840.375 292.905Z" fill="#636363"/>
<path d="M957.59 292.796C957.645 292.905 957.754 293.014 957.809 293.178C958.736 294.651 961.247 291.596 960.046 290.832C959.937 290.777 959.828 290.668 959.719 290.613C958.682 289.959 956.936 291.814 957.59 292.796Z" fill="#636363"/>
<path d="M783.951 275.445C784.987 276.264 786.57 275.391 787.388 274.681C787.879 274.245 788.425 273.59 788.807 272.881C789.244 272.172 789.571 271.408 789.462 270.589C789.353 269.825 788.971 269.553 788.48 269.443L788.534 269.389C787.88 269.171 787.388 269.334 786.788 269.498C784.933 269.934 781.931 273.754 783.951 275.445Z" fill="#636363"/>
<path d="M707.881 289.631C708.099 289.686 708.263 289.741 708.535 289.741C710.391 289.85 712.246 287.231 712.41 285.648C712.464 284.939 712.41 284.448 712.137 283.848C711.482 282.593 709.954 282.975 708.972 283.575C707.553 284.448 706.68 285.812 706.353 287.394C706.353 287.449 706.353 287.449 706.353 287.503C705.971 288.922 706.844 289.577 707.881 289.631Z" fill="#636363"/>
<path d="M129.827 296.288C130.754 297.925 132.883 295.578 133.21 294.651C133.428 294.105 133.647 293.396 133.265 292.85C132.228 291.214 130.154 293.505 129.772 294.542C129.554 295.142 129.499 295.742 129.827 296.288Z" fill="#636363"/>
<path d="M31.5473 297.324C32.475 298.961 34.6032 296.615 34.9306 295.688C35.1489 295.142 35.3671 294.433 34.9852 293.887C33.9483 292.25 31.8747 294.542 31.4927 295.578C31.2199 296.179 31.2199 296.724 31.5473 297.324Z" fill="#636363"/>
<path d="M378.663 290.013C379.591 290.449 380.519 290.722 381.555 290.722C382.865 290.722 384.338 289.576 385.102 288.594C385.921 287.558 386.521 286.303 386.412 284.939C386.358 284.448 386.139 284.011 385.866 283.629C385.812 282.92 385.539 282.32 384.884 281.829C383.684 280.956 381.937 280.956 380.519 281.392C378.118 282.047 376.098 284.775 376.208 287.23C376.262 288.649 377.517 289.413 378.663 290.013Z" fill="#636363"/>
<path d="M327.423 292.905C327.477 293.014 327.586 293.123 327.641 293.287C328.569 294.76 331.079 291.704 329.878 290.941C329.769 290.886 329.66 290.777 329.551 290.722C328.569 290.013 326.768 291.923 327.423 292.905Z" fill="#636363"/>
<path d="M487.093 264.533C487.147 264.642 487.256 264.751 487.311 264.915C488.239 266.388 490.803 263.332 489.548 262.568C489.439 262.514 489.33 262.405 489.221 262.35C488.239 261.641 486.438 263.551 487.093 264.533Z" fill="#636363"/>
<path d="M519.016 294.869C519.452 295.087 519.616 295.306 519.834 295.797C519.943 296.015 520.162 296.179 520.434 296.233C520.544 296.233 520.653 296.233 520.762 296.288C521.417 296.397 522.017 296.015 522.399 295.469C523.49 294.051 523.654 292.305 522.017 291.214C520.271 290.068 517.433 293.996 519.016 294.869Z" fill="#636363"/>
<path d="M270.998 275.445C272.035 276.264 273.617 275.391 274.436 274.681C274.927 274.245 275.473 273.59 275.855 272.881C276.291 272.172 276.619 271.408 276.509 270.589C276.4 269.825 276.018 269.553 275.527 269.443L275.582 269.389C274.927 269.171 274.436 269.334 273.781 269.498C271.98 269.934 268.979 273.754 270.998 275.445Z" fill="#636363"/>
<path d="M194.928 289.631C195.146 289.686 195.31 289.741 195.583 289.741C197.384 289.85 199.294 287.231 199.457 285.648C199.512 284.939 199.457 284.448 199.184 283.848C198.53 282.593 197.002 282.975 196.019 283.575C194.601 284.448 193.727 285.812 193.4 287.394C193.4 287.449 193.4 287.449 193.4 287.503C193.018 288.922 193.891 289.577 194.928 289.631Z" fill="#636363"/>
<path d="M0.278872 275.445C1.31569 276.264 2.8982 275.391 3.71675 274.681C4.20787 274.245 4.75357 273.59 5.13555 272.881C5.57211 272.172 5.89952 271.408 5.79038 270.589C5.68125 269.825 5.29926 269.553 4.80813 269.443L4.8627 269.389C4.20787 269.171 3.71675 269.334 3.06191 269.498C1.26112 269.934 -1.7402 273.754 0.278872 275.445Z" fill="#636363"/>
</g>
<g opacity="0.6">
<path d="M608.237 108.103C608.346 108.594 608.509 109.085 608.891 109.413C609.546 110.068 610.529 110.013 611.293 109.686C613.584 108.813 616.968 103.793 613.312 102.483C612.766 102.32 612.166 102.374 611.62 102.647C609.655 102.593 607.855 105.484 608.073 107.176C608.128 107.667 608.182 107.885 608.237 108.103Z" fill="#636363"/>
<path d="M544.172 43.8292C544.936 45.2478 546.792 43.229 547.064 42.4106C547.228 41.9195 547.446 41.3193 547.119 40.8283C546.246 39.4097 544.445 41.4285 544.118 42.3015C543.954 42.8471 543.899 43.2836 544.172 43.8292Z" fill="#636363"/>
<path d="M272.744 32.1531C273.89 34.1718 276.509 31.2801 276.891 30.1343C277.11 29.425 277.437 28.6065 277 27.8972C275.745 25.8784 273.181 28.7157 272.689 30.0251C272.417 30.7344 272.417 31.4438 272.744 32.1531Z" fill="#636363"/>
<path d="M341.665 97.6274C342.702 99.537 345.212 96.8089 345.54 95.7177C345.758 95.0629 346.031 94.2991 345.649 93.6443C344.448 91.7347 342.047 94.4082 341.611 95.6086C341.338 96.3179 341.283 96.9726 341.665 97.6274Z" fill="#636363"/>
<path d="M353.889 15.5117C354.816 17.1485 356.945 14.8023 357.272 13.8748C357.49 13.3292 357.709 12.6199 357.327 12.0742C356.29 10.4374 354.216 12.729 353.834 13.7657C353.616 14.4204 353.561 14.966 353.889 15.5117Z" fill="#636363"/>
<path d="M221.449 55.9965C222.377 57.6334 224.505 55.2872 224.832 54.3597C225.05 53.814 225.269 53.1047 224.887 52.5591C223.85 50.9223 221.776 53.2139 221.394 54.2505C221.176 54.8507 221.176 55.3963 221.449 55.9965Z" fill="#636363"/>
<path d="M595.686 35.4813C596.45 35.2085 597.432 34.1173 597.214 33.2443C597.159 33.1352 597.159 33.0806 597.159 32.9715C596.723 31.28 594.813 33.3534 594.649 34.2264C594.649 34.3355 594.594 34.4446 594.594 34.6083C594.376 35.3176 594.976 35.6996 595.686 35.4813Z" fill="#636363"/>
<path d="M520.653 70.8375C521.962 70.8375 523.545 67.782 521.744 67.782C520.38 67.782 518.797 70.8375 520.653 70.8375Z" fill="#636363"/>
<path d="M508.375 52.2318C508.538 52.1772 508.702 52.1772 508.866 52.1772C509.739 52.1772 510.557 51.3042 510.939 50.6494C511.158 50.2675 511.431 49.4491 511.212 48.9035C511.212 48.3578 510.994 47.8668 510.394 47.594C509.575 47.2666 508.538 48.1396 508.102 48.7398C507.665 49.34 507.283 49.9401 507.229 50.704C507.12 51.4679 507.447 52.3954 508.375 52.2318Z" fill="#636363"/>
<path d="M616.586 14.093C616.913 14.8023 617.677 14.7478 618.441 14.3113C618.659 14.3658 618.932 14.3658 619.26 14.2021C620.733 13.4928 621.715 11.6923 621.006 10.1645C620.842 9.72804 620.406 9.29156 619.915 9.18244C619.205 9.07332 618.496 9.237 617.732 9.9463C616.804 10.8193 615.658 12.8381 616.586 14.093Z" fill="#636363"/>
<path d="M389.032 61.2345C389.086 61.2345 389.195 61.2891 389.25 61.2891C390.559 61.5073 391.76 60.4161 392.36 59.3248C392.851 58.4518 393.179 56.1602 391.487 56.4331C391.378 56.4331 391.323 56.4876 391.214 56.4876C390.123 56.6513 389.195 57.4697 388.65 58.4518C388.213 59.1611 387.722 60.9617 389.032 61.2345Z" fill="#636363"/>
<path d="M703.569 65.6541C704.333 66.036 705.097 66.2543 705.97 66.2543C707.062 66.2543 708.262 65.2722 708.917 64.5083C709.627 63.6353 710.118 62.5986 710.009 61.5074C709.954 61.0709 709.79 60.7435 709.517 60.4161C709.463 59.816 709.245 59.3249 708.699 58.8884C707.662 58.1791 706.189 58.1791 705.043 58.5065C703.078 59.0521 701.387 61.3437 701.496 63.3625C701.55 64.5083 702.587 65.163 703.569 65.6541Z" fill="#636363"/>
<path d="M784.659 95.7721C785.587 96.2086 786.515 96.4814 787.552 96.4814C788.861 96.4814 790.335 95.3356 791.099 94.3535C791.917 93.3168 792.517 92.0619 792.408 90.7524C792.354 90.2614 792.135 89.8249 791.863 89.4429C791.808 88.7336 791.535 88.0789 790.88 87.6424C789.68 86.7694 787.879 86.7694 786.515 87.2059C784.168 87.8607 782.149 90.5887 782.258 92.9895C782.204 94.4081 783.459 95.172 784.659 95.7721Z" fill="#636363"/>
<path d="M559.615 14.8568C559.67 14.9659 559.725 15.075 559.834 15.1296C560.598 16.33 562.726 13.8201 561.689 13.1654C561.58 13.1108 561.471 13.0562 561.416 12.9471C560.543 12.4561 559.124 14.0384 559.615 14.8568Z" fill="#636363"/>
<path d="M729.217 8.30933C729.654 8.52758 729.817 8.74582 729.981 9.23688C730.09 9.45512 730.308 9.61882 730.581 9.67338C730.69 9.67338 730.799 9.72793 730.909 9.72793C731.563 9.83706 732.164 9.45512 732.546 8.9095C733.637 7.49088 733.801 5.74491 732.164 4.65367C730.417 3.56243 727.58 7.4909 729.217 8.30933Z" fill="#636363"/>
<path d="M439.89 97.2999C439.999 97.9001 440.108 98.0092 440.49 98.5003C440.545 98.5549 441.145 99.2096 440.763 98.7186C441.582 99.7552 442.728 99.6461 443.874 98.9914C445.402 98.0638 446.548 96.3178 446.438 94.4627C446.384 93.4806 446.057 92.7713 445.183 92.3348C445.02 91.6255 444.529 91.0253 443.601 91.0799C441.473 91.2436 440.436 93.6988 439.999 95.4448C439.89 96.0996 439.781 96.6997 439.89 97.2999Z" fill="#636363"/>
<path d="M740.131 121.689C740.24 122.289 740.349 122.453 740.731 122.89C740.786 122.944 741.386 123.599 741.004 123.108C741.822 124.145 742.968 124.09 744.114 123.381C745.642 122.453 746.788 120.707 746.679 118.907C746.625 117.924 746.297 117.215 745.424 116.779C745.26 116.069 744.769 115.469 743.841 115.524C741.713 115.687 740.622 118.088 740.24 119.889C740.076 120.489 739.967 121.089 740.131 121.689Z" fill="#636363"/>
<path d="M202.295 86.1692C202.459 86.8785 202.568 87.0422 203.004 87.5878C203.113 87.697 203.768 88.4063 203.332 87.8606C204.314 89.1156 205.678 89.0064 206.988 88.188C208.789 87.0968 210.153 85.0234 210.044 82.8409C209.989 81.6951 209.553 80.8221 208.57 80.2765C208.352 79.4035 207.806 78.6942 206.715 78.8034C204.205 79.0216 202.895 81.8588 202.404 83.9867C202.295 84.696 202.131 85.4053 202.295 86.1692Z" fill="#636363"/>
<path d="M311.27 81.3678C311.434 82.0771 311.543 82.2408 311.979 82.7864C312.088 82.8956 312.743 83.6049 312.307 83.0047C313.289 84.2596 314.653 84.1505 315.963 83.3321C317.764 82.1863 319.128 80.1674 319.019 77.985C318.964 76.8392 318.582 75.9662 317.545 75.4206C317.327 74.5476 316.781 73.8383 315.69 73.9474C313.18 74.1656 311.87 77.0029 311.379 79.1308C311.27 79.9492 311.106 80.604 311.27 81.3678Z" fill="#636363"/>
<path d="M493.204 8.90949C494.077 9.6188 495.387 8.85494 496.042 8.25476C496.479 7.87282 496.915 7.32721 497.243 6.72703C497.624 6.12684 497.843 5.52665 497.788 4.81734C497.734 4.21716 497.406 3.94435 496.97 3.83523L497.024 3.78067C496.479 3.61699 496.042 3.78068 495.551 3.8898C494.023 4.3263 491.513 7.54544 493.204 8.90949Z" fill="#636363"/>
<path d="M408.076 38.6457C408.24 38.7003 408.403 38.7003 408.622 38.7548C410.15 38.8094 411.732 36.6815 411.841 35.3174C411.896 34.7718 411.841 34.3353 411.623 33.7897C411.077 32.753 409.768 33.0804 409.004 33.5714C407.803 34.2807 407.094 35.4265 406.821 36.7906C406.821 36.8452 406.821 36.8452 406.821 36.8997C406.493 38.0455 407.203 38.5911 408.076 38.6457Z" fill="#636363"/>
<path d="M122.623 48.9035C123.769 50.9223 126.389 48.0305 126.771 46.8847C126.989 46.1754 127.316 45.357 126.88 44.6477C125.57 42.6289 123.06 45.4661 122.569 46.7756C122.296 47.4849 122.241 48.1942 122.623 48.9035Z" fill="#636363"/>
<path d="M210.317 120.052C211.353 121.962 213.864 119.234 214.246 118.143C214.464 117.488 214.737 116.724 214.3 116.069C213.1 114.16 210.699 116.833 210.262 118.034C210.044 118.743 209.989 119.398 210.317 120.052Z" fill="#636363"/>
<path d="M161.204 50.8676C162.132 52.5045 164.26 50.1583 164.587 49.2308C164.806 48.6851 165.024 47.9758 164.642 47.4302C163.605 45.7933 161.532 48.085 161.15 49.1216C160.931 49.7218 160.877 50.322 161.204 50.8676Z" fill="#636363"/>
<path d="M62.9245 51.9045C63.8522 53.5413 65.9804 51.1952 66.3078 50.2676C66.5261 49.722 66.7443 49.0127 66.3623 48.4671C65.3255 46.8302 63.2519 49.1218 62.8699 50.1585C62.5971 50.7587 62.5971 51.3043 62.9245 51.9045Z" fill="#636363"/>
<path d="M268.979 107.067C269.033 107.067 269.142 107.067 269.197 107.121C270.507 107.339 271.707 106.248 272.308 105.157C272.799 104.284 273.181 101.992 271.434 102.265C271.325 102.265 271.271 102.32 271.162 102.32C270.07 102.483 269.142 103.302 268.597 104.229C268.16 104.993 267.669 106.848 268.979 107.067Z" fill="#636363"/>
<path d="M144.669 107.94C144.833 107.994 144.997 107.994 145.215 108.049C146.743 108.158 148.326 105.975 148.435 104.611C148.489 104.066 148.435 103.629 148.217 103.084C147.671 102.047 146.361 102.374 145.597 102.811C144.397 103.52 143.687 104.666 143.414 106.03C143.414 106.03 143.414 106.084 143.414 106.139C143.087 107.339 143.796 107.94 144.669 107.94Z" fill="#636363"/>
<path d="M29.9646 115.851C30.1283 116.56 30.2375 116.724 30.674 117.27C30.7832 117.379 31.438 118.088 31.0015 117.543C31.9837 118.797 33.3479 118.688 34.6576 117.87C36.4584 116.779 37.8226 114.705 37.7135 112.523C37.6589 111.377 37.2224 110.504 36.2401 109.958C36.0218 109.085 35.4761 108.376 34.3848 108.485C31.8746 108.703 30.5649 111.541 30.0738 113.669C29.9646 114.432 29.8555 115.142 29.9646 115.851Z" fill="#636363"/>
<path d="M91.1369 100.028C91.3006 100.792 91.4643 100.956 91.9009 101.556C92.01 101.665 92.7194 102.429 92.2283 101.829C93.2651 103.193 94.7385 103.029 96.1027 102.21C98.0126 101.01 99.486 98.8276 99.3769 96.536C99.3223 95.2811 98.8857 94.3535 97.7944 93.8079C97.5761 92.8804 96.9758 92.171 95.8299 92.2256C93.156 92.4439 91.7917 95.4993 91.246 97.7364C91.0823 98.5002 90.9732 99.2641 91.1369 100.028Z" fill="#636363"/>
<path d="M464.774 32.6986C464.883 32.8077 465.101 32.8623 465.21 32.9169C466.083 33.2988 467.066 31.9893 467.284 31.3345C467.557 30.5161 467.175 29.7523 466.247 30.0251C466.029 30.0796 465.811 30.1888 465.647 30.2979C464.992 30.6252 464.01 32.0439 464.774 32.6986Z" fill="#636363"/>
</g>
<g opacity="0.6">
<path d="M809.107 245.872C809.216 246.363 809.38 246.854 809.762 247.182C810.416 247.836 811.399 247.782 812.163 247.454C814.455 246.581 817.838 241.562 814.182 240.252C813.636 240.089 813.09 240.143 812.49 240.416C810.526 240.361 808.725 243.253 808.943 244.945C809.052 245.436 809.052 245.708 809.107 245.872Z" fill="#636363"/>
<path d="M706.025 199.003C706.789 200.422 708.645 198.403 708.917 197.585C709.081 197.094 709.299 196.494 708.972 196.057C708.099 194.638 706.298 196.657 705.971 197.53C705.807 198.021 705.807 198.512 706.025 199.003Z" fill="#636363"/>
<path d="M402.892 164.411C404.038 166.43 406.657 163.538 407.039 162.393C407.258 161.683 407.585 160.865 407.149 160.156C405.839 158.137 403.329 160.974 402.838 162.283C402.51 163.047 402.51 163.702 402.892 164.411Z" fill="#636363"/>
<path d="M471.759 229.94C472.796 231.85 475.306 229.122 475.688 228.03C475.906 227.376 476.179 226.612 475.742 225.957C474.542 224.047 472.141 226.721 471.704 227.921C471.431 228.631 471.377 229.231 471.759 229.94Z" fill="#636363"/>
<path d="M483.982 147.824C484.91 149.461 487.038 147.115 487.366 146.188C487.584 145.642 487.802 144.933 487.42 144.387C486.383 142.75 484.31 145.042 483.928 146.078C483.709 146.679 483.709 147.224 483.982 147.824Z" fill="#636363"/>
<path d="M351.597 188.255C352.525 189.891 354.653 187.545 354.98 186.618C355.198 186.072 355.417 185.363 355.035 184.817C353.998 183.18 351.924 185.472 351.542 186.509C351.324 187.109 351.269 187.654 351.597 188.255Z" fill="#636363"/>
<path d="M738.385 218.482C739.149 218.209 740.131 217.118 739.913 216.245C739.858 216.136 739.858 216.027 739.858 215.972C739.422 214.281 737.512 216.354 737.348 217.227C737.348 217.336 737.293 217.445 737.293 217.609C737.13 218.264 737.73 218.7 738.385 218.482Z" fill="#636363"/>
<path d="M682.506 226.066C683.816 226.066 685.398 223.011 683.597 223.011C682.233 223.011 680.705 226.066 682.506 226.066Z" fill="#636363"/>
<path d="M670.282 207.406C670.446 207.351 670.61 207.351 670.719 207.351C671.592 207.351 672.411 206.478 672.793 205.824C673.011 205.442 673.284 204.623 673.065 204.078C673.065 203.532 672.847 203.041 672.192 202.768C671.374 202.441 670.337 203.314 669.9 203.914C669.464 204.514 669.082 205.114 669.027 205.878C668.973 206.642 669.3 207.569 670.282 207.406Z" fill="#636363"/>
<path d="M755.902 186.509C756.229 187.218 756.993 187.164 757.702 186.727C757.921 186.782 758.194 186.782 758.521 186.618C759.994 185.909 760.977 184.108 760.267 182.58C760.103 182.144 759.667 181.707 759.176 181.598C758.466 181.489 757.757 181.653 756.993 182.362C756.12 183.29 754.974 185.308 755.902 186.509Z" fill="#636363"/>
<path d="M548.265 181.925C548.319 181.925 548.429 181.925 548.483 181.98C549.793 182.198 550.993 181.052 551.594 180.016C552.085 179.143 552.467 176.851 550.721 177.124C550.611 177.124 550.557 177.124 550.448 177.179C549.356 177.342 548.429 178.161 547.883 179.143C547.446 179.852 546.955 181.707 548.265 181.925Z" fill="#636363"/>
<path d="M865.859 201.786C866.623 202.168 867.387 202.386 868.26 202.386C869.351 202.386 870.552 201.404 871.207 200.64C871.916 199.767 872.407 198.731 872.244 197.585C872.244 197.148 872.025 196.821 871.753 196.494C871.698 195.948 871.48 195.402 870.934 194.966C869.952 194.256 868.424 194.256 867.278 194.584C865.313 195.129 863.622 197.421 863.731 199.44C863.84 200.695 864.877 201.35 865.859 201.786Z" fill="#636363"/>
<path d="M932.597 246.418C933.525 246.854 934.453 247.127 935.49 247.127C936.799 247.127 938.273 245.981 939.037 244.999C939.855 243.963 940.455 242.708 940.346 241.398C940.292 240.907 940.073 240.471 939.801 240.089C939.746 239.379 939.473 238.725 938.818 238.288C937.618 237.415 935.817 237.415 934.453 237.852C932.106 238.506 930.087 241.234 930.196 243.635C930.196 245.108 931.451 245.872 932.597 246.418Z" fill="#636363"/>
<path d="M721.468 170.031C721.523 170.14 721.578 170.249 721.687 170.358C722.451 171.559 724.579 169.049 723.542 168.394C723.433 168.34 723.324 168.285 723.269 168.176C722.451 167.63 720.977 169.213 721.468 170.031Z" fill="#636363"/>
<path d="M859.311 140.622C859.747 140.84 859.911 141.059 860.129 141.55C860.238 141.768 860.456 141.932 860.729 141.986C860.838 141.986 860.948 141.986 861.057 142.041C861.712 142.15 862.312 141.768 862.694 141.222C863.785 139.804 863.949 138.058 862.312 136.966C860.511 135.821 857.728 139.749 859.311 140.622Z" fill="#636363"/>
<path d="M599.124 218.045C599.233 218.646 599.342 218.809 599.724 219.246C599.779 219.3 600.379 219.955 599.997 219.464C600.815 220.501 601.961 220.392 603.107 219.737C604.635 218.809 605.781 217.063 605.672 215.263C605.618 214.281 605.29 213.571 604.417 213.135C604.253 212.426 603.762 211.825 602.835 211.88C600.706 212.044 599.669 214.444 599.233 216.245C599.124 216.845 599.015 217.445 599.124 218.045Z" fill="#636363"/>
<path d="M889.979 258.421C890.088 259.022 890.197 259.185 890.579 259.622C890.634 259.676 891.234 260.331 890.852 259.84C891.67 260.877 892.816 260.822 893.962 260.113C895.49 259.185 896.636 257.439 896.527 255.639C896.473 254.657 896.145 253.947 895.272 253.511C895.108 252.801 894.617 252.201 893.69 252.256C891.561 252.42 890.47 254.82 890.088 256.621C889.979 257.221 889.87 257.821 889.979 258.421Z" fill="#636363"/>
<path d="M814.127 195.457C814.291 196.166 814.4 196.33 814.837 196.876C814.946 196.985 815.601 197.694 815.164 197.149C816.146 198.403 817.511 198.294 818.82 197.476C820.621 196.385 821.985 194.311 821.876 192.129C821.822 190.983 821.44 190.11 820.403 189.564C820.185 188.691 819.639 187.982 818.547 188.091C816.037 188.309 814.728 191.147 814.236 193.275C814.127 193.984 813.964 194.693 814.127 195.457Z" fill="#636363"/>
<path d="M332.388 218.428C332.552 219.137 332.661 219.301 333.098 219.846C333.207 219.956 333.862 220.665 333.425 220.119C334.407 221.374 335.772 221.265 337.081 220.447C338.882 219.355 340.246 217.282 340.137 215.1C340.083 213.954 339.646 213.081 338.664 212.535C338.446 211.662 337.9 210.953 336.808 211.062C334.298 211.28 333.043 214.117 332.498 216.245C332.388 217.009 332.225 217.718 332.388 218.428Z" fill="#636363"/>
<path d="M441.363 213.626C441.527 214.335 441.636 214.499 442.073 215.045C442.182 215.154 442.837 215.863 442.4 215.317C443.383 216.572 444.747 216.463 446.056 215.645C447.857 214.554 449.221 212.48 449.112 210.298C449.058 209.152 448.621 208.279 447.639 207.733C447.421 206.86 446.875 206.151 445.784 206.26C443.273 206.478 441.964 209.316 441.473 211.444C441.363 212.207 441.2 212.917 441.363 213.626Z" fill="#636363"/>
<path d="M655.057 164.139C655.931 164.848 657.24 164.084 657.895 163.484C658.332 163.102 658.768 162.556 659.096 161.956C659.478 161.356 659.696 160.756 659.641 160.046C659.587 159.446 659.205 159.173 658.823 159.064L658.877 159.01C658.332 158.846 657.895 159.01 657.404 159.119C655.876 159.501 653.366 162.72 655.057 164.139Z" fill="#636363"/>
<path d="M567.31 159.337C567.474 159.392 567.637 159.446 567.856 159.446C569.383 159.501 570.966 157.373 571.075 156.009C571.13 155.409 571.075 154.972 570.857 154.481C570.311 153.444 569.001 153.772 568.238 154.263C567.092 154.972 566.328 156.118 566.055 157.482C566.055 157.482 566.055 157.537 566.055 157.591C565.673 158.737 566.382 159.283 567.31 159.337Z" fill="#636363"/>
<path d="M252.717 181.162C253.809 183.181 256.482 180.289 256.864 179.143C257.083 178.434 257.41 177.615 256.974 176.906C255.718 174.887 253.154 177.724 252.663 179.034C252.39 179.798 252.335 180.453 252.717 181.162Z" fill="#636363"/>
<path d="M340.465 252.311C341.501 254.22 344.012 251.492 344.394 250.401C344.612 249.746 344.885 248.982 344.503 248.328C343.302 246.418 340.901 249.092 340.465 250.292C340.137 251.001 340.083 251.656 340.465 252.311Z" fill="#636363"/>
<path d="M291.298 183.126C292.225 184.763 294.354 182.417 294.681 181.489C294.899 180.943 295.118 180.234 294.736 179.689C293.699 178.052 291.625 180.398 291.243 181.38C291.025 181.98 291.025 182.58 291.298 183.126Z" fill="#636363"/>
<path d="M193.018 184.163C193.946 185.8 196.074 183.453 196.401 182.526C196.62 181.98 196.838 181.271 196.456 180.725C195.419 179.089 193.345 181.38 192.963 182.417C192.745 183.017 192.691 183.563 193.018 184.163Z" fill="#636363"/>
<path d="M399.072 239.325C399.127 239.325 399.236 239.325 399.29 239.379C400.6 239.598 401.801 238.506 402.401 237.415C402.892 236.542 403.219 234.251 401.528 234.523C401.419 234.523 401.364 234.578 401.255 234.578C400.109 234.742 399.236 235.56 398.69 236.488C398.308 237.251 397.763 239.107 399.072 239.325Z" fill="#636363"/>
<path d="M274.818 240.252C274.981 240.307 275.145 240.307 275.363 240.361C276.891 240.47 278.474 238.288 278.583 236.924C278.638 236.378 278.583 235.887 278.365 235.396C277.819 234.359 276.509 234.687 275.745 235.178C274.545 235.887 273.835 237.088 273.563 238.397C273.563 238.397 273.563 238.452 273.563 238.506C273.181 239.652 273.945 240.198 274.818 240.252Z" fill="#636363"/>
<path d="M13.9213 188.91C14.085 189.619 14.1942 189.783 14.6307 190.328C14.7399 190.437 15.3947 191.147 14.9581 190.546C15.9404 191.801 17.3046 191.692 18.6143 190.874C20.4151 189.783 21.7793 187.709 21.6702 185.527C21.6156 184.381 21.179 183.508 20.1968 182.962C19.9785 182.089 19.4328 181.38 18.3414 181.489C15.8312 181.707 14.5761 184.545 14.0304 186.673C13.9213 187.436 13.7576 188.146 13.9213 188.91Z" fill="#636363"/>
<path d="M134.356 226.121C134.52 226.83 134.629 226.994 135.065 227.539C135.174 227.648 135.829 228.358 135.393 227.758C136.375 229.012 137.739 228.903 139.049 228.085C140.85 226.994 142.214 224.92 142.105 222.738C142.05 221.592 141.614 220.719 140.631 220.228C140.413 219.355 139.867 218.646 138.776 218.755C136.266 218.973 135.011 221.81 134.465 223.938C134.356 224.702 134.192 225.411 134.356 226.121Z" fill="#636363"/>
<path d="M221.23 232.286C221.394 233.05 221.558 233.214 221.994 233.814C222.103 233.923 222.813 234.687 222.322 234.087C223.359 235.451 224.832 235.287 226.196 234.469C228.106 233.268 229.58 231.086 229.47 228.794C229.416 227.594 228.979 226.666 227.888 226.066C227.67 225.139 227.069 224.429 225.923 224.484C223.249 224.702 221.885 227.758 221.34 229.995C221.23 230.759 221.067 231.522 221.23 232.286Z" fill="#636363"/>
<path d="M73.5112 236.651C73.6749 237.415 73.8386 237.579 74.2751 238.179C74.3843 238.288 75.0937 239.052 74.6025 238.452C75.6939 239.816 77.1127 239.652 78.477 238.834C80.3869 237.633 81.8603 235.451 81.7511 233.159C81.6966 231.959 81.26 231.031 80.1686 230.431C79.9504 229.503 79.3501 228.794 78.2041 228.849C75.5302 229.067 74.166 232.122 73.6203 234.359C73.4566 235.123 73.3474 235.887 73.5112 236.651Z" fill="#636363"/>
<path d="M100.905 192.947C101.942 194.857 104.452 192.129 104.834 191.037C105.052 190.383 105.325 189.619 104.943 188.964C103.743 187.054 101.342 189.728 100.905 190.928C100.578 191.637 100.578 192.292 100.905 192.947Z" fill="#636363"/>
<path d="M626.627 187.928C626.736 188.037 626.954 188.091 627.063 188.146C627.936 188.528 628.919 187.218 629.137 186.564C629.41 185.745 629.028 184.981 628.1 185.254C627.882 185.309 627.663 185.418 627.5 185.527C626.845 185.854 625.863 187.273 626.627 187.928Z" fill="#636363"/>
</g>
<path d="M443.532 7.5987C593.002 -1.57283 743.127 14.7819 892.543 18.6301C967.688 20.5542 1043 20.2335 1117.92 13.1785C1154.59 9.71509 1191.05 6.76483 1227.88 7.53445C1264.01 8.3041 1300.08 11.0619 1336.1 14.5894C1408.19 21.7085 1480.27 31.5856 1552.69 31.778C1626.25 31.9704 1699.65 22.9271 1772.99 17.2831C1828.49 12.9859 1883.66 12.0239 1939 13.0501L1939 -300L-29 -300L-28.9999 15.4876C125.818 52.4301 287.677 17.2192 443.532 7.5987Z" fill="#32BE69"/>
</svg>
