<svg width="1920" height="1233" viewBox="0 0 1920 1233" fill="none" xmlns="http://www.w3.org/2000/svg">
<path d="M1920.97 -49.0796H-1V1233H1920.97V-49.0796Z" fill="#E8F5FE"/>
<path fill-rule="evenodd" clip-rule="evenodd" d="M527.388 255.002H-0.93457L-0.901893 88.6726C13.6394 82.1005 33.1476 78.7981 52.4925 78.7981C69.6152 78.7981 86.6073 81.3812 99.9069 86.6127C128.238 97.7296 147.91 120.389 150.001 144.323C156.406 142.95 162.941 142.296 169.444 142.296C209.996 142.296 250.156 167.309 253.293 198.24C271.004 195.363 289.107 192.453 307.08 192.453C313.092 192.453 319.105 192.78 325.085 193.532C348.939 196.54 372.499 208.147 378.675 225.673C388.119 224.43 397.562 223.842 406.941 223.842C449.846 223.842 491.476 236.136 527.388 255.002Z" fill="#FFFDF7"/>
<path fill-rule="evenodd" clip-rule="evenodd" d="M1920.93 1201.97C1850.94 1201.97 1758.56 1201.97 1688.57 1201.97C1457.31 1201.97 1226.22 1197.72 995.095 1195.92C1041.04 1064.77 1137.89 957.692 1250.01 880.494C1331.05 824.713 1421.53 779.886 1515.84 745.783L1578.25 749.576C1578.35 749.053 1578.45 748.497 1578.54 747.974C1579.52 743.821 1580.7 739.734 1581.78 735.582C1582.89 731.429 1584.03 727.277 1585.15 723.124C1585.18 723.026 1585.21 722.895 1585.24 722.797C1613.28 714.361 1641.55 706.808 1669.88 700.171C1720.4 688.367 1768.2 666.199 1809.08 635.66C1825.71 623.235 1841.3 609.371 1859.53 599.203C1873.98 591.159 1890.81 585.045 1907.44 585.045C1911.82 585.045 1916.2 585.47 1920.51 586.386C1920.51 600.968 1920.58 660.967 1920.64 738.197C1920.74 839.427 1920.87 970.313 1920.93 1067.16C1920.93 1067.19 1920.93 1067.19 1920.93 1067.23C1920.97 1129.45 1920.97 1177.64 1920.93 1194.97C1920.97 1199.55 1920.93 1201.97 1920.93 1201.97Z" fill="url(#paint0_radial_1415_2298)"/>
<path fill-rule="evenodd" clip-rule="evenodd" d="M1509.56 1115.52C1396.79 1138.24 1257.56 1115.29 1141.68 1114.51C1008.88 1113.62 876.085 1112.81 743.286 1112.81C492.849 1112.81 249.47 1112.81 -0.967285 1112.81L-0.934608 412.765C201.075 412.765 436.415 389.909 610.453 495.259C694.466 546.103 772.172 610.908 864.975 641.578C917.977 659.103 974.149 664.825 1026.96 682.907C1110.54 711.549 1152.17 765.728 1229.72 807.94C1305.33 849.073 1381.93 893.017 1431.53 967.239C1445.35 987.904 1456.56 1010.24 1467.77 1032.47C1481.72 1060.16 1495.64 1087.86 1509.56 1115.52Z" fill="url(#paint1_radial_1415_2298)"/>
<path fill-rule="evenodd" clip-rule="evenodd" d="M1194.33 523.248C1193.77 541.002 1196.19 559.345 1205.05 574.713C1218.83 598.614 1246.45 611.889 1273.83 615.159C1301.21 618.461 1328.83 613.23 1355.92 608.031C1400.98 654.199 1482.77 657.403 1531.29 614.897C1533.65 612.805 1536.1 610.581 1539.14 609.764C1546.19 607.835 1552.6 613.949 1558.12 618.788C1585.73 642.951 1626.29 643.082 1662.92 641.611C1698.18 640.205 1734.19 638.406 1766.93 625.262C1799.67 612.118 1829.11 585.405 1835.88 550.746C1844.67 505.755 1814.24 462.726 1781.31 430.879C1764.41 414.563 1746.31 399.359 1726.08 387.425C1695.69 369.474 1661.32 359.338 1626.61 352.962C1541.29 337.267 1452.15 344.526 1370.03 372.188C1299.71 395.893 1197.04 436.633 1194.33 523.248Z" fill="#115A48"/>
<path fill-rule="evenodd" clip-rule="evenodd" d="M1603.51 143.113C1543.02 136.966 1479.5 188.235 1489.89 243.362C1452.93 206.643 1388.43 196.507 1340.3 219.787C1292.16 243.1 1264.81 297.769 1276.87 346.553C1245.92 333.54 1207.99 331.807 1178.67 347.73C1149.4 363.654 1132.5 399.326 1145.57 428.23C1160.44 461.091 1204.65 473.45 1243.38 473.058C1239.55 507.488 1272.82 536.228 1307.19 550.353C1375.55 578.407 1459.8 570.527 1520.61 530.441C1540.57 562.974 1578.48 585.568 1618.9 589.066C1659.32 592.565 1701.18 576.838 1727.36 548.293C1754.8 562.386 1787.55 569.808 1818.1 562.974C1848.65 556.173 1875.81 533.057 1879.79 504.381C1883.78 475.706 1859.53 444.71 1828.1 443.729C1902.67 446.05 1903.65 342.793 1839.63 323.371C1821.43 317.845 1801.66 320.559 1782.74 323.306C1799.77 296.985 1804.8 261.247 1772.91 241.694C1749.05 227.111 1713.11 233.226 1696.54 254.708C1699.51 223.482 1702.16 197.324 1676.35 174.077C1657.26 156.976 1629.95 145.827 1603.51 143.113Z" fill="url(#paint2_radial_1415_2298)"/>
<path fill-rule="evenodd" clip-rule="evenodd" d="M1758.56 489.537C1758.56 489.537 1757.16 491.27 1754.54 494.54C1751.93 497.809 1748.17 502.648 1742.78 508.468C1737.55 514.485 1730.85 521.253 1723.04 528.937C1715.2 536.588 1706.18 545.024 1696.48 554.179C1691.57 558.756 1686.61 563.595 1681.48 568.565C1678.86 571.018 1676.41 573.666 1673.83 576.282C1672.56 577.59 1671.25 578.93 1669.94 580.271L1667.98 582.298L1666.31 584.26C1661.25 590.047 1656.05 595.965 1650.73 602.047C1645.73 608.194 1641.22 614.635 1636.32 621.077C1635.14 622.712 1633.87 624.248 1632.72 625.949C1631.61 627.682 1630.53 629.447 1629.39 631.18C1627.17 634.679 1624.95 638.177 1622.69 641.741C1617.95 648.673 1614.29 656.324 1610.11 663.779C1605.8 671.136 1602.5 679.081 1598.93 686.928C1597.24 690.885 1595.24 694.71 1593.8 698.797L1589.39 710.961C1587.99 715.048 1586.35 719.037 1585.15 723.157C1584 727.309 1582.89 731.462 1581.78 735.614C1580.7 739.767 1579.52 743.854 1578.54 748.006C1577.76 752.191 1577.01 756.377 1576.22 760.529C1575.47 764.682 1574.69 768.801 1573.94 772.921C1573.45 777.074 1572.96 781.194 1572.47 785.313C1571.94 789.401 1571.49 793.455 1570.87 797.477C1570.34 801.498 1570.28 805.553 1569.92 809.542C1569.23 817.487 1568.35 825.302 1568.25 833.018C1568.09 836.877 1567.96 840.669 1567.79 844.429C1567.6 848.19 1567.3 851.917 1567.53 855.579C1567.73 862.903 1567.7 870.097 1567.76 877.028C1568.19 883.96 1568.81 890.63 1569.13 897.104C1569.33 903.611 1570.38 909.725 1571.09 915.611C1571.88 921.496 1572.34 927.153 1573.22 932.417C1574.2 937.681 1575.08 942.586 1575.93 947.131C1576.32 949.452 1576.68 951.643 1577.01 953.768C1577.17 954.847 1577.37 955.861 1577.53 956.874C1577.79 957.855 1578.02 958.836 1578.25 959.752C1580.08 967.272 1581.42 973.288 1582.27 977.441C1583.12 981.626 1583.54 983.849 1583.54 983.849L1580.6 985.19C1580.6 985.19 1579.36 983.293 1577.04 979.697C1574.75 976.1 1571.45 970.738 1567.4 963.773C1563.45 956.776 1559.72 947.785 1555.08 937.485C1553.81 934.935 1553.06 932.155 1552.08 929.343C1551.13 926.499 1550.15 923.589 1549.17 920.581C1547.27 914.532 1544.95 908.221 1543.68 901.388C1542.11 894.619 1540.61 887.491 1539.1 880.102C1538.19 872.647 1537.18 864.93 1536.33 856.92C1535.77 852.931 1535.67 848.876 1535.57 844.756C1535.51 840.637 1535.41 836.484 1535.35 832.266C1534.82 823.798 1536 815.264 1536.59 806.501C1537.08 802.152 1537.34 797.738 1538.02 793.357C1538.74 788.975 1539.63 784.561 1540.48 780.147C1541.33 775.733 1542.17 771.286 1543.16 766.84C1544.4 762.458 1545.64 758.077 1546.88 753.663C1548.12 749.249 1549.4 744.867 1550.67 740.421C1552.14 736.039 1553.78 731.723 1555.34 727.374C1556.88 723.026 1558.45 718.677 1560.02 714.328C1561.62 710.012 1563.64 705.827 1565.44 701.577L1570.96 688.89C1572.76 684.64 1575.15 680.683 1577.2 676.563C1581.49 668.422 1585.54 660.248 1590.57 652.662C1595.47 645.044 1599.82 637.164 1605.37 630.199C1608.02 626.635 1610.67 623.104 1613.25 619.605C1614.55 617.872 1615.86 616.107 1617.17 614.374C1618.51 612.674 1620.01 611.039 1621.42 609.404C1627.17 602.897 1632.69 596.26 1638.31 590.309C1644.09 584.685 1649.75 579.192 1655.24 573.83L1657.52 571.639L1659.71 569.743C1661.18 568.5 1662.62 567.225 1664.06 566.015C1666.94 563.563 1669.71 561.078 1672.59 558.789C1678.24 554.179 1683.67 549.732 1688.96 545.579C1699.48 537.209 1709.12 529.689 1717.52 522.822C1721.77 519.455 1725.53 516.087 1729.12 513.079C1732.75 510.103 1735.85 507.193 1738.73 504.578C1744.51 499.477 1748.79 494.997 1751.73 492.022C1754.67 489.047 1756.24 487.444 1756.24 487.444L1758.56 489.537Z" fill="#0F6F59"/>
<path fill-rule="evenodd" clip-rule="evenodd" d="M1550.34 425.876C1550.34 425.876 1550.87 428.067 1551.88 432.154C1552.86 436.274 1554.53 442.159 1555.9 450.104C1556.59 454.028 1557.63 458.442 1558.25 463.183C1558.91 467.924 1559.69 473.09 1560.38 478.583C1561.62 489.602 1562.92 502.027 1563.87 515.531C1564.85 529.035 1565.74 543.618 1567.01 558.789C1568.22 574.385 1569.2 590.472 1570.38 607.311C1571.49 624.118 1572.76 641.447 1573.64 659.071C1574.13 667.899 1574.62 676.76 1575.15 685.686C1575.41 690.133 1575.64 694.612 1575.9 699.092L1576.29 705.794L1576.55 712.988C1577.17 730.906 1578.19 748.856 1579.39 766.513C1580.51 784.169 1581.45 801.531 1581.32 818.337C1581.06 835.144 1580.31 851.296 1578.22 866.794C1576.42 882.26 1574.23 896.843 1571.85 910.281C1567.17 937.158 1561.62 959.425 1557.01 974.956C1554.72 982.705 1552.73 988.786 1551.23 992.939C1549.79 997.059 1548.87 999.282 1548.87 999.282L1543.35 998.988C1543.35 998.988 1542.63 996.699 1541.52 992.449C1540.34 988.198 1538.84 981.953 1537.18 974.073C1533.84 958.248 1530.08 935.785 1527.57 908.941C1526.26 895.535 1525.25 881.017 1524.66 865.715C1524.14 850.446 1523.35 834.097 1523.88 817.356C1524.33 800.55 1525.9 783.221 1527.67 765.63C1529.53 748.039 1531.16 730.154 1532.44 712.236L1532.86 705.991L1533.19 699.288C1533.38 694.808 1533.61 690.329 1533.84 685.882C1534.27 676.956 1534.69 668.062 1535.12 659.234C1535.87 641.61 1537.01 624.248 1537.99 607.442C1539.01 590.669 1540.02 574.451 1540.93 559.083C1541.85 543.487 1543.02 528.937 1543.94 515.564C1544.4 508.894 1544.82 502.485 1545.21 496.403C1545.51 490.354 1545.8 484.6 1546.06 479.172C1546.32 468.382 1546.49 458.933 1546.26 451.282C1546.29 443.598 1545.64 437.353 1545.38 433.167C1545.08 428.95 1544.92 426.726 1544.92 426.726L1550.34 425.876Z" fill="#0F6F59"/>
<path fill-rule="evenodd" clip-rule="evenodd" d="M1478.32 994.901C1478.32 994.901 1478.91 992.547 1480.15 988.198C1481.36 983.947 1483.16 977.702 1485.41 969.757C1487.7 961.877 1490.28 952.362 1493.22 941.572C1496.07 930.749 1499.04 918.619 1501.98 905.442C1504.86 892.265 1507.64 878.042 1509.92 863.067C1512.11 848.059 1514.01 832.364 1515.35 816.179C1516.65 799.994 1517.76 783.286 1517.31 766.251C1516.72 749.249 1514.66 731.919 1510.02 715.211C1505.48 698.47 1499.17 682.285 1490.97 666.951C1482.74 651.583 1473.32 636.412 1463.98 621.633C1454.67 606.854 1445.35 592.402 1437.31 578.08C1429.24 563.759 1422.28 549.667 1417.02 536.097C1411.73 522.528 1408.43 509.417 1406.66 497.711C1404.9 485.973 1404.87 475.543 1405.65 467.14C1406.37 458.704 1407.71 452.23 1408.72 447.881C1409.87 443.565 1410.45 441.244 1410.45 441.244L1414.93 442.257C1414.93 442.257 1414.67 444.546 1414.15 448.797C1413.75 453.08 1413.36 459.358 1413.75 467.27C1414.15 475.183 1415.42 484.731 1418.36 495.259C1421.3 505.82 1425.88 517.297 1432.15 529.231C1438.39 541.198 1446.4 553.59 1455.61 566.342C1464.86 579.061 1475.12 592.238 1486 606.036C1496.82 619.9 1508.26 634.352 1518.65 650.7C1529.2 667.016 1538.16 685.195 1544.98 703.996C1551.95 722.83 1556.78 742.415 1560.08 761.968C1563.25 781.521 1564.26 801.139 1563.02 819.874C1561.68 838.609 1558.15 856.429 1553.38 872.745C1548.74 889.126 1542.99 904.069 1536.78 917.409C1524.46 944.122 1510.54 964.198 1499.96 977.408C1497.41 980.743 1494.79 983.588 1492.64 986.105C1490.51 988.623 1488.62 990.65 1487.02 992.252C1483.91 995.522 1482.15 997.19 1482.15 997.19L1478.32 994.901Z" fill="#0F6F59"/>
<path fill-rule="evenodd" clip-rule="evenodd" d="M1454.08 587.366C1454.08 587.366 1450.84 587.105 1445.19 586.614C1443.75 586.484 1442.28 586.418 1440.45 586.157C1438.59 585.862 1436.6 585.503 1434.44 585.176C1432.28 584.816 1430.03 584.424 1427.64 583.999C1425.32 583.475 1422.97 582.789 1420.45 582.168C1417.97 581.481 1415.36 580.925 1412.74 580.042C1410.13 579.127 1407.45 578.178 1404.67 577.198C1403.3 576.674 1401.89 576.249 1400.49 575.661C1399.11 575.04 1397.74 574.418 1396.34 573.797C1393.56 572.522 1390.65 571.312 1387.84 569.874C1382.29 566.8 1376.47 563.825 1371.01 559.999C1365.36 556.566 1360.2 552.217 1354.9 548.163C1349.97 543.618 1344.84 539.367 1340.49 534.43C1335.85 529.82 1331.96 524.654 1328.07 519.847C1326.21 517.362 1324.58 514.779 1322.88 512.36C1322.03 511.117 1321.21 509.907 1320.4 508.73C1319.61 507.52 1318.96 506.245 1318.24 505.003C1316.83 502.551 1315.49 500.164 1314.19 497.842C1312.91 495.521 1311.93 493.134 1310.89 490.91C1309.87 488.687 1308.83 486.562 1307.98 484.502C1307.23 482.409 1306.51 480.415 1305.82 478.518C1305.14 476.655 1304.51 474.889 1303.93 473.287C1303.37 471.652 1303.04 470.115 1302.68 468.742C1301.25 463.249 1300.43 460.11 1300.43 460.11C1300.43 460.11 1301.57 463.151 1303.57 468.448C1304.09 469.755 1304.55 471.26 1305.27 472.796C1306.02 474.333 1306.8 476.001 1307.65 477.766C1308.5 479.532 1309.42 481.396 1310.36 483.39C1311.41 485.319 1312.65 487.281 1313.86 489.341C1315.13 491.401 1316.28 493.592 1317.75 495.717C1319.25 497.809 1320.79 500 1322.39 502.224C1323.21 503.335 1323.96 504.48 1324.84 505.591C1325.75 506.67 1326.67 507.749 1327.58 508.861C1329.45 511.052 1331.28 513.34 1333.3 515.531C1337.52 519.749 1341.67 524.261 1346.54 528.152C1351.11 532.37 1356.37 535.901 1361.37 539.662C1366.73 542.931 1371.89 546.462 1377.48 549.111C1382.84 552.119 1388.49 554.277 1393.82 556.566C1396.53 557.612 1399.28 558.397 1401.89 559.312C1403.2 559.737 1404.51 560.195 1405.81 560.62C1407.12 561.013 1408.43 561.274 1409.7 561.601C1412.25 562.222 1414.73 562.844 1417.15 563.432C1419.57 563.988 1421.96 564.217 1424.21 564.609C1426.47 564.936 1428.65 565.329 1430.68 565.59C1432.67 565.721 1434.57 565.852 1436.33 565.95C1438.1 566.081 1439.76 566.179 1441.27 566.31C1442.84 566.375 1444.5 566.277 1445.91 566.277C1451.56 566.179 1454.83 566.113 1454.83 566.113L1454.08 587.366Z" fill="#0F6F59"/>
<path fill-rule="evenodd" clip-rule="evenodd" d="M1604.03 634.973C1604.03 634.973 1604.59 634.417 1605.6 633.338C1606.16 632.782 1606.65 632.194 1607.56 631.344C1608.57 630.494 1609.75 629.513 1611.09 628.401C1612.43 627.355 1613.87 626.537 1615.47 625.491C1617.07 624.51 1618.9 623.66 1620.8 622.679C1624.68 621.044 1629.1 619.311 1633.96 618.2C1643.67 615.682 1654.98 614.603 1666.81 613.655C1669.75 613.393 1672.72 613.164 1675.73 612.903C1678.7 612.608 1681.67 612.281 1684.78 611.889C1687.88 611.529 1690.99 611.17 1693.99 610.647C1697 610.091 1700.17 609.862 1703.11 609.044C1706.08 608.292 1709.15 607.802 1712.06 606.854C1714.91 605.873 1717.72 604.925 1720.53 603.944C1723.3 602.57 1726.08 601.197 1728.79 599.824C1731.37 598.352 1733.66 596.652 1736.11 595.115C1737.35 594.363 1738.47 593.481 1739.54 592.565C1740.66 591.65 1741.73 590.767 1742.84 589.884C1745.07 588.184 1747.03 586.222 1748.96 584.358C1752.91 580.729 1756.18 576.805 1759.38 573.339C1762.35 569.677 1765.16 566.375 1767.48 563.301C1769.8 560.228 1771.86 557.579 1773.5 555.356C1776.76 550.877 1778.63 548.326 1778.63 548.326C1778.63 548.326 1776.93 550.975 1773.95 555.65C1772.48 557.972 1770.59 560.751 1768.46 563.988C1766.34 567.192 1763.73 570.691 1760.98 574.582C1757.97 578.277 1754.94 582.462 1751.11 586.418C1749.28 588.478 1747.39 590.571 1745.2 592.467C1744.12 593.448 1743.07 594.462 1741.96 595.442C1740.88 596.456 1739.77 597.47 1738.53 598.352C1736.08 600.151 1733.6 602.178 1731.02 603.878C1728.37 605.415 1725.69 606.952 1723.01 608.521C1720 609.796 1716.96 611.039 1713.93 612.347C1710.92 613.524 1707.75 614.276 1704.68 615.257C1701.57 616.27 1698.4 616.761 1695.3 617.513C1692.16 618.265 1689.09 618.788 1686.02 619.377C1683.01 619.965 1679.88 620.521 1676.8 621.011C1673.77 621.469 1670.76 621.894 1667.82 622.352C1656.12 624.02 1645.43 625.785 1636.94 628.597C1632.62 629.905 1629.03 631.605 1625.93 633.142C1624.46 634.025 1623.05 634.81 1621.87 635.627C1620.76 636.51 1619.59 637.262 1618.77 637.981C1618.02 638.701 1617.33 639.322 1616.71 639.878C1616.09 640.499 1615.44 641.349 1614.98 641.872C1614.03 643.017 1613.51 643.605 1613.51 643.605L1604.03 634.973Z" fill="#0F6F59"/>
<path fill-rule="evenodd" clip-rule="evenodd" d="M1500.32 682.939C1500.32 682.939 1496.92 680.749 1491 676.891C1489.47 675.812 1487.96 675.092 1486.3 674.177C1484.63 673.261 1482.8 672.28 1480.87 671.234C1479.01 670.155 1476.59 669.109 1474.21 667.964C1471.79 666.82 1469.24 665.643 1466.56 664.368C1461.04 661.915 1455.03 659.267 1448.69 656.455C1442.38 653.676 1435.52 650.569 1428.59 647.3C1421.63 644.03 1414.51 640.466 1407.35 636.739C1403.79 634.81 1400.19 632.848 1396.6 630.853C1393.07 628.761 1389.51 626.635 1385.98 624.543C1382.51 622.287 1379.05 620.031 1375.59 617.807C1372.19 615.518 1368.89 613.001 1365.59 610.647L1364.35 609.764L1363.63 609.241L1363.04 608.783L1360.75 606.919C1359.22 605.677 1357.71 604.434 1356.21 603.192C1353.17 600.837 1350.26 597.927 1347.39 595.344C1344.45 592.761 1341.83 589.982 1339.32 587.268C1336.77 584.587 1334.25 581.971 1332.06 579.159C1329.87 576.38 1327.55 573.83 1325.66 571.116C1323.76 568.402 1321.93 565.754 1320.17 563.236C1318.37 560.751 1317.1 558.07 1315.62 555.683C1314.28 553.231 1312.78 551.04 1311.83 548.751C1309.84 544.174 1307.81 540.381 1306.64 537.013C1304.35 530.31 1303.01 526.485 1303.01 526.485C1303.01 526.485 1304.68 530.147 1307.62 536.588C1309.09 539.792 1311.47 543.389 1313.86 547.607C1315 549.765 1316.74 551.759 1318.24 554.015C1319.91 556.206 1321.38 558.658 1323.37 560.914C1325.3 563.203 1327.32 565.557 1329.41 568.01C1331.51 570.429 1333.99 572.685 1336.37 575.138C1338.73 577.623 1341.37 579.911 1344.12 582.233C1346.8 584.587 1349.58 587.007 1352.55 589.132C1355.56 591.323 1358.3 593.677 1361.67 595.769C1363.3 596.848 1364.93 597.927 1366.57 599.006L1369.05 600.641L1369.67 601.066L1370.2 601.328L1371.47 602.047C1374.87 603.976 1378.2 606.036 1381.66 607.933C1385.16 609.731 1388.69 611.562 1392.19 613.36C1395.78 615.028 1399.38 616.728 1402.94 618.396C1406.56 619.932 1410.19 621.469 1413.79 623.006C1421.04 625.916 1428.23 628.663 1435.29 631.148C1442.35 633.665 1449.11 635.954 1455.74 638.145C1462.38 640.303 1468.62 642.363 1474.4 644.259C1477.34 645.305 1480.15 646.286 1482.83 647.234C1485.55 648.215 1488.03 649 1490.58 650.144C1493.09 651.191 1495.45 652.204 1497.6 653.12C1499.76 654.035 1501.85 654.918 1503.32 655.736C1509.6 658.973 1513.19 660.836 1513.19 660.836L1500.32 682.939Z" fill="#0F6F59"/>
<path fill-rule="evenodd" clip-rule="evenodd" d="M1353.46 601.622C1353.46 601.622 1352.94 601.655 1351.96 601.753C1351.47 601.786 1350.85 601.851 1350.16 601.917C1349.8 601.949 1349.41 601.982 1349.02 602.015C1348.53 602.015 1348.04 602.047 1347.52 602.047C1346.44 602.08 1345.26 602.08 1343.99 602.113C1342.78 602.047 1341.47 601.982 1340.07 601.917C1337.32 601.72 1334.22 601.393 1330.95 600.772C1317.72 598.516 1301.38 592.434 1286.28 584.391C1284.39 583.377 1282.52 582.364 1280.66 581.285L1277.82 579.65L1275.17 577.982C1271.67 575.857 1268.21 573.241 1265.01 570.789C1263.47 569.481 1261.97 568.173 1260.5 566.931C1259.06 565.623 1257.79 564.217 1256.48 562.942C1255.14 561.667 1253.96 560.326 1252.88 558.953C1251.81 557.612 1250.66 556.37 1249.75 555.062C1248.83 553.754 1247.98 552.479 1247.17 551.269C1246.74 550.68 1246.35 550.092 1245.96 549.503C1245.63 548.882 1245.3 548.293 1245.01 547.738C1243.83 545.416 1242.56 543.552 1241.97 541.754C1240.6 538.321 1239.81 536.359 1239.81 536.359C1239.81 536.359 1240.79 538.223 1242.46 541.493C1243.21 543.16 1244.65 544.926 1245.99 547.084C1246.35 547.607 1246.71 548.163 1247.1 548.719C1247.53 549.242 1247.98 549.765 1248.44 550.321C1249.36 551.432 1250.3 552.577 1251.32 553.787C1252.33 554.964 1253.57 556.043 1254.71 557.252C1255.89 558.462 1257.13 559.672 1258.54 560.751C1259.91 561.863 1261.28 563.105 1262.79 564.217C1264.32 565.296 1265.86 566.408 1267.46 567.519C1270.73 569.579 1273.99 571.639 1277.78 573.47L1280.56 574.876L1283.31 576.119C1285.2 576.969 1287.1 577.786 1289.03 578.604C1304.35 585.012 1320.46 589.23 1332.36 590.08C1335.33 590.342 1338.04 590.374 1340.39 590.309C1341.57 590.276 1342.65 590.211 1343.66 590.178C1344.61 590.08 1345.46 589.982 1346.24 589.884C1346.64 589.851 1346.99 589.819 1347.35 589.786C1347.75 589.721 1348.14 589.655 1348.5 589.59C1349.22 589.459 1349.8 589.328 1350.3 589.263C1351.28 589.067 1351.8 588.968 1351.8 588.968L1353.46 601.622Z" fill="#0F6F59"/>
<path fill-rule="evenodd" clip-rule="evenodd" d="M1221.87 403.577C1221.87 403.577 1245.96 385.136 1254.49 410.672C1254.45 410.672 1240.3 421.985 1221.87 403.577Z" fill="#41AE5B"/>
<path fill-rule="evenodd" clip-rule="evenodd" d="M1311.15 311.371C1311.15 311.371 1304.06 334.063 1328.14 338.314C1328.17 338.346 1336.67 315.655 1311.15 311.371Z" fill="#41AE5B"/>
<path fill-rule="evenodd" clip-rule="evenodd" d="M1338.07 458.867C1338.07 458.867 1352.26 448.928 1357.91 470.213C1357.94 470.213 1348.01 475.903 1338.07 458.867Z" fill="#41AE5B"/>
<path fill-rule="evenodd" clip-rule="evenodd" d="M1328.17 338.346C1328.17 338.346 1312.94 329.845 1306.57 348.973C1306.54 348.973 1328.5 356.428 1328.17 338.346Z" fill="#41AE5B"/>
<path fill-rule="evenodd" clip-rule="evenodd" d="M1254.45 410.672C1254.45 410.672 1236.38 413.876 1237.43 433.004C1237.46 433.004 1262.95 431.925 1254.45 410.672Z" fill="#41AE5B"/>
<path fill-rule="evenodd" clip-rule="evenodd" d="M1438.36 279.819C1438.36 279.819 1425.62 261.737 1438.36 250.032C1438.36 250.065 1455.35 264.942 1438.36 279.819Z" fill="#41AE5B"/>
<path fill-rule="evenodd" clip-rule="evenodd" d="M1233.21 487.772C1233.21 487.772 1222.04 485.123 1219.39 499.477C1219.39 499.477 1233.21 497.875 1233.21 487.772Z" fill="#0F6F59"/>
<path fill-rule="evenodd" clip-rule="evenodd" d="M1318.24 562.746C1318.24 562.746 1308.66 548.915 1292.72 555.291C1292.75 555.291 1306.57 574.451 1318.24 562.746Z" fill="#0F6F59"/>
<path fill-rule="evenodd" clip-rule="evenodd" d="M1318.24 562.745C1318.24 562.745 1304.42 559.541 1302.29 577.099C1302.29 577.099 1318.79 576.576 1318.24 562.745Z" fill="#0F6F59"/>
<defs>
<radialGradient id="paint0_radial_1415_2298" cx="0" cy="0" r="1" gradientUnits="userSpaceOnUse" gradientTransform="translate(1643.28 565.443) rotate(1.7833) scale(381.065 368.136)">
<stop stop-color="#126D59"/>
<stop offset="1" stop-color="#154C3D"/>
</radialGradient>
<radialGradient id="paint1_radial_1415_2298" cx="0" cy="0" r="1" gradientUnits="userSpaceOnUse" gradientTransform="translate(394.973 236.978) rotate(14.8411) scale(1117.12 658.457)">
<stop stop-color="#41AE5B"/>
<stop offset="1" stop-color="#126D59"/>
</radialGradient>
<radialGradient id="paint2_radial_1415_2298" cx="0" cy="0" r="1" gradientUnits="userSpaceOnUse" gradientTransform="translate(1236.39 181.08) rotate(41.677) scale(545.972 503.238)">
<stop stop-color="#41AE5B"/>
<stop offset="1" stop-color="#126D59"/>
</radialGradient>
</defs>
</svg>
