<svg width="985" height="335" fill="none" xmlns="http://www.w3.org/2000/svg"><path d="M-217.418 206.321c26.358-24.532 68.298-24.591 101.731-11.162 33.433 13.43 60.985 37.842 89.91 59.33 84.448 62.642 196.298 102.662 295.193 66.939 72.328-26.113 125.91-87.979 194.597-122.508 60.835-30.56 130.238-38.2 197.999-44.766 67.761-6.536 137.104-12.892 198.984-41.304 61.851-28.41 115.88-83.89 122.806-151.606 1.701-16.504-2.329-37.245-18.239-41.99-6.119-1.82-12.687-.716-18.955.477-49.791 9.55-98.477 24.144-148.119 34.32-318.148 65.21-657.669-54.076-969.101 37.872" fill="url(#paint0_linear_1434_2297)"/><path d="M-217.418 206.321c26.358-24.532 68.298-24.591 101.731-11.162 33.433 13.43 60.985 37.842 89.91 59.33 84.448 62.642 196.298 102.662 295.193 66.939 72.328-26.113 125.91-87.979 194.597-122.508 60.835-30.56 130.238-38.2 197.999-44.766 67.761-6.536 137.104-12.892 198.984-41.304 61.851-28.41 115.88-83.89 122.806-151.606 1.701-16.504-2.329-37.245-18.239-41.99-6.119-1.82-12.687-.716-18.955.477-49.791 9.55-98.477 24.144-148.119 34.32-318.148 65.21-657.669-54.076-969.101 37.872" fill="#00A0E3"/><path d="M-211.418 52.238C-173.03 44.18-133 58.147-100.015 79.366s60.776 49.421 91.313 74.042C53.507 203.575 130.7 239.537 210.61 237.15c82.06-2.447 157.791-44.527 223.343-93.919C499.505 93.84 558.908 35.913 629.176-6.495c78.03-47.123 168.298-73.774 259.432-76.579-100.895-22.681-204.775-28.113-308.088-32.888-142.836-6.595-286.656-12.087-428.238 7.909C19.447-89.311-109.15-48.455-237-7.808" fill="url(#paint1_linear_1434_2297)"/><path d="M-211.418 52.238C-173.03 44.18-133 58.147-100.015 79.366s60.776 49.421 91.313 74.042C53.507 203.575 130.7 239.537 210.61 237.15c82.06-2.447 157.791-44.527 223.343-93.919C499.505 93.84 558.908 35.913 629.176-6.495c78.03-47.123 168.298-73.774 259.432-76.579-100.895-22.681-204.775-28.113-308.088-32.888-142.836-6.595-286.656-12.087-428.238 7.909C19.447-89.311-109.15-48.455-237-7.808" fill="#8ABC36"/><defs><linearGradient id="paint0_linear_1434_2297" x1="-168.086" y1="-2.47" x2="932.117" y2="191.558" gradientUnits="userSpaceOnUse"><stop stop-color="#8ABC36"/><stop offset="1" stop-color="#BFE97A"/></linearGradient><linearGradient id="paint1_linear_1434_2297" x1="-254" y1="170.5" x2="533.018" y2="-7.921" gradientUnits="userSpaceOnUse"><stop stop-color="#00A0E3"/><stop offset="1" stop-color="#8ABC36"/></linearGradient></defs></svg>