<svg width="258" height="92" fill="none" xmlns="http://www.w3.org/2000/svg"><path d="M104.225 53.765h41.456V41.388h-27.436v-8.252h24.48V21.615h-24.48v-7.94h27.057V1.296h-41.077v52.468zm73.287 1.09c11.292 0 17.81-5.06 22.585-11.833l-10.61-7.784c-3.108 3.814-6.215 6.305-11.52 6.305-7.2 0-12.202-6.15-12.202-14.012 0-7.785 5.002-14.012 12.202-14.012 4.85 0 8.261 2.335 11.216 6.072l10.383-8.252C195.019 4.878 188.501.285 178.118.285c-15.536 0-26.98 11.988-26.98 27.246 0 15.803 11.747 27.324 26.374 27.324zm52.9 0c15.764 0 27.587-12.222 27.587-27.324 0-15.18-11.671-27.246-27.435-27.246s-27.587 12.222-27.587 27.246c0 15.258 11.671 27.324 27.435 27.324zm.152-13.156c-7.731 0-13.036-6.539-13.036-14.168 0-7.707 5.154-14.168 12.884-14.168 7.807 0 13.112 6.617 13.112 14.168 0 7.707-5.154 14.168-12.96 14.168zM104.982 91.131h6.67v-8.718h11.292V76.73h-11.292v-4.204h12.505V66.61h-19.175v24.52zm22.206 0h6.594v-7.395h2.88l4.85 7.395h7.655l-5.684-8.563c2.956-1.245 4.926-3.736 4.926-7.55 0-2.492-.758-4.36-2.122-5.84-1.667-1.634-4.168-2.568-7.806-2.568h-11.293v24.52zm6.594-12.766v-5.917h4.32c2.274 0 3.638 1.012 3.638 2.958 0 1.869-1.289 2.959-3.562 2.959h-4.396zm18.113 12.766h6.67V66.61h-6.67v24.52zm10.99 0h19.402v-5.76h-12.809v-3.893h11.444v-5.371h-11.444V72.37h12.657v-5.76h-19.25v24.52zm22.812 0h6.594V77.664l10.155 13.467h5.836V66.61h-6.518v12.922l-9.852-12.922h-6.215v24.52zm26.829 0h9.095c8.64 0 13.642-5.215 13.642-12.3 0-7.161-4.927-12.221-13.491-12.221h-9.246v24.52zm6.67-5.994v-12.61h2.652c4.017 0 6.594 2.335 6.594 6.305 0 4.048-2.577 6.305-6.594 6.305h-2.652zm28.572 6.462c5.76 0 9.625-3.037 9.625-8.019 0-4.67-3.411-6.539-8.867-7.706-3.335-.779-4.169-1.324-4.169-2.414 0-.934.758-1.634 2.426-1.634 2.046 0 4.471.856 6.669 2.413l3.335-4.827c-2.653-2.102-5.836-3.27-9.853-3.27-5.76 0-9.246 3.348-9.246 7.863 0 5.138 3.865 6.617 9.019 7.785 3.183.778 4.017 1.323 4.017 2.413 0 1.09-.986 1.713-2.729 1.713-2.804 0-5.457-1.012-7.806-2.959l-3.638 4.516c2.88 2.724 6.973 4.126 11.217 4.126z" fill="#fff"/><path fill-rule="evenodd" clip-rule="evenodd" d="M12.218 69.88c.53.233 1.289.856 1.82 1.245h.075l4.396 2.802h.075c0 .078.076.078.076.078l4.244 2.102c.228.156.228.156.455.234.152.077.303.077.53.155l.607.312s.152 0 .152.077l1.97.779h.076l4.168 1.479c.076 0 .303.078.303.078l1.668.545c.379.078.151.078.53.155.228.078.38 0 .606.078l2.88.779c.91.311 2.502.467 3.487.7l2.5.468c.986.155 1.592.155 2.502.389-.152.545-.758 1.167-1.061 1.557l-1.895 2.102c-.076.155-.151.155-.303.31l-.834.857c-.076.078-.151.078-.227.156-.607.467-1.213 1.09-1.97 1.479l-2.274 1.012c-2.35.856-2.577.233-4.245.545v.233c.455.078.531.234.834.234.455.156.682.078 1.137.234.91.233 1.137.155 2.122.233.758.078 1.213.39 2.046.39 1.213.077 4.623.388 5.609.31.379-.077.454-.155.985-.155.91 0 1.364.156 2.198 0 .455-.156.455-.078.985-.078.682 0 .455-.156.985-.156.455-.077.53 0 .986-.077l2.955-.468c.152-.077.152 0 .38-.077l.15-.078h.077l1.212-.234s.076 0 .076-.078h.076l.682-.155c.379-.078.53-.156.91-.234.303-.156.075-.078.378-.156l6.215-2.335 2.122-1.245c.152-.078.227-.078.379-.234l.152-.078 2.35-1.79h.075c.606-.545 1.137-.934 1.667-1.48.076 0 .076-.077.076-.077l.076-.078 1.288-1.401c.985-1.168 1.97-2.413 2.501-3.815.152-.389.152-.545.303-.856.758-1.557.91-3.036 1.061-4.904v-2.024c0-.39 0-.623-.075-.934-.076-.39-.152-.701-.152-1.013-.152-.856-.303-1.09-.53-1.868-.152-.467-.228-1.323-.834-1.557-.607.39-3.032 4.126-3.865 4.982l-4.85 5.528c-.304.389-.304.467-.683.778l-8.64 7.084s-.151.078-.227.156l-1.82 1.09-.227.077-3.258 1.79c-.53.156-.758.468-1.289.468.076-.078-.076 0 .152-.156.076-.078.151-.078.227-.156l.91-.467h.075l5.23-3.503c.303-.233.455-.467.834-.7l.454-.312 2.88-2.49h.076l.53-.546c.076 0 .076-.078.076-.078s.076 0 .076-.077h.076c0-.078 0-.078.076-.078l2.425-2.413c0-.078.076-.078.076-.078l1.288-1.557a48.203 48.203 0 005.154-5.994c.151-.234.075-.234.303-.39l1.212-1.712c.53-.623.91-1.401 1.44-2.102.53-.545 1.44-1.79 1.516-2.647-1.819 0-2.35.7-4.092 0-1.516-.623-3.183-.545-4.85-.623l-.835.156c-.606.156-1.136.234-1.667.545-.303.156-.303.156-.606.234l-.303.155-.076.078-1.743 1.09s-.228.233-.303.233l-.607.468c0 .077 0 .077-.075.077l-3.032 3.114c-.834 1.09-2.804 3.737-3.335 4.827-.227.389-.379.7-.606 1.012-1.213 1.557-2.198 3.27-3.259 4.982-.227.39-.303.7-.606 1.09l-.986 1.401c-.606.856-1.136 1.868-1.818 2.569.075-.467-.076-.623-.228-.856l-.91-1.48s0-.077-.075-.077l-.076-.156c-.303-.467-.303-.779-.379-1.48-.076-1.245-.606-3.19-1.288-4.28a2.795 2.795 0 00-.53-.78c-.531-.622-.304-.622-1.062-1.245L39.2 70.424c-.152 0-.076 0-.227-.078l-.986-.544c-.606-.312-1.288-.857-1.97-1.013l-4.547-1.323c-1.516-.39-3.714-.778-5.154-.856-.606 0-.682-.078-1.137-.156-.152 0-.227 0-.53-.078l-3.79-.389c-1.516-.233-3.031-.623-4.623-.7.152-.468.379-.546.53-.935.152-.467.228-.7.455-1.167.228-.545.228-.701.682-1.012l1.061-.857c.455-.467.91-.856 1.365-1.323.227-.39.378-.545.606-.934l.834-1.635c1.06-2.258.985-5.06.606-7.395-.076-.468-.076-.857-.227-1.402L16.765 34.85c-.531-1.324-1.82-3.893-2.047-5.06L12.9 23.95v-.078l-.075-.311c-.076-.311-.076-.156-.076-.467v-.156c0-.233 0 0-.076-.233-.303-1.79-.379-3.737.152-5.45.303-1.09 1.212-2.958 1.819-3.814-.834 0-.91.467-1.365.934-.227.312-.379.39-.606.623l-4.699 6.15-3.031 5.215c-.076.156-.152.156-.152.234-.303.467-.227.311-.455.856l-1.819 4.36c-.075.311-.151.622-.303.934C.168 37.962-.514 44.502.395 50.029c.228 1.323.53 2.49 1.061 3.736l2.122 3.815c.91 1.323 2.198 2.49 3.487 3.347l.227.156.455.233 3.41 1.557c.303.078.228 0 .53.156.455.156-.15 0 .455.156.531.077.986.155 1.44 0-.151-.701-.454-1.246-.682-1.869l-1.59-4.826c-.152-.39-.152-.623-.303-1.012l-.38-1.401a1.498 1.498 0 01-.15-.623L8.58 44.268c-.454-3.347-.379-7.862-.075-10.976.075-.545.151-.545.151-1.168.228-2.102.38-1.868.455-3.815h.151c-.151 2.492-.454 4.671-.303 6.773 0 .39.076 1.09.076 1.324-.076.467-.076.467 0 1.09.227 2.18.227 4.047.682 6.227.076.39.152.779.152 1.09.227 2.024.758 3.814 1.212 5.76.38 1.869.834 3.66 1.516 5.372.076.311.228.778.303 1.09.303 1.167.758 2.18 1.137 3.27l.076.077.076.234c.454 1.4 1.44 3.191 1.667 4.67-.758-.077-.53-.155-1.061-.311-.606-.078-.758-.078-1.288-.233-.38-.078-.758-.078-1.213-.234l-4.547-1.635-.303-.155-2.729-1.791c-.682-.7-1.364-1.245-1.819-2.102a1.633 1.633 0 01-.303-.467l-.606-1.168c-.152-.467-.076-.544-.455-.7-.379.778.379 2.024.606 2.802.455 2.18 1.365 4.36 2.198 6.462l.607 1.245c.075.234.075.156.227.467.53 1.168.455 1.324 1.213 2.647.454.7.757 1.479 1.288 2.257l.985 1.557c.303.467 1.743 2.725 2.274 3.27l6.82 6.928c.531.545 2.956 2.024 3.639 2.413l2.35 1.168c.226.156.15.078.454.156l1.44.545c1.212.389 1.895.623 3.259.7l2.122.156c1.44.078 1.212 0 2.35-.156l1.97-.389c.075 0 .075-.078.075-.078l1.668-.623c.303-.155.53-.233.758-.389l.151-.078c.986-.622 1.97-1.167 2.805-1.946l.606-.623a.6.6 0 00.303-.31c.379-.312.758-.624.91-1.09-1.289-.78-3.79-.701-5.003-1.168-.303-.156-.227-.078-.606-.156-.455-.078-.53-.234-1.137-.312-1.137-.155-2.046-.7-3.183-.934-1.06-.233-2.122-.545-3.107-1.012l-1.82-.622h-.075l-.53-.234h-.076l-1.516-.623c-1.592-.778-3.259-1.401-4.775-2.335l-1.743-1.012s0-.078-.076-.078h-.075c0-.078 0-.078-.076-.078l-.076-.078-.076-.077c-.076 0-.076-.078-.076-.078l-3.713-2.647c-.682-.467-2.274-1.635-2.653-2.258z" fill="#fff"/><path fill-rule="evenodd" clip-rule="evenodd" d="M14.72 29.789c.757 0 1.288-.156 1.97-.156.91-.078 1.137-.078 1.895.233l1.667.623c.834.234 2.274.312 3.26.312.681 0 .833-.156 1.363-.234.455-.078 0 0 .455-.156.152 0 .303-.078.455-.078l.151-.077h.152c1.591-.545 2.804-1.402 4.092-2.414l6.215-7.161c.53-.701.985-1.246 1.44-1.947l.758-1.09c.152-.155.076-.077.152-.233l9.018-11.755s.076 0 .076-.078l.607-.545c.985-.778 2.197-1.712 3.334-2.101.303-.078.53-.234.758-.312.53-.311.303-.155.91-.311 1.44-.312 1.364-.312 3.031-.234.606 0 .606.078.682-.467-.53-.078-1.288-.311-1.819-.389-.379-.156-.606-.156-.985-.156-.985-.233-2.198-.467-3.183-.545-.758-.077-1.213-.233-2.122-.233-3.032-.156-5.457-.39-8.564-.234l-3.865.467c-1.365.234-2.653.312-3.941.779h-.076l-5.457 1.868c-.379.156-.53.234-.834.39l-1.44.7c-.227.156-.454.234-.682.39l-1.895 1.09c-.075 0-.075.077-.075.077h-.076c-1.288.856-.758.623-1.516 1.168l-1.44 1.167c-.682.623-2.652 2.88-3.183 3.893v.078l-1.364 2.724c-.834 2.491-1.364 5.76-.682 8.252l.53 2.335c.076.312.228.545.303.857.53 0 .607-.234.834-.623.152-.156.076-.078.152-.234.151-.155.075-.078.151-.233h.076c0-.078.076-.156.152-.156 0-.078.075-.156.151-.156l.303-.467 8.792-9.42a66.768 66.768 0 012.577-2.257c.151-.078.075 0 .227-.155L38.593 6.2c.53-.233 1.819-.934 2.425-.934-.303.311-.985.545-1.44.778l-1.516.857s-.227.078-.227.155l-.227.078c0 .078-.076.078-.076.078s-.076 0-.076.078l-4.168 2.647c-.228.233-.228.155-.455.311l-4.775 3.97c-.075.078-.151.078-.227.156l-2.804 2.647-.152.155L15.1 28.854c-.228.312-.304.468-.38.935z" fill="#fff"/><path fill-rule="evenodd" clip-rule="evenodd" d="M76.79 22.393c-.682-.078-1.591-1.012-2.198-1.323-.303-.234-.303-.156-.53-.312 0-.077-.076-.077-.076-.077l-.379-.234c-.076 0-.076 0-.076-.078l-4.698-2.413c-.455-.234-.834-.311-1.289-.545-.076 0-.227-.078-.303-.078l-9.019-3.036c-.682-.233-1.44-.311-2.198-.545l-1.515-.311c-.304-.078-.228-.156-.607-.234l-4.699-.778c-.682 0-.985-.078-1.515-.234-1.061-.233-2.274-.078-3.41-.311-1.365-.156-2.123-.545-1.062 1.012.303.39.455.7.682 1.012.682.934.91 3.27 1.743 5.138.682 1.245.38.545 1.061 1.557l1.289 1.323c.227.234.227.312.379.467l.53.39c.682.544 1.516.934 2.35 1.245l.379.234h.075c3.032 1.323 6.746 1.79 9.929 1.946 1.97.155 11.292.7 13.187 1.167l5.078 1.012c.379.156.151.078.379.156l.606.233c.076 0 .076.078.151.078l1.365.545c1.97 1.168 3.94 2.57 5.002 4.749.151.39.151.7.682.778 0-1.012-1.743-5.293-2.198-6.305l-1.137-2.647c-.379-.545-.606-1.012-.91-1.635-.075-.077-.15-.233-.227-.389 0 0 0-.078-.076-.078l-.151-.311c-.152-.234-.227-.467-.379-.779l-.985-1.712c-.076 0-.076 0-.076-.078l-2.35-3.503h-.075l-1.895-2.491c-.076 0-.076-.078-.152-.156l-.075-.078-.076-.078-2.198-2.257s-.076-.078-.076-.156l-1.212-1.09-.076-.078-1.137-.934-.076-.077-8.716-5.06-1.364-.468c-2.046-.622-3.94-.544-5.987-.622l-4.093.934c-1.136.467-2.122.856-3.107 1.635l-3.41 3.191c-.228.234-.303.312-.38.7.759 0 1.213.312 2.274.312.91.078 1.365.312 2.35.39.606.077.53.155 1.06.233.456.156.759.156 1.213.156.607.078.683.233 1.744.389.53.078.303.078.53.156l1.516.389c.303.078.379.078.606.078l11.899 4.437 2.122 1.168.152.155h.075l.076.078c.076 0 .076 0 .076.078.076 0 .152.078.152.078l3.94 2.647c.228.233.455.389.758.622.38.234.607.234.758.623z" fill="#fff"/><path fill-rule="evenodd" clip-rule="evenodd" d="M75.502 78.987c.53 0 .682-.311.985-.622l1.895-2.258c.303-.39.227 0 .227-.7.607 0 .455-.234 1.062-1.013l5.987-10.509c.151-.389.227-.389.379-.778l1.212-3.192c.38-.856.53-1.713.758-2.569.152-.856.606-2.024.682-2.724.152-1.324.304-2.88.607-4.126.075-.779 0-3.27 0-4.048 0-.779 0-1.246-.076-1.947-.076-.7-.227-1.245-.303-1.868-.076-.467 0-.311-.152-.778-.151-.39-.076-.467-.227-.857l-1.668-4.281v-.078l-.454-.778c-.758-1.168-1.592-2.336-2.653-3.192l-.834-.7h-.075l-1.061-.78c-.228-.077-.228-.155-.455-.233l-3.941-1.634c-1.061-.234-.152-.234-2.047-.312-.075.779-.075.39.076.7l.076.079.985 2.49c.152.468.38 1.09.53 1.558l1.668 5.371c.152.39.152.467.303.778l.834 3.27c.076.311.152.39.227.7 0 .156 0 .312.076.468l.228 1.245c.606 3.036 1.06 7.318.909 10.432l-.227 4.281c-.076 1.48-.38 2.413-.455 3.97l.076-4.36c.075-1.79-.303-7.005-.607-8.874 0-.389-.075-.934-.151-1.245-.076-.545-.152-.7-.227-1.246-.38-2.49-.986-4.904-1.668-7.395l-.53-1.635c-.455-1.323-.91-3.191-1.365-4.281-.833-1.947-1.44-4.282-2.425-6.15l-.682-1.48c-.303-.466-.076 0-.227-.466h-.38c-.075.622-.985 2.646-1.44 3.114l-1.44 1.245-.302.311-.076.078-.227.234c-.834 1.012-1.365 2.024-1.82 3.347-.681 1.868-.454 2.413-.606 3.97-.076 2.336.682 5.216 1.516 7.24l.758 1.946c.379.623.606 1.869 1.137 2.803l3.94 8.251c.152.234.304.545.38.779l2.198 5.683c.303 1.09.682 2.18.833 3.347.076.39.076.623.076 1.09.076.467.152.39.227.778.076.623-.151 2.18-.227 2.725-.076.623-.303 1.946-.682 2.647v.077c-.076 0-.076.078-.076.078s0 .078-.076.078v.156c-.075 0-.075.078-.075.078s-.076.078-.076.155l-.455.701c-.151.311-.303.39-.379.856z" fill="#fff"/><path d="M34.5 38.74c2.274.935 5.988.857 7.958.39.152 0 .303-.078.53-.078-.984-.545-1.667-1.323-1.667-2.88-.075-1.48.152-2.335 1.82-2.647 1.742-.233 2.349 1.48 2.425 2.803 0 1.4-.304 1.712-.834 2.335.076 0 .151 0 .227.078 2.198-.39 6.897-.934 9.17 0-.53-.623-.833-.856-.909-2.18 0-1.401.38-2.958 2.047-2.958 1.743-.078 2.349 1.245 2.349 2.647 0 1.4-.379 1.946-1.061 2.569 1.364-.234 6.972 2.024 6.67-2.803-1.138-2.257.227-2.024.681-1.245.91 1.323.455 3.114.455 3.114-1.213 4.281-3.79 4.281-5.836 4.67l-.303 4.515v.234c.682 1.868.986 3.27 1.289 4.437 0 0 .758 1.09 2.197 2.258.607.856 1.062 1.479 1.289 2.024.985 1.946.379 3.347-.076 3.113-.303-.233-.834-1.556-1.137-1.79a451.727 451.727 0 00-5.911-4.67c-.228-.857-.455-1.791-.834-2.959-.227.7-.606 1.324-.91 1.868-.378.779-.757 1.79-.985 2.959l-.227 3.113s0 1.48-.227 2.492c-.228.934-1.82 1.79-2.122 1.634-.228-.078.454-1.635.454-1.635-.91-4.826-1.364-7.94-.227-10.275.834-1.635 1.743-3.425 1.667-7.084-.985-1.168-3.486-.857-5.608-.545l-.076 6.461c0 .078-.076.156-.076.156.53 3.736-.151 5.371.834 7.395.606 1.168 1.213 3.581 1.213 5.06.075.779-.228 2.102-.682 1.79-.303-.233-.076-.934-.303-1.167-.152-.233-.38-.545-.607-.934-.53-1.09-2.652-3.348-3.031-4.749-.38-1.557-.607-3.27-.834-4.982-.379.623-.682 1.168-.91 1.557-.303.545-.53.934-.53 1.012-.076.311.606 1.79.834 2.257.454 1.012 1.667 3.66.833 4.671-.227.467-.833 1.168-1.06 1.012-.228-.155-.152-1.479-.38-1.79-.833-.857-1.591-2.336-2.046-2.803-1.061-2.569-2.198-2.724-1.895-4.125.152-.779.53-1.324.986-2.18.53-.856 1.212-2.102 2.122-4.126l-1.061-3.347c-.986.155-1.82.233-2.729.155-.227 0-.379-.078-.606-.078a6.16 6.16 0 01-1.592-.467c.682 4.282 1.137 8.174 1.137 8.174.076 1.713-.303 2.336-1.212 3.425-1.365 1.635-2.577 3.426-3.714 4.282-.303.233-.606 1.635-.834 1.635-.303.078-.833-1.246-.91-1.946 0-1.09 2.88-5.372 3.335-7.084l-.227-1.557c-.91 1.4-1.667 1.946-1.97 2.18h-.076c-.455.389-1.061.466-1.668.31l-3.94-3.191c-.986-.311-1.744.39-1.44-.623a1.862 1.862 0 012.349-1.245l3.183 1.012c.303-.312.682-.857 1.061-1.713l-.455-5.45c-2.652-1.945-2.728-2.724-2.88-3.658 0-1.401.076-2.413.228-3.114.076-.778.151-1.401.303-1.479.303-.155.682.234.91 1.246.151.467 0 1.323.075 1.946-.151 1.635 2.577 2.958 3.865 2.102-.454-.545-.758-.779-.758-2.102-.075-1.246.38-2.57 1.895-2.803 1.516-.155 2.501.934 2.501 2.492.076 1.479-.606 2.257-1.515 2.88zm-3.637 13.39l.075-.078c-.075 0-.075.078-.151.078h.076z" fill="#fff"/></svg>