<svg width="195" height="70" fill="none" xmlns="http://www.w3.org/2000/svg"><path d="M78.774 40.908h31.334v-9.417H89.372v-6.279h18.502v-8.766H89.372v-6.042h20.449V.987H78.774v39.921zm55.392.83c8.535 0 13.461-3.85 17.07-9.004l-8.019-5.923c-2.349 2.903-4.698 4.798-8.707 4.798-5.442 0-9.223-4.68-9.223-10.662 0-5.923 3.781-10.661 9.223-10.661 3.666 0 6.243 1.777 8.477 4.62l7.848-6.278C147.398 3.71 142.472.217 134.624.217c-11.742 0-20.392 9.121-20.392 20.73 0 12.024 8.879 20.79 19.934 20.79zm39.983 0c11.914 0 20.85-9.3 20.85-20.79 0-11.55-8.821-20.731-20.736-20.731-11.914 0-20.85 9.299-20.85 20.73 0 11.61 8.821 20.79 20.736 20.79zm.114-10.01c-5.842 0-9.852-4.976-9.852-10.78 0-5.864 3.895-10.78 9.738-10.78 5.9 0 9.91 5.034 9.91 10.78 0 5.863-3.896 10.78-9.796 10.78zM79.347 69.34h5.041v-6.635h8.535v-4.324h-8.535v-3.198h9.452V50.68H79.347v18.66zm16.784 0h4.983v-5.628h2.177l3.666 5.627h5.786l-4.297-6.515c2.234-.948 3.724-2.843 3.724-5.746 0-1.895-.573-3.317-1.604-4.442-1.26-1.244-3.151-1.955-5.9-1.955h-8.535V69.34zm4.983-9.715v-4.501h3.265c1.719 0 2.75.77 2.75 2.25 0 1.422-.974 2.251-2.692 2.251h-3.323zm13.691 9.714h5.041V50.681h-5.041V69.34zm8.306 0h14.664v-4.383h-9.681v-2.962h8.65v-4.087h-8.65v-2.842h9.566V50.68h-14.549v18.66zm17.242 0h4.983V59.092l7.676 10.247h4.411V50.681h-4.927v9.833l-7.446-9.833h-4.697V69.34zm20.277 0h6.874c6.53 0 10.311-3.968 10.311-9.358 0-5.45-3.723-9.3-10.196-9.3h-6.989V69.34zm5.041-4.56v-9.596h2.005c3.036 0 4.984 1.777 4.984 4.798 0 3.08-1.948 4.797-4.984 4.797h-2.005zm21.595 4.916c4.354 0 7.275-2.31 7.275-6.101 0-3.554-2.577-4.976-6.702-5.864-2.52-.592-3.15-1.007-3.15-1.836 0-.711.573-1.244 1.833-1.244 1.546 0 3.379.651 5.041 1.836l2.52-3.672c-2.005-1.6-4.411-2.488-7.447-2.488-4.353 0-6.988 2.547-6.988 5.982 0 3.91 2.921 5.035 6.816 5.923 2.406.593 3.036 1.007 3.036 1.837 0 .829-.744 1.303-2.062 1.303-2.119 0-4.124-.77-5.9-2.251l-2.749 3.435c2.176 2.073 5.27 3.14 8.477 3.14z" fill="#8ABC36"/><path fill-rule="evenodd" clip-rule="evenodd" d="M9.235 53.169c.4.178.974.652 1.375.948h.057l3.322 2.132h.057c0 .06.058.06.058.06l3.207 1.599c.172.118.172.118.344.177.115.06.23.06.401.119l.458.237s.115 0 .115.059l1.49.592h.057l3.15 1.126c.057 0 .23.059.23.059l1.26.414c.286.06.114.06.4.119.172.059.287 0 .459.059l2.176.592c.688.237 1.89.356 2.635.533l1.89.356c.745.118 1.204.118 1.89.296-.114.415-.572.888-.801 1.185l-1.432 1.599c-.057.118-.115.118-.23.237l-.63.651c-.057.06-.114.06-.171.119-.458.355-.917.829-1.49 1.125l-1.718.77c-1.776.652-1.948.178-3.208.415v.177c.344.06.401.178.63.178.344.119.516.06.86.178.687.177.859.118 1.604.177.572.06.916.297 1.546.297.917.059 3.494.296 4.239.237.286-.06.344-.119.745-.119.687 0 1.03.119 1.66 0 .345-.118.345-.06.745-.06.516 0 .344-.118.745-.118.344-.059.401 0 .745-.059l2.234-.355c.114-.06.114 0 .286-.06l.115-.059h.057l.917-.177s.057 0 .057-.06h.057l.516-.118c.286-.06.4-.118.687-.178.23-.118.057-.059.287-.118l4.697-1.777 1.603-.948c.115-.06.172-.06.287-.177l.114-.06 1.776-1.362h.057c.459-.415.86-.71 1.26-1.125.058 0 .058-.06.058-.06l.057-.059.974-1.066c.745-.889 1.49-1.836 1.89-2.902.115-.296.115-.415.23-.652.572-1.184.687-2.31.801-3.731v-1.54c0-.297 0-.474-.057-.711-.057-.296-.114-.533-.114-.77-.115-.652-.23-.83-.401-1.422-.115-.355-.172-1.007-.63-1.184-.459.296-2.292 3.139-2.922 3.79l-3.666 4.206c-.229.296-.229.355-.515.592l-6.53 5.39s-.115.06-.172.119l-1.375.829-.172.059-2.463 1.362c-.401.119-.573.356-.974.356.057-.06-.057 0 .115-.119.057-.059.114-.059.171-.118l.688-.356h.057l3.953-2.665c.229-.178.343-.355.63-.533l.343-.237 2.177-1.895h.057l.401-.415c.058 0 .058-.06.058-.06s.057 0 .057-.058h.057c0-.06 0-.06.057-.06l1.834-1.836c0-.059.057-.059.057-.059l.974-1.185a36.61 36.61 0 003.895-4.56c.114-.178.057-.178.229-.297l.916-1.303c.401-.474.688-1.066 1.089-1.599.4-.414 1.088-1.362 1.145-2.014-1.374 0-1.775.533-3.093 0-1.145-.474-2.406-.414-3.666-.474l-.63.119c-.458.118-.86.178-1.26.415-.23.118-.23.118-.459.177l-.229.119-.057.059-1.317.83s-.172.177-.23.177l-.458.355c0 .06 0 .06-.057.06l-2.291 2.369c-.63.829-2.12 2.843-2.52 3.672-.173.296-.287.533-.459.77-.916 1.185-1.661 2.488-2.463 3.79-.172.297-.23.534-.458.83l-.745 1.066c-.458.652-.86 1.422-1.375 1.955.058-.356-.057-.474-.172-.652l-.687-1.125s0-.06-.057-.06l-.058-.118c-.229-.355-.229-.592-.286-1.125-.057-.948-.458-2.429-.974-3.258a2.127 2.127 0 00-.4-.592c-.402-.474-.23-.474-.803-.948l-1.26-1.125c-.114 0-.057 0-.172-.06l-.744-.414c-.459-.237-.974-.652-1.49-.77l-3.437-1.007c-1.145-.296-2.806-.592-3.895-.652-.458 0-.515-.059-.86-.118-.114 0-.17 0-.4-.06l-2.864-.295c-1.146-.178-2.291-.474-3.494-.534.114-.355.286-.414.4-.71.115-.356.173-.533.344-.889.172-.414.172-.533.516-.77l.802-.651c.344-.356.687-.652 1.03-1.007.173-.296.287-.415.46-.711l.63-1.244c.801-1.718.744-3.85.457-5.627-.057-.355-.057-.651-.171-1.066l-4.067-10.484c-.401-1.007-1.375-2.961-1.547-3.85L9.75 18.223v-.06l-.057-.236c-.057-.237-.057-.119-.057-.356v-.118c0-.178 0 0-.058-.178-.229-1.362-.286-2.843.115-4.146.23-.83.917-2.25 1.375-2.902-.63 0-.688.355-1.031.71-.172.237-.287.297-.459.474l-3.551 4.68-2.291 3.968c-.058.118-.115.118-.115.178-.229.355-.172.237-.344.651l-1.374 3.317c-.058.237-.115.474-.23.711C.127 28.884-.388 33.86.3 38.066c.172 1.006.4 1.895.802 2.842l1.604 2.903c.687 1.007 1.66 1.895 2.635 2.547l.171.118.344.178 2.578 1.184c.229.06.172 0 .4.119.344.118-.114 0 .344.118.401.06.745.119 1.089 0-.115-.533-.344-.948-.516-1.421L8.547 42.98c-.114-.296-.114-.474-.229-.77l-.286-1.066a1.147 1.147 0 01-.115-.474l-1.432-6.989c-.344-2.547-.286-5.982-.057-8.351.057-.415.114-.415.114-.889.172-1.6.287-1.421.344-2.902h.115c-.115 1.895-.344 3.554-.23 5.153 0 .296.058.83.058 1.007-.057.355-.057.355 0 .829.172 1.659.172 3.08.515 4.738.058.297.115.593.115.83.172 1.54.573 2.902.916 4.383.287 1.421.63 2.784 1.146 4.087.057.237.172.592.23.829.228.888.572 1.658.859 2.488l.057.059.057.178c.344 1.066 1.088 2.428 1.26 3.553-.573-.059-.4-.118-.802-.236-.458-.06-.572-.06-.973-.178-.287-.06-.573-.06-.917-.178l-3.437-1.244-.23-.118-2.061-1.362c-.516-.534-1.031-.948-1.375-1.6-.115-.118-.172-.237-.23-.355l-.457-.889c-.115-.355-.058-.414-.344-.533-.286.593.286 1.54.458 2.133.344 1.658 1.031 3.317 1.661 4.916l.459.947c.057.178.057.119.171.356.401.888.344 1.007.917 2.014.344.533.573 1.125.974 1.717l.744 1.185c.23.355 1.318 2.073 1.719 2.488l5.155 5.271c.401.415 2.234 1.54 2.75 1.836l1.776.889c.171.118.114.06.343.118l1.089.415c.916.296 1.432.474 2.463.533l1.604.118c1.088.06.916 0 1.775-.118l1.49-.296c.057 0 .057-.06.057-.06l1.26-.473c.23-.119.401-.178.573-.296l.115-.06c.744-.473 1.489-.888 2.119-1.48l.458-.474a.455.455 0 00.23-.237c.286-.237.572-.474.687-.83-.974-.592-2.864-.532-3.78-.888-.23-.118-.173-.06-.46-.118-.343-.06-.4-.178-.858-.237-.86-.119-1.547-.533-2.406-.711-.802-.178-1.604-.415-2.349-.77l-1.375-.474h-.057l-.4-.178h-.058l-1.146-.473c-1.203-.593-2.463-1.066-3.608-1.777l-1.318-.77s0-.06-.057-.06h-.058c0-.059 0-.059-.057-.059l-.057-.059-.057-.06c-.058 0-.058-.058-.058-.058l-2.806-2.014c-.516-.356-1.719-1.244-2.005-1.718z" fill="#8ABC36"/><path fill-rule="evenodd" clip-rule="evenodd" d="M11.125 22.665c.573 0 .974-.118 1.49-.118.687-.06.859-.06 1.432.177l1.26.474c.63.178 1.718.237 2.463.237.516 0 .63-.118 1.031-.177.344-.06 0 0 .344-.119.114 0 .229-.06.343-.06l.115-.058h.115c1.203-.415 2.12-1.067 3.093-1.837l4.697-5.449c.401-.533.745-.947 1.088-1.48l.573-.83c.115-.118.057-.059.115-.178L36.1 4.305s.058 0 .058-.06l.458-.414c.745-.592 1.661-1.303 2.52-1.6.23-.059.401-.177.573-.236.401-.237.23-.119.687-.237 1.089-.237 1.032-.237 2.292-.178.458 0 .458.06.515-.355-.4-.06-.974-.237-1.375-.296C41.542.81 41.37.81 41.084.81c-.745-.178-1.661-.355-2.406-.415-.573-.059-.916-.177-1.604-.177-2.291-.12-4.124-.298-6.473-.179L27.68.394c-1.031.178-2.005.237-2.979.593h-.057L20.52 2.408a6.613 6.613 0 00-.63.296l-1.089.534c-.172.118-.344.177-.515.296l-1.432.829c-.058 0-.058.06-.058.06h-.057c-.974.65-.573.473-1.146.888l-1.088.888c-.516.474-2.005 2.192-2.406 2.962v.059l-1.03 2.073c-.631 1.895-1.032 4.383-.517 6.278l.402 1.777c.057.237.171.415.229.652.4 0 .458-.178.63-.474.114-.119.057-.06.114-.178.115-.118.058-.059.115-.177h.057c0-.06.057-.119.115-.119 0-.06.057-.118.114-.118l.23-.356 6.644-7.167a50.649 50.649 0 011.948-1.717c.114-.06.057 0 .172-.119l7.847-4.857c.401-.177 1.375-.71 1.833-.71-.229.236-.744.414-1.088.592l-1.146.651s-.172.06-.172.119l-.172.06c0 .058-.057.058-.057.058s-.057 0-.057.06L25.16 7.56c-.172.178-.172.119-.344.237l-3.609 3.021c-.057.06-.115.06-.172.118l-2.12 2.014-.114.119-7.39 8.884c-.171.237-.228.356-.286.711z" fill="#8ABC36"/><path fill-rule="evenodd" clip-rule="evenodd" d="M58.04 17.038c-.516-.059-1.204-.77-1.662-1.007-.23-.177-.23-.118-.4-.237 0-.059-.058-.059-.058-.059l-.287-.178c-.057 0-.057 0-.057-.059l-3.551-1.836c-.344-.178-.63-.237-.974-.415-.058 0-.172-.059-.23-.059l-6.816-2.31c-.515-.177-1.088-.237-1.661-.414l-1.146-.237c-.229-.06-.172-.119-.458-.178l-3.551-.592c-.516 0-.745-.06-1.146-.178-.802-.178-1.718-.06-2.578-.237-1.03-.118-1.604-.414-.802.77.23.296.344.533.516.77.515.71.687 2.488 1.317 3.91.516.947.287.414.802 1.184l.974 1.007c.172.178.172.237.287.355l.4.296c.516.415 1.146.711 1.776.948l.287.178h.057c2.291 1.007 5.098 1.362 7.504 1.48 1.49.119 8.535.534 9.967.889l3.838.77c.286.119.114.06.286.119l.458.177c.058 0 .058.06.115.06l1.031.414c1.49.889 2.979 1.955 3.78 3.613.115.296.115.533.516.592 0-.77-1.317-4.027-1.661-4.797l-.86-2.014c-.286-.415-.457-.77-.687-1.244a1.305 1.305 0 01-.171-.296s0-.06-.058-.06l-.114-.236c-.115-.178-.172-.356-.287-.593l-.744-1.303c-.058 0-.058 0-.058-.059l-1.775-2.665H60.1l-1.43-1.897c-.057 0-.057-.059-.114-.118l-.057-.06-.058-.059-1.661-1.717s-.057-.06-.057-.119l-.917-.829-.057-.06-.86-.71-.057-.06-6.587-3.85-1.031-.355C45.667 3 44.235 3.059 42.689 3l-3.094.71c-.859.356-1.603.652-2.348 1.244l-2.578 2.429c-.172.177-.229.237-.286.533.573 0 .916.237 1.718.237.688.059 1.031.237 1.776.296.458.06.401.118.802.178.344.118.573.118.916.118.459.06.516.178 1.318.296.4.06.23.06.4.119l1.147.296c.229.059.286.059.458.059l8.993 3.376 1.604.889.114.118h.058l.057.06c.057 0 .057 0 .057.059.058 0 .115.059.115.059l2.979 2.014c.171.177.343.296.572.473.287.178.459.178.573.474z" fill="#8ABC36"/><path fill-rule="evenodd" clip-rule="evenodd" d="M57.066 60.1c.4 0 .515-.238.744-.475l1.432-1.717c.23-.297.172 0 .172-.534.458 0 .344-.177.802-.77l4.525-7.996c.115-.296.172-.296.287-.592l.916-2.428c.287-.652.401-1.303.573-1.955.115-.652.458-1.54.516-2.073.114-1.007.229-2.192.458-3.14.057-.592 0-2.487 0-3.08 0-.592 0-.947-.058-1.48-.057-.533-.171-.948-.229-1.422-.057-.355 0-.237-.114-.592-.115-.296-.058-.355-.172-.651l-1.26-3.258v-.06l-.344-.592c-.573-.888-1.203-1.777-2.005-2.428l-.63-.533h-.057l-.802-.593c-.172-.059-.172-.118-.344-.177l-2.978-1.244c-.802-.178-.115-.178-1.547-.237-.057.592-.057.296.057.533l.057.06.745 1.895c.115.355.286.829.401 1.184l1.26 4.087c.115.296.115.356.23.592l.63 2.488c.057.237.114.296.171.533 0 .119 0 .237.058.356l.171.947c.459 2.31.802 5.568.688 7.937l-.172 3.258c-.057 1.125-.286 1.836-.344 3.02l.058-3.316c.057-1.362-.23-5.331-.459-6.752a4.77 4.77 0 00-.114-.948c-.057-.415-.115-.533-.172-.948-.286-1.895-.745-3.731-1.26-5.627l-.401-1.244c-.344-1.007-.688-2.428-1.031-3.257-.63-1.481-1.089-3.258-1.833-4.68l-.516-1.125c-.229-.355-.057 0-.172-.355h-.286c-.057.474-.745 2.014-1.088 2.369l-1.089.948-.229.237-.057.059-.172.177c-.63.77-1.031 1.54-1.375 2.547-.515 1.422-.343 1.837-.458 3.021-.057 1.777.515 3.969 1.145 5.509l.573 1.48c.287.474.459 1.422.86 2.133l2.978 6.278c.115.178.23.415.287.592l1.66 4.324c.23.83.516 1.659.63 2.547.058.296.058.474.058.83.058.355.115.296.172.592.057.474-.114 1.658-.172 2.073-.057.474-.229 1.48-.515 2.014v.059c-.058 0-.058.06-.058.06s0 .058-.057.058v.119c-.057 0-.057.059-.057.059s-.057.06-.057.118l-.344.534c-.115.236-.23.296-.286.651z" fill="#8ABC36"/><path d="M26.076 29.477c1.718.71 4.525.651 6.015.296.114 0 .229-.06.4-.06-.744-.414-1.26-1.006-1.26-2.191-.057-1.125.115-1.777 1.375-2.014 1.318-.177 1.776 1.126 1.833 2.133 0 1.066-.229 1.303-.63 1.776.057 0 .115 0 .172.06 1.661-.297 5.213-.711 6.931 0-.4-.474-.63-.652-.687-1.659 0-1.066.286-2.25 1.546-2.25 1.318-.06 1.776.947 1.776 2.013 0 1.066-.286 1.481-.802 1.955 1.031-.178 5.27 1.54 5.04-2.132-.858-1.718.173-1.54.516-.948.688 1.007.344 2.37.344 2.37-.916 3.257-2.864 3.257-4.41 3.553l-.23 3.435v.178c.516 1.422.745 2.488.974 3.376 0 0 .573.83 1.661 1.718.459.651.802 1.125.974 1.54.745 1.48.286 2.547-.057 2.37-.23-.178-.63-1.186-.86-1.363a340.138 340.138 0 00-4.468-3.554c-.171-.651-.343-1.362-.63-2.25-.171.532-.458 1.006-.687 1.42a9.266 9.266 0 00-.745 2.252l-.172 2.369s0 1.125-.171 1.895c-.172.71-1.375 1.362-1.604 1.244-.172-.06.343-1.244.343-1.244-.687-3.672-1.03-6.041-.171-7.818.63-1.244 1.317-2.607 1.26-5.39-.745-.889-2.635-.652-4.239-.415l-.057 4.916c0 .06-.058.119-.058.119.401 2.843-.114 4.087.63 5.627.459.888.917 2.724.917 3.85.057.592-.172 1.599-.515 1.362-.23-.178-.058-.71-.23-.889-.114-.177-.286-.414-.458-.71-.4-.83-2.005-2.547-2.291-3.613-.287-1.185-.458-2.488-.63-3.791-.287.474-.516.888-.688 1.184-.229.415-.4.711-.4.77-.058.237.458 1.363.63 1.718.343.77 1.26 2.784.63 3.554-.172.355-.63.889-.802.77-.172-.118-.115-1.125-.287-1.362-.63-.652-1.203-1.777-1.546-2.133-.802-1.954-1.662-2.073-1.432-3.139.114-.592.4-1.007.744-1.658.401-.652.917-1.6 1.604-3.14l-.802-2.546c-.744.118-1.375.177-2.062.118-.172 0-.286-.06-.458-.06a4.634 4.634 0 01-1.203-.355c.515 3.258.86 6.22.86 6.22.056 1.303-.23 1.776-.917 2.606-1.031 1.244-1.948 2.606-2.807 3.258-.23.177-.459 1.243-.63 1.243-.23.06-.63-.947-.688-1.48 0-.83 2.177-4.087 2.52-5.39l-.171-1.185c-.688 1.066-1.26 1.48-1.49 1.658h-.057c-.343.297-.802.356-1.26.237l-2.979-2.428c-.744-.237-1.317.296-1.088-.474a1.406 1.406 0 011.776-.948l2.406.77c.229-.237.515-.651.802-1.303l-.344-4.146c-2.005-1.48-2.062-2.073-2.177-2.784 0-1.066.057-1.836.172-2.369.057-.592.114-1.066.23-1.125.228-.119.515.177.687.947.114.356 0 1.007.057 1.481-.115 1.244 1.947 2.25 2.921 1.6-.344-.415-.573-.593-.573-1.6-.057-.948.287-1.955 1.432-2.132 1.146-.119 1.89.71 1.89 1.895.058 1.125-.458 1.718-1.145 2.192zm-2.75 10.187l.058-.059c-.058 0-.058.06-.115.06h.058z" fill="#8ABC36"/></svg>