<svg width="1077" height="385" viewBox="0 0 1077 385" fill="none" xmlns="http://www.w3.org/2000/svg">
<path d="M-124.197 259.043C-103.928 229.282 -63.0427 219.934 -27.4657 225.624C8.11131 231.314 40.3866 249.017 73.3531 263.563C169.579 305.942 287.516 320.192 376.041 263.45C440.788 221.964 479.334 149.765 538.665 100.879C591.22 57.6022 657.206 34.7783 721.83 13.3658C786.459 -8.01768 852.672 -29.577 906.721 -70.9898C960.742 -112.396 1001.14 -178.466 992.893 -246.033C990.896 -262.504 982.372 -281.837 965.806 -282.94C959.435 -283.36 953.276 -280.828 947.427 -278.275C900.989 -257.933 856.745 -232.918 810.591 -211.997C514.791 -77.9342 157.281 -119.048 -126.046 39.6033" fill="url(#paint0_linear_1613_5246)"/>
<path d="M-124.197 259.043C-103.928 229.282 -63.0427 219.934 -27.4657 225.624C8.11131 231.314 40.3866 249.017 73.3531 263.563C169.579 305.942 287.516 320.192 376.041 263.45C440.788 221.964 479.334 149.765 538.665 100.879C591.22 57.6022 657.206 34.7783 721.83 13.3658C786.459 -8.01768 852.672 -29.577 906.721 -70.9898C960.742 -112.396 1001.14 -178.466 992.893 -246.033C990.896 -262.504 982.372 -281.837 965.806 -282.94C959.435 -283.36 953.276 -280.828 947.427 -278.275C900.989 -257.933 856.745 -232.918 810.591 -211.997C514.791 -77.9342 157.281 -119.048 -126.046 39.6033" fill="#00A0E3"/>
<path d="M-211.418 52.2377C-173.03 44.1798 -133 58.1467 -100.015 79.3656C-67.0304 100.585 -39.2395 128.787 -8.70229 153.408C53.5065 203.575 130.7 239.537 210.61 237.15C292.67 234.703 368.401 192.623 433.953 143.231C499.505 93.8399 558.908 35.9131 629.176 -6.49487C707.206 -53.6182 797.474 -80.2687 888.608 -83.074C787.713 -105.755 683.833 -111.187 580.52 -115.962C437.684 -122.557 293.864 -128.049 152.282 -108.053C19.4469 -89.3114 -109.15 -48.4552 -237 -7.80801" fill="url(#paint1_linear_1613_5246)"/>
<path d="M-211.418 52.2377C-173.03 44.1798 -133 58.1467 -100.015 79.3656C-67.0304 100.585 -39.2395 128.787 -8.70229 153.408C53.5065 203.575 130.7 239.537 210.61 237.15C292.67 234.703 368.401 192.623 433.953 143.231C499.505 93.8399 558.908 35.9131 629.176 -6.49487C707.206 -53.6182 797.474 -80.2687 888.608 -83.074C787.713 -105.755 683.833 -111.187 580.52 -115.962C437.684 -122.557 293.864 -128.049 152.282 -108.053C19.4469 -89.3114 -109.15 -48.4552 -237 -7.80801" fill="#8ABC36"/>
<defs>
<linearGradient id="paint0_linear_1613_5246" x1="-122.341" y1="44.5115" x2="993.51" y2="-9.99149" gradientUnits="userSpaceOnUse">
<stop stop-color="#8ABC36"/>
<stop offset="1" stop-color="#BFE97A"/>
</linearGradient>
<linearGradient id="paint1_linear_1613_5246" x1="-254" y1="170.5" x2="533.018" y2="-7.92054" gradientUnits="userSpaceOnUse">
<stop stop-color="#00A0E3"/>
<stop offset="1" stop-color="#8ABC36"/>
</linearGradient>
</defs>
</svg>
