<svg width="258" height="92" viewBox="0 0 258 92" fill="none" xmlns="http://www.w3.org/2000/svg">
<path d="M104.225 53.7652H145.681V41.3877H118.245V33.136H142.725V21.6147H118.245V13.6744H145.302V1.29685H104.225V53.7652ZM177.512 54.855C188.804 54.855 195.322 49.795 200.097 43.0224L189.487 35.2378C186.379 39.0523 183.272 41.5433 177.967 41.5433C170.767 41.5433 165.765 35.3935 165.765 27.531C165.765 19.7464 170.767 13.5187 177.967 13.5187C182.817 13.5187 186.228 15.8541 189.183 19.5907L199.566 11.339C195.019 4.87778 188.501 0.284851 178.118 0.284851C162.582 0.284851 151.138 12.2732 151.138 27.531C151.138 43.3338 162.885 54.855 177.512 54.855ZM230.412 54.855C246.176 54.855 257.999 42.6332 257.999 27.531C257.999 12.351 246.328 0.284851 230.564 0.284851C214.8 0.284851 202.977 12.5067 202.977 27.531C202.977 42.7889 214.648 54.855 230.412 54.855ZM230.564 41.699C222.833 41.699 217.528 35.16 217.528 27.531C217.528 19.8243 222.682 13.363 230.412 13.363C238.219 13.363 243.524 19.9799 243.524 27.531C243.524 35.2378 238.37 41.699 230.564 41.699Z" fill="white"/>
<path d="M104.982 91.1314H111.652V82.4126H122.944V76.7298H111.652V72.5261H124.157V66.6098H104.982V91.1314ZM127.188 91.1314H133.782V83.736H136.662L141.512 91.1314H149.167L143.483 82.5683C146.439 81.3227 148.409 78.8317 148.409 75.0172C148.409 72.5261 147.651 70.6578 146.287 69.1787C144.62 67.5439 142.119 66.6098 138.481 66.6098H127.188V91.1314ZM133.782 78.3646V72.4483H138.102C140.376 72.4483 141.74 73.4603 141.74 75.4064C141.74 77.2747 140.451 78.3646 138.178 78.3646H133.782ZM151.895 91.1314H158.565V66.6098H151.895V91.1314ZM162.885 91.1314H182.287V85.3707H169.478V81.4784H180.922V76.107H169.478V72.3704H182.135V66.6098H162.885V91.1314ZM185.697 91.1314H192.291V77.664L202.446 91.1314H208.282V66.6098H201.764V79.5323L191.912 66.6098H185.697V91.1314ZM212.526 91.1314H221.621C230.261 91.1314 235.263 85.9157 235.263 78.8317C235.263 71.6698 230.336 66.6098 221.772 66.6098H212.526V91.1314ZM219.196 85.1372V72.5261H221.848C225.865 72.5261 228.442 74.8615 228.442 78.8317C228.442 82.8797 225.865 85.1372 221.848 85.1372H219.196ZM247.768 91.5985C253.528 91.5985 257.393 88.5624 257.393 83.5803C257.393 78.9095 253.982 77.0412 248.526 75.8735C245.191 75.095 244.357 74.5501 244.357 73.4603C244.357 72.5261 245.115 71.8255 246.783 71.8255C248.829 71.8255 251.254 72.6818 253.452 74.2387L256.787 69.4122C254.134 67.3104 250.951 66.1427 246.934 66.1427C241.174 66.1427 237.688 69.4901 237.688 74.0052C237.688 79.143 241.553 80.6221 246.707 81.7898C249.89 82.5683 250.724 83.1132 250.724 84.2031C250.724 85.2929 249.738 85.9157 247.995 85.9157C245.191 85.9157 242.538 84.9037 240.189 82.9575L236.551 87.4726C239.431 90.1972 243.524 91.5985 247.768 91.5985Z" fill="white"/>
<path fill-rule="evenodd" clip-rule="evenodd" d="M12.2182 69.8794C12.7488 70.1129 13.5066 70.7357 14.0372 71.1249C14.0372 71.1249 14.0372 71.1249 14.1129 71.1249L18.5087 73.9274H18.5845C18.5845 74.0052 18.6603 74.0052 18.6603 74.0052L22.9044 76.107C23.1318 76.2627 23.1318 76.2627 23.3591 76.3406C23.5107 76.4184 23.6623 76.4184 23.8897 76.4963L24.496 76.8077C24.496 76.8077 24.6475 76.8077 24.6475 76.8855L26.618 77.664H26.6938L30.8622 79.143C30.938 79.143 31.1653 79.2209 31.1653 79.2209L32.8327 79.7658C33.2116 79.8437 32.9843 79.8437 33.3632 79.9215C33.5906 79.9994 33.7422 79.9215 33.9695 79.9994L36.8495 80.7778C37.7589 81.0892 39.3505 81.2449 40.3358 81.4784L42.8368 81.9455C43.822 82.1012 44.4283 82.1012 45.3378 82.3347C45.1862 82.8797 44.5799 83.5024 44.2767 83.8917L42.382 85.9935C42.3063 86.1492 42.2305 86.1492 42.0789 86.3049L41.2452 87.1612C41.1694 87.239 41.0936 87.239 41.0178 87.3169C40.4115 87.784 39.8052 88.4067 39.0473 88.796L36.7737 89.808C34.4243 90.6643 34.1969 90.0415 32.5295 90.3529V90.5864C32.9843 90.6643 33.0601 90.82 33.3632 90.82C33.8179 90.9757 34.0453 90.8978 34.5 91.0535C35.4095 91.287 35.6369 91.2092 36.6221 91.287C37.38 91.3649 37.8347 91.6763 38.6684 91.6763C39.881 91.7541 43.2915 92.0655 44.2767 91.9876C44.6557 91.9098 44.7315 91.832 45.262 91.832C46.1715 91.832 46.6262 91.9876 47.4599 91.832C47.9146 91.6763 47.9146 91.7541 48.4451 91.7541C49.1272 91.7541 48.8998 91.5984 49.4304 91.5984C49.8851 91.5206 49.9609 91.5984 50.4156 91.5206L53.3714 91.0535C53.5229 90.9757 53.5229 91.0535 53.7503 90.9757L53.9019 90.8978C53.9777 90.8978 53.9777 90.8978 53.9777 90.8978L55.1903 90.6643C55.1903 90.6643 55.2661 90.6643 55.2661 90.5864H55.3419L56.024 90.4307C56.4029 90.3529 56.5545 90.275 56.9334 90.1972C57.2366 90.0415 57.0092 90.1193 57.3124 90.0415L63.527 87.7061L65.6491 86.4606C65.8007 86.3827 65.8765 86.3827 66.028 86.227L66.1796 86.1492L68.5291 84.3587H68.6048C69.2111 83.8138 69.7417 83.4246 70.2722 82.8797C70.348 82.8797 70.348 82.8018 70.348 82.8018L70.4238 82.724L71.7122 81.3227C72.6974 80.155 73.6827 78.9095 74.2132 77.5083C74.3648 77.119 74.3648 76.9633 74.5163 76.652C75.2742 75.095 75.4258 73.616 75.5774 71.7477V69.7237C75.5774 69.3344 75.5774 69.1009 75.5016 68.7895C75.4258 68.4003 75.35 68.0889 75.35 67.7775C75.1984 66.9212 75.0469 66.6877 74.8195 65.9092C74.6679 65.4421 74.5921 64.5858 73.9858 64.3523C73.3795 64.7415 70.9543 68.4781 70.1206 69.3344L65.2701 74.8615C64.967 75.2507 64.967 75.3286 64.5881 75.64L55.9482 82.724C55.9482 82.724 55.7966 82.8018 55.7208 82.8797L53.9019 83.9695L53.6745 84.0473L50.4156 85.8378C49.8851 85.9935 49.6577 86.3049 49.1272 86.3049C49.203 86.227 49.0514 86.3049 49.2788 86.1492C49.3546 86.0713 49.4304 86.0713 49.5062 85.9935L50.4156 85.5264C50.4156 85.5264 50.4156 85.5264 50.4914 85.5264L55.7208 82.0233C56.024 81.7898 56.1755 81.5563 56.5545 81.3227C56.7818 81.167 56.7818 81.167 57.0092 81.0113L59.8892 78.5203H59.965L60.4955 77.9753C60.5713 77.9753 60.5713 77.8975 60.5713 77.8975C60.5713 77.8975 60.6471 77.8975 60.6471 77.8197H60.7228C60.7228 77.7418 60.7228 77.7418 60.7986 77.7418L63.2239 75.3286C63.2239 75.2507 63.2996 75.2507 63.2996 75.2507L64.5881 73.6938C66.407 71.9034 68.2259 69.8015 69.7417 67.6997C69.8932 67.4661 69.8175 67.4661 70.0448 67.3104L71.2574 65.5978C71.7879 64.975 72.1669 64.1966 72.6974 63.496C73.2279 62.951 74.1374 61.7055 74.2132 60.8492C72.3943 60.8492 71.8637 61.5498 70.1206 60.8492C68.6048 60.2264 66.9375 60.3043 65.2701 60.2264L64.4365 60.3821C63.8302 60.5378 63.2996 60.6157 62.7691 60.927C62.466 61.0827 62.466 61.0827 62.1628 61.1606L61.8597 61.3163L61.7839 61.3941L60.0407 62.484C60.0407 62.484 59.8134 62.7175 59.7376 62.7175L59.1313 63.1846C59.1313 63.2624 59.1313 63.2624 59.0555 63.2624L56.024 66.3763C55.1903 67.4661 53.2198 70.1129 52.6893 71.2027C52.4619 71.592 52.3103 71.9034 52.083 72.2147C50.8703 73.7717 49.8851 75.4843 48.8241 77.1969C48.5967 77.5861 48.5209 77.8975 48.2177 78.2867L47.2325 79.688C46.6262 80.5443 46.0957 81.5563 45.4136 82.2569C45.4894 81.7898 45.3378 81.6341 45.1862 81.4006L44.2767 79.9215C44.2767 79.9215 44.2767 79.8437 44.201 79.8437L44.1252 79.688C43.822 79.2209 43.822 78.9095 43.7462 78.2089C43.6704 76.9633 43.1399 75.0172 42.4578 73.9274C42.3063 73.616 42.1547 73.3824 41.9273 73.1489C41.3968 72.5261 41.6242 72.5261 40.8663 71.9034L39.1989 70.4243C39.0473 70.4243 39.1231 70.4243 38.9716 70.3464L37.9863 69.8015C37.38 69.4901 36.6979 68.9452 36.0158 68.7895L31.4685 67.4661C29.9527 67.0769 27.7549 66.6877 26.3149 66.6098C25.7086 66.6098 25.6328 66.532 25.1781 66.4541C25.0265 66.4541 24.9507 66.4541 24.6475 66.3763L20.8581 65.987C19.3424 65.7535 17.8266 65.3643 16.235 65.2864C16.3866 64.8194 16.614 64.7415 16.7655 64.3523C16.9171 63.8852 16.9929 63.6517 17.2203 63.1846C17.4476 62.6397 17.4476 62.484 17.9024 62.1726L18.9634 61.3163C19.4181 60.8492 19.8729 60.46 20.3276 59.9929C20.555 59.6037 20.7065 59.448 20.9339 59.0587L21.7676 57.424C22.8286 55.1664 22.7528 52.364 22.3739 50.0286C22.2981 49.5615 22.2981 49.1723 22.1465 48.6274L16.7655 34.8486C16.235 33.5252 14.9466 30.9563 14.7193 29.7886L12.9003 23.9501C12.9003 23.8723 12.9003 23.8723 12.9003 23.8723L12.8245 23.5609C12.7488 23.2495 12.7488 23.4052 12.7488 23.0938V22.9381C12.7488 22.7046 12.7488 22.9381 12.673 22.7046C12.3698 20.9141 12.294 18.968 12.8245 17.2554C13.1277 16.1655 14.0372 14.2972 14.6435 13.4409C13.8098 13.4409 13.734 13.908 13.2793 14.3751C13.0519 14.6865 12.9003 14.7643 12.673 14.9978L7.97409 21.1477L4.94255 26.3634C4.86676 26.5191 4.79097 26.5191 4.79097 26.5969C4.48782 27.064 4.56361 26.9083 4.33624 27.4532L2.51732 31.8126C2.44153 32.124 2.36574 32.4354 2.21416 32.7468C0.167876 37.9624 -0.51422 44.5015 0.395241 50.0286C0.622607 51.352 0.92576 52.5197 1.45628 53.7652L3.57836 57.5797C4.48782 58.903 5.77622 60.0707 7.06462 60.927L7.29199 61.0827C7.44357 61.1606 7.59514 61.2384 7.74672 61.3163L11.1572 62.8732C11.4604 62.951 11.3846 62.8732 11.6877 63.0289C12.1424 63.1846 11.5361 63.0289 12.1424 63.1846C12.673 63.2624 13.1277 63.3403 13.5824 63.1846C13.4309 62.484 13.1277 61.939 12.9003 61.3163L11.3088 56.4898C11.1572 56.1006 11.1572 55.8671 11.0056 55.4778L10.6267 54.0766C10.5509 53.9209 10.4751 53.6874 10.4751 53.4538L8.58039 44.268C8.12566 40.9206 8.20145 36.4055 8.5046 33.2917C8.58039 32.7468 8.65618 32.7468 8.65618 32.124C8.88355 30.0221 9.03512 30.2557 9.11091 28.3095H9.26249C9.11091 30.8006 8.80776 32.9803 8.95934 35.0821C8.95934 35.4714 9.03512 36.172 9.03512 36.4055C8.95934 36.8726 8.95934 36.8726 9.03512 37.4954C9.26249 39.6751 9.26249 41.5434 9.71722 43.7231C9.79301 44.1123 9.8688 44.5015 9.8688 44.8129C10.0962 46.8369 10.6267 48.6274 11.0814 50.5735C11.4604 52.4418 11.9151 54.2323 12.5972 55.9449C12.673 56.2563 12.8245 56.7234 12.9003 57.0347C13.2035 58.2024 13.6582 59.2144 14.0372 60.3043C14.1129 60.3821 14.1129 60.3821 14.1129 60.3821L14.1887 60.6157C14.6435 62.0169 15.6287 63.8074 15.8561 65.2864C15.0982 65.2086 15.3256 65.1307 14.795 64.975C14.1887 64.8972 14.0372 64.8972 13.5066 64.7415C13.1277 64.6637 12.7488 64.6637 12.294 64.508L7.74672 62.8732C7.59514 62.7954 7.59514 62.7954 7.44357 62.7175L4.71518 60.927C4.03309 60.2264 3.35099 59.6815 2.89626 58.8252C2.74468 58.6695 2.66889 58.5138 2.59311 58.3581L1.9868 57.1904C1.83522 56.7234 1.91101 56.6455 1.53207 56.4898C1.15313 57.2683 1.91101 58.5138 2.13838 59.2923C2.59311 61.472 3.50257 63.6517 4.33624 65.7535L4.94255 66.999C5.01834 67.2326 5.01834 67.1547 5.16991 67.4661C5.70043 68.6338 5.62464 68.7895 6.38253 70.1129C6.83726 70.8135 7.14041 71.592 7.67093 72.3704L8.65618 73.9274C8.95934 74.3944 10.3993 76.652 10.9298 77.1969L17.7508 84.1252C18.2813 84.6701 20.7065 86.1492 21.3886 86.5384L23.7381 87.7061C23.9654 87.8618 23.8897 87.784 24.1928 87.8618L25.6328 88.4067C26.8454 88.796 27.5275 89.0295 28.8917 89.1073L31.0138 89.263C32.4538 89.3409 32.2264 89.263 33.3632 89.1073L35.3337 88.7181C35.4095 88.7181 35.4095 88.6403 35.4095 88.6403L37.0768 88.0175C37.38 87.8618 37.6074 87.784 37.8347 87.6283L37.9863 87.5504C38.9716 86.9277 39.9568 86.3827 40.7905 85.6043L41.3968 84.9815C41.5484 84.9037 41.6242 84.8258 41.6999 84.6701C42.0789 84.3587 42.4578 84.0473 42.6094 83.5803C41.321 82.8018 38.82 82.8797 37.6074 82.4126C37.3042 82.2569 37.38 82.3347 37.0011 82.2569C36.5463 82.179 36.4705 82.0233 35.8642 81.9455C34.7274 81.7898 33.8179 81.2449 32.6811 81.0113C31.6201 80.7778 30.559 80.4664 29.5738 79.9994L27.7549 79.3766H27.6791L27.1486 79.143H27.0728L25.557 78.5203C23.9654 77.7418 22.2981 77.119 20.7823 76.1849L19.0392 75.1729C19.0392 75.1729 19.0392 75.095 18.9634 75.095C18.9634 75.095 18.9634 75.095 18.8876 75.095C18.8876 75.0172 18.8876 75.0172 18.8118 75.0172L18.736 74.9394C18.6603 74.8615 18.6603 74.8615 18.6603 74.8615C18.5845 74.8615 18.5845 74.7837 18.5845 74.7837L14.8708 72.1369C14.1887 71.6698 12.5972 70.5021 12.2182 69.8794Z" fill="white"/>
<path fill-rule="evenodd" clip-rule="evenodd" d="M14.7196 29.7886C15.4775 29.7886 16.008 29.6329 16.6901 29.6329C17.5996 29.555 17.827 29.555 18.5848 29.8664L20.2522 30.4892C21.0859 30.7227 22.5258 30.8006 23.5111 30.8006C24.1932 30.8006 24.3448 30.6449 24.8753 30.567C25.33 30.4892 24.8753 30.567 25.33 30.4114C25.4816 30.4114 25.6332 30.3335 25.7847 30.3335L25.9363 30.2557C26.0121 30.2557 26.0121 30.2557 26.0879 30.2557C27.6795 29.7107 28.8921 28.8544 30.1805 27.8424L36.3951 20.6806C36.9256 19.98 37.3804 19.435 37.8351 18.7344L38.593 17.6446C38.7446 17.4889 38.6688 17.5667 38.7446 17.411L47.7634 5.65627C47.7634 5.65627 47.8392 5.65627 47.8392 5.57842L48.4455 5.0335C49.4307 4.25504 50.6433 3.32088 51.7802 2.93165C52.0833 2.85381 52.3107 2.69811 52.5381 2.62027C53.0686 2.30888 52.8412 2.46458 53.4475 2.30888C54.8875 1.9975 54.8117 1.9975 56.479 2.07535C57.0854 2.07535 57.0854 2.15319 57.1611 1.60827C56.6306 1.53042 55.8727 1.29688 55.3422 1.21904C54.9633 1.06334 54.7359 1.06334 54.357 1.06334C53.3717 0.829806 52.1591 0.596268 51.1739 0.518422C50.416 0.440575 49.9612 0.284883 49.0518 0.284883C46.0202 0.129191 43.595 -0.104348 40.4877 0.0513446L36.6225 0.518422C35.2583 0.75196 33.9699 0.829806 32.6815 1.29688C32.6815 1.29688 32.6815 1.29688 32.6057 1.29688L27.1489 3.16519C26.77 3.32088 26.6184 3.39873 26.3153 3.55442L24.8753 4.25504C24.6479 4.41073 24.4206 4.48858 24.1932 4.64427L22.2985 5.73411C22.2227 5.73411 22.2227 5.81196 22.2227 5.81196C22.1469 5.81196 22.1469 5.81196 22.1469 5.81196C20.8585 6.66827 21.389 6.43473 20.6311 6.97965L19.1912 8.14735C18.5091 8.77011 16.5386 11.0277 16.008 12.0397V12.1175L14.6439 14.8421C13.8102 17.3332 13.2797 20.6027 13.9618 23.0938L14.4923 25.4292C14.5681 25.7406 14.7196 25.9741 14.7954 26.2855C15.3259 26.2855 15.4017 26.052 15.6291 25.6627C15.7807 25.507 15.7049 25.5849 15.7807 25.4292C15.9323 25.2735 15.8565 25.3514 15.9323 25.1957C16.008 25.1957 16.008 25.1957 16.008 25.1957C16.008 25.1178 16.0838 25.04 16.1596 25.04C16.1596 24.9621 16.2354 24.8843 16.3112 24.8843C16.4628 24.6507 16.4628 24.6507 16.6144 24.4172L25.4058 14.9978C26.2395 14.2193 27.1489 13.4409 27.9826 12.7403C28.1342 12.6624 28.0584 12.7403 28.21 12.5846L38.593 6.20119C39.1235 5.96765 40.4119 5.26704 41.0182 5.26704C40.7151 5.57842 40.033 5.81196 39.5782 6.0455L38.0625 6.90181C38.0625 6.90181 37.8351 6.97965 37.8351 7.0575L37.6077 7.13535C37.6077 7.21319 37.5319 7.21319 37.5319 7.21319C37.5319 7.21319 37.4562 7.21319 37.4562 7.29104L33.2878 9.93781C33.0604 10.1713 33.0604 10.0935 32.8331 10.2492L28.0584 14.2193C27.9826 14.2972 27.9068 14.2972 27.831 14.375L25.0269 17.0218C24.9511 17.0997 24.8753 17.1775 24.8753 17.1775L15.0986 28.8544C14.8712 29.1658 14.7954 29.3215 14.7196 29.7886Z" fill="white"/>
<path fill-rule="evenodd" clip-rule="evenodd" d="M76.7903 22.3932C76.1082 22.3153 75.1988 21.3812 74.5925 21.0698C74.2893 20.8363 74.2893 20.9141 74.062 20.7584C74.062 20.6806 73.9862 20.6806 73.9862 20.6806L73.6072 20.447C73.5314 20.447 73.5314 20.447 73.5314 20.3692L68.8326 17.9559C68.3778 17.7224 67.9989 17.6446 67.5442 17.411C67.4684 17.411 67.3168 17.3332 67.241 17.3332L58.2222 14.2972C57.5401 14.0636 56.7822 13.9858 56.0243 13.7523L54.5086 13.4409C54.2054 13.363 54.2812 13.2852 53.9023 13.2073L49.2034 12.4289C48.5213 12.4289 48.2181 12.351 47.6876 12.1953C46.6266 11.9618 45.414 12.1175 44.2771 11.884C42.9129 11.7283 42.1551 11.339 43.2161 12.896C43.5193 13.2852 43.6708 13.5966 43.8982 13.908C44.5803 14.8421 44.8077 17.1775 45.6413 19.0458C46.3234 20.2913 46.0203 19.5907 46.7024 20.6027L47.9908 21.9261C48.2181 22.1596 48.2181 22.2375 48.3697 22.3932L48.9002 22.7824C49.5823 23.3273 50.416 23.7166 51.2497 24.0279L51.6286 24.2615C51.7044 24.2615 51.7044 24.2615 51.7044 24.2615C54.7359 25.5849 58.4496 26.0519 61.6327 26.2076C63.6032 26.3633 72.9251 26.9082 74.8198 27.3753L79.8977 28.3873C80.2766 28.543 80.0492 28.4652 80.2766 28.543L80.8829 28.7765C80.9587 28.7765 80.9587 28.8544 81.0345 28.8544L82.3987 29.3993C84.3692 30.567 86.3397 31.9682 87.4007 34.1479C87.5523 34.5372 87.5523 34.8485 88.0828 34.9264C88.0828 33.9144 86.3397 29.6329 85.8849 28.6209L84.7481 25.9741C84.3692 25.4292 84.1418 24.9621 83.8387 24.3393C83.7629 24.2615 83.6871 24.1058 83.6113 23.9501C83.6113 23.9501 83.6113 23.8722 83.5355 23.8722L83.3839 23.5609C83.2324 23.3273 83.1566 23.0938 83.005 22.7824L82.0197 21.0698C81.944 21.0698 81.944 21.0698 81.944 20.9919L79.5945 17.4889H79.5187L77.624 14.9978C77.5482 14.9978 77.5482 14.92 77.4724 14.8421C77.4724 14.8421 77.4724 14.8421 77.3967 14.7643C77.3209 14.6864 77.3209 14.6864 77.3209 14.6864L75.123 12.4289C75.123 12.4289 75.0472 12.351 75.0472 12.2732L73.8346 11.1833L73.7588 11.1055L72.622 10.1713L72.5462 10.0935L63.8305 5.03351L62.4663 4.56643C60.4201 3.94366 58.5253 4.02151 56.4791 3.94366L52.3865 4.87782C51.2497 5.34489 50.2644 5.73412 49.2792 6.51258L45.8687 9.70427C45.6413 9.93781 45.5655 10.0157 45.4898 10.4049C46.2476 10.4049 46.7024 10.7163 47.7634 10.7163C48.6729 10.7941 49.1276 11.0277 50.1128 11.1055C50.7191 11.1833 50.6434 11.2612 51.1739 11.339C51.6286 11.4947 51.9318 11.4947 52.3865 11.4947C52.9928 11.5726 53.0686 11.7283 54.1296 11.884C54.6601 11.9618 54.4328 11.9618 54.6601 12.0397L56.1759 12.4289C56.4791 12.5067 56.5549 12.5067 56.7822 12.5067L68.681 16.944L70.8031 18.1116C70.8789 18.1895 70.9546 18.2673 70.9546 18.2673C71.0304 18.2673 71.0304 18.2673 71.0304 18.2673C71.1062 18.3452 71.1062 18.3452 71.1062 18.3452C71.182 18.3452 71.182 18.3452 71.182 18.423C71.2578 18.423 71.3336 18.5009 71.3336 18.5009L75.2746 21.1476C75.5019 21.3812 75.7293 21.5369 76.0325 21.7704C76.4114 22.0039 76.6388 22.0039 76.7903 22.3932Z" fill="white"/>
<path fill-rule="evenodd" clip-rule="evenodd" d="M75.5021 78.9874C76.0326 78.9874 76.1842 78.676 76.4873 78.3646L78.3821 76.1071C78.6852 75.7178 78.6094 76.1071 78.6094 75.4065C79.2157 75.4065 79.0642 75.1729 79.6705 74.3945L85.6578 63.8852C85.8093 63.496 85.8851 63.496 86.0367 63.1068L87.2493 59.9151C87.6283 59.0588 87.7798 58.2024 88.0072 57.3461C88.1588 56.4898 88.6135 55.3221 88.6893 54.6215C88.8409 53.2981 88.9925 51.7412 89.2956 50.4957C89.3714 49.7172 89.2956 47.2261 89.2956 46.4477C89.2956 45.6692 89.2956 45.2021 89.2198 44.5015C89.144 43.8009 88.9925 43.256 88.9167 42.6332C88.8409 42.1661 88.9167 42.3218 88.7651 41.8547C88.6135 41.4655 88.6893 41.3877 88.5377 40.9984L86.8704 36.7169C86.8704 36.7169 86.8704 36.7169 86.8704 36.6391L86.4156 35.8606C85.6578 34.6929 84.8241 33.5252 83.763 32.6689L82.9294 31.9683C82.9294 31.9683 82.9294 31.9683 82.8536 31.9683L81.7925 31.1898C81.5652 31.112 81.5652 31.0341 81.3378 30.9563L77.3968 29.3215C76.3358 29.088 77.2452 29.088 75.3505 29.0101C75.2747 29.7886 75.2747 29.3994 75.4263 29.7107L75.5021 29.7886L76.4873 32.2797C76.6389 32.7467 76.8663 33.3695 77.0179 33.8366L78.6852 39.208C78.8368 39.5972 78.8368 39.6751 78.9884 39.9864L79.822 43.256C79.8978 43.5674 79.9736 43.6452 80.0494 43.9566C80.0494 44.1123 80.0494 44.268 80.1252 44.4237L80.3526 45.6692C80.9589 48.7052 81.4136 52.9868 81.262 56.1006L81.0347 60.3821C80.9589 61.8612 80.6557 62.7954 80.5799 64.3523L80.6557 59.9929C80.7315 58.2024 80.3526 52.9868 80.0494 51.1184C80.0494 50.7292 79.9736 50.1843 79.8978 49.8729C79.822 49.328 79.7463 49.1723 79.6705 48.6274C79.2915 46.1363 78.6852 43.7231 78.0031 41.232L77.4726 39.5972C77.0179 38.2738 76.5631 36.4055 76.1084 35.3157C75.2747 33.3695 74.6684 31.0341 73.6832 29.1658L73.0011 27.6867C72.6979 27.2197 72.9253 27.6867 72.7737 27.2197H72.3948C72.319 27.8424 71.4095 29.8664 70.9548 30.3335L69.5148 31.5791C69.439 31.6569 69.2874 31.8126 69.2117 31.8904C69.2117 31.8904 69.2117 31.8904 69.1359 31.9683C69.0601 32.0461 68.9843 32.124 68.9085 32.2018C68.0748 33.2138 67.5443 34.2258 67.0896 35.5492C66.4075 37.4175 66.6348 37.9624 66.4833 39.5194C66.4075 41.8547 67.1654 44.7351 67.999 46.7591L68.7569 48.7052C69.1359 49.328 69.3632 50.5735 69.8938 51.5077L73.8348 59.7594C73.9863 59.9929 74.1379 60.3043 74.2137 60.5378L76.4116 66.2206C76.7147 67.3105 77.0937 68.4003 77.2452 69.568C77.321 69.9572 77.321 70.1908 77.321 70.6578C77.3968 71.1249 77.4726 71.0471 77.5484 71.4363C77.6242 72.0591 77.3968 73.616 77.321 74.1609C77.2452 74.7837 77.0179 76.1071 76.6389 76.8077C76.6389 76.8855 76.6389 76.8855 76.6389 76.8855C76.5631 76.8855 76.5631 76.9634 76.5631 76.9634C76.5631 76.9634 76.5631 77.0412 76.4873 77.0412V77.1969C76.4116 77.1969 76.4116 77.2748 76.4116 77.2748C76.4116 77.2748 76.3358 77.3526 76.3358 77.4305L75.881 78.1311C75.7295 78.4425 75.5779 78.5203 75.5021 78.9874Z" fill="white"/>
<path d="M34.5005 38.7408C36.7741 39.6749 40.4878 39.5971 42.4583 39.13C42.6098 39.13 42.7614 39.0522 42.9888 39.0522C42.0035 38.5073 41.3214 37.7288 41.3214 36.1719C41.2456 34.6928 41.473 33.8365 43.1404 33.5251C44.8835 33.2915 45.4898 35.0042 45.5656 36.3276C45.5656 37.7288 45.2624 38.0402 44.7319 38.6629C44.8077 38.6629 44.8835 38.6629 44.9593 38.7408C47.1571 38.3516 51.856 37.8066 54.1297 38.7408C53.5992 38.118 53.296 37.8845 53.2202 36.5611C53.2202 35.1599 53.5992 33.6029 55.2665 33.6029C57.0096 33.5251 57.6159 34.8485 57.6159 36.2497C57.6159 37.6509 57.237 38.1959 56.5549 38.8186C57.9191 38.5851 63.5274 40.8426 63.2243 36.0162C62.0875 33.7586 63.4517 33.9922 63.9064 34.7706C64.8158 36.094 64.3611 37.8845 64.3611 37.8845C63.1485 42.166 60.5717 42.166 58.5254 42.5553L58.2223 47.0703C58.2223 47.1482 58.2223 47.226 58.2223 47.3039C58.9044 49.1722 59.2075 50.5734 59.5107 51.7411C59.5107 51.7411 60.2685 52.831 61.7085 53.9987C62.3148 54.855 62.7696 55.4778 62.9969 56.0227C63.9822 57.9688 63.3759 59.3701 62.9211 59.1365C62.618 58.903 62.0875 57.5796 61.7843 57.3461C59.2833 55.3221 55.8728 52.6753 55.8728 52.6753C55.6454 51.819 55.4181 50.8848 55.0391 49.7171C54.8118 50.4177 54.4328 51.0405 54.1297 51.5854C53.7507 52.3639 53.3718 53.3759 53.1444 54.5436L52.9171 57.6574C52.9171 57.6574 52.9171 59.1365 52.6897 60.1485C52.4623 61.0827 50.8708 61.939 50.5676 61.7833C50.3403 61.7055 51.0224 60.1485 51.0224 60.1485C50.1129 55.3221 49.6582 52.2082 50.795 49.8728C51.6287 48.238 52.5381 46.4476 52.4623 42.7888C51.4771 41.6211 48.9761 41.9325 46.854 42.2439L46.7782 48.7051C46.7782 48.783 46.7024 48.8608 46.7024 48.8608C47.2329 52.5974 46.5508 54.2322 47.5361 56.2562C48.1424 57.4239 48.7487 59.8371 48.7487 61.3162C48.8245 62.0947 48.5213 63.4181 48.0666 63.1067C47.7635 62.8732 47.9908 62.1725 47.7635 61.939C47.6119 61.7055 47.3845 61.3941 47.1571 61.0048C46.6266 59.915 44.5046 57.6574 44.1256 56.2562C43.7467 54.6993 43.5193 52.9867 43.2919 51.274C42.913 51.8968 42.6098 52.4417 42.3825 52.831C42.0793 53.3759 41.852 53.7651 41.852 53.843C41.7762 54.1544 42.4583 55.6334 42.6856 56.1005C43.1404 57.1125 44.353 59.7593 43.5193 60.7713C43.2919 61.2384 42.6856 61.939 42.4583 61.7833C42.2309 61.6276 42.3067 60.3042 42.0793 59.9928C41.2456 59.1365 40.4878 57.6574 40.033 57.1904C38.972 54.6214 37.8352 54.4657 38.1383 53.0645C38.2899 52.2861 38.6688 51.7411 39.1236 50.8848C39.6541 50.0285 40.3362 48.783 41.2456 46.759L40.1846 43.4116C39.1994 43.5673 38.3657 43.6451 37.4562 43.5673C37.2289 43.5673 37.0773 43.4894 36.8499 43.4894C36.3194 43.4116 35.7889 43.2559 35.2584 43.0223C35.9405 47.3039 36.3952 51.1962 36.3952 51.1962C36.471 52.9088 36.092 53.5316 35.1826 54.6214C33.8184 56.2562 32.6058 58.0467 31.4689 58.903C31.1658 59.1365 30.8626 60.5378 30.6353 60.5378C30.3321 60.6156 29.8016 59.2922 29.7258 58.5916C29.7258 57.5018 32.6058 53.2202 33.0605 51.5076L32.8331 49.9507C31.9237 51.3519 31.1658 51.8968 30.8626 52.1304H30.7868C30.3321 52.5196 29.7258 52.5974 29.1195 52.4417L25.1785 49.25C24.1933 48.9387 23.4354 49.6393 23.7385 48.6273C24.0417 47.6153 25.1027 47.0703 26.088 47.3817L29.2711 48.3937C29.5742 48.0823 29.9532 47.5374 30.3321 46.6811L29.8774 41.2319C27.2248 39.2857 27.149 38.5073 26.9974 37.5731C26.9974 36.1719 27.0732 35.1599 27.2248 34.4592C27.3006 33.6808 27.3764 33.058 27.5279 32.9802C27.8311 32.8245 28.21 33.2137 28.4374 34.2257C28.589 34.6928 28.4374 35.5491 28.5132 36.1719C28.3616 37.8066 31.09 39.13 32.3784 38.2737C31.9237 37.7288 31.6205 37.4952 31.6205 36.1719C31.5447 34.9263 31.9995 33.6029 33.5152 33.3694C35.031 33.2137 36.0162 34.3035 36.0162 35.8605C36.092 37.3396 35.4099 38.118 34.5005 38.7408ZM30.8626 52.1304L30.9384 52.0525C30.8626 52.0525 30.8626 52.1304 30.7868 52.1304H30.8626Z" fill="white"/>
</svg>
