<svg width="30" height="30" fill="none" xmlns="http://www.w3.org/2000/svg"><path d="M24.112 12.634c.03-3.615-3.048-6.929-6.862-7.388a4.62 4.62 0 01-.246-.037 3.567 3.567 0 00-.582-.063c-.782 0-.99.55-1.046.876-.054.32-.002.588.151.797.26.351.715.413 1.082.463.106.015.207.03.292.048 3.428.766 4.581 1.97 5.145 5.369.014.082.02.185.028.293.025.407.075 1.252.983 1.252.075 0 .158-.006.243-.019.845-.129.819-.901.806-1.272a1.667 1.667 0 01.003-.27.348.348 0 00.002-.05h.001z" fill="#8ABC36"/><path d="M16.2 3.92c.102.008.198.015.277.026 5.63.866 8.218 3.533 8.934 9.205.013.097.015.214.016.338.008.443.023 1.366 1.013 1.385h.03c.311 0 .558-.094.735-.279.308-.321.288-.8.269-1.185-.004-.095-.008-.184-.008-.262.073-5.8-4.95-11.062-10.745-11.257-.025 0-.047 0-.07.004a.485.485 0 01-.069.004c-.058 0-.128-.005-.204-.01-.09-.006-.194-.014-.3-.014-.923 0-1.098.656-1.12 1.047-.052.904.822.968 1.242.998zm8.94 16.563a31.52 31.52 0 01-.359-.28c-.615-.495-1.268-.95-1.9-1.392l-.393-.275c-.81-.569-1.538-.845-2.226-.845-.927 0-1.735.513-2.402 1.521-.295.448-.654.666-1.095.666a2.174 2.174 0 01-.883-.222c-2.612-1.185-4.48-3.002-5.547-5.401-.516-1.16-.349-1.918.559-2.535.516-.35 1.475-1.001 1.409-2.25-.078-1.416-3.204-5.68-4.522-6.164a2.566 2.566 0 00-1.745-.005c-1.513.509-2.598 1.404-3.142 2.585-.525 1.143-.5 2.484.067 3.879 1.644 4.034 3.954 7.551 6.868 10.454 2.851 2.841 6.356 5.167 10.416 6.916.366.157.75.244 1.031.306.095.021.178.04.238.056a.397.397 0 00.101.014h.033c1.91 0 4.203-1.745 4.907-3.733.617-1.743-.51-2.604-1.415-3.295zM17.045 8.529c-.326.007-1.008.025-1.246.717-.113.325-.099.605.04.836.202.338.591.443.943.5 1.282.205 1.94.913 2.072 2.23.061.612.475 1.04 1.004 1.04.04 0 .08-.002.12-.007.637-.075.946-.544.918-1.393.01-.884-.452-1.89-1.241-2.69-.79-.802-1.742-1.255-2.61-1.233z" fill="#8ABC36"/></svg>