<svg width="30" height="30" fill="none" xmlns="http://www.w3.org/2000/svg"><path fill-rule="evenodd" clip-rule="evenodd" d="M28.4 7.734c.209-.66 0-1.141-.922-1.141h-3.069c-.774 0-1.131.42-1.34.87 0 0-1.579 3.844-3.783 6.336-.715.721-1.042.961-1.43.961-.208 0-.477-.24-.477-.9V7.703c0-.78-.237-1.14-.893-1.14H11.66c-.477 0-.774.36-.774.72 0 .75 1.102.931 1.22 3.033v4.567c0 .99-.175 1.172-.565 1.172-1.043 0-3.575-3.874-5.093-8.288-.296-.874-.596-1.205-1.37-1.205H1.98c-.894 0-1.042.42-1.042.871 0 .811 1.042 4.895 4.855 10.3 2.531 3.69 6.135 5.675 9.382 5.675 1.967 0 2.204-.451 2.204-1.202v-2.792c0-.9.18-1.05.805-1.05.447 0 1.251.239 3.068 2.01 2.085 2.103 2.442 3.064 3.604 3.064h3.068c.894 0 1.31-.451 1.072-1.322-.267-.87-1.28-2.131-2.591-3.633-.715-.84-1.787-1.77-2.115-2.221-.446-.601-.328-.841 0-1.382-.03 0 3.724-5.344 4.11-7.148" fill="#8ABC36"/></svg>