<svg width="30" height="30" fill="none" xmlns="http://www.w3.org/2000/svg"><path d="M25.2 8.55C21.6 3 14.25 1.35 8.55 4.8 3 8.25 1.2 15.75 4.8 21.3l.3.45-1.2 4.5 4.5-1.2.45.3C10.8 26.4 12.9 27 15 27c2.25 0 4.5-.6 6.45-1.8 5.55-3.6 7.2-10.95 3.75-16.65zM22.05 20.1c-.6.9-1.35 1.5-2.4 1.65-.6 0-1.35.3-4.35-.9-2.55-1.2-4.65-3.15-6.15-5.4-.9-1.05-1.35-2.4-1.5-3.75 0-1.2.45-2.25 1.2-3 .3-.3.6-.45.9-.45h.75c.3 0 .6 0 .75.6.3.75 1.05 2.55 1.05 2.7.15.15.15.45 0 .6.15.3 0 .6-.15.75-.15.15-.3.45-.45.6-.3.15-.45.45-.3.75.6.9 1.35 1.8 2.1 2.55.9.75 1.8 1.35 2.85 1.8.3.15.6.15.75-.15.15-.3.9-1.05 1.2-1.35.3-.3.45-.3.75-.15l2.4 1.2c.3.15.6.3.75.45.15.45.15 1.05-.15 1.5z" fill="#8ABC36"/></svg>