<svg width="336" height="216" fill="none" xmlns="http://www.w3.org/2000/svg"><path d="M168 50.313a57.686 57.686 0 00-56.579 68.941 57.685 57.685 0 0078.655 42.042 57.68 57.68 0 0025.889-21.247A57.682 57.682 0 00225.688 108 57.802 57.802 0 00168 50.312zm31.063 62.125H168a4.439 4.439 0 01-4.437-4.438V76.937a4.438 4.438 0 118.875 0v26.625h26.625a4.438 4.438 0 010 8.876z" fill="#00A0E3"/><path d="M210 66l43.215-65H336M210 150l43.215 65H336M126 66L82.785 1H0m126 149l-43.215 65H0" stroke="#000" stroke-opacity=".2"/></svg>