<svg width="336" height="216" viewBox="0 0 336 216" fill="none" xmlns="http://www.w3.org/2000/svg">
<path d="M168 50.3125C156.591 50.3125 145.437 53.6958 135.951 60.0346C126.464 66.3734 119.07 75.3829 114.704 85.9239C110.337 96.465 109.195 108.064 111.421 119.254C113.647 130.445 119.141 140.723 127.209 148.791C135.277 156.859 145.555 162.353 156.746 164.579C167.936 166.805 179.535 165.663 190.076 161.296C200.617 156.93 209.627 149.536 215.965 140.049C222.304 130.563 225.688 119.41 225.688 108C225.658 92.7093 219.571 78.0533 208.759 67.2412C197.947 56.429 183.291 50.3418 168 50.3125ZM199.063 112.438H168C166.823 112.438 165.694 111.97 164.862 111.138C164.03 110.306 163.563 109.177 163.563 108V76.9375C163.563 75.7606 164.03 74.6319 164.862 73.7997C165.694 72.9675 166.823 72.5 168 72.5C169.177 72.5 170.306 72.9675 171.138 73.7997C171.97 74.6319 172.438 75.7606 172.438 76.9375V103.562H199.063C200.239 103.562 201.368 104.03 202.2 104.862C203.033 105.694 203.5 106.823 203.5 108C203.5 109.177 203.033 110.306 202.2 111.138C201.368 111.97 200.239 112.438 199.063 112.438Z" fill="#00A0E3"/>
<path d="M210 66L253.215 1H336" stroke="black" stroke-opacity="0.2"/>
<path d="M210 150L253.215 215H336" stroke="black" stroke-opacity="0.2"/>
<path d="M126 66L82.7851 1H-4.41074e-06" stroke="black" stroke-opacity="0.2"/>
<path d="M126 150L82.7851 215H-4.41074e-06" stroke="black" stroke-opacity="0.2"/>
</svg>
