<svg width="100" height="100" fill="none" xmlns="http://www.w3.org/2000/svg"><path d="M86.015 40.625L78.203 27.07a10.976 10.976 0 00-18.477-.742L52.968 14.61a10.977 10.977 0 00-14.96-4.023 11.485 11.485 0 00-3.868 3.75 10.899 10.899 0 00-4.492-2.422 10.585 10.585 0 00-8.281 1.094 10.897 10.897 0 00-4.024 14.922l1.328 2.265a11.134 11.134 0 00-4.609 1.446 10.977 10.977 0 00-3.984 14.922L26.484 75a34.374 34.374 0 1059.531-34.375zm-2.617 24.453a27.813 27.813 0 01-13.086 17.07 28.164 28.164 0 01-38.438-10.273L15.469 43.437a4.69 4.69 0 118.125-4.687l8.594 14.883a3.133 3.133 0 005.43-3.125l-8.594-14.883-6.25-10.82a4.687 4.687 0 01-.469-3.555 4.61 4.61 0 012.188-2.852 4.688 4.688 0 013.554-.468 4.883 4.883 0 012.852 2.187l3.086 5.43h.039L44.18 43.125a3.008 3.008 0 002.695 1.563 2.851 2.851 0 001.563-.43A3.125 3.125 0 0049.57 40L39.414 22.422a4.69 4.69 0 018.125-4.688l11.718 20.274 2.461 4.297a18.789 18.789 0 00-4.258 23.828 3.125 3.125 0 005.391-3.125 12.5 12.5 0 014.57-17.07 3.163 3.163 0 001.485-1.915c.19-.793.08-1.628-.313-2.343l-3.906-6.797a4.688 4.688 0 015.273-6.836 4.608 4.608 0 012.813 2.148l7.813 13.555a27.694 27.694 0 012.812 21.328zm-49.14 30.469a3.202 3.202 0 01-2.579 1.328 3.359 3.359 0 01-1.797-.547A46.055 46.055 0 0116.054 81.25a3.124 3.124 0 115.39-3.125 40.08 40.08 0 0012.032 13.047 3.164 3.164 0 01.781 4.375zm31.366-83.438a3.125 3.125 0 013.126-3.125 23.516 23.516 0 0120.312 11.72 3.084 3.084 0 01-1.172 4.257 2.774 2.774 0 01-1.562.43 3.125 3.125 0 01-2.696-1.563 17.187 17.187 0 00-14.883-8.594 3.125 3.125 0 01-3.124-3.125z" fill="#00A0E3"/></svg>