<svg width="100" height="100" fill="none" xmlns="http://www.w3.org/2000/svg"><path d="M46.797 83.906a3.164 3.164 0 01-3.047 2.383c-.252 0-.502-.04-.742-.117l-11.797-2.93a6.134 6.134 0 01-2.578-1.367l-8.789-7.656a3.101 3.101 0 114.063-4.688l8.828 7.657 11.757 2.93a3.164 3.164 0 012.305 3.788zM98.594 46.72a6.171 6.171 0 01-3.164 3.633l-9.102 4.57-5.82 6.836h-.078c0 .039-.04.039-.04.078h-.038L65.977 76.211a6.445 6.445 0 01-4.453 1.836 6.2 6.2 0 01-1.485-.195l-22.656-5.586a5.938 5.938 0 01-2.344-1.133L13.945 54.649 4.571 49.96a6.367 6.367 0 01-3.165-3.672 6.25 6.25 0 01.43-4.805l9.61-18.398a6.29 6.29 0 018.32-2.734l8.75 4.375 19.023-5.547a6.484 6.484 0 014.297.312l12.89 5.86h6.407l9.102-4.57a6.25 6.25 0 018.32 2.695l9.61 18.398a6.328 6.328 0 01.429 4.844zM73.321 60.08l-12.344-8.985-3.164 2.383a15.703 15.703 0 01-18.75 0l-2.11-1.602a6.21 6.21 0 01-.664-9.414l15.274-15.313.703-.585-3.008-1.368-19.023 5.547-10.625 20.39 19.297 15.079 22.617 5.664L73.32 60.078zm7.304-8.087L70 31.602H55.977L40.703 46.875l2.11 1.602a9.493 9.493 0 0011.25 0l5-3.75a3.124 3.124 0 013.71-.04L77.618 55.47l3.008-3.477z" fill="#00A0E3"/></svg>