<svg width="100" height="100" viewBox="0 0 100 100" fill="none" xmlns="http://www.w3.org/2000/svg">
<path d="M10 45C12.7656 41.2876 16.4559 38.3649 20.7031 36.5234C18.3794 34.3975 16.7523 31.619 16.0353 28.5522C15.3183 25.4854 15.5448 22.2735 16.6851 19.3377C17.8254 16.4019 19.8263 13.8793 22.4254 12.1005C25.0245 10.3218 28.1005 9.37 31.25 9.37C34.3995 9.37 37.4755 10.3218 40.0746 12.1005C42.6737 13.8793 44.6746 16.4019 45.8149 19.3377C46.9552 22.2735 47.1817 25.4854 46.4647 28.5522C45.7477 31.619 44.1206 34.3975 41.7969 36.5234C44.8574 37.8543 47.6402 39.7493 50 42.1093C52.3598 39.7493 55.1426 37.8543 58.2031 36.5234C55.8794 34.3975 54.2523 31.619 53.5353 28.5522C52.8183 25.4854 53.0448 22.2735 54.1851 19.3377C55.3254 16.4019 57.3263 13.8793 59.9254 12.1005C62.5245 10.3218 65.6005 9.37 68.75 9.37C71.8995 9.37 74.9755 10.3218 77.5746 12.1005C80.1737 13.8793 82.1746 16.4019 83.3149 19.3377C84.4552 22.2735 84.6817 25.4854 83.9647 28.5522C83.2477 31.619 81.6206 34.3975 79.2969 36.5234C83.5441 38.3649 87.2344 41.2876 90 45C90.2462 45.3283 90.4254 45.7019 90.5272 46.0994C90.6291 46.4969 90.6516 46.9106 90.5936 47.3169C90.5356 47.7232 90.3981 48.114 90.189 48.4671C89.9799 48.8203 89.7033 49.1287 89.375 49.375C88.7084 49.8622 87.8777 50.0696 87.0603 49.9529C86.2429 49.8361 85.5035 49.4044 85 48.75C83.108 46.2272 80.6545 44.1797 77.834 42.7694C75.0135 41.3592 71.9034 40.625 68.75 40.625C65.5966 40.625 62.4865 41.3592 59.666 42.7694C56.8455 44.1797 54.392 46.2272 52.5 48.75V48.75L52.2656 48.9843H52.2266L52.0312 49.1796L51.9141 49.2578C51.9141 49.2681 51.9099 49.2781 51.9026 49.2854C51.8953 49.2927 51.8854 49.2968 51.875 49.2968L51.7578 49.375L51.6406 49.4531L51.4453 49.5703H51.3672L50.7031 49.8046H49.4141L49.1016 49.7265H48.9844L48.6328 49.5703L48.5156 49.4921C48.3898 49.4278 48.2718 49.3492 48.1641 49.2578H48.125L48.0078 49.1406H47.9297C47.8516 49.0625 47.7734 49.0234 47.7344 48.9453H47.6953L47.4609 48.6718C45.5651 46.1588 43.1112 44.1208 40.2928 42.7186C37.4744 41.3165 34.3686 40.5886 31.2207 40.5924C28.0728 40.5961 24.9688 41.3315 22.1538 42.7405C19.3388 44.1494 16.8898 46.1933 15 48.7109C14.713 49.1062 14.3374 49.4287 13.9032 49.6526C13.4691 49.8765 12.9885 49.9954 12.5 50C11.8224 50.0088 11.1618 49.7886 10.625 49.375C10.2967 49.1287 10.0201 48.8203 9.81102 48.4671C9.60193 48.114 9.46445 47.7232 9.40641 47.3169C9.34837 46.9106 9.37092 46.4969 9.47277 46.0994C9.57462 45.7019 9.75377 45.3283 10 45ZM79.2969 77.1484C81.6206 75.0225 83.2477 72.244 83.9647 69.1772C84.6817 66.1104 84.4552 62.8985 83.3149 59.9627C82.1746 57.0269 80.1737 54.5043 77.5746 52.7255C74.9755 50.9468 71.8995 49.995 68.75 49.995C65.6005 49.995 62.5245 50.9468 59.9254 52.7255C57.3263 54.5043 55.3254 57.0269 54.1851 59.9627C53.0448 62.8985 52.8183 66.1104 53.5353 69.1772C54.2523 72.244 55.8794 75.0225 58.2031 77.1484C55.1426 78.4793 52.3598 80.3743 50 82.7343C47.6402 80.3743 44.8574 78.4793 41.7969 77.1484C44.1206 75.0225 45.7477 72.244 46.4647 69.1772C47.1817 66.1104 46.9552 62.8985 45.8149 59.9627C44.6746 57.0269 42.6737 54.5043 40.0746 52.7255C37.4755 50.9468 34.3995 49.995 31.25 49.995C28.1005 49.995 25.0245 50.9468 22.4254 52.7255C19.8263 54.5043 17.8254 57.0269 16.6851 59.9627C15.5448 62.8985 15.3183 66.1104 16.0353 69.1772C16.7523 72.244 18.3794 75.0225 20.7031 77.1484C16.4559 78.9899 12.7656 81.9126 10 85.625C9.65179 86.0892 9.43975 86.6413 9.38763 87.2193C9.33551 87.7973 9.44538 88.3784 9.70492 88.8975C9.96446 89.4166 10.3634 89.8531 10.8571 90.1582C11.3508 90.4634 11.9197 90.625 12.5 90.625H87.5C88.0803 90.625 88.6492 90.4634 89.1429 90.1582C89.6366 89.8531 90.0355 89.4166 90.2951 88.8975C90.5546 88.3784 90.6645 87.7973 90.6124 87.2193C90.5603 86.6413 90.3482 86.0892 90 85.625C87.2344 81.9126 83.5441 78.9899 79.2969 77.1484V77.1484Z" fill="#00A0E3"/>
</svg>
