<svg width="100" height="100" fill="none" xmlns="http://www.w3.org/2000/svg"><path d="M10 45a26.484 26.484 0 0110.703-8.477 15.625 15.625 0 1121.094 0A26.604 26.604 0 0150 42.11a26.604 26.604 0 018.203-5.586 15.625 15.625 0 1121.094 0A26.484 26.484 0 0190 45a3.125 3.125 0 01-.625 4.375A3.165 3.165 0 0185 48.75a20.312 20.312 0 00-32.5 0l-.234.234h-.04l-.195.196-.117.078a.04.04 0 01-.039.039l-.117.078-.117.078-.196.117h-.078l-.664.235h-1.289l-.312-.078h-.118l-.351-.157-.117-.078a1.831 1.831 0 01-.352-.234h-.039l-.117-.117h-.078c-.078-.078-.157-.118-.196-.196h-.039l-.234-.273A20.313 20.313 0 0015 48.71 3.126 3.126 0 0112.5 50a3.008 3.008 0 01-1.875-.625A3.125 3.125 0 0110 45zm69.297 32.148a15.625 15.625 0 10-21.094 0A26.604 26.604 0 0050 82.734a26.604 26.604 0 00-8.203-5.586 15.625 15.625 0 10-21.094 0A26.484 26.484 0 0010 85.625a3.125 3.125 0 002.5 5h75a3.124 3.124 0 002.5-5 26.484 26.484 0 00-10.703-8.477z" fill="#00A0E3"/></svg>