<svg width="100" height="74" fill="none" xmlns="http://www.w3.org/2000/svg"><path d="M96.875 37a21.874 21.874 0 01-37.344 15.469l-.117-.157-23.437-26.406A15.43 15.43 0 0025 21.375a15.625 15.625 0 100 31.25 15.43 15.43 0 0010.977-4.531l3.32-3.75a3.127 3.127 0 114.688 4.14l-3.399 3.828-.117.157a21.874 21.874 0 01-30.938 0 21.875 21.875 0 0115.47-37.344 21.68 21.68 0 0115.468 6.406l.117.157 23.438 26.406A15.429 15.429 0 0075 52.625a15.625 15.625 0 000-31.25 15.43 15.43 0 00-10.976 4.531l-3.32 3.75a3.127 3.127 0 11-4.688-4.14l3.398-3.828.117-.157A21.875 21.875 0 0196.875 37z" fill="#00A0E3"/></svg>