<svg width="1003" height="110" viewBox="0 0 1003 110" fill="none" xmlns="http://www.w3.org/2000/svg">
<path d="M69.016 103.074L41.6356 115.984L42.6072 118.045L69.9876 105.134L69.016 103.074Z" fill="#728AE1"/>
<path d="M69.237 88.9684L32.9867 107.067L35.0067 111.113L71.257 93.0142L69.237 88.9684Z" fill="#526FBF"/>
<path d="M65.5357 95.8281L47.8821 104.642L49.9021 108.688L67.5557 99.8739L65.5357 95.8281Z" fill="#526FBF"/>
<path d="M9.75781 133.357L82.7728 125.288L78.5965 118.346L12.6931 125.633L9.75781 133.357Z" fill="#728AE1"/>
<path d="M31.0873 104.474C31.0873 104.474 10.1433 107.001 8.84001 60.903C8.84001 60.903 7.90501 52.437 23.664 54.4317L21.4597 34.4964C21.4597 34.4964 1.72834 32.2694 0.374006 48.4534C0.374006 48.4534 -4.03466 111.75 29.4667 113.467L31.0873 104.474Z" fill="#526FBF"/>
<path d="M29.5868 13.8153L9.61708 22.9611L29.2631 65.8578L49.2328 56.712L29.5868 13.8153Z" fill="#728AE1"/>
<path d="M45.9678 58.21L32.5258 64.3662L34.5669 68.8228L48.0088 62.6666L45.9678 58.21Z" fill="#526FBF"/>
<path d="M26.2874 6.62459L6.3177 15.7704L9.61169 22.9628L29.5814 13.817L26.2874 6.62459Z" fill="#526FBF"/>
<path d="M21.3598 4.52295L7.91786 10.6777L9.56447 14.2739L23.0064 8.11914L21.3598 4.52295Z" fill="#526FBF"/>
<path d="M47.9963 62.6654L54.4676 65.918L32.634 75.9197L34.555 68.825L47.9963 62.6654Z" fill="#526FBF"/>
<path d="M11.7468 44.6453C12.2454 49.1617 16.3084 52.4143 20.8248 51.9157C25.3411 51.417 28.5994 47.354 28.1008 42.8377C27.6021 38.3213 23.5334 35.0687 19.0228 35.5673C14.5008 36.066 11.2481 40.129 11.7468 44.6453Z" fill="#728AE1"/>
<path d="M15.8328 44.1977C16.0822 46.453 18.1165 48.085 20.3719 47.8357C22.6329 47.5863 24.2592 45.552 24.0099 43.2967C23.7605 41.0357 21.7262 39.4093 19.4709 39.6587C17.2099 39.908 15.5835 41.9367 15.8328 44.1977Z" fill="#526FBF"/>
<path d="M28.7757 123.854L29.7957 108.645C29.4613 105.636 31.6317 102.927 34.6463 102.593C37.6553 102.258 40.364 104.429 40.6983 107.443L45.4583 122.012L28.7757 123.854Z" fill="#728AE1"/>
<path d="M33.2124 108.837C33.3541 110.118 34.5044 111.042 35.7851 110.9C37.0658 110.758 37.9894 109.608 37.8478 108.327C37.7061 107.047 36.5558 106.123 35.2751 106.265C33.9944 106.406 33.0708 107.557 33.2124 108.837Z" fill="#526FBF"/>
<path d="M212.656 59.0564C212.275 56.7909 213.81 54.6418 216.086 54.2713C218.351 53.8901 220.5 55.4252 220.871 57.7013C221.242 59.9775 219.717 62.116 217.441 62.4865C215.165 62.8571 213.026 61.322 212.656 59.0564Z" fill="#FECB7F"/>
<path d="M196.861 44.161C196.48 41.8955 198.015 39.7464 200.291 39.3759C202.557 38.9947 204.706 40.5298 205.076 42.806C205.457 45.0715 203.922 47.2206 201.646 47.5911C199.38 47.9617 197.242 46.4266 196.861 44.161Z" fill="#FECB7F"/>
<path d="M216.88 33.5638C216.605 31.9228 217.717 30.3666 219.368 30.0913C221.009 29.8161 222.565 30.9277 222.841 32.5792C223.116 34.2201 222.004 35.7764 220.353 36.0516C218.701 36.3163 217.145 35.2047 216.88 33.5638Z" fill="#FECB7F"/>
<path d="M180.504 143.686L197.411 75.2541L215.757 79.7852L198.85 148.217C197.601 153.278 192.477 156.38 187.417 155.12C182.346 153.881 179.254 148.757 180.504 143.686Z" fill="white"/>
<path d="M185.606 143.549L193.292 112.434L205.572 97.8989L194.393 145.719C193.789 148.143 191.344 149.625 188.909 149.033C186.495 148.429 185.013 145.973 185.606 143.549Z" fill="#FFCE80"/>
<path d="M195.378 72.0463C195.823 70.2572 197.199 69.0609 198.459 69.3785L217.568 74.1001C218.827 74.4072 219.494 76.1116 219.05 77.9008C218.605 79.6899 217.229 80.8862 215.969 80.5686L196.86 75.8469C195.6 75.5399 194.933 73.8355 195.378 72.0463Z" fill="white"/>
<path d="M921.819 50.9102C920.363 51.3124 919.642 53.3231 920.224 55.4031C920.807 57.4831 922.457 58.8281 923.913 58.4121L924.369 58.2848L935.759 99.0531C918.381 109.02 909.284 129.824 914.915 150.001C921.585 173.852 946.309 187.774 970.16 181.118C994.01 174.448 1007.93 149.724 1001.28 125.873C995.634 105.696 977.07 92.6245 957.045 93.1067L945.654 52.3346L946.086 52.2137C947.542 51.8116 948.263 49.8009 947.68 47.7209C947.112 45.6548 945.448 44.3097 943.992 44.7119L921.819 50.9102Z" fill="white"/>
<path d="M921.071 14.1358C919.158 14.6766 918.034 16.6596 918.575 18.5732C919.116 20.4868 921.099 21.5961 923.013 21.0692C924.926 20.5284 926.049 18.5455 925.509 16.6319C924.968 14.7183 922.985 13.595 921.071 14.1358Z" fill="#FFB657"/>
<path d="M944.491 84.5508C942.578 85.0916 941.454 87.0746 941.995 88.9882C942.522 90.9018 944.519 92.0249 946.433 91.4841C948.346 90.9433 949.469 88.9604 948.929 87.0468C948.388 85.1332 946.405 84.01 944.491 84.5508Z" fill="#FFB657"/>
<path d="M989.67 132.141C1000.72 172.465 939.528 189.549 928.102 149.336C924.926 140.669 931.097 135.677 934.563 136.467C932.178 127.953 944.922 119.938 951.3 126.414C948.735 112.728 968.939 107.223 973.681 120.327C981.53 116.499 986.674 121.436 989.67 132.141Z" fill="#FFB657"/>
<path d="M937.364 111.494C936.408 108.083 938.404 104.547 941.816 103.59C945.227 102.633 948.763 104.63 949.72 108.041C950.676 111.452 948.68 114.988 945.268 115.945C941.857 116.888 938.307 114.905 937.364 111.494Z" fill="#FFB657"/>
<path d="M915.691 27.2537C912.279 28.2105 910.283 31.7465 911.239 35.1577C912.196 38.5689 915.732 40.5518 919.143 39.6089C922.555 38.6521 924.551 35.1161 923.595 31.7049C922.638 28.2937 919.102 26.2969 915.691 27.2537Z" fill="#FFB657"/>
<path d="M787.862 31.9043C790.681 26.3188 788.439 19.5053 782.853 16.6859C777.268 13.8666 770.454 16.109 767.635 21.6945C764.816 27.28 767.058 34.0935 772.643 36.9129C778.229 39.7322 785.043 37.4898 787.862 31.9043Z" fill="#328C82"/>
<path d="M779.629 16.3759C784.704 17.2773 788.42 21.3541 789.086 26.2074C788.809 21.0767 785.037 16.6117 779.754 15.6826C774.47 14.7535 769.395 17.6378 767.371 22.3663C769.659 18.0399 774.554 15.4746 779.629 16.3759Z" fill="white"/>
<path d="M776.662 33.1546C771.767 32.281 768.037 28.6896 766.761 24.1968C766.706 24.4186 766.664 24.6405 766.623 24.8624C765.527 31.0192 769.646 36.8986 775.802 37.9941C781.959 39.0895 787.839 34.9712 788.934 28.8144C788.976 28.5925 789.003 28.3706 789.031 28.1488C786.299 31.9066 781.557 34.0144 776.662 33.1546Z" fill="#26A69A"/>
<path d="M811.066 18.5391C811.745 17.1941 812.383 15.8629 812.924 14.5456C816.848 5.10236 816.723 -2.45499 812.577 -6.75366C808.431 -11.0523 800.874 -11.4406 791.306 -7.84914C789.975 -7.34994 788.616 -6.76751 787.243 -6.12964C786.425 -7.39151 785.579 -8.59792 784.705 -9.73498C778.493 -17.8609 771.879 -21.5355 766.082 -20.0934C760.286 -18.6513 756.168 -12.3003 754.49 -2.21927C754.254 -0.804874 754.074 0.651159 753.949 2.14876C752.438 2.23196 750.968 2.35676 749.553 2.53703C739.417 3.85436 732.927 7.75089 731.277 13.4917C729.627 19.2325 733.066 25.9717 740.97 32.4752C742.065 33.3765 743.258 34.2639 744.492 35.1375C743.812 36.4826 743.175 37.8138 742.634 39.1311C738.71 48.5743 738.834 56.1317 742.981 60.4304C746.406 63.9802 752.146 64.8677 759.426 63.0511C760.966 62.6629 762.588 62.1637 764.266 61.5258C765.597 61.0266 766.956 60.4442 768.329 59.8063C769.147 61.0682 769.993 62.2746 770.866 63.4117C777.079 71.5376 783.693 75.2122 789.489 73.7701C795.286 72.328 799.404 65.977 801.082 55.8959C801.318 54.4815 801.498 53.0255 801.623 51.5279C803.134 51.4447 804.604 51.3199 806.018 51.1397C807.793 50.9039 809.457 50.5989 811.01 50.2106C818.29 48.3941 822.936 44.9274 824.295 40.185C825.945 34.4442 822.506 27.705 814.602 21.2015C813.479 20.2863 812.3 19.4127 811.066 18.5391ZM792.166 -5.57498C793.719 -6.15738 795.23 -6.62884 796.658 -6.98937C803.023 -8.57017 808.057 -7.93232 810.816 -5.06192C814.2 -1.55366 814.144 5.241 810.664 13.6026C810.178 14.7813 809.624 15.9599 809.027 17.1663C804.951 14.5178 800.278 12.105 795.216 10.0111C793.303 4.8666 791.056 0.124226 788.56 -4.04964C789.767 -4.61818 790.973 -5.11738 792.166 -5.57498ZM791.112 40.6426C788.463 43.1941 785.745 45.5653 782.986 47.7285C779.533 47.1045 776.011 46.2863 772.475 45.2741C768.939 44.2618 765.528 43.0831 762.269 41.7797C761.077 38.4794 760.023 35.0266 759.135 31.4629C758.248 27.8991 757.554 24.3493 757.055 20.8826C759.315 18.2063 761.784 15.5578 764.432 13.0063C767.081 10.4549 769.799 8.0837 772.558 5.9205C776.011 6.5445 779.533 7.36261 783.069 8.37488C786.605 9.38715 790.016 10.5658 793.275 11.8693C794.467 15.1695 795.521 18.6223 796.409 22.1861C797.296 25.7498 797.99 29.2997 798.489 32.7663C796.229 35.4565 793.76 38.0911 791.112 40.6426ZM798.905 36.0389C799.404 40.6288 799.543 45.0383 799.321 49.1429C795.202 49.2261 790.807 48.921 786.231 48.2693C788.463 46.4389 790.668 44.4837 792.817 42.4175C794.967 40.3375 796.991 38.2021 798.905 36.0389ZM780.365 49.7253C776.649 52.457 772.891 54.7866 769.216 56.6447C767.095 53.1226 765.139 49.1568 763.434 44.872C766.138 45.8842 768.925 46.8133 771.795 47.6453C774.68 48.4634 777.536 49.1568 780.365 49.7253ZM759.246 40.5178C755.017 38.6597 751.134 36.5797 747.681 34.3194C749.664 30.7141 752.133 27.0533 754.989 23.4341C755.461 26.2767 756.057 29.161 756.778 32.0591C757.499 34.9573 758.317 37.7861 759.246 40.5178ZM756.653 17.624C756.154 13.0341 756.015 8.62448 756.237 4.51995C760.355 4.43675 764.751 4.74182 769.327 5.39355C767.095 7.22396 764.89 9.17916 762.74 11.2453C760.591 13.3253 758.567 15.4608 756.653 17.624ZM775.193 3.92369C778.909 1.19196 782.667 -1.1238 786.342 -2.9958C788.463 0.526329 790.418 4.49223 792.124 8.77703C789.42 7.76476 786.633 6.83569 783.762 6.00369C780.892 5.19942 778.022 4.50609 775.193 3.92369ZM796.326 13.145C800.555 15.0032 804.438 17.0832 807.89 19.3434C805.907 22.9488 803.439 26.6096 800.583 30.2288C800.111 27.3861 799.515 24.5018 798.794 21.6037C798.073 18.7056 797.241 15.8768 796.326 13.145ZM756.916 -1.83097C758.4 -10.7611 761.964 -16.5574 766.679 -17.736C771.407 -18.9147 777.259 -15.4619 782.764 -8.26512C783.54 -7.25285 784.289 -6.18512 785.024 -5.06192C780.698 -2.85712 776.274 -0.014473 771.92 3.32739C766.512 2.41219 761.271 1.98236 756.417 2.06556C756.542 0.720497 756.708 -0.569099 756.916 -1.83097ZM742.523 30.5754C735.534 24.8208 732.289 18.8442 733.634 14.1711C734.73 10.3578 738.876 7.4181 745.241 5.8373C746.683 5.47677 748.222 5.18553 749.872 4.97753C751.134 4.81113 752.438 4.70023 753.783 4.61703C753.533 9.47036 753.769 14.7119 754.49 20.1615C750.995 24.3909 748 28.7173 745.643 32.9605C744.561 32.1701 743.507 31.3797 742.523 30.5754ZM763.392 59.224C754.92 62.3994 748.111 62.2191 744.742 58.7109C741.358 55.2026 741.414 48.4079 744.894 40.0463C745.379 38.8677 745.934 37.689 746.53 36.4826C750.607 39.1311 755.28 41.5439 760.342 43.6378C762.255 48.7823 764.502 53.5248 766.998 57.6986C765.791 58.2672 764.585 58.7802 763.392 59.224ZM798.641 55.4938C797.158 64.424 793.594 70.2202 788.879 71.3989C784.151 72.5776 778.299 69.1247 772.794 61.9279C772.017 60.9157 771.268 59.8479 770.534 58.7247C774.86 56.52 779.283 53.6773 783.638 50.3354C789.046 51.2506 794.287 51.6805 799.14 51.5973C799.016 52.9285 798.849 54.232 798.641 55.4938ZM821.923 39.5056C820.578 44.1786 814.657 47.5343 805.686 48.6991C804.424 48.8655 803.12 48.9765 801.775 49.0597C802.025 44.2063 801.789 38.9648 801.068 33.5152C804.562 29.2858 807.558 24.9594 809.915 20.7162C811.01 21.4927 812.05 22.2831 813.035 23.0874C820.024 28.8421 823.268 34.8186 821.923 39.5056Z" fill="#728AE1"/>
</svg>
