<svg width="1040" height="150" viewBox="0 0 1040 150" fill="none" xmlns="http://www.w3.org/2000/svg">
<mask id="mask0_1709_9264" style="mask-type:alpha" maskUnits="userSpaceOnUse" x="0" y="20" width="1040" height="110">
<rect y="20.0704" width="1040" height="109.859" rx="20" fill="#D6E7FD"/>
</mask>
<g mask="url(#mask0_1709_9264)">
<mask id="mask1_1709_9264" style="mask-type:luminance" maskUnits="userSpaceOnUse" x="29" y="-136" width="425" height="284">
<path d="M454 -136H29V147.333H454V-136Z" fill="white"/>
</mask>
<g mask="url(#mask1_1709_9264)">
<path d="M100.016 123.074L72.6357 135.984L73.6073 138.045L100.988 125.134L100.016 123.074Z" fill="#728AE1"/>
<path d="M100.237 108.968L63.9863 127.067L66.0063 131.113L102.257 113.014L100.237 108.968Z" fill="#526FBF"/>
<path d="M96.5355 115.828L78.8818 124.642L80.9018 128.688L98.5554 119.874L96.5355 115.828Z" fill="#526FBF"/>
<path d="M62.0873 124.474C62.0873 124.474 41.1433 127.001 39.84 80.903C39.84 80.903 38.905 72.437 54.664 74.4317L52.4597 54.4964C52.4597 54.4964 32.7283 52.2694 31.374 68.4534C31.374 68.4534 26.9653 131.75 60.4667 133.467L62.0873 124.474Z" fill="#526FBF"/>
<path d="M51.8026 124.905C46.8896 120.745 43.4953 116.393 41.3533 110.449C39.081 104.125 37.279 95.7554 36.8143 89.0234C36.5593 85.3797 36.6556 81.464 37.3526 77.86C38.0156 74.4204 39.3983 70.975 41.8859 68.4534C45.2746 65.0137 48.6803 62.4807 53.3439 62.441L54.6699 74.4374C38.9109 72.4427 39.846 80.9087 39.846 80.9087C41.1493 127.007 62.0933 124.48 62.0933 124.48L61.3793 128.463C57.9849 128.475 54.6869 127.347 51.8026 124.905Z" fill="#526FBF"/>
<path d="M60.5869 33.8153L40.6172 42.9611L60.2632 85.8578L80.2329 76.712L60.5869 33.8153Z" fill="#728AE1"/>
<path d="M76.9673 78.21L63.5254 84.3662L65.5664 88.8228L79.0084 82.6666L76.9673 78.21Z" fill="#526FBF"/>
<path d="M57.2871 26.6246L37.3174 35.7704L40.6114 42.9628L60.5811 33.8169L57.2871 26.6246Z" fill="#526FBF"/>
<path d="M52.3599 24.523L38.918 30.6777L40.5646 34.2739L54.0065 28.1192L52.3599 24.523Z" fill="#526FBF"/>
<path d="M78.9961 82.6653L85.4675 85.918L63.6338 95.9197L65.5548 88.825L78.9961 82.6653Z" fill="#526FBF"/>
<path d="M42.7468 64.6453C43.2454 69.1616 47.3084 72.4143 51.8248 71.9157C56.3411 71.417 59.5994 67.354 59.1008 62.8376C58.6021 58.3213 54.5334 55.0687 50.0228 55.5673C45.5008 56.066 42.2481 60.129 42.7468 64.6453Z" fill="#728AE1"/>
<path d="M46.8329 64.1977C47.0822 66.453 49.1165 68.085 51.3719 67.8357C53.6329 67.5863 55.2592 65.552 55.0099 63.2967C54.7605 61.0357 52.7262 59.4093 50.4709 59.6587C48.2099 59.908 46.5835 61.9367 46.8329 64.1977Z" fill="#526FBF"/>
<path d="M59.7754 143.854L60.7954 128.645C60.4611 125.636 62.6314 122.927 65.6461 122.593C68.6551 122.258 71.3637 124.429 71.6981 127.443L76.4581 142.012L59.7754 143.854Z" fill="#728AE1"/>
<path d="M64.2126 128.837C64.3543 130.118 65.5046 131.042 66.7853 130.9C68.0659 130.758 68.9896 129.608 68.8479 128.327C68.7063 127.047 67.5559 126.123 66.2753 126.265C64.9946 126.406 64.0709 127.557 64.2126 128.837Z" fill="#526FBF"/>
</g>
<mask id="mask2_1709_9264" style="mask-type:luminance" maskUnits="userSpaceOnUse" x="25" y="-326" width="794" height="530">
<path d="M819 -326H25V203.333H819V-326Z" fill="white"/>
</mask>
<g mask="url(#mask2_1709_9264)">
<path d="M243.656 79.0565C243.275 76.7909 244.81 74.6419 247.086 74.2713C249.351 73.8902 251.5 75.4253 251.871 77.7014C252.242 79.9775 250.717 82.1161 248.441 82.4866C246.165 82.8571 244.026 81.322 243.656 79.0565Z" fill="#FECB7F"/>
<path d="M227.861 64.1611C227.48 61.8956 229.015 59.7465 231.291 59.3759C233.556 58.9948 235.706 60.5299 236.076 62.806C236.457 65.0716 234.922 67.2207 232.646 67.5912C230.38 67.9617 228.242 66.4267 227.861 64.1611Z" fill="#FECB7F"/>
<path d="M247.881 53.5638C247.605 51.9229 248.717 50.3667 250.369 50.0914C252.009 49.8161 253.566 50.9278 253.841 52.5793C254.116 54.2202 253.005 55.7764 251.353 56.0517C249.702 56.3164 248.145 55.2048 247.881 53.5638Z" fill="#FECB7F"/>
<path d="M211.504 163.686L228.411 95.2541L246.757 99.7852L229.85 168.217C228.601 173.278 223.477 176.38 218.417 175.12C213.346 173.881 210.254 168.757 211.504 163.686Z" fill="white"/>
<path d="M216.606 163.549L224.292 132.434L236.573 117.899L225.393 165.719C224.79 168.143 222.344 169.625 219.909 169.033C217.495 168.429 216.013 165.973 216.606 163.549Z" fill="#FFCE80"/>
<path d="M226.378 92.0463C226.823 90.2572 228.199 89.0609 229.459 89.3785L248.568 94.1002C249.828 94.4072 250.495 96.1116 250.05 97.9008C249.605 99.6899 248.229 100.886 246.969 100.569L227.86 95.847C226.6 95.5399 225.933 93.8355 226.378 92.0463Z" fill="white"/>
</g>
<mask id="mask3_1709_9264" style="mask-type:luminance" maskUnits="userSpaceOnUse" x="378" y="-483" width="1040" height="694">
<path d="M1418 -483H378V210.333H1418V-483Z" fill="white"/>
</mask>
<g mask="url(#mask3_1709_9264)">
<path d="M977.441 158.805L954.797 77.7541L976.082 71.8054L998.726 152.856C1000.11 157.834 997.215 162.993 992.237 164.379L988.964 165.294C983.986 166.681 978.828 163.769 977.441 158.805Z" fill="white"/>
<path d="M945.563 170.259C938.907 146.408 952.829 121.684 976.68 115.014C1000.53 108.358 1025.25 122.28 1031.92 146.131C1038.58 169.981 1024.66 194.706 1000.81 201.375C976.957 208.031 952.233 194.109 945.563 170.259Z" fill="white"/>
<path d="M950.873 75.6603C950.291 73.5803 951.012 71.5696 952.468 71.1674L974.64 64.9691C976.096 64.5669 977.76 65.912 978.329 67.9781C978.911 70.0581 978.19 72.0688 976.734 72.4709L954.561 78.6693C953.105 79.0853 951.455 77.7403 950.873 75.6603Z" fill="white"/>
<path d="M972.644 109.245C972.103 107.332 973.226 105.349 975.14 104.808C977.053 104.267 979.036 105.39 979.577 107.304C980.118 109.218 978.995 111.201 977.081 111.741C975.167 112.282 973.171 111.159 972.644 109.245Z" fill="#FFB657"/>
<path d="M949.224 38.8304C948.683 36.9168 949.806 34.9338 951.72 34.393C953.633 33.8522 955.616 34.9755 956.157 36.8891C956.698 38.8027 955.575 40.7856 953.661 41.3264C951.747 41.8533 949.765 40.744 949.224 38.8304Z" fill="#FFB657"/>
<path d="M1020.32 152.398C1031.37 192.723 970.176 209.806 958.75 169.593C955.575 160.926 961.745 155.934 965.212 156.725C962.827 148.211 975.57 140.196 981.949 146.671C979.384 132.985 999.587 127.48 1004.33 140.584C1012.18 136.757 1017.32 141.693 1020.32 152.398Z" fill="#FFB657"/>
<path d="M968.013 131.751C967.056 128.34 969.053 124.804 972.464 123.847C975.875 122.89 979.411 124.887 980.368 128.298C981.325 131.709 979.328 135.245 975.917 136.202C972.506 137.145 968.956 135.162 968.013 131.751Z" fill="#FFB657"/>
<path d="M941.888 55.4149C940.931 52.0037 942.928 48.4677 946.339 47.5109C949.75 46.5541 953.286 48.5509 954.243 51.9621C955.2 55.3733 953.203 58.9093 949.792 59.8661C946.381 60.809 942.845 58.8261 941.888 55.4149Z" fill="#FFB657"/>
</g>
<mask id="mask4_1709_9264" style="mask-type:luminance" maskUnits="userSpaceOnUse" x="103" y="-431" width="1040" height="694">
<path d="M1143 -431H103V262.333H1143V-431Z" fill="white"/>
</mask>
<g mask="url(#mask4_1709_9264)">
<path d="M818.862 51.9043C821.681 46.3188 819.439 39.5053 813.853 36.686C808.268 33.8666 801.455 36.109 798.635 41.6945C795.816 47.28 798.058 54.0936 803.644 56.9129C809.229 59.7323 816.043 57.4898 818.862 51.9043Z" fill="#328C82"/>
<path d="M810.629 36.3759C815.704 37.2773 819.421 41.3541 820.086 46.2074C819.809 41.0767 816.037 36.6117 810.754 35.6826C805.471 34.7535 800.396 37.6378 798.371 42.3663C800.659 38.0399 805.554 35.4746 810.629 36.3759Z" fill="white"/>
<path d="M807.662 53.1546C802.767 52.281 799.037 48.6896 797.761 44.1968C797.706 44.4186 797.664 44.6405 797.623 44.8624C796.527 51.0192 800.646 56.8986 806.803 57.9941C812.959 59.0896 818.839 54.9712 819.934 48.8144C819.976 48.5925 820.004 48.3707 820.031 48.1488C817.3 51.9067 812.557 54.0144 807.662 53.1546Z" fill="#26A69A"/>
<path d="M842.066 38.5391C842.745 37.1941 843.383 35.8629 843.924 34.5456C847.848 25.1024 847.723 17.545 843.577 13.2463C839.431 8.94767 831.874 8.5594 822.306 12.1509C820.975 12.6501 819.616 13.2325 818.243 13.8704C817.425 12.6085 816.579 11.4021 815.705 10.265C809.493 2.13915 802.879 -1.53552 797.082 -0.0933861C791.286 1.34875 787.168 7.69966 785.49 17.7807C785.254 19.1951 785.074 20.6512 784.949 22.1488C783.438 22.232 781.968 22.3568 780.553 22.537C770.417 23.8544 763.927 27.7509 762.277 33.4917C760.627 39.2325 764.066 45.9717 771.97 52.4752C773.065 53.3765 774.258 54.2639 775.492 55.1375C774.813 56.4826 774.175 57.8138 773.634 59.1311C769.71 68.5743 769.834 76.1317 773.981 80.4304C777.406 83.9802 783.146 84.8677 790.426 83.0511C791.966 82.6629 793.588 82.1637 795.266 81.5258C796.597 81.0266 797.956 80.4442 799.329 79.8063C800.147 81.0682 800.993 82.2746 801.866 83.4117C808.079 91.5376 814.693 95.2122 820.489 93.7701C826.286 92.328 830.404 85.977 832.082 75.8959C832.318 74.4815 832.498 73.0255 832.623 71.5279C834.134 71.4447 835.604 71.3199 837.018 71.1397C838.793 70.9039 840.457 70.5989 842.01 70.2106C849.29 68.3941 853.936 64.9274 855.295 60.185C856.945 54.4442 853.506 47.705 845.602 41.2015C844.479 40.2863 843.3 39.4127 842.066 38.5391ZM823.166 14.425C824.719 13.8426 826.23 13.3712 827.658 13.0106C834.023 11.4298 839.057 12.0677 841.816 14.9381C845.2 18.4463 845.144 25.241 841.664 33.6026C841.178 34.7813 840.624 35.9599 840.027 37.1663C835.951 34.5178 831.278 32.105 826.216 30.0111C824.303 24.8666 822.056 20.1242 819.56 15.9504C820.767 15.3818 821.973 14.8826 823.166 14.425ZM822.112 60.6426C819.463 63.1941 816.745 65.5653 813.986 67.7285C810.533 67.1045 807.011 66.2863 803.475 65.2741C799.939 64.2618 796.528 63.0831 793.269 61.7797C792.077 58.4794 791.023 55.0266 790.135 51.4629C789.248 47.8991 788.554 44.3493 788.055 40.8826C790.315 38.2063 792.784 35.5578 795.432 33.0063C798.081 30.4549 800.799 28.0837 803.558 25.9205C807.011 26.5445 810.533 27.3626 814.069 28.3749C817.605 29.3871 821.016 30.5658 824.275 31.8693C825.467 35.1695 826.521 38.6223 827.409 42.1861C828.296 45.7498 828.99 49.2997 829.489 52.7663C827.229 55.4565 824.76 58.0911 822.112 60.6426ZM829.905 56.0389C830.404 60.6288 830.543 65.0383 830.321 69.1429C826.202 69.2261 821.807 68.921 817.231 68.2693C819.463 66.4389 821.668 64.4837 823.817 62.4175C825.967 60.3375 827.991 58.2021 829.905 56.0389ZM811.365 69.7253C807.649 72.457 803.891 74.7866 800.216 76.6447C798.095 73.1226 796.139 69.1568 794.434 64.872C797.138 65.8842 799.925 66.8133 802.795 67.6453C805.68 68.4634 808.536 69.1568 811.365 69.7253ZM790.246 60.5178C786.017 58.6597 782.134 56.5797 778.681 54.3194C780.664 50.7141 783.133 47.0533 785.989 43.4341C786.461 46.2767 787.057 49.161 787.778 52.0591C788.499 54.9573 789.317 57.7861 790.246 60.5178ZM787.653 37.624C787.154 33.0341 787.015 28.6245 787.237 24.5199C791.355 24.4367 795.751 24.7418 800.327 25.3936C798.095 27.224 795.89 29.1792 793.74 31.2453C791.591 33.3253 789.567 35.4608 787.653 37.624ZM806.193 23.9237C809.909 21.192 813.667 18.8762 817.342 17.0042C819.463 20.5263 821.418 24.4922 823.124 28.777C820.42 27.7648 817.633 26.8357 814.762 26.0037C811.892 25.1994 809.022 24.5061 806.193 23.9237ZM827.326 33.145C831.555 35.0032 835.438 37.0832 838.89 39.3434C836.907 42.9488 834.439 46.6096 831.583 50.2288C831.111 47.3861 830.515 44.5018 829.794 41.6037C829.073 38.7056 828.241 35.8768 827.326 33.145ZM787.916 18.169C789.4 9.2389 792.964 3.44263 797.679 2.26396C802.407 1.0853 808.259 4.53808 813.764 11.7349C814.54 12.7471 815.289 13.8149 816.024 14.9381C811.698 17.1429 807.274 19.9855 802.92 23.3274C797.512 22.4122 792.271 21.9824 787.417 22.0656C787.542 20.7205 787.708 19.4309 787.916 18.169ZM773.523 50.5754C766.534 44.8208 763.289 38.8442 764.634 34.1711C765.73 30.3578 769.876 27.4181 776.241 25.8373C777.683 25.4768 779.222 25.1855 780.872 24.9775C782.134 24.8111 783.438 24.7002 784.783 24.617C784.533 29.4704 784.769 34.7119 785.49 40.1615C781.995 44.3909 779 48.7173 776.643 52.9605C775.561 52.1701 774.507 51.3797 773.523 50.5754ZM794.392 79.224C785.92 82.3994 779.111 82.2191 775.742 78.7109C772.358 75.2026 772.414 68.4079 775.894 60.0463C776.379 58.8677 776.934 57.689 777.53 56.4826C781.607 59.1311 786.28 61.5439 791.342 63.6378C793.255 68.7823 795.502 73.5248 797.998 77.6986C796.791 78.2672 795.585 78.7802 794.392 79.224ZM829.641 75.4938C828.158 84.424 824.594 90.2202 819.879 91.3989C815.151 92.5776 809.299 89.1247 803.794 81.9279C803.017 80.9157 802.268 79.8479 801.534 78.7247C805.86 76.52 810.283 73.6773 814.638 70.3354C820.046 71.2506 825.287 71.6805 830.14 71.5973C830.016 72.9285 829.849 74.232 829.641 75.4938ZM852.923 59.5056C851.578 64.1786 845.657 67.5343 836.686 68.6991C835.424 68.8655 834.12 68.9765 832.775 69.0597C833.025 64.2063 832.789 58.9648 832.068 53.5152C835.562 49.2858 838.558 44.9594 840.915 40.7162C842.01 41.4927 843.05 42.2831 844.035 43.0874C851.024 48.8421 854.268 54.8186 852.923 59.5056Z" fill="#728AE1"/>
</g>
</g>
</svg>
