<svg width="979" height="110" viewBox="0 0 979 110" fill="none" xmlns="http://www.w3.org/2000/svg">
<path d="M72.5143 -4.87957C73.0429 -24.895 57.2441 -41.5492 37.2266 -42.0778C17.2091 -42.6063 0.553227 -26.8091 0.0246066 -6.79367C-0.504014 13.2217 15.2948 29.8759 35.3123 30.4045C55.3298 30.9331 71.9857 15.1358 72.5143 -4.87957Z" fill="#FEC786"/>
<path d="M68.0591 2.06861C72.4241 -15.4929 61.7248 -33.2675 44.1615 -37.6321C26.5981 -41.9967 8.82164 -31.2985 4.45659 -13.737C0.0915504 3.82453 10.7909 21.5992 28.3542 25.9638C45.9176 30.3284 63.694 19.6301 68.0591 2.06861Z" fill="white"/>
<path d="M47.1624 -29.8899C32.9772 -11.4025 36.3428 -5.71466 36.3428 -5.71466C44.2498 -8.73476 47.1624 -29.8899 47.1624 -29.8899Z" fill="#FEC786"/>
<path d="M18.9898 -9.6552C18.9898 -9.6552 34.2321 -9.5006 37.0835 -4.17228C37.0835 -4.17228 33.3584 -1.27442 18.9898 -9.6552Z" fill="#FEC786"/>
<path d="M38.0904 -5.16102C38.396 -6.12457 37.8602 -7.15641 36.8966 -7.46201C35.9329 -7.76762 34.9009 -7.23193 34.5953 -6.26837C34.2897 -5.30482 34.8254 -4.27294 35.7891 -3.96733C36.7563 -3.66173 37.7847 -4.19746 38.0904 -5.16102Z" fill="#EFA04B"/>
<path d="M18.6079 -33.4405L18.108 -33.1143L22.0539 -27.068L22.5538 -27.3942L18.6079 -33.4405Z" fill="#EFA04B"/>
<path d="M50.4765 15.3931L49.9767 15.7192L53.9225 21.7655L54.4224 21.4394L50.4765 15.3931Z" fill="#EFA04B"/>
<path d="M63.5449 -23.9923L57.4979 -20.0469L57.8241 -19.547L63.8711 -23.4925L63.5449 -23.9923Z" fill="#EFA04B"/>
<path d="M14.7002 7.87669L8.65325 11.8221L8.97945 12.322L15.0264 8.37655L14.7002 7.87669Z" fill="#EFA04B"/>
<path d="M42.7065 -37.9563L41.9635 -34.4238L42.5476 -34.3009L43.2906 -37.8334L42.7065 -37.9563Z" fill="#EFA04B"/>
<path d="M29.9648 22.6405L29.2219 26.173L29.806 26.2958L30.549 22.7633L29.9648 22.6405Z" fill="#EFA04B"/>
<path d="M60.0268 11.0688L59.6756 11.5515L62.5951 13.6751L62.9462 13.1924L60.0268 11.0688Z" fill="#EFA04B"/>
<path d="M9.91678 -25.3466L9.56569 -24.8639L12.4852 -22.7406L12.8363 -23.2233L9.91678 -25.3466Z" fill="#EFA04B"/>
<path d="M41.1094 22.9169L40.5198 23.01L41.083 26.5757L41.6726 26.4826L41.1094 22.9169Z" fill="#EFA04B"/>
<path d="M31.4572 -38.2444L30.8676 -38.1513L31.4308 -34.5856L32.0204 -34.6788L31.4572 -38.2444Z" fill="#EFA04B"/>
<path d="M18.8536 17.5675L16.7301 20.4867L17.2129 20.8377L19.3363 17.9185L18.8536 17.5675Z" fill="#EFA04B"/>
<path d="M55.2757 -32.5083L53.1522 -29.5891L53.6349 -29.238L55.7583 -32.1572L55.2757 -32.5083Z" fill="#EFA04B"/>
<path d="M7.40981 -1.57841L3.84374 -1.0153L3.93686 -0.425735L7.50293 -0.988857L7.40981 -1.57841Z" fill="#EFA04B"/>
<path d="M68.5893 -11.2403L65.0232 -10.6772L65.1164 -10.0876L68.6824 -10.6507L68.5893 -11.2403Z" fill="#EFA04B"/>
<path d="M4.35782 -13.4196L4.22531 -12.8377L7.74518 -12.0363L7.87769 -12.6182L4.35782 -13.4196Z" fill="#EFA04B"/>
<path d="M64.7436 0.345047L64.611 0.926952L68.1309 1.72868L68.2635 1.14677L64.7436 0.345047Z" fill="#EFA04B"/>
<path d="M878.061 20.4765C886.626 17.8231 888.629 27.0128 888.992 29.2959C890.675 27.7067 897.87 21.6486 903.037 28.9759C909.977 38.8128 890.452 52.281 880.251 54.9847H880.244C873.811 46.6183 866.562 24.0359 878.061 20.4765Z" fill="#4CB7D8"/>
<path d="M86.2806 55.7246C94.6119 52.4097 97.3303 61.4161 97.8697 63.6632C99.423 61.9482 106.122 55.3471 111.846 62.2466C119.534 71.5118 101.124 86.465 91.1636 89.9596H91.1564C84.0872 82.1182 75.0943 60.1721 86.2806 55.7246Z" fill="#F7597F"/>
<path d="M953.288 81.1412L951.307 92.5672L961.58 87.1922L971.831 92.6068L969.893 81.1736L978.214 73.0983L966.743 71.4085L961.63 61L956.478 71.387L945 73.0337L953.288 81.1412Z" fill="#FBC758"/>
<path d="M723.35 90L705.999 121L728.537 111L723.35 90Z" fill="#F47458"/>
<path d="M813.016 98.7763L736.899 117.544C733.39 118.412 729.835 116.267 728.972 112.761L716.897 63.878C716.028 60.3719 718.175 56.8211 721.685 55.9586L797.801 37.1905C801.311 36.3223 804.865 38.4674 805.728 41.9735L817.803 90.8512C818.672 94.3629 816.525 97.9138 813.016 98.7763Z" fill="#F47458"/>
<path d="M748.464 77.4822L756.385 75.3147C756.385 75.3147 764.502 65.2838 764.138 62.5618C763.768 59.8398 760.701 54.6648 762.075 53.567C763.454 52.4693 766.604 51.0747 769.576 54.0487C771.734 56.205 772.844 65.8046 773.937 66.1855C774.621 66.4263 779.206 65.3062 782.548 64.4381C784.745 63.8668 787.072 64.5613 788.596 66.2359L788.602 66.2415C789.633 67.3728 789.729 69.0755 788.832 70.3188L787.436 72.2511L789.308 73.7521C790.699 74.8666 790.928 76.8941 789.818 78.2943L788.692 79.7169L789.931 80.5626C791.523 81.6548 791.814 83.8895 790.558 85.3512L789.527 86.533L789.802 86.8298C790.945 88.062 790.956 89.9663 789.824 91.2096L788.781 92.3578L767.686 98.1266C765.708 98.6642 763.645 98.7986 761.615 98.513L753.862 99.3195C753.027 99.4035 752.259 98.8714 752.046 98.0593L747.27 79.5377C747.04 78.6415 747.572 77.723 748.464 77.4822Z" fill="white"/>
<path d="M200.591 24.8938C224.697 21.0561 246.149 29.9463 248.507 44.749C249.686 52.1491 245.869 59.6289 238.741 65.7344L252.001 86.0002L228.71 72.311C223.008 75.1778 216.359 77.3442 209.127 78.4962C185.024 82.3339 163.572 73.4437 161.213 58.641C158.855 43.8408 176.483 28.7291 200.591 24.8938Z" fill="#FAE0B2"/>
<path d="M221.807 51.7141C220.91 60.1721 213.324 66.297 204.865 65.4009C196.406 64.5025 190.277 56.9188 191.175 48.4609C192.072 40.0053 199.658 33.8781 208.117 34.7765C216.573 35.6725 222.703 43.2562 221.807 51.7141Z" fill="#F7CC7F"/>
<path d="M198.044 51.6441C197.563 56.1653 200.842 60.2204 205.365 60.701C209.888 61.1816 213.942 57.9042 214.423 53.383L198.044 51.6441Z" fill="#EFEFEF"/>
</svg>
