<svg width="100" height="100" fill="none" xmlns="http://www.w3.org/2000/svg"><path d="M87.5 18.75v10.938a3.125 3.125 0 11-6.25 0V18.75H70.312a3.125 3.125 0 110-6.25H81.25a6.25 6.25 0 016.25 6.25zm-3.125 48.438a3.125 3.125 0 00-3.125 3.124V81.25H70.312a3.125 3.125 0 100 6.25H81.25a6.25 6.25 0 006.25-6.25V70.312a3.125 3.125 0 00-3.125-3.124zM29.687 81.25H18.75V70.312a3.125 3.125 0 10-6.25 0V81.25a6.25 6.25 0 006.25 6.25h10.938a3.125 3.125 0 100-6.25zM15.626 32.812a3.125 3.125 0 003.125-3.124V18.75h10.938a3.125 3.125 0 100-6.25H18.75a6.25 6.25 0 00-6.25 6.25v10.938a3.125 3.125 0 003.125 3.125zm23.867 22.461a26.992 26.992 0 00-13.008 12.032 3.046 3.046 0 00.118 3.047 3.086 3.086 0 002.656 1.523h41.484a3.086 3.086 0 002.656-1.523 3.047 3.047 0 00.118-3.047 26.992 26.992 0 00-13.008-12.032 15.431 15.431 0 005.117-11.523 15.625 15.625 0 10-31.25 0 15.43 15.43 0 005.117 11.523z" fill="#00A0E3"/></svg>