<svg width="100" height="78" fill="none" xmlns="http://www.w3.org/2000/svg"><path d="M97.852 36.383a6.21 6.21 0 00-3.867-2.93 30.116 30.116 0 00-10.899-.703 33.867 33.867 0 00-1.015-15.977 6.21 6.21 0 00-7.227-4.18 32.147 32.147 0 00-10.234 4.22A36.874 36.874 0 0053.75 3.374a6.211 6.211 0 00-7.5 0 36.874 36.874 0 00-10.86 13.438 32.147 32.147 0 00-10.233-4.22 6.211 6.211 0 00-7.227 4.18 33.867 33.867 0 00-1.016 15.977 30.116 30.116 0 00-10.898.703 6.21 6.21 0 00-4.453 7.734C2.93 46.11 7.149 55.523 19.96 62.907c12.813 7.382 23.985 7.343 30 7.343h.078c6.016 0 17.266 0 30-7.344 12.735-7.343 17.032-16.797 18.399-21.718a6.25 6.25 0 00-.586-4.805zM50 8.375c3.75 2.813 12.5 11.094 12.5 27.5s-8.75 24.688-12.5 27.5c-3.75-2.813-12.5-11.094-12.5-27.5s8.75-24.688 12.5-27.5zM7.54 39.508c2.421-.625 6.21-1.094 11.093-.235a45.741 45.741 0 003.79 8.164 53.868 53.868 0 0012.967 15.08 48.2 48.2 0 01-12.305-5.04C12.226 51.189 8.711 43.492 7.54 39.508zm69.374 17.968a48.2 48.2 0 01-12.304 5.04 53.866 53.866 0 0012.968-15.078 45.748 45.748 0 003.79-8.165 26.874 26.874 0 0111.054.196c-1.133 4.023-4.648 11.718-15.508 18.008z" fill="#00A0E3"/></svg>