<svg width="100" height="100" viewBox="0 0 100 100" fill="none" xmlns="http://www.w3.org/2000/svg">
<path d="M50 64.0625C59.4924 64.0625 67.1875 56.3674 67.1875 46.875C67.1875 37.3826 59.4924 29.6875 50 29.6875C40.5076 29.6875 32.8125 37.3826 32.8125 46.875C32.8125 56.3674 40.5076 64.0625 50 64.0625Z" fill="white"/>
<path d="M50 9.375C41.9652 9.375 34.1107 11.7576 27.43 16.2215C20.7492 20.6855 15.5422 27.0302 12.4674 34.4535C9.3926 41.8767 8.58809 50.0451 10.1556 57.9255C11.7231 65.806 15.5923 73.0447 21.2738 78.7262C26.9553 84.4077 34.194 88.2769 42.0745 89.8444C49.955 91.4119 58.1233 90.6074 65.5465 87.5326C72.9698 84.4578 79.3145 79.2508 83.7785 72.57C88.2424 65.8893 90.625 58.0349 90.625 50C90.6044 39.2319 86.3176 28.9108 78.7034 21.2966C71.0892 13.6824 60.7681 9.39565 50 9.375ZM75.7031 72.8125C73.1735 69.1839 69.9138 66.1237 66.1328 63.8281C61.7916 67.9871 56.012 70.3089 50 70.3089C43.9881 70.3089 38.2084 67.9871 33.8672 63.8281C30.0862 66.1237 26.8265 69.1839 24.2969 72.8125C19.8976 67.8585 17.0236 61.7387 16.021 55.1896C15.0183 48.6405 15.9296 41.9412 18.6451 35.8979C21.3607 29.8545 25.7649 24.7248 31.3276 21.1259C36.8904 17.527 43.3746 15.6123 50 15.6123C56.6254 15.6123 63.1097 17.527 68.6724 21.1259C74.2351 24.7248 78.6393 29.8545 81.3549 35.8979C84.0705 41.9412 84.9818 48.6405 83.9791 55.1896C82.9764 61.7387 80.1025 67.8585 75.7031 72.8125Z" fill="white"/>
</svg>
