<svg width="80" height="80" viewBox="0 0 80 80" fill="none" xmlns="http://www.w3.org/2000/svg">
<path d="M40 5C32.7091 5.00827 25.7192 7.90824 20.5637 13.0637C15.4082 18.2192 12.5083 25.2091 12.5 32.5C12.5 56.0313 37.5 73.8125 38.5625 74.5625C38.9883 74.846 39.4884 74.9973 40 74.9973C40.5116 74.9973 41.0117 74.846 41.4375 74.5625C42.5 73.8125 67.5 56.0313 67.5 32.5C67.4917 25.2091 64.5918 18.2192 59.4363 13.0637C54.2808 7.90824 47.2909 5.00827 40 5V5ZM40 22.5C41.9778 22.5 43.9112 23.0865 45.5557 24.1853C47.2002 25.2841 48.4819 26.8459 49.2388 28.6732C49.9957 30.5004 50.1937 32.5111 49.8079 34.4509C49.422 36.3907 48.4696 38.1725 47.0711 39.5711C45.6725 40.9696 43.8907 41.922 41.9509 42.3079C40.0111 42.6937 38.0004 42.4957 36.1732 41.7388C34.3459 40.9819 32.7841 39.7002 31.6853 38.0557C30.5865 36.4112 30 34.4778 30 32.5C30 29.8478 31.0536 27.3043 32.9289 25.4289C34.8043 23.5536 37.3478 22.5 40 22.5V22.5Z" fill="#00A0E3"/>
</svg>
