<svg width="80" height="80" viewBox="0 0 80 80" fill="none" xmlns="http://www.w3.org/2000/svg">
<path d="M70 15H10C9.33696 15 8.70107 15.2634 8.23223 15.7322C7.76339 16.2011 7.5 16.837 7.5 17.5V60C7.5 61.3261 8.02678 62.5979 8.96447 63.5355C9.90215 64.4732 11.1739 65 12.5 65H67.5C68.8261 65 70.0979 64.4732 71.0355 63.5355C71.9732 62.5979 72.5 61.3261 72.5 60V17.5C72.5 16.837 72.2366 16.2011 71.7678 15.7322C71.2989 15.2634 70.663 15 70 15ZM67.5 60H12.5V23.1875L38.3125 46.8437C38.7734 47.2654 39.3754 47.4992 40 47.4992C40.6246 47.4992 41.2266 47.2654 41.6875 46.8437L67.5 23.1875V60Z" fill="#00A0E3"/>
</svg>
