<svg width="80" height="80" fill="none" xmlns="http://www.w3.org/2000/svg"><path d="M64.3 33.69c.08-9.64-8.13-18.477-18.3-19.7-.22-.027-.439-.06-.657-.1a9.516 9.516 0 00-1.55-.167c-2.086 0-2.643 1.467-2.79 2.337-.143.85-.006 1.567.404 2.123.69.937 1.906 1.104 2.883 1.237.283.04.553.077.78.127 9.14 2.043 12.217 5.253 13.72 14.316.037.22.053.494.073.784.067 1.083.2 3.336 2.624 3.336.2 0 .42-.016.646-.05 2.254-.343 2.184-2.403 2.15-3.393-.01-.28-.02-.543.007-.72a.958.958 0 00.007-.133l.003.003z" fill="#00A0E3"/><path d="M43.2 10.453c.273.02.527.04.74.07 15.01 2.31 21.913 9.42 23.823 24.547.034.257.04.57.044.9.02 1.183.06 3.643 2.7 3.693h.08c.83 0 1.486-.25 1.96-.743.82-.857.766-2.133.716-3.16-.01-.253-.02-.49-.02-.7.194-15.467-13.2-29.497-28.653-30.017-.067 0-.127 0-.187.01a1.29 1.29 0 01-.183.01c-.157 0-.343-.013-.547-.026-.24-.017-.516-.037-.8-.037-2.46 0-2.926 1.75-2.986 2.793-.137 2.41 2.193 2.58 3.313 2.66zM67.04 54.62c-.322-.245-.64-.494-.957-.747-1.64-1.32-3.383-2.533-5.066-3.71l-1.05-.733c-2.16-1.517-4.1-2.253-5.934-2.253-2.473 0-4.626 1.366-6.406 4.056-.787 1.194-1.744 1.774-2.92 1.774a5.802 5.802 0 01-2.354-.59c-6.966-3.16-11.946-8.007-14.793-14.404-1.377-3.093-.93-5.113 1.49-6.76 1.377-.933 3.933-2.67 3.757-6-.207-3.776-8.544-15.146-12.057-16.436a6.843 6.843 0 00-4.653-.014c-4.037 1.357-6.93 3.744-8.38 6.894-1.4 3.046-1.334 6.623.18 10.343C12.28 36.797 18.44 46.177 26.21 53.917c7.603 7.576 16.95 13.78 27.777 18.443.976.42 2 .65 2.75.817.253.056.473.106.633.15.088.023.179.036.27.036h.087c5.093 0 11.21-4.653 13.086-9.956 1.647-4.647-1.36-6.944-3.773-8.787zM45.453 22.743c-.87.02-2.686.067-3.323 1.914-.3.866-.263 1.613.107 2.23.54.9 1.576 1.18 2.516 1.333 3.417.547 5.174 2.433 5.524 5.943.163 1.634 1.266 2.777 2.676 2.777.107 0 .214-.007.32-.02 1.7-.2 2.524-1.45 2.45-3.713.027-2.36-1.206-5.04-3.31-7.174-2.106-2.14-4.646-3.346-6.96-3.29z" fill="#00A0E3"/></svg>