<svg width="80" height="80" fill="none" xmlns="http://www.w3.org/2000/svg"><path fill-rule="evenodd" clip-rule="evenodd" d="M75.734 20.625c.557-1.762 0-3.044-2.46-3.044H65.09c-2.064 0-3.018 1.122-3.574 2.322 0 0-4.21 10.25-10.087 16.895-1.907 1.922-2.78 2.563-3.813 2.563-.556 0-1.272-.64-1.272-2.402V20.542c0-2.081-.634-3.042-2.383-3.042H31.094c-1.272 0-2.066.96-2.066 1.922 0 2.001 2.94 2.483 3.256 8.087v12.178c0 2.643-.468 3.126-1.509 3.126-2.78 0-9.531-10.33-13.581-22.1-.788-2.332-1.588-3.213-3.653-3.213H5.28c-2.383 0-2.78 1.12-2.78 2.322 0 2.162 2.78 13.051 12.947 27.464 6.751 9.844 16.362 15.134 25.02 15.134 5.244 0 5.878-1.201 5.878-3.203V51.77c0-2.401.477-2.801 2.146-2.801 1.19 0 3.336.639 8.18 5.364 5.56 5.605 6.513 8.167 9.612 8.167h8.181c2.383 0 3.495-1.202 2.86-3.523-.715-2.322-3.416-5.685-6.912-9.688-1.906-2.24-4.765-4.723-5.639-5.925-1.19-1.601-.873-2.242 0-3.683-.08 0 9.93-14.253 10.961-19.062" fill="#00A0E3"/></svg>