<svg width="994" height="335" viewBox="0 0 994 335" fill="none" xmlns="http://www.w3.org/2000/svg">
<path d="M-124.197 224.043C-103.928 194.282 -63.0427 184.934 -27.4657 190.624C8.11131 196.314 40.3866 214.017 73.3531 228.563C169.579 270.942 287.516 285.192 376.041 228.45C440.788 186.964 479.334 114.765 538.665 65.879C591.22 22.6022 657.206 -0.221684 721.83 -21.6342C786.459 -43.0177 852.672 -64.577 906.721 -105.99C960.742 -147.396 1001.14 -213.466 992.893 -281.033C990.896 -297.504 982.372 -316.837 965.806 -317.94C959.435 -318.36 953.276 -315.828 947.427 -313.275C900.989 -292.933 856.745 -267.918 810.591 -246.997C514.791 -112.934 157.281 -154.048 -126.046 4.60335" fill="url(#paint0_linear_1883_1062)"/>
<path d="M-124.197 224.043C-103.928 194.282 -63.0427 184.934 -27.4657 190.624C8.11131 196.314 40.3866 214.017 73.3531 228.563C169.579 270.942 287.516 285.192 376.041 228.45C440.788 186.964 479.334 114.765 538.665 65.879C591.22 22.6022 657.206 -0.221684 721.83 -21.6342C786.459 -43.0177 852.672 -64.577 906.721 -105.99C960.742 -147.396 1001.14 -213.466 992.893 -281.033C990.896 -297.504 982.372 -316.837 965.806 -317.94C959.435 -318.36 953.276 -315.828 947.427 -313.275C900.989 -292.933 856.745 -267.918 810.591 -246.997C514.791 -112.934 157.281 -154.048 -126.046 4.60335" fill="#00A0E3"/>
<path d="M-211.418 52.2373C-173.03 44.1795 -133 58.1463 -100.015 79.3653C-67.0304 100.584 -39.2395 128.787 -8.70229 153.408C53.5065 203.575 130.7 239.537 210.61 237.149C292.67 234.702 368.401 192.622 433.953 143.231C499.505 93.8395 558.908 35.9128 629.176 -6.49524C707.206 -53.6186 797.474 -80.2691 888.608 -83.0744C787.713 -105.756 683.833 -111.187 580.52 -115.962C437.684 -122.558 293.864 -128.049 152.282 -108.054C19.4469 -89.3117 -109.15 -48.4556 -237 -7.80837" fill="url(#paint1_linear_1883_1062)"/>
<path d="M-211.418 52.2373C-173.03 44.1795 -133 58.1463 -100.015 79.3653C-67.0304 100.584 -39.2395 128.787 -8.70229 153.408C53.5065 203.575 130.7 239.537 210.61 237.149C292.67 234.702 368.401 192.622 433.953 143.231C499.505 93.8395 558.908 35.9128 629.176 -6.49524C707.206 -53.6186 797.474 -80.2691 888.608 -83.0744C787.713 -105.756 683.833 -111.187 580.52 -115.962C437.684 -122.558 293.864 -128.049 152.282 -108.054C19.4469 -89.3117 -109.15 -48.4556 -237 -7.80837" fill="#8ABC36"/>
<defs>
<linearGradient id="paint0_linear_1883_1062" x1="-122.341" y1="9.5115" x2="993.51" y2="-44.9915" gradientUnits="userSpaceOnUse">
<stop stop-color="#8ABC36"/>
<stop offset="1" stop-color="#BFE97A"/>
</linearGradient>
<linearGradient id="paint1_linear_1883_1062" x1="-254" y1="170.5" x2="533.018" y2="-7.92091" gradientUnits="userSpaceOnUse">
<stop stop-color="#00A0E3"/>
<stop offset="1" stop-color="#8ABC36"/>
</linearGradient>
</defs>
</svg>
