<svg width="195" height="70" viewBox="0 0 195 70" fill="none" xmlns="http://www.w3.org/2000/svg">
<path d="M78.7744 40.9083H110.108V31.4906H89.3716V25.2121H107.874V16.446H89.3716V10.4044H109.821V0.986736H78.7744V40.9083ZM134.166 41.7375C142.701 41.7375 147.627 37.8875 151.236 32.7345L143.217 26.8114C140.868 29.7137 138.519 31.6091 134.51 31.6091C129.068 31.6091 125.287 26.9298 125.287 20.9475C125.287 15.0244 129.068 10.286 134.51 10.286C138.176 10.286 140.753 12.0629 142.987 14.906L150.835 8.62751C147.398 3.71135 142.472 0.216736 134.624 0.216736C122.882 0.216736 114.232 9.33828 114.232 20.9475C114.232 32.9714 123.111 41.7375 134.166 41.7375ZM174.149 41.7375C186.063 41.7375 194.999 32.4383 194.999 20.9475C194.999 9.39751 186.178 0.216736 174.263 0.216736C162.349 0.216736 153.413 9.51597 153.413 20.9475C153.413 32.5568 162.234 41.7375 174.149 41.7375ZM174.263 31.7275C168.421 31.7275 164.411 26.7521 164.411 20.9475C164.411 15.0837 168.306 10.1675 174.149 10.1675C180.049 10.1675 184.059 15.2021 184.059 20.9475C184.059 26.8114 180.163 31.7275 174.263 31.7275Z" fill="#8ABC36"/>
<path d="M79.3472 69.3391H84.388V62.7052H92.9231V58.3814H84.388V55.1829H93.8396V50.6814H79.3472V69.3391ZM96.1308 69.3391H101.114V63.7122H103.291L106.957 69.3391H112.743L108.446 62.8237C110.68 61.876 112.17 59.9806 112.17 57.0783C112.17 55.1829 111.597 53.7614 110.566 52.636C109.306 51.3921 107.415 50.6814 104.666 50.6814H96.1308V69.3391ZM101.114 59.6252V55.1237H104.379C106.098 55.1237 107.129 55.8937 107.129 57.3745C107.129 58.796 106.155 59.6252 104.437 59.6252H101.114ZM114.805 69.3391H119.846V50.6814H114.805V69.3391ZM123.111 69.3391H137.775V64.956H128.094V61.9945H136.744V57.9075H128.094V55.0645H137.66V50.6814H123.111V69.3391ZM140.353 69.3391H145.336V59.0922L153.012 69.3391H157.423V50.6814H152.496V60.5137L145.05 50.6814H140.353V69.3391ZM160.63 69.3391H167.504C174.034 69.3391 177.815 65.3706 177.815 59.9806C177.815 54.5314 174.092 50.6814 167.619 50.6814H160.63V69.3391ZM165.671 64.7783V55.1829H167.676C170.712 55.1829 172.66 56.9599 172.66 59.9806C172.66 63.0606 170.712 64.7783 167.676 64.7783H165.671ZM187.266 69.6945C191.62 69.6945 194.541 67.3845 194.541 63.5937C194.541 60.0399 191.964 58.6183 187.839 57.7299C185.319 57.1375 184.689 56.7229 184.689 55.8937C184.689 55.1829 185.262 54.6498 186.522 54.6498C188.068 54.6498 189.901 55.3014 191.563 56.486L194.083 52.8137C192.078 51.2145 189.672 50.326 186.636 50.326C182.283 50.326 179.648 52.8729 179.648 56.3083C179.648 60.2176 182.569 61.3429 186.464 62.2314C188.87 62.8237 189.5 63.2383 189.5 64.0676C189.5 64.8968 188.756 65.3706 187.438 65.3706C185.319 65.3706 183.314 64.6006 181.538 63.1199L178.789 66.5553C180.965 68.6283 184.059 69.6945 187.266 69.6945Z" fill="#8ABC36"/>
<path fill-rule="evenodd" clip-rule="evenodd" d="M9.23472 53.169C9.63569 53.3467 10.2085 53.8206 10.6095 54.1167C10.6095 54.1167 10.6095 54.1167 10.6668 54.1167L13.9891 56.249H14.0464C14.0464 56.3083 14.1037 56.3083 14.1037 56.3083L17.3115 57.9075C17.4833 58.026 17.4833 58.026 17.6552 58.0852C17.7697 58.1444 17.8843 58.1444 18.0561 58.2036L18.5144 58.4406C18.5144 58.4406 18.629 58.4406 18.629 58.4998L20.1183 59.0921H20.1756L23.3261 60.2175C23.3834 60.2175 23.5552 60.2767 23.5552 60.2767L24.8154 60.6913C25.1018 60.7506 24.93 60.7506 25.2164 60.8098C25.3882 60.869 25.5028 60.8098 25.6746 60.869L27.8514 61.4613C28.5387 61.6983 29.7417 61.8167 30.4863 61.9944L32.3766 62.3498C33.1213 62.4683 33.5796 62.4683 34.2669 62.6459C34.1524 63.0606 33.6941 63.5344 33.465 63.8306L32.0329 65.4298C31.9757 65.5483 31.9184 65.5483 31.8038 65.6667L31.1737 66.3183C31.1164 66.3775 31.0591 66.3775 31.0019 66.4367C30.5436 66.7921 30.0854 67.2659 29.5125 67.5621L27.7941 68.3321C26.0183 68.9836 25.8465 68.5098 24.5863 68.7467V68.9244C24.93 68.9836 24.9873 69.1021 25.2164 69.1021C25.5601 69.2206 25.7319 69.1613 26.0756 69.2798C26.763 69.4575 26.9348 69.3983 27.6795 69.4575C28.2523 69.5167 28.596 69.7536 29.2261 69.7536C30.1426 69.8129 32.7203 70.0498 33.465 69.9906C33.7514 69.9313 33.8087 69.8721 34.2097 69.8721C34.897 69.8721 35.2407 69.9906 35.8708 69.8721C36.2145 69.7536 36.2145 69.8129 36.6155 69.8129C37.131 69.8129 36.9592 69.6944 37.3602 69.6944C37.7039 69.6352 37.7611 69.6944 38.1048 69.6352L40.3388 69.2798C40.4534 69.2206 40.4534 69.2798 40.6252 69.2206L40.7398 69.1613C40.7971 69.1613 40.7971 69.1613 40.7971 69.1613L41.7136 68.9836C41.7136 68.9836 41.7709 68.9836 41.7709 68.9244H41.8282L42.3437 68.8059C42.6301 68.7467 42.7447 68.6875 43.0311 68.6283C43.2602 68.5098 43.0884 68.569 43.3175 68.5098L48.0146 66.7329L49.6185 65.7852C49.7331 65.7259 49.7903 65.7259 49.9049 65.6075L50.0195 65.5483L51.7952 64.1859H51.8525C52.3108 63.7713 52.7117 63.4752 53.1127 63.0606C53.17 63.0606 53.17 63.0013 53.17 63.0013L53.2273 62.9421L54.2011 61.8759C54.9457 60.9875 55.6904 60.0398 56.0914 58.9736C56.2059 58.6775 56.2059 58.559 56.3205 58.3221C56.8933 57.1375 57.0079 56.0121 57.1224 54.5906V53.0506C57.1224 52.7544 57.1224 52.5767 57.0652 52.3398C57.0079 52.0436 56.9506 51.8067 56.9506 51.5698C56.836 50.9183 56.7215 50.7406 56.5496 50.1483C56.4351 49.7929 56.3778 49.1413 55.9195 48.9636C55.4613 49.2598 53.6282 52.1029 52.9981 52.7544L49.3321 56.9598C49.103 57.256 49.103 57.3152 48.8166 57.5521L42.2864 62.9421C42.2864 62.9421 42.1718 63.0013 42.1146 63.0606L40.7398 63.8898L40.568 63.949L38.1048 65.3113C37.7039 65.4298 37.532 65.6667 37.131 65.6667C37.1883 65.6075 37.0737 65.6667 37.2456 65.5483C37.3029 65.489 37.3602 65.489 37.4174 65.4298L38.1048 65.0744C38.1048 65.0744 38.1048 65.0744 38.1621 65.0744L42.1146 62.409C42.3437 62.2313 42.4583 62.0536 42.7447 61.8759C42.9165 61.7575 42.9165 61.7575 43.0884 61.639L45.2651 59.7436H45.3224L45.7233 59.329C45.7806 59.329 45.7806 59.2698 45.7806 59.2698C45.7806 59.2698 45.8379 59.2698 45.8379 59.2106H45.8952C45.8952 59.1513 45.8952 59.1513 45.9525 59.1513L47.7855 57.3152C47.7855 57.256 47.8428 57.256 47.8428 57.256L48.8166 56.0713C50.1913 54.709 51.5661 53.1098 52.7117 51.5106C52.8263 51.3329 52.769 51.3329 52.9409 51.2144L53.8574 49.9113C54.2583 49.4375 54.5448 48.8452 54.9457 48.3121C55.3467 47.8975 56.0341 46.9498 56.0914 46.2983C54.7166 46.2983 54.3156 46.8313 52.9981 46.2983C51.8525 45.8244 50.5923 45.8836 49.3321 45.8244L48.702 45.9429C48.2437 46.0613 47.8428 46.1206 47.4418 46.3575C47.2127 46.476 47.2127 46.476 46.9835 46.5352L46.7544 46.6536L46.6971 46.7129L45.3796 47.5421C45.3796 47.5421 45.2078 47.7198 45.1505 47.7198L44.6923 48.0752C44.6923 48.1344 44.6923 48.1344 44.635 48.1344L42.3437 50.5036C41.7136 51.3329 40.2243 53.3467 39.8233 54.176C39.6514 54.4721 39.5369 54.709 39.365 54.946C38.4485 56.1306 37.7039 57.4336 36.9019 58.7367C36.7301 59.0329 36.6728 59.2698 36.4436 59.5659L35.699 60.6321C35.2407 61.2836 34.8398 62.0536 34.3242 62.5867C34.3815 62.2313 34.2669 62.1129 34.1524 61.9352L33.465 60.8098C33.465 60.8098 33.465 60.7506 33.4077 60.7506L33.3504 60.6321C33.1213 60.2767 33.1213 60.0398 33.064 59.5067C33.0067 58.559 32.6058 57.0783 32.0902 56.249C31.9757 56.0121 31.8611 55.8344 31.6892 55.6567C31.2883 55.1829 31.4601 55.1829 30.8873 54.709L29.6271 53.5836C29.5125 53.5836 29.5698 53.5836 29.4552 53.5244L28.7106 53.1098C28.2523 52.8729 27.7368 52.4583 27.2213 52.3398L23.7843 51.3329C22.6387 51.0367 20.9775 50.7406 19.8892 50.6813C19.4309 50.6813 19.3736 50.6221 19.0299 50.5629C18.9154 50.5629 18.8581 50.5629 18.629 50.5036L15.7649 50.2075C14.6192 50.0298 13.4736 49.7336 12.2707 49.6744C12.3852 49.319 12.5571 49.2598 12.6716 48.9636C12.7862 48.6083 12.8435 48.4306 13.0153 48.0752C13.1872 47.6606 13.1872 47.5421 13.5309 47.3052L14.3328 46.6536C14.6765 46.2983 15.0202 46.0021 15.3639 45.6467C15.5357 45.3506 15.6503 45.2321 15.8221 44.936L16.4522 43.6921C17.2542 41.9744 17.1969 39.8421 16.9105 38.0652C16.8532 37.7098 16.8532 37.4137 16.7387 36.999L12.6716 26.5152C12.2707 25.5083 11.2969 23.5537 11.125 22.6652L9.75025 18.2229C9.75025 18.1637 9.75025 18.1637 9.75025 18.1637L9.69297 17.9267C9.63569 17.6898 9.63569 17.8083 9.63569 17.5714V17.4529C9.63569 17.2752 9.63569 17.4529 9.57841 17.2752C9.34928 15.9129 9.292 14.4321 9.69297 13.1291C9.9221 12.2998 10.6095 10.8783 11.0677 10.2267C10.4376 10.2267 10.3804 10.5821 10.0367 10.9375C9.86482 11.1744 9.75025 11.2337 9.57841 11.4114L6.02693 16.0906L3.73565 20.059C3.67836 20.1775 3.62108 20.1775 3.62108 20.2367C3.39195 20.5921 3.44924 20.4737 3.27739 20.8883L1.90262 24.2052C1.84534 24.4421 1.78806 24.679 1.6735 24.916C0.126883 28.8844 -0.388655 33.8598 0.298729 38.0652C0.470575 39.0721 0.699703 39.9606 1.10068 40.9083L2.70457 43.8106C3.39195 44.8175 4.36575 45.706 5.33954 46.3575L5.51139 46.476C5.62595 46.5352 5.74052 46.5944 5.85508 46.6536L8.43277 47.8383C8.6619 47.8975 8.60461 47.8383 8.83374 47.9567C9.17743 48.0752 8.71918 47.9567 9.17743 48.0752C9.57841 48.1344 9.9221 48.1936 10.2658 48.0752C10.1512 47.5421 9.9221 47.1275 9.75025 46.6536L8.54733 42.9813C8.43277 42.6852 8.43277 42.5075 8.3182 42.2113L8.03179 41.1452C7.97451 41.0267 7.91723 40.849 7.91723 40.6713L6.48518 33.6821C6.14149 31.1352 6.19877 27.6998 6.4279 25.3306C6.48518 24.916 6.54246 24.916 6.54246 24.4421C6.71431 22.8429 6.82887 23.0206 6.88616 21.5398H7.00072C6.88616 23.4352 6.65703 25.0937 6.77159 26.6929C6.77159 26.989 6.82887 27.5221 6.82887 27.6998C6.77159 28.0552 6.77159 28.0552 6.82887 28.529C7.00072 30.1875 7.00072 31.609 7.34441 33.2675C7.40169 33.5637 7.45897 33.8598 7.45897 34.0967C7.63082 35.6367 8.03179 36.999 8.37549 38.4798C8.6619 39.9013 9.00559 41.2637 9.52112 42.5667C9.57841 42.8036 9.69297 43.159 9.75025 43.396C9.97938 44.2844 10.3231 45.0544 10.6095 45.8836C10.6668 45.9429 10.6668 45.9429 10.6668 45.9429L10.724 46.1206C11.0677 47.1867 11.8124 48.549 11.9842 49.6744C11.4114 49.6152 11.5833 49.556 11.1823 49.4375C10.724 49.3783 10.6095 49.3783 10.2085 49.2598C9.9221 49.2006 9.63569 49.2006 9.292 49.0821L5.85508 47.8383C5.74052 47.779 5.74052 47.779 5.62595 47.7198L3.5638 46.3575C3.04826 45.8244 2.53273 45.4098 2.18903 44.7583C2.07447 44.6398 2.01719 44.5213 1.95991 44.4029L1.50165 43.5144C1.38709 43.159 1.44437 43.0998 1.15796 42.9813C0.871549 43.5737 1.44437 44.5213 1.61621 45.1137C1.95991 46.7721 2.64729 48.4306 3.27739 50.0298L3.73565 50.9775C3.79293 51.1552 3.79293 51.096 3.90749 51.3329C4.30847 52.2213 4.25118 52.3398 4.824 53.3467C5.1677 53.8798 5.39682 54.4721 5.7978 55.0644L6.54246 56.249C6.77159 56.6044 7.85995 58.3221 8.26092 58.7367L13.4163 64.0083C13.8173 64.4229 15.6503 65.5483 16.1658 65.8444L17.9416 66.7329C18.1134 66.8513 18.0561 66.7921 18.2853 66.8513L19.3736 67.2659C20.2901 67.5621 20.8057 67.7398 21.8367 67.799L23.4406 67.9175C24.529 67.9767 24.3572 67.9175 25.2164 67.799L26.7057 67.5029C26.763 67.5029 26.763 67.4436 26.763 67.4436L28.0232 66.9698C28.2523 66.8513 28.4242 66.7921 28.596 66.6736L28.7106 66.6144C29.4552 66.1406 30.1999 65.7259 30.83 65.1336L31.2883 64.6598C31.4028 64.6006 31.4601 64.5413 31.5174 64.4229C31.8038 64.1859 32.0902 63.949 32.2048 63.5936C31.231 63.0013 29.3407 63.0606 28.4242 62.7052C28.195 62.5867 28.2523 62.6459 27.9659 62.5867C27.6222 62.5275 27.5649 62.409 27.1067 62.3498C26.2475 62.2313 25.5601 61.8167 24.7008 61.639C23.8989 61.4613 23.097 61.2244 22.3523 60.869L20.9775 60.3952H20.9202L20.5193 60.2175H20.462L19.3163 59.7436C18.1134 59.1513 16.8532 58.6775 15.7076 57.9667L14.3901 57.1967C14.3901 57.1967 14.3901 57.1375 14.3328 57.1375C14.3328 57.1375 14.3328 57.1375 14.2755 57.1375C14.2755 57.0783 14.2755 57.0783 14.2182 57.0783L14.161 57.019C14.1037 56.9598 14.1037 56.9598 14.1037 56.9598C14.0464 56.9598 14.0464 56.9006 14.0464 56.9006L11.2396 54.8867C10.724 54.5313 9.52112 53.6429 9.23472 53.169Z" fill="#8ABC36"/>
<path fill-rule="evenodd" clip-rule="evenodd" d="M11.1254 22.6652C11.6982 22.6652 12.0992 22.5468 12.6147 22.5468C13.3021 22.4875 13.4739 22.4875 14.0467 22.7245L15.3069 23.1983C15.937 23.376 17.0254 23.4352 17.7701 23.4352C18.2856 23.4352 18.4002 23.3168 18.8011 23.2575C19.1448 23.1983 18.8011 23.2575 19.1448 23.1391C19.2594 23.1391 19.374 23.0798 19.4885 23.0798L19.6031 23.0206C19.6604 23.0206 19.6604 23.0206 19.7176 23.0206C20.9206 22.606 21.8371 21.9545 22.8109 21.1845L27.508 15.7352C27.909 15.2021 28.2527 14.7875 28.5963 14.2545L29.1692 13.4252C29.2837 13.3068 29.2264 13.366 29.2837 13.2475L36.1003 4.30368C36.1003 4.30368 36.1576 4.30368 36.1576 4.24445L36.6158 3.82984C37.3605 3.23753 38.277 2.52676 39.1362 2.23061C39.3654 2.17137 39.5372 2.05291 39.709 1.99368C40.11 1.75676 39.9382 1.87522 40.3964 1.75676C41.4848 1.51984 41.4275 1.51984 42.6877 1.57907C43.146 1.57907 43.146 1.6383 43.2032 1.22368C42.8023 1.16445 42.2295 0.986759 41.8285 0.927528C41.5421 0.809067 41.3702 0.809067 41.0838 0.809067C40.3391 0.631374 39.4226 0.453682 38.678 0.394451C38.1052 0.33522 37.7615 0.216759 37.0741 0.216759C34.7828 0.0982973 32.9498 -0.079395 30.6012 0.0390665L27.6798 0.394451C26.6488 0.572144 25.675 0.631374 24.7012 0.986759C24.7012 0.986759 24.7012 0.986759 24.6439 0.986759L20.5196 2.4083C20.2332 2.52676 20.1186 2.58599 19.8895 2.70445L18.8011 3.23753C18.6293 3.35599 18.4574 3.41522 18.2856 3.53368L16.8536 4.36291C16.7963 4.36291 16.7963 4.42214 16.7963 4.42214C16.739 4.42214 16.739 4.42214 16.739 4.42214C15.7652 5.07368 16.1662 4.89599 15.5933 5.31061L14.505 6.19907C13.9895 6.67291 12.5001 8.39061 12.0992 9.16061V9.21984L11.0681 11.2929C10.438 13.1883 10.037 15.676 10.5525 17.5714L10.9535 19.3483C11.0108 19.5852 11.1254 19.7629 11.1826 19.9998C11.5836 19.9998 11.6409 19.8221 11.8127 19.526C11.9273 19.4075 11.87 19.4668 11.9273 19.3483C12.0419 19.2298 11.9846 19.2891 12.0419 19.1706C12.0992 19.1706 12.0992 19.1706 12.0992 19.1706C12.0992 19.1114 12.1564 19.0521 12.2137 19.0521C12.2137 18.9929 12.271 18.9337 12.3283 18.9337C12.4428 18.756 12.4428 18.756 12.5574 18.5783L19.2021 11.4114C19.8322 10.8191 20.5196 10.2268 21.1497 9.69368C21.2643 9.63445 21.207 9.69368 21.3215 9.57522L29.1692 4.7183C29.5701 4.54061 30.5439 4.00753 31.0022 4.00753C30.7731 4.24445 30.2575 4.42214 29.9138 4.59984L28.7682 5.25137C28.7682 5.25137 28.5963 5.31061 28.5963 5.36984L28.4245 5.42907C28.4245 5.4883 28.3672 5.4883 28.3672 5.4883C28.3672 5.4883 28.3099 5.4883 28.3099 5.54753L25.1594 7.56138C24.9876 7.73907 24.9876 7.67984 24.8157 7.7983L21.207 10.8191C21.1497 10.8783 21.0924 10.8783 21.0351 10.9375L18.9157 12.9514C18.8584 13.0106 18.8011 13.0698 18.8011 13.0698L11.4118 21.9545C11.2399 22.1914 11.1826 22.3098 11.1254 22.6652Z" fill="#8ABC36"/>
<path fill-rule="evenodd" clip-rule="evenodd" d="M58.0392 17.0383C57.5237 16.979 56.8363 16.2683 56.378 16.0314C56.1489 15.8537 56.1489 15.9129 55.9771 15.7944C55.9771 15.7352 55.9198 15.7352 55.9198 15.7352L55.6334 15.5575C55.5761 15.5575 55.5761 15.5575 55.5761 15.4983L52.0246 13.6621C51.6809 13.4844 51.3945 13.4252 51.0508 13.2475C50.9935 13.2475 50.879 13.1883 50.8217 13.1883L44.0051 10.8783C43.4896 10.7006 42.9168 10.6414 42.344 10.4637L41.1983 10.2268C40.9692 10.1675 41.0265 10.1083 40.7401 10.0491L37.1886 9.45675C36.6731 9.45675 36.4439 9.39752 36.043 9.27906C35.241 9.10137 34.3245 9.21983 33.4653 9.04214C32.4342 8.92368 31.8614 8.62752 32.6633 9.81214C32.8925 10.1083 33.007 10.3452 33.1789 10.5821C33.6944 11.2929 33.8663 13.0698 34.4964 14.4914C35.0119 15.4391 34.7828 14.906 35.2983 15.676L36.2721 16.6829C36.4439 16.8606 36.4439 16.9198 36.5585 17.0383L36.9595 17.3344C37.475 17.749 38.1051 18.0452 38.7352 18.2821L39.0216 18.4598C39.0789 18.4598 39.0789 18.4598 39.0789 18.4598C41.3702 19.4667 44.177 19.8221 46.5828 19.9406C48.0722 20.059 55.1178 20.4737 56.5499 20.829L60.3878 21.599C60.6742 21.7175 60.5023 21.6583 60.6742 21.7175L61.1324 21.8952C61.1897 21.8952 61.1897 21.9544 61.247 21.9544L62.2781 22.369C63.7674 23.2575 65.2567 24.3237 66.0587 25.9821C66.1732 26.2783 66.1732 26.5152 66.5742 26.5744C66.5742 25.8044 65.2567 22.5467 64.913 21.7767L64.0538 19.7629C63.7674 19.3483 63.5956 18.9929 63.3664 18.519C63.3092 18.4598 63.2519 18.3414 63.1946 18.2229C63.1946 18.2229 63.1946 18.1637 63.1373 18.1637L63.0227 17.9267C62.9082 17.749 62.8509 17.5714 62.7363 17.3344L61.9917 16.0314C61.9344 16.0314 61.9344 16.0314 61.9344 15.9721L60.1586 13.3067H60.1014L58.6693 11.4114C58.612 11.4114 58.612 11.3521 58.5548 11.2929C58.5548 11.2929 58.5548 11.2929 58.4975 11.2337C58.4402 11.1744 58.4402 11.1744 58.4402 11.1744L56.779 9.45675C56.779 9.45675 56.7217 9.39752 56.7217 9.33829L55.8052 8.50906L55.7479 8.44983L54.8887 7.73906L54.8314 7.67983L48.244 3.82984L47.2129 3.47446C45.6663 3.00061 44.2343 3.05984 42.6877 3.00061L39.5944 3.71138C38.7352 4.06676 37.9906 4.36292 37.2459 4.95522L34.6682 7.38368C34.4964 7.56137 34.4391 7.6206 34.3818 7.91676C34.9546 7.91676 35.2983 8.15368 36.1002 8.15368C36.7876 8.21291 37.1313 8.3906 37.876 8.44983C38.3342 8.50906 38.277 8.56829 38.6779 8.62752C39.0216 8.74599 39.2508 8.74599 39.5944 8.74599C40.0527 8.80522 40.11 8.92368 40.9119 9.04214C41.3129 9.10137 41.1411 9.10137 41.3129 9.1606L42.4585 9.45675C42.6877 9.51598 42.7449 9.51598 42.9168 9.51598L51.9101 12.8921L53.5139 13.7806C53.5712 13.8398 53.6285 13.8991 53.6285 13.8991C53.6858 13.8991 53.6858 13.8991 53.6858 13.8991C53.7431 13.9583 53.7431 13.9583 53.7431 13.9583C53.8004 13.9583 53.8004 13.9583 53.8004 14.0175C53.8576 14.0175 53.9149 14.0767 53.9149 14.0767L56.8936 16.0906C57.0654 16.2683 57.2373 16.3867 57.4664 16.5644C57.7528 16.7421 57.9247 16.7421 58.0392 17.0383Z" fill="#8ABC36"/>
<path fill-rule="evenodd" clip-rule="evenodd" d="M57.0655 60.0991C57.4664 60.0991 57.581 59.8622 57.8101 59.6253L59.2422 57.9076C59.4713 57.6114 59.414 57.9076 59.414 57.3745C59.8723 57.3745 59.7577 57.1968 60.216 56.6045L64.7412 48.6083C64.8558 48.3122 64.9131 48.3122 65.0277 48.016L65.9442 45.5876C66.2306 44.936 66.3451 44.2845 66.517 43.6329C66.6315 42.9814 66.9752 42.093 67.0325 41.5599C67.1471 40.5529 67.2616 39.3683 67.4908 38.4206C67.5481 37.8283 67.4908 35.9329 67.4908 35.3406C67.4908 34.7483 67.4908 34.3929 67.4335 33.8599C67.3762 33.3268 67.2616 32.9122 67.2044 32.4383C67.1471 32.0829 67.2044 32.2014 67.0898 31.846C66.9752 31.5499 67.0325 31.4906 66.918 31.1945L65.6578 27.9368C65.6578 27.9368 65.6578 27.9368 65.6578 27.8776L65.3141 27.2853C64.7412 26.3968 64.1111 25.5083 63.3092 24.8568L62.6791 24.3237C62.6791 24.3237 62.6791 24.3237 62.6218 24.3237L61.8199 23.7314C61.648 23.6722 61.648 23.6129 61.4762 23.5537L58.4975 22.3099C57.6956 22.1322 58.3829 22.1322 56.9509 22.0729C56.8936 22.6652 56.8936 22.3691 57.0082 22.606L57.0655 22.6652L57.8101 24.5606C57.9247 24.916 58.0965 25.3899 58.2111 25.7453L59.4713 29.8322C59.5859 30.1283 59.5859 30.1876 59.7004 30.4245L60.3305 32.9122C60.3878 33.1491 60.4451 33.2083 60.5024 33.4453C60.5024 33.5637 60.5024 33.6822 60.5597 33.8006L60.7315 34.7483C61.1898 37.0583 61.5334 40.316 61.4189 42.6853L61.247 45.943C61.1898 47.0683 60.9606 47.7791 60.9033 48.9637L60.9606 45.6468C61.0179 44.2845 60.7315 40.316 60.5024 38.8945C60.5024 38.5983 60.4451 38.1837 60.3878 37.9468C60.3305 37.5322 60.2732 37.4137 60.216 36.9991C59.9296 35.1037 59.4713 33.2676 58.9558 31.3722L58.5548 30.1283C58.2111 29.1214 57.8674 27.6999 57.5237 26.8706C56.8936 25.3899 56.4354 23.6129 55.6907 22.1914L55.1751 21.066C54.946 20.7106 55.1179 21.066 55.0033 20.7106H54.7169C54.6596 21.1845 53.9722 22.7245 53.6285 23.0799L52.5402 24.0276C52.4829 24.0868 52.3683 24.2052 52.311 24.2645C52.311 24.2645 52.311 24.2645 52.2538 24.3237C52.1965 24.3829 52.1392 24.4422 52.0819 24.5014C51.4518 25.2714 51.0508 26.0414 50.7072 27.0483C50.1916 28.4699 50.3635 28.8845 50.2489 30.0691C50.1916 31.846 50.7644 34.0376 51.3945 35.5776L51.9674 37.0583C52.2538 37.5322 52.4256 38.4799 52.8266 39.1906L55.8052 45.4691C55.9198 45.6468 56.0344 45.8837 56.0917 46.0614L57.7528 50.3853C57.982 51.2145 58.2684 52.0437 58.3829 52.9322C58.4402 53.2283 58.4402 53.406 58.4402 53.7614C58.4975 54.1168 58.5548 54.0576 58.6121 54.3537C58.6693 54.8276 58.4975 56.0122 58.4402 56.4268C58.3829 56.9007 58.2111 57.9076 57.9247 58.4407C57.9247 58.4999 57.9247 58.4999 57.9247 58.4999C57.8674 58.4999 57.8674 58.5591 57.8674 58.5591C57.8674 58.5591 57.8674 58.6183 57.8101 58.6183V58.7368C57.7528 58.7368 57.7528 58.796 57.7528 58.796C57.7528 58.796 57.6956 58.8553 57.6956 58.9145L57.3519 59.4476C57.2373 59.6845 57.1227 59.7437 57.0655 60.0991Z" fill="#8ABC36"/>
<path d="M26.076 29.4767C27.7945 30.1874 30.6013 30.1282 32.0906 29.7728C32.2052 29.7728 32.3197 29.7136 32.4916 29.7136C31.7469 29.299 31.2314 28.7067 31.2314 27.522C31.1741 26.3967 31.346 25.7451 32.6062 25.5082C33.9236 25.3305 34.3819 26.6336 34.4392 27.6405C34.4392 28.7067 34.2101 28.9436 33.8091 29.4174C33.8664 29.4174 33.9236 29.4174 33.9809 29.4767C35.6421 29.1805 39.1936 28.7659 40.912 29.4767C40.5111 29.0028 40.2819 28.8251 40.2247 27.8182C40.2247 26.752 40.5111 25.5674 41.7713 25.5674C43.0888 25.5082 43.547 26.5151 43.547 27.5813C43.547 28.6474 43.2606 29.062 42.7451 29.5359C43.7761 29.3582 48.015 31.0759 47.7859 27.4036C46.9266 25.6859 47.9577 25.8636 48.3014 26.4559C48.9888 27.4628 48.6451 28.8251 48.6451 28.8251C47.7286 32.0828 45.781 32.0828 44.2344 32.379L44.0053 35.8144C44.0053 35.8736 44.0053 35.9328 44.0053 35.9921C44.5208 37.4136 44.7499 38.4798 44.9791 39.3682C44.9791 39.3682 45.5519 40.1975 46.6402 41.0859C47.0985 41.7375 47.4422 42.2113 47.614 42.6259C48.3587 44.1067 47.9004 45.1729 47.5567 44.9952C47.3276 44.8175 46.9266 43.8105 46.6975 43.6328C44.8072 42.0928 42.2295 40.079 42.2295 40.079C42.0577 39.4275 41.8858 38.7167 41.5994 37.8282C41.4276 38.3613 41.1412 38.8351 40.912 39.2498C40.6256 39.8421 40.3392 40.6121 40.1674 41.5005L39.9955 43.8698C39.9955 43.8698 39.9955 44.9952 39.8237 45.7652C39.6518 46.4759 38.4489 47.1275 38.2198 47.009C38.0479 46.9498 38.5635 45.7652 38.5635 45.7652C37.8761 42.0928 37.5324 39.7236 38.3916 37.9467C39.0217 36.7028 39.7091 35.3405 39.6518 32.5567C38.9072 31.6682 37.0169 31.9051 35.413 32.1421L35.3557 37.0582C35.3557 37.1174 35.2984 37.1767 35.2984 37.1767C35.6994 40.0198 35.1838 41.2636 35.9285 42.8036C36.3868 43.6921 36.845 45.5282 36.845 46.6536C36.9023 47.2459 36.6732 48.2529 36.3295 48.0159C36.1004 47.8382 36.2722 47.3052 36.1004 47.1275C35.9858 46.9498 35.8139 46.7129 35.6421 46.4167C35.2411 45.5875 33.6372 43.8698 33.3508 42.8036C33.0644 41.619 32.8926 40.3159 32.7207 39.0128C32.4343 39.4867 32.2052 39.9013 32.0333 40.1975C31.8042 40.6121 31.6324 40.9082 31.6324 40.9675C31.5751 41.2044 32.0906 42.3298 32.2625 42.6852C32.6062 43.4552 33.5227 45.469 32.8926 46.239C32.7207 46.5944 32.2625 47.1275 32.0906 47.009C31.9188 46.8905 31.9761 45.8836 31.8042 45.6467C31.1741 44.9952 30.6013 43.8698 30.2576 43.5144C29.4557 41.5598 28.5964 41.4413 28.8256 40.3751C28.9401 39.7828 29.2265 39.3682 29.5702 38.7167C29.9712 38.0651 30.4867 37.1174 31.1741 35.5774L30.3722 33.0305C29.6275 33.149 28.9974 33.2082 28.31 33.149C28.1382 33.149 28.0236 33.0897 27.8518 33.0897C27.4508 33.0305 27.0498 32.9121 26.6488 32.7344C27.1644 35.9921 27.5081 38.9536 27.5081 38.9536C27.5653 40.2567 27.2789 40.7305 26.5916 41.5598C25.5605 42.8036 24.644 44.1659 23.7847 44.8175C23.5556 44.9952 23.3265 46.0613 23.1546 46.0613C22.9255 46.1205 22.5245 45.1136 22.4673 44.5805C22.4673 43.7513 24.644 40.4936 24.9877 39.1905L24.8158 38.0059C24.1284 39.0721 23.5556 39.4867 23.3265 39.6644H23.2692C22.9255 39.9605 22.4673 40.0198 22.009 39.9013L19.0303 37.4728C18.2857 37.2359 17.7129 37.769 17.942 36.999C18.1711 36.229 18.9731 35.8144 19.7177 36.0513L22.1236 36.8213C22.3527 36.5844 22.6391 36.1698 22.9255 35.5182L22.5818 31.3721C20.5769 29.8913 20.5197 29.299 20.4051 28.5882C20.4051 27.522 20.4624 26.752 20.5769 26.219C20.6342 25.6267 20.6915 25.1528 20.8061 25.0936C21.0352 24.9751 21.3216 25.2713 21.4935 26.0413C21.608 26.3967 21.4935 27.0482 21.5507 27.522C21.4362 28.7659 23.4983 29.7728 24.4721 29.1213C24.1284 28.7067 23.8993 28.529 23.8993 27.522C23.842 26.5743 24.1857 25.5674 25.3314 25.3897C26.477 25.2713 27.2217 26.1005 27.2217 27.2851C27.2789 28.4105 26.7634 29.0028 26.076 29.4767ZM23.3265 39.6644L23.3838 39.6051C23.3265 39.6051 23.3265 39.6644 23.2692 39.6644H23.3265Z" fill="#8ABC36"/>
</svg>
