<svg width="985" height="335" viewBox="0 0 985 335" fill="none" xmlns="http://www.w3.org/2000/svg">
<path d="M-217.418 206.321C-191.06 181.789 -149.12 181.73 -115.687 195.159C-82.2542 208.589 -54.7021 233.001 -25.7768 254.489C58.6706 317.131 170.521 357.151 269.416 321.428C341.744 295.315 395.326 233.449 464.013 198.92C524.848 168.36 594.251 160.72 662.012 154.154C729.773 147.618 799.116 141.262 860.996 112.85C922.847 84.4391 976.876 28.9595 983.802 -38.756C985.503 -55.2596 981.473 -76.001 965.563 -80.7462C959.444 -82.5667 952.876 -81.4624 946.608 -80.2687C896.817 -70.7187 848.131 -56.1251 798.489 -45.9483C480.341 19.2603 140.82 -100.025 -170.612 -8.07661" fill="url(#paint0_linear_1434_2297)"/>
<path d="M-217.418 206.321C-191.06 181.789 -149.12 181.73 -115.687 195.159C-82.2542 208.589 -54.7021 233.001 -25.7768 254.489C58.6706 317.131 170.521 357.151 269.416 321.428C341.744 295.315 395.326 233.449 464.013 198.92C524.848 168.36 594.251 160.72 662.012 154.154C729.773 147.618 799.116 141.262 860.996 112.85C922.847 84.4391 976.876 28.9595 983.802 -38.756C985.503 -55.2596 981.473 -76.001 965.563 -80.7462C959.444 -82.5667 952.876 -81.4624 946.608 -80.2687C896.817 -70.7187 848.131 -56.1251 798.489 -45.9483C480.341 19.2603 140.82 -100.025 -170.612 -8.07661" fill="#00A0E3"/>
<path d="M-211.418 52.2377C-173.03 44.1798 -133 58.1467 -100.015 79.3656C-67.0304 100.585 -39.2395 128.787 -8.70228 153.408C53.5065 203.575 130.7 239.537 210.61 237.15C292.67 234.703 368.401 192.623 433.953 143.231C499.505 93.8399 558.908 35.9131 629.176 -6.49487C707.206 -53.6182 797.474 -80.2687 888.608 -83.074C787.713 -105.755 683.833 -111.187 580.52 -115.962C437.684 -122.557 293.864 -128.049 152.282 -108.053C19.4469 -89.3114 -109.15 -48.4552 -237 -7.80801" fill="url(#paint1_linear_1434_2297)"/>
<path d="M-211.418 52.2377C-173.03 44.1798 -133 58.1467 -100.015 79.3656C-67.0304 100.585 -39.2395 128.787 -8.70228 153.408C53.5065 203.575 130.7 239.537 210.61 237.15C292.67 234.703 368.401 192.623 433.953 143.231C499.505 93.8399 558.908 35.9131 629.176 -6.49487C707.206 -53.6182 797.474 -80.2687 888.608 -83.074C787.713 -105.755 683.833 -111.187 580.52 -115.962C437.684 -122.557 293.864 -128.049 152.282 -108.053C19.4469 -89.3114 -109.15 -48.4552 -237 -7.80801" fill="#8ABC36"/>
<defs>
<linearGradient id="paint0_linear_1434_2297" x1="-168.086" y1="-2.46956" x2="932.117" y2="191.558" gradientUnits="userSpaceOnUse">
<stop stop-color="#8ABC36"/>
<stop offset="1" stop-color="#BFE97A"/>
</linearGradient>
<linearGradient id="paint1_linear_1434_2297" x1="-254" y1="170.5" x2="533.018" y2="-7.92054" gradientUnits="userSpaceOnUse">
<stop stop-color="#00A0E3"/>
<stop offset="1" stop-color="#8ABC36"/>
</linearGradient>
</defs>
</svg>
