<svg width="1068" height="793" fill="none" xmlns="http://www.w3.org/2000/svg"><path d="M803.971 401.937l-19.194 1.635a20.474 20.474 0 00-6.508 1.664l-18.612 8.149a41.985 41.985 0 00-24.705 32.596l-15.621 111.343c-3.517 25.029 15.898 47.37 41.157 47.37h86.966c25.259 0 44.674-22.341 41.157-47.37L872.99 445.981a41.985 41.985 0 00-24.705-32.596l-18.612-8.149a20.473 20.473 0 00-6.509-1.664l-19.193-1.635z" fill="#42737E"/><path opacity=".5" d="M870.497 587.232c-19.442 11.226-44.397 18.016-65.806 8.371-10.081-4.546-18.612-12.141-24.622-21.399-2.797-4.324-4.515-10.034-8.807-13.138-3.906-2.827-9.085-3.049-13.544-4.546-9.334-3.132-14.651-10.81-17.587-19.874-1.773-5.46-2.88-11.142-4.016-16.741a336.749 336.749 0 01-3.628-21.676c-.914-6.874-1.551-13.776-1.994-20.677l-11.19 79.8c-3.517 25.029 15.898 47.37 41.157 47.37h86.966c19.249 0 35.092-13.028 39.966-30.296-4.93 5.1-10.885 9.341-16.895 12.806z" fill="#42737E"/><path d="M828.732 465.91c-.998-2.273-6.149-13.693-10.636-13.693h-15.731c-.416 0-.859.056-1.302.139 2.16.36 4.487 1.774 7.616 7.179l7.672 13.443-4.265 2.439 14.014 1.802 5.927-13.194-3.295 1.885z" fill="#fff"/><path d="M798.903 453.104c-6.121 2.911-11.744 12.113-11.744 12.113l12.353 8.426 7.783-11.974c-2.742-4.961-5.817-7.428-8.392-8.565zm-16.978 24.947c-1.468 1.995-8.752 12.168-6.537 16.048 4.099 7.096 5.207 9.009 7.866 13.638.222.36.471.72.748 1.053-.748-2.051-.693-4.795 2.409-10.173l7.783-13.36 4.238 2.495-5.457-13.055-14.374 1.469 3.324 1.885z" fill="#fff"/><path d="M785.774 510.287c5.595 3.825 16.369 4.13 16.369 4.13l.055-14.94-13.211-.749c-2.936 4.879-3.545 8.759-3.213 11.559zm30.3 3.908c2.465.277 14.181 1.497 16.424-2.384 4.099-7.096 5.207-9.008 7.866-13.637.222-.36.388-.776.526-1.192-1.385 1.691-3.794 2.994-9.998 2.994l-14.735-.056.028-4.934-8.558 11.254 8.447 11.725v-3.77z" fill="#fff"/><path d="M841.333 494.737c.527-6.763-5.04-16.631-5.04-16.631l-13.045 6.874 6.481 12.75c5.677.111 9.333-1.33 11.604-2.993z" fill="#fff"/><path d="M803.971 395.285l-15.981-4.463a12.317 12.317 0 01-8.531-8.426l-2.187-7.429c-.748-2.55 1.163-5.1 3.794-5.1h45.837c2.659 0 4.542 2.55 3.795 5.1l-2.188 7.429c-1.219 4.102-4.432 7.29-8.531 8.426l-16.008 4.463z" fill="#42737E"/><path opacity=".5" d="M877.228 476.055c-4.321.277-8.697.333-12.99-.194-4.93-.61-9.777-2.134-13.765-5.183-4.57-3.493-7.506-8.593-9.444-13.915-1.081-2.993-1.69-6.125-2.576-9.174a185.67 185.67 0 00-2.05-6.32c-1.855-5.377-3.794-10.727-5.594-16.132-2.299-6.902-4.57-14.053-5.983-21.343a35.023 35.023 0 00-1.662-.222l-19.193-1.635-19.194 1.635a20.474 20.474 0 00-6.508 1.664l-18.612 8.149a41.985 41.985 0 00-24.705 32.596l-15.621 111.343c-3.517 25.029 15.898 47.37 41.157 47.37h86.966c25.259 0 44.674-22.341 41.157-47.37l-11.383-81.269z" fill="#42737E"/><path opacity=".5" d="M888.611 557.352L877.2 476.055c-4.321.277-8.697.333-12.99-.194-4.93-.61-9.776-2.134-13.765-5.183-4.57-3.493-7.505-8.593-9.444-13.915-1.08-2.993-1.69-6.125-2.576-9.174a185.645 185.645 0 00-2.049-6.32c-1.856-5.377-3.795-10.727-5.595-16.132-2.299-6.902-4.57-14.053-5.982-21.343a35.023 35.023 0 00-1.662-.222l-19.194-1.635-19.193 1.635a20.473 20.473 0 00-6.509 1.664l-9.001 3.935c2.105 10.644 4.099 21.316 5.317 32.126.804 7.151 1.413 14.413.914 21.592-.304 4.379-.858 10.034-4.182 13.332-2.492 2.467-7.145 3.022-10.22 1.414-3.489-1.802-5.151-5.932-6.12-9.507-1.496-5.461-1.828-11.198-1.939-16.825-.111-6.403.221-12.806.72-19.153.415-5.461.997-10.921 1.551-16.382v-.138a41.974 41.974 0 00-20.385 30.379l-15.62 111.343c-3.518 25.029 15.897 47.37 41.156 47.37h86.967c25.314 0 44.729-22.369 41.212-47.37zm-62.04-181.276c.969-1.691 2.216-3.132 3.628-4.352-.692-1.081-1.883-1.829-3.323-1.829h-45.838c-2.658 0-4.542 2.55-3.794 5.1l2.188 7.429c1.219 4.102 4.431 7.289 8.53 8.426l15.981 4.462 15.981-4.462a12.915 12.915 0 003.49-1.608c.111-4.546.886-9.202 3.157-13.166z" fill="#42737E"/><path opacity=".5" d="M794.665 386.387c-4.764-4.462-7.506-10.477-9.915-16.492h-3.656c-2.659 0-4.542 2.55-3.795 5.1l2.188 7.429c1.219 4.102 4.432 7.289 8.531 8.426l15.981 4.462 12.214-3.409c-7.7.693-15.676-.028-21.548-5.516z" fill="#42737E"/><path d="M815.603 403.6h-23.237a4.983 4.983 0 01-4.985-4.989 4.984 4.984 0 014.985-4.989h23.237a4.984 4.984 0 014.986 4.989c0 2.744-2.244 4.989-4.986 4.989z" fill="#33362E"/><path opacity=".5" d="M810.092 402.27c-5.844-.915-11.245-3.548-13.405-8.648h-4.349a4.983 4.983 0 00-4.985 4.989 4.984 4.984 0 004.985 4.989h23.238c.941 0 1.828-.277 2.603-.748-2.714 0-5.401-.166-8.087-.582z" fill="#33362E"/><path d="M862.77 447.201c1.163-6.958-4.819-14.303-9.306-19.07-4.875-5.156-12.408-11.753-19.969-11.309-3.905.249-6.37 5.044-3.324 8.01 4.57 4.463 11.217 6.154 16.064 10.505 4.404 3.964 7.257 10.478 12.159 13.61 1.523.998 4.071.111 4.376-1.746zm-.969 9.23c-.333.748-.748 1.552-.97 2.328-.277 1.025-.111 2.051 0 3.104.139 1.525.72 2.994 2.161 3.742 1.024.555 2.188.749 3.351.444 1.052-.277 2.049-1.054 2.603-1.996.831-1.441.665-2.938 0-4.379-.443-.943-.775-1.885-1.523-2.634-.582-.582-1.357-1.053-1.994-1.552-1.053-.776-3.102-.249-3.628.943z" fill="#fff" opacity=".25"/><path d="M648.041 401.937l19.193 1.635c2.244.194 4.432.749 6.509 1.664l18.612 8.149a41.985 41.985 0 0124.705 32.596l15.621 111.343c3.517 25.029-15.898 47.37-41.157 47.37h-86.966c-25.259 0-44.674-22.341-41.157-47.37l15.621-111.343a41.985 41.985 0 0124.705-32.596l18.612-8.149a20.474 20.474 0 016.508-1.664l19.194-1.635z" fill="#42737E"/><path d="M672.801 465.91c-.997-2.273-6.148-13.693-10.635-13.693h-15.731c-.416 0-.859.056-1.302.139 2.16.36 4.487 1.774 7.616 7.179l7.672 13.443-4.265 2.439 14.014 1.802 5.927-13.194-3.296 1.885z" fill="#fff"/><path d="M642.972 453.104c-6.12 2.911-11.743 12.113-11.743 12.113l12.353 8.426 7.782-11.974c-2.741-4.961-5.816-7.428-8.392-8.565zm-16.977 24.947c-1.468 1.995-8.752 12.168-6.537 16.048 4.099 7.096 5.207 9.009 7.866 13.638.222.36.471.72.748 1.053-.748-2.051-.693-4.795 2.409-10.173l7.783-13.36 4.238 2.495-5.456-13.055-14.375 1.469 3.324 1.885z" fill="#fff"/><path d="M629.845 510.287c5.594 3.825 16.368 4.13 16.368 4.13l.055-14.94-13.211-.749c-2.935 4.879-3.517 8.759-3.212 11.559zm30.299 3.908c2.465.277 14.181 1.497 16.424-2.384 4.099-7.096 5.207-9.008 7.866-13.637a5.76 5.76 0 00.526-1.192c-1.385 1.691-3.794 2.994-9.998 2.994l-14.735-.056.028-4.934-8.558 11.254 8.447 11.725v-3.77z" fill="#fff"/><path d="M685.403 494.737c.527-6.763-5.04-16.631-5.04-16.631l-13.045 6.874 6.481 12.75c5.677.111 9.333-1.33 11.604-2.993z" fill="#fff"/><path opacity=".5" d="M732.681 557.352L717.06 446.009a41.986 41.986 0 00-24.705-32.597l-18.612-8.149a20.498 20.498 0 00-6.509-1.663l-19.193-1.635-19.194 1.635a20.499 20.499 0 00-6.508 1.663l-1.551.665c-6.564 4.685-14.042 8.066-21.88 9.951a41.946 41.946 0 00-19.914 30.13l-1.385 9.895c5.013-1.275 9.888-3.077 14.735-4.768 8.059-2.827 16.091-5.765 24.178-8.537 8.448-2.882 16.951-5.599 25.619-7.705 6.758-1.636 13.932-3.188 20.939-2.744 4.21.249 9.167 1.496 10.912 5.82.914 2.246.776 4.768.333 7.096-.748 3.964-2.41 7.872-4.598 11.254-10.386 16.27-32.239 19.569-49.853 21.343-10.331 1.053-20.745 1.469-31.076 2.466-4.902.472-9.97 1.026-14.9 2.079l-10.552 75.172c-3.518 25.029 15.897 47.37 41.156 47.37h86.967c25.314-.028 44.729-22.397 41.212-47.398z" fill="#42737E"/><path opacity=".5" d="M605.666 413.218c4.099-1.496 7.948-3.464 11.577-5.737l-13.516 5.931c-.914.416-1.828.832-2.687 1.303a68.622 68.622 0 004.626-1.497zm108.901 174.014c-19.442 11.226-44.397 18.016-65.806 8.371-10.081-4.546-18.612-12.141-24.622-21.399-2.797-4.324-4.514-10.034-8.835-13.138-3.905-2.827-9.084-3.049-13.544-4.546-9.333-3.132-14.651-10.81-17.559-19.874-1.773-5.46-2.88-11.142-4.016-16.741a336.749 336.749 0 01-3.628-21.676c-.914-6.874-1.551-13.776-1.994-20.677l-11.19 79.8c-3.517 25.029 15.898 47.37 41.157 47.37h86.966c19.249 0 35.092-13.028 39.966-30.296-4.93 5.1-10.885 9.341-16.895 12.806z" fill="#42737E"/><path d="M648.041 395.285l15.981-4.463a12.405 12.405 0 008.558-8.426l2.188-7.429c.748-2.55-1.163-5.1-3.795-5.1h-45.837c-2.659 0-4.542 2.55-3.794 5.1l2.188 7.429c1.218 4.102 4.431 7.29 8.558 8.426l15.953 4.463z" fill="#42737E"/><path opacity=".5" d="M670.974 369.895h-22.85c-1.44 1.802-2.714 3.714-3.85 5.655-3.019 5.072-5.511 10.394-8.779 15.328-.167.249-.388.499-.554.748l13.1 3.659 15.981-4.463a12.405 12.405 0 008.558-8.426l2.188-7.429c.748-2.522-1.163-5.072-3.794-5.072z" fill="#42737E"/><path opacity=".5" d="M657.375 386.387c4.763-4.462 7.505-10.477 9.915-16.492h3.656c2.659 0 4.542 2.55 3.794 5.1l-2.188 7.429c-1.219 4.102-4.431 7.289-8.558 8.426l-15.981 4.462-12.214-3.409c7.727.693 15.704-.028 21.576-5.516z" fill="#42737E"/><path d="M659.673 403.6h-23.237a4.983 4.983 0 01-4.985-4.989 4.984 4.984 0 014.985-4.989h23.237a4.984 4.984 0 014.986 4.989c0 2.744-2.244 4.989-4.986 4.989z" fill="#33362E"/><path opacity=".5" d="M654.162 402.27c-5.844-.915-11.245-3.548-13.405-8.648h-4.349a4.983 4.983 0 00-4.985 4.989 4.984 4.984 0 004.985 4.989h23.238c.941 0 1.828-.277 2.603-.748-2.714 0-5.401-.166-8.087-.582z" fill="#33362E"/><path d="M593.618 448.974c4.902-3.132 7.727-9.645 12.158-13.609 4.847-4.352 11.494-6.043 16.064-10.505 3.047-2.994.61-7.761-3.323-8.011-7.561-.471-15.095 6.126-19.969 11.309-4.487 4.768-10.469 12.113-9.306 19.07.332 1.83 2.88 2.717 4.376 1.746zm-7.007 6.514c-.665.499-1.413.97-1.994 1.552-.748.749-1.081 1.691-1.524 2.634-.637 1.413-.886 2.993 0 4.379.61.943 1.496 1.691 2.604 1.996 1.08.305 2.382.138 3.351-.444 1.413-.831 1.994-2.189 2.16-3.742.111-1.053.277-2.051 0-3.104-.221-.776-.637-1.58-.969-2.328-.526-1.22-2.576-1.719-3.628-.943z" fill="#fff" opacity=".25"/><path d="M492.111 401.937l-19.194 1.635a20.487 20.487 0 00-6.509 1.664l-18.611 8.149a41.986 41.986 0 00-24.706 32.596l-15.62 111.343c-3.518 25.029 15.897 47.37 41.156 47.37h86.967c25.259 0 44.674-22.341 41.156-47.37l-15.62-111.343a41.985 41.985 0 00-24.705-32.596l-18.612-8.149a20.473 20.473 0 00-6.509-1.664l-19.193-1.635z" fill="#42737E"/><path opacity=".5" d="M558.637 587.232c-19.443 11.226-44.397 18.016-65.806 8.371-10.082-4.546-18.612-12.141-24.622-21.399-2.798-4.324-4.515-10.034-8.808-13.138-3.905-2.827-9.084-3.049-13.543-4.546-9.334-3.132-14.652-10.81-17.587-19.874-1.773-5.46-2.881-11.142-4.016-16.741a336.754 336.754 0 01-3.629-21.676c-.914-6.874-1.551-13.776-1.994-20.677l-11.189 79.8c-3.517 25.029 15.898 47.37 41.157 47.37h86.966c19.249 0 35.091-13.028 39.966-30.296-4.93 5.1-10.885 9.341-16.895 12.806z" fill="#42737E"/><path d="M516.871 465.91c-.997-2.273-6.148-13.693-10.635-13.693h-15.732c-.415 0-.858.056-1.301.139 2.16.36 4.486 1.774 7.616 7.179l7.672 13.443-4.265 2.439 14.014 1.802 5.927-13.194-3.296 1.885z" fill="#fff"/><path d="M487.042 453.104c-6.121 2.911-11.743 12.113-11.743 12.113l12.353 8.426 7.782-11.974c-2.742-4.961-5.816-7.428-8.392-8.565zm-16.978 24.947c-1.468 1.995-8.752 12.168-6.536 16.048 4.099 7.096 5.207 9.009 7.866 13.638.221.36.471.72.747 1.053-.747-2.051-.692-4.795 2.41-10.173l7.783-13.36 4.237 2.495-5.456-13.055-14.374 1.469 3.323 1.885z" fill="#fff"/><path d="M473.914 510.287c5.595 3.825 16.369 4.13 16.369 4.13l.055-14.94-13.211-.749c-2.936 4.879-3.518 8.759-3.213 11.559zm30.3 3.908c2.465.277 14.18 1.497 16.424-2.384 4.099-7.096 5.207-9.008 7.866-13.637.221-.36.387-.776.526-1.192-1.385 1.691-3.795 2.994-9.998 2.994l-14.735-.056.028-4.934-8.558 11.254 8.447 11.725v-3.77z" fill="#fff"/><path d="M529.473 494.737c.526-6.763-5.041-16.631-5.041-16.631l-13.045 6.874 6.481 12.75c5.678.111 9.334-1.33 11.605-2.993z" fill="#fff"/><path d="M492.111 395.285l-15.981-4.463a12.317 12.317 0 01-8.531-8.426l-2.188-7.429c-.747-2.55 1.164-5.1 3.795-5.1h45.837c2.659 0 4.542 2.55 3.795 5.1l-2.188 7.429c-1.219 4.102-4.432 7.29-8.531 8.426l-16.008 4.463z" fill="#42737E"/><path opacity=".5" d="M482.805 386.387c-4.764-4.462-7.506-10.477-9.916-16.492h-3.656c-2.658 0-4.542 2.55-3.794 5.1l2.188 7.429c1.219 4.102 4.431 7.289 8.531 8.426l15.98 4.462 12.214-3.409c-7.699.693-15.676-.028-21.547-5.516z" fill="#42737E"/><path d="M503.743 403.6h-23.237a4.983 4.983 0 01-4.985-4.989 4.983 4.983 0 014.985-4.989h23.237a4.983 4.983 0 014.985 4.989c0 2.744-2.243 4.989-4.985 4.989z" fill="#33362E"/><path opacity=".5" d="M498.259 402.27c-5.844-.915-11.245-3.548-13.405-8.648h-4.348a4.983 4.983 0 00-4.985 4.989 4.983 4.983 0 004.985 4.989h23.237c.942 0 1.828-.277 2.603-.748-2.741 0-5.428-.166-8.087-.582z" fill="#33362E"/><path d="M550.938 447.201c1.163-6.958-4.82-14.303-9.306-19.07-4.875-5.156-12.408-11.753-19.969-11.309-3.906.249-6.37 5.044-3.324 8.01 4.57 4.463 11.217 6.154 16.064 10.505 4.404 3.964 7.256 10.478 12.159 13.61 1.495.998 4.043.111 4.376-1.746zm-.97 9.23c-.332.748-.748 1.552-.969 2.328-.277 1.025-.111 2.051 0 3.104.138 1.525.72 2.994 2.16 3.742 1.025.555 2.188.749 3.351.444 1.053-.277 2.05-1.054 2.604-1.996.831-1.441.664-2.938 0-4.379-.443-.943-.776-1.885-1.524-2.634-.581-.582-1.357-1.053-1.994-1.552-1.08-.776-3.129-.249-3.628.943z" fill="#fff" opacity=".25"/><path d="M301.588 437.638l-15.981 1.386a17.378 17.378 0 00-5.428 1.386l-15.51 6.791a34.954 34.954 0 00-20.578 27.163l-13.018 92.8c-2.936 20.844 13.267 39.47 34.288 39.47h72.509c21.049 0 37.224-18.626 34.288-39.47l-13.017-92.8a34.956 34.956 0 00-20.578-27.163l-15.51-6.791a17.384 17.384 0 00-5.429-1.386l-16.036-1.386z" fill="#42737E"/><path opacity=".5" d="M357.008 592.055c-16.202 9.368-37.002 14.995-54.838 6.985-8.392-3.77-15.51-10.117-20.523-17.823-2.327-3.603-3.767-8.371-7.34-10.949-3.268-2.356-7.561-2.55-11.272-3.797-7.783-2.605-12.214-9.008-14.652-16.548-1.467-4.545-2.409-9.285-3.351-13.969-1.191-5.987-2.216-12.002-3.019-18.073-.775-5.709-1.301-11.475-1.661-17.24l-9.334 66.495c-2.936 20.844 13.266 39.471 34.288 39.471h72.481c16.064 0 29.247-10.838 33.319-25.251-4.127 4.268-9.085 7.816-14.098 10.699z" fill="#42737E"/><path d="M322.194 490.94c-.831-1.885-5.124-11.393-8.863-11.393h-13.1c-.36 0-.72.028-1.08.111 1.8.305 3.739 1.497 6.342 5.987l6.398 11.198-3.573 2.024 11.688 1.497 4.93-10.977-2.742 1.553z" fill="#fff"/><path d="M297.323 480.296c-5.096 2.439-9.805 10.089-9.805 10.089l10.303 7.013 6.481-9.979c-2.271-4.157-4.819-6.208-6.979-7.123zm-14.125 20.761c-1.219 1.663-7.312 10.144-5.429 13.387 3.407 5.932 4.321 7.512 6.564 11.365.166.305.388.61.637.887-.637-1.719-.581-3.992 1.994-8.482l6.481-11.143 3.546 2.079-4.543-10.865-11.964 1.219 2.714 1.553z" fill="#fff"/><path d="M286.411 527.943c4.653 3.188 13.626 3.437 13.626 3.437l.056-12.445-10.996-.638c-2.465 4.075-2.963 7.29-2.686 9.646zm25.231 3.243c2.049.25 11.826 1.247 13.682-1.968 3.406-5.932 4.32-7.512 6.564-11.364.166-.305.332-.638.443-.998-1.163 1.386-3.157 2.494-8.337 2.494l-12.269-.055.028-4.102-7.146 9.368 7.035 9.757v-3.132z" fill="#fff"/><path d="M332.719 514.971c.443-5.627-4.21-13.859-4.21-13.859l-10.857 5.738 5.401 10.616c4.708.083 7.755-1.109 9.666-2.495z" fill="#fff"/><path d="M301.588 432.094l-13.322-3.714c-3.434-.97-6.121-3.603-7.118-7.013l-1.828-6.181c-.637-2.106.97-4.241 3.158-4.241h38.193c2.216 0 3.794 2.135 3.157 4.241L322 421.367a10.244 10.244 0 01-7.118 7.013l-13.294 3.714z" fill="#42737E"/><path opacity=".5" d="M293.806 424.666c-3.961-3.714-6.232-8.731-8.282-13.748h-3.046c-2.216 0-3.795 2.134-3.158 4.241l1.828 6.181a10.247 10.247 0 007.118 7.012l13.322 3.715 10.165-2.855c-6.398.637-13.045.055-17.947-4.546z" fill="#42737E"/><path d="M311.254 439.024h-19.36a4.15 4.15 0 01-4.154-4.158 4.15 4.15 0 014.154-4.158h19.36a4.15 4.15 0 014.155 4.158 4.15 4.15 0 01-4.155 4.158z" fill="#33362E"/><path opacity=".5" d="M306.684 437.915c-4.874-.748-9.389-2.938-11.161-7.207h-3.629a4.15 4.15 0 00-4.154 4.158 4.15 4.15 0 004.154 4.158h19.36a4.09 4.09 0 002.16-.61c-2.271-.028-4.514-.139-6.73-.499z" fill="#33362E"/><path d="M350.583 475.362c.969-5.793-4.016-11.919-7.755-15.882-4.071-4.297-10.331-9.813-16.646-9.424-3.268.194-5.317 4.185-2.769 6.68 3.822 3.714 9.361 5.127 13.377 8.758 3.684 3.299 6.038 8.732 10.137 11.337 1.246.804 3.379.083 3.656-1.469zm-.803 7.678c-.277.637-.637 1.303-.804 1.94-.249.859-.083 1.719 0 2.578.111 1.275.61 2.495 1.801 3.132.858.444 1.828.638 2.797.36.886-.249 1.717-.887 2.16-1.663.693-1.192.554-2.439 0-3.658-.36-.777-.637-1.58-1.274-2.19-.471-.471-1.108-.887-1.662-1.275-.886-.638-2.603-.222-3.018.776z" fill="#fff" opacity=".25"/><path d="M197.644 543.659h-17.643c-16.839 0-29.967-14.579-28.194-31.349l8.419-80.077c.97-9.119 4.127-17.906 9.223-25.528l5.429-8.149h26.366l9.473 12.639a56.522 56.522 0 0111.244 30.906l3.989 71.623c.886 16.27-12.048 29.935-28.306 29.935z" fill="#FFB99E"/><path d="M150.81 512.227a29.548 29.548 0 007.367 22.729 29.414 29.414 0 0021.824 9.729h17.643c8.143 0 15.731-3.271 21.326-9.175 5.595-5.931 8.447-13.665 7.977-21.814l-.997-18.127h-73.396l-1.744 16.658z" fill="#525B5B"/><path opacity=".5" d="M150.81 512.227a29.548 29.548 0 007.367 22.729 29.414 29.414 0 0021.824 9.729h17.643c8.143 0 15.731-3.271 21.326-9.175 5.595-5.931 8.447-13.665 7.977-21.814l-.997-18.127h-73.396l-1.744 16.658z" fill="#525B5B"/><path d="M224.952 441.907a59.768 59.768 0 00-11.854-32.541l-2.548-3.41c-.221-.277-.526-.471-.858-.499-3.795-.36-9.583-.997-16.119-1.94-9.223-1.33-16.674-5.627-19.277-7.317-.582-.361-1.329-.222-1.717.36l-5.623 8.454a59.841 59.841 0 00-9.693 26.886l-12.325 85.372c-.056.443.166.887.554 1.081 2.936 1.386 15.759 6.68 42.375 6.68 26.589 0 40.963-4.102 44.314-5.183.471-.139.748-.61.693-1.081l-7.922-76.862z" fill="#6BB6B9"/><path opacity=".5" d="M224.952 441.907c-.11-1.913-.332-3.77-.609-5.655-9.25-2.883-16.618-15.162-16.618-15.162l-35.063 13.139s1.772 12.695-2.244 23.782c-2.548 7.04-12.186 11.059-18.861 13.055l-6.675 46.178c-.055.444.167.887.554 1.081 2.936 1.386 15.76 6.68 42.376 6.68 26.588 0 40.963-4.102 44.314-5.183.471-.139.748-.61.692-1.081l-7.866-76.834z" fill="#6BB6B9"/><path d="M149.951 511.312s10.912 6.182 38.027 6.182c27.115 0 39.827-4.823 39.827-4.823m-20.052-100.728c-3.351-.332-8.669-.886-14.707-1.746-10.22-1.469-17.947-7.068-17.947-7.068" stroke="#528787" stroke-width=".542" stroke-miterlimit="10" stroke-linecap="round" stroke-linejoin="round"/><path d="M217.724 493.573a14.844 14.844 0 01-19.249-7.9l-21.659-50.252c-3.572-8.288.36-17.906 8.725-21.316 8.392-3.409 17.919.749 21.132 9.23l19.36 51.196c2.852 7.539-.831 15.993-8.309 19.042z" fill="#D0B196"/><path d="M217.724 493.573a14.844 14.844 0 01-19.249-7.9l-21.659-50.252c-3.572-8.288.36-17.906 8.725-21.316 8.392-3.409 17.919.749 21.132 9.23l19.36 51.196c2.852 7.539-.831 15.993-8.309 19.042z" fill="#FFB99E"/><path d="M183.99 412.581c-9.195 3.742-13.932 13.998-10.83 23.449l11.827 35.895c.221.638.941.998 1.578.721l34.344-13.942c.581-.25.886-.915.665-1.525l-12.741-33.788c-3.766-9.923-14.983-14.829-24.843-10.81z" fill="#6BB6B9"/><path d="M272.562 439.911l10.387 24.586-64.339 28.882c-7.589 3.409-16.535-.083-19.775-7.761l-.055-.139c-3.269-7.705.47-16.575 8.225-19.624l65.557-25.944z" fill="#FFB99E"/><path opacity=".5" d="M269.931 461.531c-9.555 4.573-19.055 9.091-29.164 12.39-3.933 1.303-7.949 2.439-12.076 2.966-2.991.388-6.813.665-9.416-1.248-2.853-2.079-2.438-6.264-1.302-9.174.942-2.384 2.354-4.491 3.877-6.542l-14.817 5.849c-7.755 3.076-11.494 11.946-8.226 19.624l.055.139c3.241 7.678 12.159 11.198 19.776 7.761l64.338-28.882-3.102-7.318a247.217 247.217 0 00-9.943 4.435z" fill="#FFB99E"/><path d="M282.976 464.497l-10.414-24.586 30.023-14.912 13.045 30.85-15.399 6.513-17.255 2.135z" fill="#FFB99E"/><path d="M305.853 432.732l-3.268-7.706 7.755-3.243c2.133-.887 4.57.111 5.456 2.218.914 2.134-.11 4.601-2.243 5.488l-7.7 3.243zm6.537 15.411l-3.268-7.706 7.755-3.243a4.163 4.163 0 015.456 2.246c.914 2.134-.111 4.601-2.244 5.488l-7.699 3.215z" fill="#FFB99E"/><path d="M315.63 455.849l-3.268-7.706 5.207-2.162a4.163 4.163 0 015.456 2.245c.914 2.134-.111 4.601-2.243 5.488l-5.152 2.135z" fill="#D0B196"/><path d="M309.122 440.437l-3.268-7.705 10.33-4.324c2.133-.887 4.57.111 5.456 2.217.914 2.135-.11 4.602-2.243 5.488l-10.275 4.324zm-36.56-.526l6.814-16.326 13.903-9.757 8.725-2.467a4.543 4.543 0 015.4 2.606 4.528 4.528 0 01-2.991 6.153l-6.148 1.663-7.008 5.294 11.328-2.051-30.023 14.885z" fill="#FFB99E"/><path opacity=".5" d="M304.469 447.312c-3.712 3.353-8.337 5.016-13.128 6.181-3.933.97-7.728 2.245-11.467 3.686l3.102 7.318 17.283-2.107 15.399-6.541-6.066-14.331c-1.578 2.079-3.212 4.047-5.123 5.794z" fill="#FFB99E"/><path d="M322.333 439.412c-.887-2.107-3.324-3.105-5.456-2.245l-5.927 2.467a47.35 47.35 0 01-1.385 1.857l2.797 6.597 7.727-3.216c2.161-.859 3.158-3.326 2.244-5.46zm-6.703 16.437l-3.268-7.706 5.207-2.162a4.163 4.163 0 015.456 2.245c.914 2.135-.111 4.601-2.243 5.488l-5.152 2.135z" fill="#FFB99E"/><path d="M185.873 465.883l31.962-12.972" stroke="#528787" stroke-width=".542" stroke-miterlimit="10" stroke-linecap="round" stroke-linejoin="round"/><path d="M302.502 491.882c-4.237-9.008-14.873-13-23.985-8.981l-95.137 41.965c-9.416 4.158-13.571 15.245-9.195 24.586l1.053 2.218c4.293 9.174 15.205 13.11 24.372 8.814l94.085-44.182c9.167-4.324 13.1-15.245 8.807-24.42z" fill="#D0B196"/><path d="M357.257 579.914l21.354-26.803-80.374-67.327c-7.894-6.624-19.692-5.433-26.118 2.633-6.315 7.928-5.013 19.486 2.908 25.806l82.23 65.691z" fill="#D0B196"/><path d="M299.539 484.26a19.871 19.871 0 00-7.727-4.02 20.415 20.415 0 00-14.098.832l-95.137 41.965c-5.04 2.217-8.89 6.292-10.829 11.475-1.939 5.184-1.717 10.783.637 15.772l1.053 2.217c2.963 6.32 8.779 10.395 15.177 11.448 3.905.637 8.032.138 11.882-1.663l82.812-38.889 74.309 59.345 23.819-29.88-81.898-68.602z" fill="#525B5B"/><path opacity=".5" d="M300.342 484.953c-10.248.443-20.606-.028-30.881-.25l-86.884 38.334c-5.04 2.218-8.89 6.292-10.829 11.475-1.939 5.184-1.717 10.783.637 15.772l1.053 2.217c2.963 6.32 8.779 10.395 15.177 11.448 3.905.637 8.032.138 11.882-1.663l82.812-38.889 74.309 59.345 23.819-29.88-81.095-67.909z" fill="#525B5B"/><path d="M422.067 530.382l-49.327 61.867-15.455-12.335 21.354-26.803 27.724-25.916a8.57 8.57 0 0111.162-.444l4.542 3.631z" fill="#D0B196"/><path d="M384.428 578.944l9.832-7.317c.083-.083.166-.139.249-.25l32.322-40.551a1.373 1.373 0 00-.222-1.94l-6.591-5.267c-4.847-3.853-11.882-3.575-16.397.638l-25.148 23.505-38.692-32.403a1.35 1.35 0 00-1.883.139l-27.613 30.157a1.366 1.366 0 00.166 1.996l61.846 49.393a1.372 1.372 0 001.939-.222l10.718-13.443a1.28 1.28 0 00.249-1.164l-.775-3.271z" fill="#343838"/><path opacity=".5" d="M384.428 578.944l9.832-7.317c.083-.083.166-.139.249-.25l32.322-40.551a1.373 1.373 0 00-.222-1.94l-6.591-5.267c-4.847-3.853-11.882-3.575-16.397.638l-25.148 23.505-38.692-32.403a1.35 1.35 0 00-1.883.139l-27.613 30.157a1.366 1.366 0 00.166 1.996l61.846 49.393a1.372 1.372 0 001.939-.222l10.718-13.443a1.28 1.28 0 00.249-1.164l-.775-3.271z" fill="#343838"/><path opacity=".05" d="M795.69 383.81c-4.598 1.469-9.168 2.993-13.765 4.518h4.708c7.478 0 14.457-2.8 19.858-7.872-3.573 1.136-7.201 2.217-10.801 3.354z" fill="#525B5B"/><path d="M776.496 220.246h-25.508v26.942h25.508v-26.942z" fill="#ECD2B1"/><path opacity=".5" d="M757.857 231.832c6.12 1.303 12.491.61 18.667-.804v-10.782h-25.508v9.424c2.215.887 4.486 1.663 6.841 2.162zm-48.69 67.687c-.028.998-.084 1.968-.111 2.966-.333 8.731-.942 17.379-2.354 26.027-1.385 8.482-3.296 16.881-6.287 24.947-1.496 4.046-3.463 7.871-4.792 11.974-.997 3.021-1.745 6.098-2.382 9.202l23.265-56.018c3.047-7.318-.249-15.716-7.339-19.098z" fill="#ECD2B1"/><path d="M798.016 511.007h36.116l-23.293-140.696h-39.55l26.727 140.696z" fill="#ECD2B1"/><path d="M813.803 595.104h34.26l-20.606-123.678h-37.03l23.376 123.678z" fill="#ECD2B1"/><path d="M836.403 513.003h.083l-23.957-144.715H768.88l19.193 101.143h-.083L812.169 597.1h38.249l-14.015-84.097z" fill="#525B5B"/><path opacity=".5" d="M836.403 513.003h.083l-7.256-43.877c-.166.027-.36.055-.526.083-5.983.776-12.187.97-18.114-.222-3.102-.637-6.204-1.663-8.863-3.409-2.465-1.58-4.514-3.798-6.259-6.126-3.988-5.266-6.619-11.392-9.472-17.296-1.385-2.883-3.047-5.571-4.625-8.315l6.758 35.617h-.084l24.152 127.697h38.276l-14.07-84.152zm-39.052-130.33c4.598-1.441 9.251-2.799 13.793-4.379.969-.333 1.911-.693 2.88-1.053l-1.467-8.926h-43.65l4.238 22.258c8.004-2.716 16.091-5.377 24.206-7.9z" fill="#525B5B"/><path d="M892.904 614.895h-79.101v-19.791h34.26l37.556 5.516a8.557 8.557 0 017.312 8.454v5.821h-.027z" fill="#ECD2B1"/><path d="M886.201 596.656l-34.676-5.1-12.518-75.171a1.275 1.275 0 00-1.247-1.054h-41.572c-.803 0-1.385.721-1.246 1.497l14.873 78.636v20.428a2.98 2.98 0 002.991 2.994h15.039c.969 0 1.883-.471 2.465-1.275l1.136-1.608 10.801 2.8c.249.055.499.083.748.083h50.933a2.98 2.98 0 002.991-2.994v-6.818c0-6.181-4.625-11.503-10.718-12.418z" fill="#417171"/><path d="M634.58 614.895h79.101v-19.791h-34.26l-37.556 5.516a8.557 8.557 0 00-7.312 8.454v5.821h.027z" fill="#ECD2B1"/><path d="M641.31 596.656l34.676-5.1 12.519-75.171a1.275 1.275 0 011.246-1.054h41.572c.804 0 1.385.721 1.247 1.497l-14.873 78.636v20.428a2.98 2.98 0 01-2.991 2.994h-15.039c-.97 0-1.884-.471-2.465-1.275l-1.136-1.608-10.801 2.8a3.47 3.47 0 01-.748.083h-50.934a2.98 2.98 0 01-2.991-2.994v-6.818c0-6.181 4.598-11.503 10.718-12.418z" fill="#417171"/><path d="M830.005 307.692l.651 172.936-45.253 7.269-25.168-176.564 69.77-3.641z" fill="#FFB99E"/><path d="M830.656 480.628l-45.253 7.269 36.068 188.953 19.918.767c12.285-93.882 5.739-159.561-10.733-196.989z" fill="#FFB99E"/><path d="M841.389 677.617l-19.918-.767s-19.036 20.369-36.324 21.815c-17.276 1.446-26.176 4.27-28.88 10.492-2.703 6.222-.367 9.485-.367 9.485l90.93 3.499s8.209-19.039-5.441-44.524z" fill="#FFB204"/><path d="M820.59 685.739a.698.698 0 00.704-.521.708.708 0 00-.505-.864 11.077 11.077 0 01-5.972-3.991.71.71 0 00-.991-.131.695.695 0 00-.131.98 12.472 12.472 0 006.736 4.5c.053.012.106.025.159.027zm-5.353 4.544a.702.702 0 00.231-1.373c-2.299-.681-4.233-2.613-4.933-4.918a.71.71 0 00-.872-.47.703.703 0 00-.47.872c.833 2.792 3.088 5.035 5.874 5.861.053.024.117.026.17.028zm-5.583 3.786a.697.697 0 00.704-.521.691.691 0 00-.505-.853c-2.345-.608-4.333-2.498-5.055-4.815a.708.708 0 00-.883-.46.708.708 0 00-.459.884c.866 2.761 3.238 5.018 6.038 5.749.065.002.118.015.16.016zm-6.453 2.674a.727.727 0 00.61-.3.707.707 0 00-.18-.98c-1.85-1.276-3.146-3.356-3.464-5.573a.708.708 0 00-.793-.595.696.696 0 00-.595.792c.379 2.594 1.899 5.036 4.062 6.526a.569.569 0 00.36.13z" fill="#FFF9DD"/><path d="M846.719 690.398c-2.286.787-4.546 1.714-6.738 2.857-4.887 2.558-8.732 5.956-11.128 9.833a21.704 21.704 0 00-3.091 13.876.686.686 0 01-.616.771.7.7 0 01-.781-.617 23.224 23.224 0 013.294-14.779c2.532-4.086 6.565-7.66 11.681-10.327 2.268-1.184 4.614-2.14 6.977-2.956.134.455.268.898.402 1.342zm-62.528 28.397c-.385-.035-.683-.367-.648-.751.461-6.398-.763-12.973-3.381-18.88.484-.058.957-.106 1.451-.163 2.593 6.013 3.803 12.673 3.328 19.146a.69.69 0 01-.729.648h-.021zm38.888-35.003c-1.377 1.376-2.797 2.793-4.236 4.144-3.543 3.313-9.037 7.905-15.696 9.426-1.9.437-3.833.615-5.768.536a22.307 22.307 0 01-5.089-.801 40.55 40.55 0 002.397-.89c2.682.459 5.457.396 8.144-.205 6.335-1.447 11.62-5.875 15.052-9.084 1.428-1.331 2.838-2.749 4.203-4.114 1.919-1.913 3.883-3.868 5.971-5.7l2.064.084c-2.471 2.054-4.79 4.36-7.042 6.604z" fill="#FF8200"/><path d="M846.83 722.141l-90.929-3.499s-2.337-3.252.366-9.485l92.705 3.572c-.649 5.941-2.142 9.412-2.142 9.412z" fill="#FFF9DD"/><path d="M787.622 324.957l-151.963 61.979-49.554-7.66L728.677 266.98l58.945 57.977z" fill="#FFB99E"/><path d="M635.659 386.936l-49.555-7.66 32.376 181.337 18.437 7.558c8.779-89.488 7.021-144.011-1.258-181.235z" fill="#FFB99E"/><path d="M636.927 568.182l-18.436-7.558s-24.876 12.593-41.597 8.019c-16.733-4.574-26.054-4.978-30.724-.067-4.67 4.922-3.596 8.782-3.596 8.782l84.182 34.507s14.246-15.056 10.171-43.683z" fill="#FFB204"/><path d="M614.599 568.668a.703.703 0 00.664-1.23 11.013 11.013 0 01-4.238-5.803.712.712 0 00-.882-.47.7.7 0 00-.459.872 12.448 12.448 0 004.779 6.54c.041.045.094.068.136.091zm-6.584 2.434a.719.719 0 00.832-.239.692.692 0 00-.147-.979c-1.93-1.428-3.084-3.91-2.946-6.315a.704.704 0 00-.659-.741.705.705 0 00-.741.66c-.166 2.906 1.167 5.78 3.503 7.522.052.045.105.068.158.092zm-6.545 1.632a.697.697 0 00.843-.249.7.7 0 00-.179-.98c-1.996-1.377-3.205-3.829-3.087-6.256a.72.72 0 00-.67-.741.72.72 0 00-.741.67c-.135 2.897 1.314 5.829 3.697 7.476.052.034.095.057.137.08zm-6.981.3a.699.699 0 00.84-1.052c-1.306-1.824-1.81-4.23-1.347-6.43a.704.704 0 00-.548-.833.703.703 0 00-.833.549c-.541 2.572.056 5.388 1.575 7.53a.81.81 0 00.313.236z" fill="#FFF9DD"/><path d="M637.541 582.017c-2.407-.042-4.862.042-7.303.363-5.464.717-10.252 2.594-13.83 5.412a21.775 21.775 0 00-7.671 11.968.7.7 0 01-.853.516c-.032-.011-.074-.013-.106-.035a.717.717 0 01-.421-.818 23.16 23.16 0 018.169-12.744c3.777-2.972 8.804-4.947 14.515-5.698 2.539-.339 5.068-.421 7.561-.376-.006.482-.033.941-.061 1.412zm-68.475 5.185a.701.701 0 01-.353-.933c2.637-5.85 3.737-12.45 3.301-18.89.467.113.934.226 1.422.35.369 6.534-.776 13.197-3.448 19.12a.705.705 0 01-.912.365l-.01-.012zm48.543-19.509c-1.763.815-3.58 1.661-5.407 2.443-4.467 1.898-11.2 4.316-17.979 3.466a22.533 22.533 0 01-5.601-1.472 23.145 23.145 0 01-4.505-2.493 41.26 41.26 0 002.559-.017 20.65 20.65 0 007.724 2.597c6.449.806 12.933-1.536 17.259-3.364 1.793-.761 3.611-1.607 5.363-2.423 2.46-1.145 4.974-2.288 7.557-3.299l1.91.785c-3.035 1.07-5.995 2.433-8.88 3.777z" fill="#FF8200"/><path d="M626.756 611.865l-84.192-34.518s-1.074-3.86 3.596-8.782L632 603.751c-2.652 5.368-5.244 8.114-5.244 8.114z" fill="#FFF9DD"/><path d="M722.651 269.98l-124.144 85.491a40.697 40.697 0 00-16.98 40.669c2.253 41.423 10.726 88.281 23.999 139.313 1.225 4.711 5.39 8.039 10.241 8.317 9.947.576 19.416-.182 28.302-2.599 3.058-.824 5.2-3.564 5.344-6.729 3.963-88.619.533-97.916-8.408-137.584 47.593-17.156 76.157-31.117 110.709-53.091l29.04 131.16c6.611 59.909 13.868 119.712 24.629 173.653 1.565 7.819 8.411 13.447 16.387 13.45 7.269.01 14.691-.681 21.511-1.618 4.497-.612 7.967-4.28 8.287-8.809 4.632-64.802 2.929-123.328-15.019-170.788l-4.872-220.779-109.026 9.944z" fill="#361A06"/><path d="M812.228 658.181c1.714 6.935 2.886 14.365 7.007 19.864 7.218 1.733 17.239 2.654 23.609 1.123 3.402-5.984 3.737-13.96 4.18-20.755l-34.796-.232zM610.492 538.23c-.122 6.174 1.571 15.25 5.373 21.584 6.712 4.863 14.762 8.531 22.196 8.408 5.547-10.063 9.403-21.031 7.07-32.571l-34.639 2.579z" fill="#361A06"/><path d="M652.02 157.869l32.937-15.328 14.391 118.842-32.278 20.92-15.05-124.434z" fill="#FFB99E"/><path d="M667.07 282.303l32.278-20.93 21.578 119.331-22.305 6.216c-14.095-41.091-26.325-74.932-31.551-104.617z" fill="#FFB99E"/><path d="M706.711 426.761l-1.276.651c-5.331 2.724-11.672-1.129-11.717-7.127l-.048-5.924v-.01l-.061-11.299c-.02-3.096.528-6.16 1.615-9.056l3.435-11.486 19.734-5.857c10.91 6.66 22.335 19.645 28.836 28.976 4.176 4.517 1.698 12.257-3.554 15.455-.459.273-.906.493-1.328.628 1.688 4.043-4.185 10.293-7.872 7.357 2.739 4.915-3.489 9.385-7.251 6.779l-.432.402a6.421 6.421 0 01-2.808 7.675c-.033.021-.077.041-.11.071-3.398 1.947-12.93-7.652-14.365-11.29l-2.798-5.945z" fill="#FFB99E"/><path d="M652.02 157.869c-3.051 26.684-4.249 52.748-3.106 77.995 18.558 9.253 36.186 12.413 52.242 5.217l2.003-56.746-51.139-26.466z" fill="#FF8200"/><path d="M701.452 232.407a66.56 66.56 0 01-12.08 2.529c-11.502 1.318-22.788-.74-33.53-4.867-2.44-.943-4.845-1.97-7.226-3.05.021.9.065 1.801.086 2.701 7.105 3.142 14.399 5.798 22.093 7.109 10.152 1.729 20.7 1.03 30.577-1.876l.09-2.546h-.01z" fill="#FD6B00"/><path d="M652.02 157.869c34.267 44.663 49.636 70.572 59.295 119.924 27.815 27.87 99.608 57.302 128.343 12.4-6.556-70.54-50.436-158.899-102.969-203.189-39.597 9.278-82.52 31.203-84.669 70.865z" fill="#FF8200"/><path d="M839.108 285.173a165.953 165.953 0 00-.373-3.086c-11.742 11.75-25.419 21.311-42.77 21.845-13.461.413-26.698-3.716-39.142-8.46a209.033 209.033 0 01-34.402-16.88c-4.349-2.649-8.552-5.517-12.698-8.469.259 1.166.507 2.331.754 3.518 12.874 8.956 26.696 16.501 41.24 22.422 12.675 5.159 26.174 9.747 39.966 10.277 12.637.489 24.485-3.344 34.813-10.55 4.533-3.149 8.686-6.761 12.612-10.617z" fill="#FD6B00"/><path d="M669.443 14.89c-8.32-4.813-19.865-4.107-26.096 2.9-18.407-7.502-41.359 6.733-50.79 22.483-11.683 19.494-5.369 45.941 16.551 54.606 22.215 8.784 46.922-1.48 68.947 7.531 4.802 1.969 10.501 3.979 15.155.428 4.28-3.265 4.189-9.179 4.06-14.023-.361-13.74-2.769-27.414-6.899-40.517-3.928-12.463-8.957-26.497-20.928-33.409z" fill="#361A06"/><path d="M652.672 32.319c-27.286-12.806-62.895 24.518-53.63 43.82 19.047 39.703 34.525 50.389 50.265 51.512 18.218 1.307 16.884-13.046 31.582 6.994 12.066 7.557 29.416-2.934 25.783-18.911-19.797-26.323-17.669-45.35-17.669-45.35s-25.072-32.785-36.331-38.065z" fill="#FFB99E"/><path d="M651.784 83.568a3.251 3.251 0 11-5.242 3.852 3.251 3.251 0 01.695-4.548c1.451-1.062 3.496-.754 4.547.696z" fill="#361A06"/><path d="M650.142 83.992a1.19 1.19 0 01-.251 1.662 1.19 1.19 0 01-1.662-.252 1.204 1.204 0 01.252-1.672 1.183 1.183 0 011.661.262z" fill="#fff"/><path d="M631.485 98.464a3.252 3.252 0 01-.696 4.548 3.25 3.25 0 01-4.547-.696 3.261 3.261 0 01.696-4.548 3.24 3.24 0 014.547.696z" fill="#361A06"/><path d="M629.832 98.888a1.196 1.196 0 01-.263 1.672 1.18 1.18 0 01-1.66-.263 1.202 1.202 0 01.251-1.672 1.193 1.193 0 011.672.263z" fill="#fff"/><path d="M625.705 86.899c-4.983.124-9.167 3.403-10.305 8.363-.215.935.432 2.018 1.352 2.35.941.333 1.879-.18 2.094-1.114a7.63 7.63 0 013.402-4.774 7.709 7.709 0 012.8-1.068c.894-.15 1.939-.05 2.369-1.009.105-.232.146-.487.134-.756-.043-.911-.903-2.023-1.846-1.992zm10.232-7.509c2.096-5.077 7.1-8.541 12.643-8.463 1.038.015 1.894.945 1.868 1.972-.026 1.048-.923 1.884-1.972 1.868-2.268-.026-4.484.86-6.215 2.308a10.216 10.216 0 00-2.212 2.588c-.522.86-.84 1.962-1.981 2.158-.27.044-.558.023-.823-.05-.911-.269-1.706-1.421-1.308-2.381z" fill="#361A06"/><path d="M639.968 103.197a.432.432 0 01-.513-.008c-2.293-1.762-2.086-3.082-1.512-3.876.585-.804 1.64-1.28 3.154-1.398a.416.416 0 01.457.39.438.438 0 01-.391.458c-1.245.106-2.103.45-2.531 1.046-.518.709-.068 1.625 1.339 2.702a.416.416 0 01.075.592c-.022.042-.045.063-.078.094z" fill="#D96B5A"/><path d="M642.756 107.932c5.129-2.764 9.756-6.456 13.93-10.988 2.227-2.416 6.35-1.232 6.91 2.011.897 5.204.534 11.862-5.491 15.729-5.684 3.633-11.242 2.452-15.282.456-2.968-1.464-2.97-5.64-.067-7.208z" fill="#361A06"/><path d="M663.884 104.426c-3.709.458-7.772 1.525-10.244 3.922-2.417 2.335-3.477 5.67-3.924 8.653 2.64.114 5.498-.481 8.379-2.328 4.042-2.588 5.515-6.423 5.789-10.247z" fill="#C73900"/><path d="M646.677 7.768c3.404-3.039 8.35-4.235 12.763-3.105-4.313 3.307-7.644 7.89-9.441 13.02-.786 2.232-2.558 3.015-4.893 3.03-1.681.015-2.692-1.06-2.946-2.675-.568-3.629 1.886-7.943 4.517-10.27zM602.181 88.5s7.496-9.759 3.956-19.575c0 0 15.868 7.831 30.029 1.564 10.005-4.423-10.502-12.75-10.502-12.75s28.149 9.004 30.783 5.049c2.634-3.955-6.104-11.18-6.104-11.18s25.433 18.919 41.259 11.264c-5.932-16.956-20.183-32.097-20.183-32.097s-46.352-17.71-66.18 10.535c-19.818 28.233-3.058 47.19-3.058 47.19z" fill="#361A06"/><path d="M698.544 64.563c-.442 6.763-5.155 11.961-10.517 11.611-5.361-.35-9.355-6.113-8.913-12.875.442-6.763 5.144-11.961 10.516-11.611 5.362.35 9.356 6.112 8.914 12.875z" fill="#FFB99E"/><path d="M688.835 55.418c-2.066.302-4.035 1.796-5.237 4.002-.606 1.093-.888 2.1-.88 3.075.019 1.285.641 2.474 1.604 3.087.869.555 1.852.611 2.729.653.63.033 1.229.064 1.703.274.738.326 1.222 1.157 1.141 1.957-.082.79-.739 1.516-1.526 1.67a.85.85 0 00-.667 1.005.85.85 0 001.004.667c.507-.1.975-.32 1.381-.615.814-.603 1.393-1.525 1.493-2.55.161-1.525-.748-3.078-2.15-3.695-.759-.327-1.582-.377-2.298-.413-.727-.036-1.411-.071-1.892-.388-.481-.317-.811-.982-.818-1.689a3.848 3.848 0 01.128-.905c.682-.501 1.681-.915 2.458-.77.871.17 1.664.776 2.075 1.572a.844.844 0 001.143.372c.043-.02.087-.04.12-.07a.854.854 0 00.252-1.073 4.736 4.736 0 00-3.253-2.47c-.521-.104-1.037-.048-1.544.052.908-1.135 2.08-1.897 3.286-2.08 1.485-.225 3.37.655 3.699 2.252a.85.85 0 001.004.667.857.857 0 00.668-1.005c-.476-2.308-3.051-3.962-5.623-3.582z" fill="#D96B5A"/><path d="M567.767 585.786c25.41 8.36 47.869 18.705 73.36 31.126 3.642 1.778 5.179 6.158 3.465 9.824-17.543 37.491-42.188 65.093-88.192 78.482-16.074 4.68-36.489-4.447-41.739-21.936-9.387-31.299 13.159-69.502 46.189-96.262 1.928-1.549 4.557-2.003 6.917-1.234z" fill="#D84000"/><path d="M561.966 641.541c1.104-17.329 8.337-35.406 21.301-47.498 15.719-1.908 25.509 1.907 35.001 14.149-9.97 17.37-27 31.235-46.692 40.135-4.732 2.135-9.943-1.604-9.61-6.786z" fill="#B33200"/><path d="M698.208 425.604s14.439 5.543 16.393 1.457c1.954-4.096-4.707-14.054-8.711-14.067-4.003-.013-9.83.381-9.83.381l2.148 12.229zm24.512-296.807l-1.916-37.62L831.927 62.77l5.458 37.06-114.665 28.966z" fill="#FFB99E"/><path d="M818.524 66.688l18.401-5.379c9-2.627 18.117 3.542 19.137 12.862 3.752 34.451 4.789 71.495 4.33 109.974l-25.584 8.723-16.284-126.18z" fill="#FFB99E"/><path d="M720.804 91.177l-1.785 50.575 91.43-14.613c.329-21.468-1.682-41.542-11.809-56.72l-77.836 20.758z" fill="#FF8200"/><path d="M803.526 128.233c.602-17.068-2.934-34.251-10.356-49.654-.937-1.95-1.915-3.965-3.025-5.9l-2.41.643c1.102 1.86 2.049 3.842 2.958 5.694a99.904 99.904 0 015.445 13.449c2.906 8.969 4.61 18.334 4.995 27.749.115 2.799.102 5.604-.008 8.417l2.401-.398z" fill="#FD6B00"/><path fill-rule="evenodd" clip-rule="evenodd" d="M736.417 165.237c.194-.028.523.016.745.033l.021-.013 1.763.02.022-.014c.014.023.036.009.036.009l1.594-.154c.093.004.093.004.172-.014.057-.005.101-.032.18-.05l.23-.019s.043-.027.057-.005l.705-.128.022-.013 1.461-.32c.022-.013.101-.031.101-.031l.576-.141c.123-.046.058-.005.181-.05.079-.019.108-.068.188-.086l.966-.291c.317-.073.801-.312 1.126-.421l.802-.312c.311-.131.485-.24.788-.335.053.184-.01.471-.027.637l-.169.942c.006.058-.016.071-.032.143l-.086.395c-.008.036-.03.049-.038.085-.09.243-.153.53-.302.777l-.472.696c-.522.666-.698.527-1.122.914l.042.067c.144-.058.194-.027.281-.081.159-.037.21-.1.368-.136.303-.095.355-.158.651-.312.232-.113.418-.105.658-.253.362-.194 1.397-.714 1.666-.912.095-.09.103-.126.255-.221.261-.162.42-.199.631-.392.103-.126.117-.104.27-.198.195-.122.102-.126.255-.221.116-.103.152-.095.269-.198l.765-.662c.03-.049.044-.027.095-.09l.03-.049.022-.014.306-.283s.022-.014.008-.036l.022-.014.168-.166c.095-.09.125-.14.22-.23.059-.099.007-.036.081-.112l1.368-1.78.387-.737c.029-.049.051-.063.067-.135l.03-.049.355-.934.021-.013c.077-.265.16-.471.215-.723.022-.013.008-.035.008-.035l.008-.036.12-.633c.075-.511.135-1.045.037-1.542-.026-.139-.053-.183-.065-.3-.061-.582-.281-1.034-.571-1.598l-.361-.581a1.242 1.242 0 00-.189-.255c-.091-.098-.169-.174-.224-.264-.197-.218-.282-.258-.486-.441-.127-.108-.302-.34-.517-.299-.105.22-.135 1.726-.221 2.121l-.407 2.453c-.017.166-.003.189-.057.346l-1.216 3.577s-.03.049-.038.085l-.328.638-.051.063-.617 1.096c-.124.139-.134.269-.286.364.008-.036-.022.013.015-.072.008-.036.03-.049.038-.085l.178-.297.022-.013.876-1.94c.046-.121.047-.215.115-.35l.075-.171.382-1.229.022-.014.055-.251c.022-.013.008-.036.008-.036s.022-.013.008-.036l.021-.013c-.014-.023-.014-.023.008-.036l.266-1.126c-.014-.022.008-.036.008-.036l.092-.677c.203-.839.35-1.767.41-2.642.002-.094-.02-.08.018-.166l.042-.708c.041-.274.011-.565.039-.861.055-.251.094-.771-.038-1.031-.522.325-.549.621-1.175.731-.546.092-1.011.412-1.504.687l-.212.194c-.146.153-.285.27-.381.454-.06.099-.06.099-.133.175l-.059.099-.008.036-.306.624s-.024.108-.046.121l-.09.243c.014.022.014.022-.008.035l-.315 1.436c-.045.462-.138 1.574-.096 1.981.004.153.016.269.006.399-.07.664-.047 1.332-.046 2.013.004.152.038.255.02.421l-.033.579c-.021.354.007.739-.064 1.062-.061-.148-.132-.165-.218-.205l-.525-.263s-.014-.022-.036-.008l-.049-.032c-.171-.08-.226-.169-.373-.357-.244-.344-.744-.808-1.134-1a.953.953 0 00-.292-.128c-.263-.085-.198-.125-.527-.169l-.743-.127c-.043.027-.021.014-.079.018l-.38.02c-.23.019-.523-.016-.747.061l-1.542.431c-.505.159-1.206.44-1.633.675-.174.108-.21.099-.354.158a.586.586 0 01-.167.072l-1.158.565c-.477.203-.981.362-1.452.624-.04-.161.011-.224-.015-.363a2.483 2.483 0 01-.078-.417c-.032-.197-.059-.242.016-.412l.151-.435c.048-.216.109-.409.156-.624-.004-.152.012-.224.007-.377l-.052-.618c-.098-.838-.62-1.629-1.146-2.232-.105-.121-.175-.233-.315-.362l-4.006-2.997c-.388-.285-1.217-.793-1.491-1.088l-1.564-1.352-.014-.022-.078-.076c-.077-.076-.049-.032-.105-.121l-.027-.045c-.042-.067 0 0-.064-.053-.407-.46-.776-1.006-.929-1.592a5.4 5.4 0 01-.159-1.421c-.239.149-.178.297-.225.512-.009.13-.039.18-.063.287l-.251 2.605.06 2.04c.006.058-.016.071-.002.094-.004.188-.01.13.022.327l.256 1.577c.034.103.068.206.08.322.343 1.863 1.315 3.863 2.562 5.288.302.34.598.621.972.884l1.291.717a4.425 4.425 0 001.599.339l.093.004.172-.014 1.257-.162c.101-.032.066-.04.181-.05.158-.036-.044.027.158-.036.166-.073.311-.131.414-.257-.169-.174-.353-.277-.53-.415l-1.319-1.102c-.113-.085-.154-.152-.267-.237l-.359-.335a.501.501 0 01-.155-.151l-2.184-2.3c-.728-.881-1.512-2.191-1.981-3.139-.076-.17-.054-.184-.165-.363-.31-.644-.225-.604-.55-1.177l.043-.027c.401.743.703 1.423 1.122 2 .07.111.216.299.258.366.062.148.062.148.195.313.454.586.788 1.122 1.307 1.667.091.098.183.197.238.286.427.541.899.96 1.377 1.438.442.469.893.902 1.394 1.272.078.076.204.183.282.259.295.281.607.491.91.736l.036.009.063.054c.381.321.983.659 1.313 1.044-.232.112-.18.05-.361.099-.188.086-.231.113-.411.163-.123.046-.232.113-.39.15l-1.598.342-.115.009-1.103-.027c-.321-.079-.614-.114-.898-.279-.071-.017-.121-.049-.17-.08l-.383-.227c-.127-.107-.119-.143-.256-.12.031.291.471.514.675.697.52.545 1.17 1.008 1.785 1.463l.396.25c.063.053.05.031.149.093.36.241.367.299.82.544.256.12.482.289.773.418l.561.272c.171.08.987.471 1.237.533l3.196.772c.25.062 1.21.054 1.476.044l.883-.084c.093.004.057-.005.158-.037l.511-.1c.418-.105.655-.16 1.061-.381l.637-.334c.428-.235.349-.216.647-.464l.497-.464c.022-.013.008-.036.008-.036l.367-.476c.06-.099.111-.162.149-.247l.029-.05c.172-.354.358-.687.458-1.059l.063-.287a.204.204 0 00.032-.144c.053-.157.106-.314.066-.475-.509.006-1.213.475-1.645.557-.115.01-.079.019-.202.064-.144.059-.194.028-.382.113-.354.159-.713.165-1.081.3a4.838 4.838 0 01-1.073.264l-.633.146-.022.014-.194.027-.022.014-.547.092c-.596.06-1.186.179-1.788.181l-.681.021s-.014-.023-.036-.009l-.022.013c-.013-.022-.013-.022-.035-.008l-.036-.009-.036-.009c-.021.014-.035-.009-.035-.009l-1.539-.097c-.28-.012-.945-.064-1.165-.175z" fill="#fff"/><path fill-rule="evenodd" clip-rule="evenodd" d="M729.978 153.276c.218-.135.343-.275.538-.396.248-.185.313-.226.586-.272l.59-.118c.281-.082.709-.317.992-.493.196-.122.212-.193.35-.31.117-.104 0 0 .103-.126.043-.027.073-.077.117-.104l.029-.049.044-.027c.36-.441.555-.903.744-1.424l.507-3.166c.027-.296.06-.534.066-.816l.023-.449c.016-.071.008-.036.002-.094l.492-4.986s.022-.013.008-.036l.077-.265c.144-.399.325-.884.582-1.198.073-.077.111-.162.162-.225.097-.184.059-.099.206-.252.358-.346.336-.333.829-.608.174-.108.188-.086.112-.256-.166.072-.425.14-.592.213a.736.736 0 00-.31.131 7.628 7.628 0 00-1.012.412c-.231.113-.39.149-.651.311-.898.497-1.637.863-2.501 1.462l-1.027.824c-.35.311-.706.563-.993.927l-.022.014-1.234 1.511c-.081.112-.11.161-.17.26l-.288.459c-.038.085-.089.148-.126.233l-.35.651c-.022.014-.008.036-.008.036l-.022.014c-.217.476-.106.314-.227.606l-.205.592c-.084.301-.247 1.301-.219 1.686l.014.023.094 1.026c.206.864.637 1.898 1.277 2.491l.57.577c.077.075.162.115.24.191.152-.094.132-.175.128-.327.016-.072.008-.036.002-.094.016-.072.008-.036.002-.095l.021-.013c-.013-.023-.006-.058.016-.072a.056.056 0 01.016-.072l.004-.188.843-4.275c.101-.372.223-.758.337-1.108.03-.05.022-.014.038-.085l1.842-3.687c.111-.162.356-.593.53-.702-.031.144-.186.333-.275.481l-.282.517s-.051.063-.038.085l-.051.063c.014.022-.008.036-.008.036s-.022.013-.008.036l-.724 1.504c-.024.108-.038.085-.075.171l-.663 1.992c-.008.036-.03.05-.038.085l-.332 1.261-.016.072-.724 5.099a.598.598 0 00.058.336z" fill="#fff"/><path fill-rule="evenodd" clip-rule="evenodd" d="M746.485 140.071c-.209.1-.637-.006-.867.013-.129-.013-.115.009-.208.005-.014-.022-.036-.009-.036-.009l-.15.001c-.022.013-.022.013-.036-.009l-1.78.146c-.172.014-.295.059-.468.073-.021.014-.079.018-.1.032l-3.133.738c-.237.055-.469.167-.728.236l-.491.181c-.101.032-.093-.004-.216.041l-1.489.615a1.484 1.484 0 01-.477.204c-.346.122-.667.383-1.035.519-.419.199-.706.222-.124.48.157.058.256.12.377.169.362.147.845.777 1.418 1.165.418.236.206.088.582.257l.607.15c.107.027.12.049.192.067l.222.017c.293.035.602-.002.897-.062h.15l.022-.014c1.107-.161 2.257-.69 3.199-1.213.594-.307 3.368-1.815 3.996-2.019l1.639-.616c.137-.023.057-.004.137-.023l.215-.041c.022-.013.036.009.058-.004l.489-.088c.774-.016 1.59.035 2.284.471.113.085.169.175.335.102-.18-.29-1.445-1.209-1.757-1.418l-.799-.558a3.778 3.778 0 01-.553-.307c-.035-.009-.085-.04-.135-.071 0 0-.013-.022-.035-.009l-.099-.062c-.086-.04-.149-.094-.248-.156l-.589-.316c-.022.013-.022.013-.035-.009l-1.301-.587-.021.014-.989-.377c-.022.013-.036-.009-.072-.018l-.035-.009-.036-.009-1.034-.256s-.036-.009-.05-.031l-.543-.097-.035-.008-.493-.066-.036-.009-3.407.103-.475.109c-.699.187-1.229.547-1.831.89l-1.008.999c-.243.337-.457.625-.601 1.024l-.41 1.526c-.023.108-.031.144.017.269.217-.135.403-.127.708-.317.275-.14.448-.154.744-.307.188-.086.181-.05.347-.123.158-.036.245-.09.376-.171.188-.086.237-.055.57-.2.166-.072.101-.031.18-.05l.505-.158c.101-.032.123-.046.188-.086l4.21-.85.818-.043.071.017.022-.013.035.008c.022-.013.022-.013.036.009.022-.013.057-.004.057-.004l1.605.056c.107.027.2.031.329.044.15-.001.215-.041.328.043z" fill="#fff"/><path fill-rule="evenodd" clip-rule="evenodd" d="M756.219 156.556c.152-.095.14-.211.171-.355l.142-.986c.017-.166.065-.041-.06-.242.174-.109.089-.149.124-.48l-.157-4.088c-.025-.138-.004-.152-.03-.291l-.221-1.133c-.044-.314-.153-.587-.241-.873-.109-.273-.187-.69-.291-.904-.192-.408-.427-.882-.562-1.294-.117-.237-.584-.939-.723-1.162-.139-.224-.222-.358-.369-.546-.147-.187-.287-.317-.42-.482-.105-.121-.056-.09-.183-.197-.113-.084-.105-.12-.218-.205l-1.243-.932-.014-.022-.27-.143c-.426-.2-.874-.386-1.331-.443l-.365-.052-.022.013-.443-.034c-.079.018-.093-.004-.173.014l-1.423.234c-.347.122-.086-.04-.644.276.118.237.048.125.147.188l.036.008.728.54c.126.107.303.245.43.352l1.438 1.246c.113.084.127.107.226.169l.823.79c.077.076.113.085.19.161a.355.355 0 00.105.121l.288.317c.716.763 1.611 1.912 2.123 2.833l.699 1.271c.243.438.322.76.578 1.221l-.756-1.266c-.298-.527-1.338-1.958-1.758-2.44a2.148 2.148 0 00-.266-.331c-.119-.143-.169-.174-.288-.317-.553-.648-1.158-1.233-1.799-1.826l-.444-.375c-.367-.299-.831-.755-1.156-.986-.587-.41-1.178-.973-1.795-1.334l-.46-.303c-.17-.08-.021.014-.148-.093l-.109.067c.089.193.189.936.142 1.152l-.191.615-.032.143-.007.036-.024.108c-.059.439-.031.824.075 1.286.138.658.3.774.535 1.248.395.685 1.127 1.376 1.727 1.809l.566.424c.22.111.507.428.826.602l2.605 1.666c.085.04.185.102.248.156l1.646 1.24c.281.259.585.504.837.812.091.099.133.166.216.3.105.12.113.085.204.183.133.165.346.653.421.823.09.192.261.613.277.882l.014.022c-.022.014-.008.036-.008.036s.014.023-.008.036l.028.045c-.022.013-.008.036-.008.036s-.008.036.006.058l-.005.282c.012.117-.018.166.044.314z" fill="#fff"/><path d="M737.258 152.316c.819-.138 1.872-.823 2.355-1.309.043-.027.073-.076.138-.117-.38.02-.715-.082-.993-.529-.286-.412-.373-.698.05-1.085.459-.379.939.005 1.197.372.25.402.219.546.177.819.022-.013.044-.027.08-.018.561-.504 1.814-1.5 2.633-1.637-.263-.084-.392-.097-.65-.464-.25-.402-.419-.917.06-1.215.486-.333.897-.061 1.147.341.25.403.239.627.154.927.35-.31 2.364-.663 1.415-1.995-.729-.446-.296-.622-.026-.48.497.218.686.813.686.813.416 1.447-.324 1.907-.842 2.384l.719 1.351.041.067c.53.415.867.763 1.163 1.044 0 0 .412.178 1.034.256.327.138.569.236.731.352.631.383.707.893.534.907-.128-.013-.517-.298-.646-.311a149.4 149.4 0 00-2.531-.286c-.219-.205-.451-.433-.768-.701.06.242.062.488.072.699.031.291.102.65.245 1.026l.491.934s.264.425.379.757c.102.308-.202.838-.317.848-.079.018-.161-.551-.161-.551-1.123-1.224-1.81-2.037-1.9-2.911-.052-.618-.111-1.295-.786-2.332-.491-.159-1.154.377-1.708.845l1.132 1.869c.014.022.006.058.006.058.819.979.915 1.57 1.559 1.976.383.227.988.812 1.252 1.236.161.21.31.645.124.636-.129-.013-.189-.254-.296-.281-.085-.04-.206-.089-.341-.16-.347-.218-1.359-.488-1.718-.823-.387-.379-.758-.83-1.129-1.282.002.247.013.457.017.61.01.21.014.363.028.385.034.103.494.406.643.5.311.209 1.132.753 1.073 1.192.018.175-.031.485-.124.48-.093-.004-.308-.397-.429-.446-.392-.097-.874-.387-1.088-.44-.763-.548-1.117-.39-1.28-.846-.096-.251-.084-.475-.107-.802 0-.341-.027-.821-.127-1.564l-.902-.772c-.255.22-.481.392-.756.532-.065.04-.123.045-.188.085a2.03 2.03 0 01-.54.15c.96 1.108 1.785 2.145 1.785 2.145.328.478.33.725.264 1.2-.1.713-.129 1.444-.303 1.893-.045.121.118.578.053.618-.074.077-.462-.209-.609-.396-.195-.313-.132-2.057-.307-2.63l-.343-.407c-.011.565-.132.857-.177.978l-.022.014c-.061.193-.221.323-.423.387l-1.702-.214c-.338.087-.431.423-.524.079a.628.628 0 01.452-.777l1.095-.278c.031-.144.043-.368-.001-.681l-1.103-1.484c-1.11-.086-1.27-.296-1.481-.537-.25-.402-.409-.707-.49-.935-.117-.237-.207-.429-.177-.479.059-.099.237-.055.483.196.127.107.237.38.369.545.249.497 1.269.39 1.486-.086-.228-.076-.357-.089-.593-.469-.244-.344-.35-.805.044-1.143.407-.315.885-.178 1.163.269.286.411.229.757.079 1.098zm1.345 4.495l.008-.036c-.022.014-.008.036-.03.05l.022-.014z" fill="#fff"/><path d="M1007.1 497.01l-734.732 8.953C106.634 494.321 16.15 463.859 16.15 463.859s50.546 54.993 66.083 84.346c0 0 47.582 101.06 139.839 140.78h663.215c.028 0 73.672-53.995 121.813-191.975z" fill="#CBE3DE"/><path opacity=".5" d="M904.342 584.211c-20.744 4.047-41.322 8.925-61.984 13.498-22.932 5.1-45.976 9.813-69.019 14.303-46.973 9.147-94.14 17.185-141.473 24.309-16.507 2.466-33.041 4.712-49.521 7.317-14.734 2.328-29.524 4.463-44.452 5.072-13.073.527-27.752.472-39.772-5.404-5.733-2.8-9.971-7.152-11.937-13.333-2.465-7.705-1.385-16.187.055-24.004 1.219-6.652 2.77-13.249 3.989-19.929 1.301-6.985 2.548-13.97 4.154-20.899 1.662-7.262 3.656-14.524 6.509-21.426 2.271-5.488 5.179-11.087 9.61-15.19 4.432-4.074 10.359-5.82 16.175-6.735 7.866-1.22 15.925-1.109 23.846-.693 8.254.416 16.48 1.247 24.705 1.94 8.78.721 17.588.693 26.395.943 48.358 1.441 96.577 6.097 144.935 7.539 24.04.721 48.108.471 72.149.499 24.012.027 48.053-.056 72.065-.61 23.625-.554 47.195-1.691 70.764-3.52 11.467-.887 23.265-1.22 34.842-2.55 3.653-9.009 7.253-18.405 10.693-28.273l-734.729 8.953c-165.735-11.641-256.218-42.103-256.218-42.103s17.614 19.153 35.257 40.884c.305.027.61.027.914.055 11.882.776 23.708 2.273 35.479 4.13 12.546 1.996 24.954 4.712 37.528 6.569 24.816 3.631 49.826 5.627 74.531 10.117 8.226 1.497 17.255 2.8 24.345 7.595 4.487 3.021 7.921 7.013 10.719 11.586 5.733 9.369 11.133 18.932 16.313 28.605 6.591 12.335 12.878 24.919 18.085 37.918 2.244 5.572 4.293 11.254 5.733 17.102 1.053 4.158 1.939 8.621 1.496 12.945-.415 3.991-2.271 6.541-5.982 8.176-6.149 2.689-13.572 2.218-20.052 1.497-7.783-.859-15.427-2.578-23.044-4.351-7.339-1.719-14.762-2.939-22.157-4.352-21.991-4.241-43.732-9.812-65.889-13.166 21.575 22.839 49.188 45.402 82.729 59.815h663.215s45.2-33.178 87.935-113.893c-23.209 1.025-46.363 4.657-68.936 9.064z" fill="#CBE3DE"/><path d="M487.07 601.895L272.535 604.5c-2.133-.138-4.21-.305-6.315-.471a195.485 195.485 0 011.523 3.576l4.681.332 213.981-2.605c.194-1.137.444-2.301.665-3.437zm355.288-4.186c-5.428 1.22-10.885 2.329-16.313 3.493l133.33-1.635c.692-1.165 1.385-2.301 2.105-3.493l-118.346 1.441c-.25.083-.527.139-.776.194zm82.369 51.251a198.975 198.975 0 002.825-3.493l-655.017 7.983c-46.863-3.298-87.742-8.121-122.307-13.332a209.276 209.276 0 004.403 4.13c33.624 4.961 72.98 9.507 117.765 12.639l652.331-7.927zm-427.049-96.181l-225.143 2.744a1865.183 1865.183 0 01-32.848-2.634l2.16 3.659c9.888.887 20.08 1.691 30.577 2.439l224.257-2.744c.304-1.164.637-2.3.997-3.464z" opacity=".5" fill="#B1D1CA"/><path d="M271.925 518.076l-.637-.056c-144.713-10.172-244.53-38.5-267.574-45.541-2.797-.859-4.237-3.575-3.185-6.042l5.927-13.942c.997-2.356 3.906-3.548 6.592-2.744 22.074 6.707 119.177 34.176 259.764 44.099l742.458-9.064c2.88-.028 5.26 2.024 5.29 4.601l.22 14.885c.03 2.578-2.27 4.684-5.15 4.712l-743.705 9.092z" fill="#E3EDEB"/><path opacity=".5" d="M647.32 509.15c-18.362-1.164-36.752-1.441-55.115-2.3-18.529-.859-37.141-2.273-55.393-5.766-9.001-1.718-17.891-3.991-26.533-7.012-2.769-.97-5.484-1.885-8.115-2.966l-229.353 2.8a1379.071 1379.071 0 01-39.134-3.299c-7.617 6.126-16.203 11.032-25.398 14.635a122.344 122.344 0 01-16.341 5.073 1452.56 1452.56 0 0079.35 7.733l.637.055 429.071-5.238c-17.892-1.165-35.784-2.578-53.676-3.715z" fill="#E3EDEB"/><path d="M959.375 599.567c.692-1.165 1.385-2.301 2.105-3.493l-688.945 8.399c-70.57-4.962-127.625-13.388-169.806-21.426.886 1.33 1.8 2.661 2.742 4.046 42.015 7.845 98.1 15.994 166.953 20.817l686.951-8.343zm-34.648 49.393a198.975 198.975 0 002.825-3.493l-655.017 7.983c-46.863-3.298-87.742-8.121-122.307-13.332a209.276 209.276 0 004.403 4.13c33.624 4.961 72.98 9.507 117.765 12.639l652.331-7.927zm-652.192-93.437c-91.841-6.459-160.86-18.821-203.9-28.467a307.24 307.24 0 012.99 4.213c43.456 9.563 111.34 21.399 200.771 27.691l713.124-8.704c.526-1.164 1.08-2.3 1.606-3.465l-714.591 8.732z" fill="#B1D1CA"/><path d="M540.54 683.699c-39.179-25.983-49.909-78.771-23.959-117.934l28.68-43.287c19.326-29.171 54.566-43.522 88.805-36.143l20.718 4.46 28.057-21.882-9.229 34.397 12.177 17.358c31.831 36.749 100.622 116.803 45.968 180.571-42.785 49.931-144.397 36.515-191.217-17.54z" fill="#838C8A"/><path opacity=".5" d="M523.126 641.724c-.472-14.589 1.846-29.468 6.156-43.359 8.446-27.264 25.766-51.178 48.461-68.379 8.472-6.421 18.076-11.366 27.954-15.191 10.969-4.257 22.549-7.174 34.257-8.294 13.408-1.273 27.458.015 39.649 5.334l-6.009-8.546 9.229-34.397-28.057 21.882-20.718-4.46c-34.24-7.379-69.458 6.954-88.805 36.143l-28.68 43.287c-23.596 35.62-16.847 82.542 14.074 110.288-4.547-10.876-7.115-22.513-7.511-34.308zm184.808-83.729c.92 12.441 1.858 24.904 2.147 37.378.596 24.97-1.564 50.566-12.119 73.533-4.205 9.106-9.558 17.52-16.332 24.927-6.285 6.874-13.548 12.872-21.336 17.967-12.441 8.1-26.616 14.07-41.348 16.563 42.564 9.63 87.785 2.107 112.832-27.142 44.35-51.763 7.421-114.238-25.084-155.572.473 4.1.947 8.2 1.24 12.346z" fill="#838C8A"/><path d="M644.411 678.657c-11.158 9.665-24.677 16.351-39.584 19.362-22.759 4.605-45.966.064-65.321-12.764-19.374-12.849-32.57-32.441-37.211-55.227-4.622-22.766-.1-45.972 12.712-65.319l28.68-43.287c19.898-30.033 55.521-44.534 90.747-36.946l19.867 4.281 31.8-24.795-10.439 38.965 11.699 16.637c20.719 29.504 21.255 67.984 1.357 98.017l-28.68 43.287c-4.465 6.69-9.723 12.675-15.627 17.789zM561.85 506.349c-5.652 4.896-10.717 10.64-15.029 17.125l-28.681 43.288c-12.281 18.521-16.593 40.701-12.177 62.509 4.437 21.789 17.064 40.555 35.593 52.852 18.529 12.296 40.71 16.626 62.511 12.227 21.784-4.421 40.538-17.034 52.819-35.556l28.68-43.287c19.04-28.739 18.522-65.548-1.286-93.789l-12.695-18.083 7.999-29.81-24.335 18.988-21.588-4.661c-26.094-5.633-52.404 1.388-71.811 18.197z" fill="#BBCCC8"/><path d="M686.122 463.944L670.21 476.37a58.85 58.85 0 001.388 3.675l8.007-6.239-3.936 14.704c.853 1.535 1.727 3.051 2.664 4.513l7.789-29.079z" fill="#BBCCC8"/><g opacity=".5" fill="#838C8A"><path d="M720.223 600.779c5.146 9.918 10.134 19.018 13.311 29.835.19.642 1.244.463 1.075-.198-2.79-10.454-7.053-21.467-14.035-29.867-.143-.207-.472.005-.351.23zm-.55 24.239c6.502 11.567 10.967 23.871 13.095 36.989.096.576.973.404.877-.173-2.22-13.222-6.664-25.544-13.708-36.934-.088-.144-.331-.044-.264.118z"/><path d="M720.585 644.177c5.113-13.303 6.918-28.691 7.28-42.866.009-.668-1.008-.741-1.016-.074-.792 14.695-3.664 28.513-6.399 42.91-.045.075.091.105.135.03zm4.774 13.76c.012.099.046.18.058.279-.002.039.034.081.094.066 2.11.152 3.483-4.228 4.257-5.704 1.875-3.715 3.509-7.624 4.583-11.671.189-.714-.883-1.105-1.111-.395-.922 2.743-1.748 5.512-2.863 8.201a124.54 124.54 0 01-1.48 3.409c-.351.78-3.221 6.054-3.433 5.724-.04-.003-.102.052-.105.091zm-122.181 51.081c13.083 7.15 28.132 10.946 42.912 12.189.761.074.845-1.099.084-1.173-15.15-1.289-28.942-5.367-42.924-11.188-.076-.045-.165.106-.072.172zm23.219-.31c15.819 3.203 31.691 3.464 47.632 1.097.834-.136.593-1.431-.242-1.294-15.741 2.597-31.627 2.532-47.381.08-.06.015-.069.132-.009.117z"/><path d="M619.529 722.945c11.424-3.478 20.493-12.764 26.245-22.917.494-.868-.8-1.727-1.294-.859-5.967 10.963-14.426 17.483-25.037 23.593-.062.054-.034.213.086.183zm40.025-4.343c4.987-2.999 8.46-7.365 10.576-12.791.29-.764-.938-1.167-1.19-.4-1.809 5.272-5.085 9.612-9.474 13.047-.102.052-.014.196.088.144zM526.625 585.778c17.925 11.389 36.489 21.823 54.46 33.136.582.376 1.196-.522.614-.898-17.979-11.197-36.092-22.717-54.964-32.406-.115-.048-.204.103-.11.168zm24.187-2.321c18.572 11.415 36.882 23.205 55.278 34.884.507.331 1.014-.438.528-.787-18.066-12.185-36.784-23.474-55.696-34.266-.114-.048-.224.121-.11.169zm-11.377-25.826c14.233 9.197 28.771 18.79 44.104 26.044.494.232.866-.566.413-.834-14.444-8.978-29.744-16.7-44.409-25.34a.085.085 0 00-.108.13z"/><path d="M534.028 613.066c10.861-21.472 20.865-43.595 30.548-65.624.258-.59-.663-.892-.939-.323-10.403 21.662-20.634 43.651-29.817 65.834-.047.114.161.227.208.113zm16.525 7.065c6.347-10.778 11.684-22.258 17.388-33.396.319-.606-.58-1.221-.898-.615-5.594 11.225-11.692 22.374-16.622 33.942-.027.096.088.144.132.069zm41.999-2.826c6.996-12.99 14.049-25.956 21.256-38.872.36-.642-.594-1.32-.975-.66-7.336 12.809-14.316 25.859-20.86 39.117-.187.419.374.813.579.415z"/></g><path d="M682.95 475.383l-6.153-4.058a1.339 1.339 0 01-.38-1.834l186.02-282.76a5.01 5.01 0 018.367 5.513l-186.02 282.761c-.397.6-1.216.796-1.834.378z" fill="#BBCCC8"/><path d="M869.925 184.461c-2.757-1.829-6.485-1.056-8.312 1.699l-48.182 73.27c-.307.45-.153 1.05.278 1.336l8.445 5.52c.432.287 1.05.154 1.336-.277l48.179-73.231c1.788-2.758 1.034-6.506-1.744-8.317z" fill="#2A2A2A"/><path opacity=".5" d="M865.581 199.921c-9.15 13.464-18.346 27.002-28.393 39.812-4.016 5.092-8.192 10.213-12.876 14.746-.843.804-2.77 2.767-4.068 1.691-.353-.281-.349-.615-.478-1.017-.171-.621-.463-1.212-.653-1.854a29.496 29.496 0 01-.485-1.744l-5.199 7.914c-.307.45-.154 1.05.277 1.337l8.446 5.519c.431.287 1.049.154 1.335-.277l48.179-73.231a5.996 5.996 0 00.988-3.386 1901.992 1901.992 0 01-7.073 10.49z" fill="#2A2A2A"/><path d="M685.863 469.229c2.881-1.285 4.719-5.297 6.37-7.791l10.04-15.186c4.821-7.294 9.607-14.629 14.41-21.943 1.985-3.039-2.721-6.187-4.687-3.127-4.71 7.379-9.402 14.78-14.055 22.184-3.235 5.149-6.467 10.259-9.702 15.408-1.552 2.481-4.505 5.882-4.49 8.987-.042 1.136 1.038 1.96 2.114 1.468zm32.341-49.171c.853-.116 1.364-.668 1.971-1.194.188-.163.395-.305.562-.45.563-.451.833-.942 1.115-1.59.475-1.144-.099-2.737-1.154-3.363-1.186-.734-2.417-.548-3.512.218-.785.533-1.128 1.49-1.406 2.354-.322.939-.479 1.773-.098 2.762.441.975 1.57 1.391 2.522 1.263zm138.049-216.567c2.253.359 4.311-2.89 5.441-4.42 1.975-2.627 4.737-5.276 5.151-8.605.343-2.607-2.72-3.437-4.493-2.269-1.772 1.169-2.417 3.048-3.372 4.864-.889 1.724-1.934 3.436-2.708 5.207-.419.913-2.176 4.891-.019 5.223z" fill="#fff" opacity=".5"/><path d="M720.716 441.251s-15.093-16.424-10.212-20.353c4.881-3.928 12.906 5.317 12.906 5.317s-8.486-7.409-4.826-10.707c3.661-3.297 11.914 3.098 11.914 3.098s-8.495-6.232-4.6-9.821c3.884-3.579 11.232 2.709 11.232 2.709s-8.71-5.897-5.116-8.554c3.595-2.646 14.901 7.036 14.901 7.036s-15.044 22.203-26.199 31.275zm111.822-219.872l-.949.191c-3.073.609-5.806-2.025-5.301-5.113 1.599-9.805 4.211-22.541 4.959-24.325l3.82-9.052 16.92-10.754c10.982 7.359 21.925 15.498 28.233 25.433 4.112 4.846 1.221 12.742-4.359 15.822-.48.262-.958.47-1.402.593 1.563 4.253-4.78 10.454-8.456 7.251 2.61 5.2-4.03 9.538-7.805 6.684l-.464.402a6.643 6.643 0 01-3.241 7.809c-.044.02-.077.04-.12.06-3.599 1.865-8.765.226-10.086-3.6l-1.786-5.514a8.684 8.684 0 00-9.963-5.887z" fill="#FFB99E"/></svg>