<svg width="1920" height="293" viewBox="0 0 1920 293" fill="none" xmlns="http://www.w3.org/2000/svg">
<g clip-path="url(#clip0_212_1183)">
<path opacity="0.5" d="M25.2717 74.6902C54.5209 76.4907 83.7155 78.1276 112.965 79.0551C170.972 80.8557 229.307 83.0927 287.041 75.6177C335.335 69.3977 383.083 60.6132 431.705 56.7938C482.236 52.8108 533.149 54.3931 583.735 52.538C633.612 50.7375 683.215 55.7026 732.873 59.4674C783.514 63.2867 834.318 62.2501 885.067 61.9227C935.817 61.5953 986.512 63.505 1037.26 63.6687C1087.25 63.8323 1136.96 61.5953 1186.84 58.7581C1210.96 57.3394 1235.18 56.6302 1259.2 59.1946C1284.35 61.8681 1309.56 64.1597 1334.83 66.3422C1343.4 67.0515 1351.96 67.8154 1360.53 68.5247C1366.42 68.5792 1372.37 68.6338 1378.32 68.7429C1417.17 69.4522 1455.65 72.4531 1494.28 76.327C1536.35 80.5829 1578.81 84.675 1621.1 81.2922C1660.88 78.1276 1699.95 68.8521 1739.68 65.1418C1759.11 63.3413 1778.7 62.3046 1798.18 63.6141C1819.24 65.0327 1840.09 69.2885 1861.04 71.7984C1886.85 74.9084 1912.83 76.9818 1938.75 76.8181V-223H-29.2432V75.1267C-11.1807 73.2715 7.0455 73.5989 25.2717 74.6902Z" fill="#5A5A5A"/>
<path opacity="0.5" d="M25.2717 115.69C54.5209 117.491 83.7155 119.128 112.965 120.055C170.972 121.856 229.307 124.093 287.041 116.618C335.335 110.398 383.083 101.613 431.705 97.7938C482.236 93.8108 533.149 95.3931 583.735 93.538C633.612 91.7375 683.215 96.7026 732.873 100.467C783.514 104.287 834.318 103.25 885.067 102.923C935.817 102.595 986.512 104.505 1037.26 104.669C1087.25 104.832 1136.96 102.595 1186.84 99.7581C1210.96 98.3394 1235.18 97.6302 1259.2 100.195C1284.35 102.868 1309.56 105.16 1334.83 107.342C1343.4 108.051 1351.96 108.815 1360.53 109.525C1366.42 109.579 1372.37 109.634 1378.32 109.743C1417.17 110.452 1455.65 113.453 1494.28 117.327C1536.35 121.583 1578.81 125.675 1621.1 122.292C1660.88 119.128 1699.95 109.852 1739.68 106.142C1759.11 104.341 1778.7 103.305 1798.18 104.614C1819.24 106.033 1840.09 110.289 1861.04 112.798C1886.85 115.908 1912.83 117.982 1938.75 117.818V-182H-29.2432V116.127C-11.1807 114.272 7.0455 114.599 25.2717 115.69Z" fill="#DADADA"/>
<path d="M443.532 7.5987C593.002 -1.57283 743.127 14.7819 892.543 18.6301C967.688 20.5542 1043 20.2335 1117.92 13.1785C1154.59 9.71509 1191.05 6.76483 1227.88 7.53445C1264.01 8.3041 1300.08 11.0619 1336.1 14.5894C1408.19 21.7085 1480.27 31.5856 1552.69 31.778C1626.25 31.9704 1699.65 22.9271 1772.99 17.2831C1828.49 12.9859 1883.66 12.0239 1939 13.0501L1939 -300L-29 -300L-28.9999 15.4876C125.818 52.4301 287.677 17.2192 443.532 7.5987Z" fill="#32BE69"/>
</g>
<defs>
<clipPath id="clip0_212_1183">
<rect width="2029" height="293" fill="white" transform="translate(-55)"/>
</clipPath>
</defs>
</svg>
