<svg width="1920" height="1233" fill="none" xmlns="http://www.w3.org/2000/svg"><path d="M1920.97-49.08H-1V1233h1921.97V-49.08z" fill="#E8F5FE"/><path fill-rule="evenodd" clip-rule="evenodd" d="M527.388 255.002H-.935l.033-166.33c14.541-6.572 34.05-9.874 53.395-9.874 17.122 0 34.114 2.583 47.414 7.815 28.331 11.117 48.003 33.776 50.094 57.71 6.405-1.373 12.94-2.027 19.443-2.027 40.552 0 80.712 25.013 83.849 55.944 17.711-2.877 35.814-5.787 53.787-5.787 6.012 0 12.025.327 18.005 1.079 23.854 3.008 47.414 14.615 53.59 32.141a216.57 216.57 0 0128.266-1.831c42.905 0 84.535 12.294 120.447 31.16z" fill="#FFFDF7"/><path fill-rule="evenodd" clip-rule="evenodd" d="M1920.93 1201.97h-232.36c-231.26 0-462.35-4.25-693.475-6.05 45.945-131.15 142.795-238.228 254.915-315.426 81.04-55.781 171.52-100.608 265.83-134.711l62.41 3.793c.1-.523.2-1.079.29-1.602.98-4.153 2.16-8.24 3.24-12.392 1.11-4.153 2.25-8.305 3.37-12.458.03-.098.06-.229.09-.327a1411.704 1411.704 0 0184.64-22.626c50.52-11.804 98.32-33.972 139.2-64.511 16.63-12.425 32.22-26.289 50.45-36.457 14.45-8.044 31.28-14.158 47.91-14.158 4.38 0 8.76.425 13.07 1.341 0 14.582.07 74.581.13 151.811.1 101.23.23 232.116.29 328.963v.07c.04 62.22.04 110.41 0 127.74.04 4.58 0 7 0 7z" fill="url(#paint0_radial_1415_2298)"/><path fill-rule="evenodd" clip-rule="evenodd" d="M1509.56 1115.52c-112.77 22.72-252-.23-367.88-1.01-132.8-.89-265.595-1.7-398.394-1.7H-.967l.032-700.045c202.01 0 437.35-22.856 611.388 82.494 84.013 50.844 161.719 115.649 254.522 146.319 53.002 17.525 109.174 23.247 161.985 41.329 83.58 28.642 125.21 82.821 202.76 125.033 75.61 41.133 152.21 85.077 201.81 159.299 13.82 20.665 25.03 43.001 36.24 65.231 13.95 27.69 27.87 55.39 41.79 83.05z" fill="url(#paint1_radial_1415_2298)"/><path fill-rule="evenodd" clip-rule="evenodd" d="M1194.33 523.248c-.56 17.754 1.86 36.097 10.72 51.465 13.78 23.901 41.4 37.176 68.78 40.446 27.38 3.302 55-1.929 82.09-7.128 45.06 46.168 126.85 49.372 175.37 6.866 2.36-2.092 4.81-4.316 7.85-5.133 7.05-1.929 13.46 4.185 18.98 9.024 27.61 24.163 68.17 24.294 104.8 22.823 35.26-1.406 71.27-3.205 104.01-16.349 32.74-13.144 62.18-39.857 68.95-74.516 8.79-44.991-21.64-88.02-54.57-119.867-16.9-16.316-35-31.52-55.23-43.454-30.39-17.951-64.76-28.087-99.47-34.463-85.32-15.695-174.46-8.436-256.58 19.226-70.32 23.705-172.99 64.445-175.7 151.06z" fill="#115A48"/><path fill-rule="evenodd" clip-rule="evenodd" d="M1603.51 143.113c-60.49-6.147-124.01 45.122-113.62 100.249-36.96-36.719-101.46-46.855-149.59-23.575-48.14 23.313-75.49 77.982-63.43 126.766-30.95-13.013-68.88-14.746-98.2 1.177-29.27 15.924-46.17 51.596-33.1 80.5 14.87 32.861 59.08 45.22 97.81 44.828-3.83 34.43 29.44 63.17 63.81 77.295 68.36 28.054 152.61 20.174 213.42-19.912 19.96 32.533 57.87 55.127 98.29 58.625 40.42 3.499 82.28-12.228 108.46-40.773 27.44 14.093 60.19 21.515 90.74 14.681 30.55-6.801 57.71-29.917 61.69-58.593 3.99-28.675-20.26-59.671-51.69-60.652 74.57 2.321 75.55-100.936 11.53-120.358-18.2-5.526-37.97-2.812-56.89-.065 17.03-26.321 22.06-62.059-9.83-81.612-23.86-14.583-59.8-8.468-76.37 13.014 2.97-31.226 5.62-57.384-20.19-80.631-19.09-17.101-46.4-28.25-72.84-30.964z" fill="url(#paint2_radial_1415_2298)"/><path fill-rule="evenodd" clip-rule="evenodd" d="M1758.56 489.537s-1.4 1.733-4.02 5.003c-2.61 3.269-6.37 8.108-11.76 13.928-5.23 6.017-11.93 12.785-19.74 20.469-7.84 7.651-16.86 16.087-26.56 25.242-4.91 4.577-9.87 9.416-15 14.386-2.62 2.453-5.07 5.101-7.65 7.717-1.27 1.308-2.58 2.648-3.89 3.989l-1.96 2.027-1.67 1.962c-5.06 5.787-10.26 11.705-15.58 17.787-5 6.147-9.51 12.588-14.41 19.03-1.18 1.635-2.45 3.171-3.6 4.872-1.11 1.733-2.19 3.498-3.33 5.231l-6.7 10.561c-4.74 6.932-8.4 14.583-12.58 22.038-4.31 7.357-7.61 15.302-11.18 23.149-1.69 3.957-3.69 7.782-5.13 11.869l-4.41 12.164c-1.4 4.087-3.04 8.076-4.24 12.196-1.15 4.152-2.26 8.305-3.37 12.457-1.08 4.153-2.26 8.24-3.24 12.392-.78 4.185-1.53 8.371-2.32 12.523-.75 4.153-1.53 8.272-2.28 12.392-.49 4.153-.98 8.273-1.47 12.392-.53 4.088-.98 8.142-1.6 12.164-.53 4.021-.59 8.076-.95 12.065-.69 7.945-1.57 15.76-1.67 23.476-.16 3.859-.29 7.651-.46 11.411-.19 3.761-.49 7.488-.26 11.15.2 7.324.17 14.518.23 21.449.43 6.932 1.05 13.602 1.37 20.076.2 6.507 1.25 12.621 1.96 18.507.79 5.885 1.25 11.542 2.13 16.806.98 5.264 1.86 10.169 2.71 14.714.39 2.321.75 4.512 1.08 6.637.16 1.079.36 2.093.52 3.106.26.981.49 1.962.72 2.878 1.83 7.52 3.17 13.536 4.02 17.689a535.39 535.39 0 011.27 6.408l-2.94 1.341s-1.24-1.897-3.56-5.493c-2.29-3.597-5.59-8.959-9.64-15.924-3.95-6.997-7.68-15.988-12.32-26.288-1.27-2.55-2.02-5.33-3-8.142-.95-2.844-1.93-5.754-2.91-8.762-1.9-6.049-4.22-12.36-5.49-19.193-1.57-6.769-3.07-13.897-4.58-21.286-.91-7.455-1.92-15.172-2.77-23.182-.56-3.989-.66-8.044-.76-12.164-.06-4.119-.16-8.272-.22-12.49-.53-8.468.65-17.002 1.24-25.765.49-4.349.75-8.763 1.43-13.144.72-4.382 1.61-8.796 2.46-13.21.85-4.414 1.69-8.861 2.68-13.307 1.24-4.382 2.48-8.763 3.72-13.177 1.24-4.414 2.52-8.796 3.79-13.242 1.47-4.382 3.11-8.698 4.67-13.047 1.54-4.348 3.11-8.697 4.68-13.046 1.6-4.316 3.62-8.501 5.42-12.751l5.52-12.687c1.8-4.25 4.19-8.207 6.24-12.327 4.29-8.141 8.34-16.315 13.37-23.901 4.9-7.618 9.25-15.498 14.8-22.463 2.65-3.564 5.3-7.095 7.88-10.594 1.3-1.733 2.61-3.498 3.92-5.231 1.34-1.7 2.84-3.335 4.25-4.97 5.75-6.507 11.27-13.144 16.89-19.095 5.78-5.624 11.44-11.117 16.93-16.479l2.28-2.191 2.19-1.896c1.47-1.243 2.91-2.518 4.35-3.728 2.88-2.452 5.65-4.937 8.53-7.226 5.65-4.61 11.08-9.057 16.37-13.21 10.52-8.37 20.16-15.89 28.56-22.757 4.25-3.367 8.01-6.735 11.6-9.743 3.63-2.976 6.73-5.886 9.61-8.501 5.78-5.101 10.06-9.581 13-12.556 2.94-2.975 4.51-4.578 4.51-4.578l2.32 2.093z" fill="#0F6F59"/><path fill-rule="evenodd" clip-rule="evenodd" d="M1550.34 425.876s.53 2.191 1.54 6.278c.98 4.12 2.65 10.005 4.02 17.95.69 3.924 1.73 8.338 2.35 13.079.66 4.741 1.44 9.907 2.13 15.4 1.24 11.019 2.54 23.444 3.49 36.948.98 13.504 1.87 28.087 3.14 43.258 1.21 15.596 2.19 31.683 3.37 48.522 1.11 16.807 2.38 34.136 3.26 51.76.49 8.828.98 17.689 1.51 26.615.26 4.447.49 8.926.75 13.406l.39 6.702.26 7.194c.62 17.918 1.64 35.868 2.84 53.525 1.12 17.656 2.06 35.018 1.93 51.824-.26 16.807-1.01 32.959-3.1 48.457a741.353 741.353 0 01-6.37 43.487c-4.68 26.877-10.23 49.144-14.84 64.675-2.29 7.749-4.28 13.83-5.78 17.983-1.44 4.12-2.36 6.343-2.36 6.343l-5.52-.294s-.72-2.289-1.83-6.539c-1.18-4.251-2.68-10.496-4.34-18.376-3.34-15.825-7.1-38.288-9.61-65.132-1.31-13.406-2.32-27.924-2.91-43.226-.52-15.269-1.31-31.618-.78-48.359.45-16.806 2.02-34.135 3.79-51.726 1.86-17.591 3.49-35.476 4.77-53.394l.42-6.245.33-6.703c.19-4.48.42-8.959.65-13.406.43-8.926.85-17.82 1.28-26.648.75-17.624 1.89-34.986 2.87-51.792 1.02-16.773 2.03-32.991 2.94-48.359.92-15.596 2.09-30.146 3.01-43.519.46-6.67.88-13.079 1.27-19.161.3-6.049.59-11.803.85-17.231.26-10.79.43-20.239.2-27.89.03-7.684-.62-13.929-.88-18.115-.3-4.217-.46-6.441-.46-6.441l5.42-.85z" fill="#0F6F59"/><path fill-rule="evenodd" clip-rule="evenodd" d="M1478.32 994.901s.59-2.354 1.83-6.703c1.21-4.251 3.01-10.496 5.26-18.441 2.29-7.88 4.87-17.395 7.81-28.185a984.027 984.027 0 008.76-36.13c2.88-13.177 5.66-27.4 7.94-42.375 2.19-15.008 4.09-30.703 5.43-46.888 1.3-16.185 2.41-32.893 1.96-49.928-.59-17.002-2.65-34.332-7.29-51.04-4.54-16.741-10.85-32.926-19.05-48.26-8.23-15.368-17.65-30.539-26.99-45.318-9.31-14.779-18.63-29.231-26.67-43.553-8.07-14.321-15.03-28.413-20.29-41.983-5.29-13.569-8.59-26.68-10.36-38.386-1.76-11.738-1.79-22.168-1.01-30.571.72-8.436 2.06-14.91 3.07-19.259 1.15-4.316 1.73-6.637 1.73-6.637l4.48 1.013s-.26 2.289-.78 6.54c-.4 4.283-.79 10.561-.4 18.473.4 7.913 1.67 17.461 4.61 27.989 2.94 10.561 7.52 22.038 13.79 33.972 6.24 11.967 14.25 24.359 23.46 37.111 9.25 12.719 19.51 25.896 30.39 39.694 10.82 13.864 22.26 28.316 32.65 44.664 10.55 16.316 19.51 34.495 26.33 53.296 6.97 18.834 11.8 38.419 15.1 57.972 3.17 19.553 4.18 39.171 2.94 57.906-1.34 18.735-4.87 36.555-9.64 52.871a299.091 299.091 0 01-16.6 44.664c-12.32 26.713-26.24 46.789-36.82 59.999-2.55 3.335-5.17 6.18-7.32 8.697a101.06 101.06 0 01-5.62 6.147c-3.11 3.27-4.87 4.938-4.87 4.938l-3.83-2.289z" fill="#0F6F59"/><path fill-rule="evenodd" clip-rule="evenodd" d="M1454.08 587.366s-3.24-.261-8.89-.752c-1.44-.13-2.91-.196-4.74-.457-1.86-.295-3.85-.654-6.01-.981-2.16-.36-4.41-.752-6.8-1.177-2.32-.524-4.67-1.21-7.19-1.831-2.48-.687-5.09-1.243-7.71-2.126-2.61-.915-5.29-1.864-8.07-2.844-1.37-.524-2.78-.949-4.18-1.537-1.38-.621-2.75-1.243-4.15-1.864-2.78-1.275-5.69-2.485-8.5-3.923-5.55-3.074-11.37-6.049-16.83-9.875-5.65-3.433-10.81-7.782-16.11-11.836-4.93-4.545-10.06-8.796-14.41-13.733-4.64-4.61-8.53-9.776-12.42-14.583-1.86-2.485-3.49-5.068-5.19-7.487-.85-1.243-1.67-2.453-2.48-3.63-.79-1.21-1.44-2.485-2.16-3.727a710.404 710.404 0 01-4.05-7.161c-1.28-2.321-2.26-4.708-3.3-6.932-1.02-2.223-2.06-4.348-2.91-6.408-.75-2.093-1.47-4.087-2.16-5.984-.68-1.863-1.31-3.629-1.89-5.231-.56-1.635-.89-3.172-1.25-4.545-1.43-5.493-2.25-8.632-2.25-8.632s1.14 3.041 3.14 8.338c.52 1.307.98 2.812 1.7 4.348.75 1.537 1.53 3.205 2.38 4.97.85 1.766 1.77 3.63 2.71 5.624 1.05 1.929 2.29 3.891 3.5 5.951 1.27 2.06 2.42 4.251 3.89 6.376 1.5 2.092 3.04 4.283 4.64 6.507.82 1.111 1.57 2.256 2.45 3.367.91 1.079 1.83 2.158 2.74 3.27 1.87 2.191 3.7 4.479 5.72 6.67 4.22 4.218 8.37 8.73 13.24 12.621 4.57 4.218 9.83 7.749 14.83 11.51 5.36 3.269 10.52 6.8 16.11 9.449 5.36 3.008 11.01 5.166 16.34 7.455 2.71 1.046 5.46 1.831 8.07 2.746 1.31.425 2.62.883 3.92 1.308 1.31.393 2.62.654 3.89.981 2.55.621 5.03 1.243 7.45 1.831 2.42.556 4.81.785 7.06 1.177 2.26.327 4.44.72 6.47.981 1.99.131 3.89.262 5.65.36 1.77.131 3.43.229 4.94.36 1.57.065 3.23-.033 4.64-.033 5.65-.098 8.92-.164 8.92-.164l-.75 21.253zm149.95 47.607s.56-.556 1.57-1.635c.56-.556 1.05-1.144 1.96-1.994 1.01-.85 2.19-1.831 3.53-2.943 1.34-1.046 2.78-1.864 4.38-2.91 1.6-.981 3.43-1.831 5.33-2.812 3.88-1.635 8.3-3.368 13.16-4.479 9.71-2.518 21.02-3.597 32.85-4.545 2.94-.262 5.91-.491 8.92-.752 2.97-.295 5.94-.622 9.05-1.014 3.1-.36 6.21-.719 9.21-1.242 3.01-.556 6.18-.785 9.12-1.603 2.97-.752 6.04-1.242 8.95-2.19 2.85-.981 5.66-1.929 8.47-2.91 2.77-1.374 5.55-2.747 8.26-4.12 2.58-1.472 4.87-3.172 7.32-4.709 1.24-.752 2.36-1.634 3.43-2.55 1.12-.915 2.19-1.798 3.3-2.681 2.23-1.7 4.19-3.662 6.12-5.526 3.95-3.629 7.22-7.553 10.42-11.019 2.97-3.662 5.78-6.964 8.1-10.038 2.32-3.073 4.38-5.722 6.02-7.945 3.26-4.479 5.13-7.03 5.13-7.03s-1.7 2.649-4.68 7.324c-1.47 2.322-3.36 5.101-5.49 8.338-2.12 3.204-4.73 6.703-7.48 10.594-3.01 3.695-6.04 7.88-9.87 11.836-1.83 2.06-3.72 4.153-5.91 6.049-1.08.981-2.13 1.995-3.24 2.975-1.08 1.014-2.19 2.028-3.43 2.91-2.45 1.799-4.93 3.826-7.51 5.526-2.65 1.537-5.33 3.074-8.01 4.643-3.01 1.275-6.05 2.518-9.08 3.826-3.01 1.177-6.18 1.929-9.25 2.91-3.11 1.013-6.28 1.504-9.38 2.256-3.14.752-6.21 1.275-9.28 1.864-3.01.588-6.14 1.144-9.22 1.634-3.03.458-6.04.883-8.98 1.341-11.7 1.668-22.39 3.433-30.88 6.245-4.32 1.308-7.91 3.008-11.01 4.545-1.47.883-2.88 1.668-4.06 2.485-1.11.883-2.28 1.635-3.1 2.354-.75.72-1.44 1.341-2.06 1.897-.62.621-1.27 1.471-1.73 1.994a80.679 80.679 0 01-1.47 1.733l-9.48-8.632zm-103.71 47.966s-3.4-2.19-9.32-6.048c-1.53-1.079-3.04-1.799-4.7-2.714-1.67-.916-3.5-1.897-5.43-2.943-1.86-1.079-4.28-2.125-6.66-3.27-2.42-1.144-4.97-2.321-7.65-3.596-5.52-2.453-11.53-5.101-17.87-7.913a860.119 860.119 0 01-20.1-9.155c-6.96-3.27-14.08-6.834-21.24-10.561-3.56-1.929-7.16-3.891-10.75-5.886-3.53-2.092-7.09-4.218-10.62-6.31-3.47-2.256-6.93-4.512-10.39-6.736-3.4-2.289-6.7-4.806-10-7.16l-1.24-.883-.72-.523-.59-.458-2.29-1.864a604.18 604.18 0 01-4.54-3.727c-3.04-2.355-5.95-5.265-8.82-7.848-2.94-2.583-5.56-5.362-8.07-8.076-2.55-2.681-5.07-5.297-7.26-8.109-2.19-2.779-4.51-5.329-6.4-8.043-1.9-2.714-3.73-5.362-5.49-7.88-1.8-2.485-3.07-5.166-4.55-7.553-1.34-2.452-2.84-4.643-3.79-6.932-1.99-4.577-4.02-8.37-5.19-11.738-2.29-6.703-3.63-10.528-3.63-10.528l4.61 10.103c1.47 3.204 3.85 6.801 6.24 11.019 1.14 2.158 2.88 4.152 4.38 6.408 1.67 2.191 3.14 4.643 5.13 6.899 1.93 2.289 3.95 4.643 6.04 7.096 2.1 2.419 4.58 4.675 6.96 7.128 2.36 2.485 5 4.773 7.75 7.095 2.68 2.354 5.46 4.774 8.43 6.899 3.01 2.191 5.75 4.545 9.12 6.637 1.63 1.079 3.26 2.158 4.9 3.237l2.48 1.635.62.425.53.262 1.27.719c3.4 1.929 6.73 3.989 10.19 5.886 3.5 1.798 7.03 3.629 10.53 5.427 3.59 1.668 7.19 3.368 10.75 5.036 3.62 1.536 7.25 3.073 10.85 4.61 7.25 2.91 14.44 5.657 21.5 8.142a919.842 919.842 0 0020.45 6.997c6.64 2.158 12.88 4.218 18.66 6.114 2.94 1.046 5.75 2.027 8.43 2.975 2.72.981 5.2 1.766 7.75 2.91 2.51 1.047 4.87 2.06 7.02 2.976 2.16.915 4.25 1.798 5.72 2.616 6.28 3.237 9.87 5.1 9.87 5.1l-12.87 22.103z" fill="#0F6F59"/><path fill-rule="evenodd" clip-rule="evenodd" d="M1353.46 601.622s-.52.033-1.5.131c-.49.033-1.11.098-1.8.164-.36.032-.75.065-1.14.098-.49 0-.98.032-1.5.032-1.08.033-2.26.033-3.53.066-1.21-.066-2.52-.131-3.92-.196-2.75-.197-5.85-.524-9.12-1.145-13.23-2.256-29.57-8.338-44.67-16.381-1.89-1.014-3.76-2.027-5.62-3.106l-2.84-1.635-2.65-1.668c-3.5-2.125-6.96-4.741-10.16-7.193-1.54-1.308-3.04-2.616-4.51-3.858-1.44-1.308-2.71-2.714-4.02-3.989a37.246 37.246 0 01-3.6-3.989c-1.07-1.341-2.22-2.583-3.13-3.891-.92-1.308-1.77-2.583-2.58-3.793-.43-.589-.82-1.177-1.21-1.766-.33-.621-.66-1.21-.95-1.765-1.18-2.322-2.45-4.186-3.04-5.984-1.37-3.433-2.16-5.395-2.16-5.395s.98 1.864 2.65 5.134c.75 1.667 2.19 3.433 3.53 5.591.36.523.72 1.079 1.11 1.635.43.523.88 1.046 1.34 1.602.92 1.111 1.86 2.256 2.88 3.466 1.01 1.177 2.25 2.256 3.39 3.465 1.18 1.21 2.42 2.42 3.83 3.499 1.37 1.112 2.74 2.354 4.25 3.466 1.53 1.079 3.07 2.191 4.67 3.302 3.27 2.06 6.53 4.12 10.32 5.951l2.78 1.406 2.75 1.243c1.89.85 3.79 1.667 5.72 2.485 15.32 6.408 31.43 10.626 43.33 11.476 2.97.262 5.68.294 8.03.229 1.18-.033 2.26-.098 3.27-.131.95-.098 1.8-.196 2.58-.294.4-.033.75-.065 1.11-.098.4-.065.79-.131 1.15-.196.72-.131 1.3-.262 1.8-.327.98-.196 1.5-.295 1.5-.295l1.66 12.654z" fill="#0F6F59"/><path fill-rule="evenodd" clip-rule="evenodd" d="M1221.87 403.577s24.09-18.441 32.62 7.095c-.04 0-14.19 11.313-32.62-7.095zm89.28-92.206s-7.09 22.692 16.99 26.943c.03.032 8.53-22.659-16.99-26.943zm26.92 147.496s14.19-9.939 19.84 11.346c.03 0-9.9 5.69-19.84-11.346z" fill="#41AE5B"/><path fill-rule="evenodd" clip-rule="evenodd" d="M1328.17 338.346s-15.23-8.501-21.6 10.627c-.03 0 21.93 7.455 21.6-10.627zm-73.72 72.326s-18.07 3.204-17.02 22.332c.03 0 25.52-1.079 17.02-22.332zm183.91-130.853s-12.74-18.082 0-29.787c0 .033 16.99 14.91 0 29.787z" fill="#41AE5B"/><path fill-rule="evenodd" clip-rule="evenodd" d="M1233.21 487.772s-11.17-2.649-13.82 11.705c0 0 13.82-1.602 13.82-11.705zm85.03 74.974s-9.58-13.831-25.52-7.455c.03 0 13.85 19.16 25.52 7.455z" fill="#0F6F59"/><path fill-rule="evenodd" clip-rule="evenodd" d="M1318.24 562.745s-13.82-3.204-15.95 14.354c0 0 16.5-.523 15.95-14.354z" fill="#0F6F59"/><defs><radialGradient id="paint0_radial_1415_2298" cx="0" cy="0" r="1" gradientUnits="userSpaceOnUse" gradientTransform="matrix(380.88044 11.85853 -11.45618 367.9577 1643.28 565.443)"><stop stop-color="#126D59"/><stop offset="1" stop-color="#154C3D"/></radialGradient><radialGradient id="paint1_radial_1415_2298" cx="0" cy="0" r="1" gradientUnits="userSpaceOnUse" gradientTransform="rotate(14.841 -712.273 1634.793) scale(1117.12 658.457)"><stop stop-color="#41AE5B"/><stop offset="1" stop-color="#126D59"/></radialGradient><radialGradient id="paint2_radial_1415_2298" cx="0" cy="0" r="1" gradientUnits="userSpaceOnUse" gradientTransform="rotate(41.677 380.328 1714.661) scale(545.972 503.238)"><stop stop-color="#41AE5B"/><stop offset="1" stop-color="#126D59"/></radialGradient></defs></svg>