<svg width="869" height="577" fill="none" xmlns="http://www.w3.org/2000/svg"><path fill-rule="evenodd" clip-rule="evenodd" d="M105.455 101.059c0 8.534 7.091 15.466 15.848 15.466 8.757 0 15.848-6.932 15.848-15.466 0-8.534-7.091-15.466-15.848-15.466-8.757 0-15.848 6.932-15.848 15.466z" fill="url(#paint0_linear_1415_2301)"/><path fill-rule="evenodd" clip-rule="evenodd" d="M592.278 362.602h-.719c.098-1.243.196-2.485.294-3.695 0-.229.033-.491.033-.719 2.222 2.256 4.182 4.185 4.476 4.185a34.3 34.3 0 01-4.084.229z" fill="#0F5E4D"/><path fill-rule="evenodd" clip-rule="evenodd" d="M115.813 133.56c2.614 0 2.614-4.055 0-4.055-2.614.033-2.614 4.055 0 4.055z" fill="#F7B599"/><path fill-rule="evenodd" clip-rule="evenodd" d="M551.856 122.345s-17.352.882-19.018 19.945c-1.242 14.256 1.503 20.632-9.313 32.043 0 0 31.697 18.702 77.151 4.937 0 0-8.529-14.746-8.3-28.773.228-13.995-3.758-20.174-11.078-25.471-7.287-5.264-22.122-8.403-29.442-2.681z" fill="url(#paint1_linear_1415_2301)"/><path fill-rule="evenodd" clip-rule="evenodd" d="M635.64 562.315l13.3 6.572c1.405.686 2.255 2.289 1.83 3.793-.36 1.177-1.471 2.288-4.444 2.354-6.569.131-35.684-4.414-35.684-4.414v3.302h-13.528s-.915-17.231 3.202-19.487l35.324 7.88z" fill="url(#paint2_linear_1415_2301)"/><path fill-rule="evenodd" clip-rule="evenodd" d="M616.295 548.353l-3.398-49.176-21.404-2.027 8.823 57.285s12.712 5.918 22.874 9.841c10.163 3.924 12.45-1.961 12.45-1.961l-19.345-13.962z" fill="url(#paint3_linear_1415_2301)"/><path fill-rule="evenodd" clip-rule="evenodd" d="M615.282 533.607l-17.58 3.923-.588-3.923h18.168z" fill="url(#paint4_linear_1415_2301)"/><path fill-rule="evenodd" clip-rule="evenodd" d="M483.332 562.315l-13.299 6.572c-1.406.686-2.255 2.289-1.83 3.793.359 1.177 1.47 2.092 4.444 2.158 6.568.13 35.683-4.218 35.683-4.218v3.302h13.463s1.013-17.231-3.104-19.487l-35.357 7.88z" fill="url(#paint5_linear_1415_2301)"/><path fill-rule="evenodd" clip-rule="evenodd" d="M506.075 499.144l-3.398 49.176-19.345 13.962s2.288 5.885 12.45 1.962c10.163-3.924 22.874-9.842 22.874-9.842l8.823-57.285-21.404 2.027z" fill="url(#paint6_linear_1415_2301)"/><path fill-rule="evenodd" clip-rule="evenodd" d="M522.055 532.462l-18.267.131-.327 4.48 18.594-4.611z" fill="url(#paint7_linear_1415_2301)"/><path fill-rule="evenodd" clip-rule="evenodd" d="M578.292 269.612s18.364 5.95 31.925 68.238 18.365 149.491 20.75 195.757h-49.113l-25.717-192.716-12.156 191.44-49.31.327s2.843-242.055 41.271-263.046h42.35z" fill="url(#paint8_linear_1415_2301)"/><path d="M543.241 335.491l-.371.978 12.95 4.925.371-.978-12.95-4.925zm86.55 175.947h-50.127v1.046h50.127v-1.046zm-85.059 0H495.39v1.046h49.342v-1.046z" fill="#030507"/><path fill-rule="evenodd" clip-rule="evenodd" d="M516.598 206.899c-7.974 12.392-32.253 31.683-69.733 44.697l-3.987 23.182s63.786-15.989 88.98-42.147l6.176-38.549c-.033-.033-13.463.425-21.436 12.817z" fill="url(#paint9_linear_1415_2301)"/><path fill-rule="evenodd" clip-rule="evenodd" d="M535.91 269.612c-.719.98 42.349 0 42.349 0v-6.344l-42.643.131c.032-.033 1.045 5.232.294 6.213z" fill="#F5ACA3"/><path fill-rule="evenodd" clip-rule="evenodd" d="M657.762 267.094a13.308 13.308 0 00-1.927-6.768l-31.109-38.452c-10.914-20.632-27.678-20.468-27.678-20.468l-14.606 2.419-5.032 23.313 12.123 12.49a71.678 71.678 0 004.313-7.945l33.102 33.809-38.755 27.367-8.79-2.289 10.587 20.665 10.392-6.441-.197-.229 48.82-24.687c5.49-1.831 8.986-7.127 8.757-12.784z" fill="url(#paint10_linear_1415_2301)"/><path d="M577.349 285.442l-.931.476 16.142 31.584.931-.476-16.142-31.584z" fill="#030507"/><path fill-rule="evenodd" clip-rule="evenodd" d="M582.05 197.417l14.998 3.989s-12.646 14.387-7.483 38.223l-11.241 23.607-42.643.131-9.117-28.185c-2.516-7.749-4.444-15.956-.621-23.149l9.738-17.886 9.346-.392 37.023 3.662z" fill="#fff"/><path fill-rule="evenodd" clip-rule="evenodd" d="M572.475 194.343l-1.307-24.784L553 177.243l.13 14.942-10.326 1.406s5.556 17.951 40.945 4.284l-11.274-3.532z" fill="url(#paint11_linear_1415_2301)"/><path fill-rule="evenodd" clip-rule="evenodd" d="M546.039 156.807c.066 4.447-3.496 8.109-7.94 8.207-4.444.065-8.104-3.499-8.202-7.945-.065-4.447 3.496-8.109 7.941-8.207 4.476-.066 8.136 3.498 8.201 7.945z" fill="url(#paint12_linear_1415_2301)"/><path fill-rule="evenodd" clip-rule="evenodd" d="M553.065 187.379l17.09-14.322-17.221 2.583.131 11.739z" fill="url(#paint13_linear_1415_2301)"/><path fill-rule="evenodd" clip-rule="evenodd" d="M553.522 180.349c-10.293-.523-18.429-9.94-18.299-18.376l.425-18.277c.196-10.561 8.725-19.095 19.28-19.226 10.816-.163 21.599 8.436 21.763 19.259l-.556 15.988c-.425 12.36-10.261 20.436-22.613 20.632z" fill="url(#paint14_linear_1415_2301)"/><path fill-rule="evenodd" clip-rule="evenodd" d="M547.968 163.412h-.066l-1.405-.131a1.488 1.488 0 01-1.111-.621c-.261-.36-.392-.818-.294-1.243l.458-2.55a.572.572 0 01.62-.458.573.573 0 01.458.622l-.458 2.55c-.032.131 0 .261.098.392.098.098.196.196.36.196l1.405.131a.546.546 0 01.49.589c-.065.327-.294.523-.555.523z" fill="url(#paint15_linear_1415_2301)"/><path fill-rule="evenodd" clip-rule="evenodd" d="M557.084 146.802s-4.378-.589-4.509 1.177c0 0-.065 1.21 3.758 1.668 3.823.457 5.98.425 6.372-.72.425-1.111-3.562-1.994-5.621-2.125z" fill="url(#paint16_linear_1415_2301)"/><path fill-rule="evenodd" clip-rule="evenodd" d="M539.798 146.508s3.66-.164 3.856 1.504c0 0 .098 1.144-3.072 1.242-3.202.098-4.215-.36-4.444-1.308-.294-1.046 1.961-1.504 3.66-1.438z" fill="url(#paint17_linear_1415_2301)"/><path fill-rule="evenodd" clip-rule="evenodd" d="M541.89 154.486c-.033 1.013-.85 1.831-1.896 1.798-1.013-.033-1.83-.883-1.797-1.896.033-1.014.882-1.831 1.895-1.799 1.013.033 1.83.883 1.798 1.897z" fill="url(#paint18_linear_1415_2301)"/><path fill-rule="evenodd" clip-rule="evenodd" d="M558.097 154.845c-.032 1.014-.882 1.831-1.895 1.799-1.013-.033-1.83-.883-1.797-1.897.033-1.013.882-1.831 1.895-1.798 1.013 0 1.797.85 1.797 1.896z" fill="url(#paint19_linear_1415_2301)"/><path fill-rule="evenodd" clip-rule="evenodd" d="M543 166.159l10.98-.72s-1.863 2.027-6.895 2.027c-3.268 0-4.085-1.307-4.085-1.307z" fill="#EA536B"/><path fill-rule="evenodd" clip-rule="evenodd" d="M577.867 131.729c-8.659-8.338-15.358-9.319-15.358-9.319l-12.614.261s-1.927.818-3.79 2.289a30.96 30.96 0 00-1.863.622c-7.777 2.779-10.783 12.915-8.594 18.114 0 0 5.163-3.597 8.986-8.305 5.065 7.226 19.117 15.759 33.233 18.31 0 0 8.659-13.635 0-21.972z" fill="url(#paint20_linear_1415_2301)"/><path fill-rule="evenodd" clip-rule="evenodd" d="M585.677 158.344a8.114 8.114 0 01-8.006 8.24 8.113 8.113 0 01-8.235-8.011c-.065-4.48 3.529-8.174 8.006-8.24a8.113 8.113 0 018.235 8.011z" fill="url(#paint21_linear_1415_2301)"/><path fill-rule="evenodd" clip-rule="evenodd" d="M574.763 161.45a.552.552 0 01-.556-.556c0-.13-.032-2.942 1.863-4.577 1.078-.948 2.549-1.275 4.346-1.014.294.033.523.327.457.621-.032.295-.326.491-.621.458-1.47-.229-2.614.033-3.463.752-1.503 1.308-1.471 3.728-1.471 3.728 0 .359-.229.588-.555.588z" fill="url(#paint22_linear_1415_2301)"/><path fill-rule="evenodd" clip-rule="evenodd" d="M167.606 562.315l13.136 7.226c1.406.752 2.222 2.517 1.798 4.185-.327 1.308-1.471 2.321-4.379 2.387-6.503.131-35.193-4.643-35.193-4.643v3.368l-13.333-1.668s-.914-17.002 3.137-19.487l34.834 8.632z" fill="url(#paint23_linear_1415_2301)"/><path fill-rule="evenodd" clip-rule="evenodd" d="M150.19 548.091v-55.519l-17.417 1.406 1.83 52.119-1.83 7.52s12.548 6.507 22.58 10.856c10.031 4.316 12.286-2.158 12.286-2.158l-17.449-14.224z" fill="url(#paint24_linear_1415_2301)"/><path fill-rule="evenodd" clip-rule="evenodd" d="M85.881 562.315l-13.136 7.226c-1.405.752-2.222 2.517-1.797 4.185.327 1.308 1.47 2.321 4.378 2.387 6.503.131 35.194-4.643 35.194-4.643v3.368l13.332-1.668s.948-17.002-3.137-19.487l-34.834 8.632z" fill="url(#paint25_linear_1415_2301)"/><path fill-rule="evenodd" clip-rule="evenodd" d="M118.918 546.13l-1.34-52.119-17.417-1.406 2.876 55.748-17.156 13.995s2.255 6.506 12.287 2.158c10.032-4.316 22.58-10.856 22.58-10.856l-1.83-7.52z" fill="url(#paint26_linear_1415_2301)"/><path fill-rule="evenodd" clip-rule="evenodd" d="M147.085 281.088s21.011 13.308 16.861 74.059c-4.15 60.751-10.554 177.74-10.554 177.74h-21.436l-7.255-200.497-3.529-.164.098 200.629H99.834L82.973 350.602s-4.935-40.544 14.9-69.514c-2.777 1.864 25.815-13.504 49.212 0z" fill="url(#paint27_linear_1415_2301)"/><path fill-rule="evenodd" clip-rule="evenodd" d="M134.145 331.703l-21.534.981c-.36 0-.654.327-.654.687.033.359.327.654.686.654l21.535-.981c.359-.033.653-.327.653-.687 0-.392-.294-.654-.686-.654z" fill="#000001"/><path fill-rule="evenodd" clip-rule="evenodd" d="M194.99 251.334s-11.633-18.703-20.554-38.484c-4.738-10.529-10.849-14.223-15.489-15.368l-17.319-4.087-41.826-1.21-15.457 4.12c-4.803.556-12.058 3.597-17.482 15.695-8.92 19.781-17.94 42.408-17.94 42.408l16.535 4.446 21.469-31.879c5.359 22.953 10.98 47.476 10.98 47.476 24.213-4.153 49.178 0 49.178 0 2.19-11.836 4.967-29.656 7.287-45.155l21.469 30.441 19.149-8.403z" fill="url(#paint28_linear_1415_2301)" stroke="#D9DADA" stroke-width=".567" stroke-miterlimit="22.926"/><path fill-rule="evenodd" clip-rule="evenodd" d="M241.62 221.318l5.555 8.207-54.342 36.457c-6.176 3.989-14.443 1.177-16.927-5.722-2.058-5.754.752-12.097 6.372-14.452l59.342-24.49z" fill="url(#paint29_linear_1415_2301)"/><path fill-rule="evenodd" clip-rule="evenodd" d="M147.085 274.451v6.637s-24.573-2.779-49.179 0v-6.637l24.639-7.161 24.54 7.161z" fill="#180302"/><path fill-rule="evenodd" clip-rule="evenodd" d="M119.865 202.354c-17.874 0-20.064-10.169-20.064-10.169l13.529-5.101 1.666-17.165c2.32 1.569 14.77 10.332 14.77 10.332l-.621-9.384 1.177 17.329 9.051 4.153 2.255 1.046s-.327 4.904-9.15 7.455c-3.039.883-7.123 1.471-12.515 1.471-.033.033-.065.033-.098.033zm-4.836-32.697l.228-2.223 12.418.261-12.646 1.962z" fill="url(#paint30_linear_1415_2301)"/><path fill-rule="evenodd" clip-rule="evenodd" d="M87.94 227.433l-1.634-8.698c-.066-.359-.425-.588-.785-.523-.359.065-.588.425-.522.785l1.633 8.697a.67.67 0 00.785.523c.36-.065.588-.425.523-.784z" fill="#000001"/><path fill-rule="evenodd" clip-rule="evenodd" d="M64.412 252.184l-26.599-58.266a13.336 13.336 0 00-.294-2.256l-.556-2.518c-.751-3.367-2.254-6.539-4.444-9.22l-3.856-4.741c-.915-1.112-2.614-1.145-3.561-.066-.817.916-.98 2.224-.425 3.336l2.908 5.787L8.96 171.979c-.882-.622-2.124-.327-2.647.653l-.327.654c-.392.752-.196 1.701.458 2.257l12.221 8.697-15.423-8.044c-.948-.555-2.157-.196-2.582.818l-.229.49c-.359.85-.065 1.831.72 2.289l13.233 7.88-11.371-3.76c-1.079-.392-2.255.327-2.418 1.471l-.033.229c-.098.785.327 1.537 1.046 1.897l11.535 4.773-6.503-1.079c-1.274-.392-2.516.654-2.353 1.995.098.621.49 1.177 1.079 1.406l24.605 9.809 12.908 55.389c1.797 7.127 9.738 10.724 16.273 7.389 5.523-2.877 7.81-9.449 5.261-15.008z" fill="url(#paint31_linear_1415_2301)"/><path fill-rule="evenodd" clip-rule="evenodd" d="M27.062 184.011c-.032.065-.62 1.504-.62 3.76 0 1.864.424 4.283 1.927 6.834.164.294.556.392.817.229.294-.164.392-.556.229-.818-1.372-2.354-1.765-4.545-1.765-6.212 0-1.014.131-1.864.262-2.42.065-.294.13-.523.196-.654l.065-.163v-.033c.131-.294-.032-.654-.326-.785-.327-.196-.654-.032-.785.262z" fill="#EB967A"/><path fill-rule="evenodd" clip-rule="evenodd" d="M143.654 144.546s4.085-3.172 7.091.588c4.542 5.755-3.399 16.153-10.326 10.79l3.235-11.378z" fill="url(#paint32_linear_1415_2301)"/><path fill-rule="evenodd" clip-rule="evenodd" d="M143.033 152.851l-.163-.033c-.163-.098-.261-.294-.163-.49 2.581-5.036 5.097-4.316 5.195-4.284a.354.354 0 01.229.458.353.353 0 01-.457.229c-.033 0-2.092-.49-4.347 3.924-.032.13-.163.196-.294.196z" fill="#000001"/><path fill-rule="evenodd" clip-rule="evenodd" d="M142.674 170.474c-2.68 0-5.588-2.746-5.98-8.01-.033-.393.261-.752.653-.752.36-.033.752.261.752.654.327 4.348 2.581 6.67 4.542 6.67 2.451 0 4.411-2.812 4.411-6.245 0-3.433-1.993-6.245-4.411-6.245a.726.726 0 01-.719-.72c0-.392.327-.719.719-.719 3.235 0 5.849 3.433 5.849 7.684 0 4.25-2.614 7.683-5.816 7.683z" fill="url(#paint33_linear_1415_2301)"/><path fill-rule="evenodd" clip-rule="evenodd" d="M99.736 144.546s-4.085-3.172-7.091.588c-4.542 5.755 3.398 16.153 10.326 10.79l-3.235-11.378z" fill="url(#paint34_linear_1415_2301)"/><path fill-rule="evenodd" clip-rule="evenodd" d="M100.357 152.851a.361.361 0 01-.327-.196c-2.287-4.447-4.313-3.924-4.346-3.924-.163.065-.392-.065-.457-.229a.354.354 0 01.228-.458c.099-.032 2.615-.752 5.196 4.284.098.163.033.392-.163.49l-.131.033z" fill="url(#paint35_linear_1415_2301)"/><path fill-rule="evenodd" clip-rule="evenodd" d="M100.749 170.474c-3.235 0-5.85-3.433-5.85-7.683 0-4.251 2.615-7.684 5.85-7.684.392 0 .719.327.719.719 0 .393-.327.72-.719.72-2.418 0-4.411 2.812-4.411 6.245 0 3.433 1.993 6.245 4.411 6.245 1.895 0 4.738-3.008 4.738-7.128 0-.392.327-.719.719-.719.392 0 .719.327.719.719-.033 4.741-3.398 8.566-6.176 8.566z" fill="url(#paint36_linear_1415_2301)"/><path fill-rule="evenodd" clip-rule="evenodd" d="M95.357 133.658c0 14.125 11.732 25.569 26.207 25.569 14.476 0 26.207-11.444 26.207-25.569 0-14.125-11.731-25.569-26.207-25.569-14.475.032-26.207 11.476-26.207 25.569z" fill="url(#paint37_linear_1415_2301)"/><path fill-rule="evenodd" clip-rule="evenodd" d="M129.145 170.899l-.228-3.204-1.275-.033 1.242-.196.261 3.433zm-14.149-.98c-.196-.131-.294-.197-.359-.229l.392-.066-.033.295z" fill="#fff"/><path fill-rule="evenodd" clip-rule="evenodd" d="M129.766 180.284s-12.417-8.796-14.77-10.333l.033-.294 12.646-1.962 1.274.033.229 3.204.588 9.352z" fill="url(#paint38_linear_1415_2301)"/><path fill-rule="evenodd" clip-rule="evenodd" d="M143.687 131.761s2.745 39.465-21.24 39.465c-25.946 0-23.234-39.465-23.234-39.465s.13-17.754 22.417-17.754c20.456 0 22.057 17.754 22.057 17.754z" fill="url(#paint39_linear_1415_2301)"/><path fill-rule="evenodd" clip-rule="evenodd" d="M129.439 145.592c0 1.046.85 1.896 1.896 1.896a1.897 1.897 0 000-3.792c-1.046 0-1.896.85-1.896 1.896z" fill="url(#paint40_linear_1415_2301)"/><path fill-rule="evenodd" clip-rule="evenodd" d="M110.52 145.592c0 1.046.849 1.896 1.895 1.896a1.897 1.897 0 000-3.792c-1.046 0-1.895.85-1.895 1.896z" fill="url(#paint41_linear_1415_2301)"/><path fill-rule="evenodd" clip-rule="evenodd" d="M128.655 157.134h-11.96s.817 3.041 5.915 3.041c5.097 0 6.045-3.041 6.045-3.041z" fill="#E3000F"/><path fill-rule="evenodd" clip-rule="evenodd" d="M123.361 150.333v2.714l-1.895.033c-.196 0-.359.163-.327.36 0 .196.164.359.36.359l2.255-.033c.196 0 .326-.163.326-.359v-3.074a.362.362 0 00-.359-.359c-.196.032-.36.163-.36.359z" fill="#000001"/><path fill-rule="evenodd" clip-rule="evenodd" d="M112.578 134.9s4.869-.948 5.098 1.668c0 0 .13 1.765-4.118 2.485-4.248.719-7.221.915-7.712-.72-.555-1.602 4.445-3.204 6.732-3.433z" fill="url(#paint42_linear_1415_2301)"/><path fill-rule="evenodd" clip-rule="evenodd" d="M134.831 135.162s4.935.229 4.542 2.812c0 0-.294 1.765-4.607 1.438-4.281-.294-7.352-.784-7.352-2.681.032-2.19 5.163-1.896 7.417-1.569z" fill="url(#paint43_linear_1415_2301)"/><path fill-rule="evenodd" clip-rule="evenodd" d="M145.419 132.513c-.49-15.236-8.986-18.244-14.117-18.669v-.066s-1.83-4.512-16.992-1.733c-15.195 2.779-17.155 19.716-17.155 19.716 19.639.654 28.135-7.062 31.729-12.588 4.412 10.071 16.535 13.34 16.535 13.34z" fill="url(#paint44_linear_1415_2301)"/><path fill-rule="evenodd" clip-rule="evenodd" d="M401.836 546.653h-22.123l-36.631 19.618 62.969-.752-4.215-18.866z" fill="url(#paint45_linear_1415_2301)"/><path fill-rule="evenodd" clip-rule="evenodd" d="M390.595 570.031c2.091 0 3.758 1.733 3.79 3.891l11.862-.033-.229-8.403-62.968.752.228 8.305 43.493-.523c.033-2.223 1.732-3.989 3.824-3.989z" fill="#180302"/><path fill-rule="evenodd" clip-rule="evenodd" d="M371.642 557.214l-.36-.033-7.254-1.995c-.719-.196-1.144-.948-.947-1.634.196-.72.947-1.145 1.633-.948l7.255 1.994a1.36 1.36 0 01.947 1.668c-.13.555-.686.948-1.274.948zm7.091-3.662l-.36-.033-7.254-1.994c-.719-.196-1.144-.948-.948-1.635a1.361 1.361 0 011.667-.948l7.254 1.994c.719.197 1.144.949.948 1.668-.163.556-.719.948-1.307.948z" fill="#fff"/><path d="M401.868 515.427h-22.58v31.226h22.58v-31.226z" fill="url(#paint46_linear_1415_2301)"/><path fill-rule="evenodd" clip-rule="evenodd" d="M441.734 546.653h22.155l36.599 19.618-62.969-.752 4.215-18.866z" fill="url(#paint47_linear_1415_2301)"/><path fill-rule="evenodd" clip-rule="evenodd" d="M452.975 570.031c-2.091 0-3.758 1.733-3.79 3.891h-11.829l.196-8.436 62.968.752-.228 8.305-43.494-.523c0-2.223-1.731-3.989-3.823-3.989z" fill="#180302"/><path fill-rule="evenodd" clip-rule="evenodd" d="M473.071 558.326c-.49 0-.947-.262-1.209-.752-.326-.654-.065-1.472.589-1.799l6.11-3.106c.654-.327 1.471-.065 1.797.589.327.654.066 1.471-.588 1.798l-6.11 3.106a1.01 1.01 0 01-.589.164zm-5.979-4.774a1.34 1.34 0 01-1.242-.85c-.261-.687.065-1.472.752-1.733l4.999-1.995c.686-.261 1.471.066 1.732.752.261.687-.065 1.472-.752 1.733l-4.999 1.995a1.321 1.321 0 01-.49.098z" fill="#fff"/><path fill-rule="evenodd" clip-rule="evenodd" d="M461.896 515.427h-22.58l2.418 31.226h22.58l-2.418-31.226z" fill="url(#paint48_linear_1415_2301)"/><path fill-rule="evenodd" clip-rule="evenodd" d="M453.923 279.715c1.699 18.114 15.26 257.913 15.26 257.913h-35.226l-15.456-213.02-6.339.131-4.118 212.889h-33.657s-1.928-222.502.131-257.357l79.405-.556z" fill="#00A2D4"/><path fill-rule="evenodd" clip-rule="evenodd" d="M403.273 325.425h25.815c.36 0 .654-.294.654-.654a.656.656 0 00-.654-.654h-25.815a.656.656 0 00-.653.654c0 .393.294.654.653.654z" fill="#000001"/><path fill-rule="evenodd" clip-rule="evenodd" d="M471.895 303.715l10.326 26.353 7.973-.85-6.045-34.103-12.254 8.6z" fill="#F7B599"/><path fill-rule="evenodd" clip-rule="evenodd" d="M481.829 325.916s-4.084 7.389-.751 16.25l-1.536 8.959c-.229 1.406.523 2.779 1.764 3.27 1.373.523 2.811-.196 3.301-1.635l1.764-5.133.327 1.896c.523 3.008.098 6.114-1.209 8.763l-3.725 7.585c-.425.851-.36 1.93.131 2.747.98 1.635 3.137 1.7 4.15.163l6.078-9.253c2.352-3.596 3.136-8.141 2.124-12.49l-5.392-23.346-7.026 2.224z" fill="url(#paint49_linear_1415_2301)"/><path fill-rule="evenodd" clip-rule="evenodd" d="M492.939 325.229s-13.365-97.535-26.272-133.927c-6.438-18.179-18.528-21.22-18.528-21.22l-7.548-3.368-51.467-.065-10.587 4.447c-.556.229-1.111.523-1.601.817-33.625 17.395-61.009 48.392-61.009 48.392l18.43 22.201 37.056-23.542v75.399h86.823l-.033-9.744 11.634 44.959 23.102-4.349z" fill="url(#paint50_linear_1415_2301)" stroke="#D9DADA" stroke-width=".567" stroke-miterlimit="22.926"/><path fill-rule="evenodd" clip-rule="evenodd" d="M426.866 160.796l-1.928-23.672s-4.28 3.008-8.169 3.76c-3.889.752-7.679-1.504-7.712-1.537l-4.542-2.616-1.83 24.36-13.593 5.591c25.651 23.378 51.466.065 51.466.065l-13.692-5.951z" fill="url(#paint51_linear_1415_2301)"/><path fill-rule="evenodd" clip-rule="evenodd" d="M388.111 167.532c.066.065 2.386 2.812 6.862 5.558 4.477 2.747 11.143 5.493 19.803 5.493 8.626 0 15.325-2.713 19.835-5.46 4.509-2.714 6.862-5.46 6.927-5.526l-1.96-1.7v.033c-.196.229-2.517 2.779-6.699 5.231-4.183 2.452-10.261 4.839-18.103 4.839-8.072 0-14.247-2.55-18.43-5.1a31.329 31.329 0 01-4.706-3.499c-.522-.458-.915-.85-1.176-1.144l-.294-.295-.065-.065-1.994 1.635z" fill="#fff"/><path fill-rule="evenodd" clip-rule="evenodd" d="M458.825 281.612l-.262-74.746a.656.656 0 00-.653-.654.656.656 0 00-.654.654l.229 74.746c0 .359.294.653.653.653.392-.032.687-.326.687-.653zm-86.791-62.583v-12.555a.655.655 0 00-.653-.654.656.656 0 00-.654.654v12.555c0 .36.294.654.654.654.359-.032.653-.294.653-.654z" fill="#000001"/><path fill-rule="evenodd" clip-rule="evenodd" d="M427.552 79.185c-17.286-8.828-27.056 4.381-27.056 4.381-20.097 5.297-8.137 26.223-8.137 26.223l5.653-7.357 38.265 7.259s10.261-20.828-8.725-30.506z" fill="#B65A00"/><path fill-rule="evenodd" clip-rule="evenodd" d="M401.411 119.467c.13 4.185-3.17 7.684-7.353 7.782-4.182.131-7.679-3.171-7.777-7.357-.13-4.185 3.17-7.683 7.353-7.782 4.182-.13 7.646 3.172 7.777 7.357z" fill="url(#paint52_linear_1415_2301)"/><path fill-rule="evenodd" clip-rule="evenodd" d="M389.745 119.009c.033-.032.359-.13.817-.13.49 0 1.144.13 1.895.654.785.523 1.667 1.438 2.549 3.073a.478.478 0 00.621.196c.229-.13.294-.392.196-.621-.948-1.733-1.928-2.779-2.843-3.4-.915-.622-1.765-.818-2.418-.785-.719 0-1.176.229-1.209.229-.229.098-.327.392-.229.621.098.196.392.294.621.163z" fill="#DB7267"/><path fill-rule="evenodd" clip-rule="evenodd" d="M429.056 119.663c0 4.186 3.398 7.586 7.581 7.586 4.182 0 7.581-3.4 7.581-7.586 0-4.185-3.399-7.585-7.581-7.585a7.567 7.567 0 00-7.581 7.585z" fill="url(#paint53_linear_1415_2301)"/><path fill-rule="evenodd" clip-rule="evenodd" d="M441.081 118.061c-.033-.032-.458-.196-1.111-.196-.654 0-1.503.164-2.418.818-.915.654-1.896 1.733-2.81 3.531-.131.229-.033.49.196.621a.44.44 0 00.62-.196c.883-1.7 1.765-2.648 2.517-3.204.784-.523 1.437-.654 1.895-.654.261 0 .457.032.588.065l.131.033h.032c.229.098.523 0 .621-.229.066-.196-.032-.491-.261-.589z" fill="url(#paint54_linear_1415_2301)"/><path fill-rule="evenodd" clip-rule="evenodd" d="M404.776 136.927l20.162.229 1.275 15.335-21.437-15.564z" fill="url(#paint55_linear_1415_2301)"/><path fill-rule="evenodd" clip-rule="evenodd" d="M435.656 106.486c.033 8.567-1.143 15.957-2.32 21.221-1.176 5.133-5.685 8.73-10.424 11.673l-.849.523c-5 3.073-9.15 3.171-14.28.261-5.163-2.942-9.967-6.833-11.11-12.359-2.059-10.005-2.353-21.122-2.353-21.122s-2.908-23.15 19.377-22.856c22.319.328 21.959 22.659 21.959 22.659z" fill="url(#paint56_linear_1415_2301)"/><path fill-rule="evenodd" clip-rule="evenodd" d="M407.195 113.288a1.793 1.793 0 01-1.798 1.798c-.98 0-1.797-.818-1.797-1.798 0-.981.817-1.799 1.797-1.799.981-.032 1.798.785 1.798 1.799z" fill="url(#paint57_linear_1415_2301)"/><path fill-rule="evenodd" clip-rule="evenodd" d="M424.873 113.288a1.793 1.793 0 01-1.797 1.798 1.814 1.814 0 01-1.798-1.798c0-.981.817-1.799 1.798-1.799 1.013-.032 1.797.785 1.797 1.799z" fill="url(#paint58_linear_1415_2301)"/><path fill-rule="evenodd" clip-rule="evenodd" d="M412.129 117.996v2.877c0 .131.065.229.131.327a.42.42 0 00.326.131h2.353a.447.447 0 00.457-.458.447.447 0 00-.457-.458h-1.895v-2.419a.447.447 0 00-.458-.458.447.447 0 00-.457.458z" fill="url(#paint59_linear_1415_2301)"/><path fill-rule="evenodd" clip-rule="evenodd" d="M398.666 105.637l11.796-1.079s-1.045-3.041-5.816-2.551c-4.902.523-5.98 3.63-5.98 3.63z" fill="url(#paint60_linear_1415_2301)"/><path fill-rule="evenodd" clip-rule="evenodd" d="M429.056 105.637l-11.797-1.079s1.046-3.041 5.817-2.551c4.869.523 5.98 3.63 5.98 3.63z" fill="url(#paint61_linear_1415_2301)"/><path fill-rule="evenodd" clip-rule="evenodd" d="M408.567 125.026H420.2s-.555 3.564-5.98 3.564c-5.424 0-5.653-3.564-5.653-3.564z" fill="#fff"/><path fill-rule="evenodd" clip-rule="evenodd" d="M433.304 86.64l.196 4.25c-2.778-4.545-8.464-10.561-19.116-10.365-15.457.294-12.548 4.97-11.862 5.853-12.908 3.4-13.169 15.335-13.169 15.335l4.738 14.059s3.856-14.353 3.627-21.154c-.229-6.572 6.209-8.534 6.634-8.665 1.96-.36 5.293-.13 8.626 4.087 3.987 5.035 13.921 10.136 20.848 6.964l1.013 20.436c8.137-21.188-1.535-30.8-1.535-30.8z" fill="url(#paint62_linear_1415_2301)"/><path fill-rule="evenodd" clip-rule="evenodd" d="M155.026 229.362l.947-9.352a.66.66 0 00-.588-.719.66.66 0 00-.719.589l-.947 9.351a.71.71 0 00.588.752c.359 0 .686-.262.719-.621z" fill="#000"/><path fill-rule="evenodd" clip-rule="evenodd" d="M389.418 202.485h14.248v4.152h-9.379v2.682h8.496v3.891h-8.496v2.811h9.509v4.153h-14.378v-17.689zm16.274 8.828c0-5.166 3.986-9.221 9.345-9.221 3.627 0 5.882 1.57 7.451 3.76l-3.595 2.78c-1.013-1.276-2.189-2.06-3.888-2.06-2.484 0-4.216 2.092-4.216 4.741 0 2.648 1.732 4.741 4.216 4.741 1.862 0 2.94-.85 3.986-2.158l3.693 2.648c-1.667 2.289-3.922 3.989-7.843 3.989-5.065 0-9.149-3.858-9.149-9.22zm32.023 0c0-2.551-1.862-4.774-4.542-4.774-2.68 0-4.477 2.191-4.477 4.774 0 2.55 1.83 4.774 4.542 4.774 2.68.032 4.477-2.158 4.477-4.774zm-14.051 0c0-5.101 4.085-9.221 9.574-9.221 5.457 0 9.509 4.087 9.509 9.221 0 5.101-4.084 9.22-9.574 9.22-5.457 0-9.509-4.054-9.509-9.22z" fill="#97C21A"/><path fill-rule="evenodd" clip-rule="evenodd" d="M389.418 223.542h6.699v2.027h-4.379v1.406h3.954v1.929h-3.954v3.008h-2.32v-8.37zm11.601 4.021c.784 0 1.242-.392 1.242-1.013 0-.654-.491-.981-1.242-.981h-1.503v1.994h1.503zm-3.856-4.021h3.954c1.274 0 2.156.326 2.712.882.49.491.752 1.145.752 1.995 0 1.275-.687 2.125-1.732 2.583l1.993 2.91h-2.679l-1.7-2.55h-1.013v2.55h-2.32v-8.37h.033z" fill="#00A2D4"/><path d="M408.142 223.542h-2.32v8.37h2.32v-8.37z" fill="#00A2D4"/><path fill-rule="evenodd" clip-rule="evenodd" d="M409.678 223.542h6.732v1.961h-4.444v1.276h4.019v1.831h-4.019v1.307h4.509v1.995h-6.797v-8.37zm7.973 0h2.157l3.431 4.414v-4.414h2.32v8.37h-2.026l-3.594-4.61v4.61h-2.288v-8.37zm12.646 6.31c1.373 0 2.32-.752 2.32-2.125 0-1.341-.915-2.126-2.32-2.126h-.947v4.284h.947v-.033zm-3.267-6.31h3.235c2.973 0 4.705 1.732 4.705 4.152s-1.764 4.218-4.771 4.218h-3.169v-8.37zm8.398 7.128l1.307-1.537c.817.654 1.732 1.013 2.712 1.013.621 0 .948-.228.948-.588s-.262-.523-1.405-.785c-1.798-.392-3.17-.915-3.17-2.648 0-1.57 1.242-2.681 3.235-2.681 1.438 0 2.549.392 3.431 1.111l-1.144 1.635c-.751-.523-1.601-.817-2.352-.817-.556 0-.85.229-.85.556 0 .392.294.555 1.438.817 1.928.425 3.104 1.046 3.104 2.616 0 1.7-1.34 2.714-3.398 2.714-1.438-.033-2.843-.491-3.856-1.406z" fill="#00A2D4"/><path fill-rule="evenodd" clip-rule="evenodd" d="M99.9 215.596h11.306v3.335h-7.45v2.126h6.731v3.073h-6.731v2.223h7.548v3.336H99.9v-14.093zm12.907 7.03c0-4.087 3.17-7.324 7.418-7.324 2.875 0 4.672 1.242 5.914 2.975l-2.843 2.224c-.817-1.014-1.732-1.635-3.104-1.635-1.961 0-3.366 1.667-3.366 3.76 0 2.125 1.373 3.76 3.366 3.76 1.47 0 2.32-.686 3.17-1.7l2.941 2.093c-1.34 1.831-3.105 3.171-6.242 3.171-4.019 0-7.254-3.073-7.254-7.324zm25.456 0c0-2.027-1.471-3.793-3.628-3.793-2.124 0-3.561 1.733-3.561 3.793 0 2.027 1.47 3.793 3.594 3.793 2.157.033 3.595-1.7 3.595-3.793zm-11.176 0c0-4.054 3.268-7.324 7.614-7.324s7.548 3.237 7.548 7.324c0 4.055-3.268 7.324-7.614 7.324s-7.548-3.237-7.548-7.324z" fill="#97C21A"/><path fill-rule="evenodd" clip-rule="evenodd" d="M99.9 232.337h5.293v1.602h-3.463v1.144h3.137v1.537h-3.137v2.387H99.9v-6.67zm9.215 3.204c.62 0 .98-.294.98-.817 0-.523-.392-.785-.98-.785h-1.21v1.602h1.21zm-3.072-3.204h3.137c1.013 0 1.732.261 2.157.719.392.393.588.916.588 1.57 0 1.013-.556 1.7-1.373 2.06l1.602 2.321h-2.125l-1.339-2.027h-.817v2.027h-1.83v-6.67z" fill="#00A2D4"/><path d="M114.767 232.337h-1.862v6.637h1.862v-6.637z" fill="#00A2D4"/><path fill-rule="evenodd" clip-rule="evenodd" d="M115.977 232.337h5.359v1.569h-3.53v1.014h3.17v1.439h-3.17v1.079h3.562v1.569h-5.391v-6.67zm6.339 0h1.699l2.745 3.531v-3.531h1.83v6.67h-1.601l-2.843-3.662v3.662h-1.83v-6.67zm10.032 5.035c1.111 0 1.83-.621 1.83-1.7s-.719-1.7-1.83-1.7h-.752v3.4h.752zm-2.582-5.035h2.549c2.386 0 3.758 1.373 3.758 3.302s-1.405 3.335-3.79 3.335h-2.517v-6.637zm6.666 5.657l1.013-1.21c.654.523 1.373.785 2.157.785.49 0 .752-.164.752-.491 0-.261-.229-.425-1.111-.621-1.406-.327-2.517-.719-2.517-2.125 0-1.243.981-2.126 2.582-2.126 1.144 0 2.026.295 2.745.883l-.915 1.308c-.621-.425-1.275-.654-1.863-.654-.457 0-.653.196-.653.458 0 .294.228.425 1.143.654 1.536.327 2.484.817 2.484 2.092 0 1.374-1.078 2.158-2.68 2.158-1.209 0-2.32-.359-3.137-1.111z" fill="#00A2D4"/><path fill-rule="evenodd" clip-rule="evenodd" d="M534.766 216.054l11.306.72-.229 3.302-7.45-.458-.131 2.125 6.765.426-.229 3.073-6.732-.425-.13 2.223 7.548.458-.229 3.335-11.371-.752.882-14.027zm12.45 7.847c.261-4.087 3.627-7.095 7.875-6.833 2.876.196 4.575 1.536 5.718 3.335l-2.973 2.027c-.752-1.046-1.634-1.733-2.974-1.831-1.96-.131-3.463 1.439-3.594 3.531-.131 2.093 1.143 3.858 3.104 3.956 1.471.099 2.385-.523 3.268-1.504l2.81 2.289c-1.438 1.733-3.3 2.976-6.405 2.779-4.084-.228-7.091-3.531-6.829-7.749zm25.39 1.635c.131-2.027-1.209-3.891-3.366-4.022-2.124-.13-3.66 1.504-3.79 3.564-.131 2.028 1.209 3.891 3.333 4.022 2.156.131 3.692-1.504 3.823-3.564zm-11.143-.719c.261-4.022 3.725-7.095 8.039-6.801 4.346.294 7.319 3.727 7.058 7.782-.262 4.021-3.725 7.095-8.039 6.833-4.313-.294-7.319-3.76-7.058-7.814z" fill="#97C21A"/><path fill-rule="evenodd" clip-rule="evenodd" d="M533.688 232.762l5.326.327-.098 1.602-3.496-.229-.066 1.145 3.137.196-.098 1.537-3.137-.196-.131 2.354-1.862-.098.425-6.638zm8.986 3.76c.621.033 1.013-.229 1.045-.752.033-.523-.326-.817-.947-.85l-1.209-.065-.098 1.602 1.209.065zm-2.843-3.367l3.137.196c1.013.065 1.699.359 2.124.85.359.425.523.948.49 1.602-.065 1.014-.653 1.668-1.503 1.962l1.438 2.419-2.124-.13-1.209-2.093-.817-.065-.131 1.994-1.83-.131.425-6.604z" fill="#00A2D4"/><path d="M546.718 233.7l-.425 6.624 1.859.119.425-6.623-1.859-.12z" fill="#00A2D4"/><path fill-rule="evenodd" clip-rule="evenodd" d="M549.765 233.776l5.326.36-.098 1.536-3.529-.196-.066.981 3.203.229-.098 1.439-3.203-.197-.065 1.047 3.562.229-.098 1.569-5.359-.36.425-6.637zm6.306.425l1.732.098 2.484 3.695.228-3.531 1.83.13-.424 6.638-1.634-.098-2.582-3.826-.228 3.629-1.83-.098.424-6.637zm9.705 5.624c1.112.065 1.863-.491 1.929-1.57.065-1.046-.621-1.733-1.732-1.831l-.752-.032-.229 3.4.784.033zm-2.254-5.166l2.549.163c2.385.164 3.659 1.602 3.529 3.531-.131 1.93-1.601 3.237-3.987 3.107l-2.516-.164.425-6.637zm6.274 6.081l1.111-1.144c.621.556 1.34.883 2.091.948.49.033.784-.131.784-.425.033-.262-.196-.425-1.078-.719-1.405-.425-2.451-.883-2.353-2.256.066-1.243 1.111-2.06 2.712-1.962 1.144.065 1.994.425 2.68 1.046l-1.013 1.243c-.588-.458-1.242-.752-1.83-.785-.457-.033-.686.131-.686.392-.033.294.196.458 1.111.72 1.503.425 2.418.98 2.353 2.256-.098 1.34-1.209 2.092-2.811 1.994-1.209-.065-2.287-.523-3.071-1.308z" fill="#00A2D4"/><path fill-rule="evenodd" clip-rule="evenodd" d="M254.952 508.528l-4.673 44.468-16.894.85-1.372-52.871 22.939 7.553z" fill="url(#paint63_linear_1415_2301)"/><path fill-rule="evenodd" clip-rule="evenodd" d="M250.802 549.694s-11.894 6.931-17.842-3.924l-43.525 23.117 67.772-.425-6.405-18.768z" fill="url(#paint64_linear_1415_2301)"/><path fill-rule="evenodd" clip-rule="evenodd" d="M206.459 559.863c2.157 2.027 4.183 4.871 5.327 8.893l-22.319.131 16.992-9.024z" fill="#fff"/><path fill-rule="evenodd" clip-rule="evenodd" d="M189.5 574.805l67.805-.392-.066-5.951-67.772.425.033 5.918z" fill="url(#paint65_linear_1415_2301)"/><path fill-rule="evenodd" clip-rule="evenodd" d="M227.83 557.083a.84.84 0 01-.457-.36c-2.647-3.465-5.294-5.166-5.294-5.166a1.075 1.075 0 01-.327-1.504 1.176 1.176 0 011.569-.294c.131.065 3.006 1.929 5.882 5.722.359.49.261 1.177-.262 1.504a1.323 1.323 0 01-1.111.098zm-5.555 2.779a1.171 1.171 0 01-.457-.359c-2.647-3.466-5.294-5.166-5.294-5.166a1.075 1.075 0 01-.327-1.504c.36-.491 1.078-.622 1.569-.295.13.066 3.006 1.929 5.882 5.69.359.49.261 1.144-.262 1.504a1.222 1.222 0 01-1.111.13zm-5.522 2.747a.848.848 0 01-.458-.36c-2.647-3.466-5.293-5.166-5.293-5.166a1.075 1.075 0 01-.327-1.504c.359-.49 1.078-.621 1.568-.294.131.065 3.007 1.929 5.882 5.689.36.49.261 1.177-.261 1.504a1.06 1.06 0 01-1.111.131z" fill="#fff"/><path fill-rule="evenodd" clip-rule="evenodd" d="M297.04 507.776l4.706 44.468 16.894.85 1.372-52.871-22.972 7.553z" fill="url(#paint66_linear_1415_2301)"/><path fill-rule="evenodd" clip-rule="evenodd" d="M301.19 548.974s11.895 6.932 17.842-3.923l43.526 23.116-67.773-.425 6.405-18.768z" fill="url(#paint67_linear_1415_2301)"/><path fill-rule="evenodd" clip-rule="evenodd" d="M345.566 559.11c-2.157 2.028-4.183 4.872-5.327 8.894l22.319.131-16.992-9.025z" fill="url(#paint68_linear_1415_2301)"/><path fill-rule="evenodd" clip-rule="evenodd" d="M362.492 574.085l-67.772-.425.033-5.918 67.805.393-.066 5.95z" fill="url(#paint69_linear_1415_2301)"/><path fill-rule="evenodd" clip-rule="evenodd" d="M324.195 556.331a.84.84 0 00.457-.36c2.647-3.466 5.294-5.166 5.294-5.166a1.075 1.075 0 00.327-1.504 1.176 1.176 0 00-1.569-.294c-.13.065-3.006 1.929-5.882 5.689-.359.491-.261 1.177.262 1.504a1.06 1.06 0 001.111.131z" fill="url(#paint70_linear_1415_2301)"/><path fill-rule="evenodd" clip-rule="evenodd" d="M329.717 559.11c.163-.065.36-.196.458-.359 2.646-3.466 5.293-5.166 5.293-5.166a1.075 1.075 0 00.327-1.504c-.359-.491-1.078-.622-1.568-.295-.131.066-3.007 1.929-5.882 5.69-.36.49-.262 1.177.261 1.504a1.06 1.06 0 001.111.13z" fill="url(#paint71_linear_1415_2301)"/><path fill-rule="evenodd" clip-rule="evenodd" d="M335.272 561.889a.842.842 0 00.458-.359c2.647-3.466 5.294-5.166 5.294-5.166a1.076 1.076 0 00.326-1.505c-.359-.49-1.078-.621-1.568-.294-.131.066-3.006 1.929-5.882 5.689-.359.491-.261 1.178.261 1.505.327.228.752.261 1.111.13z" fill="url(#paint72_linear_1415_2301)"/><path fill-rule="evenodd" clip-rule="evenodd" d="M235.902 206.441s-4.053 2.191-.883 8.501c1.797 3.597.621 7.978-2.777 10.136l-7.026 4.513c-3.921 2.517-9.215 1.111-11.273-3.074-1.373-2.812-2.255-6.049-1.21-8.795 2.549-6.638 17.385-14.289 23.169-11.281z" fill="url(#paint73_linear_1415_2301)"/><path fill-rule="evenodd" clip-rule="evenodd" d="M312.431 301.426l-42.415-3.76-35.095-1.733-14.182 120.651c-.163 1.537-.098 3.074.098 4.513l2.32 105.153h36.108l-2.091-104.336 16.796-83.247 17.221 190.526h34.213l-12.973-227.767z" fill="url(#paint74_linear_1415_2301)"/><path fill-rule="evenodd" clip-rule="evenodd" d="M369.159 243.062l-16.764-66.146 8.267-37.046a1.973 1.973 0 00-.588-1.896c-1.078-1.046-2.875-.589-3.333.85l-3.235 10.005 3.137-16.969c.164-.883-.261-1.733-1.045-2.158l-.229-.131c-1.144-.589-2.549 0-2.909 1.242l-4.738 15.76 2.222-20.141a2.022 2.022 0 00-1.633-2.125l-.589-.131a2.043 2.043 0 00-2.418 1.831l-2.712 19.258.033-16.773c-.066-.948-.784-1.766-1.732-1.897l-.817-.13a2.045 2.045 0 00-2.32 1.994l-.948 28.283-3.365-6.409a3.277 3.277 0 00-3.301-1.765c-1.601.163-2.679 1.733-2.255 3.302l1.798 6.572a24.79 24.79 0 005.489 10.038l4.967 5.493 3.039 54.8-20.194-12.523-26.73 15.924 53.917 25.765c2.32 1.439 5.065 2.191 7.973 1.896 8.268-.817 13.594-8.991 11.013-16.773z" fill="url(#paint75_linear_1415_2301)"/><path fill-rule="evenodd" clip-rule="evenodd" d="M336.776 157.232h.032c.523.131 5.327 1.57 7.908 7.39.098.261.425.359.654.261.261-.098.359-.425.261-.654-1.47-3.302-3.627-5.296-5.424-6.474-1.798-1.144-3.203-1.504-3.235-1.504-.262-.065-.556.098-.589.393-.065.261.098.523.393.588zm5.881 72.653l1.112 13.863c.032.262.261.491.555.458.294-.033.49-.261.458-.556l-1.112-13.863c-.032-.262-.261-.491-.555-.458-.261.033-.458.262-.458.556z" fill="#C0503C"/><path fill-rule="evenodd" clip-rule="evenodd" d="M260.017 316.041c-5.294-2.714-16.437-9.09-20.815-10.692l-17.679-24.424 8.3-20.763-24.867-8.795-6.535 29.754c-.883 4.447 2.124 9.22 6.176 12.621 8.692 9.482 25.422 21.155 25.422 21.155s1.373 7.16 4.118 9.613c0 0 11.96 1.863 17.09-5.166 0 0 4.117 2.06 8.202 1.242 2.222-.458 2.614-3.498.588-4.545z" fill="url(#paint76_linear_1415_2301)"/><path fill-rule="evenodd" clip-rule="evenodd" d="M221.948 280.631l-4.705-6.54c-.164-.229-.49-.261-.719-.098a.481.481 0 00-.098.687l4.705 6.539c.164.229.49.262.719.098.196-.131.262-.458.098-.686z" fill="#C0503C"/><path fill-rule="evenodd" clip-rule="evenodd" d="M338.344 225.7s-12.221-14.42-30.259-21.221l-25.553-10.103-24.247.229-31.958 14.975s-20.162 6.736-24.312 42.539l26.828 8.011 1.961 33.579 8.431 11.64c4.378 1.603 15.521 7.946 20.815 10.692 2.026 1.047 1.634 4.087-.621 4.545-4.052.818-8.202-1.242-8.202-1.242-1.176 1.635-2.745 2.779-4.444 3.596l70.06 7.161-3.726-22.659 2.419-55.421 7.744 3.596 15.064-29.917z" fill="url(#paint77_linear_1415_2301)" stroke="#D9DADA" stroke-width=".567" stroke-miterlimit="22.926"/><path fill-rule="evenodd" clip-rule="evenodd" d="M229.889 260.98l-1.797-19.913c-.033-.359-.36-.621-.687-.588a.649.649 0 00-.588.686l1.797 19.913c.033.36.36.621.687.588.359 0 .621-.327.588-.686z" fill="#000001"/><path fill-rule="evenodd" clip-rule="evenodd" d="M268.905 209.417c-17.972 0-17.907-11.379-17.907-11.379l7.157-3.269h.261l-.163-.131 1.862-24.948 2.974 1.7-2.647-.032 21.436 15.563-1.274-15.335-2.484-.032a28.109 28.109 0 002.418-1.472l1.961 24.327-.163.131h.032l7.81 2.942s.033 11.281-19.868 11.935h-1.405z" fill="url(#paint78_linear_1415_2301)"/><path fill-rule="evenodd" clip-rule="evenodd" d="M277.859 114.89s11.143-4.97 15.097 4.446c3.823 9.057-11.307 17.689-11.307 17.689l-3.79-22.135z" fill="url(#paint79_linear_1415_2301)"/><path fill-rule="evenodd" clip-rule="evenodd" d="M257.011 152.426c.13 4.185-3.17 7.684-7.353 7.782-4.182.13-7.679-3.172-7.777-7.357-.131-4.185 3.17-7.684 7.353-7.782 4.15-.131 7.646 3.172 7.777 7.357z" fill="url(#paint80_linear_1415_2301)"/><path fill-rule="evenodd" clip-rule="evenodd" d="M245.345 152.034c.033-.033.327-.131.784-.131.49 0 1.111.131 1.895.621.752.523 1.634 1.439 2.549 3.074a.518.518 0 00.686.196c.262-.131.327-.425.197-.687-.948-1.733-1.928-2.779-2.843-3.4-.915-.622-1.798-.818-2.451-.818-.719 0-1.176.229-1.242.229a.501.501 0 00-.229.687c.098.229.425.327.654.229z" fill="#C0503C"/><path fill-rule="evenodd" clip-rule="evenodd" d="M284.656 152.622c0 4.185 3.398 7.586 7.581 7.586 4.182 0 7.581-3.401 7.581-7.586 0-4.185-3.399-7.586-7.581-7.586-4.216.033-7.581 3.401-7.581 7.586z" fill="url(#paint81_linear_1415_2301)"/><path fill-rule="evenodd" clip-rule="evenodd" d="M296.681 150.987c-.033-.033-.458-.196-1.144-.196-.653 0-1.536.196-2.451.817-.915.654-1.895 1.733-2.843 3.532a.5.5 0 00.229.686.498.498 0 00.686-.229c.883-1.7 1.732-2.648 2.517-3.171.751-.523 1.405-.654 1.862-.654.229 0 .425.033.556.065l.13.033h.033l.033-.065-.033.032.033-.065-.033.033a.47.47 0 00.654-.262c.13-.131.032-.425-.229-.556z" fill="url(#paint82_linear_1415_2301)"/><path fill-rule="evenodd" clip-rule="evenodd" d="M270.735 174.006c-3.235 0-6.045-1.668-6.078-1.7l-1.568-.883 15.031.163c-1.568.883-3.725 1.897-5.751 2.256a9.135 9.135 0 01-1.634.164z" fill="url(#paint83_linear_1415_2301)"/><path fill-rule="evenodd" clip-rule="evenodd" d="M281.878 186.954l-21.436-15.564 2.647.033 1.568.883c.033.032 2.843 1.7 6.078 1.7.523 0 1.078-.033 1.634-.164 2.026-.392 4.183-1.406 5.751-2.256l2.484.033 1.274 15.335z" fill="url(#paint84_linear_1415_2301)"/><path fill-rule="evenodd" clip-rule="evenodd" d="M291.256 139.445c.033 8.567-1.143 15.956-2.32 21.221-1.176 5.133-4.509 8.73-9.247 11.672l-.85.523c-4.999 3.074-11.502 3.172-16.632.262-5.163-2.943-8.791-6.834-9.934-12.359-2.059-10.006-2.353-21.123-2.353-21.123s-2.908-23.149 19.377-22.855c22.319.327 21.959 22.659 21.959 22.659z" fill="url(#paint85_linear_1415_2301)"/><path fill-rule="evenodd" clip-rule="evenodd" d="M262.795 146.246c0 .981-.817 1.798-1.798 1.798-.98 0-1.797-.817-1.797-1.798 0-1.014.817-1.798 1.797-1.798.981 0 1.798.784 1.798 1.798z" fill="url(#paint86_linear_1415_2301)"/><path fill-rule="evenodd" clip-rule="evenodd" d="M280.473 146.246c0 .981-.817 1.798-1.797 1.798a1.814 1.814 0 01-1.798-1.798c0-1.014.817-1.798 1.798-1.798 1.013 0 1.797.784 1.797 1.798z" fill="url(#paint87_linear_1415_2301)"/><path fill-rule="evenodd" clip-rule="evenodd" d="M267.696 148.862v4.97c0 .13.066.261.164.359a.524.524 0 00.359.164h3.203c.294 0 .49-.229.49-.491a.481.481 0 00-.49-.49h-2.713v-4.48a.48.48 0 00-.49-.49.465.465 0 00-.523.458z" fill="url(#paint88_linear_1415_2301)"/><path fill-rule="evenodd" clip-rule="evenodd" d="M254.266 138.595l11.796-1.079s-1.045-3.073-5.816-2.55c-4.902.523-5.98 3.629-5.98 3.629z" fill="url(#paint89_linear_1415_2301)"/><path fill-rule="evenodd" clip-rule="evenodd" d="M284.656 138.595l-11.797-1.079s1.046-3.073 5.817-2.55c4.869.523 5.98 3.629 5.98 3.629z" fill="url(#paint90_linear_1415_2301)"/><path fill-rule="evenodd" clip-rule="evenodd" d="M264.167 157.984H275.8s-.555 3.564-5.98 3.564c-5.457 0-5.653-3.564-5.653-3.564z" fill="#fff"/><path fill-rule="evenodd" clip-rule="evenodd" d="M250.672 150.627s3.3-25.045 1.699-29.165c0-.033-11.241 9.286-1.699 29.165z" fill="url(#paint91_linear_1415_2301)"/><path fill-rule="evenodd" clip-rule="evenodd" d="M290.439 150.399s-3.725-23.934-2.679-30.801c-.033 0 10.816 9.613 2.679 30.801z" fill="url(#paint92_linear_1415_2301)"/><path fill-rule="evenodd" clip-rule="evenodd" d="M286.714 124.601s-6.633 5.525-15.194.948c0 0-21.796 13.438-27.939-1.177-5.131-12.196 16.142-28.74 38.134-10.104l4.999 10.333z" fill="url(#paint93_linear_1415_2301)"/><path fill-rule="evenodd" clip-rule="evenodd" d="M262.893 336.542l22.024 2.812c.36.033.686-.196.719-.556.033-.359-.196-.686-.556-.719l-22.024-2.812c-.359-.032-.686.196-.719.556a.614.614 0 00.556.719zm52.904-85.142l-9.803-4.545a.622.622 0 00-.85.327.623.623 0 00.327.85l9.803 4.545c.327.163.719 0 .85-.327.13-.327 0-.72-.327-.85z" fill="#000001"/><path fill-rule="evenodd" clip-rule="evenodd" d="M243.646 234.986h14.247v4.185h-9.378v2.681h8.496v3.858h-8.496v2.812h9.509v4.185h-14.378v-17.721zm16.273 8.861c0-5.167 3.986-9.221 9.346-9.221 3.627 0 5.881 1.569 7.45 3.76l-3.595 2.779c-1.013-1.275-2.189-2.06-3.888-2.06-2.484 0-4.215 2.093-4.215 4.742 0 2.648 1.731 4.741 4.215 4.741 1.862 0 2.941-.851 3.986-2.158l3.693 2.648c-1.667 2.289-3.921 3.989-7.843 3.989-5.064 0-9.149-3.891-9.149-9.22zm32.024 0c0-2.551-1.863-4.774-4.542-4.774-2.68 0-4.477 2.19-4.477 4.774 0 2.55 1.83 4.773 4.542 4.773 2.679 0 4.477-2.19 4.477-4.773zm-14.051 0c0-5.101 4.084-9.221 9.574-9.221 5.457 0 9.509 4.087 9.509 9.221 0 5.1-4.085 9.22-9.574 9.22-5.49 0-9.509-4.087-9.509-9.22z" fill="#97C21A"/><path fill-rule="evenodd" clip-rule="evenodd" d="M243.646 256.042h6.699v2.028h-4.379v1.438h3.954v1.93h-3.954v2.975h-2.32v-8.371zm11.6 4.022c.784 0 1.242-.392 1.242-1.013 0-.654-.49-.981-1.242-.981h-1.503v1.994h1.503zm-3.856-4.022h3.954c1.275 0 2.157.327 2.713.883.49.491.751 1.145.751 1.995 0 1.275-.686 2.125-1.732 2.583l1.994 2.91h-2.68l-1.699-2.55h-1.013v2.55h-2.32v-8.371h.032z" fill="#00A2D4"/><path d="M262.37 256.042h-2.32v8.371h2.32v-8.371z" fill="#00A2D4"/><path fill-rule="evenodd" clip-rule="evenodd" d="M263.906 256.042h6.731v1.962h-4.444v1.275h4.019v1.832h-4.019v1.34h4.51v1.962h-6.797v-8.371zm7.973 0h2.157l3.431 4.415v-4.415h2.32v8.371h-2.059l-3.562-4.578v4.578h-2.287v-8.371zm12.646 6.311c1.372 0 2.32-.752 2.32-2.125 0-1.341-.915-2.126-2.32-2.126h-.948v4.284h.948v-.033zm-3.268-6.311h3.235c2.974 0 4.706 1.733 4.706 4.153 0 2.42-1.765 4.218-4.771 4.218h-3.17v-8.371zm8.398 7.128l1.307-1.536c.817.654 1.732 1.013 2.712 1.013.621 0 .948-.229.948-.588 0-.36-.261-.523-1.405-.785-1.797-.392-3.17-.916-3.17-2.648 0-1.57 1.242-2.682 3.235-2.682 1.438 0 2.549.393 3.431 1.112l-1.143 1.635c-.752-.523-1.601-.818-2.353-.818-.555 0-.85.229-.85.556 0 .393.295.556 1.438.818 1.928.425 3.104 1.046 3.104 2.615 0 1.701-1.339 2.714-3.398 2.714-1.438-.032-2.843-.49-3.856-1.406z" fill="#00A2D4"/><path d="M263.611 512.092h-45.094v20.436h45.094v-20.436z" fill="url(#paint94_linear_1415_2301)"/><path fill-rule="evenodd" clip-rule="evenodd" d="M332.201 532.528h-45.095l-2.156-20.436h45.094l2.157 20.436z" fill="url(#paint95_linear_1415_2301)"/><defs><linearGradient id="paint0_linear_1415_2301" x1="121.313" y1="116.527" x2="121.313" y2="85.597" gradientUnits="userSpaceOnUse"><stop stop-color="#4C1C00"/><stop offset="1" stop-color="#7B4122"/></linearGradient><linearGradient id="paint1_linear_1415_2301" x1="523.531" y1="151.812" x2="600.681" y2="151.812" gradientUnits="userSpaceOnUse"><stop stop-color="#0D0F0D"/><stop offset="1" stop-color="#363636"/></linearGradient><linearGradient id="paint2_linear_1415_2301" x1="623.951" y1="574.908" x2="623.951" y2="554.416" gradientUnits="userSpaceOnUse"><stop stop-color="#0D0F0D"/><stop offset="1" stop-color="#363636"/></linearGradient><linearGradient id="paint3_linear_1415_2301" x1="613.563" y1="563.138" x2="613.563" y2="497.124" gradientUnits="userSpaceOnUse"><stop stop-color="#F8BEAB"/><stop offset=".99" stop-color="#F5A487"/><stop offset="1" stop-color="#F5A487"/></linearGradient><linearGradient id="paint4_linear_1415_2301" x1="597.111" y1="535.571" x2="615.272" y2="535.571" gradientUnits="userSpaceOnUse"><stop stop-color="#F3A88E"/><stop offset="1" stop-color="#DE7B66"/></linearGradient><linearGradient id="paint5_linear_1415_2301" x1="494.993" y1="574.72" x2="494.993" y2="554.416" gradientUnits="userSpaceOnUse"><stop stop-color="#0D0F0D"/><stop offset="1" stop-color="#363636"/></linearGradient><linearGradient id="paint6_linear_1415_2301" x1="505.418" y1="563.138" x2="505.418" y2="497.124" gradientUnits="userSpaceOnUse"><stop stop-color="#F8BEAB"/><stop offset=".99" stop-color="#F5A487"/><stop offset="1" stop-color="#F5A487"/></linearGradient><linearGradient id="paint7_linear_1415_2301" x1="503.47" y1="534.764" x2="522.047" y2="534.764" gradientUnits="userSpaceOnUse"><stop stop-color="#F3A88E"/><stop offset="1" stop-color="#DE7B66"/></linearGradient><linearGradient id="paint8_linear_1415_2301" x1="619.262" y1="540.38" x2="490.724" y2="317.881" gradientUnits="userSpaceOnUse"><stop stop-color="#F18317"/><stop offset="1" stop-color="#F9B02F"/></linearGradient><linearGradient id="paint9_linear_1415_2301" x1="442.846" y1="234.411" x2="537.989" y2="234.411" gradientUnits="userSpaceOnUse"><stop stop-color="#F5A487"/><stop offset=".01" stop-color="#F5A487"/><stop offset="1" stop-color="#F8BEAB"/></linearGradient><linearGradient id="paint10_linear_1415_2301" x1="577.401" y1="256.337" x2="657.536" y2="256.337" gradientUnits="userSpaceOnUse"><stop stop-color="#F5A487"/><stop offset=".01" stop-color="#F5A487"/><stop offset="1" stop-color="#F8BEAB"/></linearGradient><linearGradient id="paint11_linear_1415_2301" x1="563.259" y1="196.18" x2="563.259" y2="169.559" gradientUnits="userSpaceOnUse"><stop stop-color="#F5A487"/><stop offset=".01" stop-color="#F5A487"/><stop offset="1" stop-color="#F8BEAB"/></linearGradient><linearGradient id="paint12_linear_1415_2301" x1="529.972" y1="156.942" x2="545.967" y2="156.942" gradientUnits="userSpaceOnUse"><stop stop-color="#F5A487"/><stop offset=".01" stop-color="#F5A487"/><stop offset="1" stop-color="#F8BEAB"/></linearGradient><linearGradient id="paint13_linear_1415_2301" x1="552.94" y1="180.218" x2="570.158" y2="180.218" gradientUnits="userSpaceOnUse"><stop stop-color="#F3A88E"/><stop offset="1" stop-color="#DE7B66"/></linearGradient><linearGradient id="paint14_linear_1415_2301" x1="555.949" y1="180.339" x2="555.949" y2="124.608" gradientUnits="userSpaceOnUse"><stop stop-color="#F8BEAB"/><stop offset=".99" stop-color="#F5A487"/><stop offset="1" stop-color="#F5A487"/></linearGradient><linearGradient id="paint15_linear_1415_2301" x1="545.087" y1="160.913" x2="548.474" y2="160.913" gradientUnits="userSpaceOnUse"><stop stop-color="#0D0F0D"/><stop offset="1" stop-color="#363636"/></linearGradient><linearGradient id="paint16_linear_1415_2301" x1="552.632" y1="148.317" x2="562.368" y2="148.317" gradientUnits="userSpaceOnUse"><stop stop-color="#0D0F0D"/><stop offset="1" stop-color="#363636"/></linearGradient><linearGradient id="paint17_linear_1415_2301" x1="536.361" y1="147.894" x2="543.56" y2="147.894" gradientUnits="userSpaceOnUse"><stop stop-color="#0D0F0D"/><stop offset="1" stop-color="#363636"/></linearGradient><linearGradient id="paint18_linear_1415_2301" x1="538.219" y1="154.457" x2="541.869" y2="154.457" gradientUnits="userSpaceOnUse"><stop stop-color="#0D0F0D"/><stop offset="1" stop-color="#363636"/></linearGradient><linearGradient id="paint19_linear_1415_2301" x1="554.416" y1="154.791" x2="558.068" y2="154.791" gradientUnits="userSpaceOnUse"><stop stop-color="#0D0F0D"/><stop offset="1" stop-color="#363636"/></linearGradient><linearGradient id="paint20_linear_1415_2301" x1="536.269" y1="138.05" x2="577.465" y2="138.05" gradientUnits="userSpaceOnUse"><stop stop-color="#0D0F0D"/><stop offset="1" stop-color="#363636"/></linearGradient><linearGradient id="paint21_linear_1415_2301" x1="569.52" y1="158.453" x2="585.628" y2="158.453" gradientUnits="userSpaceOnUse"><stop stop-color="#F5A487"/><stop offset=".01" stop-color="#F5A487"/><stop offset="1" stop-color="#F8BEAB"/></linearGradient><linearGradient id="paint22_linear_1415_2301" x1="574.241" y1="158.346" x2="580.837" y2="158.346" gradientUnits="userSpaceOnUse"><stop stop-color="#0D0F0D"/><stop offset="1" stop-color="#363636"/></linearGradient><linearGradient id="paint23_linear_1415_2301" x1="156.084" y1="575.982" x2="156.084" y2="553.636" gradientUnits="userSpaceOnUse"><stop stop-color="#5D4596"/><stop offset="1" stop-color="#9172B1"/></linearGradient><linearGradient id="paint24_linear_1415_2301" x1="150.175" y1="563.233" x2="150.175" y2="492.578" gradientUnits="userSpaceOnUse"><stop stop-color="#F8BEAB"/><stop offset=".99" stop-color="#F5A487"/><stop offset="1" stop-color="#F5A487"/></linearGradient><linearGradient id="paint25_linear_1415_2301" x1="97.398" y1="575.982" x2="97.398" y2="553.636" gradientUnits="userSpaceOnUse"><stop stop-color="#5D4596"/><stop offset="1" stop-color="#9172B1"/></linearGradient><linearGradient id="paint26_linear_1415_2301" x1="103.309" y1="563.233" x2="103.309" y2="492.578" gradientUnits="userSpaceOnUse"><stop stop-color="#F8BEAB"/><stop offset=".99" stop-color="#F5A487"/><stop offset="1" stop-color="#F5A487"/></linearGradient><linearGradient id="paint27_linear_1415_2301" x1="123.46" y1="532.881" x2="123.46" y2="283.153" gradientUnits="userSpaceOnUse"><stop stop-color="#272A5B"/><stop offset="1" stop-color="#3D437F"/></linearGradient><linearGradient id="paint28_linear_1415_2301" x1="121.954" y1="274.46" x2="121.954" y2="192.197" gradientUnits="userSpaceOnUse"><stop stop-color="#fff"/><stop offset=".462" stop-color="#FDFDFD"/><stop offset=".723" stop-color="#F7F6F4"/><stop offset=".933" stop-color="#ECEAE6"/><stop offset="1" stop-color="#E7E5E0"/></linearGradient><linearGradient id="paint29_linear_1415_2301" x1="176.601" y1="244.558" x2="247.19" y2="244.558" gradientUnits="userSpaceOnUse"><stop stop-color="#F8BEAB"/><stop offset=".99" stop-color="#F5A487"/><stop offset="1" stop-color="#F5A487"/></linearGradient><linearGradient id="paint30_linear_1415_2301" x1="120.714" y1="202.355" x2="120.714" y2="167.409" gradientUnits="userSpaceOnUse"><stop stop-color="#F8BEAB"/><stop offset=".99" stop-color="#F5A487"/><stop offset="1" stop-color="#F5A487"/></linearGradient><linearGradient id="paint31_linear_1415_2301" x1=".529" y1="220.02" x2="63.981" y2="220.02" gradientUnits="userSpaceOnUse"><stop stop-color="#F8BEAB"/><stop offset=".99" stop-color="#F5A487"/><stop offset="1" stop-color="#F5A487"/></linearGradient><linearGradient id="paint32_linear_1415_2301" x1="140.406" y1="150.34" x2="149.553" y2="150.34" gradientUnits="userSpaceOnUse"><stop stop-color="#F5A487"/><stop offset=".01" stop-color="#F5A487"/><stop offset="1" stop-color="#F8BEAB"/></linearGradient><linearGradient id="paint33_linear_1415_2301" x1="136.714" y1="162.792" x2="148.505" y2="162.792" gradientUnits="userSpaceOnUse"><stop stop-color="#5D4596"/><stop offset="1" stop-color="#9172B1"/></linearGradient><linearGradient id="paint34_linear_1415_2301" x1="93.84" y1="150.34" x2="102.987" y2="150.34" gradientUnits="userSpaceOnUse"><stop stop-color="#F8BEAB"/><stop offset=".99" stop-color="#F5A487"/><stop offset="1" stop-color="#F5A487"/></linearGradient><linearGradient id="paint35_linear_1415_2301" x1="91.428" y1="150.422" x2="102.901" y2="150.422" gradientUnits="userSpaceOnUse"><stop stop-color="#F8BEAB"/><stop offset=".99" stop-color="#F5A487"/><stop offset="1" stop-color="#F5A487"/></linearGradient><linearGradient id="paint36_linear_1415_2301" x1="94.888" y1="162.792" x2="106.901" y2="162.792" gradientUnits="userSpaceOnUse"><stop stop-color="#5D4596"/><stop offset="1" stop-color="#9172B1"/></linearGradient><linearGradient id="paint37_linear_1415_2301" x1="121.554" y1="159.226" x2="121.554" y2="108.112" gradientUnits="userSpaceOnUse"><stop stop-color="#4C1C00"/><stop offset="1" stop-color="#7B4122"/></linearGradient><linearGradient id="paint38_linear_1415_2301" x1="122.377" y1="202.356" x2="122.377" y2="167.411" gradientUnits="userSpaceOnUse"><stop stop-color="#F7B39D"/><stop offset=".99" stop-color="#F2916E"/><stop offset="1" stop-color="#F2916E"/></linearGradient><linearGradient id="paint39_linear_1415_2301" x1="121.468" y1="171.22" x2="121.468" y2="113.994" gradientUnits="userSpaceOnUse"><stop stop-color="#F8BEAB"/><stop offset=".99" stop-color="#F5A487"/><stop offset="1" stop-color="#F5A487"/></linearGradient><linearGradient id="paint40_linear_1415_2301" x1="131.335" y1="147.475" x2="131.335" y2="143.685" gradientUnits="userSpaceOnUse"><stop stop-color="#0D0F0D"/><stop offset="1" stop-color="#363636"/></linearGradient><linearGradient id="paint41_linear_1415_2301" x1="112.41" y1="147.475" x2="112.41" y2="143.685" gradientUnits="userSpaceOnUse"><stop stop-color="#0D0F0D"/><stop offset="1" stop-color="#363636"/></linearGradient><linearGradient id="paint42_linear_1415_2301" x1="111.707" y1="139.304" x2="111.707" y2="135.381" gradientUnits="userSpaceOnUse"><stop stop-color="#0D0F0D"/><stop offset="1" stop-color="#363636"/></linearGradient><linearGradient id="paint43_linear_1415_2301" x1="133.429" y1="139.242" x2="133.429" y2="135.286" gradientUnits="userSpaceOnUse"><stop stop-color="#0D0F0D"/><stop offset="1" stop-color="#363636"/></linearGradient><linearGradient id="paint44_linear_1415_2301" x1="121.281" y1="132.523" x2="121.281" y2="112.889" gradientUnits="userSpaceOnUse"><stop stop-color="#471800"/><stop offset="1" stop-color="#6B3A1D"/></linearGradient><linearGradient id="paint45_linear_1415_2301" x1="343.085" y1="556.458" x2="406.049" y2="556.458" gradientUnits="userSpaceOnUse"><stop stop-color="#272A5B"/><stop offset="1" stop-color="#3D437F"/></linearGradient><linearGradient id="paint46_linear_1415_2301" x1="390.562" y1="546.658" x2="390.562" y2="515.42" gradientUnits="userSpaceOnUse"><stop stop-color="#F49E8E"/><stop offset="1" stop-color="#F0826D"/></linearGradient><linearGradient id="paint47_linear_1415_2301" x1="437.533" y1="556.458" x2="500.498" y2="556.458" gradientUnits="userSpaceOnUse"><stop stop-color="#272A5B"/><stop offset="1" stop-color="#3D437F"/></linearGradient><linearGradient id="paint48_linear_1415_2301" x1="451.813" y1="546.658" x2="451.813" y2="515.42" gradientUnits="userSpaceOnUse"><stop stop-color="#F49E8E"/><stop offset="1" stop-color="#F0826D"/></linearGradient><linearGradient id="paint49_linear_1415_2301" x1="481.082" y1="346.871" x2="494.263" y2="346.871" gradientUnits="userSpaceOnUse"><stop stop-color="#F0826D"/><stop offset="1" stop-color="#F49E8E"/></linearGradient><linearGradient id="paint50_linear_1415_2301" x1="404.426" y1="329.597" x2="404.426" y2="166.688" gradientUnits="userSpaceOnUse"><stop stop-color="#fff"/><stop offset=".544" stop-color="#F0F0F4"/><stop offset="1" stop-color="#E7E7ED"/></linearGradient><linearGradient id="paint51_linear_1415_2301" x1="414.848" y1="167.273" x2="414.848" y2="136.725" gradientUnits="userSpaceOnUse"><stop stop-color="#F0826D"/><stop offset="1" stop-color="#F49E8E"/></linearGradient><linearGradient id="paint52_linear_1415_2301" x1="386.379" y1="119.668" x2="401.293" y2="119.668" gradientUnits="userSpaceOnUse"><stop stop-color="#F49E8E"/><stop offset="1" stop-color="#F0826D"/></linearGradient><linearGradient id="paint53_linear_1415_2301" x1="429.045" y1="119.669" x2="444.187" y2="119.669" gradientUnits="userSpaceOnUse"><stop stop-color="#F0826D"/><stop offset="1" stop-color="#F49E8E"/></linearGradient><linearGradient id="paint54_linear_1415_2301" x1="429.215" y1="120.367" x2="444.067" y2="120.367" gradientUnits="userSpaceOnUse"><stop stop-color="#F0826D"/><stop offset="1" stop-color="#F49E8E"/></linearGradient><linearGradient id="paint55_linear_1415_2301" x1="404.779" y1="144.717" x2="426.215" y2="144.717" gradientUnits="userSpaceOnUse"><stop stop-color="#F3A88E"/><stop offset="1" stop-color="#DE7B66"/></linearGradient><linearGradient id="paint56_linear_1415_2301" x1="414.936" y1="141.48" x2="414.936" y2="84.137" gradientUnits="userSpaceOnUse"><stop stop-color="#F49E8E"/><stop offset="1" stop-color="#F0826D"/></linearGradient><linearGradient id="paint57_linear_1415_2301" x1="403.575" y1="113.275" x2="407.184" y2="113.275" gradientUnits="userSpaceOnUse"><stop stop-color="#0D0F0D"/><stop offset="1" stop-color="#363636"/></linearGradient><linearGradient id="paint58_linear_1415_2301" x1="421.277" y1="113.275" x2="424.886" y2="113.275" gradientUnits="userSpaceOnUse"><stop stop-color="#0D0F0D"/><stop offset="1" stop-color="#363636"/></linearGradient><linearGradient id="paint59_linear_1415_2301" x1="421.277" y1="119.444" x2="424.886" y2="119.444" gradientUnits="userSpaceOnUse"><stop stop-color="#0D0F0D"/><stop offset="1" stop-color="#363636"/></linearGradient><linearGradient id="paint60_linear_1415_2301" x1="398.658" y1="103.805" x2="410.447" y2="103.805" gradientUnits="userSpaceOnUse"><stop stop-color="#0D0F0D"/><stop offset="1" stop-color="#363636"/></linearGradient><linearGradient id="paint61_linear_1415_2301" x1="417.256" y1="103.805" x2="429.044" y2="103.805" gradientUnits="userSpaceOnUse"><stop stop-color="#0D0F0D"/><stop offset="1" stop-color="#363636"/></linearGradient><linearGradient id="paint62_linear_1415_2301" x1="413.746" y1="117.45" x2="413.746" y2="80.718" gradientUnits="userSpaceOnUse"><stop stop-color="#6D3A00"/><stop offset="1" stop-color="#CC6401"/></linearGradient><linearGradient id="paint63_linear_1415_2301" x1="243.485" y1="553.845" x2="243.485" y2="500.976" gradientUnits="userSpaceOnUse"><stop stop-color="#F3A88E"/><stop offset="1" stop-color="#DE7B66"/></linearGradient><linearGradient id="paint64_linear_1415_2301" x1="189.463" y1="557.329" x2="257.247" y2="557.329" gradientUnits="userSpaceOnUse"><stop stop-color="#363636"/><stop offset="1" stop-color="#0D0F0D"/></linearGradient><linearGradient id="paint65_linear_1415_2301" x1="223.377" y1="574.816" x2="223.377" y2="568.47" gradientUnits="userSpaceOnUse"><stop stop-color="#ACB6DD"/><stop offset="1" stop-color="#D7D8EE"/></linearGradient><linearGradient id="paint66_linear_1415_2301" x1="308.526" y1="553.108" x2="308.526" y2="500.238" gradientUnits="userSpaceOnUse"><stop stop-color="#F3A88E"/><stop offset="1" stop-color="#DE7B66"/></linearGradient><linearGradient id="paint67_linear_1415_2301" x1="294.764" y1="556.591" x2="362.549" y2="556.591" gradientUnits="userSpaceOnUse"><stop stop-color="#363636"/><stop offset="1" stop-color="#0D0F0D"/></linearGradient><linearGradient id="paint68_linear_1415_2301" x1="294.762" y1="563.636" x2="362.546" y2="563.636" gradientUnits="userSpaceOnUse"><stop stop-color="#363636"/><stop offset="1" stop-color="#0D0F0D"/></linearGradient><linearGradient id="paint69_linear_1415_2301" x1="328.636" y1="574.079" x2="328.636" y2="567.733" gradientUnits="userSpaceOnUse"><stop stop-color="#ACB6DD"/><stop offset="1" stop-color="#D7D8EE"/></linearGradient><linearGradient id="paint70_linear_1415_2301" x1="326.53" y1="573.57" x2="326.53" y2="567.388" gradientUnits="userSpaceOnUse"><stop stop-color="#ACB6DD"/><stop offset="1" stop-color="#D7D8EE"/></linearGradient><linearGradient id="paint71_linear_1415_2301" x1="332.069" y1="573.633" x2="332.069" y2="567.454" gradientUnits="userSpaceOnUse"><stop stop-color="#ACB6DD"/><stop offset="1" stop-color="#D7D8EE"/></linearGradient><linearGradient id="paint72_linear_1415_2301" x1="337.607" y1="573.705" x2="337.607" y2="567.526" gradientUnits="userSpaceOnUse"><stop stop-color="#ACB6DD"/><stop offset="1" stop-color="#D7D8EE"/></linearGradient><linearGradient id="paint73_linear_1415_2301" x1="212.843" y1="218.304" x2="235.02" y2="218.304" gradientUnits="userSpaceOnUse"><stop stop-color="#F0826D"/><stop offset="1" stop-color="#F49E8E"/></linearGradient><linearGradient id="paint74_linear_1415_2301" x1="272.968" y1="529.183" x2="272.968" y2="295.934" gradientUnits="userSpaceOnUse"><stop stop-color="#5D4596"/><stop offset="1" stop-color="#9172B1"/></linearGradient><linearGradient id="paint75_linear_1415_2301" x1="296.336" y1="191.984" x2="367.923" y2="191.984" gradientUnits="userSpaceOnUse"><stop stop-color="#F3A88E"/><stop offset="1" stop-color="#DE7B66"/></linearGradient><linearGradient id="paint76_linear_1415_2301" x1="198.965" y1="288.039" x2="260.637" y2="288.039" gradientUnits="userSpaceOnUse"><stop stop-color="#F3A88E"/><stop offset="1" stop-color="#DE7B66"/></linearGradient><linearGradient id="paint77_linear_1415_2301" x1="270.152" y1="330.065" x2="270.152" y2="194.41" gradientUnits="userSpaceOnUse"><stop stop-color="#fff"/><stop offset=".362" stop-color="#FCFCFD"/><stop offset=".684" stop-color="#F3F2F6"/><stop offset=".991" stop-color="#E3E3EA"/><stop offset="1" stop-color="#E3E2E9"/></linearGradient><linearGradient id="paint78_linear_1415_2301" x1="270.594" y1="209.42" x2="270.594" y2="169.69" gradientUnits="userSpaceOnUse"><stop stop-color="#F3A88E"/><stop offset="1" stop-color="#DE7B66"/></linearGradient><linearGradient id="paint79_linear_1415_2301" x1="277.866" y1="125.278" x2="290.94" y2="125.278" gradientUnits="userSpaceOnUse"><stop stop-color="#0D0F0D"/><stop offset="1" stop-color="#363636"/></linearGradient><linearGradient id="paint80_linear_1415_2301" x1="241.975" y1="152.634" x2="256.889" y2="152.634" gradientUnits="userSpaceOnUse"><stop stop-color="#F3A88E"/><stop offset="1" stop-color="#DE7B66"/></linearGradient><linearGradient id="paint81_linear_1415_2301" x1="284.641" y1="152.634" x2="299.782" y2="152.634" gradientUnits="userSpaceOnUse"><stop stop-color="#DE7B66"/><stop offset="1" stop-color="#F3A88E"/></linearGradient><linearGradient id="paint82_linear_1415_2301" x1="284.826" y1="153.332" x2="299.657" y2="153.332" gradientUnits="userSpaceOnUse"><stop stop-color="#DE7B66"/><stop offset="1" stop-color="#F3A88E"/></linearGradient><linearGradient id="paint83_linear_1415_2301" x1="-4.153" y1="172.701" x2="901.794" y2="172.701" gradientUnits="userSpaceOnUse"><stop stop-color="#D7DCF0"/><stop offset="1" stop-color="#EBECF7"/></linearGradient><linearGradient id="paint84_linear_1415_2301" x1="271.155" y1="209.42" x2="271.155" y2="169.69" gradientUnits="userSpaceOnUse"><stop stop-color="#F09779"/><stop offset="1" stop-color="#D56250"/></linearGradient><linearGradient id="paint85_linear_1415_2301" x1="270.533" y1="174.446" x2="270.533" y2="117.101" gradientUnits="userSpaceOnUse"><stop stop-color="#F3A88E"/><stop offset="1" stop-color="#DE7B66"/></linearGradient><linearGradient id="paint86_linear_1415_2301" x1="259.173" y1="146.24" x2="262.782" y2="146.24" gradientUnits="userSpaceOnUse"><stop stop-color="#0D0F0D"/><stop offset="1" stop-color="#363636"/></linearGradient><linearGradient id="paint87_linear_1415_2301" x1="276.876" y1="146.24" x2="280.484" y2="146.24" gradientUnits="userSpaceOnUse"><stop stop-color="#0D0F0D"/><stop offset="1" stop-color="#363636"/></linearGradient><linearGradient id="paint88_linear_1415_2301" x1="276.876" y1="151.366" x2="280.484" y2="151.366" gradientUnits="userSpaceOnUse"><stop stop-color="#0D0F0D"/><stop offset="1" stop-color="#363636"/></linearGradient><linearGradient id="paint89_linear_1415_2301" x1="254.256" y1="136.77" x2="266.044" y2="136.77" gradientUnits="userSpaceOnUse"><stop stop-color="#0D0F0D"/><stop offset="1" stop-color="#363636"/></linearGradient><linearGradient id="paint90_linear_1415_2301" x1="272.853" y1="136.77" x2="284.641" y2="136.77" gradientUnits="userSpaceOnUse"><stop stop-color="#0D0F0D"/><stop offset="1" stop-color="#363636"/></linearGradient><linearGradient id="paint91_linear_1415_2301" x1="249.492" y1="136.026" x2="252.271" y2="136.026" gradientUnits="userSpaceOnUse"><stop stop-color="#0D0F0D"/><stop offset="1" stop-color="#363636"/></linearGradient><linearGradient id="paint92_linear_1415_2301" x1="287.981" y1="135.012" x2="290.918" y2="135.012" gradientUnits="userSpaceOnUse"><stop stop-color="#0D0F0D"/><stop offset="1" stop-color="#363636"/></linearGradient><linearGradient id="paint93_linear_1415_2301" x1="246.753" y1="118.531" x2="286.712" y2="118.531" gradientUnits="userSpaceOnUse"><stop stop-color="#0D0F0D"/><stop offset="1" stop-color="#363636"/></linearGradient><linearGradient id="paint94_linear_1415_2301" x1="241.046" y1="532.519" x2="241.046" y2="512.077" gradientUnits="userSpaceOnUse"><stop stop-color="#5D4596"/><stop offset="1" stop-color="#9172B1"/></linearGradient><linearGradient id="paint95_linear_1415_2301" x1="308.577" y1="532.519" x2="308.577" y2="512.077" gradientUnits="userSpaceOnUse"><stop stop-color="#5D4596"/><stop offset="1" stop-color="#9172B1"/></linearGradient></defs></svg>