<svg width="869" height="577" viewBox="0 0 869 577" fill="none" xmlns="http://www.w3.org/2000/svg">
<path fill-rule="evenodd" clip-rule="evenodd" d="M105.455 101.059C105.455 109.593 112.546 116.525 121.303 116.525C130.06 116.525 137.151 109.593 137.151 101.059C137.151 92.525 130.06 85.5933 121.303 85.5933C112.546 85.5933 105.455 92.525 105.455 101.059Z" fill="url(#paint0_linear_1415_2301)"/>
<path fill-rule="evenodd" clip-rule="evenodd" d="M592.278 362.602C592.049 362.602 591.787 362.602 591.559 362.602C591.657 361.359 591.755 360.117 591.853 358.907C591.853 358.678 591.886 358.416 591.886 358.188C594.108 360.444 596.068 362.373 596.362 362.373C594.99 362.536 593.65 362.602 592.278 362.602Z" fill="#0F5E4D"/>
<path fill-rule="evenodd" clip-rule="evenodd" d="M115.813 133.56C118.427 133.56 118.427 129.505 115.813 129.505C113.199 129.538 113.199 133.56 115.813 133.56Z" fill="#F7B599"/>
<path fill-rule="evenodd" clip-rule="evenodd" d="M551.856 122.345C551.856 122.345 534.504 123.227 532.838 142.29C531.596 156.546 534.341 162.922 523.525 174.333C523.525 174.333 555.222 193.035 600.676 179.27C600.676 179.27 592.147 164.524 592.376 150.497C592.604 136.502 588.618 130.323 581.298 125.026C574.011 119.762 559.176 116.623 551.856 122.345Z" fill="url(#paint1_linear_1415_2301)"/>
<path fill-rule="evenodd" clip-rule="evenodd" d="M635.64 562.315L648.94 568.887C650.345 569.573 651.195 571.176 650.77 572.68C650.41 573.857 649.299 574.968 646.326 575.034C639.757 575.165 610.642 570.62 610.642 570.62V573.922H597.114C597.114 573.922 596.199 556.691 600.316 554.435L635.64 562.315Z" fill="url(#paint2_linear_1415_2301)"/>
<path fill-rule="evenodd" clip-rule="evenodd" d="M616.295 548.353L612.897 499.177L591.493 497.15L600.316 554.435C600.316 554.435 613.028 560.353 623.19 564.276C633.353 568.2 635.64 562.315 635.64 562.315L616.295 548.353Z" fill="url(#paint3_linear_1415_2301)"/>
<path fill-rule="evenodd" clip-rule="evenodd" d="M615.282 533.607L597.702 537.53L597.114 533.607H615.282Z" fill="url(#paint4_linear_1415_2301)"/>
<path fill-rule="evenodd" clip-rule="evenodd" d="M483.332 562.315L470.033 568.887C468.627 569.573 467.778 571.176 468.203 572.68C468.562 573.857 469.673 574.772 472.647 574.838C479.215 574.968 508.33 570.62 508.33 570.62V573.922H521.793C521.793 573.922 522.806 556.691 518.689 554.435L483.332 562.315Z" fill="url(#paint5_linear_1415_2301)"/>
<path fill-rule="evenodd" clip-rule="evenodd" d="M506.075 499.144L502.677 548.32L483.332 562.282C483.332 562.282 485.62 568.167 495.782 564.244C505.945 560.32 518.656 554.402 518.656 554.402L527.479 497.117L506.075 499.144Z" fill="url(#paint6_linear_1415_2301)"/>
<path fill-rule="evenodd" clip-rule="evenodd" d="M522.055 532.462L503.788 532.593L503.461 537.073L522.055 532.462Z" fill="url(#paint7_linear_1415_2301)"/>
<path fill-rule="evenodd" clip-rule="evenodd" d="M578.292 269.612C578.292 269.612 596.656 275.562 610.217 337.85C623.778 400.138 628.582 487.341 630.967 533.607H581.854L556.137 340.891L543.981 532.331L494.671 532.658C494.671 532.658 497.514 290.603 535.942 269.612H578.292Z" fill="url(#paint8_linear_1415_2301)"/>
<path d="M543.241 335.491L542.87 336.469L555.82 341.394L556.191 340.416L543.241 335.491Z" fill="#030507"/>
<path d="M629.791 511.438H579.664V512.484H629.791V511.438Z" fill="#030507"/>
<path d="M544.732 511.438H495.39V512.484H544.732V511.438Z" fill="#030507"/>
<path fill-rule="evenodd" clip-rule="evenodd" d="M516.598 206.899C508.624 219.291 484.345 238.582 446.865 251.596L442.878 274.778C442.878 274.778 506.664 258.789 531.858 232.631L538.034 194.082C538.001 194.049 524.571 194.507 516.598 206.899Z" fill="url(#paint9_linear_1415_2301)"/>
<path fill-rule="evenodd" clip-rule="evenodd" d="M535.91 269.612C535.191 270.592 578.259 269.612 578.259 269.612V263.268L535.616 263.399C535.648 263.366 536.661 268.631 535.91 269.612Z" fill="#F5ACA3"/>
<path fill-rule="evenodd" clip-rule="evenodd" d="M657.762 267.094C657.73 264.805 657.142 262.484 655.835 260.326L624.726 221.874C613.812 201.242 597.048 201.406 597.048 201.406L582.442 203.825L577.41 227.138L589.533 239.628C591.265 236.882 592.67 234.201 593.846 231.683L626.948 265.492L588.193 292.859L579.403 290.57L589.99 311.235L600.382 304.794L600.185 304.565L649.005 279.878C654.495 278.047 657.991 272.751 657.762 267.094Z" fill="url(#paint10_linear_1415_2301)"/>
<path d="M577.349 285.442L576.418 285.918L592.56 317.502L593.491 317.026L577.349 285.442Z" fill="#030507"/>
<path fill-rule="evenodd" clip-rule="evenodd" d="M582.05 197.417L597.048 201.406C597.048 201.406 584.402 215.793 589.565 239.629L578.324 263.236L535.681 263.367L526.564 235.182C524.048 227.433 522.12 219.226 525.943 212.033L535.681 194.147L545.027 193.755L582.05 197.417Z" fill="white"/>
<path fill-rule="evenodd" clip-rule="evenodd" d="M572.475 194.343L571.168 169.559L553 177.243L553.13 192.185L542.804 193.591C542.804 193.591 548.36 211.542 583.749 197.875L572.475 194.343Z" fill="url(#paint11_linear_1415_2301)"/>
<path fill-rule="evenodd" clip-rule="evenodd" d="M546.039 156.807C546.105 161.254 542.543 164.916 538.099 165.014C533.655 165.079 529.995 161.515 529.897 157.069C529.832 152.622 533.393 148.96 537.838 148.862C542.314 148.796 545.974 152.36 546.039 156.807Z" fill="url(#paint12_linear_1415_2301)"/>
<path fill-rule="evenodd" clip-rule="evenodd" d="M553.065 187.379L570.155 173.057L552.934 175.64L553.065 187.379Z" fill="url(#paint13_linear_1415_2301)"/>
<path fill-rule="evenodd" clip-rule="evenodd" d="M553.522 180.349C543.229 179.826 535.093 170.409 535.223 161.973L535.648 143.696C535.844 133.135 544.373 124.601 554.928 124.47C565.744 124.307 576.527 132.906 576.691 143.729L576.135 159.717C575.71 172.077 565.874 180.153 553.522 180.349Z" fill="url(#paint14_linear_1415_2301)"/>
<path fill-rule="evenodd" clip-rule="evenodd" d="M547.968 163.412H547.902L546.497 163.281C546.04 163.248 545.647 163.02 545.386 162.66C545.125 162.3 544.994 161.842 545.092 161.417L545.55 158.867C545.615 158.573 545.876 158.377 546.17 158.409C546.464 158.475 546.661 158.736 546.628 159.031L546.17 161.581C546.138 161.712 546.17 161.842 546.268 161.973C546.366 162.071 546.464 162.169 546.628 162.169L548.033 162.3C548.327 162.333 548.556 162.595 548.523 162.889C548.458 163.216 548.229 163.412 547.968 163.412Z" fill="url(#paint15_linear_1415_2301)"/>
<path fill-rule="evenodd" clip-rule="evenodd" d="M557.084 146.802C557.084 146.802 552.706 146.213 552.575 147.979C552.575 147.979 552.51 149.189 556.333 149.647C560.156 150.104 562.313 150.072 562.705 148.927C563.13 147.816 559.143 146.933 557.084 146.802Z" fill="url(#paint16_linear_1415_2301)"/>
<path fill-rule="evenodd" clip-rule="evenodd" d="M539.798 146.508C539.798 146.508 543.458 146.344 543.654 148.012C543.654 148.012 543.752 149.156 540.582 149.254C537.38 149.352 536.367 148.894 536.138 147.946C535.844 146.9 538.099 146.442 539.798 146.508Z" fill="url(#paint17_linear_1415_2301)"/>
<path fill-rule="evenodd" clip-rule="evenodd" d="M541.89 154.486C541.857 155.499 541.04 156.317 539.994 156.284C538.981 156.251 538.164 155.401 538.197 154.388C538.23 153.374 539.079 152.557 540.092 152.589C541.105 152.622 541.922 153.472 541.89 154.486Z" fill="url(#paint18_linear_1415_2301)"/>
<path fill-rule="evenodd" clip-rule="evenodd" d="M558.097 154.845C558.065 155.859 557.215 156.676 556.202 156.644C555.189 156.611 554.372 155.761 554.405 154.747C554.438 153.734 555.287 152.916 556.3 152.949C557.313 152.949 558.097 153.799 558.097 154.845Z" fill="url(#paint19_linear_1415_2301)"/>
<path fill-rule="evenodd" clip-rule="evenodd" d="M543 166.159L553.98 165.439C553.98 165.439 552.117 167.466 547.085 167.466C543.817 167.466 543 166.159 543 166.159Z" fill="#EA536B"/>
<path fill-rule="evenodd" clip-rule="evenodd" d="M577.867 131.729C569.208 123.391 562.509 122.41 562.509 122.41L549.895 122.671C549.895 122.671 547.968 123.489 546.105 124.96C545.549 125.124 544.961 125.32 544.242 125.582C536.465 128.361 533.459 138.497 535.648 143.696C535.648 143.696 540.811 140.099 544.634 135.391C549.699 142.617 563.751 151.15 577.867 153.701C577.867 153.701 586.526 140.066 577.867 131.729Z" fill="url(#paint20_linear_1415_2301)"/>
<path fill-rule="evenodd" clip-rule="evenodd" d="M585.677 158.344C585.742 162.823 582.18 166.518 577.671 166.584C573.194 166.649 569.502 163.085 569.436 158.573C569.371 154.093 572.965 150.399 577.442 150.333C581.919 150.268 585.612 153.832 585.677 158.344Z" fill="url(#paint21_linear_1415_2301)"/>
<path fill-rule="evenodd" clip-rule="evenodd" d="M574.763 161.45C574.469 161.45 574.207 161.221 574.207 160.894C574.207 160.764 574.175 157.952 576.07 156.317C577.148 155.369 578.619 155.042 580.416 155.303C580.71 155.336 580.939 155.63 580.873 155.924C580.841 156.219 580.547 156.415 580.252 156.382C578.782 156.153 577.638 156.415 576.789 157.134C575.286 158.442 575.318 160.862 575.318 160.862C575.318 161.221 575.089 161.45 574.763 161.45Z" fill="url(#paint22_linear_1415_2301)"/>
<path fill-rule="evenodd" clip-rule="evenodd" d="M167.606 562.315L180.742 569.541C182.148 570.293 182.964 572.058 182.54 573.726C182.213 575.034 181.069 576.047 178.161 576.113C171.658 576.244 142.968 571.47 142.968 571.47V574.838L129.635 573.17C129.635 573.17 128.721 556.168 132.772 553.683L167.606 562.315Z" fill="url(#paint23_linear_1415_2301)"/>
<path fill-rule="evenodd" clip-rule="evenodd" d="M150.19 548.091V492.572L132.773 493.978L134.603 546.097L132.773 553.617C132.773 553.617 145.321 560.124 155.353 564.473C165.384 568.789 167.639 562.315 167.639 562.315L150.19 548.091Z" fill="url(#paint24_linear_1415_2301)"/>
<path fill-rule="evenodd" clip-rule="evenodd" d="M85.8812 562.315L72.745 569.541C71.3399 570.293 70.5229 572.058 70.9477 573.726C71.2745 575.034 72.4182 576.047 75.3264 576.113C81.8292 576.244 110.52 571.47 110.52 571.47V574.838L123.852 573.17C123.852 573.17 124.8 556.168 120.715 553.683L85.8812 562.315Z" fill="url(#paint25_linear_1415_2301)"/>
<path fill-rule="evenodd" clip-rule="evenodd" d="M118.918 546.13L117.578 494.011L100.161 492.605L103.037 548.353L85.8811 562.348C85.8811 562.348 88.1359 568.854 98.1677 564.506C108.2 560.19 120.748 553.65 120.748 553.65L118.918 546.13Z" fill="url(#paint26_linear_1415_2301)"/>
<path fill-rule="evenodd" clip-rule="evenodd" d="M147.085 281.088C147.085 281.088 168.096 294.396 163.946 355.147C159.796 415.898 153.392 532.887 153.392 532.887H131.956L124.701 332.39L121.172 332.226L121.27 532.855H99.834L82.9726 350.602C82.9726 350.602 78.0384 310.058 97.8734 281.088C95.0959 282.952 123.688 267.584 147.085 281.088Z" fill="url(#paint27_linear_1415_2301)"/>
<path fill-rule="evenodd" clip-rule="evenodd" d="M134.145 331.703L112.611 332.684C112.251 332.684 111.957 333.011 111.957 333.371C111.99 333.73 112.284 334.025 112.643 334.025L134.178 333.044C134.537 333.011 134.831 332.717 134.831 332.357C134.831 331.965 134.537 331.703 134.145 331.703Z" fill="#000001"/>
<path fill-rule="evenodd" clip-rule="evenodd" d="M194.99 251.334C194.99 251.334 183.357 232.631 174.436 212.85C169.698 202.321 163.587 198.627 158.947 197.482L141.628 193.395L99.8016 192.185L84.3453 196.305C79.5417 196.861 72.2874 199.902 66.863 212C57.9422 231.781 48.9233 254.408 48.9233 254.408L65.4579 258.854L86.9268 226.975C92.2858 249.928 97.9062 274.451 97.9062 274.451C122.12 270.298 147.085 274.451 147.085 274.451C149.275 262.615 152.052 244.795 154.372 229.296L175.841 259.737L194.99 251.334Z" fill="url(#paint28_linear_1415_2301)" stroke="#D9DADA" stroke-width="0.5669" stroke-miterlimit="22.9256"/>
<path fill-rule="evenodd" clip-rule="evenodd" d="M241.62 221.318L247.175 229.525L192.833 265.982C186.657 269.971 178.39 267.159 175.906 260.26C173.848 254.506 176.658 248.163 182.278 245.808L241.62 221.318Z" fill="url(#paint29_linear_1415_2301)"/>
<path fill-rule="evenodd" clip-rule="evenodd" d="M147.085 274.451V281.088C147.085 281.088 122.512 278.309 97.9062 281.088V274.451L122.545 267.29L147.085 274.451Z" fill="#180302"/>
<path fill-rule="evenodd" clip-rule="evenodd" d="M119.865 202.354C101.991 202.354 99.8013 192.185 99.8013 192.185L113.33 187.084L114.996 169.919C117.316 171.488 129.766 180.251 129.766 180.251L129.145 170.867L130.322 188.196L139.373 192.349L141.628 193.395C141.628 193.395 141.301 198.299 132.478 200.85C129.439 201.733 125.355 202.321 119.963 202.321C119.93 202.354 119.898 202.354 119.865 202.354ZM115.029 169.657L115.257 167.434L127.675 167.695L115.029 169.657Z" fill="url(#paint30_linear_1415_2301)"/>
<path fill-rule="evenodd" clip-rule="evenodd" d="M87.9396 227.433L86.3057 218.735C86.2404 218.376 85.8809 218.147 85.5214 218.212C85.162 218.277 84.9333 218.637 84.9987 218.997L86.6325 227.694C86.6979 228.054 87.0573 228.283 87.4168 228.217C87.7762 228.152 88.0049 227.792 87.9396 227.433Z" fill="#000001"/>
<path fill-rule="evenodd" clip-rule="evenodd" d="M64.4121 252.184L37.813 193.918C37.7803 193.166 37.6823 192.414 37.5189 191.662L36.9634 189.144C36.2118 185.777 34.7087 182.605 32.5193 179.924L28.6634 175.183C27.7484 174.071 26.0492 174.038 25.1016 175.117C24.2846 176.033 24.1212 177.341 24.6768 178.453L27.5851 184.24L8.95909 171.979C8.07681 171.357 6.83509 171.652 6.31225 172.632L5.98546 173.286C5.59334 174.038 5.78945 174.987 6.44299 175.543L18.6642 184.24L3.2406 176.196C2.29297 175.641 1.08399 176 0.659185 177.014L0.430422 177.504C0.0709743 178.354 0.365072 179.335 1.14932 179.793L14.3835 187.673L3.01184 183.913C1.9335 183.521 0.757153 184.24 0.593768 185.384L0.561059 185.613C0.463027 186.398 0.887853 187.15 1.60675 187.51L13.1418 192.283L6.63905 191.204C5.36464 190.812 4.12291 191.858 4.28629 193.199C4.38432 193.82 4.7764 194.376 5.36459 194.605L29.9704 204.414L42.8779 259.803C44.6751 266.93 52.6157 270.527 59.1511 267.192C64.6735 264.315 66.9609 257.743 64.4121 252.184Z" fill="url(#paint31_linear_1415_2301)"/>
<path fill-rule="evenodd" clip-rule="evenodd" d="M27.0623 184.011C27.0296 184.076 26.4414 185.515 26.4414 187.771C26.4414 189.635 26.8662 192.054 28.3693 194.605C28.5327 194.899 28.9249 194.997 29.1863 194.834C29.4804 194.67 29.5784 194.278 29.415 194.016C28.0426 191.662 27.6504 189.471 27.6504 187.804C27.6504 186.79 27.7812 185.94 27.9119 185.384C27.9773 185.09 28.0426 184.861 28.108 184.73L28.1733 184.567V184.534C28.304 184.24 28.1406 183.88 27.8465 183.749C27.5197 183.553 27.193 183.717 27.0623 184.011Z" fill="#EB967A"/>
<path fill-rule="evenodd" clip-rule="evenodd" d="M143.654 144.546C143.654 144.546 147.739 141.374 150.745 145.134C155.287 150.889 147.346 161.287 140.419 155.924L143.654 144.546Z" fill="url(#paint32_linear_1415_2301)"/>
<path fill-rule="evenodd" clip-rule="evenodd" d="M143.033 152.851L142.87 152.818C142.707 152.72 142.609 152.524 142.707 152.328C145.288 147.292 147.804 148.012 147.902 148.044C148.098 148.11 148.196 148.306 148.131 148.502C148.066 148.698 147.87 148.796 147.674 148.731C147.641 148.731 145.582 148.241 143.327 152.655C143.295 152.785 143.164 152.851 143.033 152.851Z" fill="#000001"/>
<path fill-rule="evenodd" clip-rule="evenodd" d="M142.674 170.474C139.994 170.474 137.086 167.728 136.694 162.464C136.661 162.071 136.955 161.712 137.347 161.712C137.707 161.679 138.099 161.973 138.099 162.366C138.426 166.714 140.68 169.036 142.641 169.036C145.092 169.036 147.052 166.224 147.052 162.791C147.052 159.358 145.059 156.546 142.641 156.546C142.249 156.546 141.922 156.219 141.922 155.826C141.922 155.434 142.249 155.107 142.641 155.107C145.876 155.107 148.49 158.54 148.49 162.791C148.49 167.041 145.876 170.474 142.674 170.474Z" fill="url(#paint33_linear_1415_2301)"/>
<path fill-rule="evenodd" clip-rule="evenodd" d="M99.7359 144.546C99.7359 144.546 95.6513 141.374 92.645 145.134C88.1029 150.889 96.0434 161.287 102.971 155.924L99.7359 144.546Z" fill="url(#paint34_linear_1415_2301)"/>
<path fill-rule="evenodd" clip-rule="evenodd" d="M100.357 152.851C100.226 152.851 100.096 152.785 100.03 152.655C97.7428 148.208 95.7169 148.731 95.6842 148.731C95.5208 148.796 95.2921 148.666 95.2267 148.502C95.1613 148.306 95.2594 148.11 95.4555 148.044C95.5535 148.012 98.0696 147.292 100.651 152.328C100.749 152.491 100.684 152.72 100.488 152.818L100.357 152.851Z" fill="url(#paint35_linear_1415_2301)"/>
<path fill-rule="evenodd" clip-rule="evenodd" d="M100.749 170.474C97.514 170.474 94.8999 167.041 94.8999 162.791C94.8999 158.54 97.514 155.107 100.749 155.107C101.141 155.107 101.468 155.434 101.468 155.826C101.468 156.219 101.141 156.546 100.749 156.546C98.3309 156.546 96.3377 159.358 96.3377 162.791C96.3377 166.224 98.3309 169.036 100.749 169.036C102.644 169.036 105.487 166.028 105.487 161.908C105.487 161.516 105.814 161.189 106.206 161.189C106.598 161.189 106.925 161.516 106.925 161.908C106.892 166.649 103.527 170.474 100.749 170.474Z" fill="url(#paint36_linear_1415_2301)"/>
<path fill-rule="evenodd" clip-rule="evenodd" d="M95.3574 133.658C95.3574 147.783 107.089 159.227 121.564 159.227C136.04 159.227 147.771 147.783 147.771 133.658C147.771 119.533 136.04 108.089 121.564 108.089C107.089 108.121 95.3574 119.565 95.3574 133.658Z" fill="url(#paint37_linear_1415_2301)"/>
<path fill-rule="evenodd" clip-rule="evenodd" d="M129.145 170.899L128.917 167.695L127.642 167.662L128.884 167.466L129.145 170.899ZM114.996 169.919C114.8 169.788 114.702 169.722 114.637 169.69L115.029 169.624L114.996 169.919Z" fill="white"/>
<path fill-rule="evenodd" clip-rule="evenodd" d="M129.766 180.284C129.766 180.284 117.349 171.488 114.996 169.951L115.029 169.657L127.675 167.695L128.949 167.728L129.178 170.932L129.766 180.284Z" fill="url(#paint38_linear_1415_2301)"/>
<path fill-rule="evenodd" clip-rule="evenodd" d="M143.687 131.761C143.687 131.761 146.432 171.226 122.447 171.226C96.501 171.226 99.2132 131.761 99.2132 131.761C99.2132 131.761 99.3439 114.007 121.63 114.007C142.086 114.007 143.687 131.761 143.687 131.761Z" fill="url(#paint39_linear_1415_2301)"/>
<path fill-rule="evenodd" clip-rule="evenodd" d="M129.439 145.592C129.439 146.638 130.289 147.488 131.335 147.488C132.38 147.488 133.23 146.638 133.23 145.592C133.23 144.546 132.38 143.696 131.335 143.696C130.289 143.696 129.439 144.546 129.439 145.592Z" fill="url(#paint40_linear_1415_2301)"/>
<path fill-rule="evenodd" clip-rule="evenodd" d="M110.52 145.592C110.52 146.638 111.369 147.488 112.415 147.488C113.46 147.488 114.31 146.638 114.31 145.592C114.31 144.546 113.46 143.696 112.415 143.696C111.369 143.696 110.52 144.546 110.52 145.592Z" fill="url(#paint41_linear_1415_2301)"/>
<path fill-rule="evenodd" clip-rule="evenodd" d="M128.655 157.134H116.695C116.695 157.134 117.512 160.175 122.61 160.175C127.707 160.175 128.655 157.134 128.655 157.134Z" fill="#E3000F"/>
<path fill-rule="evenodd" clip-rule="evenodd" d="M123.361 150.333V153.047L121.466 153.08C121.27 153.08 121.107 153.243 121.139 153.44C121.139 153.636 121.303 153.799 121.499 153.799L123.754 153.766C123.95 153.766 124.08 153.603 124.08 153.407V150.333C124.08 150.137 123.917 149.974 123.721 149.974C123.525 150.006 123.361 150.137 123.361 150.333Z" fill="#000001"/>
<path fill-rule="evenodd" clip-rule="evenodd" d="M112.578 134.9C112.578 134.9 117.447 133.952 117.676 136.568C117.676 136.568 117.806 138.333 113.558 139.053C109.31 139.772 106.337 139.968 105.846 138.333C105.291 136.731 110.291 135.129 112.578 134.9Z" fill="url(#paint42_linear_1415_2301)"/>
<path fill-rule="evenodd" clip-rule="evenodd" d="M134.831 135.162C134.831 135.162 139.766 135.391 139.373 137.974C139.373 137.974 139.079 139.739 134.766 139.412C130.485 139.118 127.414 138.628 127.414 136.731C127.446 134.541 132.577 134.835 134.831 135.162Z" fill="url(#paint43_linear_1415_2301)"/>
<path fill-rule="evenodd" clip-rule="evenodd" d="M145.419 132.513C144.929 117.277 136.433 114.269 131.302 113.844V113.778C131.302 113.778 129.472 109.266 114.31 112.045C99.1154 114.824 97.1548 131.761 97.1548 131.761C116.794 132.415 125.29 124.699 128.884 119.173C133.296 129.244 145.419 132.513 145.419 132.513Z" fill="url(#paint44_linear_1415_2301)"/>
<path fill-rule="evenodd" clip-rule="evenodd" d="M401.836 546.653H379.713L343.082 566.271L406.051 565.519L401.836 546.653Z" fill="url(#paint45_linear_1415_2301)"/>
<path fill-rule="evenodd" clip-rule="evenodd" d="M390.595 570.031C392.686 570.031 394.353 571.764 394.385 573.922L406.247 573.889L406.018 565.486L343.05 566.238L343.278 574.543L386.771 574.02C386.804 571.797 388.503 570.031 390.595 570.031Z" fill="#180302"/>
<path fill-rule="evenodd" clip-rule="evenodd" d="M371.642 557.214L371.282 557.181L364.028 555.186C363.309 554.99 362.884 554.238 363.081 553.552C363.277 552.832 364.028 552.407 364.714 552.604L371.969 554.598C372.688 554.794 373.112 555.546 372.916 556.266C372.786 556.821 372.23 557.214 371.642 557.214Z" fill="white"/>
<path fill-rule="evenodd" clip-rule="evenodd" d="M378.733 553.552L378.373 553.519L371.119 551.525C370.4 551.329 369.975 550.577 370.171 549.89C370.368 549.171 371.119 548.746 371.838 548.942L379.092 550.936C379.811 551.133 380.236 551.885 380.04 552.604C379.877 553.16 379.321 553.552 378.733 553.552Z" fill="white"/>
<path d="M401.868 515.427H379.288V546.653H401.868V515.427Z" fill="url(#paint46_linear_1415_2301)"/>
<path fill-rule="evenodd" clip-rule="evenodd" d="M441.734 546.653H463.889L500.488 566.271L437.519 565.519L441.734 546.653Z" fill="url(#paint47_linear_1415_2301)"/>
<path fill-rule="evenodd" clip-rule="evenodd" d="M452.975 570.031C450.884 570.031 449.217 571.764 449.185 573.922H437.356L437.552 565.486L500.52 566.238L500.292 574.543L456.798 574.02C456.798 571.797 455.067 570.031 452.975 570.031Z" fill="#180302"/>
<path fill-rule="evenodd" clip-rule="evenodd" d="M473.071 558.326C472.581 558.326 472.124 558.064 471.862 557.574C471.536 556.92 471.797 556.102 472.451 555.775L478.561 552.669C479.215 552.342 480.032 552.604 480.358 553.258C480.685 553.912 480.424 554.729 479.77 555.056L473.66 558.162C473.464 558.293 473.267 558.326 473.071 558.326Z" fill="white"/>
<path fill-rule="evenodd" clip-rule="evenodd" d="M467.092 553.552C466.569 553.552 466.046 553.225 465.85 552.702C465.589 552.015 465.915 551.23 466.602 550.969L471.601 548.974C472.287 548.713 473.072 549.04 473.333 549.726C473.594 550.413 473.268 551.198 472.581 551.459L467.582 553.454C467.418 553.519 467.255 553.552 467.092 553.552Z" fill="white"/>
<path fill-rule="evenodd" clip-rule="evenodd" d="M461.896 515.427H439.316L441.734 546.653H464.314L461.896 515.427Z" fill="url(#paint48_linear_1415_2301)"/>
<path fill-rule="evenodd" clip-rule="evenodd" d="M453.923 279.715C455.622 297.829 469.183 537.628 469.183 537.628H433.957L418.501 324.608L412.162 324.739L408.044 537.628H374.387C374.387 537.628 372.459 315.126 374.518 280.271L453.923 279.715Z" fill="#00A2D4"/>
<path fill-rule="evenodd" clip-rule="evenodd" d="M403.273 325.425H429.088C429.448 325.425 429.742 325.131 429.742 324.771C429.742 324.412 429.448 324.117 429.088 324.117H403.273C402.914 324.117 402.62 324.412 402.62 324.771C402.62 325.164 402.914 325.425 403.273 325.425Z" fill="#000001"/>
<path fill-rule="evenodd" clip-rule="evenodd" d="M471.895 303.715L482.221 330.068L490.194 329.218L484.149 295.115L471.895 303.715Z" fill="#F7B599"/>
<path fill-rule="evenodd" clip-rule="evenodd" d="M481.829 325.916C481.829 325.916 477.745 333.305 481.078 342.166L479.542 351.125C479.313 352.531 480.065 353.904 481.306 354.395C482.679 354.918 484.117 354.199 484.607 352.76L486.371 347.627L486.698 349.523C487.221 352.531 486.796 355.637 485.489 358.286L481.764 365.871C481.339 366.722 481.404 367.801 481.895 368.618C482.875 370.253 485.032 370.318 486.045 368.781L492.123 359.528C494.475 355.932 495.259 351.387 494.247 347.038L488.855 323.692L481.829 325.916Z" fill="url(#paint49_linear_1415_2301)"/>
<path fill-rule="evenodd" clip-rule="evenodd" d="M492.939 325.229C492.939 325.229 479.574 227.694 466.667 191.302C460.229 173.123 448.139 170.082 448.139 170.082L440.591 166.714L389.124 166.649L378.537 171.096C377.981 171.325 377.426 171.619 376.936 171.913C343.311 189.308 315.927 220.305 315.927 220.305L334.357 242.506L371.413 218.964V294.363H458.236L458.203 284.619L469.837 329.578L492.939 325.229Z" fill="url(#paint50_linear_1415_2301)" stroke="#D9DADA" stroke-width="0.5669" stroke-miterlimit="22.9256"/>
<path fill-rule="evenodd" clip-rule="evenodd" d="M426.866 160.796L424.938 137.124C424.938 137.124 420.658 140.132 416.769 140.884C412.88 141.636 409.09 139.38 409.057 139.347L404.515 136.731L402.685 161.091L389.092 166.682C414.743 190.06 440.558 166.747 440.558 166.747L426.866 160.796Z" fill="url(#paint51_linear_1415_2301)"/>
<path fill-rule="evenodd" clip-rule="evenodd" d="M388.111 167.532C388.177 167.597 390.497 170.344 394.973 173.09C399.45 175.837 406.116 178.583 414.776 178.583C423.402 178.583 430.101 175.87 434.611 173.123C439.12 170.409 441.473 167.663 441.538 167.597L439.578 165.897V165.93C439.382 166.159 437.061 168.709 432.879 171.161C428.696 173.613 422.618 176 414.776 176C406.704 176 400.529 173.45 396.346 170.9C394.255 169.624 392.686 168.349 391.64 167.401C391.118 166.943 390.725 166.551 390.464 166.257C390.333 166.126 390.235 166.028 390.17 165.962L390.105 165.897L388.111 167.532Z" fill="white"/>
<path fill-rule="evenodd" clip-rule="evenodd" d="M458.825 281.612L458.563 206.866C458.563 206.507 458.269 206.212 457.91 206.212C457.55 206.212 457.256 206.507 457.256 206.866L457.485 281.612C457.485 281.971 457.779 282.265 458.138 282.265C458.53 282.233 458.825 281.939 458.825 281.612Z" fill="#000001"/>
<path fill-rule="evenodd" clip-rule="evenodd" d="M372.034 219.029V206.474C372.034 206.114 371.74 205.82 371.381 205.82C371.021 205.82 370.727 206.114 370.727 206.474V219.029C370.727 219.389 371.021 219.683 371.381 219.683C371.74 219.651 372.034 219.389 372.034 219.029Z" fill="#000001"/>
<path fill-rule="evenodd" clip-rule="evenodd" d="M427.552 79.1848C410.266 70.3567 400.496 83.5662 400.496 83.5662C380.399 88.8631 392.359 109.789 392.359 109.789L398.012 102.432L436.277 109.691C436.277 109.691 446.538 88.8631 427.552 79.1848Z" fill="#B65A00"/>
<path fill-rule="evenodd" clip-rule="evenodd" d="M401.411 119.467C401.541 123.652 398.241 127.151 394.058 127.249C389.876 127.38 386.379 124.078 386.281 119.892C386.151 115.707 389.451 112.209 393.634 112.11C397.816 111.98 401.28 115.282 401.411 119.467Z" fill="url(#paint52_linear_1415_2301)"/>
<path fill-rule="evenodd" clip-rule="evenodd" d="M389.745 119.009C389.778 118.977 390.104 118.879 390.562 118.879C391.052 118.879 391.706 119.009 392.457 119.533C393.242 120.056 394.124 120.971 395.006 122.606C395.137 122.835 395.398 122.9 395.627 122.802C395.856 122.672 395.921 122.41 395.823 122.181C394.875 120.448 393.895 119.402 392.98 118.781C392.065 118.159 391.215 117.963 390.562 117.996C389.843 117.996 389.386 118.225 389.353 118.225C389.124 118.323 389.026 118.617 389.124 118.846C389.222 119.042 389.516 119.14 389.745 119.009Z" fill="#DB7267"/>
<path fill-rule="evenodd" clip-rule="evenodd" d="M429.056 119.663C429.056 123.849 432.454 127.249 436.637 127.249C440.819 127.249 444.218 123.849 444.218 119.663C444.218 115.478 440.819 112.078 436.637 112.078C432.421 112.078 429.056 115.478 429.056 119.663Z" fill="url(#paint53_linear_1415_2301)"/>
<path fill-rule="evenodd" clip-rule="evenodd" d="M441.081 118.061C441.048 118.029 440.623 117.865 439.97 117.865C439.316 117.865 438.467 118.029 437.552 118.683C436.637 119.337 435.656 120.416 434.742 122.214C434.611 122.443 434.709 122.704 434.938 122.835C435.166 122.966 435.46 122.868 435.558 122.639C436.441 120.939 437.323 119.991 438.075 119.435C438.859 118.912 439.512 118.781 439.97 118.781C440.231 118.781 440.427 118.813 440.558 118.846L440.689 118.879H440.721C440.95 118.977 441.244 118.879 441.342 118.65C441.408 118.454 441.31 118.159 441.081 118.061Z" fill="url(#paint54_linear_1415_2301)"/>
<path fill-rule="evenodd" clip-rule="evenodd" d="M404.776 136.927L424.938 137.156L426.213 152.491L404.776 136.927Z" fill="url(#paint55_linear_1415_2301)"/>
<path fill-rule="evenodd" clip-rule="evenodd" d="M435.656 106.486C435.689 115.053 434.513 122.443 433.336 127.707C432.16 132.84 427.651 136.437 422.912 139.38L422.063 139.903C417.063 142.976 412.913 143.074 407.783 140.164C402.62 137.222 397.816 133.331 396.673 127.805C394.614 117.8 394.32 106.683 394.32 106.683C394.32 106.683 391.412 83.5332 413.697 83.8275C436.016 84.1545 435.656 106.486 435.656 106.486Z" fill="url(#paint56_linear_1415_2301)"/>
<path fill-rule="evenodd" clip-rule="evenodd" d="M407.195 113.288C407.195 114.301 406.378 115.086 405.397 115.086C404.417 115.086 403.6 114.268 403.6 113.288C403.6 112.307 404.417 111.489 405.397 111.489C406.378 111.457 407.195 112.274 407.195 113.288Z" fill="url(#paint57_linear_1415_2301)"/>
<path fill-rule="evenodd" clip-rule="evenodd" d="M424.873 113.288C424.873 114.301 424.056 115.086 423.076 115.086C422.095 115.086 421.278 114.268 421.278 113.288C421.278 112.307 422.095 111.489 423.076 111.489C424.089 111.457 424.873 112.274 424.873 113.288Z" fill="url(#paint58_linear_1415_2301)"/>
<path fill-rule="evenodd" clip-rule="evenodd" d="M412.129 117.996V120.873C412.129 121.004 412.194 121.102 412.26 121.2C412.358 121.298 412.456 121.331 412.586 121.331H414.939C415.2 121.331 415.396 121.135 415.396 120.873C415.396 120.612 415.2 120.415 414.939 120.415H413.044V117.996C413.044 117.734 412.848 117.538 412.586 117.538C412.325 117.538 412.129 117.734 412.129 117.996Z" fill="url(#paint59_linear_1415_2301)"/>
<path fill-rule="evenodd" clip-rule="evenodd" d="M398.666 105.637L410.462 104.558C410.462 104.558 409.417 101.517 404.646 102.007C399.744 102.53 398.666 105.637 398.666 105.637Z" fill="url(#paint60_linear_1415_2301)"/>
<path fill-rule="evenodd" clip-rule="evenodd" d="M429.056 105.637L417.259 104.558C417.259 104.558 418.305 101.517 423.076 102.007C427.945 102.53 429.056 105.637 429.056 105.637Z" fill="url(#paint61_linear_1415_2301)"/>
<path fill-rule="evenodd" clip-rule="evenodd" d="M408.567 125.026H420.2C420.2 125.026 419.645 128.59 414.22 128.59C408.796 128.59 408.567 125.026 408.567 125.026Z" fill="white"/>
<path fill-rule="evenodd" clip-rule="evenodd" d="M433.304 86.6395L433.5 90.8901C430.722 86.3452 425.036 80.329 414.384 80.5252C398.927 80.8195 401.836 85.4951 402.522 86.3779C389.614 89.7784 389.353 101.713 389.353 101.713L394.091 115.772C394.091 115.772 397.947 101.419 397.718 94.6176C397.489 88.0455 403.927 86.0836 404.352 85.9528C406.312 85.5932 409.645 85.8221 412.978 90.04C416.965 95.0753 426.899 100.176 433.826 97.0044L434.839 117.44C442.976 96.2524 433.304 86.6395 433.304 86.6395Z" fill="url(#paint62_linear_1415_2301)"/>
<path fill-rule="evenodd" clip-rule="evenodd" d="M155.026 229.362L155.973 220.01C156.006 219.651 155.744 219.324 155.385 219.291C155.026 219.258 154.699 219.52 154.666 219.88L153.719 229.231C153.686 229.591 153.947 229.918 154.307 229.983C154.666 229.983 154.993 229.721 155.026 229.362Z" fill="black"/>
<path fill-rule="evenodd" clip-rule="evenodd" d="M389.418 202.485H403.666V206.637H394.287V209.319H402.783V213.21H394.287V216.021H403.796V220.174H389.418V202.485Z" fill="#97C21A"/>
<path fill-rule="evenodd" clip-rule="evenodd" d="M405.692 211.313C405.692 206.147 409.678 202.092 415.037 202.092C418.664 202.092 420.919 203.662 422.488 205.852L418.893 208.632C417.88 207.356 416.704 206.572 415.005 206.572C412.521 206.572 410.789 208.664 410.789 211.313C410.789 213.961 412.521 216.054 415.005 216.054C416.867 216.054 417.945 215.204 418.991 213.896L422.684 216.544C421.017 218.833 418.762 220.533 414.841 220.533C409.776 220.533 405.692 216.675 405.692 211.313Z" fill="#97C21A"/>
<path fill-rule="evenodd" clip-rule="evenodd" d="M437.715 211.313C437.715 208.762 435.853 206.539 433.173 206.539C430.493 206.539 428.696 208.73 428.696 211.313C428.696 213.863 430.526 216.087 433.238 216.087C435.918 216.119 437.715 213.929 437.715 211.313ZM423.664 211.313C423.664 206.212 427.749 202.092 433.238 202.092C438.695 202.092 442.747 206.179 442.747 211.313C442.747 216.414 438.663 220.533 433.173 220.533C427.716 220.533 423.664 216.479 423.664 211.313Z" fill="#97C21A"/>
<path fill-rule="evenodd" clip-rule="evenodd" d="M389.418 223.542H396.117V225.569H391.738V226.975H395.692V228.904H391.738V231.912H389.418V223.542Z" fill="#00A2D4"/>
<path fill-rule="evenodd" clip-rule="evenodd" d="M401.019 227.563C401.803 227.563 402.261 227.171 402.261 226.55C402.261 225.896 401.77 225.569 401.019 225.569H399.516V227.563H401.019ZM397.163 223.542H401.117C402.391 223.542 403.273 223.868 403.829 224.424C404.319 224.915 404.581 225.569 404.581 226.419C404.581 227.694 403.894 228.544 402.849 229.002L404.842 231.912H402.163L400.463 229.362H399.45V231.912H397.13V223.542H397.163Z" fill="#00A2D4"/>
<path d="M408.142 223.542H405.822V231.912H408.142V223.542Z" fill="#00A2D4"/>
<path fill-rule="evenodd" clip-rule="evenodd" d="M409.678 223.542H416.41V225.503H411.966V226.779H415.985V228.61H411.966V229.917H416.475V231.912H409.678V223.542Z" fill="#00A2D4"/>
<path fill-rule="evenodd" clip-rule="evenodd" d="M417.651 223.542H419.808L423.239 227.956V223.542H425.559V231.912H423.533L419.939 227.302V231.912H417.651V223.542Z" fill="#00A2D4"/>
<path fill-rule="evenodd" clip-rule="evenodd" d="M430.297 229.852C431.67 229.852 432.617 229.1 432.617 227.727C432.617 226.386 431.702 225.601 430.297 225.601H429.35V229.885H430.297V229.852ZM427.03 223.542H430.265C433.238 223.542 434.97 225.274 434.97 227.694C434.97 230.114 433.206 231.912 430.199 231.912H427.03V223.542Z" fill="#00A2D4"/>
<path fill-rule="evenodd" clip-rule="evenodd" d="M435.428 230.67L436.735 229.133C437.552 229.787 438.467 230.146 439.447 230.146C440.068 230.146 440.395 229.918 440.395 229.558C440.395 229.198 440.133 229.035 438.99 228.773C437.192 228.381 435.82 227.858 435.82 226.125C435.82 224.555 437.062 223.444 439.055 223.444C440.493 223.444 441.604 223.836 442.486 224.555L441.342 226.19C440.591 225.667 439.741 225.373 438.99 225.373C438.434 225.373 438.14 225.602 438.14 225.929C438.14 226.321 438.434 226.484 439.578 226.746C441.506 227.171 442.682 227.792 442.682 229.362C442.682 231.062 441.342 232.076 439.284 232.076C437.846 232.043 436.441 231.585 435.428 230.67Z" fill="#00A2D4"/>
<path fill-rule="evenodd" clip-rule="evenodd" d="M99.8997 215.596H111.206V218.931H103.756V221.057H110.487V224.13H103.756V226.353H111.304V229.689H99.8997V215.596Z" fill="#97C21A"/>
<path fill-rule="evenodd" clip-rule="evenodd" d="M112.807 222.626C112.807 218.539 115.977 215.302 120.225 215.302C123.1 215.302 124.897 216.544 126.139 218.277L123.296 220.501C122.479 219.487 121.564 218.866 120.192 218.866C118.231 218.866 116.826 220.533 116.826 222.626C116.826 224.751 118.199 226.386 120.192 226.386C121.662 226.386 122.512 225.7 123.362 224.686L126.303 226.779C124.963 228.61 123.198 229.95 120.061 229.95C116.042 229.95 112.807 226.877 112.807 222.626Z" fill="#97C21A"/>
<path fill-rule="evenodd" clip-rule="evenodd" d="M138.263 222.626C138.263 220.599 136.792 218.833 134.635 218.833C132.511 218.833 131.074 220.566 131.074 222.626C131.074 224.653 132.544 226.419 134.668 226.419C136.825 226.452 138.263 224.719 138.263 222.626ZM127.087 222.626C127.087 218.572 130.355 215.302 134.701 215.302C139.047 215.302 142.249 218.539 142.249 222.626C142.249 226.681 138.981 229.95 134.635 229.95C130.289 229.95 127.087 226.713 127.087 222.626Z" fill="#97C21A"/>
<path fill-rule="evenodd" clip-rule="evenodd" d="M99.8997 232.337H105.193V233.939H101.73V235.083H104.867V236.62H101.73V239.007H99.8997V232.337Z" fill="#00A2D4"/>
<path fill-rule="evenodd" clip-rule="evenodd" d="M109.115 235.541C109.735 235.541 110.095 235.247 110.095 234.724C110.095 234.201 109.703 233.939 109.115 233.939H107.905V235.541H109.115ZM106.043 232.337H109.18C110.193 232.337 110.912 232.598 111.337 233.056C111.729 233.449 111.925 233.972 111.925 234.626C111.925 235.639 111.369 236.326 110.552 236.686L112.154 239.007H110.029L108.69 236.98H107.873V239.007H106.043V232.337Z" fill="#00A2D4"/>
<path d="M114.767 232.337H112.905V238.974H114.767V232.337Z" fill="#00A2D4"/>
<path fill-rule="evenodd" clip-rule="evenodd" d="M115.977 232.337H121.336V233.906H117.806V234.92H120.976V236.359H117.806V237.438H121.368V239.007H115.977V232.337Z" fill="#00A2D4"/>
<path fill-rule="evenodd" clip-rule="evenodd" d="M122.316 232.337H124.015L126.76 235.868V232.337H128.59V239.007H126.989L124.146 235.345V239.007H122.316V232.337Z" fill="#00A2D4"/>
<path fill-rule="evenodd" clip-rule="evenodd" d="M132.348 237.372C133.459 237.372 134.178 236.751 134.178 235.672C134.178 234.593 133.459 233.972 132.348 233.972H131.596V237.372H132.348ZM129.766 232.337H132.315C134.701 232.337 136.073 233.71 136.073 235.639C136.073 237.568 134.668 238.974 132.283 238.974H129.766V232.337Z" fill="#00A2D4"/>
<path fill-rule="evenodd" clip-rule="evenodd" d="M136.432 237.994L137.445 236.784C138.099 237.307 138.818 237.569 139.602 237.569C140.092 237.569 140.354 237.405 140.354 237.078C140.354 236.817 140.125 236.653 139.243 236.457C137.837 236.13 136.726 235.738 136.726 234.332C136.726 233.089 137.707 232.206 139.308 232.206C140.452 232.206 141.334 232.501 142.053 233.089L141.138 234.397C140.517 233.972 139.863 233.743 139.275 233.743C138.818 233.743 138.622 233.939 138.622 234.201C138.622 234.495 138.85 234.626 139.765 234.855C141.301 235.182 142.249 235.672 142.249 236.947C142.249 238.321 141.171 239.105 139.569 239.105C138.36 239.105 137.249 238.746 136.432 237.994Z" fill="#00A2D4"/>
<path fill-rule="evenodd" clip-rule="evenodd" d="M534.766 216.054L546.072 216.774L545.843 220.076L538.393 219.618L538.262 221.743L545.027 222.169L544.798 225.242L538.066 224.817L537.936 227.04L545.484 227.498L545.255 230.833L533.884 230.081L534.766 216.054Z" fill="#97C21A"/>
<path fill-rule="evenodd" clip-rule="evenodd" d="M547.216 223.901C547.477 219.814 550.843 216.806 555.091 217.068C557.967 217.264 559.666 218.604 560.809 220.403L557.836 222.43C557.084 221.384 556.202 220.697 554.862 220.599C552.902 220.468 551.399 222.038 551.268 224.13C551.137 226.223 552.411 227.988 554.372 228.086C555.843 228.185 556.757 227.563 557.64 226.582L560.45 228.871C559.012 230.604 557.15 231.847 554.045 231.65C549.961 231.422 546.954 228.119 547.216 223.901Z" fill="#97C21A"/>
<path fill-rule="evenodd" clip-rule="evenodd" d="M572.606 225.536C572.737 223.509 571.397 221.645 569.24 221.514C567.116 221.384 565.58 223.018 565.45 225.078C565.319 227.106 566.659 228.969 568.783 229.1C570.939 229.231 572.475 227.596 572.606 225.536ZM561.463 224.817C561.724 220.795 565.188 217.722 569.502 218.016C573.848 218.31 576.821 221.743 576.56 225.798C576.298 229.819 572.835 232.893 568.521 232.631C564.208 232.337 561.202 228.871 561.463 224.817Z" fill="#97C21A"/>
<path fill-rule="evenodd" clip-rule="evenodd" d="M533.688 232.762L539.014 233.089L538.916 234.691L535.42 234.462L535.354 235.607L538.491 235.803L538.393 237.34L535.256 237.144L535.125 239.498L533.263 239.4L533.688 232.762Z" fill="#00A2D4"/>
<path fill-rule="evenodd" clip-rule="evenodd" d="M542.674 236.522C543.295 236.555 543.687 236.293 543.719 235.77C543.752 235.247 543.393 234.953 542.772 234.92L541.563 234.855L541.465 236.457L542.674 236.522ZM539.831 233.155L542.968 233.351C543.981 233.416 544.667 233.71 545.092 234.201C545.451 234.626 545.615 235.149 545.582 235.803C545.517 236.817 544.929 237.471 544.079 237.765L545.517 240.184L543.393 240.054L542.184 237.961L541.367 237.896L541.236 239.89L539.406 239.759L539.831 233.155Z" fill="#00A2D4"/>
<path d="M546.718 233.7L546.293 240.324L548.152 240.443L548.577 233.82L546.718 233.7Z" fill="#00A2D4"/>
<path fill-rule="evenodd" clip-rule="evenodd" d="M549.765 233.776L555.091 234.136L554.993 235.672L551.464 235.476L551.398 236.457L554.601 236.686L554.503 238.125L551.3 237.928L551.235 238.975L554.797 239.204L554.699 240.773L549.34 240.413L549.765 233.776Z" fill="#00A2D4"/>
<path fill-rule="evenodd" clip-rule="evenodd" d="M556.071 234.201L557.803 234.299L560.287 237.994L560.515 234.463L562.345 234.593L561.921 241.231L560.287 241.133L557.705 237.307L557.477 240.936L555.647 240.838L556.071 234.201Z" fill="#00A2D4"/>
<path fill-rule="evenodd" clip-rule="evenodd" d="M565.776 239.825C566.888 239.89 567.639 239.334 567.705 238.255C567.77 237.209 567.084 236.522 565.973 236.424L565.221 236.392L564.992 239.792L565.776 239.825ZM563.522 234.659L566.071 234.822C568.456 234.986 569.73 236.424 569.6 238.353C569.469 240.283 567.999 241.59 565.613 241.46L563.097 241.296L563.522 234.659Z" fill="#00A2D4"/>
<path fill-rule="evenodd" clip-rule="evenodd" d="M569.796 240.74L570.907 239.596C571.528 240.152 572.247 240.479 572.998 240.544C573.488 240.577 573.782 240.413 573.782 240.119C573.815 239.857 573.586 239.694 572.704 239.4C571.299 238.975 570.253 238.517 570.351 237.144C570.417 235.901 571.462 235.084 573.063 235.182C574.207 235.247 575.057 235.607 575.743 236.228L574.73 237.471C574.142 237.013 573.488 236.719 572.9 236.686C572.443 236.653 572.214 236.817 572.214 237.078C572.181 237.372 572.41 237.536 573.325 237.798C574.828 238.223 575.743 238.778 575.678 240.054C575.58 241.394 574.469 242.146 572.867 242.048C571.658 241.983 570.58 241.525 569.796 240.74Z" fill="#00A2D4"/>
<path fill-rule="evenodd" clip-rule="evenodd" d="M254.952 508.528L250.279 552.996L233.385 553.846L232.013 500.975L254.952 508.528Z" fill="url(#paint63_linear_1415_2301)"/>
<path fill-rule="evenodd" clip-rule="evenodd" d="M250.802 549.694C250.802 549.694 238.908 556.625 232.96 545.77L189.435 568.887L257.207 568.462L250.802 549.694Z" fill="url(#paint64_linear_1415_2301)"/>
<path fill-rule="evenodd" clip-rule="evenodd" d="M206.459 559.863C208.616 561.89 210.642 564.734 211.786 568.756L189.467 568.887L206.459 559.863Z" fill="white"/>
<path fill-rule="evenodd" clip-rule="evenodd" d="M189.5 574.805L257.305 574.413L257.239 568.462L189.467 568.887L189.5 574.805Z" fill="url(#paint65_linear_1415_2301)"/>
<path fill-rule="evenodd" clip-rule="evenodd" d="M227.83 557.083C227.634 557.018 227.471 556.887 227.373 556.723C224.726 553.258 222.079 551.557 222.079 551.557C221.556 551.23 221.426 550.544 221.752 550.053C222.112 549.563 222.798 549.432 223.321 549.759C223.452 549.824 226.327 551.688 229.203 555.481C229.562 555.971 229.464 556.658 228.941 556.985C228.615 557.181 228.19 557.214 227.83 557.083Z" fill="white"/>
<path fill-rule="evenodd" clip-rule="evenodd" d="M222.275 559.862C222.112 559.797 221.948 559.666 221.818 559.503C219.171 556.037 216.524 554.337 216.524 554.337C216.001 554.01 215.87 553.323 216.197 552.833C216.557 552.342 217.275 552.211 217.766 552.538C217.896 552.604 220.772 554.467 223.648 558.228C224.007 558.718 223.909 559.372 223.386 559.732C223.059 559.961 222.635 559.993 222.275 559.862Z" fill="white"/>
<path fill-rule="evenodd" clip-rule="evenodd" d="M216.753 562.609C216.557 562.543 216.393 562.413 216.295 562.249C213.648 558.783 211.002 557.083 211.002 557.083C210.479 556.756 210.348 556.069 210.675 555.579C211.034 555.089 211.753 554.958 212.243 555.285C212.374 555.35 215.25 557.214 218.125 560.974C218.485 561.464 218.386 562.151 217.864 562.478C217.537 562.74 217.112 562.772 216.753 562.609Z" fill="white"/>
<path fill-rule="evenodd" clip-rule="evenodd" d="M297.04 507.776L301.746 552.244L318.64 553.094L320.012 500.223L297.04 507.776Z" fill="url(#paint66_linear_1415_2301)"/>
<path fill-rule="evenodd" clip-rule="evenodd" d="M301.19 548.974C301.19 548.974 313.085 555.906 319.032 545.051L362.558 568.167L294.785 567.742L301.19 548.974Z" fill="url(#paint67_linear_1415_2301)"/>
<path fill-rule="evenodd" clip-rule="evenodd" d="M345.566 559.11C343.409 561.138 341.383 563.982 340.239 568.004L362.558 568.135L345.566 559.11Z" fill="url(#paint68_linear_1415_2301)"/>
<path fill-rule="evenodd" clip-rule="evenodd" d="M362.492 574.085L294.72 573.66L294.753 567.742L362.558 568.135L362.492 574.085Z" fill="url(#paint69_linear_1415_2301)"/>
<path fill-rule="evenodd" clip-rule="evenodd" d="M324.195 556.331C324.391 556.266 324.554 556.135 324.652 555.971C327.299 552.505 329.946 550.805 329.946 550.805C330.469 550.478 330.6 549.792 330.273 549.301C329.913 548.811 329.227 548.68 328.704 549.007C328.574 549.072 325.698 550.936 322.822 554.696C322.463 555.187 322.561 555.873 323.084 556.2C323.411 556.462 323.835 556.494 324.195 556.331Z" fill="url(#paint70_linear_1415_2301)"/>
<path fill-rule="evenodd" clip-rule="evenodd" d="M329.717 559.11C329.88 559.045 330.077 558.914 330.175 558.751C332.821 555.285 335.468 553.585 335.468 553.585C335.991 553.258 336.122 552.571 335.795 552.081C335.436 551.59 334.717 551.459 334.227 551.786C334.096 551.852 331.22 553.715 328.345 557.476C327.985 557.966 328.083 558.653 328.606 558.98C328.933 559.241 329.358 559.274 329.717 559.11Z" fill="url(#paint71_linear_1415_2301)"/>
<path fill-rule="evenodd" clip-rule="evenodd" d="M335.272 561.889C335.469 561.824 335.632 561.693 335.73 561.53C338.377 558.064 341.024 556.364 341.024 556.364C341.546 556.037 341.677 555.35 341.35 554.859C340.991 554.369 340.272 554.238 339.782 554.565C339.651 554.631 336.776 556.494 333.9 560.254C333.541 560.745 333.639 561.432 334.161 561.759C334.488 561.987 334.913 562.02 335.272 561.889Z" fill="url(#paint72_linear_1415_2301)"/>
<path fill-rule="evenodd" clip-rule="evenodd" d="M235.902 206.441C235.902 206.441 231.849 208.632 235.019 214.942C236.816 218.539 235.64 222.92 232.242 225.078L225.216 229.591C221.295 232.108 216.001 230.702 213.943 226.517C212.57 223.705 211.688 220.468 212.733 217.722C215.282 211.084 230.118 203.433 235.902 206.441Z" fill="url(#paint73_linear_1415_2301)"/>
<path fill-rule="evenodd" clip-rule="evenodd" d="M312.431 301.426L270.016 297.666L234.921 295.933L220.739 416.584C220.576 418.121 220.641 419.658 220.837 421.097L223.157 526.25H259.265L257.174 421.914L273.97 338.667L291.191 529.193H325.404L312.431 301.426Z" fill="url(#paint74_linear_1415_2301)"/>
<path fill-rule="evenodd" clip-rule="evenodd" d="M369.159 243.062L352.395 176.916L360.662 139.87C360.826 139.184 360.597 138.464 360.074 137.974C358.996 136.928 357.199 137.385 356.741 138.824L353.506 148.829L356.643 131.86C356.807 130.977 356.382 130.127 355.598 129.702L355.369 129.571C354.225 128.982 352.82 129.571 352.46 130.813L347.722 146.573L349.944 126.432C350.01 125.418 349.324 124.503 348.311 124.307L347.722 124.176C346.546 123.947 345.402 124.797 345.304 126.007L342.592 145.265L342.625 128.492C342.559 127.544 341.841 126.726 340.893 126.595L340.076 126.465C338.867 126.301 337.788 127.217 337.756 128.459L336.808 156.742L333.443 150.333C332.822 149.124 331.515 148.404 330.142 148.568C328.541 148.731 327.463 150.301 327.887 151.87L329.685 158.442C330.698 162.17 332.593 165.603 335.174 168.48L340.141 173.973L343.18 228.773L322.986 216.25L296.256 232.174L350.173 257.939C352.493 259.378 355.238 260.13 358.146 259.835C366.414 259.018 371.74 250.844 369.159 243.062Z" fill="url(#paint75_linear_1415_2301)"/>
<path fill-rule="evenodd" clip-rule="evenodd" d="M336.776 157.232H336.808C337.331 157.363 342.135 158.802 344.716 164.622C344.814 164.883 345.141 164.981 345.37 164.883C345.631 164.785 345.729 164.458 345.631 164.229C344.161 160.927 342.004 158.933 340.207 157.755C338.409 156.611 337.004 156.251 336.972 156.251C336.71 156.186 336.416 156.349 336.383 156.644C336.318 156.905 336.481 157.167 336.776 157.232Z" fill="#C0503C"/>
<path fill-rule="evenodd" clip-rule="evenodd" d="M342.657 229.885L343.769 243.748C343.801 244.01 344.03 244.239 344.324 244.206C344.618 244.173 344.814 243.945 344.782 243.65L343.67 229.787C343.638 229.525 343.409 229.296 343.115 229.329C342.854 229.362 342.657 229.591 342.657 229.885Z" fill="#C0503C"/>
<path fill-rule="evenodd" clip-rule="evenodd" d="M260.017 316.041C254.723 313.327 243.58 306.951 239.202 305.349L221.523 280.925L229.823 260.162L204.956 251.367L198.421 281.121C197.538 285.568 200.545 290.341 204.597 293.742C213.289 303.224 230.019 314.897 230.019 314.897C230.019 314.897 231.392 322.057 234.137 324.51C234.137 324.51 246.097 326.373 251.227 319.344C251.227 319.344 255.344 321.404 259.429 320.586C261.651 320.128 262.043 317.088 260.017 316.041Z" fill="url(#paint76_linear_1415_2301)"/>
<path fill-rule="evenodd" clip-rule="evenodd" d="M221.948 280.631L217.243 274.091C217.079 273.862 216.753 273.83 216.524 273.993C216.295 274.157 216.262 274.483 216.426 274.68L221.131 281.219C221.295 281.448 221.621 281.481 221.85 281.317C222.046 281.186 222.112 280.859 221.948 280.631Z" fill="#C0503C"/>
<path fill-rule="evenodd" clip-rule="evenodd" d="M338.344 225.7C338.344 225.7 326.123 211.28 308.085 204.479L282.532 194.376L258.285 194.605L226.327 209.58C226.327 209.58 206.165 216.316 202.015 252.119L228.843 260.13L230.804 293.709L239.235 305.349C243.613 306.952 254.756 313.295 260.05 316.041C262.076 317.088 261.684 320.128 259.429 320.586C255.377 321.404 251.227 319.344 251.227 319.344C250.051 320.979 248.482 322.123 246.783 322.94L316.843 330.101L313.117 307.442L315.536 252.021L323.28 255.617L338.344 225.7Z" fill="url(#paint77_linear_1415_2301)" stroke="#D9DADA" stroke-width="0.5669" stroke-miterlimit="22.9256"/>
<path fill-rule="evenodd" clip-rule="evenodd" d="M229.889 260.98L228.092 241.067C228.059 240.708 227.732 240.446 227.405 240.479C227.046 240.512 226.785 240.838 226.817 241.165L228.614 261.078C228.647 261.438 228.974 261.699 229.301 261.666C229.66 261.666 229.922 261.339 229.889 260.98Z" fill="#000001"/>
<path fill-rule="evenodd" clip-rule="evenodd" d="M268.905 209.417C250.933 209.417 250.998 198.038 250.998 198.038L258.155 194.769H258.416L258.253 194.638L260.115 169.69L263.089 171.39L260.442 171.358L281.878 186.921L280.604 171.586L278.12 171.554C279.558 170.769 280.538 170.082 280.538 170.082L282.499 194.409L282.336 194.54H282.368L290.178 197.482C290.178 197.482 290.211 208.763 270.31 209.417C269.853 209.417 269.363 209.417 268.905 209.417Z" fill="url(#paint78_linear_1415_2301)"/>
<path fill-rule="evenodd" clip-rule="evenodd" d="M277.859 114.89C277.859 114.89 289.002 109.92 292.956 119.336C296.779 128.393 281.649 137.025 281.649 137.025L277.859 114.89Z" fill="url(#paint79_linear_1415_2301)"/>
<path fill-rule="evenodd" clip-rule="evenodd" d="M257.011 152.426C257.141 156.611 253.841 160.11 249.658 160.208C245.476 160.338 241.979 157.036 241.881 152.851C241.75 148.666 245.051 145.167 249.234 145.069C253.384 144.938 256.88 148.241 257.011 152.426Z" fill="url(#paint80_linear_1415_2301)"/>
<path fill-rule="evenodd" clip-rule="evenodd" d="M245.345 152.034C245.378 152.001 245.672 151.903 246.129 151.903C246.619 151.903 247.24 152.034 248.024 152.524C248.776 153.047 249.658 153.963 250.573 155.598C250.704 155.826 250.998 155.924 251.259 155.794C251.521 155.663 251.586 155.369 251.456 155.107C250.508 153.374 249.528 152.328 248.613 151.707C247.698 151.085 246.815 150.889 246.162 150.889C245.443 150.889 244.986 151.118 244.92 151.118C244.659 151.249 244.561 151.543 244.691 151.805C244.789 152.034 245.116 152.132 245.345 152.034Z" fill="#C0503C"/>
<path fill-rule="evenodd" clip-rule="evenodd" d="M284.656 152.622C284.656 156.807 288.054 160.208 292.237 160.208C296.419 160.208 299.818 156.807 299.818 152.622C299.818 148.437 296.419 145.036 292.237 145.036C288.021 145.069 284.656 148.437 284.656 152.622Z" fill="url(#paint81_linear_1415_2301)"/>
<path fill-rule="evenodd" clip-rule="evenodd" d="M296.681 150.987C296.648 150.954 296.223 150.791 295.537 150.791C294.884 150.791 294.001 150.987 293.086 151.608C292.171 152.262 291.191 153.341 290.243 155.14C290.113 155.401 290.211 155.696 290.472 155.826C290.734 155.957 291.028 155.859 291.158 155.597C292.041 153.897 292.89 152.949 293.675 152.426C294.426 151.903 295.08 151.772 295.537 151.772C295.766 151.772 295.962 151.805 296.093 151.837L296.223 151.87H296.256L296.289 151.805L296.256 151.837L296.289 151.772L296.256 151.805C296.517 151.935 296.811 151.805 296.91 151.543C297.04 151.412 296.942 151.118 296.681 150.987Z" fill="url(#paint82_linear_1415_2301)"/>
<path fill-rule="evenodd" clip-rule="evenodd" d="M270.735 174.006C267.5 174.006 264.69 172.338 264.657 172.306L263.089 171.423L278.12 171.586C276.552 172.469 274.395 173.483 272.369 173.842C271.814 173.941 271.291 174.006 270.735 174.006Z" fill="url(#paint83_linear_1415_2301)"/>
<path fill-rule="evenodd" clip-rule="evenodd" d="M281.878 186.954L260.442 171.39L263.089 171.423L264.657 172.306C264.69 172.338 267.5 174.006 270.735 174.006C271.258 174.006 271.813 173.973 272.369 173.842C274.395 173.45 276.552 172.436 278.12 171.586L280.604 171.619L281.878 186.954Z" fill="url(#paint84_linear_1415_2301)"/>
<path fill-rule="evenodd" clip-rule="evenodd" d="M291.256 139.445C291.289 148.012 290.113 155.401 288.936 160.666C287.76 165.799 284.427 169.396 279.689 172.338L278.839 172.861C273.84 175.935 267.337 176.033 262.207 173.123C257.044 170.18 253.416 166.289 252.273 160.764C250.214 150.758 249.92 139.641 249.92 139.641C249.92 139.641 247.012 116.492 269.297 116.786C291.616 117.113 291.256 139.445 291.256 139.445Z" fill="url(#paint85_linear_1415_2301)"/>
<path fill-rule="evenodd" clip-rule="evenodd" d="M262.795 146.246C262.795 147.227 261.978 148.044 260.997 148.044C260.017 148.044 259.2 147.227 259.2 146.246C259.2 145.232 260.017 144.448 260.997 144.448C261.978 144.448 262.795 145.232 262.795 146.246Z" fill="url(#paint86_linear_1415_2301)"/>
<path fill-rule="evenodd" clip-rule="evenodd" d="M280.473 146.246C280.473 147.227 279.656 148.044 278.676 148.044C277.695 148.044 276.878 147.227 276.878 146.246C276.878 145.232 277.695 144.448 278.676 144.448C279.689 144.448 280.473 145.232 280.473 146.246Z" fill="url(#paint87_linear_1415_2301)"/>
<path fill-rule="evenodd" clip-rule="evenodd" d="M267.696 148.862V153.832C267.696 153.962 267.762 154.093 267.86 154.191C267.958 154.289 268.088 154.355 268.219 154.355H271.422C271.716 154.355 271.912 154.126 271.912 153.864C271.912 153.57 271.683 153.374 271.422 153.374H268.709V148.894C268.709 148.6 268.481 148.404 268.219 148.404C267.925 148.371 267.696 148.6 267.696 148.862Z" fill="url(#paint88_linear_1415_2301)"/>
<path fill-rule="evenodd" clip-rule="evenodd" d="M254.266 138.595L266.062 137.516C266.062 137.516 265.017 134.443 260.246 134.966C255.344 135.489 254.266 138.595 254.266 138.595Z" fill="url(#paint89_linear_1415_2301)"/>
<path fill-rule="evenodd" clip-rule="evenodd" d="M284.656 138.595L272.859 137.516C272.859 137.516 273.905 134.443 278.676 134.966C283.545 135.489 284.656 138.595 284.656 138.595Z" fill="url(#paint90_linear_1415_2301)"/>
<path fill-rule="evenodd" clip-rule="evenodd" d="M264.167 157.984H275.8C275.8 157.984 275.245 161.548 269.82 161.548C264.363 161.548 264.167 157.984 264.167 157.984Z" fill="white"/>
<path fill-rule="evenodd" clip-rule="evenodd" d="M250.672 150.627C250.672 150.627 253.972 125.582 252.371 121.462C252.371 121.429 241.13 130.748 250.672 150.627Z" fill="url(#paint91_linear_1415_2301)"/>
<path fill-rule="evenodd" clip-rule="evenodd" d="M290.439 150.399C290.439 150.399 286.714 126.465 287.76 119.598C287.727 119.598 298.576 129.211 290.439 150.399Z" fill="url(#paint92_linear_1415_2301)"/>
<path fill-rule="evenodd" clip-rule="evenodd" d="M286.714 124.601C286.714 124.601 280.081 130.126 271.52 125.549C271.52 125.549 249.724 138.987 243.581 124.372C238.45 112.176 259.723 95.6311 281.715 114.268L286.714 124.601Z" fill="url(#paint93_linear_1415_2301)"/>
<path fill-rule="evenodd" clip-rule="evenodd" d="M262.893 336.542L284.917 339.354C285.277 339.387 285.603 339.158 285.636 338.798C285.669 338.439 285.44 338.112 285.08 338.079L263.056 335.267C262.697 335.235 262.37 335.463 262.337 335.823C262.272 336.183 262.533 336.51 262.893 336.542Z" fill="#000001"/>
<path fill-rule="evenodd" clip-rule="evenodd" d="M315.797 251.4L305.994 246.855C305.667 246.691 305.275 246.855 305.144 247.182C304.981 247.509 305.144 247.901 305.471 248.032L315.274 252.577C315.601 252.74 315.993 252.577 316.124 252.25C316.254 251.923 316.124 251.53 315.797 251.4Z" fill="#000001"/>
<path fill-rule="evenodd" clip-rule="evenodd" d="M243.646 234.986H257.893V239.171H248.515V241.852H257.011V245.71H248.515V248.522H258.024V252.707H243.646V234.986Z" fill="#97C21A"/>
<path fill-rule="evenodd" clip-rule="evenodd" d="M259.919 243.847C259.919 238.68 263.905 234.626 269.265 234.626C272.892 234.626 275.146 236.195 276.715 238.386L273.12 241.165C272.107 239.89 270.931 239.105 269.232 239.105C266.748 239.105 265.017 241.198 265.017 243.847C265.017 246.495 266.748 248.588 269.232 248.588C271.094 248.588 272.173 247.737 273.218 246.43L276.911 249.078C275.244 251.367 272.99 253.067 269.068 253.067C264.004 253.067 259.919 249.176 259.919 243.847Z" fill="#97C21A"/>
<path fill-rule="evenodd" clip-rule="evenodd" d="M291.943 243.847C291.943 241.296 290.08 239.073 287.401 239.073C284.721 239.073 282.924 241.263 282.924 243.847C282.924 246.397 284.754 248.62 287.466 248.62C290.145 248.62 291.943 246.43 291.943 243.847ZM277.892 243.847C277.892 238.746 281.976 234.626 287.466 234.626C292.923 234.626 296.975 238.713 296.975 243.847C296.975 248.947 292.89 253.067 287.401 253.067C281.911 253.067 277.892 248.98 277.892 243.847Z" fill="#97C21A"/>
<path fill-rule="evenodd" clip-rule="evenodd" d="M243.646 256.042H250.345V258.07H245.966V259.508H249.92V261.438H245.966V264.413H243.646V256.042Z" fill="#00A2D4"/>
<path fill-rule="evenodd" clip-rule="evenodd" d="M255.246 260.064C256.03 260.064 256.488 259.672 256.488 259.051C256.488 258.397 255.998 258.07 255.246 258.07H253.743V260.064H255.246ZM251.39 256.042H255.344C256.619 256.042 257.501 256.369 258.057 256.925C258.547 257.416 258.808 258.07 258.808 258.92C258.808 260.195 258.122 261.045 257.076 261.503L259.07 264.413H256.39L254.691 261.863H253.678V264.413H251.358V256.042H251.39Z" fill="#00A2D4"/>
<path d="M262.37 256.042H260.05V264.413H262.37V256.042Z" fill="#00A2D4"/>
<path fill-rule="evenodd" clip-rule="evenodd" d="M263.906 256.042H270.637V258.004H266.193V259.279H270.212V261.111H266.193V262.451H270.703V264.413H263.906V256.042Z" fill="#00A2D4"/>
<path fill-rule="evenodd" clip-rule="evenodd" d="M271.879 256.042H274.036L277.467 260.457V256.042H279.787V264.413H277.728L274.166 259.835V264.413H271.879V256.042Z" fill="#00A2D4"/>
<path fill-rule="evenodd" clip-rule="evenodd" d="M284.525 262.353C285.897 262.353 286.845 261.601 286.845 260.228C286.845 258.887 285.93 258.102 284.525 258.102H283.577V262.386H284.525V262.353ZM281.257 256.042H284.492C287.466 256.042 289.198 257.775 289.198 260.195C289.198 262.615 287.433 264.413 284.427 264.413H281.257V256.042Z" fill="#00A2D4"/>
<path fill-rule="evenodd" clip-rule="evenodd" d="M289.655 263.17L290.962 261.634C291.779 262.288 292.694 262.647 293.674 262.647C294.295 262.647 294.622 262.418 294.622 262.059C294.622 261.699 294.361 261.536 293.217 261.274C291.42 260.882 290.047 260.358 290.047 258.626C290.047 257.056 291.289 255.944 293.282 255.944C294.72 255.944 295.831 256.337 296.713 257.056L295.57 258.691C294.818 258.168 293.969 257.873 293.217 257.873C292.662 257.873 292.367 258.102 292.367 258.429C292.367 258.822 292.662 258.985 293.805 259.247C295.733 259.672 296.909 260.293 296.909 261.862C296.909 263.563 295.57 264.576 293.511 264.576C292.073 264.544 290.668 264.086 289.655 263.17Z" fill="#00A2D4"/>
<path d="M263.611 512.092H218.517V532.528H263.611V512.092Z" fill="url(#paint94_linear_1415_2301)"/>
<path fill-rule="evenodd" clip-rule="evenodd" d="M332.201 532.528H287.106L284.95 512.092H330.044L332.201 532.528Z" fill="url(#paint95_linear_1415_2301)"/>
<defs>
<linearGradient id="paint0_linear_1415_2301" x1="121.313" y1="116.527" x2="121.313" y2="85.5972" gradientUnits="userSpaceOnUse">
<stop stop-color="#4C1C00"/>
<stop offset="1" stop-color="#7B4122"/>
</linearGradient>
<linearGradient id="paint1_linear_1415_2301" x1="523.531" y1="151.812" x2="600.681" y2="151.812" gradientUnits="userSpaceOnUse">
<stop stop-color="#0D0F0D"/>
<stop offset="1" stop-color="#363636"/>
</linearGradient>
<linearGradient id="paint2_linear_1415_2301" x1="623.951" y1="574.908" x2="623.951" y2="554.416" gradientUnits="userSpaceOnUse">
<stop stop-color="#0D0F0D"/>
<stop offset="1" stop-color="#363636"/>
</linearGradient>
<linearGradient id="paint3_linear_1415_2301" x1="613.563" y1="563.138" x2="613.563" y2="497.124" gradientUnits="userSpaceOnUse">
<stop stop-color="#F8BEAB"/>
<stop offset="0.99" stop-color="#F5A487"/>
<stop offset="1" stop-color="#F5A487"/>
</linearGradient>
<linearGradient id="paint4_linear_1415_2301" x1="597.111" y1="535.571" x2="615.272" y2="535.571" gradientUnits="userSpaceOnUse">
<stop stop-color="#F3A88E"/>
<stop offset="1" stop-color="#DE7B66"/>
</linearGradient>
<linearGradient id="paint5_linear_1415_2301" x1="494.993" y1="574.72" x2="494.993" y2="554.416" gradientUnits="userSpaceOnUse">
<stop stop-color="#0D0F0D"/>
<stop offset="1" stop-color="#363636"/>
</linearGradient>
<linearGradient id="paint6_linear_1415_2301" x1="505.418" y1="563.138" x2="505.418" y2="497.124" gradientUnits="userSpaceOnUse">
<stop stop-color="#F8BEAB"/>
<stop offset="0.99" stop-color="#F5A487"/>
<stop offset="1" stop-color="#F5A487"/>
</linearGradient>
<linearGradient id="paint7_linear_1415_2301" x1="503.47" y1="534.764" x2="522.047" y2="534.764" gradientUnits="userSpaceOnUse">
<stop stop-color="#F3A88E"/>
<stop offset="1" stop-color="#DE7B66"/>
</linearGradient>
<linearGradient id="paint8_linear_1415_2301" x1="619.262" y1="540.38" x2="490.724" y2="317.881" gradientUnits="userSpaceOnUse">
<stop stop-color="#F18317"/>
<stop offset="1" stop-color="#F9B02F"/>
</linearGradient>
<linearGradient id="paint9_linear_1415_2301" x1="442.846" y1="234.411" x2="537.989" y2="234.411" gradientUnits="userSpaceOnUse">
<stop stop-color="#F5A487"/>
<stop offset="0.01" stop-color="#F5A487"/>
<stop offset="1" stop-color="#F8BEAB"/>
</linearGradient>
<linearGradient id="paint10_linear_1415_2301" x1="577.401" y1="256.337" x2="657.536" y2="256.337" gradientUnits="userSpaceOnUse">
<stop stop-color="#F5A487"/>
<stop offset="0.01" stop-color="#F5A487"/>
<stop offset="1" stop-color="#F8BEAB"/>
</linearGradient>
<linearGradient id="paint11_linear_1415_2301" x1="563.259" y1="196.18" x2="563.259" y2="169.559" gradientUnits="userSpaceOnUse">
<stop stop-color="#F5A487"/>
<stop offset="0.01" stop-color="#F5A487"/>
<stop offset="1" stop-color="#F8BEAB"/>
</linearGradient>
<linearGradient id="paint12_linear_1415_2301" x1="529.972" y1="156.942" x2="545.967" y2="156.942" gradientUnits="userSpaceOnUse">
<stop stop-color="#F5A487"/>
<stop offset="0.01" stop-color="#F5A487"/>
<stop offset="1" stop-color="#F8BEAB"/>
</linearGradient>
<linearGradient id="paint13_linear_1415_2301" x1="552.94" y1="180.218" x2="570.158" y2="180.218" gradientUnits="userSpaceOnUse">
<stop stop-color="#F3A88E"/>
<stop offset="1" stop-color="#DE7B66"/>
</linearGradient>
<linearGradient id="paint14_linear_1415_2301" x1="555.949" y1="180.339" x2="555.949" y2="124.608" gradientUnits="userSpaceOnUse">
<stop stop-color="#F8BEAB"/>
<stop offset="0.99" stop-color="#F5A487"/>
<stop offset="1" stop-color="#F5A487"/>
</linearGradient>
<linearGradient id="paint15_linear_1415_2301" x1="545.087" y1="160.913" x2="548.474" y2="160.913" gradientUnits="userSpaceOnUse">
<stop stop-color="#0D0F0D"/>
<stop offset="1" stop-color="#363636"/>
</linearGradient>
<linearGradient id="paint16_linear_1415_2301" x1="552.632" y1="148.317" x2="562.368" y2="148.317" gradientUnits="userSpaceOnUse">
<stop stop-color="#0D0F0D"/>
<stop offset="1" stop-color="#363636"/>
</linearGradient>
<linearGradient id="paint17_linear_1415_2301" x1="536.361" y1="147.894" x2="543.56" y2="147.894" gradientUnits="userSpaceOnUse">
<stop stop-color="#0D0F0D"/>
<stop offset="1" stop-color="#363636"/>
</linearGradient>
<linearGradient id="paint18_linear_1415_2301" x1="538.219" y1="154.457" x2="541.869" y2="154.457" gradientUnits="userSpaceOnUse">
<stop stop-color="#0D0F0D"/>
<stop offset="1" stop-color="#363636"/>
</linearGradient>
<linearGradient id="paint19_linear_1415_2301" x1="554.416" y1="154.791" x2="558.068" y2="154.791" gradientUnits="userSpaceOnUse">
<stop stop-color="#0D0F0D"/>
<stop offset="1" stop-color="#363636"/>
</linearGradient>
<linearGradient id="paint20_linear_1415_2301" x1="536.269" y1="138.05" x2="577.465" y2="138.05" gradientUnits="userSpaceOnUse">
<stop stop-color="#0D0F0D"/>
<stop offset="1" stop-color="#363636"/>
</linearGradient>
<linearGradient id="paint21_linear_1415_2301" x1="569.52" y1="158.453" x2="585.628" y2="158.453" gradientUnits="userSpaceOnUse">
<stop stop-color="#F5A487"/>
<stop offset="0.01" stop-color="#F5A487"/>
<stop offset="1" stop-color="#F8BEAB"/>
</linearGradient>
<linearGradient id="paint22_linear_1415_2301" x1="574.241" y1="158.346" x2="580.837" y2="158.346" gradientUnits="userSpaceOnUse">
<stop stop-color="#0D0F0D"/>
<stop offset="1" stop-color="#363636"/>
</linearGradient>
<linearGradient id="paint23_linear_1415_2301" x1="156.084" y1="575.982" x2="156.084" y2="553.636" gradientUnits="userSpaceOnUse">
<stop stop-color="#5D4596"/>
<stop offset="1" stop-color="#9172B1"/>
</linearGradient>
<linearGradient id="paint24_linear_1415_2301" x1="150.175" y1="563.233" x2="150.175" y2="492.578" gradientUnits="userSpaceOnUse">
<stop stop-color="#F8BEAB"/>
<stop offset="0.99" stop-color="#F5A487"/>
<stop offset="1" stop-color="#F5A487"/>
</linearGradient>
<linearGradient id="paint25_linear_1415_2301" x1="97.3978" y1="575.982" x2="97.3978" y2="553.636" gradientUnits="userSpaceOnUse">
<stop stop-color="#5D4596"/>
<stop offset="1" stop-color="#9172B1"/>
</linearGradient>
<linearGradient id="paint26_linear_1415_2301" x1="103.309" y1="563.233" x2="103.309" y2="492.578" gradientUnits="userSpaceOnUse">
<stop stop-color="#F8BEAB"/>
<stop offset="0.99" stop-color="#F5A487"/>
<stop offset="1" stop-color="#F5A487"/>
</linearGradient>
<linearGradient id="paint27_linear_1415_2301" x1="123.46" y1="532.881" x2="123.46" y2="283.153" gradientUnits="userSpaceOnUse">
<stop stop-color="#272A5B"/>
<stop offset="1" stop-color="#3D437F"/>
</linearGradient>
<linearGradient id="paint28_linear_1415_2301" x1="121.954" y1="274.46" x2="121.954" y2="192.197" gradientUnits="userSpaceOnUse">
<stop stop-color="white"/>
<stop offset="0.4623" stop-color="#FDFDFD"/>
<stop offset="0.723" stop-color="#F7F6F4"/>
<stop offset="0.933" stop-color="#ECEAE6"/>
<stop offset="1" stop-color="#E7E5E0"/>
</linearGradient>
<linearGradient id="paint29_linear_1415_2301" x1="176.601" y1="244.558" x2="247.19" y2="244.558" gradientUnits="userSpaceOnUse">
<stop stop-color="#F8BEAB"/>
<stop offset="0.99" stop-color="#F5A487"/>
<stop offset="1" stop-color="#F5A487"/>
</linearGradient>
<linearGradient id="paint30_linear_1415_2301" x1="120.714" y1="202.355" x2="120.714" y2="167.409" gradientUnits="userSpaceOnUse">
<stop stop-color="#F8BEAB"/>
<stop offset="0.99" stop-color="#F5A487"/>
<stop offset="1" stop-color="#F5A487"/>
</linearGradient>
<linearGradient id="paint31_linear_1415_2301" x1="0.529434" y1="220.02" x2="63.9814" y2="220.02" gradientUnits="userSpaceOnUse">
<stop stop-color="#F8BEAB"/>
<stop offset="0.99" stop-color="#F5A487"/>
<stop offset="1" stop-color="#F5A487"/>
</linearGradient>
<linearGradient id="paint32_linear_1415_2301" x1="140.406" y1="150.34" x2="149.553" y2="150.34" gradientUnits="userSpaceOnUse">
<stop stop-color="#F5A487"/>
<stop offset="0.01" stop-color="#F5A487"/>
<stop offset="1" stop-color="#F8BEAB"/>
</linearGradient>
<linearGradient id="paint33_linear_1415_2301" x1="136.714" y1="162.792" x2="148.505" y2="162.792" gradientUnits="userSpaceOnUse">
<stop stop-color="#5D4596"/>
<stop offset="1" stop-color="#9172B1"/>
</linearGradient>
<linearGradient id="paint34_linear_1415_2301" x1="93.8403" y1="150.34" x2="102.987" y2="150.34" gradientUnits="userSpaceOnUse">
<stop stop-color="#F8BEAB"/>
<stop offset="0.99" stop-color="#F5A487"/>
<stop offset="1" stop-color="#F5A487"/>
</linearGradient>
<linearGradient id="paint35_linear_1415_2301" x1="91.4283" y1="150.422" x2="102.901" y2="150.422" gradientUnits="userSpaceOnUse">
<stop stop-color="#F8BEAB"/>
<stop offset="0.99" stop-color="#F5A487"/>
<stop offset="1" stop-color="#F5A487"/>
</linearGradient>
<linearGradient id="paint36_linear_1415_2301" x1="94.8878" y1="162.792" x2="106.901" y2="162.792" gradientUnits="userSpaceOnUse">
<stop stop-color="#5D4596"/>
<stop offset="1" stop-color="#9172B1"/>
</linearGradient>
<linearGradient id="paint37_linear_1415_2301" x1="121.554" y1="159.226" x2="121.554" y2="108.112" gradientUnits="userSpaceOnUse">
<stop stop-color="#4C1C00"/>
<stop offset="1" stop-color="#7B4122"/>
</linearGradient>
<linearGradient id="paint38_linear_1415_2301" x1="122.377" y1="202.356" x2="122.377" y2="167.411" gradientUnits="userSpaceOnUse">
<stop stop-color="#F7B39D"/>
<stop offset="0.99" stop-color="#F2916E"/>
<stop offset="1" stop-color="#F2916E"/>
</linearGradient>
<linearGradient id="paint39_linear_1415_2301" x1="121.468" y1="171.22" x2="121.468" y2="113.994" gradientUnits="userSpaceOnUse">
<stop stop-color="#F8BEAB"/>
<stop offset="0.99" stop-color="#F5A487"/>
<stop offset="1" stop-color="#F5A487"/>
</linearGradient>
<linearGradient id="paint40_linear_1415_2301" x1="131.335" y1="147.475" x2="131.335" y2="143.685" gradientUnits="userSpaceOnUse">
<stop stop-color="#0D0F0D"/>
<stop offset="1" stop-color="#363636"/>
</linearGradient>
<linearGradient id="paint41_linear_1415_2301" x1="112.41" y1="147.475" x2="112.41" y2="143.685" gradientUnits="userSpaceOnUse">
<stop stop-color="#0D0F0D"/>
<stop offset="1" stop-color="#363636"/>
</linearGradient>
<linearGradient id="paint42_linear_1415_2301" x1="111.707" y1="139.304" x2="111.707" y2="135.381" gradientUnits="userSpaceOnUse">
<stop stop-color="#0D0F0D"/>
<stop offset="1" stop-color="#363636"/>
</linearGradient>
<linearGradient id="paint43_linear_1415_2301" x1="133.429" y1="139.242" x2="133.429" y2="135.286" gradientUnits="userSpaceOnUse">
<stop stop-color="#0D0F0D"/>
<stop offset="1" stop-color="#363636"/>
</linearGradient>
<linearGradient id="paint44_linear_1415_2301" x1="121.281" y1="132.523" x2="121.281" y2="112.889" gradientUnits="userSpaceOnUse">
<stop stop-color="#471800"/>
<stop offset="1" stop-color="#6B3A1D"/>
</linearGradient>
<linearGradient id="paint45_linear_1415_2301" x1="343.085" y1="556.458" x2="406.049" y2="556.458" gradientUnits="userSpaceOnUse">
<stop stop-color="#272A5B"/>
<stop offset="1" stop-color="#3D437F"/>
</linearGradient>
<linearGradient id="paint46_linear_1415_2301" x1="390.562" y1="546.658" x2="390.562" y2="515.42" gradientUnits="userSpaceOnUse">
<stop stop-color="#F49E8E"/>
<stop offset="1" stop-color="#F0826D"/>
</linearGradient>
<linearGradient id="paint47_linear_1415_2301" x1="437.533" y1="556.458" x2="500.498" y2="556.458" gradientUnits="userSpaceOnUse">
<stop stop-color="#272A5B"/>
<stop offset="1" stop-color="#3D437F"/>
</linearGradient>
<linearGradient id="paint48_linear_1415_2301" x1="451.813" y1="546.658" x2="451.813" y2="515.42" gradientUnits="userSpaceOnUse">
<stop stop-color="#F49E8E"/>
<stop offset="1" stop-color="#F0826D"/>
</linearGradient>
<linearGradient id="paint49_linear_1415_2301" x1="481.082" y1="346.871" x2="494.263" y2="346.871" gradientUnits="userSpaceOnUse">
<stop stop-color="#F0826D"/>
<stop offset="1" stop-color="#F49E8E"/>
</linearGradient>
<linearGradient id="paint50_linear_1415_2301" x1="404.426" y1="329.597" x2="404.426" y2="166.688" gradientUnits="userSpaceOnUse">
<stop stop-color="white"/>
<stop offset="0.5439" stop-color="#F0F0F4"/>
<stop offset="1" stop-color="#E7E7ED"/>
</linearGradient>
<linearGradient id="paint51_linear_1415_2301" x1="414.848" y1="167.273" x2="414.848" y2="136.725" gradientUnits="userSpaceOnUse">
<stop stop-color="#F0826D"/>
<stop offset="1" stop-color="#F49E8E"/>
</linearGradient>
<linearGradient id="paint52_linear_1415_2301" x1="386.379" y1="119.668" x2="401.293" y2="119.668" gradientUnits="userSpaceOnUse">
<stop stop-color="#F49E8E"/>
<stop offset="1" stop-color="#F0826D"/>
</linearGradient>
<linearGradient id="paint53_linear_1415_2301" x1="429.045" y1="119.669" x2="444.187" y2="119.669" gradientUnits="userSpaceOnUse">
<stop stop-color="#F0826D"/>
<stop offset="1" stop-color="#F49E8E"/>
</linearGradient>
<linearGradient id="paint54_linear_1415_2301" x1="429.215" y1="120.367" x2="444.067" y2="120.367" gradientUnits="userSpaceOnUse">
<stop stop-color="#F0826D"/>
<stop offset="1" stop-color="#F49E8E"/>
</linearGradient>
<linearGradient id="paint55_linear_1415_2301" x1="404.779" y1="144.717" x2="426.215" y2="144.717" gradientUnits="userSpaceOnUse">
<stop stop-color="#F3A88E"/>
<stop offset="1" stop-color="#DE7B66"/>
</linearGradient>
<linearGradient id="paint56_linear_1415_2301" x1="414.936" y1="141.48" x2="414.936" y2="84.1368" gradientUnits="userSpaceOnUse">
<stop stop-color="#F49E8E"/>
<stop offset="1" stop-color="#F0826D"/>
</linearGradient>
<linearGradient id="paint57_linear_1415_2301" x1="403.575" y1="113.275" x2="407.184" y2="113.275" gradientUnits="userSpaceOnUse">
<stop stop-color="#0D0F0D"/>
<stop offset="1" stop-color="#363636"/>
</linearGradient>
<linearGradient id="paint58_linear_1415_2301" x1="421.277" y1="113.275" x2="424.886" y2="113.275" gradientUnits="userSpaceOnUse">
<stop stop-color="#0D0F0D"/>
<stop offset="1" stop-color="#363636"/>
</linearGradient>
<linearGradient id="paint59_linear_1415_2301" x1="421.277" y1="119.444" x2="424.886" y2="119.444" gradientUnits="userSpaceOnUse">
<stop stop-color="#0D0F0D"/>
<stop offset="1" stop-color="#363636"/>
</linearGradient>
<linearGradient id="paint60_linear_1415_2301" x1="398.658" y1="103.805" x2="410.447" y2="103.805" gradientUnits="userSpaceOnUse">
<stop stop-color="#0D0F0D"/>
<stop offset="1" stop-color="#363636"/>
</linearGradient>
<linearGradient id="paint61_linear_1415_2301" x1="417.256" y1="103.805" x2="429.044" y2="103.805" gradientUnits="userSpaceOnUse">
<stop stop-color="#0D0F0D"/>
<stop offset="1" stop-color="#363636"/>
</linearGradient>
<linearGradient id="paint62_linear_1415_2301" x1="413.746" y1="117.45" x2="413.746" y2="80.7184" gradientUnits="userSpaceOnUse">
<stop stop-color="#6D3A00"/>
<stop offset="1" stop-color="#CC6401"/>
</linearGradient>
<linearGradient id="paint63_linear_1415_2301" x1="243.485" y1="553.845" x2="243.485" y2="500.976" gradientUnits="userSpaceOnUse">
<stop stop-color="#F3A88E"/>
<stop offset="1" stop-color="#DE7B66"/>
</linearGradient>
<linearGradient id="paint64_linear_1415_2301" x1="189.463" y1="557.329" x2="257.247" y2="557.329" gradientUnits="userSpaceOnUse">
<stop stop-color="#363636"/>
<stop offset="1" stop-color="#0D0F0D"/>
</linearGradient>
<linearGradient id="paint65_linear_1415_2301" x1="223.377" y1="574.816" x2="223.377" y2="568.47" gradientUnits="userSpaceOnUse">
<stop stop-color="#ACB6DD"/>
<stop offset="1" stop-color="#D7D8EE"/>
</linearGradient>
<linearGradient id="paint66_linear_1415_2301" x1="308.526" y1="553.108" x2="308.526" y2="500.238" gradientUnits="userSpaceOnUse">
<stop stop-color="#F3A88E"/>
<stop offset="1" stop-color="#DE7B66"/>
</linearGradient>
<linearGradient id="paint67_linear_1415_2301" x1="294.764" y1="556.591" x2="362.549" y2="556.591" gradientUnits="userSpaceOnUse">
<stop stop-color="#363636"/>
<stop offset="1" stop-color="#0D0F0D"/>
</linearGradient>
<linearGradient id="paint68_linear_1415_2301" x1="294.762" y1="563.636" x2="362.546" y2="563.636" gradientUnits="userSpaceOnUse">
<stop stop-color="#363636"/>
<stop offset="1" stop-color="#0D0F0D"/>
</linearGradient>
<linearGradient id="paint69_linear_1415_2301" x1="328.636" y1="574.079" x2="328.636" y2="567.733" gradientUnits="userSpaceOnUse">
<stop stop-color="#ACB6DD"/>
<stop offset="1" stop-color="#D7D8EE"/>
</linearGradient>
<linearGradient id="paint70_linear_1415_2301" x1="326.53" y1="573.57" x2="326.53" y2="567.388" gradientUnits="userSpaceOnUse">
<stop stop-color="#ACB6DD"/>
<stop offset="1" stop-color="#D7D8EE"/>
</linearGradient>
<linearGradient id="paint71_linear_1415_2301" x1="332.069" y1="573.633" x2="332.069" y2="567.454" gradientUnits="userSpaceOnUse">
<stop stop-color="#ACB6DD"/>
<stop offset="1" stop-color="#D7D8EE"/>
</linearGradient>
<linearGradient id="paint72_linear_1415_2301" x1="337.607" y1="573.705" x2="337.607" y2="567.526" gradientUnits="userSpaceOnUse">
<stop stop-color="#ACB6DD"/>
<stop offset="1" stop-color="#D7D8EE"/>
</linearGradient>
<linearGradient id="paint73_linear_1415_2301" x1="212.843" y1="218.304" x2="235.02" y2="218.304" gradientUnits="userSpaceOnUse">
<stop stop-color="#F0826D"/>
<stop offset="1" stop-color="#F49E8E"/>
</linearGradient>
<linearGradient id="paint74_linear_1415_2301" x1="272.968" y1="529.183" x2="272.968" y2="295.934" gradientUnits="userSpaceOnUse">
<stop stop-color="#5D4596"/>
<stop offset="1" stop-color="#9172B1"/>
</linearGradient>
<linearGradient id="paint75_linear_1415_2301" x1="296.336" y1="191.984" x2="367.923" y2="191.984" gradientUnits="userSpaceOnUse">
<stop stop-color="#F3A88E"/>
<stop offset="1" stop-color="#DE7B66"/>
</linearGradient>
<linearGradient id="paint76_linear_1415_2301" x1="198.965" y1="288.039" x2="260.637" y2="288.039" gradientUnits="userSpaceOnUse">
<stop stop-color="#F3A88E"/>
<stop offset="1" stop-color="#DE7B66"/>
</linearGradient>
<linearGradient id="paint77_linear_1415_2301" x1="270.152" y1="330.065" x2="270.152" y2="194.41" gradientUnits="userSpaceOnUse">
<stop stop-color="white"/>
<stop offset="0.3619" stop-color="#FCFCFD"/>
<stop offset="0.6842" stop-color="#F3F2F6"/>
<stop offset="0.9912" stop-color="#E3E3EA"/>
<stop offset="1" stop-color="#E3E2E9"/>
</linearGradient>
<linearGradient id="paint78_linear_1415_2301" x1="270.594" y1="209.42" x2="270.594" y2="169.69" gradientUnits="userSpaceOnUse">
<stop stop-color="#F3A88E"/>
<stop offset="1" stop-color="#DE7B66"/>
</linearGradient>
<linearGradient id="paint79_linear_1415_2301" x1="277.866" y1="125.278" x2="290.94" y2="125.278" gradientUnits="userSpaceOnUse">
<stop stop-color="#0D0F0D"/>
<stop offset="1" stop-color="#363636"/>
</linearGradient>
<linearGradient id="paint80_linear_1415_2301" x1="241.975" y1="152.634" x2="256.889" y2="152.634" gradientUnits="userSpaceOnUse">
<stop stop-color="#F3A88E"/>
<stop offset="1" stop-color="#DE7B66"/>
</linearGradient>
<linearGradient id="paint81_linear_1415_2301" x1="284.641" y1="152.634" x2="299.782" y2="152.634" gradientUnits="userSpaceOnUse">
<stop stop-color="#DE7B66"/>
<stop offset="1" stop-color="#F3A88E"/>
</linearGradient>
<linearGradient id="paint82_linear_1415_2301" x1="284.826" y1="153.332" x2="299.657" y2="153.332" gradientUnits="userSpaceOnUse">
<stop stop-color="#DE7B66"/>
<stop offset="1" stop-color="#F3A88E"/>
</linearGradient>
<linearGradient id="paint83_linear_1415_2301" x1="-4.15262" y1="172.701" x2="901.794" y2="172.701" gradientUnits="userSpaceOnUse">
<stop stop-color="#D7DCF0"/>
<stop offset="1" stop-color="#EBECF7"/>
</linearGradient>
<linearGradient id="paint84_linear_1415_2301" x1="271.155" y1="209.42" x2="271.155" y2="169.69" gradientUnits="userSpaceOnUse">
<stop stop-color="#F09779"/>
<stop offset="1" stop-color="#D56250"/>
</linearGradient>
<linearGradient id="paint85_linear_1415_2301" x1="270.533" y1="174.446" x2="270.533" y2="117.101" gradientUnits="userSpaceOnUse">
<stop stop-color="#F3A88E"/>
<stop offset="1" stop-color="#DE7B66"/>
</linearGradient>
<linearGradient id="paint86_linear_1415_2301" x1="259.173" y1="146.24" x2="262.782" y2="146.24" gradientUnits="userSpaceOnUse">
<stop stop-color="#0D0F0D"/>
<stop offset="1" stop-color="#363636"/>
</linearGradient>
<linearGradient id="paint87_linear_1415_2301" x1="276.876" y1="146.24" x2="280.484" y2="146.24" gradientUnits="userSpaceOnUse">
<stop stop-color="#0D0F0D"/>
<stop offset="1" stop-color="#363636"/>
</linearGradient>
<linearGradient id="paint88_linear_1415_2301" x1="276.876" y1="151.366" x2="280.484" y2="151.366" gradientUnits="userSpaceOnUse">
<stop stop-color="#0D0F0D"/>
<stop offset="1" stop-color="#363636"/>
</linearGradient>
<linearGradient id="paint89_linear_1415_2301" x1="254.256" y1="136.77" x2="266.044" y2="136.77" gradientUnits="userSpaceOnUse">
<stop stop-color="#0D0F0D"/>
<stop offset="1" stop-color="#363636"/>
</linearGradient>
<linearGradient id="paint90_linear_1415_2301" x1="272.853" y1="136.77" x2="284.641" y2="136.77" gradientUnits="userSpaceOnUse">
<stop stop-color="#0D0F0D"/>
<stop offset="1" stop-color="#363636"/>
</linearGradient>
<linearGradient id="paint91_linear_1415_2301" x1="249.492" y1="136.026" x2="252.271" y2="136.026" gradientUnits="userSpaceOnUse">
<stop stop-color="#0D0F0D"/>
<stop offset="1" stop-color="#363636"/>
</linearGradient>
<linearGradient id="paint92_linear_1415_2301" x1="287.981" y1="135.012" x2="290.918" y2="135.012" gradientUnits="userSpaceOnUse">
<stop stop-color="#0D0F0D"/>
<stop offset="1" stop-color="#363636"/>
</linearGradient>
<linearGradient id="paint93_linear_1415_2301" x1="246.753" y1="118.531" x2="286.712" y2="118.531" gradientUnits="userSpaceOnUse">
<stop stop-color="#0D0F0D"/>
<stop offset="1" stop-color="#363636"/>
</linearGradient>
<linearGradient id="paint94_linear_1415_2301" x1="241.046" y1="532.519" x2="241.046" y2="512.077" gradientUnits="userSpaceOnUse">
<stop stop-color="#5D4596"/>
<stop offset="1" stop-color="#9172B1"/>
</linearGradient>
<linearGradient id="paint95_linear_1415_2301" x1="308.577" y1="532.519" x2="308.577" y2="512.077" gradientUnits="userSpaceOnUse">
<stop stop-color="#5D4596"/>
<stop offset="1" stop-color="#9172B1"/>
</linearGradient>
</defs>
</svg>
