<svg width="360" height="983" fill="none" xmlns="http://www.w3.org/2000/svg"><g clip-path="url(#clip0_1209_7983)"><path d="M1649 0H-273v983h1922V0z" fill="#E8F5FE"/><path fill-rule="evenodd" clip-rule="evenodd" d="M1237.56 912.52c-112.77 22.724-252.003-.229-367.876-1.014-132.799-.883-265.599-1.7-398.398-1.7h-744.253l.032-700.041c202.01 0 437.35-22.856 611.388 82.494 84.013 50.844 161.719 115.649 254.522 146.319 53.002 17.525 109.174 23.247 161.98 41.329 83.588 28.642 125.219 82.821 202.761 125.033 75.614 41.133 152.214 85.077 201.814 159.299 13.82 20.665 25.03 42.997 36.24 65.231 13.95 27.694 27.87 55.388 41.79 83.05z" fill="url(#paint0_radial_1209_7983)"/><path d="M1648.9 729.694H-272.935v253.663H1648.9V729.694z" fill="#41AE5B"/><path fill-rule="evenodd" clip-rule="evenodd" d="M829.426 737.476c-11.731-3.924-22.612-10.496-31.533-19.095 4.509 3.891-4.019 10.528-9.346 7.88-5.326-2.649-8.234-8.828-13.561-11.51-5.326-2.681-13.887 3.891-9.411 7.848-4.378-3.728-8.79-7.488-13.169-11.215a60.158 60.158 0 01-13.168 16.512 3746.334 3746.334 0 00-20.554-8.011c-1.242 4.283-2.516 8.566-3.758 12.85a38.708 38.708 0 00-13.267-11.15c-3.889-1.994-11.176.229-8.659 3.826-21.763 1.209-43.788-2.649-63.851-11.248 4.215 4.218-4.771 11.836-8.235 6.964 1.046 5.036.392 10.398-1.765 15.074a2716.596 2716.596 0 00-9.476-16.643c-7.908 4.643-19.704-.752-21.338-9.777-.882 5.559-1.765 11.085-2.647 16.643 1.405-5.264-6.535-9.94-10.457-6.147-3.921 3.793.425 11.869 5.752 10.692-1.863-3.27-4.216-6.866-7.908-7.488-3.693-.653-7.581 4.447-4.706 6.867-15.162-11.15-36.467-13.308-53.557-5.428a261.178 261.178 0 01-40.553-6.441l-.196 12.948c-10.064-8.371-23.919-11.967-36.794-9.515a2510.678 2510.678 0 00-13.986-5.82l-12.548 8.24c-6.241-3.107-12.45-6.18-18.659-9.286 4.967 1.079 2.582 9.809-2.45 10.365-5.033.555-9.281-3.499-12.712-7.226.033-4.022 7.451.163 5.033 3.335-2.419 3.204-7.549 1.863-10.849-.393-3.301-2.256-6.732-5.297-10.718-4.708-3.954.621-5.098 7.978-1.111 7.88-11.699-5.559-21.044-15.956-25.325-28.185-.098 8.632-.163 17.231-.261 25.863-4.15-4.577-8.3-9.122-12.45-13.7l3.333 19.324c-5.425-7.455-13.627-12.817-22.646-14.713 0 3.956.033 7.912.033 11.869-13.79-3.499-28.102-4.905-42.317-4.218 1.961 2.256 1.961 2.288 3.922 4.545-8.366-3.662-16.764-7.292-25.129-10.954a24.363 24.363 0 003.398 13.569 50.642 50.642 0 00-11.012-8.337 13.722 13.722 0 00-1.013 7.585c-5.294-3.073-10.555-6.147-15.848-9.22a12.244 12.244 0 002.745 7.389 91.4 91.4 0 01-19.966-14.256c-1.307 4.774-.523 10.071 2.059 14.289-5.163-2.91-10.326-5.853-15.489-8.763a12.18 12.18 0 01-2.255 8.698 6.279 6.279 0 01-3.366-4.414c-2.81.261-5.49 1.765-7.156 4.021a32.256 32.256 0 00-3.333-12.425c-2.059 3.139-4.117 6.311-6.176 9.45a31.858 31.858 0 00-5.784-12.752c-1.666 4.937-3.366 9.875-5.032 14.844-.621-2.256-1.471-4.773-3.529-5.852-2.092-1.079-5.392.85-4.51 3.008-1.764-2.224-3.529-4.48-5.294-6.703.033 2.877-.718 5.755-2.189 8.207a495.271 495.271 0 00-3.66-5.264c-1.078 1.7-2.189 3.367-3.267 5.068-2.092-1.374-4.183-2.78-6.242-4.153-.882 1.929-1.732 3.858-2.614 5.788-3.562-1.243-7.091-2.453-10.653-3.695-4.803-.131-9.607-.262-14.41-.425 1.405 1.994 2.843 4.021 4.248 6.016a81.895 81.895 0 00-19.182-3.891c2.026 1.668 4.085 3.368 6.111 5.035a217.717 217.717 0 00-65.485 1.766c-6.568 1.177-12.286-5.395-13.038-12.032a15.398 15.398 0 01-1.47 8.272c-6.47-2.583-11.993-7.553-15.228-13.733-.163 3.204-.294 6.376-.457 9.58a31.97 31.97 0 01-13.137-10.299c-.817 2.125-1.6 4.25-2.418 6.343-8.79-6.866-17.58-13.733-26.337-20.566a126.22 126.22 0 00.653 26.517c-4.869-5.493-9.738-11.019-14.607-16.512-.424 4.741-.817 9.482-1.241 14.223-1.046-1.668-2.092-3.368-3.17-5.068-.654 1.7-1.34 3.433-1.993 5.133-5.85-12.294-8.464-26.092-7.516-39.661-.294 15.433-1.83 30.866-4.542 46.103-2.157-16.349-4.28-32.665-6.438-49.013-7.417 12.425-11.11 26.975-10.587 41.427a94.09 94.09 0 01-7.712-29.787 94.202 94.202 0 00-7.875 26.387c-2.81-5.755-5.588-11.51-8.398-17.264-2.255 6.866-4.477 13.7-6.731 20.566-1.994-4.12-4.02-8.24-6.013-12.392-2.157 4.806-4.346 9.613-6.503 14.419-3.659-1.962-6.502-5.362-7.842-9.286a27.436 27.436 0 00-3.104 11.771 72.963 72.963 0 01-8.595-17.1c-.686 5.329-1.339 10.626-2.026 15.956-2.45-1.995-4.901-3.989-7.352-5.951a11.095 11.095 0 00-2.222 5.82 7.747 7.747 0 01-6.241-.85c-1.144 1.798-2.255 3.564-3.399 5.362-7.711-2.943-16.436-3.106-24.279-.523a32.871 32.871 0 00-10.424-8.894c-.882 2.126-1.732 4.284-2.614 6.409-2.026-1.275-5.097-.131-5.784 2.158-13.953-3.237-28.69-2.943-42.48.85 26.044 42.081 65.681 73.961 113.52 86.516 26.763 7.03 54.669 7.848 82.314 8.632 124.01 3.499 248.019 6.997 372.028 10.463 92.999 2.616 183.547 5.428 276.154-3.662 92.672-9.253 183.645-34.266 257.005-91.551z" fill="#41AE5B"/><path fill-rule="evenodd" clip-rule="evenodd" d="M-272.967 777.072c21.73-7.259 39.996-17.526 58.949-30.409-1.634 11.804-3.3 23.608-4.934 35.444a363.672 363.672 0 01113.585-11.967c-12.548 9.318-25.096 18.67-37.611 27.988 16.241-1.046 32.481-2.06 48.722-3.106 3.79-.229 8.07-.327 10.881 2.256 2.81 2.583 1.732 8.698-2.059 8.567 15.587-.523 31.142-1.014 46.729-1.504-.033 5.918-4.575 11.509-10.359 12.752 28.723 3.237 58.296-1.57 84.536-13.668-5.654 8.174 7.417 16.218 17.22 17.689 29.214 4.382 58.394 8.763 87.608 13.144-6.438 3.859-12.842 7.717-19.247 11.575 14.247-2.158 28.331 3.695 41.761 8.926 65.06 25.308 134.695 38.714 204.493 39.368 10.914.098 25.75 12.13 34.115 19.127-148.354 1.439-296.708 3.662-445.062 3.662h-228.87l-.457-139.844z" fill="url(#paint1_linear_1209_7983)"/></g><defs><radialGradient id="paint0_radial_1209_7983" cx="0" cy="0" r="1" gradientUnits="userSpaceOnUse" gradientTransform="rotate(14.841 -68.957 489.083) scale(1117.12 658.457)"><stop stop-color="#41AE5B"/><stop offset="1" stop-color="#126D59"/></radialGradient><linearGradient id="paint1_linear_1209_7983" x1="65.344" y1="630.405" x2="63.925" y2="903.177" gradientUnits="userSpaceOnUse"><stop stop-color="#74BC71"/><stop offset="1" stop-color="#41AE5B"/></linearGradient><clipPath id="clip0_1209_7983"><path fill="#fff" d="M0 0h360v983H0z"/></clipPath></defs></svg>