<svg width="1920" height="1233" fill="none" xmlns="http://www.w3.org/2000/svg"><g clip-path="url(#clip0_873_11981)"><path d="M1920.97-49.08H-1V1233h1921.97V-49.08z" fill="#E8F5FE"/><path fill-rule="evenodd" clip-rule="evenodd" d="M1156.45 562.059c0 8.534 7.1 15.466 15.85 15.466 8.76 0 15.85-6.932 15.85-15.466 0-8.534-7.09-15.466-15.85-15.466-8.75 0-15.85 6.932-15.85 15.466z" fill="url(#paint0_linear_873_11981)"/><path fill-rule="evenodd" clip-rule="evenodd" d="M1920.93 1201.97h-232.36c-231.26 0-462.35-4.25-693.475-6.05 45.945-131.15 142.795-238.228 254.915-315.426 81.04-55.781 171.52-100.608 265.83-134.711l62.41 3.793c.1-.523.2-1.079.29-1.602.98-4.153 2.16-8.24 3.24-12.392 1.11-4.153 2.25-8.305 3.37-12.458.03-.098.06-.229.09-.327a1411.704 1411.704 0 0184.64-22.626c50.52-11.804 98.32-33.972 139.2-64.511 16.63-12.425 32.22-26.289 50.45-36.457 14.45-8.044 31.28-14.158 47.91-14.158 4.38 0 8.76.425 13.07 1.341 0 14.582.07 74.581.13 151.811.1 101.23.23 232.116.29 328.963v.07c.04 62.22.04 110.41 0 127.74.04 4.58 0 7 0 7z" fill="url(#paint1_radial_873_11981)"/><path fill-rule="evenodd" clip-rule="evenodd" d="M1509.56 1115.52c-112.77 22.72-252-.23-367.88-1.01-132.8-.89-265.595-1.7-398.394-1.7H-.967l.032-700.045c202.01 0 437.35-22.856 611.388 82.494 84.013 50.844 161.719 115.649 254.522 146.319 53.002 17.525 109.174 23.247 161.985 41.329 83.58 28.642 125.21 82.821 202.76 125.033 75.61 41.133 152.21 85.077 201.81 159.299 13.82 20.665 25.03 43.001 36.24 65.231 13.95 27.69 27.87 55.39 41.79 83.05z" fill="url(#paint2_radial_873_11981)"/><path fill-rule="evenodd" clip-rule="evenodd" d="M1194.33 523.248c-.56 17.754 1.86 36.097 10.72 51.465 13.78 23.901 41.4 37.176 68.78 40.446 27.38 3.302 55-1.929 82.09-7.128 45.06 46.168 126.85 49.372 175.37 6.866 2.36-2.092 4.81-4.316 7.85-5.133 7.05-1.929 13.46 4.185 18.98 9.024 27.61 24.163 68.17 24.294 104.8 22.823 35.26-1.406 71.27-3.205 104.01-16.349 32.74-13.144 62.18-39.857 68.95-74.516 8.79-44.991-21.64-88.02-54.57-119.867-16.9-16.316-35-31.52-55.23-43.454-30.39-17.951-64.76-28.087-99.47-34.463-85.32-15.695-174.46-8.436-256.58 19.226-70.32 23.705-172.99 64.445-175.7 151.06z" fill="#115A48"/><path fill-rule="evenodd" clip-rule="evenodd" d="M1603.51 143.113c-60.49-6.147-124.01 45.122-113.62 100.249-36.96-36.719-101.46-46.855-149.59-23.575-48.14 23.313-75.49 77.982-63.43 126.766-30.95-13.013-68.88-14.746-98.2 1.177-29.27 15.924-46.17 51.596-33.1 80.5 14.87 32.861 59.08 45.22 97.81 44.828-3.83 34.43 29.44 63.17 63.81 77.295 68.36 28.054 152.61 20.174 213.42-19.912 19.96 32.533 57.87 55.127 98.29 58.625 40.42 3.499 82.28-12.228 108.46-40.773 27.44 14.093 60.19 21.515 90.74 14.681 30.55-6.801 57.71-29.917 61.69-58.593 3.99-28.675-20.26-59.671-51.69-60.652 74.57 2.321 75.55-100.936 11.53-120.358-18.2-5.526-37.97-2.812-56.89-.065 17.03-26.321 22.06-62.059-9.83-81.612-23.86-14.583-59.8-8.468-76.37 13.014 2.97-31.226 5.62-57.384-20.19-80.631-19.09-17.101-46.4-28.25-72.84-30.964z" fill="url(#paint3_radial_873_11981)"/><path fill-rule="evenodd" clip-rule="evenodd" d="M1758.56 489.537s-1.4 1.733-4.02 5.003c-2.61 3.269-6.37 8.108-11.76 13.928-5.23 6.017-11.93 12.785-19.74 20.469-7.84 7.651-16.86 16.087-26.56 25.242-4.91 4.577-9.87 9.416-15 14.386-2.62 2.453-5.07 5.101-7.65 7.717-1.27 1.308-2.58 2.648-3.89 3.989l-1.96 2.027-1.67 1.962c-5.06 5.787-10.26 11.705-15.58 17.787-5 6.147-9.51 12.588-14.41 19.03-1.18 1.635-2.45 3.171-3.6 4.872-1.11 1.733-2.19 3.498-3.33 5.231l-6.7 10.561c-4.74 6.932-8.4 14.583-12.58 22.038-4.31 7.357-7.61 15.302-11.18 23.149-1.69 3.957-3.69 7.782-5.13 11.869l-4.41 12.164c-1.4 4.087-3.04 8.076-4.24 12.196-1.15 4.152-2.26 8.305-3.37 12.457-1.08 4.153-2.26 8.24-3.24 12.392-.78 4.185-1.53 8.371-2.32 12.523-.75 4.153-1.53 8.272-2.28 12.392-.49 4.153-.98 8.273-1.47 12.392-.53 4.088-.98 8.142-1.6 12.164-.53 4.021-.59 8.076-.95 12.065-.69 7.945-1.57 15.76-1.67 23.476-.16 3.859-.29 7.651-.46 11.411-.19 3.761-.49 7.488-.26 11.15.2 7.324.17 14.518.23 21.449.43 6.932 1.05 13.602 1.37 20.076.2 6.507 1.25 12.621 1.96 18.507.79 5.885 1.25 11.542 2.13 16.806.98 5.264 1.86 10.169 2.71 14.714.39 2.321.75 4.512 1.08 6.637.16 1.079.36 2.093.52 3.106.26.981.49 1.962.72 2.878 1.83 7.52 3.17 13.536 4.02 17.689a535.39 535.39 0 011.27 6.408l-2.94 1.341s-1.24-1.897-3.56-5.493c-2.29-3.597-5.59-8.959-9.64-15.924-3.95-6.997-7.68-15.988-12.32-26.288-1.27-2.55-2.02-5.33-3-8.142-.95-2.844-1.93-5.754-2.91-8.762-1.9-6.049-4.22-12.36-5.49-19.193-1.57-6.769-3.07-13.897-4.58-21.286-.91-7.455-1.92-15.172-2.77-23.182-.56-3.989-.66-8.044-.76-12.164-.06-4.119-.16-8.272-.22-12.49-.53-8.468.65-17.002 1.24-25.765.49-4.349.75-8.763 1.43-13.144.72-4.382 1.61-8.796 2.46-13.21.85-4.414 1.69-8.861 2.68-13.307 1.24-4.382 2.48-8.763 3.72-13.177 1.24-4.414 2.52-8.796 3.79-13.242 1.47-4.382 3.11-8.698 4.67-13.047 1.54-4.348 3.11-8.697 4.68-13.046 1.6-4.316 3.62-8.501 5.42-12.751l5.52-12.687c1.8-4.25 4.19-8.207 6.24-12.327 4.29-8.141 8.34-16.315 13.37-23.901 4.9-7.618 9.25-15.498 14.8-22.463 2.65-3.564 5.3-7.095 7.88-10.594 1.3-1.733 2.61-3.498 3.92-5.231 1.34-1.7 2.84-3.335 4.25-4.97 5.75-6.507 11.27-13.144 16.89-19.095 5.78-5.624 11.44-11.117 16.93-16.479l2.28-2.191 2.19-1.896c1.47-1.243 2.91-2.518 4.35-3.728 2.88-2.452 5.65-4.937 8.53-7.226 5.65-4.61 11.08-9.057 16.37-13.21 10.52-8.37 20.16-15.89 28.56-22.757 4.25-3.367 8.01-6.735 11.6-9.743 3.63-2.976 6.73-5.886 9.61-8.501 5.78-5.101 10.06-9.581 13-12.556 2.94-2.975 4.51-4.578 4.51-4.578l2.32 2.093z" fill="#0F6F59"/><path fill-rule="evenodd" clip-rule="evenodd" d="M1550.34 425.876s.53 2.191 1.54 6.278c.98 4.12 2.65 10.005 4.02 17.95.69 3.924 1.73 8.338 2.35 13.079.66 4.741 1.44 9.907 2.13 15.4 1.24 11.019 2.54 23.444 3.49 36.948.98 13.504 1.87 28.087 3.14 43.258 1.21 15.596 2.19 31.683 3.37 48.522 1.11 16.807 2.38 34.136 3.26 51.76.49 8.828.98 17.689 1.51 26.615.26 4.447.49 8.926.75 13.406l.39 6.702.26 7.194c.62 17.918 1.64 35.868 2.84 53.525 1.12 17.656 2.06 35.018 1.93 51.824-.26 16.807-1.01 32.959-3.1 48.457a741.353 741.353 0 01-6.37 43.487c-4.68 26.877-10.23 49.144-14.84 64.675-2.29 7.749-4.28 13.83-5.78 17.983-1.44 4.12-2.36 6.343-2.36 6.343l-5.52-.294s-.72-2.289-1.83-6.539c-1.18-4.251-2.68-10.496-4.34-18.376-3.34-15.825-7.1-38.288-9.61-65.132-1.31-13.406-2.32-27.924-2.91-43.226-.52-15.269-1.31-31.618-.78-48.359.45-16.806 2.02-34.135 3.79-51.726 1.86-17.591 3.49-35.476 4.77-53.394l.42-6.245.33-6.703c.19-4.48.42-8.959.65-13.406.43-8.926.85-17.82 1.28-26.648.75-17.624 1.89-34.986 2.87-51.792 1.02-16.773 2.03-32.991 2.94-48.359.92-15.596 2.09-30.146 3.01-43.519.46-6.67.88-13.079 1.27-19.161.3-6.049.59-11.803.85-17.231.26-10.79.43-20.239.2-27.89.03-7.684-.62-13.929-.88-18.115-.3-4.217-.46-6.441-.46-6.441l5.42-.85z" fill="#0F6F59"/><path fill-rule="evenodd" clip-rule="evenodd" d="M1478.32 994.901s.59-2.354 1.83-6.703c1.21-4.251 3.01-10.496 5.26-18.441 2.29-7.88 4.87-17.395 7.81-28.185a984.027 984.027 0 008.76-36.13c2.88-13.177 5.66-27.4 7.94-42.375 2.19-15.008 4.09-30.703 5.43-46.888 1.3-16.185 2.41-32.893 1.96-49.928-.59-17.002-2.65-34.332-7.29-51.04-4.54-16.741-10.85-32.926-19.05-48.26-8.23-15.368-17.65-30.539-26.99-45.318-9.31-14.779-18.63-29.231-26.67-43.553-8.07-14.321-15.03-28.413-20.29-41.983-5.29-13.569-8.59-26.68-10.36-38.386-1.76-11.738-1.79-22.168-1.01-30.571.72-8.436 2.06-14.91 3.07-19.259 1.15-4.316 1.73-6.637 1.73-6.637l4.48 1.013s-.26 2.289-.78 6.54c-.4 4.283-.79 10.561-.4 18.473.4 7.913 1.67 17.461 4.61 27.989 2.94 10.561 7.52 22.038 13.79 33.972 6.24 11.967 14.25 24.359 23.46 37.111 9.25 12.719 19.51 25.896 30.39 39.694 10.82 13.864 22.26 28.316 32.65 44.664 10.55 16.316 19.51 34.495 26.33 53.296 6.97 18.834 11.8 38.419 15.1 57.972 3.17 19.553 4.18 39.171 2.94 57.906-1.34 18.735-4.87 36.555-9.64 52.871a299.091 299.091 0 01-16.6 44.664c-12.32 26.713-26.24 46.789-36.82 59.999-2.55 3.335-5.17 6.18-7.32 8.697a101.06 101.06 0 01-5.62 6.147c-3.11 3.27-4.87 4.938-4.87 4.938l-3.83-2.289z" fill="#0F6F59"/><path fill-rule="evenodd" clip-rule="evenodd" d="M1454.08 587.366s-3.24-.261-8.89-.752c-1.44-.13-2.91-.196-4.74-.457-1.86-.295-3.85-.654-6.01-.981-2.16-.36-4.41-.752-6.8-1.177-2.32-.524-4.67-1.21-7.19-1.831-2.48-.687-5.09-1.243-7.71-2.126-2.61-.915-5.29-1.864-8.07-2.844-1.37-.524-2.78-.949-4.18-1.537-1.38-.621-2.75-1.243-4.15-1.864-2.78-1.275-5.69-2.485-8.5-3.923-5.55-3.074-11.37-6.049-16.83-9.875-5.65-3.433-10.81-7.782-16.11-11.836-4.93-4.545-10.06-8.796-14.41-13.733-4.64-4.61-8.53-9.776-12.42-14.583-1.86-2.485-3.49-5.068-5.19-7.487-.85-1.243-1.67-2.453-2.48-3.63-.79-1.21-1.44-2.485-2.16-3.727a710.404 710.404 0 01-4.05-7.161c-1.28-2.321-2.26-4.708-3.3-6.932-1.02-2.223-2.06-4.348-2.91-6.408-.75-2.093-1.47-4.087-2.16-5.984-.68-1.863-1.31-3.629-1.89-5.231-.56-1.635-.89-3.172-1.25-4.545-1.43-5.493-2.25-8.632-2.25-8.632s1.14 3.041 3.14 8.338c.52 1.307.98 2.812 1.7 4.348.75 1.537 1.53 3.205 2.38 4.97.85 1.766 1.77 3.63 2.71 5.624 1.05 1.929 2.29 3.891 3.5 5.951 1.27 2.06 2.42 4.251 3.89 6.376 1.5 2.092 3.04 4.283 4.64 6.507.82 1.111 1.57 2.256 2.45 3.367.91 1.079 1.83 2.158 2.74 3.27 1.87 2.191 3.7 4.479 5.72 6.67 4.22 4.218 8.37 8.73 13.24 12.621 4.57 4.218 9.83 7.749 14.83 11.51 5.36 3.269 10.52 6.8 16.11 9.449 5.36 3.008 11.01 5.166 16.34 7.455 2.71 1.046 5.46 1.831 8.07 2.746 1.31.425 2.62.883 3.92 1.308 1.31.393 2.62.654 3.89.981 2.55.621 5.03 1.243 7.45 1.831 2.42.556 4.81.785 7.06 1.177 2.26.327 4.44.72 6.47.981 1.99.131 3.89.262 5.65.36 1.77.131 3.43.229 4.94.36 1.57.065 3.23-.033 4.64-.033 5.65-.098 8.92-.164 8.92-.164l-.75 21.253zm149.95 47.607s.56-.556 1.57-1.635c.56-.556 1.05-1.144 1.96-1.994 1.01-.85 2.19-1.831 3.53-2.943 1.34-1.046 2.78-1.864 4.38-2.91 1.6-.981 3.43-1.831 5.33-2.812 3.88-1.635 8.3-3.368 13.16-4.479 9.71-2.518 21.02-3.597 32.85-4.545 2.94-.262 5.91-.491 8.92-.752 2.97-.295 5.94-.622 9.05-1.014 3.1-.36 6.21-.719 9.21-1.242 3.01-.556 6.18-.785 9.12-1.603 2.97-.752 6.04-1.242 8.95-2.19 2.85-.981 5.66-1.929 8.47-2.91 2.77-1.374 5.55-2.747 8.26-4.12 2.58-1.472 4.87-3.172 7.32-4.709 1.24-.752 2.36-1.634 3.43-2.55 1.12-.915 2.19-1.798 3.3-2.681 2.23-1.7 4.19-3.662 6.12-5.526 3.95-3.629 7.22-7.553 10.42-11.019 2.97-3.662 5.78-6.964 8.1-10.038 2.32-3.073 4.38-5.722 6.02-7.945 3.26-4.479 5.13-7.03 5.13-7.03s-1.7 2.649-4.68 7.324c-1.47 2.322-3.36 5.101-5.49 8.338-2.12 3.204-4.73 6.703-7.48 10.594-3.01 3.695-6.04 7.88-9.87 11.836-1.83 2.06-3.72 4.153-5.91 6.049-1.08.981-2.13 1.995-3.24 2.975-1.08 1.014-2.19 2.028-3.43 2.91-2.45 1.799-4.93 3.826-7.51 5.526-2.65 1.537-5.33 3.074-8.01 4.643-3.01 1.275-6.05 2.518-9.08 3.826-3.01 1.177-6.18 1.929-9.25 2.91-3.11 1.013-6.28 1.504-9.38 2.256-3.14.752-6.21 1.275-9.28 1.864-3.01.588-6.14 1.144-9.22 1.634-3.03.458-6.04.883-8.98 1.341-11.7 1.668-22.39 3.433-30.88 6.245-4.32 1.308-7.91 3.008-11.01 4.545-1.47.883-2.88 1.668-4.06 2.485-1.11.883-2.28 1.635-3.1 2.354-.75.72-1.44 1.341-2.06 1.897-.62.621-1.27 1.471-1.73 1.994a80.679 80.679 0 01-1.47 1.733l-9.48-8.632zm-103.71 47.966s-3.4-2.19-9.32-6.048c-1.53-1.079-3.04-1.799-4.7-2.714-1.67-.916-3.5-1.897-5.43-2.943-1.86-1.079-4.28-2.125-6.66-3.27-2.42-1.144-4.97-2.321-7.65-3.596-5.52-2.453-11.53-5.101-17.87-7.913a860.119 860.119 0 01-20.1-9.155c-6.96-3.27-14.08-6.834-21.24-10.561-3.56-1.929-7.16-3.891-10.75-5.886-3.53-2.092-7.09-4.218-10.62-6.31-3.47-2.256-6.93-4.512-10.39-6.736-3.4-2.289-6.7-4.806-10-7.16l-1.24-.883-.72-.523-.59-.458-2.29-1.864a604.18 604.18 0 01-4.54-3.727c-3.04-2.355-5.95-5.265-8.82-7.848-2.94-2.583-5.56-5.362-8.07-8.076-2.55-2.681-5.07-5.297-7.26-8.109-2.19-2.779-4.51-5.329-6.4-8.043-1.9-2.714-3.73-5.362-5.49-7.88-1.8-2.485-3.07-5.166-4.55-7.553-1.34-2.452-2.84-4.643-3.79-6.932-1.99-4.577-4.02-8.37-5.19-11.738-2.29-6.703-3.63-10.528-3.63-10.528l4.61 10.103c1.47 3.204 3.85 6.801 6.24 11.019 1.14 2.158 2.88 4.152 4.38 6.408 1.67 2.191 3.14 4.643 5.13 6.899 1.93 2.289 3.95 4.643 6.04 7.096 2.1 2.419 4.58 4.675 6.96 7.128 2.36 2.485 5 4.773 7.75 7.095 2.68 2.354 5.46 4.774 8.43 6.899 3.01 2.191 5.75 4.545 9.12 6.637 1.63 1.079 3.26 2.158 4.9 3.237l2.48 1.635.62.425.53.262 1.27.719c3.4 1.929 6.73 3.989 10.19 5.886 3.5 1.798 7.03 3.629 10.53 5.427 3.59 1.668 7.19 3.368 10.75 5.036 3.62 1.536 7.25 3.073 10.85 4.61 7.25 2.91 14.44 5.657 21.5 8.142a919.842 919.842 0 0020.45 6.997c6.64 2.158 12.88 4.218 18.66 6.114 2.94 1.046 5.75 2.027 8.43 2.975 2.72.981 5.2 1.766 7.75 2.91 2.51 1.047 4.87 2.06 7.02 2.976 2.16.915 4.25 1.798 5.72 2.616 6.28 3.237 9.87 5.1 9.87 5.1l-12.87 22.103z" fill="#0F6F59"/><path fill-rule="evenodd" clip-rule="evenodd" d="M1353.46 601.622s-.52.033-1.5.131c-.49.033-1.11.098-1.8.164-.36.032-.75.065-1.14.098-.49 0-.98.032-1.5.032-1.08.033-2.26.033-3.53.066-1.21-.066-2.52-.131-3.92-.196-2.75-.197-5.85-.524-9.12-1.145-13.23-2.256-29.57-8.338-44.67-16.381-1.89-1.014-3.76-2.027-5.62-3.106l-2.84-1.635-2.65-1.668c-3.5-2.125-6.96-4.741-10.16-7.193-1.54-1.308-3.04-2.616-4.51-3.858-1.44-1.308-2.71-2.714-4.02-3.989a37.246 37.246 0 01-3.6-3.989c-1.07-1.341-2.22-2.583-3.13-3.891-.92-1.308-1.77-2.583-2.58-3.793-.43-.589-.82-1.177-1.21-1.766-.33-.621-.66-1.21-.95-1.765-1.18-2.322-2.45-4.186-3.04-5.984-1.37-3.433-2.16-5.395-2.16-5.395s.98 1.864 2.65 5.134c.75 1.667 2.19 3.433 3.53 5.591.36.523.72 1.079 1.11 1.635.43.523.88 1.046 1.34 1.602.92 1.111 1.86 2.256 2.88 3.466 1.01 1.177 2.25 2.256 3.39 3.465 1.18 1.21 2.42 2.42 3.83 3.499 1.37 1.112 2.74 2.354 4.25 3.466 1.53 1.079 3.07 2.191 4.67 3.302 3.27 2.06 6.53 4.12 10.32 5.951l2.78 1.406 2.75 1.243c1.89.85 3.79 1.667 5.72 2.485 15.32 6.408 31.43 10.626 43.33 11.476 2.97.262 5.68.294 8.03.229 1.18-.033 2.26-.098 3.27-.131.95-.098 1.8-.196 2.58-.294.4-.033.75-.065 1.11-.098.4-.065.79-.131 1.15-.196.72-.131 1.3-.262 1.8-.327.98-.196 1.5-.295 1.5-.295l1.66 12.654z" fill="#0F6F59"/><path fill-rule="evenodd" clip-rule="evenodd" d="M1221.87 403.577s24.09-18.441 32.62 7.095c-.04 0-14.19 11.313-32.62-7.095zm89.28-92.206s-7.09 22.692 16.99 26.943c.03.032 8.53-22.659-16.99-26.943zm26.92 147.496s14.19-9.939 19.84 11.346c.03 0-9.9 5.69-19.84-11.346z" fill="#41AE5B"/><path fill-rule="evenodd" clip-rule="evenodd" d="M1328.17 338.346s-15.23-8.501-21.6 10.627c-.03 0 21.93 7.455 21.6-10.627zm-73.72 72.326s-18.07 3.204-17.02 22.332c.03 0 25.52-1.079 17.02-22.332zm183.91-130.853s-12.74-18.082 0-29.787c0 .033 16.99 14.91 0 29.787z" fill="#41AE5B"/><path fill-rule="evenodd" clip-rule="evenodd" d="M1233.21 487.772s-11.17-2.649-13.82 11.705c0 0 13.82-1.602 13.82-11.705z" fill="#0F6F59"/><path fill-rule="evenodd" clip-rule="evenodd" d="M1643.28 823.602h-.72c.1-1.243.19-2.485.29-3.695 0-.229.04-.491.04-.719 2.22 2.256 4.18 4.185 4.47 4.185-1.37.163-2.71.229-4.08.229z" fill="#0F5E4D"/><path d="M1920.9 979.305H-.935v253.665H1920.9V979.305z" fill="#41AE5B"/><path fill-rule="evenodd" clip-rule="evenodd" d="M1101.43 987.086c-11.73-3.923-22.62-10.495-31.54-19.095 4.51 3.891-4.02 10.529-9.34 7.88-5.33-2.648-8.24-8.828-13.56-11.509-5.33-2.681-13.89 3.891-9.41 7.847-4.38-3.727-8.79-7.487-13.17-11.215a60.355 60.355 0 01-13.17 16.512 3915.53 3915.53 0 00-20.556-8.011c-1.242 4.284-2.516 8.567-3.758 12.85a38.694 38.694 0 00-13.267-11.149c-3.889-1.995-11.176.228-8.659 3.825-21.763 1.21-43.788-2.648-63.852-11.248 4.216 4.218-4.77 11.837-8.234 6.965 1.046 5.035.392 10.398-1.765 15.073a2746.795 2746.795 0 00-9.476-16.643c-7.908 4.643-19.704-.752-21.338-9.776-.882 5.559-1.765 11.084-2.647 16.643 1.405-5.264-6.535-9.94-10.457-6.147-3.921 3.793.425 11.869 5.751 10.692-1.862-3.27-4.215-6.867-7.907-7.488-3.693-.654-7.581 4.447-4.706 6.866-15.162-11.149-36.467-13.307-53.558-5.427a261.067 261.067 0 01-40.552-6.442l-.196 12.948c-10.064-8.37-23.919-11.967-36.794-9.514a2510.678 2510.678 0 00-13.986-5.82l-12.548 8.239c-6.241-3.106-12.45-6.18-18.659-9.286 4.967 1.079 2.582 9.809-2.45 10.365-5.033.556-9.281-3.498-12.712-7.226.033-4.022 7.451.164 5.032 3.335-2.418 3.205-7.548 1.864-10.848-.392-3.301-2.256-6.732-5.297-10.718-4.709-3.954.622-5.098 7.979-1.111 7.88-11.699-5.558-21.044-15.956-25.325-28.184-.098 8.632-.164 17.231-.262 25.863-4.15-4.578-8.299-9.122-12.45-13.7l3.334 19.324c-5.425-7.455-13.627-12.817-22.646-14.714 0 3.957.033 7.913.033 11.869-13.79-3.498-28.102-4.904-42.317-4.218 1.961 2.256 1.961 2.289 3.921 4.545-8.365-3.662-16.763-7.291-25.128-10.953a24.363 24.363 0 003.398 13.569 50.615 50.615 0 00-11.012-8.338 13.725 13.725 0 00-1.013 7.586c-5.294-3.074-10.555-6.147-15.848-9.221a12.247 12.247 0 002.745 7.39 91.434 91.434 0 01-19.966-14.256c-1.307 4.774-.523 10.071 2.059 14.289-5.163-2.91-10.326-5.853-15.489-8.763a12.177 12.177 0 01-2.255 8.697 6.275 6.275 0 01-3.366-4.414c-2.81.262-5.49 1.766-7.156 4.022a32.251 32.251 0 00-3.333-12.425c-2.059 3.139-4.118 6.31-6.176 9.449a31.854 31.854 0 00-5.784-12.751c-1.667 4.937-3.366 9.874-5.032 14.844-.621-2.256-1.471-4.774-3.529-5.853-2.092-1.079-5.392.85-4.51 3.008-1.764-2.223-3.529-4.479-5.294-6.703.033 2.878-.718 5.755-2.189 8.207a516.59 516.59 0 00-3.66-5.264c-1.078 1.701-2.189 3.368-3.267 5.068-2.092-1.373-4.183-2.779-6.242-4.152-.882 1.929-1.732 3.858-2.614 5.787-3.562-1.242-7.091-2.452-10.653-3.695-4.803-.13-9.607-.261-14.41-.425 1.405 1.995 2.843 4.022 4.248 6.017a81.9 81.9 0 00-19.182-3.891c2.026 1.667 4.085 3.367 6.111 5.035a217.718 217.718 0 00-65.485 1.766c-6.568 1.177-12.287-5.395-13.038-12.033a15.393 15.393 0 01-1.471 8.272c-6.47-2.583-11.992-7.553-15.227-13.732-.163 3.204-.294 6.376-.458 9.58a31.977 31.977 0 01-13.136-10.3c-.817 2.126-1.601 4.251-2.418 6.344-8.79-6.867-17.58-13.733-26.338-20.567-.718 8.828-.49 17.722.654 26.517-4.869-5.493-9.738-11.018-14.607-16.512-.424 4.741-.817 9.483-1.241 14.224-1.046-1.668-2.092-3.368-3.17-5.068-.654 1.7-1.34 3.433-1.993 5.133-5.85-12.294-8.464-26.092-7.516-39.661-.294 15.433-1.83 30.866-4.542 46.102-2.157-16.348-4.281-32.664-6.438-49.012-7.417 12.424-11.11 26.975-10.587 41.427a94.09 94.09 0 01-7.712-29.787 94.195 94.195 0 00-7.875 26.386c-2.81-5.755-5.588-11.509-8.398-17.264-2.255 6.867-4.477 13.7-6.731 20.567-1.994-4.12-4.02-8.24-6.013-12.393-2.157 4.807-4.346 9.613-6.503 14.42-3.66-1.962-6.502-5.363-7.842-9.286a27.433 27.433 0 00-3.105 11.771 73.005 73.005 0 01-8.594-17.101c-.686 5.33-1.339 10.627-2.026 15.956-2.45-1.994-4.901-3.989-7.352-5.951a11.101 11.101 0 00-2.222 5.821 7.744 7.744 0 01-6.241-.851c-1.144 1.799-2.255 3.564-3.399 5.363-7.712-2.943-16.436-3.106-24.279-.523a32.873 32.873 0 00-10.424-8.894c-.882 2.125-1.732 4.283-2.614 6.409-2.026-1.276-5.098-.131-5.784 2.158-13.953-3.237-28.69-2.943-42.48.85 26.044 42.081 65.68 73.961 113.52 86.511 26.763 7.03 54.669 7.85 82.314 8.64 124.009 3.5 248.019 6.99 372.028 10.46 92.999 2.62 183.547 5.43 276.154-3.66 92.672-9.26 183.649-34.27 257.009-91.554z" fill="#41AE5B"/><path fill-rule="evenodd" clip-rule="evenodd" d="M1598.28 877.617c-14.7 18.31-24.21 40.708-27.12 63.988 6.83-15.956 19.15-29.46 34.41-37.7-8.56 9.613-14.84 21.253-18.1 33.744a165.064 165.064 0 0128.59-15.008c-2.94 7.782-5.85 15.564-8.79 23.345 5.62-3.596 11.24-7.16 16.86-10.757.19 3.303.42 6.605.62 9.907-.36-5.722 16.99 4.905 16.76 4.872 7.19 1.864 16.05-2.06 24.38-1.994-1.99 5.1-5.23 9.711-9.38 13.275 14.71-1.995 28.89-7.553 41.08-16.055-2.45 7.194-7.88 13.308-14.74 16.545 11.63-1.667 22.91-5.755 32.91-11.869a50.761 50.761 0 01-11.21 17.101c7.02.588 14.18-.524 20.68-3.205-.03 2.224-.06 4.447-.06 6.67 8.23-3.171 16.92-5.133 25.71-5.754-1.04 2.452-2.09 4.904-3.13 7.357 7.28-1.047 14.54-2.06 21.79-3.107 7.75 5.166 19.18 3.859 25.56-2.975.32 4.806 8.43 6.278 10.42 1.864 7.48 3.923 16.47 4.937 24.64 2.779-1.93.981-3.83 1.962-5.75 2.943 13 1.471 26.3.065 38.72-4.153 1.21 1.341 2.45 2.649 3.66 3.989 1.63-2.943 3.23-5.885 4.87-8.828.62 2.518 1.27 5.035 1.89 7.553 1.51-5.591 3.04-11.182 4.55-16.773l2.94 13.83 4.8-15.989c1.24 6.507 2.52 13.047 3.76 19.553 2.84-4.087 5.65-8.174 8.49-12.294 2.98 9.057 11.18 16.218 20.56 17.918-28.95 11.215-58 22.461-88.3 29.201-21.07 4.71-42.57 7.16-64.04 9.45-62.42 6.63-125.55 14.19-188.32 11.87-26.76-1.05-53.53-2.13-80.29-3.18-31.07-1.24-62.48-2.48-92.54-10.46-15.23-4.05-30.06-9.78-45.65-12.19-22.22-3.471-44.93 0-67.38-1.41-28-1.734-55-10.987-82.71-15.27-20.32-3.139-40.94-3.629-61.46-4.087-30.52-.72-61.04-1.406-91.56-2.126 14.11-1.177 28.26-2.386 42.38-3.563l-14.61-14.42a141.147 141.147 0 0148.56 17.068c-2.35-5.624-4.74-11.248-7.09-16.839 4.35-.785 7.55 3.76 11.14 6.311 3.6 2.55 10.95.163 8.79-3.695 4.61 2.812 9.22 5.591 13.83 8.403.22-3.172 4.21-4.905 7.25-4.022s5.29 3.401 7.32 5.82c1.18-3.008 2.39-6.049 3.56-9.057 2.97 1.635 5.95 3.27 8.89 4.905 7.74-2.583 16.6-1.635 23.63 2.55.29-6.245.58-12.49.88-18.735a56.505 56.505 0 0118.75 8.991c7.49-1.34 15.56 1.374 20.69 6.965.62-5.362 1.24-10.725 1.83-16.087-.46 3.891 28.1 10.953 31.92 14.289-.68-1.537-.88-3.303-.49-4.97 2.03 1.177 4.06 2.354 6.08 3.531-.65-1.864-.82-3.957-.39-5.886 1.5-.784 3.33.066 4.67 1.112 1.34 1.046 2.68 2.322 4.35 2.485 1.7.164 3.53-1.766 2.55-3.139 2.32.458 4.38 2.027 5.39 4.153.75-1.243.95-2.747.55-4.12 1.18 1.111 2.32 2.223 3.5 3.335.07-1.439.13-2.845.2-4.283a17.762 17.762 0 018.26 5.787c.07-3.989.1-7.945.17-11.934 2.61 4.675 5.94 8.762 10.13 11.934.68-4.872 1.24-9.776 1.86-14.681 2.25 3.695 4.51 7.39 6.73 11.117l.69-8.109c-.17 2.125 16.66 5.755 18.2 8.828.62-1.994.85-4.119.69-6.212 1.73 2.583 4.24 4.676 7.12 5.853 1.08-1.406 3.14-1.929 4.74-1.177.52-1.733 1.04-3.499 1.6-5.232 1.63 1.733 3.27 3.466 4.87 5.232-.33-3.074 0-6.213.91-9.188 2.39 2.583 4.25 5.689 5.46 9.024-.16-1.21 1.6-1.929 2.68-1.34 1.08.588 1.53 1.863 1.96 3.04 1.11-1.242 2.19-2.517 3.3-3.76a45.6 45.6 0 0021.86-2.256c1.5.262 3.04.523 4.54.785.66.098 1.28.229 1.93.327a5.062 5.062 0 01.65-3.793c.76 1.341 2 2.387 3.47 2.877.06-1.929.13-3.858.19-5.787-.91.817.95 2.191 1.87 1.373.88-.817.62-2.289.16-3.4 3.79 2.19 6.89 5.493 8.89 9.416.16-2.354 2.42-5.558 3.98-3.792.14-1.439.27-2.878.4-4.349.94 1.471 1.92 3.041 3.49 3.858 1.57.785 3.86.425 4.55-1.177.75 1.635 2.35 2.877 4.15 3.172.03-1.308.09-2.583.13-3.891 1.43.294 2.9.621 4.34.915 2.49.818 5 1.635 7.49 2.453-1.25-1.701-1.54-4.022-.72-5.951 4.51 2.583 9.05 5.166 13.56 7.749-.88-2.812-1.8-5.624-2.68-8.436 4.7 4.251 15.13 11.117 19.7 6.016 3.4-3.727 3.96-21.253 2.13-25.732 3.26 8.011 6.56 16.021 9.83 24.032.23-8.207 1.54-16.381 3.96-24.228 3.52 6.637 7.02 13.275 10.55 19.879 3.5-7.193 6.99-14.386 10.49-21.612 6.24 4.316 11.73 9.711 16.21 15.858 1.86-3.139 3.59-6.278 5.78-9.221 13.07 13.177 18.53-13.144 22.16-20.959 6.47-13.994 15.68-24.98 25.32-36.98z" fill="#41AE5B"/><path fill-rule="evenodd" clip-rule="evenodd" d="M1920.9 1083.38c-24.67-16.94-62.38-29.72-91.23-37.6 8.33 9.61 13.43 21.97 14.31 34.66a335.58 335.58 0 00-75.48-22.53c3.3 10.26 6.6 20.5 9.9 30.77-26.37-15.18-56.04-24.56-86.34-27.37 3.76 10.17 7.55 20.34 11.31 30.5-25.39-6.11-51.43-9.58-77.54-10.39 2.38 7.19 4.77 14.42 7.15 21.61-98.09 10.99-195.37 29.26-290.76 54.67-26.82 7.13-54.86 22.69-80.41 33.55 217.92 18.11 440.61 8.37 659.06-1.38l.03-106.49z" fill="url(#paint4_linear_873_11981)"/><path fill-rule="evenodd" clip-rule="evenodd" d="M-.967 1026.68c21.73-7.26 39.996-17.52 58.95-30.406-1.635 11.806-3.301 23.606-4.935 35.446 36.925-9.94 75.419-14 113.585-11.97-12.548 9.32-25.096 18.67-37.611 27.99 16.241-1.05 32.481-2.06 48.722-3.11 3.79-.23 8.071-.32 10.881 2.26 2.81 2.58 1.732 8.7-2.059 8.57 15.587-.53 31.142-1.02 46.729-1.51-.033 5.92-4.575 11.51-10.359 12.75 28.723 3.24 58.296-1.57 84.536-13.66-5.654 8.17 7.417 16.21 17.22 17.68 29.214 4.39 58.394 8.77 87.608 13.15-6.438 3.86-12.842 7.72-19.247 11.57 14.247-2.15 28.331 3.7 41.761 8.93 65.06 25.31 134.695 38.71 204.493 39.37 10.914.1 25.75 12.13 34.115 19.12-148.354 1.44-296.708 3.67-445.062 3.67H-.51l-.457-139.85z" fill="url(#paint5_linear_873_11981)"/><path fill-rule="evenodd" clip-rule="evenodd" d="M527.388 255.002H-.935l.033-166.33c14.541-6.572 34.05-9.874 53.395-9.874 17.122 0 34.114 2.583 47.414 7.815 28.331 11.117 48.003 33.776 50.094 57.71 6.405-1.373 12.94-2.027 19.443-2.027 40.552 0 80.712 25.013 83.849 55.944 17.711-2.877 35.814-5.787 53.787-5.787 6.012 0 12.025.327 18.005 1.079 23.854 3.008 47.414 14.615 53.59 32.141a216.57 216.57 0 0128.266-1.831c42.905 0 84.535 12.294 120.447 31.16z" fill="#FFFDF7"/><path fill-rule="evenodd" clip-rule="evenodd" d="M1166.81 594.56c2.62 0 2.62-4.055 0-4.055-2.61.033-2.61 4.055 0 4.055z" fill="#F7B599"/><path fill-rule="evenodd" clip-rule="evenodd" d="M1602.86 583.345s-17.36.882-19.02 19.945c-1.24 14.256 1.5 20.632-9.32 32.043 0 0 31.7 18.702 77.16 4.937 0 0-8.53-14.746-8.3-28.773.22-13.995-3.76-20.174-11.08-25.471-7.29-5.264-22.12-8.403-29.44-2.681z" fill="url(#paint6_linear_873_11981)"/><path fill-rule="evenodd" clip-rule="evenodd" d="M1686.64 1023.31l13.3 6.58c1.4.68 2.25 2.29 1.83 3.79-.36 1.18-1.47 2.29-4.44 2.35-6.57.13-35.69-4.41-35.69-4.41v3.3h-13.53s-.91-17.23 3.21-19.49l35.32 7.88z" fill="url(#paint7_linear_873_11981)"/><path fill-rule="evenodd" clip-rule="evenodd" d="M1667.3 1009.35l-3.4-49.173-21.41-2.027 8.83 57.28s12.71 5.92 22.87 9.85c10.16 3.92 12.45-1.97 12.45-1.97l-19.34-13.96z" fill="url(#paint8_linear_873_11981)"/><path fill-rule="evenodd" clip-rule="evenodd" d="M1666.28 994.607l-17.58 3.923-.59-3.923h18.17z" fill="url(#paint9_linear_873_11981)"/><path fill-rule="evenodd" clip-rule="evenodd" d="M1534.33 1023.31l-13.3 6.58c-1.4.68-2.25 2.29-1.83 3.79.36 1.18 1.47 2.09 4.45 2.16 6.56.13 35.68-4.22 35.68-4.22v3.3h13.46s1.02-17.23-3.1-19.49l-35.36 7.88z" fill="url(#paint10_linear_873_11981)"/><path fill-rule="evenodd" clip-rule="evenodd" d="M1557.08 960.144l-3.4 49.176-19.35 13.96s2.29 5.89 12.45 1.96c10.16-3.92 22.88-9.84 22.88-9.84l8.82-57.283-21.4 2.027z" fill="url(#paint11_linear_873_11981)"/><path fill-rule="evenodd" clip-rule="evenodd" d="M1573.05 993.462l-18.26.131-.33 4.48 18.59-4.611z" fill="url(#paint12_linear_873_11981)"/><path fill-rule="evenodd" clip-rule="evenodd" d="M1629.29 730.612s18.37 5.95 31.93 68.238c13.56 62.288 18.36 149.491 20.75 195.757h-49.12l-25.71-192.716-12.16 191.44-49.31.327s2.84-242.055 41.27-263.046h42.35z" fill="url(#paint13_linear_873_11981)"/><path d="M1594.24 796.491l-.37.978 12.95 4.925.37-.978-12.95-4.925zm86.55 175.947h-50.13v1.046h50.13v-1.046zm-85.06 0h-49.34v1.046h49.34v-1.046z" fill="#030507"/><path fill-rule="evenodd" clip-rule="evenodd" d="M1567.6 667.899c-7.98 12.392-32.25 31.683-69.74 44.697l-3.98 23.182s63.78-15.989 88.98-42.147l6.17-38.549c-.03-.033-13.46.425-21.43 12.817z" fill="url(#paint14_linear_873_11981)"/><path fill-rule="evenodd" clip-rule="evenodd" d="M1586.91 730.612c-.72.98 42.35 0 42.35 0v-6.344l-42.64.131c.03-.033 1.04 5.232.29 6.213z" fill="#F5ACA3"/><path fill-rule="evenodd" clip-rule="evenodd" d="M1708.76 728.094c-.03-2.289-.62-4.61-1.93-6.768l-31.1-38.452c-10.92-20.632-27.68-20.468-27.68-20.468l-14.61 2.419-5.03 23.313 12.12 12.49a72.801 72.801 0 004.32-7.945l33.1 33.809-38.76 27.367-8.79-2.289 10.59 20.665 10.39-6.441-.19-.229 48.81-24.687c5.49-1.831 8.99-7.127 8.76-12.784z" fill="url(#paint15_linear_873_11981)"/><path d="M1628.35 746.442l-.93.476 16.14 31.584.93-.476-16.14-31.584z" fill="#030507"/><path fill-rule="evenodd" clip-rule="evenodd" d="M1633.05 658.417l15 3.989s-12.65 14.387-7.48 38.223l-11.25 23.607-42.64.131-9.12-28.185c-2.51-7.749-4.44-15.956-.62-23.149l9.74-17.886 9.35-.392 37.02 3.662z" fill="#fff"/><path fill-rule="evenodd" clip-rule="evenodd" d="M1623.48 655.343l-1.31-24.784-18.17 7.684.13 14.942-10.33 1.406s5.56 17.951 40.95 4.284l-11.27-3.532z" fill="url(#paint16_linear_873_11981)"/><path fill-rule="evenodd" clip-rule="evenodd" d="M1597.04 617.807c.06 4.447-3.5 8.109-7.94 8.207-4.45.065-8.1-3.499-8.2-7.945-.07-4.447 3.49-8.109 7.94-8.207a8.076 8.076 0 018.2 7.945z" fill="url(#paint17_linear_873_11981)"/><path fill-rule="evenodd" clip-rule="evenodd" d="M1604.07 648.379l17.09-14.322-17.23 2.583.14 11.739z" fill="url(#paint18_linear_873_11981)"/><path fill-rule="evenodd" clip-rule="evenodd" d="M1604.52 641.349c-10.29-.523-18.43-9.94-18.3-18.376l.43-18.277c.19-10.561 8.72-19.095 19.28-19.226 10.81-.163 21.6 8.436 21.76 19.259l-.55 15.988c-.43 12.36-10.27 20.436-22.62 20.632z" fill="url(#paint19_linear_873_11981)"/><path fill-rule="evenodd" clip-rule="evenodd" d="M1598.97 624.412h-.07l-1.4-.131a1.48 1.48 0 01-1.11-.621c-.27-.36-.4-.818-.3-1.243l.46-2.55c.06-.294.33-.49.62-.458a.58.58 0 01.46.622l-.46 2.55c-.03.131 0 .261.1.392.1.098.19.196.36.196l1.4.131c.3.033.53.295.49.589-.06.327-.29.523-.55.523z" fill="url(#paint20_linear_873_11981)"/><path fill-rule="evenodd" clip-rule="evenodd" d="M1608.08 607.802s-4.37-.589-4.51 1.177c0 0-.06 1.21 3.76 1.668 3.83.457 5.98.425 6.37-.72.43-1.111-3.56-1.994-5.62-2.125z" fill="url(#paint21_linear_873_11981)"/><path fill-rule="evenodd" clip-rule="evenodd" d="M1590.8 607.508s3.66-.164 3.85 1.504c0 0 .1 1.144-3.07 1.242-3.2.098-4.21-.36-4.44-1.308-.3-1.046 1.96-1.504 3.66-1.438z" fill="url(#paint22_linear_873_11981)"/><path fill-rule="evenodd" clip-rule="evenodd" d="M1592.89 615.486a1.835 1.835 0 01-1.9 1.798c-1.01-.033-1.83-.883-1.79-1.896.03-1.014.88-1.831 1.89-1.799 1.02.033 1.83.883 1.8 1.897z" fill="url(#paint23_linear_873_11981)"/><path fill-rule="evenodd" clip-rule="evenodd" d="M1609.1 615.845c-.04 1.014-.88 1.831-1.9 1.799-1.01-.033-1.83-.883-1.8-1.897.04-1.013.89-1.831 1.9-1.798 1.01 0 1.8.85 1.8 1.896z" fill="url(#paint24_linear_873_11981)"/><path fill-rule="evenodd" clip-rule="evenodd" d="M1594 627.159l10.98-.72s-1.86 2.027-6.89 2.027c-3.27 0-4.09-1.307-4.09-1.307z" fill="#EA536B"/><path fill-rule="evenodd" clip-rule="evenodd" d="M1628.87 592.729c-8.66-8.338-15.36-9.319-15.36-9.319l-12.61.261s-1.93.818-3.8 2.289c-.55.164-1.14.36-1.86.622-7.77 2.779-10.78 12.915-8.59 18.114 0 0 5.16-3.597 8.98-8.305 5.07 7.226 19.12 15.759 33.24 18.31 0 0 8.66-13.635 0-21.972z" fill="url(#paint25_linear_873_11981)"/><path fill-rule="evenodd" clip-rule="evenodd" d="M1636.68 619.344a8.12 8.12 0 01-8.01 8.24 8.103 8.103 0 01-8.23-8.011c-.07-4.48 3.53-8.174 8-8.24a8.118 8.118 0 018.24 8.011z" fill="url(#paint26_linear_873_11981)"/><path fill-rule="evenodd" clip-rule="evenodd" d="M1625.76 622.45a.549.549 0 01-.55-.556c0-.13-.04-2.942 1.86-4.577 1.08-.948 2.55-1.275 4.35-1.014.29.033.52.327.45.621-.03.295-.32.491-.62.458-1.47-.229-2.61.033-3.46.752-1.5 1.308-1.47 3.728-1.47 3.728 0 .359-.23.588-.56.588z" fill="url(#paint27_linear_873_11981)"/><path fill-rule="evenodd" clip-rule="evenodd" d="M1218.61 1023.31l13.13 7.23c1.41.75 2.22 2.52 1.8 4.19-.33 1.3-1.47 2.32-4.38 2.38-6.5.13-35.19-4.64-35.19-4.64v3.37l-13.33-1.67s-.92-17 3.13-19.49l34.84 8.63z" fill="url(#paint28_linear_873_11981)"/><path fill-rule="evenodd" clip-rule="evenodd" d="M1201.19 1009.09v-55.518l-17.42 1.406 1.83 52.122-1.83 7.52s12.55 6.5 22.58 10.85c10.03 4.32 12.29-2.16 12.29-2.16l-17.45-14.22z" fill="url(#paint29_linear_873_11981)"/><path fill-rule="evenodd" clip-rule="evenodd" d="M1136.88 1023.31l-13.13 7.23c-1.41.75-2.23 2.52-1.8 4.19.32 1.3 1.47 2.32 4.38 2.38 6.5.13 35.19-4.64 35.19-4.64v3.37l13.33-1.67s.95-17-3.14-19.49l-34.83 8.63z" fill="url(#paint30_linear_873_11981)"/><path fill-rule="evenodd" clip-rule="evenodd" d="M1169.92 1007.13l-1.34-52.119-17.42-1.406 2.88 55.745-17.16 14s2.26 6.5 12.29 2.16c10.03-4.32 22.58-10.86 22.58-10.86l-1.83-7.52z" fill="url(#paint31_linear_873_11981)"/><path fill-rule="evenodd" clip-rule="evenodd" d="M1198.09 742.088s21.01 13.308 16.86 74.059c-4.15 60.751-10.56 177.74-10.56 177.74h-21.43l-7.26-200.497-3.53-.164.1 200.629h-21.44l-16.86-182.253s-4.93-40.544 14.9-69.514c-2.77 1.864 25.82-13.504 49.22 0z" fill="url(#paint32_linear_873_11981)"/><path fill-rule="evenodd" clip-rule="evenodd" d="M1185.14 792.703l-21.53.981c-.36 0-.65.327-.65.687.03.359.32.654.68.654l21.54-.981a.704.704 0 00.65-.687c0-.392-.29-.654-.69-.654z" fill="#000001"/><path fill-rule="evenodd" clip-rule="evenodd" d="M1245.99 712.334s-11.63-18.703-20.55-38.484c-4.74-10.529-10.85-14.223-15.49-15.368l-17.32-4.087-41.83-1.21-15.45 4.12c-4.81.556-12.06 3.597-17.49 15.695-8.92 19.781-17.94 42.408-17.94 42.408l16.54 4.446 21.47-31.879a13685.27 13685.27 0 0110.98 47.476c24.21-4.153 49.18 0 49.18 0 2.18-11.836 4.96-29.656 7.28-45.155l21.47 30.441 19.15-8.403z" fill="url(#paint33_linear_873_11981)" stroke="#D9DADA" stroke-width=".567" stroke-miterlimit="22.926"/><path fill-rule="evenodd" clip-rule="evenodd" d="M1292.62 682.318l5.56 8.207-54.35 36.457c-6.17 3.989-14.44 1.177-16.92-5.722-2.06-5.754.75-12.097 6.37-14.452l59.34-24.49z" fill="url(#paint34_linear_873_11981)"/><path fill-rule="evenodd" clip-rule="evenodd" d="M1198.09 735.451v6.637s-24.58-2.779-49.18 0v-6.637l24.63-7.161 24.55 7.161z" fill="#180302"/><path fill-rule="evenodd" clip-rule="evenodd" d="M1170.86 663.354c-17.87 0-20.06-10.169-20.06-10.169l13.53-5.101 1.67-17.165c2.32 1.569 14.77 10.332 14.77 10.332l-.62-9.384 1.17 17.329 9.05 4.153 2.26 1.046s-.33 4.904-9.15 7.455c-3.04.883-7.13 1.471-12.52 1.471-.03.033-.06.033-.1.033zm-4.83-32.697l.23-2.223 12.41.261-12.64 1.962z" fill="url(#paint35_linear_873_11981)"/><path fill-rule="evenodd" clip-rule="evenodd" d="M1138.94 688.433l-1.63-8.698a.679.679 0 00-.79-.523.665.665 0 00-.52.785l1.63 8.697c.07.36.43.589.79.523.36-.065.58-.425.52-.784z" fill="#000001"/><path fill-rule="evenodd" clip-rule="evenodd" d="M1115.41 713.184l-26.6-58.266c-.03-.752-.13-1.504-.29-2.256l-.56-2.518c-.75-3.367-2.25-6.539-4.44-9.22l-3.86-4.741a2.34 2.34 0 00-3.56-.066c-.82.916-.98 2.224-.42 3.336l2.91 5.787-18.63-12.261c-.88-.622-2.12-.327-2.65.653l-.32.654c-.4.752-.2 1.701.45 2.257l12.22 8.697-15.42-8.044c-.95-.555-2.16-.196-2.58.818l-.23.49c-.36.85-.06 1.831.72 2.289l13.23 7.88-11.37-3.76c-1.08-.392-2.25.327-2.42 1.471l-.03.229c-.1.785.33 1.537 1.05 1.897l11.53 4.773-6.5-1.079a1.825 1.825 0 00-2.35 1.995c.09.621.49 1.177 1.07 1.406l24.61 9.809 12.91 55.389c1.8 7.127 9.74 10.724 16.27 7.389 5.52-2.877 7.81-9.449 5.26-15.008z" fill="url(#paint36_linear_873_11981)"/><path fill-rule="evenodd" clip-rule="evenodd" d="M1078.06 645.011c-.03.065-.62 1.504-.62 3.76 0 1.864.43 4.283 1.93 6.834.16.294.55.392.82.229.29-.164.39-.556.23-.818-1.38-2.354-1.77-4.545-1.77-6.212 0-1.014.13-1.864.26-2.42.07-.294.13-.523.2-.654l.06-.163v-.033c.13-.294-.03-.654-.32-.785-.33-.196-.66-.032-.79.262z" fill="#EB967A"/><path fill-rule="evenodd" clip-rule="evenodd" d="M1194.65 605.546s4.09-3.172 7.09.588c4.55 5.755-3.39 16.153-10.32 10.79l3.23-11.378z" fill="url(#paint37_linear_873_11981)"/><path fill-rule="evenodd" clip-rule="evenodd" d="M1194.03 613.851l-.16-.033c-.16-.098-.26-.294-.16-.49 2.58-5.036 5.09-4.316 5.19-4.284.2.066.3.262.23.458a.353.353 0 01-.46.229c-.03 0-2.09-.49-4.34 3.924-.04.13-.17.196-.3.196z" fill="#000001"/><path fill-rule="evenodd" clip-rule="evenodd" d="M1193.67 631.474c-2.68 0-5.58-2.746-5.98-8.01-.03-.393.27-.752.66-.752.36-.033.75.261.75.654.33 4.348 2.58 6.67 4.54 6.67 2.45 0 4.41-2.812 4.41-6.245 0-3.433-1.99-6.245-4.41-6.245a.728.728 0 01-.72-.72c0-.392.33-.719.72-.719 3.24 0 5.85 3.433 5.85 7.684 0 4.25-2.61 7.683-5.82 7.683z" fill="url(#paint38_linear_873_11981)"/><path fill-rule="evenodd" clip-rule="evenodd" d="M1150.74 605.546s-4.09-3.172-7.09.588c-4.55 5.755 3.39 16.153 10.32 10.79l-3.23-11.378z" fill="url(#paint39_linear_873_11981)"/><path fill-rule="evenodd" clip-rule="evenodd" d="M1151.36 613.851a.371.371 0 01-.33-.196c-2.29-4.447-4.31-3.924-4.35-3.924-.16.065-.39-.065-.45-.229a.348.348 0 01.23-.458c.09-.032 2.61-.752 5.19 4.284.1.163.03.392-.16.49l-.13.033z" fill="url(#paint40_linear_873_11981)"/><path fill-rule="evenodd" clip-rule="evenodd" d="M1151.75 631.474c-3.24 0-5.85-3.433-5.85-7.683 0-4.251 2.61-7.684 5.85-7.684.39 0 .72.327.72.719 0 .393-.33.72-.72.72-2.42 0-4.41 2.812-4.41 6.245 0 3.433 1.99 6.245 4.41 6.245 1.89 0 4.74-3.008 4.74-7.128 0-.392.32-.719.72-.719.39 0 .72.327.72.719-.04 4.741-3.4 8.566-6.18 8.566z" fill="url(#paint41_linear_873_11981)"/><path fill-rule="evenodd" clip-rule="evenodd" d="M1146.36 594.658c0 14.125 11.73 25.569 26.2 25.569 14.48 0 26.21-11.444 26.21-25.569 0-14.125-11.73-25.569-26.21-25.569-14.47.032-26.2 11.476-26.2 25.569z" fill="url(#paint42_linear_873_11981)"/><path fill-rule="evenodd" clip-rule="evenodd" d="M1180.15 631.899l-.23-3.204-1.28-.033 1.24-.196.27 3.433zm-14.15-.98c-.2-.131-.3-.197-.36-.229l.39-.066-.03.295z" fill="#fff"/><path fill-rule="evenodd" clip-rule="evenodd" d="M1180.77 641.284s-12.42-8.796-14.77-10.333l.03-.294 12.64-1.962 1.28.033.23 3.204.59 9.352z" fill="url(#paint43_linear_873_11981)"/><path fill-rule="evenodd" clip-rule="evenodd" d="M1194.69 592.761s2.74 39.465-21.24 39.465c-25.95 0-23.24-39.465-23.24-39.465s.13-17.754 22.42-17.754c20.46 0 22.06 17.754 22.06 17.754z" fill="url(#paint44_linear_873_11981)"/><path fill-rule="evenodd" clip-rule="evenodd" d="M1180.44 606.592c0 1.046.85 1.896 1.89 1.896 1.05 0 1.9-.85 1.9-1.896 0-1.046-.85-1.896-1.9-1.896-1.04 0-1.89.85-1.89 1.896z" fill="url(#paint45_linear_873_11981)"/><path fill-rule="evenodd" clip-rule="evenodd" d="M1161.52 606.592c0 1.046.85 1.896 1.89 1.896 1.05 0 1.9-.85 1.9-1.896 0-1.046-.85-1.896-1.9-1.896-1.04 0-1.89.85-1.89 1.896z" fill="url(#paint46_linear_873_11981)"/><path fill-rule="evenodd" clip-rule="evenodd" d="M1179.66 618.134h-11.96s.81 3.041 5.91 3.041 6.05-3.041 6.05-3.041z" fill="#E3000F"/><path fill-rule="evenodd" clip-rule="evenodd" d="M1174.36 611.333v2.714l-1.89.033c-.2 0-.36.163-.33.36 0 .196.16.359.36.359l2.25-.033c.2 0 .33-.163.33-.359v-3.074a.36.36 0 00-.36-.359c-.2.032-.36.163-.36.359z" fill="#000001"/><path fill-rule="evenodd" clip-rule="evenodd" d="M1163.58 595.9s4.87-.948 5.1 1.668c0 0 .13 1.765-4.12 2.485-4.25.719-7.22.915-7.71-.72-.56-1.602 4.44-3.204 6.73-3.433z" fill="url(#paint47_linear_873_11981)"/><path fill-rule="evenodd" clip-rule="evenodd" d="M1185.83 596.162s4.94.229 4.54 2.812c0 0-.29 1.765-4.6 1.438-4.28-.294-7.36-.784-7.36-2.681.04-2.19 5.17-1.896 7.42-1.569z" fill="url(#paint48_linear_873_11981)"/><path fill-rule="evenodd" clip-rule="evenodd" d="M1196.42 593.513c-.49-15.236-8.99-18.244-14.12-18.669v-.066s-1.83-4.512-16.99-1.733c-15.19 2.779-17.16 19.716-17.16 19.716 19.64.654 28.14-7.062 31.73-12.588 4.42 10.071 16.54 13.34 16.54 13.34z" fill="url(#paint49_linear_873_11981)"/><path fill-rule="evenodd" clip-rule="evenodd" d="M1452.84 1007.65h-22.13l-36.63 19.62 62.97-.75-4.21-18.87z" fill="url(#paint50_linear_873_11981)"/><path fill-rule="evenodd" clip-rule="evenodd" d="M1441.59 1031.03c2.1 0 3.76 1.73 3.8 3.89l11.86-.03-.23-8.4-62.97.75.23 8.3 43.49-.52c.03-2.22 1.73-3.99 3.82-3.99z" fill="#180302"/><path fill-rule="evenodd" clip-rule="evenodd" d="M1422.64 1018.21l-.36-.03-7.25-1.99c-.72-.2-1.15-.95-.95-1.64.2-.72.95-1.14 1.63-.95l7.26 2c.72.19 1.14.95.95 1.67-.13.55-.69.94-1.28.94zm7.09-3.66l-.36-.03-7.25-2c-.72-.19-1.14-.94-.95-1.63.2-.72.95-1.14 1.67-.95l7.25 2c.72.19 1.15.94.95 1.66-.16.56-.72.95-1.31.95z" fill="#fff"/><path d="M1452.87 976.427h-22.58v31.223h22.58v-31.223z" fill="url(#paint51_linear_873_11981)"/><path fill-rule="evenodd" clip-rule="evenodd" d="M1492.73 1007.65h22.16l36.6 19.62-62.97-.75 4.21-18.87z" fill="url(#paint52_linear_873_11981)"/><path fill-rule="evenodd" clip-rule="evenodd" d="M1503.98 1031.03c-2.1 0-3.76 1.73-3.8 3.89h-11.82l.19-8.43 62.97.75-.23 8.3-43.49-.52c0-2.22-1.73-3.99-3.82-3.99z" fill="#180302"/><path fill-rule="evenodd" clip-rule="evenodd" d="M1524.07 1019.33c-.49 0-.95-.27-1.21-.76-.32-.65-.06-1.47.59-1.79l6.11-3.11c.65-.33 1.47-.07 1.8.59.33.65.06 1.47-.59 1.8l-6.11 3.1c-.2.13-.39.17-.59.17zm-5.98-4.78c-.52 0-1.04-.33-1.24-.85-.26-.68.07-1.47.75-1.73l5-2c.69-.26 1.47.07 1.73.76.26.68-.06 1.47-.75 1.73l-5 1.99c-.16.07-.32.1-.49.1z" fill="#fff"/><path fill-rule="evenodd" clip-rule="evenodd" d="M1512.9 976.427h-22.58l2.41 31.223h22.58l-2.41-31.223z" fill="url(#paint53_linear_873_11981)"/><path fill-rule="evenodd" clip-rule="evenodd" d="M1504.92 740.715c1.7 18.114 15.26 257.913 15.26 257.913h-35.22l-15.46-213.02-6.34.131-4.12 212.889h-33.65s-1.93-222.502.13-257.357l79.4-.556z" fill="#00A2D4"/><path fill-rule="evenodd" clip-rule="evenodd" d="M1454.27 786.425h25.82c.36 0 .65-.294.65-.654a.653.653 0 00-.65-.654h-25.82c-.36 0-.65.295-.65.654 0 .393.29.654.65.654z" fill="#000001"/><path fill-rule="evenodd" clip-rule="evenodd" d="M1522.9 764.715l10.32 26.353 7.97-.85-6.04-34.103-12.25 8.6z" fill="#F7B599"/><path fill-rule="evenodd" clip-rule="evenodd" d="M1532.83 786.916s-4.09 7.389-.75 16.25l-1.54 8.959c-.23 1.406.52 2.779 1.77 3.27 1.37.523 2.81-.196 3.3-1.635l1.76-5.133.33 1.896c.52 3.008.1 6.114-1.21 8.763l-3.73 7.585c-.42.851-.36 1.93.13 2.747.98 1.635 3.14 1.7 4.15.163l6.08-9.253c2.36-3.596 3.14-8.141 2.13-12.49l-5.4-23.346-7.02 2.224z" fill="url(#paint54_linear_873_11981)"/><path fill-rule="evenodd" clip-rule="evenodd" d="M1543.94 786.229s-13.37-97.535-26.27-133.927c-6.44-18.179-18.53-21.22-18.53-21.22l-7.55-3.368-51.47-.065-10.58 4.447c-.56.229-1.11.523-1.6.817-33.63 17.395-61.01 48.392-61.01 48.392l18.43 22.201 37.05-23.542v75.399h86.83l-.04-9.744 11.64 44.959 23.1-4.349z" fill="url(#paint55_linear_873_11981)" stroke="#D9DADA" stroke-width=".567" stroke-miterlimit="22.926"/><path fill-rule="evenodd" clip-rule="evenodd" d="M1477.87 621.796l-1.93-23.672s-4.28 3.008-8.17 3.76c-3.89.752-7.68-1.504-7.71-1.537l-4.54-2.616-1.83 24.36-13.6 5.591c25.65 23.378 51.47.065 51.47.065l-13.69-5.951z" fill="url(#paint56_linear_873_11981)"/><path fill-rule="evenodd" clip-rule="evenodd" d="M1439.11 628.532c.07.065 2.39 2.812 6.86 5.558 4.48 2.747 11.15 5.493 19.81 5.493 8.62 0 15.32-2.713 19.83-5.46 4.51-2.714 6.86-5.46 6.93-5.526l-1.96-1.7v.033c-.2.229-2.52 2.779-6.7 5.231s-10.26 4.839-18.1 4.839c-8.08 0-14.25-2.55-18.43-5.1a31.139 31.139 0 01-4.71-3.499c-.52-.458-.91-.85-1.18-1.144-.13-.131-.22-.229-.29-.295l-.07-.065-1.99 1.635z" fill="#fff"/><path fill-rule="evenodd" clip-rule="evenodd" d="M1509.82 742.612l-.26-74.746a.653.653 0 00-.65-.654c-.36 0-.65.295-.65.654l.22 74.746c0 .359.3.653.66.653.39-.032.68-.326.68-.653zm-86.79-62.583v-12.555c0-.36-.29-.654-.65-.654-.36 0-.65.294-.65.654v12.555c0 .36.29.654.65.654.36-.032.65-.294.65-.654z" fill="#000001"/><path fill-rule="evenodd" clip-rule="evenodd" d="M1478.55 540.185c-17.28-8.828-27.05 4.381-27.05 4.381-20.1 5.297-8.14 26.223-8.14 26.223l5.65-7.357 38.27 7.259s10.26-20.828-8.73-30.506z" fill="#B65A00"/><path fill-rule="evenodd" clip-rule="evenodd" d="M1452.41 580.467c.13 4.185-3.17 7.684-7.35 7.782-4.18.131-7.68-3.171-7.78-7.357-.13-4.185 3.17-7.683 7.35-7.782 4.19-.13 7.65 3.172 7.78 7.357z" fill="url(#paint57_linear_873_11981)"/><path fill-rule="evenodd" clip-rule="evenodd" d="M1440.75 580.009c.03-.032.35-.13.81-.13.49 0 1.15.13 1.9.654.78.523 1.66 1.438 2.55 3.073.13.229.39.294.62.196.23-.13.29-.392.19-.621-.94-1.733-1.92-2.779-2.84-3.4-.91-.622-1.76-.818-2.42-.785-.72 0-1.17.229-1.21.229-.23.098-.32.392-.23.621.1.196.4.294.63.163z" fill="#DB7267"/><path fill-rule="evenodd" clip-rule="evenodd" d="M1480.06 580.663c0 4.186 3.39 7.586 7.58 7.586 4.18 0 7.58-3.4 7.58-7.586 0-4.185-3.4-7.585-7.58-7.585-4.22 0-7.58 3.4-7.58 7.585z" fill="url(#paint58_linear_873_11981)"/><path fill-rule="evenodd" clip-rule="evenodd" d="M1492.08 579.061c-.03-.032-.46-.196-1.11-.196-.65 0-1.5.164-2.42.818-.91.654-1.89 1.733-2.81 3.531-.13.229-.03.49.2.621a.44.44 0 00.62-.196c.88-1.7 1.76-2.648 2.51-3.204.79-.523 1.44-.654 1.9-.654.26 0 .46.032.59.065l.13.033h.03c.23.098.52 0 .62-.229a.498.498 0 00-.26-.589z" fill="url(#paint59_linear_873_11981)"/><path fill-rule="evenodd" clip-rule="evenodd" d="M1455.78 597.927l20.16.229 1.27 15.335-21.43-15.564z" fill="url(#paint60_linear_873_11981)"/><path fill-rule="evenodd" clip-rule="evenodd" d="M1486.66 567.486c.03 8.567-1.15 15.957-2.32 21.221-1.18 5.133-5.69 8.73-10.43 11.673l-.85.523c-5 3.073-9.15 3.171-14.28.261-5.16-2.942-9.96-6.833-11.11-12.359-2.06-10.005-2.35-21.122-2.35-21.122s-2.91-23.15 19.38-22.856c22.32.327 21.96 22.659 21.96 22.659z" fill="url(#paint61_linear_873_11981)"/><path fill-rule="evenodd" clip-rule="evenodd" d="M1458.19 574.288c0 1.013-.81 1.798-1.79 1.798s-1.8-.818-1.8-1.798c0-.981.82-1.799 1.8-1.799.98-.032 1.79.785 1.79 1.799z" fill="url(#paint62_linear_873_11981)"/><path fill-rule="evenodd" clip-rule="evenodd" d="M1475.87 574.288c0 1.013-.81 1.798-1.79 1.798s-1.8-.818-1.8-1.798c0-.981.82-1.799 1.8-1.799 1.01-.032 1.79.785 1.79 1.799z" fill="url(#paint63_linear_873_11981)"/><path fill-rule="evenodd" clip-rule="evenodd" d="M1463.13 578.996v2.877c0 .131.06.229.13.327.1.098.2.131.33.131h2.35a.45.45 0 00.46-.458.45.45 0 00-.46-.458h-1.9v-2.419a.442.442 0 00-.45-.458c-.27 0-.46.196-.46.458z" fill="url(#paint64_linear_873_11981)"/><path fill-rule="evenodd" clip-rule="evenodd" d="M1449.67 566.637l11.79-1.079s-1.04-3.041-5.81-2.551c-4.91.523-5.98 3.63-5.98 3.63z" fill="url(#paint65_linear_873_11981)"/><path fill-rule="evenodd" clip-rule="evenodd" d="M1480.06 566.637l-11.8-1.079s1.04-3.041 5.82-2.551c4.86.523 5.98 3.63 5.98 3.63z" fill="url(#paint66_linear_873_11981)"/><path fill-rule="evenodd" clip-rule="evenodd" d="M1459.57 586.026h11.63s-.56 3.564-5.98 3.564-5.65-3.564-5.65-3.564z" fill="#fff"/><path fill-rule="evenodd" clip-rule="evenodd" d="M1484.3 547.639l.2 4.251c-2.78-4.545-8.46-10.561-19.12-10.365-15.45.294-12.54 4.97-11.86 5.853-12.91 3.4-13.17 15.335-13.17 15.335l4.74 14.059s3.86-14.353 3.63-21.154c-.23-6.573 6.21-8.534 6.63-8.665 1.96-.36 5.3-.131 8.63 4.087 3.99 5.035 13.92 10.136 20.85 6.964l1.01 20.436c8.14-21.188-1.54-30.801-1.54-30.801z" fill="url(#paint67_linear_873_11981)"/><path fill-rule="evenodd" clip-rule="evenodd" d="M1206.03 690.362l.94-9.352a.655.655 0 00-.58-.719.658.658 0 00-.72.589l-.95 9.351c-.03.36.23.687.59.752.36 0 .68-.262.72-.621z" fill="#000"/><path fill-rule="evenodd" clip-rule="evenodd" d="M1440.42 663.485h14.25v4.152h-9.38v2.682h8.49v3.891h-8.49v2.811h9.51v4.153h-14.38v-17.689zm16.27 8.828c0-5.166 3.99-9.221 9.35-9.221 3.62 0 5.88 1.57 7.45 3.76l-3.6 2.78c-1.01-1.276-2.19-2.06-3.89-2.06-2.48 0-4.21 2.092-4.21 4.741 0 2.648 1.73 4.741 4.21 4.741 1.87 0 2.95-.85 3.99-2.158l3.69 2.648c-1.66 2.289-3.92 3.989-7.84 3.989-5.06 0-9.15-3.858-9.15-9.22zm32.03 0c0-2.551-1.87-4.774-4.55-4.774-2.68 0-4.47 2.191-4.47 4.774 0 2.55 1.83 4.774 4.54 4.774 2.68.032 4.48-2.158 4.48-4.774zm-14.06 0c0-5.101 4.09-9.221 9.58-9.221 5.46 0 9.51 4.087 9.51 9.221 0 5.101-4.09 9.22-9.58 9.22-5.45 0-9.51-4.054-9.51-9.22z" fill="#97C21A"/><path fill-rule="evenodd" clip-rule="evenodd" d="M1440.42 684.542h6.7v2.027h-4.38v1.406h3.95v1.929h-3.95v3.008h-2.32v-8.37zm11.6 4.021c.78 0 1.24-.392 1.24-1.013 0-.654-.49-.981-1.24-.981h-1.5v1.994h1.5zm-3.86-4.021h3.96c1.27 0 2.15.326 2.71.882.49.491.75 1.145.75 1.995 0 1.275-.69 2.125-1.73 2.583l1.99 2.91h-2.68l-1.7-2.55h-1.01v2.55h-2.32v-8.37h.03z" fill="#00A2D4"/><path d="M1459.14 684.542h-2.32v8.37h2.32v-8.37z" fill="#00A2D4"/><path fill-rule="evenodd" clip-rule="evenodd" d="M1460.68 684.542h6.73v1.961h-4.44v1.276h4.01v1.831h-4.01v1.307h4.5v1.995h-6.79v-8.37zm7.97 0h2.16l3.43 4.414v-4.414h2.32v8.37h-2.03l-3.59-4.61v4.61h-2.29v-8.37zm12.65 6.31c1.37 0 2.32-.752 2.32-2.125 0-1.341-.92-2.126-2.32-2.126h-.95v4.284h.95v-.033zm-3.27-6.31h3.23c2.98 0 4.71 1.732 4.71 4.152s-1.76 4.218-4.77 4.218h-3.17v-8.37zm8.4 7.128l1.3-1.537c.82.654 1.74 1.013 2.72 1.013.62 0 .94-.228.94-.588s-.26-.523-1.4-.785c-1.8-.392-3.17-.915-3.17-2.648 0-1.57 1.24-2.681 3.23-2.681 1.44 0 2.55.392 3.44 1.111l-1.15 1.635c-.75-.523-1.6-.817-2.35-.817-.56 0-.85.229-.85.556 0 .392.29.555 1.44.817 1.93.425 3.1 1.046 3.1 2.616 0 1.7-1.34 2.714-3.4 2.714-1.43-.033-2.84-.491-3.85-1.406z" fill="#00A2D4"/><path fill-rule="evenodd" clip-rule="evenodd" d="M1150.9 676.596h11.31v3.335h-7.45v2.126h6.73v3.073h-6.73v2.223h7.54v3.336h-11.4v-14.093zm12.91 7.03c0-4.087 3.17-7.324 7.41-7.324 2.88 0 4.68 1.242 5.92 2.975l-2.84 2.224c-.82-1.014-1.74-1.635-3.11-1.635-1.96 0-3.36 1.667-3.36 3.76 0 2.125 1.37 3.76 3.36 3.76 1.47 0 2.32-.686 3.17-1.7l2.94 2.093c-1.34 1.831-3.1 3.171-6.24 3.171-4.02 0-7.25-3.073-7.25-7.324zm25.45 0c0-2.027-1.47-3.793-3.62-3.793-2.13 0-3.57 1.733-3.57 3.793 0 2.027 1.47 3.793 3.6 3.793 2.15.033 3.59-1.7 3.59-3.793zm-11.17 0c0-4.054 3.26-7.324 7.61-7.324 4.35 0 7.55 3.237 7.55 7.324 0 4.055-3.27 7.324-7.61 7.324-4.35 0-7.55-3.237-7.55-7.324z" fill="#97C21A"/><path fill-rule="evenodd" clip-rule="evenodd" d="M1150.9 693.337h5.29v1.602h-3.46v1.144h3.14v1.537h-3.14v2.387h-1.83v-6.67zm9.21 3.204c.63 0 .98-.294.98-.817 0-.523-.39-.785-.98-.785h-1.2v1.602h1.2zm-3.07-3.204h3.14c1.01 0 1.73.261 2.16.719.39.393.58.916.58 1.57 0 1.013-.55 1.7-1.37 2.06l1.6 2.321h-2.12l-1.34-2.027h-.82v2.027h-1.83v-6.67z" fill="#00A2D4"/><path d="M1165.77 693.337h-1.87v6.637h1.87v-6.637z" fill="#00A2D4"/><path fill-rule="evenodd" clip-rule="evenodd" d="M1166.98 693.337h5.36v1.569h-3.53v1.014h3.17v1.439h-3.17v1.079h3.56v1.569h-5.39v-6.67zm6.34 0h1.7l2.74 3.531v-3.531h1.83v6.67h-1.6l-2.84-3.662v3.662h-1.83v-6.67zm10.03 5.035c1.11 0 1.83-.621 1.83-1.7s-.72-1.7-1.83-1.7h-.75v3.4h.75zm-2.58-5.035h2.55c2.38 0 3.75 1.373 3.75 3.302s-1.4 3.335-3.79 3.335h-2.51v-6.637zm6.66 5.657l1.02-1.21c.65.523 1.37.785 2.15.785.49 0 .75-.164.75-.491 0-.261-.23-.425-1.11-.621-1.4-.327-2.51-.719-2.51-2.125 0-1.243.98-2.126 2.58-2.126 1.14 0 2.02.295 2.74.883l-.91 1.308c-.62-.425-1.28-.654-1.86-.654-.46 0-.66.196-.66.458 0 .294.23.425 1.15.654 1.53.327 2.48.817 2.48 2.092 0 1.374-1.08 2.158-2.68 2.158-1.21 0-2.32-.359-3.14-1.111z" fill="#00A2D4"/><path fill-rule="evenodd" clip-rule="evenodd" d="M1585.77 677.054l11.3.72-.23 3.302-7.45-.458-.13 2.125 6.77.426-.23 3.073-6.73-.425-.13 2.223 7.54.458-.22 3.335-11.38-.752.89-14.027zm12.45 7.847c.26-4.087 3.62-7.095 7.87-6.833 2.88.196 4.58 1.536 5.72 3.335l-2.97 2.027c-.76-1.046-1.64-1.733-2.98-1.831-1.96-.131-3.46 1.439-3.59 3.531-.13 2.093 1.14 3.858 3.1 3.956 1.47.099 2.39-.523 3.27-1.504l2.81 2.289c-1.44 1.733-3.3 2.976-6.4 2.779-4.09-.228-7.1-3.531-6.83-7.749zm25.39 1.635c.13-2.027-1.21-3.891-3.37-4.022-2.12-.13-3.66 1.504-3.79 3.564-.13 2.028 1.21 3.891 3.33 4.022 2.16.131 3.7-1.504 3.83-3.564zm-11.15-.719c.26-4.022 3.73-7.095 8.04-6.801 4.35.294 7.32 3.727 7.06 7.782-.26 4.021-3.73 7.095-8.04 6.833-4.31-.294-7.32-3.76-7.06-7.814z" fill="#97C21A"/><path fill-rule="evenodd" clip-rule="evenodd" d="M1584.69 693.762l5.32.327-.09 1.602-3.5-.229-.07 1.145 3.14.196-.1 1.537-3.13-.196-.13 2.354-1.87-.098.43-6.638zm8.98 3.76c.62.033 1.02-.229 1.05-.752.03-.523-.33-.817-.95-.85l-1.21-.065-.1 1.602 1.21.065zm-2.84-3.367l3.14.196c1.01.065 1.7.359 2.12.85.36.425.52.948.49 1.602-.06 1.014-.65 1.668-1.5 1.962l1.44 2.419-2.13-.13-1.21-2.093-.81-.065-.13 1.994-1.83-.131.42-6.604z" fill="#00A2D4"/><path d="M1597.72 694.7l-.43 6.624 1.86.119.43-6.623-1.86-.12z" fill="#00A2D4"/><path fill-rule="evenodd" clip-rule="evenodd" d="M1600.76 694.776l5.33.36-.1 1.536-3.53-.196-.06.981 3.2.229-.1 1.439-3.2-.197-.06 1.047 3.56.229-.1 1.569-5.36-.36.42-6.637zm6.31.425l1.73.098 2.49 3.695.23-3.531 1.83.13-.43 6.638-1.63-.098-2.58-3.826-.23 3.629-1.83-.098.42-6.637zm9.71 5.624c1.11.065 1.86-.491 1.92-1.57.07-1.046-.62-1.733-1.73-1.831l-.75-.032-.23 3.4.79.033zm-2.26-5.166l2.55.163c2.39.164 3.66 1.602 3.53 3.531-.13 1.93-1.6 3.237-3.99 3.107l-2.51-.164.42-6.637zm6.28 6.081l1.11-1.144c.62.556 1.34.883 2.09.948.49.033.78-.131.78-.425.04-.262-.19-.425-1.08-.719-1.4-.425-2.45-.883-2.35-2.256.07-1.243 1.11-2.06 2.71-1.962 1.15.065 2 .425 2.68 1.046l-1.01 1.243c-.59-.458-1.24-.752-1.83-.785-.46-.033-.69.131-.69.392-.03.294.2.458 1.11.72 1.51.425 2.42.98 2.36 2.256-.1 1.34-1.21 2.092-2.81 1.994-1.21-.065-2.29-.523-3.07-1.308z" fill="#00A2D4"/><path fill-rule="evenodd" clip-rule="evenodd" d="M1305.95 969.528l-4.67 44.472-16.89.85-1.38-52.875 22.94 7.553z" fill="url(#paint68_linear_873_11981)"/><path fill-rule="evenodd" clip-rule="evenodd" d="M1301.8 1010.69s-11.89 6.94-17.84-3.92l-43.53 23.12 67.78-.43-6.41-18.77z" fill="url(#paint69_linear_873_11981)"/><path fill-rule="evenodd" clip-rule="evenodd" d="M1257.46 1020.86c2.16 2.03 4.18 4.87 5.33 8.9l-22.32.13 16.99-9.03z" fill="#fff"/><path fill-rule="evenodd" clip-rule="evenodd" d="M1240.5 1035.8l67.8-.39-.06-5.95-67.77.43.03 5.91z" fill="url(#paint70_linear_873_11981)"/><path fill-rule="evenodd" clip-rule="evenodd" d="M1278.83 1018.08a.795.795 0 01-.46-.36c-2.64-3.46-5.29-5.16-5.29-5.16-.52-.33-.65-1.02-.33-1.51.36-.49 1.05-.62 1.57-.29.13.06 3.01 1.93 5.88 5.72.36.49.26 1.18-.26 1.51-.33.19-.75.22-1.11.09zm-5.55 2.78a1.04 1.04 0 01-.46-.36c-2.65-3.46-5.3-5.16-5.3-5.16a1.08 1.08 0 01-.32-1.51c.36-.49 1.08-.62 1.57-.29.13.06 3 1.93 5.88 5.69.36.49.26 1.14-.26 1.5-.33.23-.76.26-1.11.13zm-5.53 2.75a.858.858 0 01-.45-.36c-2.65-3.47-5.3-5.17-5.3-5.17-.52-.32-.65-1.01-.33-1.5.36-.49 1.08-.62 1.57-.3.13.07 3.01 1.93 5.89 5.69.35.49.26 1.18-.27 1.51-.32.26-.75.29-1.11.13z" fill="#fff"/><path fill-rule="evenodd" clip-rule="evenodd" d="M1348.04 968.776l4.71 44.464 16.89.85 1.37-52.867-22.97 7.553z" fill="url(#paint71_linear_873_11981)"/><path fill-rule="evenodd" clip-rule="evenodd" d="M1352.19 1009.97s11.89 6.94 17.84-3.92l43.53 23.12-67.77-.43 6.4-18.77z" fill="url(#paint72_linear_873_11981)"/><path fill-rule="evenodd" clip-rule="evenodd" d="M1396.57 1020.11c-2.16 2.03-4.19 4.87-5.33 8.89l22.32.13-16.99-9.02z" fill="url(#paint73_linear_873_11981)"/><path fill-rule="evenodd" clip-rule="evenodd" d="M1413.49 1035.09l-67.77-.43.03-5.92 67.81.39-.07 5.96z" fill="url(#paint74_linear_873_11981)"/><path fill-rule="evenodd" clip-rule="evenodd" d="M1375.19 1017.33c.2-.06.36-.2.46-.36 2.65-3.46 5.3-5.16 5.3-5.16.52-.33.65-1.02.32-1.51-.36-.49-1.04-.62-1.57-.29-.13.06-3 1.93-5.88 5.69-.36.49-.26 1.17.26 1.5.33.26.76.29 1.11.13z" fill="url(#paint75_linear_873_11981)"/><path fill-rule="evenodd" clip-rule="evenodd" d="M1380.72 1020.11c.16-.06.36-.2.45-.36 2.65-3.47 5.3-5.17 5.3-5.17.52-.32.65-1.01.33-1.5-.36-.49-1.08-.62-1.57-.29-.13.06-3.01 1.93-5.89 5.69-.35.49-.26 1.17.27 1.5.32.26.75.29 1.11.13z" fill="url(#paint76_linear_873_11981)"/><path fill-rule="evenodd" clip-rule="evenodd" d="M1386.27 1022.89c.2-.07.36-.2.46-.36 2.65-3.47 5.29-5.17 5.29-5.17.53-.32.66-1.01.33-1.5-.36-.49-1.08-.62-1.57-.29-.13.06-3 1.92-5.88 5.68-.36.49-.26 1.18.26 1.51.33.23.75.26 1.11.13z" fill="url(#paint77_linear_873_11981)"/><path fill-rule="evenodd" clip-rule="evenodd" d="M1286.9 667.441s-4.05 2.191-.88 8.501c1.8 3.597.62 7.978-2.78 10.136l-7.02 4.513c-3.93 2.517-9.22 1.111-11.28-3.074-1.37-2.812-2.25-6.049-1.21-8.795 2.55-6.638 17.39-14.289 23.17-11.281z" fill="url(#paint78_linear_873_11981)"/><path fill-rule="evenodd" clip-rule="evenodd" d="M1318.24 562.746s-9.58-13.831-25.52-7.455c.03 0 13.85 19.16 25.52 7.455z" fill="#0F6F59"/><path fill-rule="evenodd" clip-rule="evenodd" d="M1318.24 562.745s-13.82-3.204-15.95 14.354c0 0 16.5-.523 15.95-14.354z" fill="#0F6F59"/><path fill-rule="evenodd" clip-rule="evenodd" d="M1363.43 762.426l-42.41-3.76-35.1-1.733-14.18 120.651c-.16 1.537-.1 3.074.1 4.513l2.32 105.153h36.11l-2.1-104.336 16.8-83.247 17.22 190.526h34.21l-12.97-227.767z" fill="url(#paint79_linear_873_11981)"/><path fill-rule="evenodd" clip-rule="evenodd" d="M1420.16 704.062l-16.76-66.146 8.26-37.046a1.945 1.945 0 00-.59-1.896c-1.07-1.046-2.87-.589-3.33.85l-3.23 10.005 3.13-16.969c.17-.883-.26-1.733-1.04-2.158l-.23-.131c-1.14-.589-2.55 0-2.91 1.242l-4.74 15.76 2.22-20.141a2.019 2.019 0 00-1.63-2.125l-.59-.131a2.048 2.048 0 00-2.42 1.831l-2.71 19.258.03-16.773c-.06-.948-.78-1.766-1.73-1.897l-.81-.13a2.044 2.044 0 00-2.32 1.994l-.95 28.283-3.37-6.409a3.277 3.277 0 00-3.3-1.765 2.618 2.618 0 00-2.25 3.302l1.79 6.572a24.888 24.888 0 005.49 10.038l4.97 5.493 3.04 54.8-20.19-12.523-26.73 15.924 53.91 25.765c2.32 1.439 5.07 2.191 7.98 1.896 8.26-.817 13.59-8.991 11.01-16.773z" fill="url(#paint80_linear_873_11981)"/><path fill-rule="evenodd" clip-rule="evenodd" d="M1387.78 618.232h.03c.52.131 5.32 1.57 7.91 7.39.09.261.42.359.65.261.26-.098.36-.425.26-.654-1.47-3.302-3.63-5.296-5.42-6.474-1.8-1.144-3.21-1.504-3.24-1.504a.476.476 0 00-.59.393c-.06.261.1.523.4.588zm5.88 72.653l1.11 13.863c.03.262.26.491.55.458.3-.033.49-.261.46-.556l-1.11-13.863a.512.512 0 00-.56-.458c-.26.033-.45.262-.45.556z" fill="#C0503C"/><path fill-rule="evenodd" clip-rule="evenodd" d="M1311.02 777.041c-5.3-2.714-16.44-9.09-20.82-10.692l-17.68-24.424 8.3-20.763-24.86-8.795-6.54 29.754c-.88 4.447 2.12 9.22 6.18 12.621 8.69 9.482 25.42 21.155 25.42 21.155s1.37 7.16 4.12 9.613c0 0 11.96 1.863 17.09-5.166 0 0 4.11 2.06 8.2 1.242 2.22-.458 2.61-3.498.59-4.545z" fill="url(#paint81_linear_873_11981)"/><path fill-rule="evenodd" clip-rule="evenodd" d="M1272.95 741.631l-4.71-6.54c-.16-.229-.49-.261-.72-.098-.22.164-.26.49-.09.687l4.7 6.539c.16.229.49.262.72.098.2-.131.26-.458.1-.686z" fill="#C0503C"/><path fill-rule="evenodd" clip-rule="evenodd" d="M1389.34 686.7s-12.22-14.42-30.25-21.221l-25.56-10.103-24.24.229-31.96 14.975s-20.16 6.736-24.31 42.539l26.82 8.011 1.96 33.579 8.43 11.64c4.38 1.603 15.53 7.946 20.82 10.692 2.03 1.047 1.63 4.087-.62 4.545-4.05.818-8.2-1.242-8.2-1.242-1.18 1.635-2.75 2.779-4.45 3.596l70.06 7.161-3.72-22.659 2.42-55.421 7.74 3.596 15.06-29.917z" fill="url(#paint82_linear_873_11981)" stroke="#D9DADA" stroke-width=".567" stroke-miterlimit="22.926"/><path fill-rule="evenodd" clip-rule="evenodd" d="M1280.89 721.98l-1.8-19.913c-.03-.359-.36-.621-.68-.588-.36.033-.63.359-.59.686l1.79 19.913c.04.36.36.621.69.588.36 0 .62-.327.59-.686z" fill="#000001"/><path fill-rule="evenodd" clip-rule="evenodd" d="M1319.91 670.417c-17.98 0-17.91-11.379-17.91-11.379l7.15-3.27h.27l-.17-.131 1.87-24.947 2.97 1.7-2.65-.033 21.44 15.564-1.28-15.335-2.48-.033c1.44-.784 2.42-1.471 2.42-1.471l1.96 24.327-.16.13h.03l7.81 2.943s.03 11.281-19.87 11.935h-1.4z" fill="url(#paint83_linear_873_11981)"/><path fill-rule="evenodd" clip-rule="evenodd" d="M1328.86 575.89s11.14-4.97 15.1 4.446c3.82 9.057-11.31 17.689-11.31 17.689l-3.79-22.135z" fill="url(#paint84_linear_873_11981)"/><path fill-rule="evenodd" clip-rule="evenodd" d="M1308.01 613.426c.13 4.185-3.17 7.684-7.35 7.782-4.18.13-7.68-3.172-7.78-7.357-.13-4.185 3.17-7.684 7.35-7.782 4.15-.131 7.65 3.172 7.78 7.357z" fill="url(#paint85_linear_873_11981)"/><path fill-rule="evenodd" clip-rule="evenodd" d="M1296.35 613.034c.03-.033.32-.131.78-.131.49 0 1.11.131 1.89.621.76.523 1.64 1.439 2.55 3.074.13.228.43.326.69.196.26-.131.33-.425.2-.687-.95-1.733-1.93-2.779-2.85-3.4-.91-.622-1.79-.818-2.45-.818-.72 0-1.17.229-1.24.229a.502.502 0 00-.23.687c.1.229.43.327.66.229z" fill="#C0503C"/><path fill-rule="evenodd" clip-rule="evenodd" d="M1335.66 613.622c0 4.185 3.39 7.586 7.58 7.586 4.18 0 7.58-3.401 7.58-7.586 0-4.185-3.4-7.586-7.58-7.586-4.22.033-7.58 3.401-7.58 7.586z" fill="url(#paint86_linear_873_11981)"/><path fill-rule="evenodd" clip-rule="evenodd" d="M1347.68 611.987c-.03-.033-.46-.196-1.14-.196-.66 0-1.54.196-2.45.817-.92.654-1.9 1.733-2.85 3.532a.501.501 0 00.23.686c.26.131.56.033.69-.229.88-1.7 1.73-2.648 2.51-3.171.76-.523 1.41-.654 1.87-.654.23 0 .42.033.55.065l.13.033h.04l.03-.065-.03.032.03-.065-.03.033c.26.13.55 0 .65-.262.13-.131.03-.425-.23-.556z" fill="url(#paint87_linear_873_11981)"/><path fill-rule="evenodd" clip-rule="evenodd" d="M1321.74 635.006c-3.24 0-6.05-1.668-6.08-1.7l-1.57-.883 15.03.163c-1.57.883-3.72 1.897-5.75 2.256-.56.099-1.08.164-1.63.164z" fill="url(#paint88_linear_873_11981)"/><path fill-rule="evenodd" clip-rule="evenodd" d="M1332.88 647.954l-21.44-15.564 2.65.033 1.57.883c.03.032 2.84 1.7 6.08 1.7a7.1 7.1 0 001.63-.164c2.02-.392 4.18-1.406 5.75-2.256l2.48.033 1.28 15.335z" fill="url(#paint89_linear_873_11981)"/><path fill-rule="evenodd" clip-rule="evenodd" d="M1342.26 600.445c.03 8.567-1.15 15.956-2.32 21.221-1.18 5.133-4.51 8.73-9.25 11.672l-.85.523c-5 3.074-11.5 3.172-16.63.262-5.17-2.943-8.79-6.834-9.94-12.359-2.06-10.006-2.35-21.123-2.35-21.123s-2.91-23.149 19.38-22.855c22.32.327 21.96 22.659 21.96 22.659z" fill="url(#paint90_linear_873_11981)"/><path fill-rule="evenodd" clip-rule="evenodd" d="M1313.79 607.246c0 .981-.81 1.798-1.79 1.798s-1.8-.817-1.8-1.798c0-1.014.82-1.798 1.8-1.798.98 0 1.79.784 1.79 1.798z" fill="url(#paint91_linear_873_11981)"/><path fill-rule="evenodd" clip-rule="evenodd" d="M1331.47 607.246c0 .981-.81 1.798-1.79 1.798s-1.8-.817-1.8-1.798c0-1.014.82-1.798 1.8-1.798 1.01 0 1.79.784 1.79 1.798z" fill="url(#paint92_linear_873_11981)"/><path fill-rule="evenodd" clip-rule="evenodd" d="M1318.7 609.862v4.97c0 .13.06.261.16.359.1.098.23.164.36.164h3.2c.3 0 .49-.229.49-.491 0-.294-.23-.49-.49-.49h-2.71v-4.48c0-.294-.23-.49-.49-.49a.465.465 0 00-.52.458z" fill="url(#paint93_linear_873_11981)"/><path fill-rule="evenodd" clip-rule="evenodd" d="M1305.27 599.595l11.79-1.079s-1.04-3.073-5.81-2.55c-4.91.523-5.98 3.629-5.98 3.629z" fill="url(#paint94_linear_873_11981)"/><path fill-rule="evenodd" clip-rule="evenodd" d="M1335.66 599.595l-11.8-1.079s1.04-3.073 5.82-2.55c4.86.523 5.98 3.629 5.98 3.629z" fill="url(#paint95_linear_873_11981)"/><path fill-rule="evenodd" clip-rule="evenodd" d="M1315.17 618.984h11.63s-.56 3.564-5.98 3.564c-5.46 0-5.65-3.564-5.65-3.564z" fill="#fff"/><path fill-rule="evenodd" clip-rule="evenodd" d="M1301.67 611.627s3.3-25.045 1.7-29.165c0-.033-11.24 9.286-1.7 29.165z" fill="url(#paint96_linear_873_11981)"/><path fill-rule="evenodd" clip-rule="evenodd" d="M1341.44 611.399s-3.73-23.934-2.68-30.801c-.03 0 10.82 9.613 2.68 30.801z" fill="url(#paint97_linear_873_11981)"/><path fill-rule="evenodd" clip-rule="evenodd" d="M1337.71 585.601s-6.63 5.526-15.19.948c0 0-21.8 13.438-27.94-1.177-5.13-12.196 16.14-28.741 38.13-10.103l5 10.332z" fill="url(#paint98_linear_873_11981)"/><path fill-rule="evenodd" clip-rule="evenodd" d="M1313.89 797.542l22.03 2.812c.36.033.68-.196.72-.556.03-.359-.2-.686-.56-.719l-22.02-2.812c-.36-.032-.69.196-.72.556-.07.36.19.687.55.719zm52.91-85.142l-9.81-4.545a.624.624 0 00-.85.327c-.16.327 0 .719.33.85l9.8 4.545c.33.163.72 0 .85-.327s0-.72-.32-.85z" fill="#000001"/><path fill-rule="evenodd" clip-rule="evenodd" d="M1294.65 695.986h14.24v4.185h-9.38v2.681h8.5v3.858h-8.5v2.812h9.51v4.185h-14.37v-17.721zm16.27 8.861c0-5.167 3.99-9.221 9.34-9.221 3.63 0 5.89 1.569 7.46 3.76l-3.6 2.779c-1.01-1.275-2.19-2.06-3.89-2.06-2.48 0-4.21 2.093-4.21 4.742 0 2.648 1.73 4.741 4.21 4.741 1.86 0 2.94-.851 3.99-2.158l3.69 2.648c-1.67 2.289-3.92 3.989-7.84 3.989-5.07 0-9.15-3.891-9.15-9.22zm32.02 0c0-2.551-1.86-4.774-4.54-4.774-2.68 0-4.48 2.19-4.48 4.774 0 2.55 1.83 4.773 4.55 4.773 2.68 0 4.47-2.19 4.47-4.773zm-14.05 0c0-5.101 4.09-9.221 9.58-9.221 5.45 0 9.51 4.087 9.51 9.221 0 5.1-4.09 9.22-9.58 9.22s-9.51-4.087-9.51-9.22z" fill="#97C21A"/><path fill-rule="evenodd" clip-rule="evenodd" d="M1294.65 717.042h6.69v2.028h-4.37v1.438h3.95v1.93h-3.95v2.975h-2.32v-8.371zm11.6 4.022c.78 0 1.24-.392 1.24-1.013 0-.654-.49-.981-1.24-.981h-1.51v1.994h1.51zm-3.86-4.022h3.95c1.28 0 2.16.327 2.72.883.49.491.75 1.145.75 1.995 0 1.275-.69 2.125-1.73 2.583l1.99 2.91h-2.68l-1.7-2.55h-1.01v2.55h-2.32v-8.371h.03z" fill="#00A2D4"/><path d="M1313.37 717.042h-2.32v8.371h2.32v-8.371z" fill="#00A2D4"/><path fill-rule="evenodd" clip-rule="evenodd" d="M1314.91 717.042h6.73v1.962h-4.45v1.275h4.02v1.832h-4.02v1.34h4.51v1.962h-6.79v-8.371zm7.97 0h2.16l3.43 4.415v-4.415h2.32v8.371h-2.06l-3.56-4.578v4.578h-2.29v-8.371zm12.64 6.311c1.38 0 2.32-.752 2.32-2.125 0-1.341-.91-2.126-2.32-2.126h-.94v4.284h.94v-.033zm-3.26-6.311h3.23c2.98 0 4.71 1.733 4.71 4.153 0 2.42-1.77 4.218-4.77 4.218h-3.17v-8.371zm8.4 7.128l1.3-1.536c.82.654 1.73 1.013 2.71 1.013.63 0 .95-.229.95-.588 0-.36-.26-.523-1.4-.785-1.8-.392-3.17-.916-3.17-2.648 0-1.57 1.24-2.682 3.23-2.682 1.44 0 2.55.393 3.43 1.112l-1.14 1.635c-.75-.523-1.6-.818-2.35-.818-.56 0-.85.229-.85.556 0 .393.29.556 1.44.818 1.92.425 3.1 1.046 3.1 2.615 0 1.701-1.34 2.714-3.4 2.714-1.44-.032-2.84-.49-3.85-1.406z" fill="#00A2D4"/><path d="M1314.61 973.092h-45.09v20.436h45.09v-20.436z" fill="url(#paint99_linear_873_11981)"/><path fill-rule="evenodd" clip-rule="evenodd" d="M1383.2 993.528h-45.09l-2.16-20.436h45.09l2.16 20.436z" fill="url(#paint100_linear_873_11981)"/></g><defs><linearGradient id="paint0_linear_873_11981" x1="1172.31" y1="577.527" x2="1172.31" y2="546.597" gradientUnits="userSpaceOnUse"><stop stop-color="#4C1C00"/><stop offset="1" stop-color="#7B4122"/></linearGradient><linearGradient id="paint4_linear_873_11981" x1="1590.62" y1="955.152" x2="1591.55" y2="1179.25" gradientUnits="userSpaceOnUse"><stop stop-color="#74BC71"/><stop offset="1" stop-color="#41AE5B"/></linearGradient><linearGradient id="paint5_linear_873_11981" x1="337.344" y1="880.015" x2="335.925" y2="1152.79" gradientUnits="userSpaceOnUse"><stop stop-color="#74BC71"/><stop offset="1" stop-color="#41AE5B"/></linearGradient><linearGradient id="paint6_linear_873_11981" x1="1574.53" y1="612.812" x2="1651.68" y2="612.812" gradientUnits="userSpaceOnUse"><stop stop-color="#0D0F0D"/><stop offset="1" stop-color="#363636"/></linearGradient><linearGradient id="paint7_linear_873_11981" x1="1674.95" y1="1035.91" x2="1674.95" y2="1015.42" gradientUnits="userSpaceOnUse"><stop stop-color="#0D0F0D"/><stop offset="1" stop-color="#363636"/></linearGradient><linearGradient id="paint8_linear_873_11981" x1="1664.56" y1="1024.14" x2="1664.56" y2="958.124" gradientUnits="userSpaceOnUse"><stop stop-color="#F8BEAB"/><stop offset=".99" stop-color="#F5A487"/><stop offset="1" stop-color="#F5A487"/></linearGradient><linearGradient id="paint9_linear_873_11981" x1="1648.11" y1="996.571" x2="1666.27" y2="996.571" gradientUnits="userSpaceOnUse"><stop stop-color="#F3A88E"/><stop offset="1" stop-color="#DE7B66"/></linearGradient><linearGradient id="paint10_linear_873_11981" x1="1545.99" y1="1035.72" x2="1545.99" y2="1015.42" gradientUnits="userSpaceOnUse"><stop stop-color="#0D0F0D"/><stop offset="1" stop-color="#363636"/></linearGradient><linearGradient id="paint11_linear_873_11981" x1="1556.42" y1="1024.14" x2="1556.42" y2="958.124" gradientUnits="userSpaceOnUse"><stop stop-color="#F8BEAB"/><stop offset=".99" stop-color="#F5A487"/><stop offset="1" stop-color="#F5A487"/></linearGradient><linearGradient id="paint12_linear_873_11981" x1="1554.47" y1="995.764" x2="1573.05" y2="995.764" gradientUnits="userSpaceOnUse"><stop stop-color="#F3A88E"/><stop offset="1" stop-color="#DE7B66"/></linearGradient><linearGradient id="paint13_linear_873_11981" x1="1670.26" y1="1001.38" x2="1541.72" y2="778.881" gradientUnits="userSpaceOnUse"><stop stop-color="#F18317"/><stop offset="1" stop-color="#F9B02F"/></linearGradient><linearGradient id="paint14_linear_873_11981" x1="1493.85" y1="695.411" x2="1588.99" y2="695.411" gradientUnits="userSpaceOnUse"><stop stop-color="#F5A487"/><stop offset=".01" stop-color="#F5A487"/><stop offset="1" stop-color="#F8BEAB"/></linearGradient><linearGradient id="paint15_linear_873_11981" x1="1628.4" y1="717.337" x2="1708.54" y2="717.337" gradientUnits="userSpaceOnUse"><stop stop-color="#F5A487"/><stop offset=".01" stop-color="#F5A487"/><stop offset="1" stop-color="#F8BEAB"/></linearGradient><linearGradient id="paint16_linear_873_11981" x1="1614.26" y1="657.18" x2="1614.26" y2="630.559" gradientUnits="userSpaceOnUse"><stop stop-color="#F5A487"/><stop offset=".01" stop-color="#F5A487"/><stop offset="1" stop-color="#F8BEAB"/></linearGradient><linearGradient id="paint17_linear_873_11981" x1="1580.97" y1="617.942" x2="1596.97" y2="617.942" gradientUnits="userSpaceOnUse"><stop stop-color="#F5A487"/><stop offset=".01" stop-color="#F5A487"/><stop offset="1" stop-color="#F8BEAB"/></linearGradient><linearGradient id="paint18_linear_873_11981" x1="1603.94" y1="641.218" x2="1621.16" y2="641.218" gradientUnits="userSpaceOnUse"><stop stop-color="#F3A88E"/><stop offset="1" stop-color="#DE7B66"/></linearGradient><linearGradient id="paint19_linear_873_11981" x1="1606.95" y1="641.339" x2="1606.95" y2="585.608" gradientUnits="userSpaceOnUse"><stop stop-color="#F8BEAB"/><stop offset=".99" stop-color="#F5A487"/><stop offset="1" stop-color="#F5A487"/></linearGradient><linearGradient id="paint20_linear_873_11981" x1="1596.09" y1="621.913" x2="1599.47" y2="621.913" gradientUnits="userSpaceOnUse"><stop stop-color="#0D0F0D"/><stop offset="1" stop-color="#363636"/></linearGradient><linearGradient id="paint21_linear_873_11981" x1="1603.63" y1="609.317" x2="1613.37" y2="609.317" gradientUnits="userSpaceOnUse"><stop stop-color="#0D0F0D"/><stop offset="1" stop-color="#363636"/></linearGradient><linearGradient id="paint22_linear_873_11981" x1="1587.36" y1="608.894" x2="1594.56" y2="608.894" gradientUnits="userSpaceOnUse"><stop stop-color="#0D0F0D"/><stop offset="1" stop-color="#363636"/></linearGradient><linearGradient id="paint23_linear_873_11981" x1="1589.22" y1="615.457" x2="1592.87" y2="615.457" gradientUnits="userSpaceOnUse"><stop stop-color="#0D0F0D"/><stop offset="1" stop-color="#363636"/></linearGradient><linearGradient id="paint24_linear_873_11981" x1="1605.42" y1="615.791" x2="1609.07" y2="615.791" gradientUnits="userSpaceOnUse"><stop stop-color="#0D0F0D"/><stop offset="1" stop-color="#363636"/></linearGradient><linearGradient id="paint25_linear_873_11981" x1="1587.27" y1="599.05" x2="1628.47" y2="599.05" gradientUnits="userSpaceOnUse"><stop stop-color="#0D0F0D"/><stop offset="1" stop-color="#363636"/></linearGradient><linearGradient id="paint26_linear_873_11981" x1="1620.52" y1="619.453" x2="1636.63" y2="619.453" gradientUnits="userSpaceOnUse"><stop stop-color="#F5A487"/><stop offset=".01" stop-color="#F5A487"/><stop offset="1" stop-color="#F8BEAB"/></linearGradient><linearGradient id="paint27_linear_873_11981" x1="1625.24" y1="619.346" x2="1631.84" y2="619.346" gradientUnits="userSpaceOnUse"><stop stop-color="#0D0F0D"/><stop offset="1" stop-color="#363636"/></linearGradient><linearGradient id="paint28_linear_873_11981" x1="1207.08" y1="1036.98" x2="1207.08" y2="1014.64" gradientUnits="userSpaceOnUse"><stop stop-color="#5D4596"/><stop offset="1" stop-color="#9172B1"/></linearGradient><linearGradient id="paint29_linear_873_11981" x1="1201.17" y1="1024.23" x2="1201.17" y2="953.578" gradientUnits="userSpaceOnUse"><stop stop-color="#F8BEAB"/><stop offset=".99" stop-color="#F5A487"/><stop offset="1" stop-color="#F5A487"/></linearGradient><linearGradient id="paint30_linear_873_11981" x1="1148.4" y1="1036.98" x2="1148.4" y2="1014.64" gradientUnits="userSpaceOnUse"><stop stop-color="#5D4596"/><stop offset="1" stop-color="#9172B1"/></linearGradient><linearGradient id="paint31_linear_873_11981" x1="1154.31" y1="1024.23" x2="1154.31" y2="953.578" gradientUnits="userSpaceOnUse"><stop stop-color="#F8BEAB"/><stop offset=".99" stop-color="#F5A487"/><stop offset="1" stop-color="#F5A487"/></linearGradient><linearGradient id="paint32_linear_873_11981" x1="1174.46" y1="993.881" x2="1174.46" y2="744.153" gradientUnits="userSpaceOnUse"><stop stop-color="#272A5B"/><stop offset="1" stop-color="#3D437F"/></linearGradient><linearGradient id="paint33_linear_873_11981" x1="1172.95" y1="735.46" x2="1172.95" y2="653.197" gradientUnits="userSpaceOnUse"><stop stop-color="#fff"/><stop offset=".462" stop-color="#FDFDFD"/><stop offset=".723" stop-color="#F7F6F4"/><stop offset=".933" stop-color="#ECEAE6"/><stop offset="1" stop-color="#E7E5E0"/></linearGradient><linearGradient id="paint34_linear_873_11981" x1="1227.6" y1="705.558" x2="1298.19" y2="705.558" gradientUnits="userSpaceOnUse"><stop stop-color="#F8BEAB"/><stop offset=".99" stop-color="#F5A487"/><stop offset="1" stop-color="#F5A487"/></linearGradient><linearGradient id="paint35_linear_873_11981" x1="1171.71" y1="663.355" x2="1171.71" y2="628.409" gradientUnits="userSpaceOnUse"><stop stop-color="#F8BEAB"/><stop offset=".99" stop-color="#F5A487"/><stop offset="1" stop-color="#F5A487"/></linearGradient><linearGradient id="paint36_linear_873_11981" x1="1051.53" y1="681.02" x2="1114.98" y2="681.02" gradientUnits="userSpaceOnUse"><stop stop-color="#F8BEAB"/><stop offset=".99" stop-color="#F5A487"/><stop offset="1" stop-color="#F5A487"/></linearGradient><linearGradient id="paint37_linear_873_11981" x1="1191.41" y1="611.34" x2="1200.55" y2="611.34" gradientUnits="userSpaceOnUse"><stop stop-color="#F5A487"/><stop offset=".01" stop-color="#F5A487"/><stop offset="1" stop-color="#F8BEAB"/></linearGradient><linearGradient id="paint38_linear_873_11981" x1="1187.71" y1="623.792" x2="1199.5" y2="623.792" gradientUnits="userSpaceOnUse"><stop stop-color="#5D4596"/><stop offset="1" stop-color="#9172B1"/></linearGradient><linearGradient id="paint39_linear_873_11981" x1="1144.84" y1="611.34" x2="1153.99" y2="611.34" gradientUnits="userSpaceOnUse"><stop stop-color="#F8BEAB"/><stop offset=".99" stop-color="#F5A487"/><stop offset="1" stop-color="#F5A487"/></linearGradient><linearGradient id="paint40_linear_873_11981" x1="1142.43" y1="611.422" x2="1153.9" y2="611.422" gradientUnits="userSpaceOnUse"><stop stop-color="#F8BEAB"/><stop offset=".99" stop-color="#F5A487"/><stop offset="1" stop-color="#F5A487"/></linearGradient><linearGradient id="paint41_linear_873_11981" x1="1145.89" y1="623.792" x2="1157.9" y2="623.792" gradientUnits="userSpaceOnUse"><stop stop-color="#5D4596"/><stop offset="1" stop-color="#9172B1"/></linearGradient><linearGradient id="paint42_linear_873_11981" x1="1172.55" y1="620.226" x2="1172.55" y2="569.112" gradientUnits="userSpaceOnUse"><stop stop-color="#4C1C00"/><stop offset="1" stop-color="#7B4122"/></linearGradient><linearGradient id="paint43_linear_873_11981" x1="1173.38" y1="663.356" x2="1173.38" y2="628.411" gradientUnits="userSpaceOnUse"><stop stop-color="#F7B39D"/><stop offset=".99" stop-color="#F2916E"/><stop offset="1" stop-color="#F2916E"/></linearGradient><linearGradient id="paint44_linear_873_11981" x1="1172.47" y1="632.22" x2="1172.47" y2="574.994" gradientUnits="userSpaceOnUse"><stop stop-color="#F8BEAB"/><stop offset=".99" stop-color="#F5A487"/><stop offset="1" stop-color="#F5A487"/></linearGradient><linearGradient id="paint45_linear_873_11981" x1="1182.34" y1="608.475" x2="1182.34" y2="604.685" gradientUnits="userSpaceOnUse"><stop stop-color="#0D0F0D"/><stop offset="1" stop-color="#363636"/></linearGradient><linearGradient id="paint46_linear_873_11981" x1="1163.41" y1="608.475" x2="1163.41" y2="604.685" gradientUnits="userSpaceOnUse"><stop stop-color="#0D0F0D"/><stop offset="1" stop-color="#363636"/></linearGradient><linearGradient id="paint47_linear_873_11981" x1="1162.71" y1="600.304" x2="1162.71" y2="596.381" gradientUnits="userSpaceOnUse"><stop stop-color="#0D0F0D"/><stop offset="1" stop-color="#363636"/></linearGradient><linearGradient id="paint48_linear_873_11981" x1="1184.43" y1="600.242" x2="1184.43" y2="596.286" gradientUnits="userSpaceOnUse"><stop stop-color="#0D0F0D"/><stop offset="1" stop-color="#363636"/></linearGradient><linearGradient id="paint49_linear_873_11981" x1="1172.28" y1="593.523" x2="1172.28" y2="573.889" gradientUnits="userSpaceOnUse"><stop stop-color="#471800"/><stop offset="1" stop-color="#6B3A1D"/></linearGradient><linearGradient id="paint50_linear_873_11981" x1="1394.08" y1="1017.46" x2="1457.05" y2="1017.46" gradientUnits="userSpaceOnUse"><stop stop-color="#272A5B"/><stop offset="1" stop-color="#3D437F"/></linearGradient><linearGradient id="paint51_linear_873_11981" x1="1441.56" y1="1007.66" x2="1441.56" y2="976.42" gradientUnits="userSpaceOnUse"><stop stop-color="#F49E8E"/><stop offset="1" stop-color="#F0826D"/></linearGradient><linearGradient id="paint52_linear_873_11981" x1="1488.53" y1="1017.46" x2="1551.5" y2="1017.46" gradientUnits="userSpaceOnUse"><stop stop-color="#272A5B"/><stop offset="1" stop-color="#3D437F"/></linearGradient><linearGradient id="paint53_linear_873_11981" x1="1502.81" y1="1007.66" x2="1502.81" y2="976.42" gradientUnits="userSpaceOnUse"><stop stop-color="#F49E8E"/><stop offset="1" stop-color="#F0826D"/></linearGradient><linearGradient id="paint54_linear_873_11981" x1="1532.08" y1="807.871" x2="1545.26" y2="807.871" gradientUnits="userSpaceOnUse"><stop stop-color="#F0826D"/><stop offset="1" stop-color="#F49E8E"/></linearGradient><linearGradient id="paint55_linear_873_11981" x1="1455.43" y1="790.597" x2="1455.43" y2="627.688" gradientUnits="userSpaceOnUse"><stop stop-color="#fff"/><stop offset=".544" stop-color="#F0F0F4"/><stop offset="1" stop-color="#E7E7ED"/></linearGradient><linearGradient id="paint56_linear_873_11981" x1="1465.85" y1="628.273" x2="1465.85" y2="597.725" gradientUnits="userSpaceOnUse"><stop stop-color="#F0826D"/><stop offset="1" stop-color="#F49E8E"/></linearGradient><linearGradient id="paint57_linear_873_11981" x1="1437.38" y1="580.668" x2="1452.29" y2="580.668" gradientUnits="userSpaceOnUse"><stop stop-color="#F49E8E"/><stop offset="1" stop-color="#F0826D"/></linearGradient><linearGradient id="paint58_linear_873_11981" x1="1480.04" y1="580.669" x2="1495.19" y2="580.669" gradientUnits="userSpaceOnUse"><stop stop-color="#F0826D"/><stop offset="1" stop-color="#F49E8E"/></linearGradient><linearGradient id="paint59_linear_873_11981" x1="1480.22" y1="581.367" x2="1495.07" y2="581.367" gradientUnits="userSpaceOnUse"><stop stop-color="#F0826D"/><stop offset="1" stop-color="#F49E8E"/></linearGradient><linearGradient id="paint60_linear_873_11981" x1="1455.78" y1="605.717" x2="1477.21" y2="605.717" gradientUnits="userSpaceOnUse"><stop stop-color="#F3A88E"/><stop offset="1" stop-color="#DE7B66"/></linearGradient><linearGradient id="paint61_linear_873_11981" x1="1465.94" y1="602.48" x2="1465.94" y2="545.137" gradientUnits="userSpaceOnUse"><stop stop-color="#F49E8E"/><stop offset="1" stop-color="#F0826D"/></linearGradient><linearGradient id="paint62_linear_873_11981" x1="1454.58" y1="574.275" x2="1458.18" y2="574.275" gradientUnits="userSpaceOnUse"><stop stop-color="#0D0F0D"/><stop offset="1" stop-color="#363636"/></linearGradient><linearGradient id="paint63_linear_873_11981" x1="1472.28" y1="574.275" x2="1475.89" y2="574.275" gradientUnits="userSpaceOnUse"><stop stop-color="#0D0F0D"/><stop offset="1" stop-color="#363636"/></linearGradient><linearGradient id="paint64_linear_873_11981" x1="1472.28" y1="580.444" x2="1475.89" y2="580.444" gradientUnits="userSpaceOnUse"><stop stop-color="#0D0F0D"/><stop offset="1" stop-color="#363636"/></linearGradient><linearGradient id="paint65_linear_873_11981" x1="1449.66" y1="564.805" x2="1461.45" y2="564.805" gradientUnits="userSpaceOnUse"><stop stop-color="#0D0F0D"/><stop offset="1" stop-color="#363636"/></linearGradient><linearGradient id="paint66_linear_873_11981" x1="1468.26" y1="564.805" x2="1480.04" y2="564.805" gradientUnits="userSpaceOnUse"><stop stop-color="#0D0F0D"/><stop offset="1" stop-color="#363636"/></linearGradient><linearGradient id="paint67_linear_873_11981" x1="1464.75" y1="578.45" x2="1464.75" y2="541.718" gradientUnits="userSpaceOnUse"><stop stop-color="#6D3A00"/><stop offset="1" stop-color="#CC6401"/></linearGradient><linearGradient id="paint68_linear_873_11981" x1="1294.49" y1="1014.85" x2="1294.49" y2="961.976" gradientUnits="userSpaceOnUse"><stop stop-color="#F3A88E"/><stop offset="1" stop-color="#DE7B66"/></linearGradient><linearGradient id="paint69_linear_873_11981" x1="1240.46" y1="1018.33" x2="1308.25" y2="1018.33" gradientUnits="userSpaceOnUse"><stop stop-color="#363636"/><stop offset="1" stop-color="#0D0F0D"/></linearGradient><linearGradient id="paint70_linear_873_11981" x1="1274.38" y1="1035.82" x2="1274.38" y2="1029.47" gradientUnits="userSpaceOnUse"><stop stop-color="#ACB6DD"/><stop offset="1" stop-color="#D7D8EE"/></linearGradient><linearGradient id="paint71_linear_873_11981" x1="1359.53" y1="1014.11" x2="1359.53" y2="961.238" gradientUnits="userSpaceOnUse"><stop stop-color="#F3A88E"/><stop offset="1" stop-color="#DE7B66"/></linearGradient><linearGradient id="paint72_linear_873_11981" x1="1345.76" y1="1017.59" x2="1413.55" y2="1017.59" gradientUnits="userSpaceOnUse"><stop stop-color="#363636"/><stop offset="1" stop-color="#0D0F0D"/></linearGradient><linearGradient id="paint73_linear_873_11981" x1="1345.76" y1="1024.64" x2="1413.55" y2="1024.64" gradientUnits="userSpaceOnUse"><stop stop-color="#363636"/><stop offset="1" stop-color="#0D0F0D"/></linearGradient><linearGradient id="paint74_linear_873_11981" x1="1379.64" y1="1035.08" x2="1379.64" y2="1028.73" gradientUnits="userSpaceOnUse"><stop stop-color="#ACB6DD"/><stop offset="1" stop-color="#D7D8EE"/></linearGradient><linearGradient id="paint75_linear_873_11981" x1="1377.53" y1="1034.57" x2="1377.53" y2="1028.39" gradientUnits="userSpaceOnUse"><stop stop-color="#ACB6DD"/><stop offset="1" stop-color="#D7D8EE"/></linearGradient><linearGradient id="paint76_linear_873_11981" x1="1383.07" y1="1034.63" x2="1383.07" y2="1028.45" gradientUnits="userSpaceOnUse"><stop stop-color="#ACB6DD"/><stop offset="1" stop-color="#D7D8EE"/></linearGradient><linearGradient id="paint77_linear_873_11981" x1="1388.61" y1="1034.7" x2="1388.61" y2="1028.53" gradientUnits="userSpaceOnUse"><stop stop-color="#ACB6DD"/><stop offset="1" stop-color="#D7D8EE"/></linearGradient><linearGradient id="paint78_linear_873_11981" x1="1263.84" y1="679.304" x2="1286.02" y2="679.304" gradientUnits="userSpaceOnUse"><stop stop-color="#F0826D"/><stop offset="1" stop-color="#F49E8E"/></linearGradient><linearGradient id="paint79_linear_873_11981" x1="1323.97" y1="990.183" x2="1323.97" y2="756.934" gradientUnits="userSpaceOnUse"><stop stop-color="#5D4596"/><stop offset="1" stop-color="#9172B1"/></linearGradient><linearGradient id="paint80_linear_873_11981" x1="1347.34" y1="652.984" x2="1418.92" y2="652.984" gradientUnits="userSpaceOnUse"><stop stop-color="#F3A88E"/><stop offset="1" stop-color="#DE7B66"/></linearGradient><linearGradient id="paint81_linear_873_11981" x1="1249.97" y1="749.039" x2="1311.64" y2="749.039" gradientUnits="userSpaceOnUse"><stop stop-color="#F3A88E"/><stop offset="1" stop-color="#DE7B66"/></linearGradient><linearGradient id="paint82_linear_873_11981" x1="1321.15" y1="791.065" x2="1321.15" y2="655.41" gradientUnits="userSpaceOnUse"><stop stop-color="#fff"/><stop offset=".362" stop-color="#FCFCFD"/><stop offset=".684" stop-color="#F3F2F6"/><stop offset=".991" stop-color="#E3E3EA"/><stop offset="1" stop-color="#E3E2E9"/></linearGradient><linearGradient id="paint83_linear_873_11981" x1="1321.59" y1="670.419" x2="1321.59" y2="630.69" gradientUnits="userSpaceOnUse"><stop stop-color="#F3A88E"/><stop offset="1" stop-color="#DE7B66"/></linearGradient><linearGradient id="paint84_linear_873_11981" x1="1328.87" y1="586.278" x2="1341.94" y2="586.278" gradientUnits="userSpaceOnUse"><stop stop-color="#0D0F0D"/><stop offset="1" stop-color="#363636"/></linearGradient><linearGradient id="paint85_linear_873_11981" x1="1292.97" y1="613.634" x2="1307.89" y2="613.634" gradientUnits="userSpaceOnUse"><stop stop-color="#F3A88E"/><stop offset="1" stop-color="#DE7B66"/></linearGradient><linearGradient id="paint86_linear_873_11981" x1="1335.64" y1="613.634" x2="1350.78" y2="613.634" gradientUnits="userSpaceOnUse"><stop stop-color="#DE7B66"/><stop offset="1" stop-color="#F3A88E"/></linearGradient><linearGradient id="paint87_linear_873_11981" x1="1335.83" y1="614.332" x2="1350.66" y2="614.332" gradientUnits="userSpaceOnUse"><stop stop-color="#DE7B66"/><stop offset="1" stop-color="#F3A88E"/></linearGradient><linearGradient id="paint88_linear_873_11981" x1="1046.85" y1="633.701" x2="1952.79" y2="633.701" gradientUnits="userSpaceOnUse"><stop stop-color="#D7DCF0"/><stop offset="1" stop-color="#EBECF7"/></linearGradient><linearGradient id="paint89_linear_873_11981" x1="1322.16" y1="670.42" x2="1322.16" y2="630.69" gradientUnits="userSpaceOnUse"><stop stop-color="#F09779"/><stop offset="1" stop-color="#D56250"/></linearGradient><linearGradient id="paint90_linear_873_11981" x1="1321.53" y1="635.446" x2="1321.53" y2="578.101" gradientUnits="userSpaceOnUse"><stop stop-color="#F3A88E"/><stop offset="1" stop-color="#DE7B66"/></linearGradient><linearGradient id="paint91_linear_873_11981" x1="1310.17" y1="607.24" x2="1313.78" y2="607.24" gradientUnits="userSpaceOnUse"><stop stop-color="#0D0F0D"/><stop offset="1" stop-color="#363636"/></linearGradient><linearGradient id="paint92_linear_873_11981" x1="1327.88" y1="607.24" x2="1331.48" y2="607.24" gradientUnits="userSpaceOnUse"><stop stop-color="#0D0F0D"/><stop offset="1" stop-color="#363636"/></linearGradient><linearGradient id="paint93_linear_873_11981" x1="1327.88" y1="612.366" x2="1331.48" y2="612.366" gradientUnits="userSpaceOnUse"><stop stop-color="#0D0F0D"/><stop offset="1" stop-color="#363636"/></linearGradient><linearGradient id="paint94_linear_873_11981" x1="1305.26" y1="597.77" x2="1317.04" y2="597.77" gradientUnits="userSpaceOnUse"><stop stop-color="#0D0F0D"/><stop offset="1" stop-color="#363636"/></linearGradient><linearGradient id="paint95_linear_873_11981" x1="1323.85" y1="597.77" x2="1335.64" y2="597.77" gradientUnits="userSpaceOnUse"><stop stop-color="#0D0F0D"/><stop offset="1" stop-color="#363636"/></linearGradient><linearGradient id="paint96_linear_873_11981" x1="1300.49" y1="597.026" x2="1303.27" y2="597.026" gradientUnits="userSpaceOnUse"><stop stop-color="#0D0F0D"/><stop offset="1" stop-color="#363636"/></linearGradient><linearGradient id="paint97_linear_873_11981" x1="1338.98" y1="596.012" x2="1341.92" y2="596.012" gradientUnits="userSpaceOnUse"><stop stop-color="#0D0F0D"/><stop offset="1" stop-color="#363636"/></linearGradient><linearGradient id="paint98_linear_873_11981" x1="1297.75" y1="579.531" x2="1337.71" y2="579.531" gradientUnits="userSpaceOnUse"><stop stop-color="#0D0F0D"/><stop offset="1" stop-color="#363636"/></linearGradient><linearGradient id="paint99_linear_873_11981" x1="1292.05" y1="993.519" x2="1292.05" y2="973.077" gradientUnits="userSpaceOnUse"><stop stop-color="#5D4596"/><stop offset="1" stop-color="#9172B1"/></linearGradient><linearGradient id="paint100_linear_873_11981" x1="1359.58" y1="993.519" x2="1359.58" y2="973.077" gradientUnits="userSpaceOnUse"><stop stop-color="#5D4596"/><stop offset="1" stop-color="#9172B1"/></linearGradient><radialGradient id="paint1_radial_873_11981" cx="0" cy="0" r="1" gradientUnits="userSpaceOnUse" gradientTransform="matrix(380.88044 11.85853 -11.45618 367.9577 1643.28 565.443)"><stop stop-color="#126D59"/><stop offset="1" stop-color="#154C3D"/></radialGradient><radialGradient id="paint2_radial_873_11981" cx="0" cy="0" r="1" gradientUnits="userSpaceOnUse" gradientTransform="rotate(14.841 -712.273 1634.793) scale(1117.12 658.457)"><stop stop-color="#41AE5B"/><stop offset="1" stop-color="#126D59"/></radialGradient><radialGradient id="paint3_radial_873_11981" cx="0" cy="0" r="1" gradientUnits="userSpaceOnUse" gradientTransform="rotate(41.677 380.328 1714.661) scale(545.972 503.238)"><stop stop-color="#41AE5B"/><stop offset="1" stop-color="#126D59"/></radialGradient><clipPath id="clip0_873_11981"><path fill="#fff" d="M0 0h1920v1233H0z"/></clipPath></defs></svg>