<svg width="1920" height="318" fill="none" xmlns="http://www.w3.org/2000/svg"><path d="M842.595 43.421c-1.606 1.663-4.099 2.024-6.287 2.8-2.188.776-4.459 2.578-4.154 4.878.083.582.305 1.137.222 1.719-.084.61-.499 1.108-.942 1.552a12.45 12.45 0 01-2.437 1.885c-.582.36-1.219.665-1.662 1.164-.277.305-.443.665-.637 1.025-2.105 4.38-2.05 9.619-.499 14.248 1.551 4.628 4.487 8.647 7.921 12.14.748.748 1.524 1.524 2.521 1.94 1.689.72 3.628.333 5.345-.305 1.717-.637 3.351-1.552 5.152-1.857 3.434-.61 6.868.998 10.358.97.443 0 .886-.028 1.302-.221.526-.25.858-.749 1.218-1.192 2.188-2.8 5.346-4.823 8.78-5.71.942-.222 1.939-.416 2.576-1.137.443-.526.609-1.22.748-1.884a101.523 101.523 0 001.938-13.222c.028-.388.056-.776-.083-1.136-.166-.388-.498-.666-.831-.943-3.572-2.966-5.622-7.678-5.428-12.307.055-.942.166-1.912-.083-2.827s-1.053-1.774-1.994-1.718c-.443.027-.831.221-1.191.443-2.41 1.47-3.988 4.24-6.675 5.072-1.689.527-3.628.111-4.958-1.053-.886-.748-1.468-1.774-2.354-2.522-1.218-1.053-6.315-2.19-7.866-1.802z" fill="#DDB22A"/><path d="M832.154 53.483c1.08.582 1.994 1.635 2.742 2.467 1.191 1.303 2.243 3.021 4.044 3.492 2.188.582 4.016-2.19 6.121-2.55 1.578-.277 3.102 1.22 4.403 1.857 1.136.555 3.739 1.857 3.241-.443-.582-2.578-2.659-4.823-2.77-7.512-.055-1.635.942-1.968 2.05-2.855.221-.194.387-.388.526-.582-.693-.72-1.274-1.552-2.05-2.19-1.218-1.025-6.314-2.134-7.865-1.773-1.607 1.663-4.099 2.023-6.287 2.8-2.188.775-4.46 2.577-4.155 4.877.083.583.305 1.137.222 1.719 0 .277-.111.499-.222.693zm41.018 6.652c-.443-.36-.858-.776-1.274-1.192a4.17 4.17 0 01-1.024.416c-2.133.527-4.127.887-4.764 3.326-.388 1.552-.499 3.132-1.108 4.63-1.136 2.77-3.794 5.266-5.982 7.261-1.939 1.774-4.515 3.659-7.284 3.022-1.136-.25-2.438-.943-3.075-1.94-.692-1.082-.831-3.327-2.853-2.08-1.218.776-1.357 2.661-2.049 3.853-.637 1.053-1.468 2.051-2.437 2.827-2.992 2.412-6.564 2.661-9.832 1.553a39.503 39.503 0 002.686 2.993c.748.749 1.523 1.525 2.52 1.94 1.69.721 3.629.333 5.346-.305 1.717-.637 3.351-1.552 5.151-1.857 3.435-.61 6.869.998 10.359.97.443 0 .886-.027 1.301-.221.527-.25.859-.749 1.219-1.192 2.188-2.8 5.345-4.823 8.78-5.71.914-.222 1.939-.416 2.576-1.136.443-.527.609-1.22.747-1.885a101.353 101.353 0 001.939-13.222c.028-.388.055-.776-.083-1.136-.194-.388-.526-.665-.859-.915z" fill="#DDB22A" opacity=".5"/><path d="M403.692 65.346c-1.661-1.607-2.021-4.102-2.797-6.292-.775-2.19-2.576-4.462-4.874-4.157-.582.083-1.136.304-1.718.221-.609-.083-1.107-.499-1.551-.942a12.453 12.453 0 01-1.883-2.44c-.36-.581-.665-1.219-1.163-1.662-.305-.277-.665-.444-1.025-.638-4.376-2.106-9.611-2.051-14.236-.499s-8.641 4.49-12.131 7.9c-.748.748-1.523 1.524-1.939 2.522-.72 1.691-.332 3.631.305 5.35.637 1.718 1.551 3.354 1.856 5.155.609 3.437-.997 6.874-.97 10.367 0 .443.028.887.222 1.303.249.526.748.859 1.191 1.22 2.797 2.189 4.819 5.349 5.705 8.786.222.914.416 1.94 1.136 2.578.526.443 1.218.61 1.883.748 4.349.942 8.78 1.58 13.211 1.94.388.028.776.056 1.136-.083.388-.166.665-.499.942-.832 2.963-3.575 7.671-5.626 12.297-5.432.941.055 1.911.166 2.825-.083.914-.25 1.772-1.054 1.717-1.996-.028-.444-.222-.832-.443-1.192-1.468-2.412-4.238-3.991-5.069-6.68-.526-1.69-.11-3.631 1.053-4.962.748-.887 1.772-1.469 2.52-2.356 1.08-1.191 2.188-6.292 1.8-7.844z" fill="#DDB22A"/><path d="M393.639 54.869c-.582 1.08-1.634 1.996-2.465 2.744-1.302 1.192-3.019 2.245-3.49 4.047-.582 2.19 2.188 4.019 2.548 6.125.277 1.58-1.219 3.105-1.856 4.408-.553 1.136-1.855 3.742.444 3.243 2.575-.583 4.819-2.661 7.505-2.772 1.634-.056 1.967.942 2.853 2.05.194.223.388.389.582.528.72-.693 1.551-1.276 2.188-2.052 1.024-1.22 2.132-6.32 1.772-7.871-1.662-1.608-2.022-4.103-2.797-6.293-.776-2.19-2.576-4.462-4.875-4.157-.581.083-1.135.305-1.717.222-.249 0-.471-.084-.692-.222zm-6.619 41.078c.36-.444.775-.86 1.19-1.275a4.192 4.192 0 01-.415-1.026c-.526-2.134-.886-4.13-3.324-4.767-1.551-.388-3.129-.499-4.625-1.109-2.769-1.136-5.262-3.797-7.256-5.987-1.773-1.94-3.656-4.518-3.019-7.29.249-1.136.942-2.439 1.939-3.076 1.08-.694 3.323-.832 2.077-2.856-.776-1.22-2.659-1.358-3.85-2.05-1.052-.638-2.05-1.47-2.825-2.44-2.41-2.993-2.659-6.569-1.551-9.84a39.645 39.645 0 00-2.991 2.689c-.748.748-1.523 1.524-1.939 2.522-.72 1.691-.332 3.631.305 5.35.637 1.718 1.551 3.354 1.855 5.155.61 3.438-.997 6.875-.969 10.367 0 .444.028.887.222 1.303.249.526.747.859 1.191 1.22 2.797 2.189 4.819 5.349 5.705 8.786.222.915.415 1.94 1.136 2.578.526.443 1.218.61 1.883.748 4.348.942 8.78 1.58 13.211 1.94.388.028.775.056 1.136-.083.36-.194.637-.554.914-.86z" fill="#DDB22A" opacity=".5"/><path d="M420.919 107.533c-8.281-7.9-8.973-11.115-8.973-11.115l-.388-1.857a5.46 5.46 0 011.413-4.962l35.479-37.253a5.405 5.405 0 012.298-1.44l4.598-1.498a2.835 2.835 0 001.163-.72l.859-.887 21.492 20.483-.859.887a2.558 2.558 0 00-.664 1.192l-1.274 4.684a5.554 5.554 0 01-1.33 2.356l-35.479 37.253a5.503 5.503 0 01-4.902 1.636l-1.883-.305c-.028 0-3.241-.554-11.55-8.454z" fill="#BA4634"/><path opacity=".5" d="M421.03 81.118l-8.087 8.481c-1.274 1.33-1.773 3.188-1.412 4.962l.387 1.857s.693 3.215 8.974 11.115c8.281 7.899 11.522 8.454 11.522 8.454l1.883.305c1.8.305 3.628-.333 4.902-1.636l34.205-35.894c-16.341 7.677-36.808 11.447-52.374 2.356z" fill="#BA4634"/><path d="M411.946 96.418l-.249.25c-.499.526-.61 1.302-.277 1.912.831 1.525 2.963 4.712 8.502 9.979 5.484 5.238 8.753 7.234 10.359 8.01.665.305 1.44.166 1.939-.36l.249-.25s-3.241-.554-11.522-8.454c-8.309-7.872-9.001-11.087-9.001-11.087zM479.58 67.48l-21.492-20.483c-.222-.222-.554-.194-.776.028-.221.221-.193.554.028.776l21.492 20.483c.222.222.554.194.776-.028.221-.221.194-.554-.028-.776z" fill="#A0A7AC"/><path d="M449.031 60.773c1.108-.472 2.022-1.275 3.102-1.83 1.025-.526 2.161-.887 3.268-1.22 3.019-.886 1.745-5.626-1.301-4.74-2.825.832-6.37 3.16-7.035 6.265-.277 1.248.886 1.996 1.966 1.525z" fill="#fff" opacity=".5"/><path d="M811.326 130.373c-7.838 3.354-12.408 3.603-14.679 3.354-1.052-.111-1.938-.666-2.409-1.497l-1.745-3.077-2.382-2.799a4.64 4.64 0 01-.499-.777l-8.281-19.374c-.249-.555-.415-1.137-.554-1.719L766.32 42.922a12.569 12.569 0 00-.554-1.718l-2.631-6.181 12.574-5.378 2.631 6.182c.249.554.526 1.08.859 1.607l34.509 52.97c.333.498.609 1.053.859 1.607l8.281 19.375c.111.277.194.582.222.887l.387 3.659 1.025 3.381c.277.915.055 1.913-.582 2.772-1.384 1.802-4.708 4.906-12.574 8.288z" fill="#365457"/><path opacity=".35" d="M764.797 35.522l2.215 5.155c.25.61.471 1.248.61 1.885l14.457 61.562c.139.526.305 1.053.526 1.58l8.282 19.374c.083.194.193.388.332.555l2.493 2.938 1.744 3.077c.305.526.887.887 1.579.97 1.883.222 6.176.055 13.931-3.243 7.728-3.299 10.802-6.32 11.965-7.844.416-.555.554-1.22.388-1.802l-1.053-3.548-.387-3.659a2.71 2.71 0 00-.166-.637l-8.282-19.375a10.666 10.666 0 00-.775-1.47l-34.51-52.968a13.221 13.221 0 01-.941-1.747l-2.216-5.155-10.192 4.352z" fill="#365457"/><path d="M775.044 27.9l-12.685 5.432a.938.938 0 00-.498 1.22.936.936 0 001.218.498l12.685-5.432a.938.938 0 00.499-1.22.938.938 0 00-1.219-.499z" fill="#365457"/><path opacity=".35" d="M772.081 30.837c-1.773.471-3.601.749-5.373.638l-4.183 1.801c-.581.25-.858.832-.664 1.303.194.471.831.666 1.385.416l12.352-5.294c.111-.056.222-.111.305-.194-1.219.526-2.521.97-3.822 1.33z" fill="#365457"/><path d="M815.869 124.025a7.358 7.358 0 004.929-2.19c1.635-1.663.942-4.407-.055-6.236-.554-1.026-1.939-1.441-2.991-.97-1.163.499-1.579 1.607-1.385 2.827.166 1.081.886 1.968 1.08 2.994v-1.165c-.194.998-1.689 2.079-2.382 2.8-.664.665-.194 1.968.804 1.94zm-18.335-50.031c1.717-2.688-4.432-10.2-5.706-12.223-2.991-4.768-6.01-9.535-9.001-14.303-1.413-2.245-5.013-.166-3.573 2.107 3.379 5.294 6.786 10.588 10.165 15.882.443.693 6.619 10.866 8.115 8.537z" fill="#fff" opacity=".5"/><path opacity=".35" d="M823.485 115.904l-.388-3.659a3.207 3.207 0 00-.221-.887l-8.281-19.375a12.98 12.98 0 00-.859-1.608l-6.426-9.867c-3.157.831-6.37 1.33-9.638.887-4.791-.665-9.306-3.326-13.128-6.126a62.869 62.869 0 01-13.931-14.22l10.192 43.407c.138.582.332 1.164.554 1.719l8.281 19.375c.111.277.277.554.499.776l2.382 2.799 1.744 3.077c.471.832 1.358 1.358 2.41 1.497 2.271.249 6.841 0 14.679-3.354s11.189-6.486 12.574-8.288c.637-.859.859-1.857.582-2.772l-1.025-3.381z" fill="#365457"/><path d="M642.379 123.831l.166-1.497-7.423-1.801c-.637-.167-1.246-.416-1.772-.804-1.8-1.22-2.659-3.409-2.243-5.544l1.827-8.953a13.593 13.593 0 012.161-5.044l48.33-70.238a27.158 27.158 0 0113.682-10.394c9.416-3.16 16.839-4.213 19.553-4.546a2.533 2.533 0 001.801-1.08l5.4-7.873 12.547 8.648-5.401 7.872a2.513 2.513 0 00-.36 2.08c.692 2.66 2.326 9.95 2.742 19.9.249 5.877-1.496 11.67-4.819 16.493l-48.33 70.237a13.715 13.715 0 01-3.961 3.825l-7.699 4.906c-1.828 1.165-4.183 1.109-5.983-.11-.554-.361-.997-.832-1.385-1.386l-4.32-6.292-1.33.693a9 9 0 01-9.306-.582 9.025 9.025 0 01-3.877-8.51z" fill="#525285"/><path opacity=".5" d="M731.007 22.605l5.401-7.872-12.547-8.648-5.4 7.872c-.388.582-.997.942-1.69 1.053.554.61 1.108 1.22 1.607 1.857 1.828 2.3 3.572 4.685 5.068 7.235 2.908 4.934 4.708 10.228 4.598 16.02-.167 9.425-4.459 19.154-10.22 26.5-5.484 6.984-12.934 12.056-21.105 15.383-4.764 1.94-9.638 3.326-14.762 3.77-5.761.498-11.577.11-17.338.221-6.952.11-13.931.582-20.827 1.635l-8.697 12.64a14.05 14.05 0 00-2.16 5.044l-1.828 8.953c-.443 2.135.443 4.297 2.243 5.544.554.36 1.136.637 1.773.804l7.422 1.801-.166 1.497c-.388 3.326 1.108 6.597 3.878 8.51a9.004 9.004 0 009.306.582l1.329-.693 4.321 6.292c.36.554.83.998 1.384 1.386a5.453 5.453 0 005.983.11l7.699-4.906a14.062 14.062 0 003.961-3.825l48.33-70.237c3.323-4.85 5.068-10.616 4.819-16.492-.388-9.923-2.049-17.24-2.742-19.902-.194-.776-.055-1.524.36-2.134z" fill="#525285"/><path opacity=".5" d="M657.778 128.654l5.733 8.288c.194.277.416.499.665.665.859.61 2.022.61 2.908.055l7.7-4.906a11.41 11.41 0 003.157-3.049l48.33-70.237c3.019-4.38 4.542-9.618 4.348-14.801-.387-9.674-1.994-16.742-2.658-19.32a5.199 5.199 0 01.775-4.324l3.85-5.571-8.004-5.516-3.85 5.571c-.886 1.275-2.244 2.107-3.767 2.273-2.659.305-9.832 1.33-18.972 4.407-4.902 1.663-9.278 4.962-12.269 9.341l-48.33 70.238a11.158 11.158 0 00-1.717 4.046l-1.828 8.953a2.658 2.658 0 001.08 2.717c.277.194.554.305.858.388l9.777 2.383-.443 3.909c-.277 2.328.776 4.573 2.687 5.904 1.911 1.33 4.403 1.469 6.48.415l3.49-1.829z" fill="#525285"/><path d="M682.428 51.46c3.6-2.246 5.761-6.902 8.669-9.951 3.6-3.77 7.921-6.237 11.992-9.397 2.853-2.19.526-6.264-2.825-4.823-4.957 2.135-9.306 6.625-12.629 10.755-2.715 3.382-6.675 8.232-6.204 12.833.055.471.554.86.997.582z" fill="#fff" opacity=".5"/><path d="M733.361 20.914l-14.18-9.757a.978.978 0 01-.249-1.358l5.705-8.315a2.625 2.625 0 013.656-.665l11.466 7.9a2.63 2.63 0 01.665 3.658l-5.705 8.315a.998.998 0 01-1.358.222z" fill="#6C6CB2"/><path opacity=".5" d="M732.641 13.153c-4.597.444-9.638-.998-13.238-4.047l-.471.693a.978.978 0 00.249 1.359l14.18 9.756a.978.978 0 001.358-.25l5.705-8.315c.415-.61.554-1.33.415-2.023-2.492 1.497-5.29 2.55-8.198 2.827z" fill="#6C6CB2"/><path d="M1848.71 46.596C1694.02 9.62 1530.02 6.686 1370.88 17.48c-176.49 11.984-350.57 41.183-525.901 61.194C669.067 98.74 492.51 103.861 315.728 88.832c-76.509-6.504-152.535-16.717-227.917-29.698C58.058 54.014 28.24 48.008 0 38.321V318h1920V68.046c-23.15-8.829-47.37-15.72-71.29-21.45z" fill="#00A0E3"/><path opacity=".25" d="M1881.55 162.613c-155.59-59.846-328.09-62.289-494.83-47.383-167.41 14.962-332.34 47.105-500.331 57.708-174.238 10.993-349.635 25.371-524.26 11.964-80.502-6.162-161.036-18.32-237.738-40.665C81.178 131.663 35.034 114.731 0 88v230h1920V178.768c-12.75-5.802-25.6-11.215-38.45-16.155z" fill="#fff"/><path d="M1822.26 281.725c-60.15-16.029-122.85-24.1-185.39-29.23-64.15-5.27-128.75-8.015-193.09-10.178-177.17-5.963-354.5-.61-531.634 3.577-177.845 4.216-356.045 7.294-533.665-3.272-80.557-4.798-161.985-13.451-238.835-35.609-33.171-9.568-64.988-22.02-95.902-36.026-13.636-6.184-27.304-12.84-39.167-21.409A80.953 80.953 0 010 146v172h1920c-30.59-15.53-63.92-27.262-97.74-36.275z" fill="#8CDDFF"/><path d="M1094.86 94.589c18.8 6.791 42.44 4.545 62.3 2.273 21.6-2.467 43.05-5.655 64.46-9.092 45.13-7.262 90.18-15.8 135.76-20.788 91.83-10.062 185.22-5.489 275.21 13 28.43 5.848 40.44-32.514 12.04-37.586-93.33-16.631-188.7-19.403-283.03-7.734-46.2 5.71-90.98 16.077-136.06 26.166-22.37 5.017-44.84 9.895-67.48 13.942-20.99 3.77-45.26 6.015-63.81 15.578-2.22 1.109-1.45 3.52.61 4.24zm-43.33-10.422c-.58.028-1.16 0-1.77-.028 2.83.388 3.41.444 1.73.139-2.47-1.165-6.21-.887-8.98-.582-3.31.388-3.22.36.36-.028-.68.055-1.39.083-2.06.055-1.97-.11-1.39-.028 1.73.277a15.88 15.88 0 01-1.99-.47c-9.08-2.357-20.16 2.799-22.28 10.892-2.22 8.399 2.93 16.659 12.65 19.181 5.54 1.442 12.62 1.913 18.29.499 6.57-1.635 11.91-5.904 14.74-11.253 2.23-4.158 2.81-8.427 0-12.557-2.51-3.714-7.37-6.18-12.42-6.125zM71.143 157.37c3.026 13.332 27.656 17.351 40.373 21.149a1380.016 1380.016 0 0062.974 17.129c42.369 10.45 85.383 18.017 128.975 23.588 86.703 11.088 174.371 14.497 261.91 9.923 23.213-1.219 23.246-32.596 0-31.182-86.283 5.266-173.243 3.16-258.948-7.29-41.564-5.073-83.032-11.947-124.017-19.791-21.474-4.102-42.852-8.731-64.037-13.803-13.135-3.16-34.288-11.891-46.2-3.16-1.127.859-1.32 2.273-1.03 3.437z" fill="#fff" opacity=".35"/></svg>