<svg width="360" height="112" fill="none" xmlns="http://www.w3.org/2000/svg"><path d="M639.281 12.604C582.944-.867 523.218-1.935 465.262 1.996c-64.277 4.367-127.674 15.005-191.529 22.296-64.065 7.31-128.366 9.176-192.748 3.7-27.864-2.37-55.552-6.09-83.005-10.82C-12.856 15.307-23.715 13.12-34 9.59v101.896h699.246V20.419c-8.432-3.216-17.251-5.727-25.965-7.815z" fill="#00A0E3"/><path opacity=".25" d="M651.243 54.873C594.577 33.07 531.755 32.18 471.031 37.61c-60.969 5.451-121.036 17.162-182.217 21.025-63.455 4.005-127.333 9.243-190.93 4.359-29.318-2.245-58.648-6.675-86.582-14.816C-4.436 43.597-21.24 37.428-34 27.69v83.797h699.246V60.759a254.236 254.236 0 00-14.003-5.886z" fill="#fff"/><path d="M629.65 98.27c-21.907-5.84-44.741-8.78-67.517-10.65-23.362-1.92-46.889-2.92-70.322-3.708-64.523-2.173-129.105-.223-193.616 1.303-64.77 1.536-129.668 2.658-194.356-1.192-29.338-1.748-58.993-4.9-86.981-12.974C4.778 67.563-6.81 63.027-18.07 57.924c-4.966-2.253-9.944-4.678-14.264-7.8A29.43 29.43 0 01-34 48.82v62.665h699.245c-11.141-5.659-23.28-9.933-35.595-13.216z" fill="#8CDDFF"/><path d="M348.956 26.293c-.211.01-.422 0-.645-.01 1.032.14 1.243.161.633.05-.903-.424-2.263-.323-3.271-.212-1.208.141-1.173.131.129-.01-.246.02-.504.03-.751.02-.715-.04-.504-.01.634.101a5.733 5.733 0 01-.727-.172c-3.307-.858-7.34 1.02-8.114 3.97-.809 3.059 1.067 6.068 4.608 6.987 2.017.525 4.596.697 6.66.182 2.392-.596 4.338-2.15 5.37-4.1.809-1.515 1.02-3.07 0-4.575-.915-1.353-2.685-2.252-4.526-2.231zM-8.09 52.963c1.102 4.857 10.071 6.322 14.703 7.705a502.548 502.548 0 0022.934 6.241c15.431 3.807 31.096 6.564 46.972 8.594 31.576 4.04 63.504 5.281 95.385 3.615 8.454-.444 8.466-11.876 0-11.36-31.424 1.918-63.094 1.15-94.306-2.657-15.138-1.848-30.24-4.352-45.166-7.21A516.042 516.042 0 019.11 52.862C4.326 51.711-3.377 48.53-7.715 51.711c-.41.313-.481.828-.376 1.252z" fill="#fff" opacity=".35"/></svg>