<svg width="1920" height="318" viewBox="0 0 1920 318" fill="none" xmlns="http://www.w3.org/2000/svg">
<path d="M842.595 43.4213C840.989 45.0844 838.496 45.4446 836.308 46.2207C834.12 46.9968 831.849 48.7985 832.154 51.0991C832.237 51.6812 832.459 52.2356 832.376 52.8176C832.292 53.4274 831.877 53.9263 831.434 54.3698C830.714 55.0905 829.883 55.728 828.997 56.2546C828.415 56.615 827.778 56.9199 827.335 57.4188C827.058 57.7237 826.892 58.084 826.698 58.4444C824.593 62.8238 824.648 68.0626 826.199 72.6915C827.75 77.3204 830.686 81.3394 834.12 84.8319C834.868 85.5803 835.644 86.3564 836.641 86.7722C838.33 87.4928 840.269 87.1048 841.986 86.4673C843.703 85.8298 845.337 84.9151 847.138 84.6102C850.572 84.0004 854.006 85.608 857.496 85.5803C857.939 85.5803 858.382 85.5525 858.798 85.3585C859.324 85.1091 859.656 84.6102 860.016 84.1667C862.204 81.3671 865.362 79.3437 868.796 78.4568C869.738 78.235 870.735 78.041 871.372 77.3203C871.815 76.7937 871.981 76.1007 872.12 75.4355C873.061 71.0838 873.698 66.6489 874.058 62.2141C874.086 61.826 874.114 61.438 873.975 61.0776C873.809 60.6896 873.477 60.4124 873.144 60.1352C869.572 57.1694 867.522 52.4573 867.716 47.8284C867.771 46.886 867.882 45.9158 867.633 45.0011C867.384 44.0864 866.58 43.2272 865.639 43.2826C865.196 43.3104 864.808 43.5044 864.448 43.7261C862.038 45.1952 860.46 47.9669 857.773 48.7985C856.084 49.3251 854.145 48.9094 852.815 47.7453C851.929 46.9969 851.347 45.9713 850.461 45.2229C849.243 44.1696 844.146 43.0332 842.595 43.4213Z" fill="#DDB22A"/>
<g opacity="0.5">
<path d="M832.154 53.4829C833.234 54.065 834.148 55.1183 834.896 55.9498C836.087 57.2526 837.139 58.9711 838.94 59.4423C841.128 60.0244 842.956 57.2526 845.061 56.8922C846.639 56.615 848.163 58.1118 849.464 58.7494C850.6 59.3037 853.203 60.6065 852.705 58.3059C852.123 55.7281 850.046 53.4829 849.935 50.7942C849.88 49.1589 850.877 48.8263 851.985 47.9393C852.206 47.7453 852.372 47.5512 852.511 47.3572C851.818 46.6366 851.237 45.805 850.461 45.1675C849.243 44.1419 844.147 43.0332 842.596 43.3936C840.989 45.0567 838.497 45.417 836.309 46.1931C834.121 46.9692 831.849 48.7708 832.154 51.0714C832.237 51.6535 832.459 52.2078 832.376 52.7899C832.376 53.0671 832.265 53.2888 832.154 53.4829Z" fill="#DDB22A"/>
</g>
<g opacity="0.5">
<path d="M873.172 60.1352C872.729 59.7748 872.314 59.359 871.898 58.9432C871.594 59.1095 871.234 59.2759 870.874 59.3591C868.741 59.8857 866.747 60.246 866.11 62.6852C865.722 64.2374 865.611 65.8174 865.002 67.3141C863.866 70.0859 861.208 72.5805 859.02 74.5762C857.081 76.3502 854.505 78.235 851.736 77.5975C850.6 77.348 849.298 76.655 848.661 75.6572C847.969 74.5762 847.83 72.331 845.808 73.5783C844.59 74.3544 844.451 76.2393 843.759 77.4312C843.122 78.4845 842.291 79.4823 841.322 80.2584C838.33 82.6698 834.758 82.9193 831.49 81.8106C832.348 82.8639 833.234 83.8618 834.176 84.8042C834.924 85.5526 835.699 86.3286 836.696 86.7444C838.386 87.465 840.325 87.077 842.042 86.4395C843.759 85.802 845.393 84.8873 847.193 84.5824C850.628 83.9726 854.062 85.5802 857.552 85.5525C857.995 85.5525 858.438 85.5248 858.853 85.3308C859.38 85.0814 859.712 84.5824 860.072 84.1389C862.26 81.3394 865.417 79.316 868.852 78.429C869.766 78.2072 870.791 78.0132 871.428 77.2925C871.871 76.7659 872.037 76.073 872.175 75.4077C873.117 71.056 873.754 66.6212 874.114 62.1863C874.142 61.7982 874.169 61.4102 874.031 61.0498C873.837 60.6618 873.505 60.3846 873.172 60.1352Z" fill="#DDB22A"/>
</g>
<path d="M403.692 65.3462C402.031 63.7386 401.671 61.244 400.895 59.0543C400.12 56.8645 398.319 54.5917 396.021 54.8966C395.439 54.9797 394.885 55.2014 394.303 55.1183C393.694 55.0351 393.196 54.6194 392.752 54.1759C392.032 53.4552 391.395 52.6237 390.869 51.7368C390.509 51.1547 390.204 50.5172 389.706 50.0737C389.401 49.7965 389.041 49.6301 388.681 49.4361C384.305 47.3296 379.07 47.385 374.445 48.9372C369.82 50.4894 365.804 53.4275 362.314 56.8369C361.566 57.5852 360.791 58.3614 360.375 59.3592C359.655 61.05 360.043 62.9902 360.68 64.7088C361.317 66.4273 362.231 68.0626 362.536 69.8643C363.145 73.3013 361.539 76.7384 361.566 80.2308C361.566 80.6743 361.594 81.1178 361.788 81.5336C362.037 82.0602 362.536 82.3928 362.979 82.7531C365.776 84.9428 367.798 88.1027 368.684 91.5397C368.906 92.4544 369.1 93.48 369.82 94.1175C370.346 94.561 371.038 94.7273 371.703 94.8659C376.052 95.8083 380.483 96.4458 384.914 96.8061C385.302 96.8339 385.69 96.8616 386.05 96.723C386.438 96.5567 386.715 96.2241 386.992 95.8915C389.955 92.3159 394.663 90.2647 399.289 90.4587C400.23 90.5141 401.2 90.625 402.114 90.3756C403.028 90.1261 403.886 89.3223 403.831 88.3799C403.803 87.9364 403.609 87.5483 403.388 87.188C401.92 84.7765 399.15 83.1966 398.319 80.508C397.793 78.8172 398.209 76.877 399.372 75.5465C400.12 74.6595 401.144 74.0774 401.892 73.1905C402.972 71.9986 404.08 66.8984 403.692 65.3462Z" fill="#DDB22A"/>
<g opacity="0.5">
<path d="M393.639 54.8688C393.057 55.9498 392.005 56.8646 391.174 57.6129C389.872 58.8048 388.155 59.8581 387.684 61.6598C387.102 63.8495 389.872 65.6788 390.232 67.7854C390.509 69.3653 389.013 70.8898 388.376 72.1926C387.823 73.329 386.521 75.9345 388.82 75.4356C391.395 74.8535 393.639 72.7747 396.325 72.6638C397.959 72.6084 398.292 73.6062 399.178 74.7149C399.372 74.9366 399.566 75.103 399.76 75.2415C400.48 74.5486 401.311 73.9665 401.948 73.1904C402.972 71.9709 404.08 66.8708 403.72 65.3185C402.058 63.7109 401.698 61.2162 400.923 59.0265C400.147 56.8368 398.347 54.5639 396.048 54.8688C395.467 54.952 394.913 55.1738 394.331 55.0906C394.082 55.0906 393.86 55.0074 393.639 54.8688Z" fill="#DDB22A"/>
</g>
<g opacity="0.5">
<path d="M387.02 95.9469C387.38 95.5034 387.795 95.0877 388.21 94.6719C388.044 94.367 387.878 94.0067 387.795 93.6464C387.269 91.5121 386.909 89.5164 384.471 88.8789C382.92 88.4908 381.342 88.38 379.846 87.7702C377.077 86.6337 374.584 83.9728 372.59 81.7831C370.817 79.8428 368.934 77.265 369.571 74.4932C369.82 73.3568 370.513 72.054 371.51 71.4165C372.59 70.7235 374.833 70.5849 373.587 68.5615C372.811 67.3419 370.928 67.2034 369.737 66.5104C368.685 65.8729 367.687 65.0414 366.912 64.0712C364.502 61.0777 364.253 57.5021 365.361 54.2314C364.309 55.0906 363.311 55.9776 362.37 56.92C361.622 57.6684 360.847 58.4445 360.431 59.4424C359.711 61.1332 360.099 63.0734 360.736 64.7919C361.373 66.5104 362.287 68.1458 362.591 69.9474C363.201 73.3845 361.594 76.8216 361.622 80.314C361.622 80.7575 361.65 81.201 361.844 81.6168C362.093 82.1434 362.591 82.4759 363.035 82.8363C365.832 85.026 367.854 88.1859 368.74 91.6229C368.962 92.5376 369.155 93.5632 369.876 94.2007C370.402 94.6442 371.094 94.8105 371.759 94.9491C376.107 95.8915 380.539 96.529 384.97 96.8893C385.358 96.917 385.745 96.9448 386.106 96.8062C386.466 96.6121 386.743 96.2518 387.02 95.9469Z" fill="#DDB22A"/>
</g>
<path d="M420.919 107.533C412.638 99.6333 411.946 96.418 411.946 96.418L411.558 94.5609C411.17 92.7869 411.697 90.9021 412.971 89.5993L448.45 52.3464C449.087 51.6811 449.862 51.1822 450.748 50.9051L455.346 49.4083C455.789 49.2697 456.177 49.0203 456.509 48.6877L457.368 47.8007L478.86 68.2842L478.001 69.1712C477.669 69.5038 477.448 69.9196 477.337 70.3631L476.063 75.0474C475.813 75.9344 475.37 76.7382 474.733 77.4034L439.254 114.656C437.98 115.987 436.152 116.597 434.352 116.292L432.469 115.987C432.441 115.987 429.228 115.433 420.919 107.533Z" fill="#BA4634"/>
<path opacity="0.5" d="M421.03 81.1176L412.943 89.5993C411.669 90.9298 411.17 92.7869 411.531 94.5609L411.918 96.418C411.918 96.418 412.611 99.6332 420.892 107.533C429.173 115.432 432.414 115.987 432.414 115.987L434.297 116.292C436.097 116.597 437.925 115.959 439.199 114.656L473.404 78.7617C457.063 86.4395 436.596 90.2091 421.03 81.1176Z" fill="#BA4634"/>
<path d="M411.946 96.4181L411.697 96.6675C411.198 97.1942 411.087 97.9703 411.42 98.5801C412.251 100.105 414.383 103.292 419.922 108.559C425.406 113.797 428.675 115.793 430.281 116.569C430.946 116.874 431.721 116.735 432.22 116.209L432.469 115.959C432.469 115.959 429.228 115.405 420.947 107.505C412.638 99.6334 411.946 96.4181 411.946 96.4181Z" fill="#A0A7AC"/>
<path d="M479.58 67.4804L458.088 46.9968C457.866 46.775 457.534 46.8028 457.312 47.0245C457.091 47.2463 457.119 47.5789 457.34 47.8006L478.832 68.2842C479.054 68.5059 479.386 68.4783 479.608 68.2565C479.829 68.0348 479.802 67.7021 479.58 67.4804Z" fill="#A0A7AC"/>
<g opacity="0.5">
<path d="M449.031 60.7726C450.139 60.3014 451.053 59.4976 452.133 58.9432C453.158 58.4166 454.294 58.0562 455.401 57.7236C458.42 56.8367 457.146 52.0969 454.1 52.9839C451.275 53.8154 447.73 56.1438 447.065 59.2482C446.788 60.4955 447.951 61.2438 449.031 60.7726Z" fill="white"/>
</g>
<path d="M811.326 130.373C803.488 133.727 798.918 133.976 796.647 133.727C795.595 133.616 794.709 133.061 794.238 132.23L792.493 129.153L790.111 126.354C789.917 126.104 789.751 125.855 789.612 125.577L781.331 106.203C781.082 105.648 780.916 105.066 780.777 104.484L766.32 42.9224C766.181 42.3403 765.987 41.7582 765.766 41.2039L763.135 35.0227L775.709 29.6455L778.34 35.8266C778.589 36.3809 778.866 36.9076 779.199 37.4343L813.708 90.4033C814.041 90.9022 814.317 91.4566 814.567 92.011L822.848 111.386C822.959 111.663 823.042 111.968 823.07 112.273L823.457 115.932L824.482 119.313C824.759 120.228 824.537 121.226 823.9 122.085C822.516 123.887 819.192 126.991 811.326 130.373Z" fill="#365457"/>
<path opacity="0.35" d="M764.797 35.5217L767.012 40.6772C767.262 41.287 767.483 41.9245 767.622 42.562L782.079 104.124C782.218 104.65 782.384 105.177 782.605 105.704L790.887 125.078C790.97 125.272 791.08 125.466 791.219 125.633L793.712 128.571L795.456 131.648C795.761 132.174 796.343 132.535 797.035 132.618C798.918 132.84 803.211 132.673 810.966 129.375C818.694 126.076 821.768 123.055 822.931 121.531C823.347 120.976 823.485 120.311 823.319 119.729L822.266 116.181L821.879 112.522C821.851 112.3 821.796 112.106 821.713 111.885L813.431 92.5098C813.21 92.0109 812.96 91.512 812.656 91.0408L778.146 38.0717C777.786 37.5173 777.482 36.9352 777.205 36.3254L774.989 31.1699L764.797 35.5217Z" fill="#365457"/>
<path d="M775.044 27.8992L762.359 33.3319C761.888 33.526 761.667 34.0803 761.861 34.5515C762.055 35.0227 762.608 35.2445 763.079 35.0504L775.764 29.6177C776.235 29.4237 776.457 28.8693 776.263 28.3981C776.069 27.9269 775.515 27.7052 775.044 27.8992Z" fill="#365457"/>
<path opacity="0.35" d="M772.081 30.8373C770.308 31.3085 768.48 31.5857 766.708 31.4748L762.525 33.2765C761.944 33.526 761.667 34.1081 761.861 34.5793C762.055 35.0505 762.692 35.2445 763.246 34.995L775.598 29.7009C775.709 29.6454 775.82 29.59 775.903 29.5068C774.684 30.0335 773.382 30.477 772.081 30.8373Z" fill="#365457"/>
<g opacity="0.5">
<path d="M815.869 124.025C817.724 123.942 819.497 123.166 820.798 121.835C822.433 120.172 821.74 117.428 820.743 115.599C820.189 114.573 818.804 114.158 817.752 114.629C816.589 115.128 816.173 116.236 816.367 117.456C816.533 118.537 817.253 119.424 817.447 120.45C817.447 120.061 817.447 119.673 817.447 119.285C817.253 120.283 815.758 121.364 815.065 122.085C814.401 122.75 814.871 124.053 815.869 124.025Z" fill="white"/>
</g>
<g opacity="0.5">
<path d="M797.534 73.9942C799.251 71.3056 793.102 63.794 791.828 61.7706C788.837 57.0031 785.818 52.2356 782.827 47.4681C781.414 45.2229 777.814 47.3017 779.254 49.5746C782.633 54.8687 786.04 60.1629 789.419 65.457C789.862 66.15 796.038 76.3225 797.534 73.9942Z" fill="white"/>
</g>
<path opacity="0.35" d="M823.485 115.904L823.097 112.245C823.07 111.94 822.986 111.635 822.876 111.358L814.595 91.9832C814.345 91.4288 814.068 90.9021 813.736 90.3755L807.31 80.5079C804.153 81.3394 800.94 81.8383 797.672 81.3949C792.881 80.7296 788.366 78.0687 784.544 75.2692C779.282 71.3887 774.463 66.5103 770.613 61.0499L780.805 104.456C780.943 105.038 781.137 105.62 781.359 106.175L789.64 125.55C789.751 125.827 789.917 126.104 790.139 126.326L792.521 129.125L794.265 132.202C794.736 133.034 795.623 133.56 796.675 133.699C798.946 133.948 803.516 133.699 811.354 130.345C819.192 126.991 822.543 123.859 823.928 122.057C824.565 121.198 824.787 120.2 824.51 119.285L823.485 115.904Z" fill="#365457"/>
<path d="M642.379 123.831L642.545 122.334L635.122 120.533C634.485 120.366 633.876 120.117 633.35 119.729C631.55 118.509 630.691 116.32 631.107 114.185L632.934 105.232C633.294 103.431 634.042 101.712 635.095 100.188L683.425 29.9503C686.748 25.0996 691.54 21.4408 697.107 19.556C706.523 16.3962 713.946 15.3429 716.66 15.0103C717.38 14.9272 718.045 14.5391 718.461 13.9293L723.861 6.05737L736.408 14.7054L731.007 22.5773C730.592 23.1871 730.453 23.9355 730.647 24.6561C731.339 27.317 732.973 34.6069 733.389 44.5576C733.638 50.4338 731.893 56.2269 728.57 61.0499L680.24 131.287C679.187 132.812 677.858 134.114 676.279 135.112L668.58 140.018C666.752 141.183 664.397 141.127 662.597 139.908C662.043 139.547 661.6 139.076 661.212 138.522L656.892 132.23L655.562 132.923C652.599 134.475 648.998 134.253 646.256 132.341C643.487 130.456 641.991 127.185 642.379 123.831Z" fill="#525285"/>
<path opacity="0.5" d="M731.007 22.605L736.408 14.7331L723.861 6.08508L718.461 13.957C718.073 14.5391 717.464 14.8994 716.771 15.0103C717.325 15.6201 717.879 16.2298 718.378 16.8673C720.206 19.1679 721.95 21.5517 723.446 24.1018C726.354 29.0356 728.154 34.3297 728.044 40.1228C727.877 49.5469 723.585 59.2759 717.824 66.6212C712.34 73.6061 704.89 78.6785 696.719 82.0046C691.955 83.9449 687.081 85.3308 681.957 85.7743C676.196 86.2732 670.38 85.8851 664.619 85.996C657.667 86.1069 650.688 86.5781 643.792 87.6314L635.095 100.271C634.042 101.795 633.322 103.514 632.935 105.315L631.107 114.268C630.664 116.403 631.55 118.565 633.35 119.812C633.904 120.172 634.486 120.449 635.123 120.616L642.545 122.417L642.379 123.914C641.991 127.24 643.487 130.511 646.257 132.424C649.026 134.336 652.599 134.558 655.563 133.006L656.892 132.313L661.213 138.605C661.573 139.159 662.043 139.603 662.597 139.991C664.398 141.21 666.724 141.266 668.58 140.101L676.279 135.195C677.83 134.198 679.187 132.895 680.24 131.37L728.57 61.133C731.893 56.2823 733.638 50.5169 733.389 44.6407C733.001 34.7177 731.34 27.4002 730.647 24.7392C730.453 23.9631 730.592 23.2148 731.007 22.605Z" fill="#525285"/>
<path opacity="0.5" d="M657.778 128.654L663.511 136.942C663.705 137.219 663.927 137.441 664.176 137.607C665.035 138.217 666.198 138.217 667.084 137.662L674.784 132.756C676.03 131.952 677.082 130.927 677.941 129.707L726.271 59.4699C729.29 55.0904 730.813 49.8518 730.619 44.6685C730.232 34.9949 728.625 27.9268 727.961 25.3491C727.573 23.8523 727.85 22.2724 728.736 21.0251L732.586 15.4537L724.582 9.93787L720.732 15.5092C719.846 16.7842 718.488 17.6158 716.965 17.7821C714.306 18.087 707.133 19.1126 697.993 22.1893C693.091 23.8523 688.715 27.1508 685.724 31.5302L637.394 101.768C636.563 102.987 635.981 104.345 635.677 105.814L633.849 114.767C633.627 115.821 634.07 116.874 634.929 117.484C635.206 117.678 635.483 117.789 635.787 117.872L645.564 120.255L645.121 124.164C644.844 126.492 645.897 128.737 647.808 130.068C649.719 131.398 652.211 131.537 654.288 130.483L657.778 128.654Z" fill="#525285"/>
<g opacity="0.5">
<path d="M682.428 51.4594C686.028 49.2142 688.189 44.5576 691.097 41.5086C694.697 37.739 699.018 35.2721 703.089 32.1122C705.942 29.9225 703.615 25.848 700.264 27.2893C695.307 29.4236 690.958 33.9139 687.635 38.0439C684.92 41.4255 680.96 46.2761 681.431 50.8773C681.486 51.3485 681.985 51.7366 682.428 51.4594Z" fill="white"/>
</g>
<path d="M733.361 20.9142L719.181 11.1575C718.738 10.8526 718.627 10.2429 718.932 9.79938L724.637 1.48399C725.468 0.292112 727.102 -0.0128434 728.293 0.818696L739.759 8.71834C740.95 9.54988 741.255 11.1853 740.424 12.3771L734.719 20.6925C734.414 21.1083 733.805 21.2191 733.361 20.9142Z" fill="#6C6CB2"/>
<path opacity="0.5" d="M732.641 13.1532C728.044 13.5967 723.003 12.1554 719.403 9.10645L718.932 9.79939C718.627 10.2429 718.738 10.8527 719.181 11.1575L733.361 20.9142C733.805 21.2191 734.414 21.1083 734.719 20.6648L740.424 12.3494C740.839 11.7396 740.978 11.019 740.839 10.326C738.347 11.8228 735.549 12.8761 732.641 13.1532Z" fill="#6C6CB2"/>
<path d="M1848.71 46.5962C1694.02 9.61935 1530.02 6.6855 1370.88 17.4797C1194.39 29.4639 1020.31 58.6635 844.979 78.6742C669.067 98.7403 492.51 103.861 315.728 88.8319C239.219 82.3277 163.193 72.1147 87.8114 59.1341C58.0579 54.0138 28.24 48.0078 0 38.3208V318H1920V68.0462C1896.85 59.2171 1872.63 52.3255 1848.71 46.5962Z" fill="#00A0E3"/>
<path opacity="0.25" d="M1881.55 162.613C1725.96 102.767 1553.46 100.324 1386.72 115.23C1219.31 130.192 1054.38 162.335 886.389 172.938C712.151 183.931 536.754 198.309 362.129 184.902C281.627 178.74 201.093 166.582 124.391 144.237C81.178 131.663 35.0344 114.731 0 88V318H1920V178.768C1907.25 172.966 1894.4 167.553 1881.55 162.613Z" fill="white"/>
<path d="M1822.26 281.725C1762.11 265.696 1699.41 257.625 1636.87 252.495C1572.72 247.225 1508.12 244.48 1443.78 242.317C1266.61 236.354 1089.28 241.707 912.146 245.894C734.301 250.11 556.101 253.188 378.481 242.622C297.924 237.824 216.496 229.171 139.646 207.013C106.475 197.445 74.6583 184.993 43.7441 170.987C30.1083 164.803 16.4403 158.147 4.57749 149.578C2.93346 148.385 1.41838 147.193 0 146V318H1920C1889.41 302.47 1856.08 290.738 1822.26 281.725Z" fill="#8CDDFF"/>
<g opacity="0.35">
<path d="M1094.86 94.5887C1113.66 101.38 1137.3 99.1344 1157.16 96.8616C1178.76 94.3947 1200.21 91.2071 1221.62 87.7701C1266.75 80.508 1311.8 71.9708 1357.38 66.9816C1449.21 56.92 1542.6 61.4933 1632.59 79.9812C1661.02 85.8297 1673.03 47.468 1644.63 42.3957C1551.3 25.7649 1455.93 22.9931 1361.6 34.6624C1315.4 40.3723 1270.62 50.7388 1225.54 60.8282C1203.17 65.8451 1180.7 70.7235 1158.06 74.7703C1137.07 78.54 1112.8 80.7851 1094.25 90.3478C1092.03 91.4565 1092.8 93.868 1094.86 94.5887Z" fill="white"/>
</g>
<g opacity="0.35">
<path d="M1051.53 84.1667C1050.95 84.1945 1050.37 84.1667 1049.76 84.139C1052.59 84.5271 1053.17 84.5825 1051.49 84.2776C1049.02 83.1135 1045.28 83.3907 1042.51 83.6956C1039.2 84.0836 1039.29 84.0559 1042.87 83.6678C1042.19 83.7233 1041.48 83.751 1040.81 83.7232C1038.84 83.6124 1039.42 83.6955 1042.54 84.0004C1041.87 83.8896 1041.19 83.7232 1040.55 83.5292C1031.47 81.1732 1020.39 86.3288 1018.27 94.4224C1016.05 102.821 1021.2 111.081 1030.92 113.603C1036.46 115.045 1043.54 115.516 1049.21 114.102C1055.78 112.467 1061.12 108.198 1063.95 102.849C1066.18 98.6909 1066.76 94.4224 1063.95 90.2924C1061.44 86.5782 1056.58 84.1113 1051.53 84.1667Z" fill="white"/>
</g>
<g opacity="0.35">
<path d="M71.1427 157.37C74.1691 170.702 98.7986 174.721 111.516 178.519C132.314 184.7 153.338 190.437 174.49 195.648C216.859 206.098 259.873 213.665 303.465 219.236C390.168 230.324 477.836 233.733 565.375 229.159C588.588 227.94 588.621 196.563 565.375 197.977C479.092 203.243 392.132 201.137 306.427 190.687C264.863 185.614 223.395 178.74 182.41 170.896C160.936 166.794 139.558 162.165 118.373 157.093C105.238 153.933 84.0853 145.202 72.173 153.933C71.0461 154.792 70.8529 156.206 71.1427 157.37Z" fill="white"/>
</g>
</svg>
