<svg width="100" height="100" viewBox="0 0 100 100" fill="none" xmlns="http://www.w3.org/2000/svg">
<path d="M86.0151 40.625L78.2026 27.0703C77.2729 25.4802 75.9581 24.1497 74.3791 23.2012C72.8002 22.2527 71.0079 21.7169 69.1675 21.6429C67.327 21.569 65.4976 21.9594 63.8476 22.7782C62.1977 23.5969 60.7803 24.8177 59.7261 26.3281L52.9683 14.6094C51.5138 12.0963 49.1228 10.2619 46.3188 9.5078C43.5147 8.75371 40.5262 9.14139 38.0073 10.5859C36.4392 11.5117 35.1137 12.797 34.1402 14.3359C32.8555 13.1845 31.3159 12.3544 29.648 11.9141C28.2656 11.5251 26.8186 11.4216 25.3949 11.6096C23.9712 11.7976 22.6007 12.2733 21.3667 13.0078C20.1198 13.7206 19.0261 14.6727 18.1485 15.8096C17.2708 16.9464 16.6265 18.2456 16.2526 19.6322C15.8787 21.0189 15.7826 22.4659 15.9698 23.8898C16.1569 25.3138 16.6237 26.6867 17.3433 27.9297L18.6714 30.1953C17.0477 30.3339 15.4742 30.8273 14.062 31.6406C11.5661 33.1014 9.74752 35.4882 9.00146 38.2823C8.25539 41.0763 8.64214 44.052 10.0777 46.5625L26.4839 75C28.7055 78.9768 31.6954 82.4723 35.2798 85.2835C38.8641 88.0946 42.9715 90.1653 47.3631 91.3753C51.7547 92.5852 56.343 92.9102 60.8614 92.3314C65.3797 91.7526 69.7379 90.2815 73.6827 88.0036C77.6276 85.7258 81.0803 82.6866 83.8403 79.0627C86.6003 75.4388 88.6125 71.3025 89.76 66.8941C90.9075 62.4858 91.1673 57.8933 90.5244 53.3837C89.8816 48.874 88.3488 44.5371 86.0151 40.625ZM83.398 65.0781C82.4593 68.6497 80.8187 71.9987 78.572 74.9295C76.3252 77.8603 73.5173 80.3144 70.312 82.1484C63.8507 85.875 56.1749 86.8862 48.9688 84.9602C41.7628 83.0342 35.6151 78.3283 31.8745 71.875L15.4683 43.4375C14.8467 42.3601 14.6785 41.0798 15.0009 39.8784C15.3232 38.677 16.1096 37.6529 17.187 37.0313C18.2645 36.4097 19.5447 36.2415 20.7461 36.5638C21.9475 36.8862 22.9717 37.6726 23.5933 38.75L32.187 53.6328C32.3922 53.9893 32.6656 54.3019 32.9916 54.5528C33.3176 54.8037 33.6899 54.9878 34.087 55.0948C34.4842 55.2019 34.8986 55.2296 35.3065 55.1764C35.7144 55.1233 36.1079 54.9903 36.4644 54.7852C36.8209 54.58 37.1335 54.3066 37.3844 53.9806C37.6352 53.6546 37.8194 53.2823 37.9264 52.8851C38.0334 52.488 38.0611 52.0736 38.008 51.6657C37.9549 51.2578 37.8219 50.8643 37.6167 50.5078L29.023 35.625L22.773 24.8047C22.1518 23.7287 21.9832 22.4502 22.3042 21.25C22.4593 20.6524 22.7328 20.0921 23.1086 19.6022C23.4844 19.1124 23.9547 18.703 24.4917 18.3984C25.5677 17.7773 26.8462 17.6087 28.0464 17.9297C29.2405 18.2698 30.2601 19.052 30.898 20.1172L33.9839 25.5469H34.023L44.1792 43.125C44.443 43.6067 44.8337 44.007 45.3088 44.2824C45.7839 44.5578 46.3254 44.6979 46.8745 44.6875C47.426 44.6984 47.9687 44.5491 48.437 44.2578C49.1499 43.8416 49.6692 43.1603 49.8815 42.3625C50.0937 41.5648 49.9817 40.7154 49.5698 40L39.4136 22.4219C38.792 21.3444 38.6239 20.0642 38.9462 18.8628C39.2685 17.6614 40.0549 16.6372 41.1323 16.0156C42.2098 15.394 43.49 15.2259 44.6914 15.5482C45.8928 15.8706 46.917 16.6569 47.5386 17.7344L59.2573 38.0078L61.7183 42.3047C58.3141 45.1377 56.0201 49.0821 55.2411 53.4418C54.4621 57.8015 55.2481 62.2962 57.4605 66.1328C57.9069 66.7804 58.5811 67.2359 59.3485 67.4083C60.116 67.5807 60.9202 67.4573 61.6007 67.0628C62.2812 66.6683 62.7879 66.0317 63.0197 65.2801C63.2515 64.5284 63.1912 63.717 62.8511 63.0078C61.1947 60.1378 60.7456 56.7275 61.6026 53.5266C62.4596 50.3256 64.5526 47.5959 67.4214 45.9375C67.7824 45.7316 68.0993 45.4566 68.354 45.1281C68.6087 44.7997 68.7962 44.4243 68.9058 44.0234C69.0965 43.2305 68.9851 42.395 68.5933 41.6797L64.687 34.8828C64.2347 34.0805 64.0288 33.1628 64.0949 32.2442C64.161 31.3256 64.4963 30.4468 65.0588 29.7176C65.6214 28.9884 66.3863 28.4411 67.258 28.1439C68.1297 27.8468 69.0697 27.813 69.9605 28.0469C70.5477 28.202 71.0985 28.4717 71.5811 28.8404C72.0638 29.2091 72.4688 29.6696 72.773 30.1953L80.5855 43.75C82.4532 46.9377 83.6642 50.4669 84.1472 54.1298C84.6302 57.7927 84.3755 61.5152 83.398 65.0781ZM34.2573 95.5469C33.9624 95.9554 33.5752 96.2887 33.1272 96.5194C32.6792 96.7502 32.1831 96.872 31.6792 96.875C31.0404 96.8673 30.4171 96.6776 29.8823 96.3281C24.2008 92.4024 19.4748 87.2492 16.0542 81.25C15.8096 80.8952 15.6411 80.4936 15.5592 80.0705C15.4772 79.6475 15.4837 79.212 15.5782 78.7916C15.6726 78.3711 15.853 77.9747 16.108 77.6273C16.363 77.2799 16.6871 76.989 17.0599 76.7729C17.4327 76.5568 17.8462 76.4201 18.2744 76.3714C18.7026 76.3228 19.1362 76.3632 19.548 76.4902C19.9598 76.6172 20.3409 76.828 20.6673 77.1093C20.9938 77.3906 21.2585 77.7364 21.4448 78.125C24.4299 83.3184 28.5411 87.7767 33.4761 91.1719C34.1552 91.6521 34.6179 92.3803 34.7641 93.1991C34.9103 94.0179 34.7283 94.8613 34.2573 95.5469ZM65.6245 12.1094C65.6245 11.2806 65.9538 10.4857 66.5398 9.89967C67.1259 9.31361 67.9207 8.98438 68.7495 8.98438C72.8646 8.98963 76.9063 10.0747 80.4708 12.1311C84.0352 14.1875 86.9976 17.1433 89.062 20.7031C89.2696 21.0584 89.4041 21.4516 89.4574 21.8596C89.5108 22.2676 89.4821 22.6821 89.3729 23.0789C89.2637 23.4756 89.0763 23.8465 88.8216 24.1697C88.567 24.4929 88.2503 24.7619 87.8902 24.9609C87.4237 25.2565 86.8796 25.4061 86.3277 25.3906C85.781 25.3887 85.2444 25.2434 84.7714 24.9692C84.2984 24.695 83.9057 24.3016 83.6323 23.8281C82.124 21.2156 79.9546 19.0461 77.3421 17.5376C74.7297 16.0291 71.7662 15.2347 68.7495 15.2344C67.9207 15.2344 67.1259 14.9051 66.5398 14.3191C65.9538 13.733 65.6245 12.9382 65.6245 12.1094Z" fill="#00A0E3"/>
</svg>
