<svg width="100" height="74" viewBox="0 0 100 74" fill="none" xmlns="http://www.w3.org/2000/svg">
<path d="M96.8751 37C96.8754 41.3267 95.5927 45.5563 93.189 49.1539C90.7854 52.7515 87.3689 55.5556 83.3715 57.2114C79.3742 58.8672 74.9756 59.3004 70.7321 58.4562C66.4885 57.612 62.5906 55.5283 59.5314 52.4688L59.4142 52.3125L35.9767 25.9062C34.537 24.4634 32.8258 23.3201 30.9418 22.5424C29.0578 21.7646 27.0383 21.3679 25.0001 21.375C20.8561 21.375 16.8818 23.0212 13.9516 25.9515C11.0213 28.8817 9.37512 32.856 9.37512 37C9.37512 41.144 11.0213 45.1183 13.9516 48.0485C16.8818 50.9788 20.8561 52.625 25.0001 52.625C27.0383 52.6321 29.0578 52.2354 30.9418 51.4576C32.8258 50.6799 34.537 49.5366 35.9767 48.0938L39.297 44.3438C39.8461 43.7222 40.6196 43.3441 41.4474 43.2929C42.2752 43.2416 43.0895 43.5212 43.7111 44.0703C44.3327 44.6194 44.7107 45.3929 44.762 46.2207C44.8132 47.0485 44.5336 47.8628 43.9845 48.4844L40.5861 52.3125L40.4689 52.4688C38.4376 54.5003 36.026 56.1118 33.3718 57.2112C30.7177 58.3107 27.873 58.8766 25.0001 58.8766C22.1273 58.8766 19.2826 58.3107 16.6284 57.2112C13.9743 56.1118 11.5627 54.5003 9.53137 52.4688C6.47178 49.4095 4.38814 45.5116 3.54395 41.268C2.69977 37.0245 3.13297 32.6259 4.78877 28.6286C6.44457 24.6313 9.24858 21.2147 12.8462 18.8111C16.4438 16.4075 20.6734 15.1247 25.0001 15.125C27.8745 15.1141 30.7223 15.6748 33.3779 16.7746C36.0335 17.8744 38.4439 19.4913 40.4689 21.5313L40.5861 21.6875L64.0236 48.0938C65.4632 49.5366 67.1745 50.6799 69.0585 51.4576C70.9425 52.2354 72.9619 52.6321 75.0001 52.625C79.1441 52.625 83.1184 50.9788 86.0487 48.0485C88.9789 45.1183 90.6251 41.144 90.6251 37C90.6251 32.856 88.9789 28.8817 86.0487 25.9515C83.1184 23.0212 79.1441 21.375 75.0001 21.375C72.9619 21.3679 70.9425 21.7646 69.0585 22.5424C67.1745 23.3201 65.4632 24.4634 64.0236 25.9062L60.7032 29.6562C60.1542 30.2779 59.3806 30.6559 58.5528 30.7072C57.725 30.7584 56.9108 30.4788 56.2892 29.9297C55.6676 29.3806 55.2896 28.6071 55.2383 27.7793C55.187 26.9515 55.4667 26.1372 56.0157 25.5156L59.4142 21.6875L59.5314 21.5313C62.5906 18.4717 66.4885 16.388 70.7321 15.5438C74.9756 14.6996 79.3742 15.1329 83.3715 16.7886C87.3689 18.4444 90.7854 21.2485 93.189 24.8461C95.5927 28.4437 96.8754 32.6733 96.8751 37Z" fill="#00A0E3"/>
</svg>
