<svg width="1024" height="110" viewBox="0 0 1024 110" fill="none" xmlns="http://www.w3.org/2000/svg">
<path d="M828.325 30L776 144L862 105.182L828.325 30ZM810.652 110.845L807.66 112.194L827.49 68.9812L827.999 67.8773L841.09 97.1081L810.673 110.845H810.652Z" fill="#FF9E1C"/>
<path d="M856.971 104.63C857.093 104.896 857.399 105.06 857.704 105.019C858.071 104.957 858.294 104.61 858.233 104.242C857.969 102.872 857.582 101.544 857.073 100.297V100.276C856.93 99.9494 856.544 99.8063 856.218 99.929C855.872 100.072 855.709 100.46 855.851 100.788C856.34 101.973 856.706 103.2 856.951 104.487C856.93 104.528 856.951 104.59 856.971 104.63Z" fill="#E16505"/>
<path d="M848.501 103.813L850.13 107.451C850.273 107.778 850.68 107.942 851.006 107.778C851.331 107.635 851.494 107.226 851.331 106.899L849.703 103.261C849.56 102.934 849.153 102.77 848.827 102.934C848.501 103.077 848.359 103.465 848.501 103.813Z" fill="#E16505"/>
<path d="M840.276 112.235C840.398 112.521 840.744 112.684 841.05 112.602C841.396 112.5 841.599 112.132 841.518 111.785C841.152 110.477 840.643 109.209 839.971 108.024C839.787 107.697 839.38 107.594 839.075 107.778C838.749 107.962 838.647 108.371 838.831 108.678C839.441 109.761 839.93 110.947 840.256 112.153C840.256 112.153 840.256 112.194 840.276 112.235Z" fill="#E16505"/>
<path d="M828.63 115.055C828.997 115.893 829.465 116.67 829.994 117.406C830.218 117.713 830.625 117.774 830.911 117.549C831.216 117.324 831.277 116.916 831.053 116.629C830.381 115.689 829.831 114.667 829.465 113.584C829.343 113.236 828.956 113.052 828.63 113.175C828.284 113.297 828.101 113.665 828.223 114.013C828.345 114.381 828.488 114.728 828.63 115.055Z" fill="#E16505"/>
<path d="M819.224 117.529C819.244 117.57 819.265 117.59 819.285 117.631C819.977 118.653 820.547 119.736 821.016 120.881V120.902C821.158 121.229 821.545 121.372 821.871 121.249C822.217 121.106 822.38 120.718 822.237 120.391C821.728 119.164 821.117 117.999 820.384 116.895C820.181 116.588 819.774 116.507 819.468 116.711C819.204 116.875 819.102 117.243 819.224 117.529Z" fill="#E16505"/>
<path d="M809.879 121.658C809.879 121.678 809.899 121.699 809.899 121.699C810.449 122.7 810.938 123.763 811.345 124.806C811.447 125.133 811.854 125.317 812.2 125.174C812.546 125.051 812.709 124.663 812.566 124.315C812.139 123.191 811.63 122.108 811.039 121.045C810.856 120.718 810.469 120.615 810.143 120.779C809.858 120.963 809.736 121.331 809.879 121.658Z" fill="#E16505"/>
<path d="M802.794 128.301C802.916 128.567 803.038 128.833 803.16 129.078C803.323 129.405 803.71 129.548 804.036 129.385C804.361 129.221 804.565 128.792 804.341 128.506C803.73 127.238 803.201 125.889 802.814 124.52C802.712 124.172 802.346 123.968 802 124.07C801.653 124.172 801.45 124.54 801.552 124.888C801.898 126.053 802.305 127.197 802.794 128.301Z" fill="#E16505"/>
<path d="M791.127 129.385C791.127 129.385 791.127 129.405 791.148 129.405L792.817 132.717C792.98 133.044 793.387 133.166 793.713 133.003C794.039 132.839 794.202 132.41 793.998 132.103L792.329 128.792C792.166 128.465 791.758 128.342 791.433 128.506C791.127 128.669 790.985 129.058 791.127 129.385Z" fill="#E16505"/>
<path d="M832.967 46.2711C833.252 46.1485 833.415 45.801 833.333 45.4944C833.232 45.1469 832.865 44.9424 832.519 45.0242C831.216 45.3922 829.954 45.9032 828.773 46.5777C828.447 46.7617 828.345 47.1705 828.528 47.4771C828.712 47.8042 829.119 47.9064 829.424 47.7224C830.503 47.1092 831.684 46.6186 832.885 46.2915C832.906 46.2915 832.946 46.2915 832.967 46.2711Z" fill="#E16505"/>
<path d="M835.797 57.9634C836.632 57.5955 837.405 57.1253 838.138 56.5939C838.444 56.369 838.505 55.9602 838.281 55.674C838.057 55.3674 837.65 55.3061 837.365 55.5309C836.428 56.2055 835.41 56.7574 834.331 57.1253C833.985 57.248 833.802 57.6364 833.924 57.9634C834.046 58.3109 834.433 58.4949 834.759 58.3722C835.125 58.2496 835.471 58.1065 835.797 57.9634Z" fill="#E16505"/>
<path d="M838.24 67.4072C838.281 67.3867 838.301 67.3663 838.342 67.3459C839.36 66.6509 840.439 66.0785 841.579 65.6084H841.599C841.925 65.4653 842.068 65.0769 841.946 64.7499C841.803 64.4024 841.416 64.2388 841.09 64.3819C839.869 64.893 838.708 65.5062 837.609 66.2421C837.303 66.4465 837.222 66.8553 837.426 67.1619C837.609 67.4276 837.955 67.5298 838.24 67.4072Z" fill="#E16505"/>
<path d="M842.353 76.7897C842.373 76.7897 842.393 76.7692 842.393 76.7692C843.391 76.2173 844.45 75.7267 845.488 75.3179C845.814 75.2157 845.997 74.8069 845.855 74.4594C845.732 74.1119 845.346 73.9484 845 74.0914C843.88 74.5207 842.801 75.0317 841.742 75.6245C841.416 75.8085 841.314 76.1969 841.477 76.5239C841.661 76.8101 842.047 76.9328 842.353 76.7897Z" fill="#E16505"/>
<path d="M848.99 83.8827C849.255 83.7601 849.519 83.6374 849.764 83.5148C850.089 83.3513 850.232 82.9629 850.069 82.6358C849.906 82.3088 849.479 82.1044 849.194 82.3292C847.931 82.9424 846.588 83.4739 845.224 83.8623C844.877 83.9645 844.674 84.3324 844.776 84.6799C844.877 85.0274 845.244 85.2318 845.59 85.1296C846.75 84.8026 847.891 84.3938 848.99 83.8827Z" fill="#E16505"/>
<path d="M850.049 95.6159C850.049 95.6159 850.069 95.6159 850.069 95.5955L853.367 93.9193C853.693 93.7558 853.815 93.347 853.652 93.0199C853.49 92.6928 853.062 92.5293 852.757 92.7337L849.458 94.4099C849.133 94.5734 849.01 94.9822 849.173 95.3093C849.357 95.6159 849.723 95.759 850.049 95.6159Z" fill="#E16505"/>
<path d="M847.911 96.3722C847.422 95.064 846.873 93.7762 846.364 92.4884C843.859 86.3357 841.213 80.2646 838.403 74.2345C836.998 71.2297 835.553 68.2453 834.066 65.2609C832.682 62.4809 831.623 59.5987 830.137 56.88C829.119 60.355 828.447 64.014 827.979 67.6116C827.958 67.7956 827.897 67.9796 827.877 68.1635L828.019 67.8569L841.111 97.0877L810.693 110.824C823.092 107.676 835.268 103.588 847.076 98.6003C847.463 98.4368 847.87 98.2324 848.074 97.8644C848.277 97.4147 848.094 96.8628 847.911 96.3722Z" fill="#E19D42"/>
<path d="M802.183 106.102C804.483 100.685 806.784 95.2684 809.085 89.8515C810.164 87.2964 815.804 78.1797 814.114 75.6654C811.406 71.6385 806.418 84.1485 805.481 85.8451C803.058 90.2604 800.798 94.7778 798.681 99.3566C794.69 107.983 791.555 116.977 788.094 125.828C787.564 127.197 785.223 132.798 787.849 132.819C790.048 132.819 792.247 127.402 793.021 125.951C796.482 119.512 799.332 112.807 802.183 106.102Z" fill="#FFBB60"/>
<path d="M150.347 91.4129C149.774 90.7376 149.336 89.8597 149.134 88.8467C148.73 86.8545 149.202 84.5922 150.448 82.4649C151.525 80.6753 152.973 79.2233 154.387 77.8051L162.805 69.4649C167.823 64.4675 173.042 60.0779 178.295 56.3974C179.608 55.4857 181.022 54.574 182.672 54.1688C186.107 53.3584 189.878 55.2155 191.326 58.4571C192.336 60.6857 192.235 63.522 191.057 66.1896C189.272 70.309 186.141 73.5506 183.076 76.6909L182.807 76.961C179.137 80.709 175.332 84.4233 171.459 88.0025C171.022 88.4077 170.314 88.374 169.91 87.935C169.506 87.496 169.54 86.787 169.978 86.3818C173.816 82.8701 177.621 79.1558 181.224 75.4415L181.494 75.1714C184.423 72.1662 187.42 69.0934 189.036 65.3454C189.946 63.2181 190.047 61.0571 189.306 59.3688C188.296 57.1064 185.534 55.7558 183.177 56.3298C181.898 56.6337 180.719 57.4103 179.541 58.2207C174.355 61.8337 169.271 66.122 164.321 71.0181L155.97 79.3584C154.657 80.6753 153.276 82.0259 152.333 83.5792C151.357 85.2337 150.986 86.922 151.289 88.4077C151.458 89.2856 151.929 89.9948 152.468 90.3999C153.781 91.2779 155.835 90.535 156.913 89.9948C160.011 88.4415 162.671 86.0779 165.264 83.7818L178.126 72.3688C179.978 70.7142 182.1 68.8233 182.908 66.3922C183.278 65.3116 183.278 63.8934 182.504 63.2519C182.134 62.9142 181.561 62.7454 180.955 62.7792C179.271 62.8467 177.79 64.1636 176.274 65.6155L168.193 73.5506C167.755 73.9558 167.082 73.9558 166.644 73.5168C166.206 73.0779 166.24 72.4025 166.678 71.9636L174.759 64.0285C176.14 62.6779 178.194 60.6519 180.888 60.5506C182.066 60.5168 183.177 60.8545 183.952 61.5636C185.568 62.9818 185.534 65.3454 184.996 67.0337C184.019 70.0051 181.561 72.2 179.574 73.9558L166.711 85.4363C164.018 87.8337 161.256 90.2986 157.923 91.9532C155.263 93.2701 152.973 93.3714 151.289 92.2233C150.919 91.987 150.616 91.7168 150.347 91.4129Z" fill="#007A7B"/>
<path fill-rule="evenodd" clip-rule="evenodd" d="M687.694 -9.16924C694.551 -15.2983 689.653 -26.8682 680.217 -24.7378C673.751 -23.2957 675.025 -13.6595 678.486 -9.95586C680.086 -8.21874 682.502 -7.03881 684.788 -7.56322C685.866 -7.82543 686.845 -8.4154 687.694 -9.16924Z" fill="#F7A60C"/>
<path fill-rule="evenodd" clip-rule="evenodd" d="M691.155 15.4782C692.004 8.85751 684.853 2.85951 678.715 6.23544C673.849 8.92306 670.519 16.1993 675.351 20.4274C676.657 21.5746 678.257 22.3284 679.89 23.0167C680.935 23.4756 682.013 23.9017 683.155 24C685.31 24.1639 687.433 23.0495 688.804 21.4107C690.176 19.7391 690.894 17.6087 691.155 15.4782Z" fill="#F7A60C"/>
<path fill-rule="evenodd" clip-rule="evenodd" d="M720.445 17.6415C723.384 7.54647 714.339 6.39931 706.698 9.84079C706.731 11.4796 705.882 12.9545 705.947 14.6261C706.013 17.3792 708.102 19.6736 710.225 21.4107C711.857 22.7217 713.915 23.9672 715.972 23.4756C718.486 22.9184 719.727 20.1324 720.445 17.6415Z" fill="#F7A60C"/>
<path fill-rule="evenodd" clip-rule="evenodd" d="M195.144 -57.2192C195.144 -57.2192 234.942 -7.11236 244.462 2.66294C252.292 10.7023 271.52 32.4605 276.1 36.5223C278.801 38.9156 282.254 42.2527 285.229 44.5954C285.75 45.0168 286.948 45.6574 288.191 46.4495C290.285 47.7641 295.948 49.7866 296.497 49.7866C300.918 49.7697 299.502 44.5114 298.592 41.899C297.971 40.0957 296.122 36.1013 295.11 34.3316C292.25 29.2923 289.303 24.2864 286.327 19.2807C282.282 12.5223 211.251 -73.1801 207.582 -77.5621C204.259 -81.5396 201.268 -82.3992 195.591 -78.4385C186.765 -72.2531 186.996 -68.1743 195.144 -57.2192Z" fill="#E16505"/>
<path fill-rule="evenodd" clip-rule="evenodd" d="M291.781 38.83L202.82 -67.467C202.059 -68.3625 200.697 -68.5015 199.802 -67.7404C198.88 -66.979 198.768 -65.6163 199.528 -64.7208L288.49 41.5762C289.251 42.4984 290.613 42.6107 291.508 41.8497C292.403 41.0886 292.542 39.7255 291.781 38.83Z" fill="#FF9E1C"/>
<path fill-rule="evenodd" clip-rule="evenodd" d="M284.975 44.3927C284.868 44.3394 284.788 44.3127 284.682 44.2593C283.348 43.4855 282.868 41.8045 283.615 40.4437C284.148 39.4832 285.189 38.9762 286.202 39.0296C285.882 38.2558 285.935 37.3753 286.362 36.6015C287.082 35.2941 288.708 34.8138 290.015 35.4541C290.042 35.0539 290.175 34.6804 290.362 34.3068C291.108 32.9727 292.815 32.4924 294.175 33.2395C294.762 33.5597 295.188 34.0933 295.402 34.6804C296.095 35.9611 297.935 40.2036 298.335 41.0308C299.775 43.9925 303.562 54.1852 302.895 54.9323C302.175 55.7861 288.788 46.7408 284.975 44.3927Z" fill="#007A7B"/>
<path fill-rule="evenodd" clip-rule="evenodd" d="M196.815 -55.1058C197.375 -55.6661 197.935 -56.1731 198.495 -56.7334C201.588 -59.6952 204.708 -62.7369 208.148 -65.2985C210.042 -66.7126 211.935 -68.5003 214.042 -69.621L214.122 -69.6744C210.548 -73.9969 208.175 -76.8519 207.562 -77.5723C204.228 -81.548 201.242 -82.4018 195.588 -78.4262C186.788 -72.2626 187.002 -68.1802 195.135 -57.2137C195.135 -57.2137 195.748 -56.4666 196.815 -55.1058Z" fill="#007A7B"/>
<path fill-rule="evenodd" clip-rule="evenodd" d="M295.082 50.8765C295.535 49.916 296.228 49.0088 297.108 48.235C298.148 47.3278 299.349 46.7408 300.575 46.474C301.988 50.2895 303.348 54.5053 302.922 54.9856C302.548 55.3859 299.002 53.3046 295.082 50.8765Z" fill="#023C61"/>
<path fill-rule="evenodd" clip-rule="evenodd" d="M972.209 53.6859C970.919 55.5696 969.655 57.5552 969.402 59.8208C968.467 67.3814 977.392 67.6105 982.65 67.1013C989.906 66.3886 997.491 65.1158 1002.85 60.0754C1003.63 59.3626 1004.37 58.5226 1005.05 57.6062C1002.24 56.2061 999.715 54.2968 997.642 51.9548C999.665 52.2603 1001.51 53.2786 1003.41 53.9659C1005.33 54.6787 1007.53 55.086 1009.35 54.2459C1011.8 53.1259 1012.86 50.2493 1013.34 47.6018C1014.25 42.6124 1015.87 37.9793 1016.88 32.939C1017.16 31.6916 1018.3 23.011 1020.14 23.011C1016.83 22.9856 1013.52 22.3492 1010.41 21.1782C1012.36 20.5163 1014.33 19.829 1016.28 19.1671C1018.12 18.5307 1020.12 17.7671 1021.13 16.0869C1022.17 14.4323 1021.89 12.4467 1022.12 10.6393C1022.44 8.19549 1022.92 5.85351 1023 3.38425C1023.18 -1.50336 1022.52 -6.41643 1021.33 -11.2022C1019.46 -18.4318 1016.4 -25.305 1013.04 -32C1013.32 -29.8362 1013.32 -27.647 1013.09 -25.4832C1012.71 -21.5629 1011.57 -17.6936 1009.78 -14.1806C1007.93 -10.5403 1005.43 -7.28194 1002.32 -4.65994C1000.47 -3.08165 998.451 -1.75792 996.429 -0.357826C995.948 -0.00143433 995.367 0.431313 995.367 1.04227C995.342 1.47502 995.62 1.88232 995.873 2.23871C997.364 4.37704 998.477 6.76993 999.184 9.26465C997.44 7.71181 995.696 6.13353 993.926 4.55524C993.724 4.37704 993.547 4.19885 993.269 4.17339C992.915 4.12248 992.586 4.4025 992.333 4.65706C988.693 8.22094 985.962 12.6249 983.307 16.927C980.779 20.9491 979.187 24.513 980.526 29.2988C981.538 32.8372 982.574 36.5029 984.774 39.4813C981.032 38.463 977.619 36.3247 975.066 33.4227C974.08 38.1066 976.658 43.0706 975.47 47.7036C974.838 49.9183 973.473 51.8021 972.209 53.6859Z" fill="#007A7B"/>
<path fill-rule="evenodd" clip-rule="evenodd" d="M1013.62 4.58069C1013.44 0.227661 1013.47 -4.12536 1013.75 -8.45293C1013.87 -10.3112 1014.18 -12.195 1014.08 -14.0533C1013.97 -15.988 1013.47 -17.7445 1014.43 -19.5773C1014.56 -19.8064 1014.71 -20.0355 1014.96 -20.061C1015.24 -20.1119 1015.49 -19.8573 1015.67 -19.6282C1018.85 -15.6825 1019.08 -11.0749 1019.97 -6.34006C1020.93 -1.17243 1020.62 4.27522 1019.76 9.4683C1019.59 10.512 1019.38 11.5812 1018.73 12.3958C1018.1 13.2104 1016.88 13.694 1015.97 13.1849C1015.36 12.854 1015.04 12.2176 1014.78 11.5812C1013.9 9.36648 1013.72 6.94812 1013.62 4.58069Z" fill="#4CA2A3"/>
<path fill-rule="evenodd" clip-rule="evenodd" d="M1006.84 33.8554C1007.98 31.9717 1008.99 29.6551 1010.54 28.0768C1011.85 26.7022 1014.13 27.2113 1014.58 29.2224C1014.86 30.5206 1013.97 31.2589 1013.47 32.328C1011.67 36.0192 1011.27 40.7541 1010.13 44.7253C1009.75 46.049 1009.35 47.3982 1008.49 48.4673C1007.63 49.5365 1006.24 50.3002 1004.92 49.9947C1003.81 49.7401 1002.93 48.7728 1002.55 47.6527C1002.17 46.5581 1002.19 45.3617 1002.37 44.2161C1002.93 40.4486 1004.92 37.1138 1006.84 33.8554Z" fill="#4CA2A3"/>
<path fill-rule="evenodd" clip-rule="evenodd" d="M972.209 53.6859C970.919 55.5696 969.655 57.5552 969.402 59.8208C968.467 67.3814 977.392 67.6105 982.65 67.1013C989.906 66.3886 997.491 65.1158 1002.85 60.0754C998.401 60.5591 994.002 61.0173 989.552 61.4755C986.923 61.7555 984.218 62.0355 981.689 61.2973C979.136 60.5845 976.759 58.599 976.355 55.9515C976.178 54.6787 976.431 53.4313 976.709 52.1585C977.392 48.9001 978.099 45.6926 978.782 42.4597C978.833 42.2306 978.883 41.976 979.035 41.8232C979.414 41.3905 980.097 41.6196 980.602 41.8487C982.473 42.6633 984.395 43.3761 986.367 43.9361C986.973 44.1143 987.808 44.1907 988.086 43.6306C988.339 43.1215 988.01 42.5615 987.681 42.1287C985.103 38.6667 983.004 34.7719 981.462 30.7243C980.956 29.3751 980.501 27.975 980.501 26.524C980.501 23.5965 982.271 21 983.965 18.658C985.987 15.8578 988.01 13.0067 990.058 10.2065C990.311 9.8756 990.563 9.51921 990.993 9.41739C991.322 9.34102 991.651 9.51921 991.979 9.64649C995.241 11.2248 998.502 12.7776 1001.79 14.3305C1001.89 10.792 1001.06 7.20269 1000.55 3.71518C1000.47 3.40971 1000.45 3.07877 1000.57 2.8242C1000.7 2.46782 1001.08 2.26417 1001.41 2.06052C1003.66 0.711334 1005.33 -1.40154 1006.74 -3.59078C1010.89 -10.0567 1013.14 -17.719 1013.17 -25.4323C1012.79 -21.512 1011.65 -17.6427 1009.85 -14.1297C1008.01 -10.4894 1005.5 -7.23103 1002.4 -4.60903C1000.55 -3.03074 998.527 -1.70701 996.505 -0.306915C996.024 0.049469 995.443 0.482224 995.443 1.09318C995.417 1.52593 995.696 1.93324 995.948 2.28963C997.44 4.42796 998.552 6.82085 999.26 9.31556C997.516 7.76273 995.771 6.18444 994.002 4.60615C993.799 4.42796 993.622 4.24976 993.344 4.2243C992.99 4.17339 992.662 4.45341 992.409 4.70797C988.768 8.27185 986.038 12.6758 983.383 16.9779C980.855 21 979.262 24.5639 980.602 29.3497C981.614 32.8881 982.65 36.5538 984.85 39.5322C981.108 38.5139 977.695 36.3756 975.141 33.4736C974.155 38.1575 976.734 43.1215 975.546 47.7546C974.838 49.9184 973.473 51.8021 972.209 53.6859Z" fill="#2E8485"/>
<path fill-rule="evenodd" clip-rule="evenodd" d="M984.395 50.6566C979.819 56.2824 974.004 60.7373 967.734 64.3521C964.574 66.1849 961.287 67.7887 957.95 69.2651C954.84 70.6398 952.135 72.7781 949 74C959.366 72.8545 968.695 68.7305 977.316 63.0029C985.456 57.6062 991.297 48.1873 995.873 39.6849C999.058 33.8045 1001.86 27.7205 1004.19 21.4582C1006.47 15.3487 1006.92 8.4755 1008.08 2.03506C1006.47 10.8938 1002.12 20.0581 998.426 28.2296C994.735 36.4774 990.134 43.6052 984.395 50.6566Z" fill="#E16505"/>
<path fill-rule="evenodd" clip-rule="evenodd" d="M83.4316 33.1337C83.4706 37.6155 79.7726 40.556 78.1182 46.2343C77.3591 48.8301 76.6778 51.4258 76.055 53.7985C74.712 59.0712 73.739 63.127 73.2524 63.0256C70.2356 62.3767 53.4972 59.1524 44.5636 59.9635C35.9609 60.7341 25.4313 64.567 16.6534 62.3565C16.1474 62.2348 15.6412 62.0928 15.1352 61.9103C14.5124 61.7075 13.8702 61.4439 13.2668 61.16C9.9386 59.5376 8.4787 55.9887 6.29882 53.1698C2.34779 48.0188 -1.85618 43.091 -6.74145 38.8121C-9.05758 36.7841 -14.6241 33.5191 -17.5047 32.424C-19.5678 31.6534 -22.1758 31.3491 -23.5187 29.1995C-24.5892 27.4757 -23.1685 23.0751 -22.604 21.2094C-21.1248 16.6262 -20.463 11.6375 -19.6066 6.89205C-19.4898 6.18227 -18.361 2.61318 -18.4194 2.30899L-17.3101 1.29502C-16.59 0.747475 -15.753 0.44326 -14.8382 0.260742C-12.5221 -0.165131 -9.75837 0.301231 -7.83151 0.443192C-3.78315 0.767662 0.265198 0.808235 4.33302 1.21382C27.3386 3.54596 49.3321 12.4487 70.6249 21.0675C71.5008 21.4123 72.8826 21.7772 74.4396 22.345C77.1061 23.2779 80.2397 24.7583 82.0108 27.7191C82.8867 29.1387 83.4122 30.9232 83.4316 33.1337Z" fill="#023C61"/>
<path fill-rule="evenodd" clip-rule="evenodd" d="M83.4213 33.1337C83.462 37.6155 79.7656 40.5559 78.1001 46.2342C77.3487 48.8299 76.6583 51.4257 76.0287 53.7984C75.0742 52.6019 73.9774 51.5272 72.6979 50.6349C69.8748 48.6475 66.4221 47.7552 63.0303 47.0657C56.4702 45.707 49.7477 44.9567 43.0455 44.8553C36.526 44.7336 29.5392 45.3824 24.5429 49.5397C21.0496 52.46 18.9985 56.739 17.3737 60.9977C17.1909 61.4641 16.9472 61.9509 16.6222 62.3565C16.1754 62.9649 15.5659 63.3702 14.8754 63.1472C14.9566 62.7416 15.0178 62.3158 15.099 61.9102C16.0536 56.3536 17.008 50.8173 17.9625 45.2405C18.2266 43.6587 18.4906 42.0161 17.9625 40.4952C17.4345 38.9539 16.1753 37.798 14.9364 36.7029C3.70498 26.7254 -7.52633 16.7276 -18.7577 6.72977L-18.8594 5.3103C-18.047 3.26208 -16.6251 1.57865 -14.8581 0.260483C-12.8271 -1.28075 -10.3087 -2.29471 -7.79031 -2.76114C-3.09872 -3.63316 1.73504 -2.84222 6.42663 -1.97021C29.5393 2.34932 52.4488 9.16335 72.6166 21.2296C73.2259 21.5947 73.8352 21.9596 74.4242 22.3449C77.0645 23.9875 79.6235 25.7519 81.9997 27.719C82.8731 29.1385 83.401 30.9232 83.4213 33.1337Z" fill="#305872"/>
<path fill-rule="evenodd" clip-rule="evenodd" d="M47.131 -22.6555L47.2727 -22.8791C47.3745 -22.778 47.4764 -22.697 47.5781 -22.6365C47.6187 -22.6366 47.6796 -22.6368 47.7405 -22.6369L47.7205 -22.5355C48.3716 -22.1115 49.1644 -21.8705 49.7549 -21.3449C64.1518 -8.28535 76.6662 6.99019 90.901 20.1922C96.1551 25.0646 96.3384 25.1857 101.005 30.6479C101.861 31.6594 103.267 33.2372 102.947 34.7997C102.686 36.0172 100.738 36.6921 99.8045 36.9179C94.3651 38.1908 94.4053 37.9879 88.7386 37.923C66.3969 37.6423 36.5867 39.2488 32.7491 39.6046C32.1603 39.6671 28.6686 40.2044 26.4339 40.008C24.994 40.7219 20.4705 35.7257 19.8596 35.1596C17.0897 32.4704 -5.14616 12.5787 -22.7337 -1.1612C-27.212 -4.65679 -27.2927 -4.45375 -30.7379 -8.8649C-31.3291 -9.63384 -32.4106 -11.3546 -31.8451 -12.4716C-31.1384 -13.8932 -29.0271 -14.244 -27.728 -14.4911C-20.664 -15.8296 -20.4406 -15.8099 -13.293 -16.3172C6.09898 -17.7113 25.4222 -21.8024 44.8351 -22.9735C45.6067 -23.0365 46.3793 -22.7345 47.131 -22.6555Z" fill="#007A7B"/>
<path fill-rule="evenodd" clip-rule="evenodd" d="M42.7769 5.73604C46.0061 7.01365 47.8545 8.65637 49.0325 10.6438C50.3526 12.9151 50.8604 15.6122 51.5712 18.6744C52.3227 21.838 52.4445 25.7925 52.2413 29.9093C51.957 35.7903 50.9822 42.0365 50.0683 46.9644C49.1137 52.2168 47.8748 57.53 46.189 62.9852C44.6455 67.9942 42.7161 73.0843 40.1774 78.2961C39.9337 78.7625 40.1367 79.3506 40.6038 79.5737C41.0709 79.817 41.6599 79.6143 41.8833 79.1479C44.5439 73.8752 46.6155 68.7039 48.22 63.634C49.9667 58.118 51.1651 52.7034 52.1196 47.3699C53.0133 42.3608 53.988 36.0135 54.252 30.0514C54.4551 25.7318 54.2723 21.5947 53.5006 18.2689C52.546 14.2738 51.8759 10.8669 49.6215 8.14942C48.2811 6.52706 46.3719 5.12768 43.4879 3.99203C43.0005 3.78923 42.4318 4.03263 42.249 4.53962C42.0662 5.04661 42.2894 5.55352 42.7769 5.73604Z" fill="#FF9E1C"/>
<path fill-rule="evenodd" clip-rule="evenodd" d="M35.4188 82.1782C34.5992 82.448 33.6874 82.9104 32.7888 83.4889C31.5741 84.2819 30.3725 85.1912 29.4376 85.9536L28.3116 87.0378C27.7587 87.1584 27.4823 87.7297 27.6038 88.3162C27.7188 88.8435 28.2677 89.201 28.7581 89.0273C29.0313 88.9373 29.354 88.7816 29.6141 88.5731C29.9795 88.2931 30.22 87.9075 30.5919 87.6867C31.4775 86.9898 32.6789 86.0777 33.7883 85.3562C34.5322 84.9147 35.2765 84.4752 35.9347 84.283C36.4811 84.1031 36.7576 83.5332 36.6361 82.9467C36.508 82.3009 35.9651 81.9983 35.4188 82.1782Z" fill="#FF9E1C"/>
<path fill-rule="evenodd" clip-rule="evenodd" d="M36.4465 86.0429C36.9303 85.8099 37.1443 85.1855 36.9734 84.6645C36.7959 84.0843 36.2037 83.8501 35.6574 84.03C35.279 84.1914 34.6669 84.7998 34.038 85.7683C32.8363 87.6992 31.282 91.0481 30.6663 92.1351C30.3766 92.5867 30.5602 93.2247 30.9911 93.5372C31.4155 93.7905 32.0241 93.6635 32.3073 93.1527C32.7815 92.3211 33.7894 90.1716 34.8364 88.3776C35.2612 87.6114 35.686 86.8448 36.0876 86.381C36.1863 86.2502 36.3906 86.049 36.4465 86.0429Z" fill="#FF9E1C"/>
<path fill-rule="evenodd" clip-rule="evenodd" d="M26.7377 80.9055C26.4249 80.7535 26.0011 80.8131 25.6977 81.0947C25.2568 81.4596 25.2496 82.1962 25.5601 82.5937C25.6952 82.7559 25.9934 82.9669 26.4437 83.0356C27.0031 83.1357 28.2904 82.8917 28.5227 82.8973C29.9994 82.8318 31.502 82.8972 32.9645 82.8892C33.6068 82.8903 34.3181 82.849 34.9889 82.7352C35.5222 82.7048 35.9509 82.1533 35.8467 81.6308C35.8112 81.0666 35.3373 80.6212 34.7898 80.7091C34.1877 80.7812 33.5998 80.7965 32.9574 80.7954C31.495 80.8034 29.9926 80.7365 28.4756 80.7288C28.3382 80.8121 26.97 80.9111 26.7377 80.9055Z" fill="#FF9E1C"/>
<path fill-rule="evenodd" clip-rule="evenodd" d="M36.4929 85.5983L35.9067 87.4448C35.4212 89.5342 34.7191 91.7366 34.3547 93.9208C34.3248 94.1403 34.2849 94.4337 34.3205 94.664C34.1098 95.2277 34.4328 95.8059 34.9469 95.9657C35.4609 96.1255 36.0348 95.8454 36.2455 95.2817C36.4164 95.0107 36.5872 94.7388 36.6926 94.4569C36.788 94.2482 36.818 94.0282 36.838 93.8819C37.369 91.9496 37.6479 89.9023 38.0479 87.9484L38.5536 85.7124C38.5678 85.1162 38.1691 84.6023 37.5696 84.578C36.9801 84.4806 36.5171 84.929 36.4929 85.5983Z" fill="#FF9E1C"/>
<path fill-rule="evenodd" clip-rule="evenodd" d="M38.3751 85.4242L38.6288 87.3681C39.0734 89.4804 39.3518 91.7269 39.9438 93.8681C40.0093 94.0801 40.074 94.2894 40.2241 94.5512C40.2731 95.1584 40.8032 95.5288 41.3276 95.4324C41.852 95.3359 42.2455 94.8144 42.1965 94.2072C42.2348 93.8827 42.2735 93.561 42.249 93.2574C42.2463 93.0245 42.1807 92.8119 42.1371 92.6706C41.799 90.6788 41.188 88.6993 40.7461 86.82L40.2579 84.5659C40.0205 84.0214 39.4497 83.7445 38.9062 84.0032C38.4254 84.2411 38.1377 84.8797 38.3751 85.4242Z" fill="#FF9E1C"/>
<path fill-rule="evenodd" clip-rule="evenodd" d="M38.7954 75.8514C36.766 75.9719 35.3301 77.3032 34.6958 78.9547C33.5954 81.933 35.2751 85.5747 38.4646 86.2454C39.4623 86.4931 43.4153 85.7553 44.4878 82.5249C44.7966 81.6235 44.3887 78.8602 42.9936 77.3293C41.5314 75.6527 38.7954 75.8514 38.7954 75.8514Z" fill="#FF9E1C"/>
<path fill-rule="evenodd" clip-rule="evenodd" d="M34.0481 32.6268C52.7535 32.1198 71.6417 31.6126 89.819 27.1309C71.1949 20.1547 49.3212 29.808 30.7986 22.5276C21.2732 18.7759 13.921 10.9886 4.84243 6.26346C4.05034 5.85787 3.15673 5.45224 2.32402 5.71587C1.16636 6.06062 0.699158 7.52069 0.983498 8.6969C1.28815 9.85283 2.14112 10.7858 2.97383 11.6376C7.56387 16.4235 12.7633 21.3107 18.0439 25.6302C23.69 30.2539 26.31 32.8499 34.0481 32.6268Z" fill="#4CA2A3"/>
</svg>
