<svg width="100" height="100" viewBox="0 0 100 100" fill="none" xmlns="http://www.w3.org/2000/svg">
<path d="M50 9.375C41.9652 9.375 34.1107 11.7576 27.43 16.2215C20.7492 20.6855 15.5422 27.0302 12.4674 34.4535C9.3926 41.8767 8.58809 50.0451 10.1556 57.9255C11.7231 65.806 15.5923 73.0447 21.2738 78.7262C26.9553 84.4077 34.194 88.2769 42.0745 89.8444C49.955 91.4119 58.1233 90.6074 65.5465 87.5326C72.9698 84.4578 79.3145 79.2508 83.7785 72.57C88.2424 65.8893 90.625 58.0349 90.625 50C90.6044 39.2319 86.3176 28.9108 78.7034 21.2966C71.0892 13.6824 60.7681 9.39565 50 9.375ZM64.0625 37.5C64.9896 37.5 65.8959 37.7749 66.6668 38.29C67.4376 38.8051 68.0384 39.5371 68.3932 40.3937C68.748 41.2502 68.8408 42.1927 68.66 43.102C68.4791 44.0113 68.0326 44.8465 67.3771 45.5021C66.7215 46.1576 65.8863 46.6041 64.977 46.7849C64.0677 46.9658 63.1252 46.873 62.2687 46.5182C61.4122 46.1634 60.6801 45.5626 60.165 44.7917C59.6499 44.0209 59.375 43.1146 59.375 42.1875C59.375 40.9443 59.8689 39.752 60.748 38.8729C61.627 37.9939 62.8193 37.5 64.0625 37.5ZM35.9375 37.5C36.8646 37.5 37.7709 37.7749 38.5418 38.29C39.3126 38.8051 39.9134 39.5371 40.2682 40.3937C40.623 41.2502 40.7158 42.1927 40.535 43.102C40.3541 44.0113 39.9076 44.8465 39.2521 45.5021C38.5965 46.1576 37.7613 46.6041 36.852 46.7849C35.9427 46.9658 35.0002 46.873 34.1437 46.5182C33.2872 46.1634 32.5551 45.5626 32.04 44.7917C31.5249 44.0209 31.25 43.1146 31.25 42.1875C31.25 40.9443 31.7439 39.752 32.623 38.8729C33.502 37.9939 34.6943 37.5 35.9375 37.5ZM68.9453 60.9375C67.0255 64.2634 64.264 67.0253 60.9384 68.9455C57.6128 70.8658 53.8402 71.8767 50 71.8767C46.1598 71.8767 42.3873 70.8658 39.0616 68.9455C35.736 67.0253 32.9745 64.2634 31.0547 60.9375C30.8101 60.5827 30.6416 60.1811 30.5597 59.758C30.4777 59.335 30.4842 58.8995 30.5786 58.4791C30.6731 58.0586 30.8535 57.6622 31.1085 57.3148C31.3635 56.9674 31.6876 56.6765 32.0604 56.4604C32.4332 56.2443 32.8467 56.1076 33.2749 56.0589C33.7031 56.0103 34.1367 56.0507 34.5485 56.1777C34.9603 56.3047 35.3414 56.5155 35.6678 56.7968C35.9942 57.0781 36.259 57.4239 36.4453 57.8125C37.8216 60.1887 39.7983 62.1613 42.1773 63.5327C44.5563 64.904 47.2541 65.6259 50 65.6259C52.746 65.6259 55.4437 64.904 57.8227 63.5327C60.2017 62.1613 62.1785 60.1887 63.5547 57.8125C64.0011 57.1649 64.6753 56.7094 65.4428 56.537C66.2102 56.3646 67.0145 56.488 67.695 56.8825C68.3755 57.277 68.8822 57.9136 69.1139 58.6652C69.3457 59.4169 69.2855 60.2283 68.9453 60.9375Z" fill="#00A0E3"/>
</svg>
