<svg width="713" height="639" fill="none" xmlns="http://www.w3.org/2000/svg"><g clip-path="url(#clip0_1184_6038)" fill-rule="evenodd" clip-rule="evenodd"><path d="M357.639 562.242L0 355.353l355.402-205.544L713 356.657 357.639 562.242z" fill="#94C237"/><path d="M0 355.353v76.758L357.639 639v-76.758L0 355.353z" fill="#729824"/><path d="M713 356.657v76.758L357.639 639v-76.758L713 356.657z" fill="#82B02C"/><path d="M713 411.74v21.675L357.639 639v-21.675L713 411.74z" fill="#B3532D"/><path d="M0 410.436v21.675L357.639 639v-21.675L0 410.436z" fill="#7D3715"/><path d="M357.639 562.242L0 355.353l355.402-205.544L713 356.657 357.639 562.242z" fill="url(#paint0_linear_1184_6038)"/><path d="M131.588 371.528l-9.434-5.46 195.512-113.1 9.393 5.46-40.663 23.508 6.221 3.626-111.215 64.332-6.222-3.586-43.592 25.22zm189.203-85.977c-2.887 0-6.506-.571-8.295-2.2-2.887-2.648-5.408-5.093 3.009-12.752 5.49-4.971 12.077-12.386 19.275-14.505 7.197-2.078 18.014-3.3 27.001-3.3 6.872 0 12.727.693 15.086 2.241 14.435 9.371 18.217 10.471 18.868 13.771.447 2.281-2.725 5.622-4.88 6.478-.976.367-2.358.529-3.985.529-2.846 0-6.628-.448-10.938-.855-4.352-.448-9.231-.856-14.395-.856-8.825 0-18.381 1.263-26.961 5.989-3.985 2.201-6.872 4.645-11.386 5.338-.691.081-1.504.122-2.399.122zm72.713 166.402c-9.272-1.834-12.525-2.404-17.811-5.46l-55.872-32.023c-2.074-.896-2.887-3.219-.895-4.359l4.961-2.893c4.514.611 8.702.937 11.427.937 1.87 0 3.05-.163 3.294-.489l5.327-8.922c-1.302-.326-2.562-.652-3.823-.938l19.194-11.081c3.212-1.834 6.831-2.812 10.491-2.812.772 0 1.586.041 2.358.123l3.538.407 3.131-1.874 51.847 29.986c5.611 3.259 9.556 3.585 16.672 4.93l-.529 3.463c-7.197-1.345-9.149-1.548-13.175-3.137l-49.285 28.519c1.22.367 5.815 1.304 9.557 2.078l-.407 3.545zm-60.996 35.282c-9.271-1.833-12.524-2.403-17.811-5.459l-55.872-32.023c-2.074-.897-2.887-3.26-.894-4.36l40.42-23.386c3.212-1.833 6.831-2.811 10.491-2.811.772 0 1.586.041 2.358.122l3.538.408 3.131-1.874 51.847 29.986c5.611 3.259 9.556 3.585 16.672 4.93l-.569 3.544c-7.198-1.344-9.15-1.548-13.176-3.137l-49.284 28.52c1.179.366 5.815 1.303 9.556 2.077l-.407 3.463zm121.667-70.361c-9.272-1.834-12.525-2.445-17.811-5.46l-55.872-32.023c-2.074-.896-2.887-3.259-.895-4.359l40.42-23.386c3.213-1.834 6.832-2.812 10.491-2.812.773 0 1.586.041 2.359.123l3.538.407 3.131-1.874 51.846 29.986c5.612 3.26 9.556 3.585 16.672 4.93l-.528 3.463c-7.198-1.344-9.15-1.548-13.175-3.137l-49.285 28.519c1.22.367 5.815 1.304 9.556 2.078l-.447 3.545zm60.955-35.242c-9.272-1.834-12.525-2.445-17.811-5.46l-55.872-32.023c-2.074-.896-2.887-3.259-.895-4.359l40.42-23.386c3.213-1.834 6.832-2.812 10.491-2.812.773 0 1.586.041 2.359.123l3.538.407 3.131-1.874 51.806 29.986c5.611 3.26 9.556 3.585 16.672 4.93l-.529 3.463c-7.197-1.344-9.149-1.548-13.175-3.137l-49.285 28.519c1.22.367 5.815 1.304 9.556 2.078l-.406 3.545z" fill="#6FA02C"/><path d="M335.314 408.155c-2.765 0-6.913-.326-11.426-.937-7.279-.978-15.453-2.648-19.966-4.685-6.344-2.852-1.302-7.619 13.297-7.619 6.059 0 13.703.815 22.893 2.933 1.261.285 2.522.611 3.823.937l-5.327 8.923c-.203.285-1.423.448-3.294.448z" fill="#322222"/><path d="M307.744 282.425l-29.847-17.275v-3.993l29.847 17.275v3.993z" fill="#BFB8C4"/><path d="M316.162 277.536l-8.418 4.889v-3.993l8.418-4.889v3.993z" fill="#E6E2E9"/><path d="M307.744 278.432l-29.847-17.275 8.417-4.848 29.848 17.234-8.418 4.889z" fill="url(#paint1_linear_1184_6038)"/><path d="M299.571 270.243l-6.669-3.83V155.92l6.669 3.871v110.452z" fill="#BFB8C4"/><path d="M302.905 268.328l-3.334 1.915V159.791l3.334-1.956v110.493z" fill="#E6E2E9"/><path d="M299.571 159.791l-6.669-3.871 3.334-1.955 6.669 3.87-3.334 1.956z" fill="url(#paint2_linear_1184_6038)"/><path d="M165.99 364.398l-29.807-17.275v-3.993l29.807 17.275v3.993z" fill="#BFB8C4"/><path d="M174.448 359.509l-8.458 4.889v-3.993l8.458-4.889v3.993z" fill="#E6E2E9"/><path d="M165.99 360.405l-29.807-17.275 8.418-4.848 29.847 17.234-8.458 4.889z" fill="url(#paint3_linear_1184_6038)"/><path d="M157.857 352.257l-6.71-3.871V237.893l6.71 3.871v110.493z" fill="#BFB8C4"/><path d="M161.191 350.301l-3.334 1.956V241.764l3.334-1.956v110.493z" fill="#E6E2E9"/><path d="M157.857 241.764l-6.71-3.871 3.376-1.914 6.668 3.829-3.334 1.956z" fill="url(#paint4_linear_1184_6038)"/><path d="M326.043 3.748L133.987 116.645l-8.133-4.726L319.292 0l6.751 3.748z" fill="#D0CCD4"/><path d="M326.043 147.731L132.605 259.609V115.667L326.043 3.748v143.983z" fill="#DEDBE1"/><path d="M132.645 259.772l-6.668-3.87V111.919l6.668 3.87v143.983z" fill="#BFB8C4"/><path d="M322.383 143.535L136.875 251.053V117.378L322.383 9.9v133.635z" fill="#fff"/><path d="M298.107 170.139l-126.058 72.929v-2.404l44.323-27.786 81.735-45.102v2.363z" fill="#E6E2E9"/><path d="M298.147 167.776l-82.873 47.913-43.185 24.975-5.53-3.178 126.058-72.928 5.53 3.218z" fill="url(#paint5_linear_1184_6038)"/><path d="M298.147 167.776l-82.873 47.913-43.185 24.975-5.53-3.178 126.058-72.928 5.53 3.218z" fill="url(#paint6_linear_1184_6038)"/><path d="M172.089 240.664l-5.53-3.178v2.404l5.49 3.178.04-2.404z" fill="#BFB8C4"/><path d="M306.158 156.694c-2.277 2.73 6.75 9.208 8.783 6.601 1.708-2.363-.488-4.808-3.375-6.397-2.033-1.141-4.351-1.874-5.408-.204zm49.366-3.544l-.732.407c-2.155 1.263 3.863 11.001 6.019 9.697l.65-.367c1.667-1.63-2.684-11.204-5.937-9.737z" fill="#fff"/><path d="M492.562 309.559l-7.035-9.778c-1.261.244-2.318-.448-3.457-.937-1.179-.489-4.432-2.893-5.611-3.423-3.335-1.466-6.669-.448-6.629 3.464 0 1.263.529 2.485 1.342 3.463 8.133 9.574 12.321 14.096 13.826 15.319 1.505 1.222 3.335 1.344 5.164.733 3.863-1.222 2.887-4.074 2.4-8.841z" fill="#F19A26"/><path d="M492.602 298.803l-7.076-.326c-1.26.245-1.626-2.363-4.92-4.115-3.212-1.711-8.58-.53-9.922 1.63-.691 1.059-.325 2.689 1.017 4.359 8.092 9.575 11.06 12.59 12.565 13.812 1.504 1.222 3.863 1.955 5.774 1.548 2.196-.489 2.684-1.67 2.928-3.137.407-3.056-.976-7.293-.366-13.771z" fill="#010004"/><path d="M480.159 253.416c-.976 1.63-1.098 12.182-.366 32.635l-.163 14.667c-.081 4.889 12.403 5.745 13.053 1.507 0 0 5.043-17.152 4.677-30.719-.163-6.071 4.025-11.367 9.922-12.753l3.578-.814c-8.621-2.893-25.496-13.323-30.701-4.523z" fill="#0E000D"/><path d="M440.105 315.385c-2.928 3.341-1.18 9.167 1.342 11.326 4.188 3.545 11.141 4.401 17.485 7.293 2.155.978 5.002 1.752 7.116 1.141 2.847-.815 3.579-2.852 2.928-6.6-.366-2.037-.773-4.115-1.017-7.089-.04-.815-9.434-1.467-10.532-1.793-7.441-2.2-14.842-7.13-17.322-4.278z" fill="#F19A26"/><path d="M440.349 314.896c-2.928 3.341-1.423 7.293 1.098 9.452 4.188 3.545 11.142 4.401 17.485 7.293 2.155.978 5.002 1.752 7.116 1.141 2.847-.815 3.335-2.73 2.684-6.437-.366-2.037-.528-4.237-.772-7.212-.041-.814-9.434-1.466-10.532-1.792-7.442-2.241-14.599-5.256-17.079-2.445z" fill="#010004"/><path d="M463.324 264.865c-5.693.081-9.19 4.563-9.231 7.496-.081 6.112.651 46.202.732 46.609.691 4.767 13.501 5.338 13.582 1.019 2.928-20.738 6.221-26.727 5.815-45.591l20.901-3.177c-1.911-.489-26.879-6.438-31.799-6.356z" fill="#0E000D"/><path d="M511.876 271.587c.407-1.466 1.18-2.526 2.196-3.137l2.359-1.385c-1.017.611-1.79 1.63-2.196 3.096l-11.02 40.009-2.359 1.385 11.02-39.968zm48.228 24.568l10.898 53.25-2.358 1.385-11.63-54.024 3.09-.611z" fill="#18110F"/><path d="M515.089 264.783c1.952-1.14 4.595-.937 7.482.734l27.408 15.848c4.717 2.73 8.905 8.841 10.125 14.79l-3.091 1.792c-1.22-5.989-4.676-12.467-9.393-15.196l-27.407-15.849c-2.887-1.671-5.531-1.834-7.483-.733l2.359-1.386z" fill="#332E2D"/><path d="M510.047 269.958c1.26-4.564 5.449-5.827 10.166-3.056l27.407 15.849c4.717 2.729 8.905 8.841 10.125 14.789l10.898 53.25-1.952-1.141-10.775-52.598c-1.017-4.889-4.433-9.9-8.296-12.141l-27.407-15.849c-3.904-2.241-7.32-1.222-8.336 2.526l-11.02 40.009-1.952-1.141 11.142-40.497z" fill="#18110F"/><path d="M552.419 287.558l-.326-.53-.325-.285-39.81-23.019c-2.033-1.182-3.904-1.304-5.408-.448l-51.359 29.864s.366 1.1.895 1.141l3.172-.367 41.152 22.653.325.285.325.529.163.774c0 .367-.122.571-.285.693l51.359-29.864c.162-.081.284-.326.284-.693l-.162-.733z" fill="#E73535"/><path d="M500.41 316.607l-39.81-23.019c-2.196-1.263-4.229-1.344-5.775-.204l-.691.53c-.325.244-.325.978 0 1.589.163.326.366.53.61.693h.61l.691-.53c1.22-.937 2.847-.856 4.555.122l39.81 23.019c.447.245.854 0 .854-.651 0-.53-.407-1.263-.854-1.549z" fill="#18110F"/><path d="M458.363 302.551c.407-1.466 1.179-2.526 2.196-3.096l2.358-1.385c-1.016.611-1.789 1.629-2.195 3.096l-11.02 40.009-2.359 1.385 11.02-40.009zm48.227 24.568l10.898 53.25-2.358 1.385-11.63-54.024 3.09-.611z" fill="#18110F"/><path d="M461.575 295.747c1.952-1.14 4.595-.937 7.482.734l27.408 15.848c4.717 2.73 8.905 8.841 10.125 14.79l-3.09 1.792c-1.22-5.989-4.677-12.467-9.394-15.196l-27.407-15.849c-2.887-1.671-5.53-1.833-7.482-.733l2.358-1.386z" fill="#332E2D"/><path d="M456.533 300.922c1.261-4.523 5.408-5.786 10.166-3.056l27.407 15.849c4.717 2.729 8.906 8.841 10.126 14.789l10.898 53.25-1.952-1.141-10.776-52.598c-1.017-4.889-4.433-9.9-8.296-12.141l-27.407-15.849c-3.904-2.241-7.32-1.222-8.336 2.526l-11.02 40.009-1.952-1.141 11.142-40.497z" fill="#18110F"/><path d="M515.374 241.805c1.26-3.178-.651-6.723-3.985-7.415-1.302-.245-2.034-.449-2.034-.449-2.317-.692-4.188 7.293-2.155 7.741l5.449 1.508a2.29 2.29 0 002.684-1.345l.041-.04z" fill="#fff"/><path d="M536.316 210.718c-.895-7.007-4.799-13.648-11.549-9.981-3.456 1.874-3.009 6.355-2.724 9.574.813 9.615.487 13.16 1.301 22.775l-3.782 11.326c4.595 1.263 8.621 3.586 14.151 3.586 1.708 0 6.506.081 6.506-4.034 0-7.13-2.318-20.656-3.903-33.246z" fill="#150015"/><path d="M534.282 273.461c-21.836-2.2-33.507-1.059-62.744-4.074-4.27-.448-9.597-2.852-14.273-.692-1.627.733 9.027 13.933 9.881 15.685 6.628 2.16 23.138 14.219 31.027 16.338 14.964 4.033 18.339.122 23.341-2.73 4.757-2.689 6.343-6.559 10.003-10.267 3.66-3.748 5.49-9.819 2.765-14.26z" fill="#0E000D"/><path d="M493.171 257.124c-.081 12.141-.61 15.482-1.748 23.508l.04.774c1.912 5.908 20.088 7.089 28.221 3.626l1.179-13.078 4.189 11.204c7.807-2.322 11.467-9.452 10.532-11.123-9.678-17.926-2.847-42.453-2.033-47.22.975-5.907.203-16.663-2.522-22.001-1.098-2.2-3.009-3.626-5.855-2.281l-4.433 1.996c-3.009 1.874-4.839 3.911-6.872 4.563-5.245 1.712-11.996 3.015-16.143 5.175-6.832 3.544-12.159 7.944-10.492 9.818.895.978 1.383 2.16 1.871 3.382.813 2.119 4.432 11.815 4.066 31.657z" fill="#150015"/><path d="M495.408 196.133c.244 1.915 2.033 2.648 3.375 3.218.895.367 1.505 1.182 1.708 2.119l1.708 8.637c.081.326 5.123-.977 6.262-1.181 2.887-.571 6.262-1.548 8.946-2.811.976-.449 2.115-.856 1.952-1.345-1.464-4.563-2.806-12.752-4.676-17.152-6.222-14.749-18.38-17.031-19.072-10.879-.528 4.727-.691 15.849-.203 19.394z" fill="#F8BB9B"/><path d="M496.627 183.258c-.081-.855-.61-1.589-.975-2.363-.936-2.118-1.424-3.83-1.383-6.967.163-8.067 6.1-8.922 12.565-7.985 8.905 1.304 12.525 4.278 14.476 7.578 2.806 4.767 1.18 11.611.57 16.052-.407 2.852-1.627 7.375-3.579 9.33-1.179 1.182-5.774 2.73-9.434 3.137-2.643.286-5.733-.733-6.587-3.015-1.79-4.726 1.382-10.144-1.22-12.018-.488-.367-1.545-.693-2.115 0-.406.488-.732 1.344-1.464 1.1-1.342-.367-.65-3.26-.854-4.849z" fill="#CB9D55"/><path d="M500.856 209.415l.732-1.589s13.257-1.467 17.039-5.582l1.057.978c0-.041-2.277 5.541-18.828 6.193z" fill="#fff"/><path d="M521.189 202.163c-.448-.082-1.505-.163-2.44.163l.65.57c-1.911 3.87-14.151 6.559-18.542 6.315-.326 0-1.749 1.059-2.562 1.833-.976.937-1.301 1.549-1.301 1.549 7.4.326 12.443.326 16.916-1.426 8.214-3.178 8.011-7.212 7.685-8.556-.081-.245-.244-.408-.406-.448z" fill="#291529"/><path d="M466.821 218.541c-1.301-3.83-2.684-4.767-5.205-6.193a62.5 62.5 0 00-4.514-2.322c.651-2.852-.813-3.504-1.342-1.793l-.122.326c-.122-.692-.366-1.67-.772-3.056-.285-.977-1.505-.896-1.545-.285-.082 1.385.122 2.73.122 2.73s-.61-1.548-.976-2.404c-.326-.774-.773-2.078-1.708-1.955-1.098.122-.773 1.1-.732 1.507-.569-.937-2.033-.285-1.789.978.325 1.752.935 4.074 1.87 5.826.569 1.059 2.969 3.015 5.368 4.359.61.326 3.294 2.689 3.741 3.382.569.815 1.179 1.833 2.155 1.874a3 3 0 001.017-.204c1.016-.326 3.293-1.018 4.107-1.629l.406-.489-.081-.652z" fill="#F8BB9B"/><path d="M448.563 212.389c-.529.855 1.261 1.059 1.708 1.263 2.887 1.344 4.107 2.689 5.815 3.748 3.456 2.16 6.14-1.792 2.399-3.789-.569-.285-2.399-.204-2.968-.448-2.237-.937-5.978-2.526-6.954-.774z" fill="url(#paint7_linear_1184_6038)"/><path d="M469.708 224.326c-1.992-4.726-3.781-8.963-3.863-9.085-.244-.489-.894-.571-1.423-.53-1.708.082-3.822.734-5.246 1.711-.732.53-1.463 1.182-1.667 2.078-.081.285 1.139 4.237 2.725 9.208 2.724-1.752 6.099-2.771 9.474-3.382z" fill="#fff"/><path d="M490.772 216.585c-2.318 1.589-4.595 4.115-6.303 6.397-3.66 4.889-6.384 9.045-9.434 13.567l-8.255-20.33c-.284-.53-.976-.612-1.585-.612-1.912.082-4.27.815-5.815 1.915-.814.571-2.522 1.915-2.196 3.138.325 1.222 6.709 22.611 8.864 27.378 1.302 2.934 3.335 7.375 6.913 7.415 5.612.082 23.423-22.326 25.863-27.297 4.107-8.271-4.717-13.852-8.052-11.571z" fill="#150015"/><path d="M514.601 276.924c.651-2.607 3.131-5.866 5.571-7.252l34.686-20.045c2.359-1.344 5.612-2.322 7.442-.529l-52.701 61.317c-3.781-3.341-1.057-9.086 5.002-33.491z" fill="#E73535"/><path d="M562.747 248.649l-.529-.326c-.569-.203-1.423 0-2.439.571l-38.184 22.082c-2.44 1.426-4.961 4.685-5.652 7.334l-7.482 29.619c-.326 1.223-.163 2.078.325 2.526l2.033 1.793c-.488-.448-.65-1.304-.325-2.526l7.482-29.62c.651-2.648 3.172-5.907 5.652-7.333l38.184-22.082c1.016-.571 1.87-.775 2.44-.571l.528.326-2.033-1.793z" fill="#2B2625"/><path d="M564.211 250.116c-.57-.204-1.423 0-2.44.57l-38.183 22.083c-2.44 1.426-4.961 4.685-5.653 7.333l-7.482 29.62c-.366 1.548-.04 2.526.813 2.77.407.082 1.139.286 2.725-.611 5.652-3.259 33.019-19.108 38.183-22.082 2.562-1.589 4.717-4.359 5.531-7.13.528-2.119 6.912-27.379 7.441-29.579.244-1.141.366-2.485-.935-2.974z" fill="#18110F"/><path d="M526.434 286.54l-7.685 25.626-2.643-1.548c-.854.489-1.627.937-2.155 1.223-1.017.57-1.627.692-2.074.692l-1.261.733 5.896 3.423c.773.448 1.505.366 1.993-.082l-.244.204 3.782-2.2c.325-.204.61-.57.732-1.059l8.458-28.194-1.057-1.059-3.742 2.241zm30.742-17.805l-3.782 2.2-7.685 25.627-2.643-1.548c-1.586.896-3.294 1.915-5.043 2.933l5.449 3.138c.773.448 1.505.366 1.993-.082l-.244.204 3.782-2.2c.325-.204.61-.571.732-1.06l8.458-28.193-1.017-1.019z" fill="#211A1A"/><path d="M447.791 371.446c1.423 2.852-9.191 8.271-10.817 7.66-3.497-1.222-1.871-1.1-4.392-5.623-.203-.366-.406-.774-.284-1.14l.528-.652c1.057-.937 4.595-4.36 5.856-4.726.488-.123.976-.163 1.464-.245 2.277-.57 3.863-2.933 7.645 4.726z" fill="#010004"/><path d="M424.49 370.468c-2.765-.203-6.994-.163-9.312.612-3.497 1.181-4.717 6.681 4.636 9.207.732.204 2.521.571 3.253.571 4.798.122 4.391.326 6.872.855 3.172.652 7.36-.611 7.238-3.259-.041-.53-.122-1.019-.203-1.548-.244-1.345-1.261-5.052-2.155-5.297-1.505-.407-3.294-.855-4.799-1.304-.488-.081-4.595.204-5.53.163z" fill="#010004"/><path d="M396.554 306.666c-3.253 6.071.122 10.267 1.708 13.201 2.155 3.911 3.131 8.311 4.961 12.345 4.717 10.348 10.41 15.604 20.251 31.412 4.798 7.7-3.375 8.515-2.684 11.122.284.978 6.14 1.019 10.328.367 2.562-.407 4.27-1.467 4.026-2.363-.935-3.504-4.473-10.837-7.97-21.308-10.451-31.249-10.044-31.861-15.534-45.754-.894-2.24-.203-2.24-2.602-1.996-5.408.489-10.369-.937-12.484 2.974z" fill="#F8BB9B"/><path d="M439.983 356.657c-1.83-11.001-1.383-23.753-1.423-23.957l-18.462-3.992c4.676 12.834 11.955 22.612 13.297 41.312.041.774.122 1.548.529 2.241.406.652 1.22.408 2.521-1.1 3.05-3.463 5.53-4.237 6.994-4.645.163 0-2.521-4.155-3.456-9.859z" fill="#F8BB9B"/><path d="M451.003 306.788c.406-1.466 1.179-2.526 2.196-3.137l2.358-1.385c-1.016.611-1.789 1.671-2.196 3.137l-11.02 40.009-2.358 1.385 11.02-40.009zm48.227 24.609l10.898 53.25-2.358 1.344-11.63-53.983 3.09-.611z" fill="#18110F"/><path d="M454.215 299.984c1.952-1.14 4.595-.937 7.483.734l27.407 15.849c4.717 2.729 8.905 8.841 10.125 14.789l-3.09 1.793c-1.22-5.989-4.676-12.467-9.394-15.238l-27.407-15.849c-2.887-1.67-5.53-1.833-7.482-.733l2.358-1.345z" fill="#332E2D"/><path d="M449.173 305.159c1.261-4.523 5.408-5.786 10.166-3.056l27.408 15.849c4.717 2.73 8.905 8.841 10.125 14.789l10.898 53.25-1.952-1.141-10.776-52.598c-1.017-4.889-4.432-9.9-8.295-12.141l-27.408-15.849c-3.904-2.24-7.319-1.222-8.336 2.526l-11.02 40.009-1.952-1.141 11.142-40.497z" fill="#18110F"/><path d="M491.545 322.8l-.326-.53-.325-.285-39.81-23.019c-2.033-1.182-3.903-1.304-5.408-.448l-51.399 29.864s.366 1.1.894 1.141l3.172-.367 41.152 22.653.325.285.326.529.162.774c0 .367-.122.612-.284.693l51.358-29.864c.163-.122.285-.367.285-.693l-.122-.733z" fill="#E73535"/><path d="M439.536 351.849l-39.81-23.06c-2.196-1.263-4.229-1.344-5.775-.203l-.691.529c-.325.245-.325.978 0 1.589.163.326.366.53.61.693h.569l.692-.53c1.22-.896 2.846-.856 4.554.122l39.851 23.06c.447.245.854-.04.854-.652 0-.57-.407-1.303-.854-1.548z" fill="#18110F"/><path d="M397.489 337.753c.407-1.467 1.179-2.527 2.196-3.097l2.359-1.385c-1.017.611-1.79 1.67-2.196 3.137l-11.02 40.009-2.359 1.385 11.02-40.049zm48.228 24.608l10.857 53.209-2.318 1.385-11.671-53.983 3.132-.611z" fill="#18110F"/><path d="M400.702 330.949c1.952-1.141 4.595-.938 7.482.733l27.407 15.849c4.717 2.729 8.906 8.841 10.126 14.789l-3.091 1.793c-1.22-5.989-4.676-12.467-9.393-15.197l-27.408-15.849c-2.887-1.67-5.53-1.833-7.482-.733l2.359-1.385z" fill="#332E2D"/><path d="M395.659 336.123c1.261-4.523 5.449-5.786 10.166-3.056l27.408 15.849c4.717 2.73 8.905 8.841 10.125 14.789l10.898 53.25-1.952-1.141-10.776-52.598c-1.016-4.889-4.432-9.9-8.295-12.141l-27.408-15.849c-3.903-2.24-7.319-1.222-8.336 2.527l-11.02 40.008-1.951-1.14 11.141-40.498z" fill="#18110F"/><path d="M459.705 238.586c-2.114-2.526-9.271-2.404-10.329 1.019-1.748 5.826.407 12.793 1.708 18.741.692 3.219.407 16.704 6.263 15.238 7.116-1.712 6.303-30.272 2.358-34.998z" fill="#9DAAC4"/><path d="M458.851 289.392c-3.457-2.689-8.54-2.282-11.996.285-1.423 1.059-2.521 2.974-4.27 3.504-1.87.57-3.171-.652-4.879-1.182-5.043-1.548-9.76-1.222-14.843.611-.976.367-3.781 3.26-7.238 5.337-3.985 2.404-8.702 4.156-10.044 6.152-2.399 3.627-1.586 8.353-.691 12.345.895 4.238 2.155 5.419 4.473 6.641 11.589 6.315 40.664 12.141 52.863-1.67 5.49-6.234 4.514-11.856 2.237-20.819-1.139-4.319-5.083-10.797-5.612-11.204z" fill="#0E000D"/><path d="M441.853 241.479a102.686 102.686 0 00-12.524 7.904c-3.701 2.689-6.71 5.581-10.003 8.678-2.522 2.363-1.464 5.296-1.098 6.274 2.033 5.623 3.7 10.838 6.14 16.297 1.179 2.648 1.952 5.419 2.724 8.23 1.586 5.867.529 9.33-.772 14.137-.366 1.304 3.741 12.997 25.496 5.786 11.305-3.748 11.264-12.304 10.735-14.138-.203-.652-3.05-7.007-3.294-7.863-3.741-14.26-.732-42.331-1.26-44.164-2.603-8.719-11.345-3.749-16.144-1.141z" fill="#9DAAC4"/><path d="M377.808 277.617l1.382-7.7.244-.408.773-.692-.244.407-1.383 7.7c-.081.53.326 1.223.854 1.467l14.802 6.886c.407.163.773.122.976-.082l-.773.693c-.244.203-.61.244-.976.081l-14.801-6.885c-.529-.245-.936-.937-.854-1.467z" fill="#BEC1BD"/><path d="M378.621 276.924l1.383-7.7c.081-.529.65-.774 1.22-.489l14.801 6.845c.57.285.976.937.854 1.467l-1.382 7.659c-.082.53-.651.774-1.22.489l-14.802-6.885c-.569-.163-.935-.856-.854-1.386z" fill="#D1D5D1"/><path d="M381.102 269.021l13.988 6.478-1.464 9.085-13.988-6.478 1.464-9.085z" fill="#7293CC"/><path d="M397.692 290.084c.651-.774 1.302-1.548 1.993-2.281.163-.286.366-.612.529-.897.04-.611.162-1.181.325-1.752l-.651-.326c-1.016-.529-2.074-1.018-3.009-1.67-2.196-1.507-3.578-3.504-5.53-5.256-.366-.326-3.009-2.689-3.497-2.729-.488-.082-.936.325-1.058.814-.244.774 2.725 3.341 2.969 4.115.244.815-.366 1.671-1.139 1.997-.772.326-1.667.244-2.48.081-1.627-.326-4.595-1.752-4.595-1.752.366 1.834 1.748 3.26 3.09 4.563.732.693 1.464 1.386 2.318 1.875 1.261.692 8.499 2.607 10.166 2.974l.569.244z" fill="#F8BB9B"/><path d="M399.156 283.402c-4.473-1.507-5.489 5.501-3.741 7.008 2.074.774 3.66 1.1 5.734 1.874.569-1.181-1.098-8.596-1.993-8.882z" fill="#fff"/><path d="M429.939 260.668c-.773-4.033-4.026-5.337-8.011-4.115-4.391 1.345-4.676 5.134-4.92 8.393-.529 6.967-1.017 14.79-1.545 21.757 0 0-13.013-3.056-15.819-3.626-4.188-.856-5.245 6.355-3.212 8.066 6.1 2.323 14.842 5.134 20.901 7.456 3.091 1.182 5.53.367 6.303-1.996 1.911-5.745 2.399-11.489 4.31-17.234 1.993-6.071 2.766-14.464 1.993-18.701z" fill="#9DAAC4"/><path d="M420.993 227.341c0 1.345-.163 2.689.081 4.034.366 1.874 1.586 3.504 1.871 5.378.162 1.059.244 2.363 1.219 2.77.732.285 2.481-.163 3.254-.041.813.163 2.602 7.008 2.927 8.964.366 2.078.244 1.792 13.094-1.874 3.863-1.1.244-3.382-1.057-7.456-2.155-6.845 2.928-11.653-4.798-22.775-3.986-5.745-6.995-5.134-11.183-3.748-1.383.448-2.806.937-3.985 1.752-4.026 2.77-1.383 9.085-1.423 12.996z" fill="#F8BB9B"/><path d="M420.22 214.344c-1.179 4.156.407 10.756 2.277 12.223.529.408 1.545.041 2.196.204 4.432 1.1.732 8.678 5.652 11.285 2.196 1.182 8.052-.04 9.922-.57 2.359-.693 4.351-2.567 5.449-4.808 11.955-24.934-20.576-35.975-25.496-18.334z" fill="#190600"/><path d="M445.228 241.438c-.081.693 0 2.404-3.212 5.052-2.44 2.037-5.652 2.078-14.192 3.056 0-.285 1.993-3.626 1.993-3.626s6.14-.082 10.735-3.463c1.342-.978 1.708-1.712 1.627-4.156.366.204 2.236 1.181 2.521 1.467.528.651.61.774.528 1.67z" fill="#fff"/><path d="M443.968 239.279c1.26 4.767-4.473 7.944-16.062 9.696-.651.082-2.074 2.608-1.505 2.771 2.318.57 12.891-.856 17.242-4.319 2.643-2.118 4.229-5.378 4.391-8.759-.732-.041-2.806.407-4.066.611z" fill="#AEBED5"/><path d="M437.38 228.523c1.017 2.118 1.79 9.574 3.823 15.685 1.911 5.745 9.068 8.801 13.988 5.949-8.255-3.626-1.423-18.579-2.399-28.031-1.586-15.441-20.942-5.011-15.412 6.397z" fill="#190600"/><path d="M453.727 312.126c.651-2.608 3.131-5.867 5.571-7.252l34.686-20.046c2.359-1.344 5.612-2.322 7.442-.529l-52.701 61.317c-3.781-3.3-1.057-9.086 5.002-33.49z" fill="#E73535"/><path d="M501.873 283.851l-.569-.326c-.569-.204-1.423 0-2.44.57l-38.183 22.082c-2.44 1.426-4.961 4.686-5.653 7.334l-7.482 29.619c-.325 1.223-.162 2.078.326 2.526l2.033 1.793c-.488-.448-.651-1.304-.326-2.526l7.483-29.619c.65-2.649 3.171-5.908 5.652-7.334l38.183-22.082c1.017-.571 1.871-.774 2.44-.571l.569.326-2.033-1.792z" fill="#2B2625"/><path d="M503.337 285.358c-.569-.204-1.423 0-2.44.57l-38.183 22.083c-2.44 1.426-4.961 4.685-5.652 7.333l-7.482 29.62c-.366 1.548-.041 2.526.813 2.77.407.123 1.139.286 2.724-.611 5.653-3.259 33.019-19.108 38.184-22.082 2.562-1.589 4.717-4.359 5.53-7.13.529-2.119 6.913-27.379 7.442-29.579.244-1.141.365-2.526-.936-2.974z" fill="#18110F"/><path d="M465.56 321.741l-7.685 25.627-2.643-1.549c-.895.489-1.627.938-2.155 1.223-1.017.57-1.627.692-2.074.692l-1.261.734 5.896 3.422c.773.448 1.505.367 1.993-.081l-.244.244 3.782-2.2c.325-.204.61-.57.732-1.059l8.458-28.194-1.057-1.059-3.742 2.2zm30.742-17.805l-3.782 2.201-7.685 25.626-2.643-1.548c-1.586.897-3.294 1.915-5.043 2.934l5.449 3.178c.773.448 1.505.366 1.993-.082l-.244.204 3.782-2.2c.325-.204.61-.571.732-1.06l8.458-28.193-1.017-1.06z" fill="#211A1A"/><path d="M384.07 403.184c-.244 2.567-.284 4.93-.244 7.497 0 .489.041.978.244 1.426.529 1.059 1.911 1.263 3.05 1.344 1.505.082 4.514.163 7.157.163 2.928 0 4.107-.529 4.148-2.729.04-1.834.081-5.582 0-7.701H384.07z" fill="#010004"/><path d="M398.465 408.481c-.04 2.159-1.26 2.648-4.188 2.648-2.603 0-5.652-.041-7.157-.163-1.179-.081-2.521-.285-3.05-1.344-.203-.408-.244-.856-.284-1.263v2.526c0 .489.04.978.244 1.426.528 1.059 1.911 1.263 3.049 1.344 1.505.082 4.514.163 7.157.163 2.928 0 4.107-.53 4.148-2.73.081-1.303.081-2.607.081-2.607z" fill="#F19A26"/><path d="M398.994 359.387c-3.335-.326-6.425 1.589-9.759 1.955-2.766.326-6.019-.326-8.052 1.385l.325 2.404a569.791 569.791 0 011.383 36.342c0 5.256 16.591 6.315 16.591.204-.61-14.545-1.261-27.786-.488-42.29z" fill="#0A0009"/><path d="M390.332 341.867c.407-1.466 1.18-2.526 2.196-3.137l2.359-1.385c-1.017.611-1.789 1.671-2.196 3.137l-11.02 40.009-2.359 1.385 11.02-40.009zm48.228 24.609l10.898 53.29-2.359 1.345-11.63-54.024 3.091-.611z" fill="#18110F"/><path d="M393.504 335.104c1.952-1.141 4.595-.937 7.482.734l27.448 15.848c4.717 2.73 8.906 8.841 10.125 14.79l-3.09 1.792c-1.22-5.989-4.676-12.507-9.393-15.237l-27.408-15.849c-2.887-1.67-5.53-1.833-7.482-.733l2.318-1.345z" fill="#2B2625"/><path d="M388.502 340.238c1.261-4.563 5.449-5.826 10.166-3.056l27.408 15.849c4.717 2.73 8.905 8.841 10.125 14.789l10.898 53.291-1.952-1.141-10.776-52.639c-1.017-4.889-4.432-9.9-8.295-12.141l-27.408-15.849c-3.904-2.24-7.319-1.222-8.336 2.526l-11.02 40.009-1.952-1.141 11.142-40.497z" fill="#18110F"/><path d="M430.874 357.879l-.325-.53-.325-.285-39.851-23.019c-2.033-1.182-3.904-1.304-5.408-.407l-51.359 29.864s.366 1.1.895 1.14l3.172-.366 41.192 22.693.326.285.325.53.163.774c0 .367-.122.57-.285.693l51.358-29.864c.163-.123.285-.326.285-.693l-.163-.815z" fill="#E73535"/><path d="M306.321 393.691c-5.652 1.589-6.344 6.723-.569 8.434 5.489 1.63 16.834 1.793 21.633 2.119 2.074.122 6.303.285 6.547-2.037.081-.897.732-6.845.691-10.227-.041-2.974-11.955-2.078-11.955-.366.04-.041-13.175 1.181-16.347 2.077z" fill="#010004"/><path d="M327.751 401.962c-4.839-.326-16.144-.489-21.634-2.118-2.317-.693-3.619-1.956-3.903-3.301-1.464 2.567-.041 4.686 3.619 5.745 5.489 1.63 16.875 1.833 21.714 2.159 2.074.123 6.385.286 6.629-2.037l.081-2.159c-.732 1.956-4.554 1.833-6.506 1.711z" fill="#F19A26"/><path d="M334.664 339.627c-2.196 1.018-3.701 3.055-4.229 5.418-1.993 9.045-7.401 32.35-9.841 45.917-.935 5.174 13.46 7.374 14.68 1.629 2.033-9.655 6.75-23.997 8.01-29.904 10.085.489 18.258 2.2 28.099 4.4 2.847.652 8.052 1.752 10.898 2.444 14.11 3.382 26.228-6.396 29.929-10.144 3.7-3.749 3.659-12.142.935-16.623-21.959-2.241-33.751-1.059-63.151-4.115-4.31-.448-10.654-1.222-15.33.978z" fill="#0A0009"/><path d="M363.047 239.482c-1.179-1.263-2.358-2.566-3.619-3.707-2.155-1.915-3.782-.245-1.993 1.955 0 0 .814 1.06 1.424 1.875l-.732-.163-.57.57c-.569 1.059-.691 3.178-.569 4.4.244 2.323.773 4.563 1.464 6.763.732 2.2 1.911 5.99 4.473 6.682 1.179.326 3.009-.081 3.741-1.1 1.057-1.507-.122-3.422-.529-4.93-.691-2.729.448-5.785-.447-8.474-.488-1.508-1.586-2.689-2.643-3.871z" fill="#F8BB9B"/><path d="M366.991 252.561c-2.114-2.037-8.092 2.852-6.506 4.807l17.486 25.464 9.8 8.311s6.058-5.622 4.025-12.141c-.772-2.485-3.049-4.278-7.482-8.841-7.116-7.333-17.323-17.6-17.323-17.6z" fill="#fff"/><path d="M370.691 324.959c-.081 12.223-1.951 18.497-3.09 26.605l.041.774c1.911 5.949 24.723 8.597 32.897 5.134l1.179-13.16 2.521 11.245c7.848-2.363 13.053-9.412 12.362-11.204-6.628-18.049-5.042-45.713-4.229-50.561.976-5.949 2.724-12.427-.041-17.805-2.399-4.685-13.541-1.385-18.664.286-14.477 4.685-29.522 8.352-27.977 14.83.325 1.263 4.473 15.441 5.001 33.856z" fill="#fff"/><path d="M336.249 337.345c-2.602-.367-1.098 2.73-.203 4.278.325.53.976.733 1.504.407.448-.285.814-.896 1.017-1.996.325-1.752-1.139-2.526-2.318-2.689z" fill="#F6AB83"/><path d="M345.602 342.275c-.61.122-1.179.204-1.667.285-1.789.245-3.579-.285-5.002-1.385-.691-.53-1.423-1.059-1.911-1.304-.569-.285-2.074-.57-2.074-.57-.122-.163-.203-.815-.163-1.263.041-.326.041-.367-.122-.571-.366-.57-.732-1.589-.162-2.118.325-.285.447-.408.244-.734-.692-1.059-.488-2.159.65-2.729l.163-.408c-.366-1.955 3.172-1.711 4.229-1.466 1.586.325 2.969 1.222 4.31 2.118a48.717 48.717 0 013.742 2.73c.487.367 1.179.733 1.504 1.263.366.611.325 1.507.407 2.2.081.978-.041 2.037-.61 2.852-.692.937-2.481.896-3.538 1.1z" fill="#F8BB9B"/><path d="M364.145 297.173c0 9.738 1.504 19.679 1.952 28.561 0 0-17.201 8.392-17.567 8.474-2.277.57-1.708 7.578.569 7.578 2.928-.57 26.919-5.582 28.871-8.23 3.823-5.093 1.18-24.038.326-37.238-.204-3.382-1.83-6.56-4.555-8.515-1.83-1.304-3.903-2.038-5.815-1.223-3.578 1.589-3.781 7.334-3.781 10.593z" fill="#fff"/><path d="M373.904 266.332c.244 1.914 2.033 2.648 3.416 3.259a2.836 2.836 0 011.708 2.118l1.708 8.679c.081.325 5.164-.978 6.302-1.223 2.888-.57 6.303-1.548 8.987-2.811.976-.489 2.155-.896 1.993-1.344-1.464-4.564-2.847-12.834-4.717-17.275-6.263-14.83-18.502-17.153-19.194-10.96-.528 4.767-.691 15.971-.203 19.557z" fill="#F8BB9B"/><path d="M375.164 253.376c-.081-.856-.609-1.589-.975-2.364-.936-2.159-1.993-5.011-.244-7.578 2.643-3.829 9.027-5.418 14.354-4.807 3.863.448 7.116 2.77 9.068 6.111 2.846 4.808 2.806 10.308 2.155 14.79-.407 2.852-1.179 7.496-3.131 9.452-1.179 1.181-6.14 2.526-9.841 2.892-2.683.286-4.879-.244-5.774-2.566-1.789-4.726.569-9.127-2.033-11.001-1.057-.774-1.83-.529-2.562.448l-.325.326c-1.22.652-.407-3.137-.692-5.703z" fill="#6E4320"/><path d="M379.394 280.917l.732-2.811s13.378-1.467 17.16-5.622l2.277 2.2c0-.041-3.457 5.581-20.169 6.233z" fill="#fff"/><path d="M344.464 360.364c10.613 2.649 21.226 4.93 28.098 7.008.244 3.178-9.352 7.456-9.596 10.593l-25.09-13.812-3.172.326c-.528-.04-.894-1.14-.894-1.14l3.415-1.997a9.792 9.792 0 017.239-.978z" fill="#E73535"/><path d="M378.824 386.969l-39.85-23.06c-2.196-1.263-4.229-1.345-5.775-.204l-.691.53c-.325.244-.325.978 0 1.589.163.326.366.529.61.692h.569l.692-.529c1.22-.897 2.846-.856 4.554.122l39.851 23.06c.447.245.854-.041.854-.652.04-.57-.326-1.304-.814-1.548z" fill="#18110F"/><path d="M336.778 372.872c.406-1.467 1.179-2.526 2.196-3.137l2.358-1.385c-1.016.611-1.789 1.67-2.196 3.137l-11.06 40.009-2.359 1.385 11.061-40.009zm48.228 24.608l10.897 53.25-2.358 1.386-11.63-54.024 3.091-.612z" fill="#18110F"/><path d="M339.95 366.068c1.952-1.14 4.595-.937 7.482.734l27.408 15.848c4.717 2.73 8.905 8.841 10.125 14.79l-3.091 1.792c-1.22-5.989-4.676-12.507-9.393-15.237l-27.448-15.849c-2.887-1.67-5.53-1.833-7.482-.733l2.399-1.345z" fill="#2B2625"/><path d="M334.948 371.243c1.261-4.564 5.449-5.827 10.166-3.056l27.448 15.849c4.717 2.729 8.906 8.841 10.126 14.789l10.898 53.291-1.952-1.141-10.776-52.639c-1.017-4.889-4.432-9.9-8.296-12.141l-27.407-15.849c-3.904-2.241-7.319-1.222-8.336 2.526l-11.02 40.009-1.952-1.141 11.101-40.497z" fill="#18110F"/><path d="M393.016 347.245c.651-2.607 3.131-5.866 5.571-7.252l34.686-20.045c2.359-1.344 5.612-2.322 7.442-.529l-52.741 61.316c-3.741-3.3-1.017-9.085 5.042-33.49z" fill="#E73535"/><path d="M441.162 318.97l-.569-.326c-.569-.203-1.423 0-2.44.571l-38.183 22.082c-2.44 1.426-4.961 4.685-5.653 7.334l-7.482 29.619c-.325 1.222-.162 2.078.326 2.526l2.033 1.793c-.488-.448-.651-1.304-.326-2.526l7.483-29.62c.65-2.648 3.171-5.907 5.652-7.333l38.183-22.082c1.017-.571 1.871-.775 2.44-.571l.529.326-1.993-1.793z" fill="#2B2625"/><path d="M442.626 320.478c-.569-.204-1.423 0-2.44.57l-38.183 22.082c-2.44 1.426-4.961 4.686-5.653 7.334l-7.482 29.62c-.366 1.548-.04 2.526.813 2.77.407.122 1.139.285 2.725-.611 5.652-3.259 33.019-19.108 38.183-22.082 2.562-1.589 4.717-4.36 5.531-7.13.528-2.119 6.912-27.379 7.441-29.579.244-1.141.366-2.526-.935-2.974z" fill="#18110F"/><path d="M404.849 356.861l-7.685 25.626-2.643-1.548c-.895.489-1.627.937-2.155 1.222-1.017.571-1.627.693-2.074.693l-1.261.733 5.937 3.463c.773.449 1.505.367 1.993-.081l-.244.204 3.781-2.2c.326-.204.61-.571.732-1.06l8.458-28.193-1.057-1.06-3.782 2.201zm30.742-17.805l-3.782 2.2-7.685 25.627-2.643-1.548c-1.586.896-3.294 1.915-5.043 2.933l5.449 3.138c.773.448 1.505.366 1.993-.082l-.244.204 3.782-2.2c.325-.204.61-.571.732-1.06l8.458-28.193-1.017-1.019z" fill="#211A1A"/><path d="M310.021 415.163l-7.035-9.779c-1.26.245-2.317-.448-3.456-.937-1.179-.488-4.432-2.892-5.612-3.422-3.334-1.467-6.668-.448-6.668 3.463 0 1.263.528 2.485 1.341 3.463 8.133 9.575 12.322 14.097 13.785 15.319 1.505 1.223 3.335 1.345 5.165.734 3.903-1.223 2.968-4.075 2.48-8.841z" fill="#F19A26"/><path d="M310.062 404.407l-7.116-.367c-1.261.244-1.627-2.363-4.92-4.115-3.213-1.711-8.58-.53-9.922 1.63-.692 1.059-.326 2.689 1.016 4.359 8.133 9.575 11.061 12.589 12.565 13.812 1.505 1.222 3.863 1.955 5.775 1.548 2.195-.489 2.683-1.67 2.927-3.137.448-3.015-.935-7.252-.325-13.73z" fill="#010004"/><path d="M297.619 359.02c-.976 1.63-1.098 12.182-.366 32.634l-.163 14.668c-.081 4.889 12.403 5.744 13.053 1.507 0 0 5.043-17.152 4.677-30.72-.163-6.07 4.025-11.367 9.922-12.752l3.578-.815c-8.621-2.892-25.496-13.322-30.701-4.522z" fill="#0E000D"/><path d="M257.565 420.989c-2.887 3.341-1.179 9.167 1.342 11.326 4.188 3.545 11.142 4.4 17.485 7.293 2.155.978 5.002 1.752 7.116 1.141 2.847-.815 3.579-2.852 2.928-6.601-.366-2.037-.772-4.115-1.016-7.089-.082-.815-9.435-1.466-10.573-1.792-7.442-2.2-14.802-7.13-17.282-4.278z" fill="#F19A26"/><path d="M257.809 420.5c-2.887 3.341-1.424 7.293 1.098 9.452 4.188 3.545 11.141 4.4 17.485 7.293 2.155.978 5.002 1.752 7.116 1.141 2.847-.815 3.335-2.73 2.684-6.438-.366-2.037-.529-4.237-.773-7.211-.081-.815-9.434-1.467-10.572-1.793-7.442-2.24-14.558-5.255-17.038-2.444z" fill="#010004"/><path d="M280.784 370.468c-5.693.082-9.19 4.564-9.231 7.497-.081 6.111.651 46.242.732 46.609.691 4.767 13.501 5.378 13.582 1.019 2.928-20.738 6.221-26.727 5.815-45.591l20.901-3.178c-1.911-.489-26.879-6.437-31.799-6.356z" fill="#0E000D"/><path d="M329.336 377.191c.407-1.467 1.18-2.526 2.196-3.137l2.359-1.385c-1.017.611-1.79 1.67-2.196 3.137l-11.02 40.008-2.359 1.345 11.02-39.968zm48.228 24.567l10.857 53.25-2.318 1.386-11.67-54.024 3.131-.612z" fill="#18110F"/><path d="M332.549 370.387c1.952-1.141 4.595-.937 7.482.733l27.408 15.849c4.717 2.73 8.905 8.841 10.125 14.789l-3.091 1.793c-1.22-5.989-4.676-12.467-9.393-15.238l-27.407-15.848c-2.888-1.671-5.531-1.834-7.483-.734l2.359-1.344z" fill="#332E2D"/><path d="M327.507 375.561c1.26-4.563 5.449-5.785 10.166-3.055l27.407 15.848c4.717 2.73 8.905 8.841 10.125 14.79l10.898 53.25-1.952-1.141-10.776-52.598c-1.016-4.889-4.432-9.901-8.295-12.141l-27.407-15.849c-3.904-2.241-7.32-1.222-8.337 2.526L318.317 417.2l-1.952-1.141 11.142-40.498z" fill="#18110F"/><path d="M369.878 393.162l-.325-.53-.325-.285-39.851-23.019c-2.033-1.182-3.904-1.304-5.408-.408l-51.359 29.864s.366 1.1.895 1.141l3.172-.326 41.152 22.653.325.285.325.53.163.774c0 .366-.122.611-.285.692l51.359-29.864c.203-.122.325-.366.325-.692l-.163-.815z" fill="#E73535"/><path d="M317.829 422.211l-39.81-23.019c-2.196-1.263-4.229-1.345-5.775-.204l-.691.53c-.325.244-.325.977 0 1.589.163.325.366.529.61.692h.61l.691-.529c1.22-.897 2.847-.856 4.555.122l39.85 23.06c.448.244.854-.041.854-.652-.041-.57-.406-1.304-.894-1.589z" fill="#18110F"/><path d="M275.823 408.155c.407-1.467 1.179-2.526 2.196-3.137l2.358-1.385c-1.016.611-1.789 1.67-2.195 3.137l-11.02 40.009-2.359 1.385 11.02-40.009zm48.186 24.567l10.898 53.25-2.358 1.386-11.63-54.024 3.09-.612z" fill="#18110F"/><path d="M279.035 401.351c1.952-1.141 4.595-.937 7.482.733l27.408 15.849c4.717 2.73 8.905 8.841 10.125 14.789l-3.09 1.793c-1.22-5.989-4.677-12.467-9.394-15.237l-27.407-15.849c-2.887-1.671-5.53-1.834-7.482-.733l2.358-1.345z" fill="#332E2D"/><path d="M273.993 406.525c1.261-4.563 5.449-5.826 10.166-3.055l27.407 15.848c4.717 2.73 8.906 8.841 10.126 14.79l10.898 53.25-1.952-1.141-10.776-52.598c-1.017-4.889-4.433-9.901-8.296-12.141l-27.407-15.849c-3.904-2.241-7.32-1.222-8.336 2.526l-11.02 40.009-1.952-1.141 11.142-40.498z" fill="#18110F"/><path d="M332.834 347.408c1.26-3.177-.651-6.722-3.985-7.415a26.76 26.76 0 01-2.034-.448c-2.317-.692-4.188 7.293-2.155 7.741l5.449 1.508a2.292 2.292 0 002.684-1.345l.041-.041z" fill="#fff"/><path d="M353.775 316.322c-.894-7.008-4.838-13.649-11.548-9.982-3.416 1.874-3.009 6.356-2.725 9.575.814 9.615.488 13.159 1.302 22.775l-3.782 11.326c4.595 1.263 8.621 3.585 14.151 3.585 1.708 0 6.547.082 6.547-4.033-.041-7.13-2.359-20.657-3.945-33.246z" fill="#150015"/><path d="M351.742 379.065c-21.836-2.2-33.507-1.059-62.744-4.074-4.27-.448-9.597-2.852-14.273-.652-1.627.733 9.027 13.934 9.881 15.686 6.628 2.159 23.138 14.219 31.027 16.337 14.964 4.034 18.339.122 23.341-2.729 4.757-2.689 6.343-6.56 10.003-10.267 3.66-3.789 5.49-9.86 2.765-14.301z" fill="#0E000D"/><path d="M310.591 362.727c-.082 9.493-.407 13.568-1.058 18.742-.61 4.685 2.359 9.126 6.913 10.185 4.433 1.019 10.044 1.182 14.802.53 3.416-.489 6.018-3.3 6.343-6.722l.692-7.864.732 1.915c2.439 6.519 12.036 6.56 13.988-.081.203-.774.244-1.386.041-1.752-9.678-17.927-2.847-42.454-2.034-47.22.976-5.908.204-16.664-2.521-22.001-1.098-2.2-3.009-3.626-5.855-2.282-.773.367-4.433 1.997-4.433 1.997-3.009 1.874-4.839 3.911-6.872 4.563-5.245 1.711-11.996 3.015-16.143 5.174-2.522 1.304-4.595 2.445-6.222 3.585-2.928 2.037-4.026 5.826-2.643 9.086l.203.489c.854 2.118 4.433 11.815 4.067 31.656z" fill="#150015"/><path d="M312.827 301.736c.244 1.915 2.033 2.649 3.375 3.219.895.367 1.505 1.182 1.708 2.119l1.708 8.637c.081.326 5.124-.978 6.262-1.182 2.887-.57 6.262-1.548 8.946-2.811.976-.448 2.115-.855 1.952-1.344-1.464-4.523-2.806-12.753-4.676-17.112-6.222-14.749-18.38-17.03-19.072-10.878-.528 4.685-.65 15.808-.203 19.352z" fill="#F8BB9B"/><path d="M313.112 286.499c-.935-2.119-2.562-4.482-2.481-7.578.163-8.067 7.523-9.819 14.07-9.371 10.654.733 12.118 5.134 14.07 8.434 2.806 4.767 1.179 12.793.569 17.274-.407 2.852-1.627 7.375-3.578 9.33-1.18 1.182-5.775 2.73-9.434 3.138-2.644.285-5.734-.693-6.588-3.015-.813-2.119-.488-4.36-.285-6.56.163-1.467.692-4.604-.04-5.989-.529-.978-2.521-1.67-3.416-.774-.285.285-.488.774-.895.856-.366.081-.691-.245-.813-.571-.244-.733 0-1.63-.122-2.404-.203-1.018-.651-1.792-1.057-2.77z" fill="#190600"/><path d="M318.276 315.018l.732-1.589s13.256-1.466 17.038-5.581l1.057.978c0-.041-2.236 5.54-18.827 6.192z" fill="#fff"/><path d="M338.649 307.766c-.448-.081-1.505-.163-2.44.163l.65.611c-1.911 3.871-14.151 6.56-18.542 6.315-.326 0-1.749 1.06-2.562 1.834-.976.937-1.301 1.548-1.301 1.548 7.4.326 12.443.326 16.916-1.426 8.214-3.178 8.011-7.211 7.685-8.556-.081-.244-.244-.448-.406-.489z" fill="#291529"/><path d="M332.061 382.528c.651-2.607 3.131-5.826 5.571-7.252l34.686-20.045c2.359-1.345 5.612-2.322 7.442-.53l-52.741 61.276c-3.741-3.3-1.017-9.044 5.042-33.449z" fill="#E73535"/><path d="M380.166 354.253l-.528-.326c-.569-.204-1.464 0-2.44.571l-38.183 22.082c-2.44 1.426-4.961 4.726-5.653 7.333l-7.482 29.62c-.325 1.222-.162 2.078.325 2.526l2.034 1.793c-.488-.449-.651-1.304-.326-2.526l7.483-29.62c.65-2.648 3.171-5.908 5.652-7.334l38.183-22.082c1.017-.57 1.871-.774 2.44-.57l.569.326-2.074-1.793z" fill="#2B2625"/><path d="M381.671 355.72c-.57-.204-1.424 0-2.44.57l-38.183 22.082c-2.44 1.426-4.961 4.686-5.653 7.334l-7.482 29.62c-.407 1.548-.041 2.526.773 2.77.406.082 1.138.285 2.724-.611 5.652-3.259 33.019-19.108 38.184-22.082 2.561-1.589 4.717-4.36 5.53-7.13.528-2.119 6.913-27.379 7.441-29.579.244-1.141.407-2.485-.894-2.974z" fill="#18110F"/><path d="M343.894 392.143l-7.685 25.627-2.643-1.548c-.854.489-1.627.937-2.155 1.222-1.017.571-1.627.693-2.074.693l-1.261.733 5.896 3.422c.773.449 1.505.367 1.993-.081l-.244.244 3.782-2.2c.325-.203.61-.57.732-1.059l8.458-28.194-1.058-1.059-3.741 2.2zm30.742-17.804l-3.782 2.2-7.685 25.627-2.643-1.548c-1.586.896-3.294 1.915-5.043 2.933l5.449 3.178c.773.448 1.505.367 1.993-.082l-.244.204 3.782-2.2c.325-.204.61-.57.732-1.059l8.458-28.194-1.017-1.059z" fill="#211A1A"/><path d="M260.045 345.331l1.546-8.638.244-.489.894-.774-.244.489-1.545 8.637c-.122.612.325 1.386.976 1.671l16.672 7.741c.447.204.854.163 1.098-.082l-.895.774c-.243.245-.691.286-1.097.082l-16.673-7.741c-.65-.285-1.098-1.059-.976-1.67z" fill="#BEC1BD"/><path d="M260.94 344.556l1.545-8.637c.122-.611.732-.856 1.383-.57l16.672 7.741c.651.285 1.098 1.059.976 1.67l-1.545 8.637c-.122.612-.732.856-1.383.571l-16.672-7.741c-.651-.285-1.098-1.059-.976-1.671z" fill="#D1D5D1"/><path d="M263.705 335.675l15.737 7.252-1.667 10.226-15.737-7.252 1.667-10.226z" fill="#7293CC"/><path d="M282.37 359.346c.732-.856 1.463-1.752 2.236-2.567.203-.326.407-.693.61-1.018.041-.693.203-1.345.366-1.956l-.732-.367c-1.138-.611-2.318-1.141-3.416-1.874-2.48-1.711-4.025-3.952-6.221-5.908-.407-.366-3.375-3.014-3.945-3.096-.569-.081-1.016.367-1.179.896-.285.897 3.091 3.749 3.335 4.645.244.896-.407 1.874-1.302 2.241-.854.366-1.87.285-2.765.081-1.789-.366-5.164-1.955-5.164-1.955.407 2.078 1.952 3.666 3.497 5.133.813.774 1.627 1.589 2.602 2.119 1.424.815 9.597 2.933 11.427 3.341.122 0 .366.122.651.285z" fill="#F8BB9B"/><path d="M284.037 351.849c-5.001-1.711-6.14 6.193-4.188 7.864 2.318.896 4.148 1.263 6.465 2.118.61-1.304-1.301-9.656-2.277-9.982z" fill="#fff"/><path d="M318.642 326.263c-.854-4.563-4.514-6.03-9.027-4.604-4.921 1.508-5.246 5.745-5.531 9.453-.569 7.822-1.179 16.622-1.748 24.445 0 0-14.68-3.463-17.811-4.074-4.717-.937-5.896 7.129-3.619 9.044 6.832 2.608 16.672 5.786 23.544 8.393 3.497 1.345 6.222.408 7.076-2.241 2.155-6.478 2.684-12.915 4.839-19.352 2.318-6.845 3.212-16.297 2.277-21.064z" fill="url(#paint8_linear_1184_6038)"/><path d="M350.97 147.894l18.298-10.593v-1.344l-17.851 10.348-35.296-14.178v-13.404l-1.18.692v14.016l.204.081 35.825 14.382z" fill="#fff"/><path d="M324.335 157.265c.691 0 1.504-.245 2.318-.734l18.786-10.878-23.991-9.615v17.478c.04 2.404 1.179 3.749 2.887 3.749z" fill="#fff"/><path d="M347.269 144.635l8.377-4.849c2.887-1.67 5.205-5.704 5.205-9.044v-21.349c0-2.363-1.179-3.708-2.887-3.708-.691 0-1.505.245-2.318.734l-28.993 16.785c-2.887 1.671-5.205 5.704-5.205 9.045v2.119l25.821 10.267z" fill="#F3FAFB"/><path d="M345.48 145.694l1.789-1.059-25.781-10.349v1.752l23.992 9.656z" fill="#fff"/><path d="M358.167 106.296c-1.423-1.67-3.131.204-4.351.082-.61-.041-1.098.041-1.261.203-.366.449-.691.897-.975 1.304-1.058 1.548-2.074 2.73-1.383 4.767.854 2.445 6.222 15.401 12.728 23.101l6.872-4.4c-.122-.53-.244-1.1-.407-1.671l1.952-.57c-2.684-4.93-6.953-15.401-13.175-22.816z" fill="#FCDCC8"/><path d="M364.185 114.037c-.528 1.997-1.342 3.789-2.806 5.093a7.747 7.747 0 01-1.748 1.182c-.488.285-1.017.489-1.627.651-1.098.326-2.195.489-3.293.612-4.189-6.764-9.394-16.216-10.573-19.149-.447-1.141 1.667-1.834 1.505-2.2l-.244-.611c-.61-1.752-.122-2.649.975-3.952l.326-.367c.284-.285.65-.57 1.057-.734.407-.203.895-.325 1.423-.407l.366-.04c2.155-.204 4.839.61 6.344 2.851.813 1.223 3.741 7.334 6.465 13.323.692 1.222 1.261 2.526 1.83 3.748z" fill="#F7C4D5"/><path d="M349.628 248.283c-.081-11.286 1.952-21.512 3.822-34.346.61-4.033 1.952-3.178 2.074-11.571.122-4.359.529-10.145.691-17.193l-19.396-2.2.122.489c.772 2.689 1.586 5.378 2.318 8.067 1.26 4.482.976 7.822 1.464 11.489.04 5.174-2.481 17.519-2.237 24.69.203 6.03 1.993 12.671 3.822 18.904.244 2.2-.528 3.463-1.016 4.93.041 3.952 4.392 8.393 6.018 9.412 1.83 1.14 5.49 2.2 7.442.855l-1.22-4.767c-2.237-5.337-2.847-5.785-3.904-8.759z" fill="#FCDCC8"/><path d="M347.066 256.309c-3.253-6.763-5.002-14.627-5.286-22.449-.61-8.597-3.416-22.449 5.205-26.401 2.765-1.344 5.733-1.467 8.417-2.322.041-.774.082-1.711.122-2.73.122-4.359.529-10.145.691-17.193l-19.396-2.2.122.489c.772 2.689 1.586 5.378 2.318 8.067 1.26 4.481.976 7.822 1.464 11.489.04 5.174-2.481 17.519-2.237 24.69.203 6.03 1.993 12.67 3.822 18.904.244 2.2-.528 3.463-1.016 4.93.041 3.952 4.392 8.393 6.018 9.411 1.83 1.141 5.49 2.2 7.442.856.04 0-.082-.448-.244-1.059-3.172-.326-5.897-1.426-7.442-4.482z" fill="#FACCAF"/><path d="M340.844 261.809a5.35 5.35 0 001.302.408c.122-1.223.203-2.893.569-6.315l-3.05-1.752c.203 2.933.447 4.97.447 7.17l.732.489z" fill="#13110D"/><path d="M352.718 254.964c-.04 0 .976 2.649 1.058 3.26.243 1.589-1.098 2.648-2.766 2.444-4.188-.529-10.694-7.333-8.986-10.959-.366.163-1.993 1.629-2.196 2.852-.732 4.155 1.87 3.829 2.806 4.766 1.22 1.223 1.098 4.197 2.114 5.745 1.545 2.363 8.906 5.663 13.46 3.626.447-.244.976-.448 1.098-.896.691-2.119-5.896-9.33-6.588-10.838z" fill="#312B31"/><path d="M322.586 188.677c3.253.856 14.436 3.137 15.046 4.848.407 1.182.122 10.512-3.578 39.846-1.627 13.282-1.22 11.815.813 24.975.203 1.182-.366 4.808-.366 4.808l-3.741 2.77-5.815-3.178c-.732-3.748-.854-4.441.935-13.241-1.504-11.693-4.31-13.323-3.822-38.135.04-.692.284-19.76.528-22.693z" fill="#FCDCC8"/><path d="M322.098 211.411c0-.733.244-19.841.488-22.734 3.253.856 14.436 3.137 15.046 4.848.325.856.203 5.989-1.261 19.882-1.992-.163-4.025-.366-6.018-.448-1.749-.04-3.944-.122-5.53.774-3.009 1.712-2.115 6.927-1.667 9.656.853 5.134 2.114 10.145 3.253 15.197.813 3.585.61 7.334.772 11 .163 3.504-.325 6.845-.976 10.308-.203 1.1-.366 2.2-.488 3.3l-.772-.407c-.732-3.748-.854-4.441.935-13.241-1.464-11.693-4.27-13.323-3.782-38.135z" fill="#F6C9AE"/><path d="M324.579 257.083c-1.017 3.545.935 14.056 6.018 14.138 4.717.081 4.595-7.293 4.636-9.493 0-.774-.326-3.382-.326-3.382s-.203 1.793-1.179 3.789c-1.098 2.241-4.473 2.648-6.506.896-.976-.814-2.074-3.218-2.643-5.948z" fill="#312B31"/><path d="M323.562 138.32c.325-1.549.529-2.812.569-3.545-.528-5.052-2.561-9.941-3.009-12.386-.813-4.359-3.985-21.634-.122-23.467 1.098-1.1 9.19-3.87 9.394-3.504 3.171 6.845 7.848 4.4 10.735 4.156 5.733-.489 3.253-6.437 3.253-6.437s4.066.448 6.709 1.792c3.498 1.793 7.442 13.975 7.686 16.582.163 1.834-.529 4.237-1.464 6.764-2.562 7.129-4.148 8.229-4.31 18.333 0 1.019.04 2.16.203 3.341-9.922 2.282-20.21 1.874-29.644-1.629z" fill="#F29BB6"/><path d="M323.562 138.32c9.475 3.503 19.722 3.911 29.644 1.711.61 5.133.407 2.567 3.009 13.241 2.603 10.634 1.871 44.287 1.464 54.595-.041.488-2.44 2.811-14.964 3.463-16.388.855-22.691-2.649-22.691-2.649s-.203-6.233-.772-7.985c-1.139-3.382-3.823-33.449.772-48.117 1.017-3.3 2.644-9.941 3.538-14.259z" fill="#3F3641"/><path d="M320.024 152.579c1.058-3.3 2.684-9.941 3.538-14.259.773.285 1.545.529 2.318.774-.773 1.629-1.301 3.463-1.667 5.011-2.481 9.941-4.758 21.797-4.676 31.983.122 13.119 3.293 33.653 2.643 33.449-1.505-.489-2.156-.856-2.156-.856s-.203-6.233-.772-7.985c-1.179-3.382-3.863-33.449.772-48.117zm20.983-46.853c0-.652.528-1.222 1.22-1.222.65 0 1.22.529 1.22 1.222 0 .652-.529 1.222-1.22 1.222-.651 0-1.22-.529-1.22-1.222zm1.87 7.945c0-.652.529-1.223 1.22-1.223.651 0 1.22.53 1.22 1.223 0 .652-.528 1.222-1.22 1.222-.691 0-1.22-.57-1.22-1.222zm.692 8.352c0-.652.528-1.223 1.22-1.223.65 0 1.22.53 1.22 1.223a1.2 1.2 0 01-1.22 1.222c-.692-.041-1.22-.57-1.22-1.222zm.04 8.963c0-.652.529-1.222 1.22-1.222.692 0 1.22.529 1.22 1.222 0 .652-.528 1.222-1.22 1.222-.691 0-1.22-.57-1.22-1.222z" fill="#282326"/><path d="M337.917 171.158l.04.081-.04.123v-.204z" fill="#FCDCC8"/><path d="M345.643 93.34c-1.139-.163-1.83-.366-1.83-.366s-.854 3.666-2.806 3.83c-3.619.325-6.628-2.12-8.092-3.26v.896l-2.521 1.019c.772 3.667 5.367 5.867 10.084 5.826 4.677 0 5.978-3.911 5.165-7.945z" fill="#F6C9AE"/><path d="M332.143 84.58l.569 9.168-.203 1.63s.447.733 1.301 1.466l.04.04.61.49c.61.489 1.342.896 2.237 1.14 1.342.408 2.765.693 4.148.612a4.47 4.47 0 001.26-.163c1.017-.245 1.627-.774 2.074-1.426.285-.449.447-.937.61-1.467l-.203-5.337-.122-2.608-12.321-3.544z" fill="#F6C9AE"/><path d="M342.024 106.785l.041.041v-.041h-.041z" fill="#1B3C85"/><path d="M324.132 134.938c9.068 4.115 19.437 4.196 28.912 1.019-.163 2.322.691 6.966.61 6.966-1.952 1.386-20.698 5.012-30.661-1.996.325-1.956.651-3.748 1.139-5.989z" fill="#282326"/><path d="M331.045 85.192c-6.629 1.589-9.841-4.848-10.858-7.415-1.016-2.567-.976-5.623.448-8.026 1.423-2.364 4.351-3.87 7.034-3.3 1.708.366 3.172 1.466 4.23 2.851 1.057 1.386 1.748 3.015 2.277 4.645.854 2.77 1.342 5.663 1.342 8.556 0 1.752-.326 3.789-1.83 4.644l-2.643-1.955z" fill="#A76E18"/><path d="M326.409 83.644c5.937 5.989 9.718 9.574 15.777 5.704 6.1-3.871 9.516-13.079 9.231-21.512-.203-5.052-12.24-11.041-20.047-6.56-9.272 5.337-10.735 16.541-4.961 22.368z" fill="#D0972D"/><path d="M351.58 73.743c-.122 8.026-.935 16.216-5.53 19.23-1.464.978-3.416.938-5.368.449a11.964 11.964 0 01-1.139-.326c-2.155-.734-4.188-1.956-5.449-2.893-1.829-1.385-3.456-8.76-3.781-11.285-1.139-7.945 4.798-8.108 10.044-11.449 5.245-3.382 11.304-1.752 11.223 6.274z" fill="#FCDCC8"/><path d="M347.554 62.824c-2.115.286-4.27 2.445-6.384 2.812-2.033.366-4.067.733-6.14 1.14-2.766.815-5.49 1.712-8.215 2.486-.528 1.548-.853 3.137-.853 4.889-.041 2.73.528 5.215 1.626 7.7.203.489 3.456-3.667 3.7-3.137 0 0 3.945 5.745 5.449 4.237 2.278-2.24.732-9.411.732-9.411s12.687 2.281 14.639.122c-.284-3.137.854-7.741-4.554-10.838z" fill="#D0972D"/><path d="M334.582 80.832c1.179 1.793 1.301 3.79.244 4.523-1.057.733-2.887-.122-4.066-1.915-1.18-1.793-1.301-3.79-.244-4.522 1.057-.734 2.887.122 4.066 1.914z" fill="#FCDCC8"/><path d="M333.606 81.484c.569.856.651 1.874.122 2.2-.529.367-1.423-.081-1.992-.937-.57-.855-.651-1.874-.122-2.2.487-.366 1.423.041 1.992.937z" fill="#FACCAF"/><path d="M347.919 65.473l-.121.203.243-.163-.122-.04z" fill="#F7F3ED"/><path d="M326.246 110.737c-.244-2.2-2.684-1.589-3.619-2.363-.488-.407-.894-.57-1.138-.529-.57.162-1.058.325-1.546.529-1.748.693-3.253 1.059-3.822 3.137-.691 2.526-4.473 16.46-3.456 26.483h9.149c.203-.53.407-1.06.61-1.63l.691-.285c2.318-5.297 4.148-15.686 3.131-25.342z" fill="#FCDCC8"/><path d="M315.714 125.16c1.911 1.1 3.863 1.385 6.059 1.304a14.629 14.629 0 004.554-.937c1.302-8.149 2.278-16.99 1.342-21.186-.569-2.486-2.196-5.256-4.839-5.704a5.173 5.173 0 00-1.586 0c-2.602.407-4.107 2.729-5.083 5.989-.528 1.752-1.87 10.145-2.846 18.619.691.693 1.423 1.385 2.399 1.915z" fill="#F7C4D5"/><path d="M363.006 141.335c-.569-2.078-1.138-5.215-1.586-9.697-.366-3.83 3.254-5.704 4.107-5.745 2.318-.203 5.49.652 6.344 5.174.569 2.934-.081 6.804-.732 10.308h-8.133v-.04z" fill="#FCDCC8"/><path d="M380.573 135.712c-.447 0-23.097 14.627-23.097 14.627l-25.7 6.722 23.748-16.664 25.049-4.685z" fill="#F2F3F5"/><path d="M342.349 143.412c-.651-.04-1.261-.611-1.667-.489-1.586-.896-12.24-8.515-19.356-10.511l-2.115.285a7.627 7.627 0 00-.935-.163l-.813-.041c-2.115.082-3.986 1.304-4.677 3.382a4.83 4.83 0 00.122 3.463l.041.122c.447 1.019 1.22 1.915 2.277 2.445.244.163.529.244.773.326l1.301.407 22.812 6.315c1.79.937 3.375 2.2 5.205 3.015 2.237.978 4.473.571 6.832.448l.732-.163.366-.611c-.041-.366-.448-.529-.773-.652.813-.488 3.457-1.303 1.22-2.037-1.139-.366-2.765.082-3.985.041a3.626 3.626 0 01-3.253-2.282c.772-.162 1.342-.203 2.114.041.488.163 1.017.367 1.546.367.528 0 1.098-.326 1.179-.856.244-.774-5.612-2.648-8.946-2.852zm24.805-3.096c-.732.204-1.423.326-2.033.733l-.529.489-.691.245c-1.017.203-1.139.896-1.261 1.263-.569.448-.935.774-1.179 1.263.325.855.732 1.752.935 1.874.244.407.651.53 1.139.489.325.326.813.652 1.423.937 1.179.041 1.139-.448 1.789-.652.732-.204 1.383-.367 2.074-.611.61-.204 1.179-.204 1.789-.53.854-.448 1.098-.692 1.058-1.059l-.57-.489c.529-.856-.447-3.015-.935-3.789-1.057-.611-1.749-.53-3.009-.163z" fill="#FCDCC8"/><path d="M163.916 185.581c.285-.082.691.04.976.04 0 .041.041 0 .041 0l2.358.082h.082l2.236-.163c.163-.041.122 0 .244-.041.122 0 .163-.041.285-.081l.325-.041c.041 0 .081-.041.081-.041l1.058-.163c.04 0 .04-.041.04 0l2.237-.53h.122l.894-.285c.204-.04.082 0 .285-.04.122-.041.203-.123.325-.163l1.546-.489c.488-.123 1.342-.53 1.87-.693l1.301-.489c.529-.244.895-.448 1.342-.57-.081.326-.366.815-.569 1.141l-.976 1.629c-.081.122-.081.163-.163.285l-.488.693c-.04.082-.081.122-.122.163-.325.448-.65.937-1.057 1.426l-1.22 1.222c-1.22 1.141-1.342.897-2.277 1.589v.122c.244-.081.285-.04.488-.122.244-.081.325-.163.569-.244.488-.122.61-.245 1.098-.489.407-.204.692-.204 1.098-.408.651-.366 2.44-1.222 3.009-1.589.204-.162.244-.244.529-.407.488-.244.732-.326 1.179-.652.244-.204.244-.163.529-.326.366-.203.244-.203.528-.366.244-.163.285-.163.529-.326l1.545-1.141.244-.163c.041 0 .082-.082.082-.082.04 0 .04-.04.04-.04l.61-.489.041-.041c.041 0 .041-.041.041-.041l.366-.285c.162-.163.284-.244.488-.407.162-.123.04-.041.162-.163l3.294-3.137 1.179-1.304a1.29 1.29 0 00.204-.245l.081-.081 1.26-1.63c.041 0 .041-.041.041-.041.325-.448.61-.814.895-1.263.04-.04.04-.04.04-.081l.041-.041.732-1.141c.488-.896 1.017-1.874 1.301-2.811.082-.204.082-.326.163-.529.407-1.06.488-1.875.569-2.893v-1.059c-.04-.245 0-.367-.04-.53a2.092 2.092 0 01-.082-.448c-.04-.367-.122-.489-.244-.815-.081-.204-.122-.652-.447-.57-.325.407-1.627 3.096-2.074 3.829l-2.562 4.36c-.162.326-.162.366-.366.652l-4.595 6.355-.122.123-.976 1.14-.122.163-1.748 1.915c-.285.285-.407.489-.691.652.081-.122-.041 0 .121-.163l.122-.122.488-.53.041-.041 2.684-3.544c.203-.245.285-.408.488-.652.122-.163.122-.163.203-.285l1.545-2.2c.041 0 .041 0 .041-.041l.285-.448c.04 0 .04-.041.04-.041 0-.041.041-.041.041-.041.041 0 .041-.04.041-.04l.04-.041 1.302-2.037c.04 0 .04-.041.04-.041l.692-1.181c.976-1.508 1.951-3.178 2.683-4.727l.163-.326.651-1.222c.284-.529.488-1.059.772-1.548.285-.489.773-1.385.814-1.833-.976.489-1.261 1.059-2.156 1.222-.813.122-1.707.652-2.602 1.181l-.407.326c-.325.286-.61.489-.935.815-.122.163-.122.163-.285.285l-.162.204-.041.041-.935 1.1c-.041 0-.122.163-.163.204l-.325.448c-.041 0-.041.04-.041.04l-1.626 2.567c-.488.856-1.505 2.811-1.79 3.586-.122.285-.162.448-.325.692-.61 1.182-1.139 2.404-1.708 3.626-.122.285-.162.489-.325.774l-.529 1.019c-.325.611-.61 1.304-.976 1.915 0-.245-.04-.285-.122-.367l-.488-.489h-.04l-.041-.081c-.163-.123-.163-.326-.203-.611-.041-.693-.326-1.508-.692-1.875-.081-.122-.162-.163-.284-.244-.285-.163-.163-.204-.529-.326l-.935-.244h-.651c-.325.04-.691-.041-1.057.081l-2.44.693c-.772.244-1.952.733-2.724 1.14-.326.163-.366.123-.61.245-.082.041-.122.081-.285.163l-1.992.896c-.814.408-1.627.652-2.522 1.1.082-.285.204-.366.285-.652.122-.326.163-.489.244-.733.244-.448.244-.53.447-.815l.57-.815c.244-.366.528-.733.732-1.1.162-.285.244-.407.366-.692l.406-1.1a7.558 7.558 0 00.285-4.075c-.041-.244 0-.448-.081-.651l-2.847-5.623c-.325-.489-.976-1.467-1.098-1.996l-.976-2.526v-.041l-.04-.122c-.041-.163-.041-.082-.041-.204v-.081c0-.123.041 0-.041-.123a6.398 6.398 0 01.082-2.892c.162-.652.65-1.956.975-2.567-.406.244-.488.53-.732.896-.121.204-.203.285-.325.53l-2.521 4.685-1.627 3.667c-.04.041-.04.122-.081.163-.163.326-.122.204-.244.57l-.976 2.812a3.346 3.346 0 00-.162.611c-1.058 3.341-1.464 7.007-.936 9.574.122.652.285 1.182.57 1.63l1.098 1.385a3.683 3.683 0 001.87.652l.122.041c.081 0 .163-.041.244 0l1.83-.245c.163-.081.122-.081.285-.081.244-.082-.082.081.244-.041.284-.081.528-.204.772-.448-.081-.326-.244-.489-.366-.774l-.854-2.037c-.081-.163-.081-.245-.162-.449l-.244-.611c-.041-.081-.041-.203-.082-.285l-1.016-4.278c-.244-1.589-.204-3.993-.041-5.744.041-.326.081-.326.122-.652.081-1.182.163-1.1.203-2.16l.082-.04c-.082 1.344-.244 2.566-.163 3.626.041.203.041.57.041.692 0 .245-.041.245.04.571.122 1.059.122 2.037.366 3.055.041.204.082.367.122.53.122.978.366 1.793.61 2.689.204.815.488 1.589.814 2.322.081.123.122.367.162.489.163.489.407.897.61 1.345 0 0 .041 0 .041.04l.04.082c.285.611.773 1.263.936 1.915-.407.203-.285.081-.57.203-.284.082-.406.163-.691.245-.163.041-.406.204-.61.244l-2.44.53c-.081 0-.081.041-.122.041l-1.464-.122c-.366-.123-.731-.245-.975-.53-.041-.041-.082-.122-.122-.163l-.326-.448c-.081-.163-.04-.245-.244-.204-.244.53.204.937.285 1.304.285.978.732 1.874 1.179 2.689l.325.489c.082.081.082.04.122.163.285.448.204.611.651 1.018.244.204.407.571.651.774l.528.53c.163.163.936.896 1.22 1.019l3.619 1.588c.285.123 1.546.163 1.952.163l1.22-.081c.122-.041.122-.041.244-.041l.773-.163a7.887 7.887 0 001.708-.611l1.138-.611c.773-.407.651-.367 1.22-.774l1.057-.856c.041 0 .041-.04.041-.04l.854-.856c.163-.163.285-.285.407-.448l.081-.082a28.635 28.635 0 001.464-1.833l.325-.53c.081-.122.122-.163.163-.244.162-.245.406-.611.488-.856-.692 0-1.993.774-2.643.937-.163.041-.122.041-.326.082-.284.122-.284.081-.61.203-.61.286-1.098.286-1.708.489a9.262 9.262 0 01-1.667.449l-.935.244h-.041l-.284.041-.041.041-.813.122c-.854.122-1.749.285-2.562.244h-1.017l-.081-.041h-.081l-1.952-.285c-.366-.081-1.22-.163-1.383-.366z" fill="#97C21A"/><path d="M165.258 163.743c.407-.204.651-.448 1.058-.693.488-.285.569-.367 1.016-.448l.895-.204c.447-.163 1.22-.529 1.748-.855.326-.204.407-.326.692-.53.284-.204 0 0 .244-.204.081-.081.162-.163.244-.203.04 0 .081-.082.122-.082 0 0 .04 0 .04-.041.854-.774 1.505-1.548 2.196-2.485l3.335-5.704c.244-.489.528-.937.731-1.426l.407-.815c.041-.081.041-.04.081-.163l4.839-8.963.041-.041.325-.529c.529-.693 1.18-1.548 1.79-2.119.122-.163.284-.285.366-.407.284-.285.162-.163.488-.408.772-.611.732-.611 1.585-1.059.326-.204.366-.163.407-.489-.325.163-.691.245-.976.326-.203.082-.325.163-.528.245-.529.203-1.139.407-1.668.651-.406.204-.65.286-1.179.571-1.626.855-2.846 1.426-4.554 2.526l-2.033 1.426c-.732.57-1.424 1.018-2.115 1.589 0 .04-.041.04-.041.04l-2.887 2.649c-.203.203-.284.244-.447.448l-.773.815c-.122.163-.244.244-.366.407l-1.016 1.182-.041.04c-.041 0-.041.041-.041.041-.691.856-.366.53-.813 1.059l-.732 1.06c-.366.529-1.423 2.322-1.708 2.974 0 .041-.04.041-.04.041l-.692 1.833c-.488 1.548-.772 3.504-.406 4.563l.284 1.059c.041.123.122.204.163.367.285-.204.325-.285.447-.57.041-.122.041-.082.082-.163.081-.122.04-.082.081-.163.041 0 .041-.041.041-.041 0-.041.04-.081.04-.081a.563.563 0 01.122-.163c.082-.123.082-.163.163-.286l4.676-7.659c.407-.693.936-1.345 1.424-1.996.081-.082 0 0 .081-.123l5.53-6.518c.285-.286.976-1.019 1.261-1.223-.122.245-.529.571-.732.815l-.814.896c-.04 0-.122.123-.122.163l-.122.123-.04.04-.041.041-2.236 2.73c-.122.204-.082.122-.204.285l-2.561 3.545c-.041.081-.041.081-.082.122l-1.504 2.241-.082.122-5.205 9.126c-.162.326-.203.448-.244.693z" fill="#97C21A"/><path d="M198.318 140.846c-.366.163-.854-.041-1.179-.041-.163 0-.163.041-.285 0 0-.041-.041 0-.041 0h-.244l-2.48.163c-.244.041-.448.081-.732.122h-.122l-4.798 1.182c-.366.081-.773.326-1.18.366l-.813.326c-.163.041-.122 0-.325.082l-2.481 1.018c-.366.204-.528.245-.813.326-.569.204-1.179.611-1.789.897-.732.325-1.139.366-.57.855.122.122.244.204.366.326.326.285.488 1.426.936 2.159.325.489.162.204.569.489l.651.326c.122.041.122.041.203.082l.285.04c.365.041.813 0 1.26-.04l.244-.041h.041c1.586-.204 3.578-1.141 5.286-2.037 1.017-.53 5.978-3.056 6.994-3.422l2.725-1.019c.203-.081.081 0 .203-.041l.325-.04h.041l.732-.123c1.057 0 2.114.163 2.643.978.081.163.122.285.366.204-.041-.571-.935-2.282-1.179-2.648l-.61-1.019c-.163-.204-.325-.367-.488-.57-.041-.041-.081-.123-.122-.123 0-.04-.041-.04-.041-.04l-.122-.082c-.081-.122-.122-.204-.203-.326l-.529-.57s-.04 0-.04-.041l-1.261-1.1h-.041l-1.016-.693c-.041 0-.082-.04-.082-.04h-.081c0-.041-.041 0-.041-.041l-1.179-.489c-.04 0-.04 0-.081-.041l-.651-.203c0-.041-.04 0-.04 0l-.61-.163h-4.677l-.772.203c-1.058.286-2.074.897-3.213 1.508l-2.155 1.752c-.569.57-1.139 1.14-1.667 1.792l-1.789 2.73c-.122.163-.163.245-.244.489.406-.204.65-.244 1.22-.53.528-.285.732-.285 1.26-.529.325-.163.285-.123.529-.163.284-.082.406-.204.65-.326.326-.163.326-.082.895-.326.325-.122.163-.041.325-.082l.814-.244c.162-.041.203-.082.325-.122l6.303-1.345 1.138-.041h.082c0 .041.04 0 .04 0 0 .041.041 0 .041 0h.122l2.074.204c.163.041.244.041.407.041.488-.041.61-.122.691.041z" fill="#97C21A"/><path d="M197.627 170.913c.284-.163.366-.366.528-.652l1.017-1.792c.163-.285.122-.041.122-.408.325-.203.244-.285.528-.855l3.213-7.334c.081-.244.081-.285.163-.529l.691-2.078c.203-.571.285-1.06.366-1.589.081-.448.325-1.222.366-1.63.081-.733.162-1.63.284-2.322.082-.448.041-1.711.041-2.16-.041-.366 0-.611-.041-.977-.04-.326-.122-.611-.162-.897-.041-.285 0-.203-.082-.366-.081-.204-.04-.204-.081-.408l-.894-1.711h-.041l-.244-.285a3.046 3.046 0 00-1.423-.896l-.407-.123h-.041l-.569-.081c-.081 0-.122.041-.203 0l-2.115.367c-.569.203-.081-.082-1.098.407-.04.448 0 .244.082.326 0 .041.04 0 .04.041l.529 1.018c.081.204.203.408.285.652l.894 2.282c.041.163.082.203.122.366l.488 1.426c.041.122.081.204.081.367.041.041.041.122.041.163l.122.611c.325 1.385.569 3.504.488 5.174l-.122 2.323c-.041.814-.203 1.385-.244 2.24l.081-2.322c.041-.937-.162-3.585-.325-4.482a3.574 3.574 0 01-.081-.611c-.041-.285-.082-.326-.122-.57-.244-1.182-.529-2.322-.895-3.382l-.284-.692c-.244-.571-.488-1.426-.732-1.834-.448-.774-.773-1.833-1.302-2.485l-.366-.57c-.162-.163-.081.081-.122-.163l-.203.081c-.041.367-.529 1.711-.773 2.078l-.772 1.1c-.041.082-.122.163-.163.245l-.04.04c-.041 0-.041.041-.041.041 0 .041-.081.122-.081.163-.448.774-.773 1.467-1.017 2.322-.325 1.182-.203 1.386-.285 2.282-.081 1.222.326 2.485.814 3.341l.366.774c.203.204.366.774.61 1.1l2.114 3.137c.081.081.122.204.203.285l1.139 2.322c.163.489.366.938.488 1.508.041.163 0 .285.041.53.04.244.081.163.122.366.04.285-.082 1.182-.122 1.508-.041.326-.163 1.1-.366 1.589-.041 0-.041.04-.041.04 0 .041-.041.041-.041.041l-.04.041-.041.081c0 .041 0 .041-.041.041 0 .041-.04.082-.04.082l-.204.489c-.081.488-.122.529-.162.814z" fill="#97C21A"/><path d="M175.79 162.358c1.22-.204 3.213-1.386 4.229-2.201a.724.724 0 01.285-.203c-.529 0-.854-.163-.895-.937 0-.774.082-1.304 1.017-1.997.894-.652 1.26.041 1.26.734.041.692-.162.978-.447 1.466.041 0 .081-.04.122-.04 1.179-.897 3.7-2.608 4.88-2.812-.285-.122-.448-.203-.488-.896 0-.692.203-1.63 1.098-2.159.894-.53 1.22-.041 1.22.692.04.734-.204 1.141-.57 1.671.732-.53 3.701-1.059 3.538-3.504-.569-.856.122-1.1.407-.896.488.448.244 1.507.244 1.507-.61 2.608-1.993 3.382-3.091 4.237l-.162 2.486v.122c.325.774.528 1.426.691 1.915 0 0 .406.366 1.179.529.325.245.529.489.691.693.529.693.204 1.589-.04 1.63-.163-.041-.448-.53-.61-.571-1.301-.285-3.131-.652-3.131-.652-.122-.366-.244-.814-.448-1.303-.162.448-.325.896-.488 1.303a14.92 14.92 0 00-.569 1.875l-.122 1.711s.041.774-.122 1.385c-.122.57-.935 1.467-1.098 1.467-.122 0 .244-1.019.244-1.019-.488-2.281-.732-3.748-.122-5.296.407-1.1.895-2.282.854-4.197-.529-.326-1.87.611-2.968 1.426l-.082 3.463v.082c.244 1.792-.081 2.852.448 3.585.325.448.61 1.548.65 2.282 0 .448-.162 1.181-.406 1.181-.163-.041-.041-.489-.163-.53-.081-.04-.203-.163-.325-.285-.285-.407-1.424-.937-1.586-1.589-.204-.692-.326-1.507-.488-2.363a7.353 7.353 0 01-.488 1.1c-.163.408-.285.652-.285.693-.04.163.325.733.447.937.204.367.854 1.385.448 2.2-.082.285-.407.856-.57.856-.122 0-.122-.693-.244-.774-.406-.245-.813-.775-1.057-.897-.61-.978-1.179-.733-1.016-1.548.081-.448.284-.856.528-1.467.244-.57.61-1.426 1.098-2.811l-.569-1.467a9.733 9.733 0 01-1.464.937c-.122.082-.203.082-.325.163a2.945 2.945 0 01-.854.245c.366 1.996.61 3.911.61 3.952.081.815-.163 1.304-.651 2.159-.691 1.222-1.382 2.567-1.952 3.341-.162.245-.325 1.059-.447 1.141-.163.122-.488-.367-.529-.734 0-.57 1.505-3.707 1.789-4.807l-.162-.693c-.447.978-.895 1.548-1.057 1.752h-.041c-.244.326-.61.611-.895.693l-2.114-.448c-.529.122-.935.733-.773.122.163-.652.732-1.263 1.261-1.385l1.708-.408c.162-.285.366-.692.569-1.263l-.244-2.73c-1.423-.203-1.464-.57-1.545-1.018.04-.733.081-1.304.122-1.711.081-.448.081-.774.162-.856.163-.163.366-.081.488.367.082.204 0 .692.041 1.018-.081.937 1.383.775 2.074-.081-.244-.163-.407-.163-.407-.856a2.354 2.354 0 011.017-2.077c.813-.571 1.342-.286 1.382.488.122.693-.203 1.263-.691 1.875z" fill="#00A2D4"/><path d="M211.005 121.819l23.178-13.363v6.804l-15.289 8.8v4.4l13.866-7.985v6.315l-13.866 7.985v4.563l15.493-8.922v6.804l-23.382 13.485v-28.886zm26.472-.815c0-8.433 6.466-18.741 15.208-23.793 5.897-3.382 9.556-2.934 12.118-.856l-5.855 7.904c-1.668-1.1-3.579-1.263-6.344.326-4.026 2.322-6.872 7.374-6.872 11.693s2.846 6.071 6.872 3.748c3.009-1.711 4.758-4.155 6.506-7.252l6.018.815c-2.724 5.337-6.384 10.186-12.768 13.893-8.255 4.726-14.883 2.241-14.883-6.478zm52.131-30.027c0-4.155-3.009-6.07-7.401-3.544-4.351 2.526-7.279 7.74-7.279 11.978 0 4.156 3.01 6.07 7.361 3.544 4.391-2.485 7.319-7.74 7.319-11.978zm-22.894 13.201c0-8.312 6.669-18.864 15.575-23.997 8.905-5.134 15.493-2.282 15.493 6.11 0 8.312-6.669 18.865-15.575 23.998-8.905 5.093-15.493 2.241-15.493-6.111z" fill="#97C21A"/><path d="M211.005 156.165l10.898-6.275v3.301l-7.116 4.115v2.322l6.425-3.708v3.137l-6.425 3.708v4.889l-3.782 2.159v-13.648zm18.868-4.319c1.301-.733 2.033-1.793 2.033-2.811 0-1.059-.772-1.182-2.033-.448l-2.48 1.426v3.259l2.48-1.426zm-6.262-2.933l6.425-3.708c2.074-1.181 3.538-1.467 4.432-1.1.814.326 1.22 1.141 1.22 2.526 0 2.078-1.098 4.115-2.806 5.826l3.253 2.893-4.351 2.485-2.765-2.567-1.667.937v4.115l-3.782 2.16v-13.567h.041zm14.07-8.108l3.781-2.2v13.648l-3.781 2.201v-13.649zm6.262-3.626l10.979-6.315v3.218l-7.238 4.156v2.078l6.547-3.789v2.974l-6.547 3.789v2.16l7.319-4.197v3.219l-11.06 6.355v-13.648zm13.012-7.497l3.497-2.037 5.612 3.993v-7.211l3.741-2.16v13.649l-3.294 1.915-5.815-4.115v7.456l-3.741 2.159v-13.649zm20.576-1.548c2.277-1.304 3.741-3.422 3.741-5.663 0-2.2-1.504-2.608-3.741-1.345l-1.545.897v6.967l1.545-.856zm-5.327-7.252l5.246-3.015c4.879-2.811 7.685-1.63 7.685 2.363 0 3.952-2.846 8.515-7.767 11.326l-5.164 2.975v-13.649zm13.663 3.748l2.115-3.707c1.342.285 2.846 0 4.432-.897 1.017-.57 1.545-1.263 1.545-1.874 0-.57-.447-.611-2.277 0-2.887 1.019-5.124 1.467-5.124-1.385 0-2.526 1.993-5.541 5.287-7.415 2.318-1.344 4.107-1.752 5.611-1.426l-1.87 3.748c-1.261-.163-2.603.163-3.823.856-.894.53-1.341 1.181-1.341 1.711 0 .611.447.611 2.358-.041 3.131-1.14 5.083-1.222 5.083 1.345 0 2.77-2.196 5.704-5.49 7.619-2.521 1.466-4.798 2.037-6.506 1.466z" fill="#00A2D4"/></g><defs><linearGradient id="paint0_linear_1184_6038" x1="350.727" y1="159.706" x2="362.326" y2="552.361" gradientUnits="userSpaceOnUse"><stop stop-color="#82B02C"/><stop offset=".023" stop-color="#84B22D"/><stop offset=".178" stop-color="#8DBB33"/><stop offset=".396" stop-color="#92C036"/><stop offset="1" stop-color="#94C237"/></linearGradient><linearGradient id="paint1_linear_1184_6038" x1="277.899" y1="267.357" x2="316.152" y2="267.357" gradientUnits="userSpaceOnUse"><stop stop-color="#F8F6FB"/><stop offset="1" stop-color="#FAF8FC"/></linearGradient><linearGradient id="paint2_linear_1184_6038" x1="292.884" y1="156.884" x2="302.908" y2="156.884" gradientUnits="userSpaceOnUse"><stop stop-color="#F8F6FB"/><stop offset="1" stop-color="#FAF8FC"/></linearGradient><linearGradient id="paint3_linear_1184_6038" x1="136.177" y1="349.336" x2="174.429" y2="349.336" gradientUnits="userSpaceOnUse"><stop stop-color="#F8F6FB"/><stop offset="1" stop-color="#FAF8FC"/></linearGradient><linearGradient id="paint4_linear_1184_6038" x1="151.162" y1="238.861" x2="161.187" y2="238.861" gradientUnits="userSpaceOnUse"><stop stop-color="#F8F6FB"/><stop offset="1" stop-color="#FAF8FC"/></linearGradient><linearGradient id="paint5_linear_1184_6038" x1="166.571" y1="202.626" x2="298.13" y2="202.626" gradientUnits="userSpaceOnUse"><stop stop-color="#F8F6FB"/><stop offset="1" stop-color="#FAF8FC"/></linearGradient><linearGradient id="paint6_linear_1184_6038" x1="166.571" y1="202.626" x2="298.13" y2="202.626" gradientUnits="userSpaceOnUse"><stop stop-color="#F8F6FB"/><stop offset="1" stop-color="#FAF8FC"/></linearGradient><linearGradient id="paint7_linear_1184_6038" x1="457.779" y1="215.8" x2="450.588" y2="211.969" gradientUnits="userSpaceOnUse"><stop stop-color="#F8BB9B"/><stop offset="1" stop-color="#F9C6AE"/></linearGradient><linearGradient id="paint8_linear_1184_6038" x1="297.529" y1="358.5" x2="319.867" y2="330.722" gradientUnits="userSpaceOnUse"><stop stop-color="#291529"/><stop offset=".43" stop-color="#220D22"/><stop offset="1" stop-color="#150015"/></linearGradient><clipPath id="clip0_1184_6038"><path fill="#fff" d="M0 0h713v639H0z"/></clipPath></defs></svg>