<svg width="701" height="548" fill="none" xmlns="http://www.w3.org/2000/svg"><g clip-path="url(#clip0_885_2546)"><path fill-rule="evenodd" clip-rule="evenodd" d="M351.594 472.798L0 270.004 349.406 68.577 701 271.302 351.594 472.798z" fill="#94C237"/><path fill-rule="evenodd" clip-rule="evenodd" d="M0 270.004v75.271L351.594 548v-75.202L0 270.004z" fill="#729824"/><path fill-rule="evenodd" clip-rule="evenodd" d="M701 271.302v75.202L351.594 548v-75.202L701 271.302z" fill="#82B02C"/><path fill-rule="evenodd" clip-rule="evenodd" d="M701 325.262v21.242L351.594 548v-21.242L701 325.262z" fill="#B3532D"/><path fill-rule="evenodd" clip-rule="evenodd" d="M0 324.032v21.243L351.594 548v-21.242L0 324.032z" fill="#7D3715"/><path fill-rule="evenodd" clip-rule="evenodd" d="M351.594 472.798L0 270.004 349.406 68.577 701 271.302 351.594 472.798z" fill="url(#paint0_linear_885_2546)"/><path fill-rule="evenodd" clip-rule="evenodd" d="M131.172 232.574l-76.733 46.993 76.733 35.176 6.087 2.801 58.884-35.723 61.756-37.499-61.756-35.518-13.541-7.786-51.43 31.556z" fill="url(#paint1_linear_885_2546)"/><path fill-rule="evenodd" clip-rule="evenodd" d="M148.817 67.347l5.814 150.132c27.424 15.778 47.531 27.389 75.297 43.304l75.298-43.304 5.813-150.132H148.817z" fill="#00665B"/><path fill-rule="evenodd" clip-rule="evenodd" d="M229.928 260.783l.273-163.382 80.838-29.985-5.814 150.063-75.297 43.304z" fill="url(#paint2_linear_885_2546)"/><path fill-rule="evenodd" clip-rule="evenodd" d="M303.722 46.925l5.744-9.563-22.705-12.841a5.522 5.522 0 00-3.146-.956c-3.078 0-5.608 2.527-5.608 5.6a5.5 5.5 0 002.325 4.509h.068l1.026.614 22.296 12.637z" fill="url(#paint3_linear_885_2546)"/><path fill-rule="evenodd" clip-rule="evenodd" d="M311.996 42.007c0 3.073-2.53 5.6-5.608 5.6-3.077 0-5.608-2.527-5.608-5.6 0-3.074 2.531-5.601 5.608-5.601 3.078 0 5.608 2.527 5.608 5.6z" fill="#074D41"/><path fill-rule="evenodd" clip-rule="evenodd" d="M262.208 23.36l5.745-9.563L245.247.957A5.52 5.52 0 00242.101 0c-3.077 0-5.608 2.527-5.608 5.6a5.5 5.5 0 002.325 4.509l.069.068 1.026.615 22.295 12.568z" fill="#00665B"/><path fill-rule="evenodd" clip-rule="evenodd" d="M270.415 18.442c0 3.074-2.53 5.6-5.608 5.6-3.077 0-5.608-2.526-5.608-5.6s2.531-5.6 5.608-5.6a5.586 5.586 0 015.608 5.6zm-40.487 101.977c-1.71 0-3.351-.478-4.856-1.297l-75.297-43.305c-3.01-1.776-4.856-4.918-4.856-8.401 0-3.484 1.846-6.626 4.856-8.402l75.297-43.373c1.505-.82 3.146-1.297 4.856-1.297s3.351.478 4.856 1.298l75.297 43.372c3.01 1.776 4.856 4.918 4.856 8.402 0 3.483-1.846 6.625-4.856 8.401l-75.297 43.305c-1.505.819-3.146 1.297-4.856 1.297z" fill="#074D41"/><path d="M314.869 57.307h-169.95v10.04h169.95v-10.04z" fill="#074D41"/><path fill-rule="evenodd" clip-rule="evenodd" d="M229.928 110.31c-1.71 0-3.351-.478-4.856-1.297l-75.297-43.305c-3.01-1.776-4.856-4.918-4.856-8.401 0-3.484 1.846-6.626 4.856-8.402l75.297-43.372c1.505-.82 3.146-1.298 4.856-1.298s3.351.478 4.856 1.298l75.297 43.372c3.01 1.776 4.856 4.918 4.856 8.402 0 3.483-1.846 6.625-4.856 8.401l-75.297 43.305c-1.505.888-3.146 1.297-4.856 1.297z" fill="#00665B"/><path fill-rule="evenodd" clip-rule="evenodd" d="M229.928 104.505a3.676 3.676 0 01-1.915-.547l-75.297-43.304c-1.231-.683-1.915-1.913-1.915-3.347 0-1.435.684-2.664 1.915-3.347l75.297-43.373c.616-.341 1.231-.546 1.915-.546a3.68 3.68 0 011.915.546l75.298 43.373c1.231.683 1.915 1.912 1.915 3.347 0 1.434-.684 2.664-1.915 3.347l-75.298 43.372c-.547.274-1.231.479-1.915.479z" fill="#074D41"/><path d="M309.124 47.744H150.801v9.631h158.323v-9.63z" fill="#074D41"/><path fill-rule="evenodd" clip-rule="evenodd" d="M229.928 94.942a3.679 3.679 0 01-1.915-.546L152.716 51.09c-1.231-.683-1.915-1.912-1.915-3.347 0-1.434.684-2.664 1.915-3.347l75.297-43.372c.616-.342 1.231-.547 1.915-.547a3.68 3.68 0 011.915.547l75.298 43.372c1.231.683 1.915 1.913 1.915 3.347 0 1.435-.684 2.664-1.915 3.347l-75.298 43.305a3.679 3.679 0 01-1.915.546z" fill="#00665B"/><path fill-rule="evenodd" clip-rule="evenodd" d="M218.37 74.93s1.505.819 3.42 1.98c1.915 1.093 1.573 1.776 1.573 5.67l6.839-3.962v-3.894c0-2.527.273-1.57-3.83-4.098l-8.002 4.303zm-36.247-22.883c-.205-.273-.547-.478-1.025-.341-2.12.478-2.12 2.049-2.12 2.049v3.962l8.206-4.235v-4.167l-5.061 2.732z" fill="#0F9C85"/><path fill-rule="evenodd" clip-rule="evenodd" d="M178.977 57.717l1.436.956v-2.937c0-1.366 1.437-.273 2.668.751 1.231.956 33.716 19.398 36.52 20.833 2.804 1.502 1.915 3.961 1.915 3.961l1.778 1.23v-2.937c0-1.571-.205-1.913-2.804-3.415-2.599-1.503-18.465-10.656-20.996-12.09-2.53-1.435-16.003-9.426-18.465-10.656-2.462-1.229-2.12.615-2.12 1.093.068.547.068 3.21.068 3.21z" fill="#074D41"/><path fill-rule="evenodd" clip-rule="evenodd" d="M222.747 77.593l7.318-4.645s0-.205-.684-.683l-.068-.068-.411-.205-39.392-22.745s-2.12-1.913-4.241-.751a780.34 780.34 0 01-5.129 2.937s-1.162.478-1.231 2.185c.069-.341.411-1.23 2.804.137l39.94 23.018c.41.273.958.683 1.094.82z" fill="#027B65"/><path fill-rule="evenodd" clip-rule="evenodd" d="M195.255 152.932l-3.351.41 8.207 6.898 2.12-7.855-3.42.41s-1.778-4.918-3.351-9.152c-1.573-4.235-4.308-10.246-8.822-12.022-4.514-1.776-5.471.751-7.044 3.005-1.573 2.323-6.429 9.017-6.429 9.017l3.556 4.303s3.078-4.099 4.582-6.284c1.505-2.186 3.899-7.104 6.908-4.303 2.941 2.732 3.488 6.693 7.044 15.573zm4.445 11.748l3.625-.273s3.351 8.879 4.924 12.977c1.573 4.167.137 7.992-2.872 8.88-3.01.888-10.533-4.576-10.533-4.576v4.371l-5.949-10.109 5.813-3.483-.069 4.439s3.625 2.118 5.608 3.211c2.052 1.161 3.351 1.092 4.035 0 .753-1.025.958-1.845-4.582-15.437zm-25.92-16.256l2.052 10.655-3.283-3.961s-2.257 2.049-2.052 3.961c.206 1.913.821 4.303 4.582 6.489a3107.172 3107.172 0 0011.148 6.421v4.781s-9.096-5.123-12.105-7.036c-3.009-1.844-5.813-4.439-7.249-9.425-1.505-4.987.342-7.65 2.051-9.768l-3.351-4.098 8.207 1.981z" fill="#fff"/><path fill-rule="evenodd" clip-rule="evenodd" d="M240.46 296.848l-76.665 46.992 76.665 35.177 6.087 2.8 58.884-35.723 61.825-37.498-61.825-35.518-13.473-7.787-51.498 31.557z" fill="url(#paint4_linear_885_2546)"/><path fill-rule="evenodd" clip-rule="evenodd" d="M258.994 130.938l5.813 150.131c27.425 15.779 47.532 27.39 75.298 43.305l75.298-43.236 5.813-150.132-162.222-.068z" fill="#E8BC00"/><path fill-rule="evenodd" clip-rule="evenodd" d="M340.104 324.374l.274-163.382 80.837-29.986-5.813 150.132-75.298 43.236z" fill="url(#paint5_linear_885_2546)"/><path fill-rule="evenodd" clip-rule="evenodd" d="M413.967 110.515l5.744-9.562-22.705-12.841a5.52 5.52 0 00-3.146-.956c-3.078 0-5.608 2.527-5.608 5.6a5.5 5.5 0 002.325 4.508l.069.069 1.025.614 22.296 12.568z" fill="url(#paint6_linear_885_2546)"/><path fill-rule="evenodd" clip-rule="evenodd" d="M422.173 105.597c0 3.074-2.53 5.601-5.608 5.601s-5.608-2.527-5.608-5.601c0-3.073 2.53-5.6 5.608-5.6s5.608 2.527 5.608 5.6z" fill="#E38C00"/><path fill-rule="evenodd" clip-rule="evenodd" d="M372.385 86.95l5.744-9.562-22.705-12.841a5.52 5.52 0 00-3.146-.956c-3.078 0-5.608 2.527-5.608 5.6a5.5 5.5 0 002.325 4.509l.069.068 1.025.615 22.296 12.568z" fill="#E8BC00"/><path fill-rule="evenodd" clip-rule="evenodd" d="M380.592 82.033c0 3.073-2.53 5.6-5.608 5.6s-5.608-2.527-5.608-5.6c0-3.074 2.53-5.601 5.608-5.601 3.146.068 5.608 2.527 5.608 5.6zM340.105 184.01c-1.71 0-3.351-.478-4.856-1.298l-75.298-43.304c-3.009-1.776-4.855-4.918-4.855-8.402 0-3.483 1.846-6.625 4.855-8.401l75.298-43.373c1.505-.82 3.146-1.298 4.856-1.298s3.351.479 4.855 1.298l75.298 43.373c3.078 1.776 4.856 4.918 4.856 8.401 0 3.484-1.847 6.626-4.856 8.402l-75.298 43.304a9.917 9.917 0 01-4.855 1.298z" fill="#E38C00"/><path d="M425.114 120.897h-169.95v10.041h169.95v-10.041z" fill="#E38C00"/><path fill-rule="evenodd" clip-rule="evenodd" d="M340.105 173.969c-1.71 0-3.351-.478-4.856-1.297l-75.298-43.305c-3.009-1.776-4.855-4.918-4.855-8.401 0-3.484 1.846-6.626 4.855-8.402l75.298-43.372c1.505-.82 3.146-1.298 4.856-1.298s3.351.478 4.855 1.298l75.298 43.372c3.078 1.776 4.856 4.918 4.856 8.402 0 3.483-1.847 6.625-4.856 8.401l-75.298 43.305a9.927 9.927 0 01-4.855 1.297z" fill="#E8BC00"/><path fill-rule="evenodd" clip-rule="evenodd" d="M340.105 168.095a3.684 3.684 0 01-1.915-.546l-75.298-43.305c-1.231-.683-1.914-1.912-1.914-3.347 0-1.434.683-2.663 1.914-3.346l75.298-43.373c.616-.342 1.231-.547 1.915-.547a3.68 3.68 0 011.915.547l75.298 43.373c1.231.683 1.915 1.912 1.915 3.346 0 1.435-.684 2.664-1.915 3.347l-75.298 43.305c-.547.41-1.231.546-1.915.546z" fill="#E38C00"/><path d="M419.301 111.335H260.978v9.631h158.323v-9.631z" fill="#E38C00"/><path fill-rule="evenodd" clip-rule="evenodd" d="M340.105 158.533a3.676 3.676 0 01-1.915-.547l-75.298-43.304c-1.231-.683-1.914-1.913-1.914-3.347s.683-2.664 1.914-3.347l75.298-43.373c.616-.341 1.231-.546 1.915-.546a3.68 3.68 0 011.915.546l75.298 43.373c1.231.683 1.915 1.913 1.915 3.347s-.684 2.664-1.915 3.347l-75.298 43.304a3.676 3.676 0 01-1.915.547z" fill="#E8BC00"/><path fill-rule="evenodd" clip-rule="evenodd" d="M328.547 138.52s1.504.819 3.419 1.981c1.915 1.092 1.573 1.775 1.573 5.669l6.839-3.962v-3.893c0-2.527.274-1.571-3.829-4.098l-8.002 4.303zM292.3 115.638c-.205-.273-.547-.478-1.026-.341-2.12.478-2.12 2.049-2.12 2.049v3.961l8.207-4.235v-4.234l-5.061 2.8z" fill="#FFD800"/><path fill-rule="evenodd" clip-rule="evenodd" d="M289.154 121.307l1.436.957v-2.938c0-1.366 1.436-.273 2.667.752 1.231.956 33.717 19.398 36.521 20.901 2.804 1.502 1.983 3.961 1.983 3.961l1.778 1.23v-2.937c0-1.571-.205-1.913-2.804-3.415-2.599-1.503-18.465-10.656-20.996-12.09-2.53-1.435-16.003-9.426-18.465-10.656-2.462-1.229-2.12.547-2.12 1.093v3.142z" fill="#E38C00"/><path fill-rule="evenodd" clip-rule="evenodd" d="M332.924 141.184l7.318-4.645s0-.205-.684-.615l-.068-.068-.411-.205-39.461-22.745s-2.12-1.981-4.24-.751a806.313 806.313 0 01-5.129 2.937s-1.163.478-1.231 2.185c.068-.341.41-1.229 2.804.137l39.939 23.018c.548.273 1.026.615 1.163.752z" fill="#EDC400"/><path fill-rule="evenodd" clip-rule="evenodd" d="M305.432 216.523l-3.351.409 8.207 6.899 2.12-7.855-3.42.41s-1.778-4.918-3.351-9.153-4.309-10.245-8.822-12.021c-4.514-1.776-5.472.751-7.045 3.005-1.573 2.254-6.428 9.016-6.428 9.016l3.556 4.303s3.078-4.098 4.582-6.284c1.505-2.185 3.898-7.103 6.908-4.303 2.94 2.801 3.488 6.694 7.044 15.574zm4.445 11.748l3.693-.273s3.351 8.879 4.924 12.977c1.573 4.167.137 7.992-2.872 8.88-3.009.888-10.532-4.577-10.532-4.577v4.372l-5.95-10.109 5.813-3.484-.069 4.44s3.625 2.117 5.608 3.21c2.052 1.162 3.352 1.093 4.035 0 .753-1.024.89-1.844-4.65-15.436zm-25.92-16.257l2.052 10.656-3.283-3.962s-2.257 2.049-2.052 3.962c.274 1.912.821 4.303 4.582 6.489 3.762 2.185 11.148 6.42 11.148 6.42v4.781s-9.096-5.122-12.105-7.035c-3.009-1.844-5.745-4.44-7.25-9.426-1.504-4.986.342-7.65 2.052-9.767l-3.351-4.098 8.207 1.98z" fill="#fff"/><path fill-rule="evenodd" clip-rule="evenodd" d="M351.389 359.209l-76.665 46.993 76.665 35.176 6.087 2.732 58.952-35.723 61.757-37.43-61.757-35.518-13.541-7.787-51.498 31.557z" fill="url(#paint7_linear_885_2546)"/><path fill-rule="evenodd" clip-rule="evenodd" d="M370.47 193.572l5.813 150.132c27.424 15.778 47.531 27.39 75.298 43.304l75.297-43.304 5.813-150.132H370.47z" fill="#2B4899"/><path fill-rule="evenodd" clip-rule="evenodd" d="M451.58 387.008l.274-163.45 80.769-29.986-5.814 150.132-75.229 43.304z" fill="url(#paint8_linear_885_2546)"/><path fill-rule="evenodd" clip-rule="evenodd" d="M525.373 173.081l5.745-9.562-22.706-12.841a5.517 5.517 0 00-3.146-.956c-3.077 0-5.608 2.527-5.608 5.6 0 1.845.889 3.484 2.325 4.508l.069.069 1.026.615 22.295 12.567z" fill="url(#paint9_linear_885_2546)"/><path fill-rule="evenodd" clip-rule="evenodd" d="M533.58 168.164c0 3.073-2.53 5.6-5.608 5.6-3.077 0-5.608-2.527-5.608-5.6 0-3.074 2.531-5.601 5.608-5.601 3.146.068 5.608 2.527 5.608 5.601z" fill="#322782"/><path fill-rule="evenodd" clip-rule="evenodd" d="M483.792 149.585l5.745-9.563-22.706-12.841a5.525 5.525 0 00-3.146-.956c-3.077 0-5.608 2.527-5.608 5.601 0 1.844.889 3.483 2.325 4.508l.069.068 1.026.615 22.295 12.568z" fill="#2B4899"/><path fill-rule="evenodd" clip-rule="evenodd" d="M492.068 144.667c0 3.074-2.531 5.601-5.608 5.601-3.078 0-5.608-2.527-5.608-5.601s2.53-5.601 5.608-5.601c3.077 0 5.608 2.527 5.608 5.601zM451.58 246.576c-1.709 0-3.351-.478-4.855-1.298l-75.298-43.304c-3.078-1.776-4.856-4.918-4.856-8.402 0-3.483 1.847-6.625 4.856-8.401l75.298-43.373c1.504-.819 3.146-1.297 4.855-1.297 1.71 0 3.351.478 4.856 1.297l75.298 43.373c3.009 1.776 4.855 4.918 4.855 8.401 0 3.484-1.846 6.626-4.855 8.402l-75.298 43.304c-1.505.888-3.214 1.298-4.856 1.298z" fill="#322782"/><path d="M536.521 183.532h-169.95v10.04h169.95v-10.04z" fill="#322782"/><path fill-rule="evenodd" clip-rule="evenodd" d="M451.58 236.535c-1.709 0-3.351-.478-4.855-1.297l-75.298-43.305c-3.078-1.776-4.856-4.918-4.856-8.401 0-3.484 1.847-6.626 4.856-8.402l75.298-43.372c1.504-.82 3.146-1.298 4.855-1.298 1.71 0 3.351.478 4.856 1.298l75.298 43.372c3.009 1.776 4.855 4.918 4.855 8.402 0 3.483-1.846 6.625-4.855 8.401l-75.298 43.305c-1.505.819-3.214 1.297-4.856 1.297z" fill="#2B4899"/><path fill-rule="evenodd" clip-rule="evenodd" d="M451.581 230.73a3.676 3.676 0 01-1.915-.547l-75.298-43.304c-1.231-.683-1.915-1.913-1.915-3.347 0-1.435.684-2.664 1.915-3.347l75.298-43.373c.615-.341 1.231-.546 1.915-.546.684 0 1.367.205 1.915.546l75.297 43.373c1.231.683 1.915 1.912 1.915 3.347 0 1.434-.684 2.664-1.915 3.347l-75.297 43.304c-.616.342-1.3.547-1.915.547z" fill="#322782"/><path d="M530.708 173.901H372.385v9.631h158.323v-9.631z" fill="#322782"/><path fill-rule="evenodd" clip-rule="evenodd" d="M451.581 221.099a3.676 3.676 0 01-1.915-.547l-75.298-43.304c-1.231-.683-1.915-1.913-1.915-3.347s.684-2.664 1.915-3.347l75.298-43.373c.615-.341 1.231-.546 1.915-.546.684 0 1.367.205 1.915.546l75.297 43.373c1.231.683 1.915 1.913 1.915 3.347s-.684 2.664-1.915 3.347l-75.297 43.373c-.616.341-1.3.478-1.915.478z" fill="#2B4899"/><path fill-rule="evenodd" clip-rule="evenodd" d="M439.954 201.086s1.505.82 3.42 1.981c1.915 1.093 1.573 1.776 1.573 5.669l6.839-3.962v-3.893c0-2.527.273-1.571-3.83-4.098l-8.002 4.303zm-36.178-22.814c-.205-.273-.547-.478-1.026-.341-2.12.478-2.12 2.049-2.12 2.049v3.962l8.207-4.235v-4.235l-5.061 2.8z" fill="#5578BB"/><path fill-rule="evenodd" clip-rule="evenodd" d="M400.629 183.942l1.437.956v-2.937c0-1.366 1.436-.273 2.667.751 1.231.956 33.716 19.398 36.52 20.833 2.804 1.434 1.915 3.961 1.915 3.961l1.778 1.23v-2.937c0-1.571-.205-1.913-2.804-3.415-2.598-1.503-18.465-10.656-20.995-12.09-2.531-1.434-16.004-9.426-18.466-10.655-2.462-1.23-2.12.546-2.12 1.092.068.547.068 3.211.068 3.211z" fill="#322782"/><path fill-rule="evenodd" clip-rule="evenodd" d="M444.331 203.818l7.318-4.645s0-.205-.684-.614l-.068-.069-.411-.205-39.461-22.745s-2.12-1.98-4.24-.751-5.061 2.937-5.061 2.937-1.162.478-1.231 2.186c.069-.342.411-1.23 2.804.136l39.94 23.019c.479.205.958.546 1.094.751z" fill="#394C9C"/><path fill-rule="evenodd" clip-rule="evenodd" d="M416.839 279.089l-3.351.409 8.207 6.899 2.12-7.855-3.42.41s-1.778-4.918-3.351-9.153c-1.573-4.234-4.308-10.245-8.822-12.021-4.514-1.776-5.471.751-7.044 3.005-1.573 2.323-6.429 9.016-6.429 9.016l3.556 4.303s3.078-4.098 4.582-6.283c1.505-2.186 3.899-7.036 6.908-4.304 2.941 2.801 3.488 6.762 7.044 15.574zm4.445 11.816l3.693-.273s3.351 8.879 4.924 12.978c1.573 4.166.137 7.991-2.872 8.879-3.009.888-10.532-4.576-10.532-4.576v4.371l-5.95-10.109 5.813-3.483-.068 4.508s3.624 2.117 5.608 3.21c2.051 1.161 3.351 1.093 4.035 0 .752-1.161.957-1.981-4.651-15.505zm-25.92-16.324l2.052 10.655-3.283-3.962s-2.257 2.049-2.052 3.962c.274 1.912.821 4.303 4.582 6.489 3.762 2.185 11.148 6.42 11.148 6.42v4.782s-9.096-5.123-12.105-7.036c-3.009-1.844-5.745-4.439-7.249-9.426-1.505-4.986.342-7.65 2.051-9.767l-3.351-4.098 8.207 1.981z" fill="#fff"/></g><defs><linearGradient id="paint0_linear_885_2546" x1="344.837" y1="78.266" x2="356.17" y2="463.099" gradientUnits="userSpaceOnUse"><stop stop-color="#82B02C"/><stop offset=".023" stop-color="#84B22D"/><stop offset=".178" stop-color="#8DBB33"/><stop offset=".396" stop-color="#92C036"/><stop offset="1" stop-color="#94C237"/></linearGradient><linearGradient id="paint1_linear_885_2546" x1="133.026" y1="302.289" x2="179.342" y2="221.39" gradientUnits="userSpaceOnUse"><stop stop-color="#91C035"/><stop offset="1" stop-color="#729824"/></linearGradient><linearGradient id="paint2_linear_885_2546" x1="229.938" y1="164.084" x2="311.03" y2="164.084" gradientUnits="userSpaceOnUse"><stop stop-color="#0F9C85"/><stop offset="1" stop-color="#047A65"/></linearGradient><linearGradient id="paint3_linear_885_2546" x1="229.935" y1="35.224" x2="311.028" y2="35.224" gradientUnits="userSpaceOnUse"><stop stop-color="#0F9C85"/><stop offset="1" stop-color="#047A65"/></linearGradient><linearGradient id="paint4_linear_885_2546" x1="242.342" y1="366.592" x2="288.659" y2="285.692" gradientUnits="userSpaceOnUse"><stop stop-color="#91C035"/><stop offset="1" stop-color="#729824"/></linearGradient><linearGradient id="paint5_linear_885_2546" x1="340.123" y1="227.683" x2="421.217" y2="227.683" gradientUnits="userSpaceOnUse"><stop stop-color="#FFD800"/><stop offset="1" stop-color="#ECA200"/></linearGradient><linearGradient id="paint6_linear_885_2546" x1="340.124" y1="98.825" x2="421.216" y2="98.825" gradientUnits="userSpaceOnUse"><stop stop-color="#FFD800"/><stop offset="1" stop-color="#ECA200"/></linearGradient><linearGradient id="paint7_linear_885_2546" x1="353.28" y1="428.924" x2="399.596" y2="348.025" gradientUnits="userSpaceOnUse"><stop stop-color="#91C035"/><stop offset="1" stop-color="#729824"/></linearGradient><linearGradient id="paint8_linear_885_2546" x1="451.553" y1="290.281" x2="532.645" y2="290.281" gradientUnits="userSpaceOnUse"><stop stop-color="#5578BB"/><stop offset="1" stop-color="#32509F"/></linearGradient><linearGradient id="paint9_linear_885_2546" x1="451.554" y1="161.421" x2="532.647" y2="161.421" gradientUnits="userSpaceOnUse"><stop stop-color="#5578BB"/><stop offset="1" stop-color="#32509F"/></linearGradient><clipPath id="clip0_885_2546"><path fill="#fff" d="M0 0h701v548H0z"/></clipPath></defs></svg>