<svg width="60" height="60" viewBox="0 0 60 60" fill="none" xmlns="http://www.w3.org/2000/svg">
<path d="M57.9609 29.25C57.8906 29.0625 55.8984 24.6563 51.4922 20.2266C45.6094 14.3672 38.1797 11.25 30 11.25C21.8203 11.25 14.3906 14.3672 8.50782 20.2266C4.10157 24.6563 2.10938 29.0625 2.03907 29.25C1.93443 29.4862 1.88037 29.7417 1.88037 30C1.88037 30.2583 1.93443 30.5138 2.03907 30.75C2.10938 30.9375 4.10157 35.3438 8.50782 39.7734C14.3906 45.6328 21.8203 48.75 30 48.75C38.1797 48.75 45.6094 45.6328 51.4922 39.7734C55.8984 35.3438 57.8906 30.9375 57.9609 30.75C58.0656 30.5138 58.1196 30.2583 58.1196 30C58.1196 29.7417 58.0656 29.4862 57.9609 29.25ZM30 21.5625C31.6688 21.5625 33.3001 22.0574 34.6876 22.9845C36.0752 23.9116 37.1566 25.2294 37.7952 26.7711C38.4339 28.3129 38.6009 30.0094 38.2754 31.6461C37.9498 33.2828 37.1462 34.7862 35.9662 35.9662C34.7862 37.1462 33.2828 37.9498 31.6461 38.2754C30.0094 38.6009 28.3129 38.4338 26.7711 37.7952C25.2294 37.1566 23.9116 36.0752 22.9845 34.6876C22.0574 33.3001 21.5625 31.6688 21.5625 30C21.5625 27.7622 22.4515 25.6161 24.0338 24.0338C25.6161 22.4514 27.7622 21.5625 30 21.5625Z" fill="#00A0E3"/>
</svg>
