<svg width="60" height="60" viewBox="0 0 60 60" fill="none" xmlns="http://www.w3.org/2000/svg">
<path d="M54.3516 18.7734C53.8194 18.1806 53.1692 17.7055 52.4427 17.3786C51.7162 17.0517 50.9295 16.8801 50.1328 16.875H37.5V13.125C37.4938 10.6405 36.5041 8.25952 34.7473 6.50271C32.9905 4.7459 30.6095 3.75619 28.125 3.75C27.7767 3.75283 27.4357 3.85027 27.1384 4.03191C26.8412 4.21355 26.5989 4.47256 26.4375 4.78125L17.5781 22.5H7.5C6.50544 22.5 5.55161 22.8951 4.84835 23.5984C4.14509 24.3016 3.75 25.2554 3.75 26.25V46.875C3.75 47.8696 4.14509 48.8234 4.84835 49.5266C5.55161 50.2299 6.50544 50.625 7.5 50.625H47.3203C48.6885 50.6193 50.0081 50.1173 51.034 49.212C52.06 48.3068 52.7225 47.06 52.8984 45.7031L55.7109 23.2031C55.8045 22.4108 55.7319 21.6078 55.4979 20.8451C55.2638 20.0824 54.8734 19.3769 54.3516 18.7734ZM7.5 26.25H16.875V46.875H7.5V26.25Z" fill="#00A0E3"/>
</svg>
