<svg width="60" height="60" viewBox="0 0 60 60" fill="none" xmlns="http://www.w3.org/2000/svg">
<path d="M48.75 7.5H43.125V5.625C43.125 5.12772 42.9275 4.65081 42.5758 4.29917C42.2242 3.94754 41.7473 3.75 41.25 3.75C40.7527 3.75 40.2758 3.94754 39.9242 4.29917C39.5725 4.65081 39.375 5.12772 39.375 5.625V7.5H20.625V5.625C20.625 5.12772 20.4275 4.65081 20.0758 4.29917C19.7242 3.94754 19.2473 3.75 18.75 3.75C18.2527 3.75 17.7758 3.94754 17.4242 4.29917C17.0725 4.65081 16.875 5.12772 16.875 5.625V7.5H11.25C10.2554 7.5 9.30161 7.89509 8.59835 8.59835C7.89509 9.30161 7.5 10.2554 7.5 11.25V48.75C7.5 49.7446 7.89509 50.6984 8.59835 51.4016C9.30161 52.1049 10.2554 52.5 11.25 52.5H48.75C49.7446 52.5 50.6984 52.1049 51.4016 51.4016C52.1049 50.6984 52.5 49.7446 52.5 48.75V11.25C52.5 10.2554 52.1049 9.30161 51.4016 8.59835C50.6984 7.89509 49.7446 7.5 48.75 7.5ZM24.375 44.0625C22.8828 44.0611 21.4512 43.4716 20.3906 42.4219C20.04 42.0704 19.8431 41.5942 19.8431 41.0977C19.8431 40.6012 20.04 40.1249 20.3906 39.7734C20.5631 39.597 20.7691 39.4568 20.9965 39.361C21.2239 39.2653 21.4681 39.216 21.7148 39.216C21.9616 39.216 22.2058 39.2653 22.4332 39.361C22.6606 39.4568 22.8666 39.597 23.0391 39.7734C23.399 40.1175 23.8771 40.3104 24.375 40.3125C24.8723 40.3125 25.3492 40.115 25.7008 39.7633C26.0525 39.4117 26.25 38.9348 26.25 38.4375C26.25 37.9402 26.0525 37.4633 25.7008 37.1117C25.3492 36.76 24.8723 36.5625 24.375 36.5625H23.7891L23.6953 36.5156H23.625L23.5078 36.4688H23.4844L23.3438 36.375H23.2969L23.2031 36.3047L23.1094 36.2344L23.0625 36.1875L22.9922 36.1172C22.8693 35.9759 22.7668 35.8181 22.6875 35.6484C22.6201 35.5238 22.5727 35.3893 22.5469 35.25C22.5234 35.2266 22.5234 35.2031 22.5234 35.1562C22.5245 35.1436 22.523 35.1308 22.519 35.1187C22.5149 35.1066 22.5085 35.0954 22.5 35.0859V34.6875V34.5234C22.5 34.4766 22.5234 34.4531 22.5234 34.4297V34.3359C22.5421 34.3084 22.5504 34.2752 22.5469 34.2422C22.5703 34.2188 22.5703 34.1953 22.5703 34.1484L22.6172 34.0781C22.6172 34.0312 22.6172 34.0078 22.6406 33.9844L22.6875 33.8906V33.8203L22.7344 33.7266L22.7812 33.6563L22.8516 33.5625L22.8984 33.5156L24.2109 31.875H21.5625C21.0652 31.875 20.5883 31.6775 20.2367 31.3258C19.885 30.9742 19.6875 30.4973 19.6875 30C19.6875 29.5027 19.885 29.0258 20.2367 28.6742C20.5883 28.3225 21.0652 28.125 21.5625 28.125H28.125C28.4774 28.127 28.822 28.2282 29.1195 28.4171C29.417 28.6059 29.6552 28.8748 29.8069 29.1928C29.9585 29.5109 30.0175 29.8652 29.9771 30.2152C29.9366 30.5653 29.7984 30.8968 29.5781 31.1719L27.5156 33.7734C28.5143 34.4467 29.2705 35.4228 29.673 36.558C30.0754 37.6933 30.1028 38.9277 29.7512 40.0797C29.3996 41.2317 28.6875 42.2403 27.7196 42.9573C26.7518 43.6743 25.5795 44.0617 24.375 44.0625ZM39.375 42.1875C39.375 42.6848 39.1775 43.1617 38.8258 43.5133C38.4742 43.865 37.9973 44.0625 37.5 44.0625C37.0027 44.0625 36.5258 43.865 36.1742 43.5133C35.8225 43.1617 35.625 42.6848 35.625 42.1875V33.75L34.875 34.3125C34.475 34.6049 33.9766 34.7293 33.4862 34.6592C32.9957 34.5892 32.5521 34.3302 32.25 33.9375C31.9516 33.5397 31.8235 33.0396 31.8938 32.5473C31.9642 32.055 32.2272 31.6109 32.625 31.3125L36.375 28.5C36.6536 28.2911 36.9848 28.1638 37.3316 28.1326C37.6784 28.1013 38.0271 28.1672 38.3385 28.3229C38.65 28.4787 38.9119 28.7181 39.095 29.0143C39.278 29.3105 39.375 29.6518 39.375 30V42.1875ZM48.75 18.75H11.25V11.25H16.875V13.125C16.875 13.6223 17.0725 14.0992 17.4242 14.4508C17.7758 14.8025 18.2527 15 18.75 15C19.2473 15 19.7242 14.8025 20.0758 14.4508C20.4275 14.0992 20.625 13.6223 20.625 13.125V11.25H39.375V13.125C39.375 13.6223 39.5725 14.0992 39.9242 14.4508C40.2758 14.8025 40.7527 15 41.25 15C41.7473 15 42.2242 14.8025 42.5758 14.4508C42.9275 14.0992 43.125 13.6223 43.125 13.125V11.25H48.75V18.75Z" fill="#00A0E3"/>
</svg>
