<svg width="60" height="60" viewBox="0 0 60 60" fill="none" xmlns="http://www.w3.org/2000/svg">
<path d="M46.875 35.625C45.2192 35.6245 43.6106 36.1772 42.3047 37.1953L36.8906 32.9766C37.2966 32.0369 37.5041 31.0236 37.5 30C37.5039 29.8278 37.4961 29.6555 37.4766 29.4844L40.5938 28.4531C41.5769 29.9569 43.0686 31.0563 44.796 31.5503C46.5234 32.0442 48.3709 31.8996 50.0004 31.143C51.6299 30.3863 52.9324 29.0682 53.6697 27.4298C54.4069 25.7914 54.5295 23.9424 54.0151 22.221C53.5006 20.4996 52.3835 19.021 50.8682 18.0558C49.3529 17.0906 47.5407 16.7034 45.7632 16.9649C43.9858 17.2264 42.3619 18.1192 41.1888 19.48C40.0157 20.8407 39.3718 22.5784 39.375 24.375C39.3711 24.5472 39.3789 24.7195 39.3984 24.8906L36.2813 25.9219C35.6036 24.8721 34.6737 24.0088 33.5764 23.4111C32.4791 22.8133 31.2495 22.5001 30 22.5C29.5845 22.507 29.1697 22.5383 28.7578 22.5938L27.1641 18.9844C28.0505 18.287 28.7666 17.397 29.2579 16.3818C29.7493 15.3666 30.0031 14.2529 30 13.125C30 11.6416 29.5601 10.1916 28.736 8.95823C27.9119 7.72486 26.7406 6.76356 25.3701 6.19591C23.9997 5.62825 22.4917 5.47972 21.0368 5.76911C19.582 6.0585 18.2456 6.77281 17.1967 7.8217C16.1478 8.8706 15.4335 10.207 15.1441 11.6618C14.8547 13.1167 15.0033 14.6247 15.5709 15.9951C16.1386 17.3656 17.0999 18.5369 18.3332 19.361C19.5666 20.1851 21.0167 20.625 22.5 20.625C22.9155 20.618 23.3303 20.5867 23.7422 20.5313L25.3359 24.1406C24.4495 24.838 23.7335 25.728 23.2421 26.7432C22.7507 27.7584 22.497 28.8721 22.5 30C22.5018 31.1891 22.7827 32.3612 23.3203 33.4219L17.2969 38.7656C15.9073 37.8355 14.2466 37.3964 12.5788 37.5182C10.9111 37.6399 9.33184 38.3156 8.09205 39.4377C6.85227 40.5599 6.02307 42.0642 5.7362 43.7116C5.44933 45.359 5.72124 47.0551 6.50874 48.5302C7.29624 50.0054 8.55415 51.1751 10.0826 51.8534C11.611 52.5318 13.3223 52.6799 14.9446 52.2742C16.5668 51.8685 18.007 50.9323 19.0362 49.6143C20.0654 48.2963 20.6246 46.6722 20.625 45C20.6233 43.8109 20.3423 42.6388 19.8047 41.5781L25.8281 36.2344C27.1328 37.108 28.6793 37.5487 30.2484 37.494C31.8176 37.4393 33.3297 36.892 34.5703 35.9297L39.9844 40.1484C39.5784 41.0881 39.3709 42.1014 39.375 43.125C39.375 44.6084 39.8149 46.0584 40.639 47.2918C41.4631 48.5251 42.6344 49.4864 44.0049 50.0541C45.3753 50.6218 46.8833 50.7703 48.3382 50.4809C49.793 50.1915 51.1294 49.4772 52.1783 48.4283C53.2272 47.3794 53.9415 46.043 54.2309 44.5882C54.5203 43.1333 54.3718 41.6253 53.8041 40.2549C53.2365 38.8844 52.2752 37.7131 51.0418 36.889C49.8084 36.0649 48.3584 35.625 46.875 35.625ZM46.875 20.625C47.6167 20.625 48.3417 20.8449 48.9584 21.257C49.5751 21.669 50.0557 22.2547 50.3396 22.9399C50.6234 23.6252 50.6977 24.3792 50.553 25.1066C50.4083 25.834 50.0511 26.5022 49.5267 27.0267C49.0022 27.5511 48.334 27.9083 47.6066 28.0529C46.8792 28.1976 46.1252 28.1234 45.4399 27.8396C44.7547 27.5557 44.1691 27.0751 43.757 26.4584C43.3449 25.8417 43.125 25.1167 43.125 24.375C43.125 23.3804 43.5201 22.4266 44.2234 21.7234C44.9266 21.0201 45.8804 20.625 46.875 20.625ZM18.75 13.125C18.75 12.3833 18.9699 11.6583 19.382 11.0416C19.7941 10.4249 20.3797 9.94428 21.0649 9.66045C21.7502 9.37663 22.5042 9.30236 23.2316 9.44706C23.959 9.59175 24.6272 9.94891 25.1517 10.4734C25.6761 10.9978 26.0333 11.666 26.178 12.3934C26.3227 13.1208 26.2484 13.8748 25.9646 14.5601C25.6807 15.2453 25.2001 15.831 24.5834 16.243C23.9667 16.6551 23.2417 16.875 22.5 16.875C21.5054 16.875 20.5516 16.4799 19.8484 15.7767C19.1451 15.0734 18.75 14.1196 18.75 13.125ZM13.125 48.75C12.3833 48.75 11.6583 48.5301 11.0416 48.118C10.4249 47.706 9.94429 47.1203 9.66046 46.4351C9.37663 45.7498 9.30237 44.9958 9.44707 44.2684C9.59176 43.541 9.94891 42.8728 10.4734 42.3484C10.9978 41.8239 11.666 41.4668 12.3934 41.3221C13.1209 41.1774 13.8749 41.2516 14.5601 41.5355C15.2453 41.8193 15.831 42.2999 16.243 42.9166C16.6551 43.5333 16.875 44.2583 16.875 45C16.875 45.9946 16.4799 46.9484 15.7767 47.6517C15.0734 48.3549 14.1196 48.75 13.125 48.75ZM46.875 46.875C46.1333 46.875 45.4083 46.6551 44.7916 46.243C44.1749 45.831 43.6943 45.2453 43.4105 44.5601C43.1266 43.8748 43.0524 43.1208 43.1971 42.3934C43.3418 41.666 43.6989 40.9978 44.2234 40.4734C44.7478 39.9489 45.416 39.5918 46.1434 39.4471C46.8708 39.3024 47.6249 39.3766 48.3101 39.6605C48.9953 39.9443 49.581 40.4249 49.993 41.0416C50.4051 41.6583 50.625 42.3833 50.625 43.125C50.625 44.1196 50.2299 45.0734 49.5267 45.7767C48.8234 46.4799 47.8696 46.875 46.875 46.875Z" fill="#00A0E3"/>
</svg>
