<svg width="60" height="60" viewBox="0 0 60 60" fill="none" xmlns="http://www.w3.org/2000/svg">
<path d="M49.4295 34.4297C47.0178 36.8212 43.9455 38.4362 40.6082 39.0669C37.2708 39.6977 33.8211 39.3152 30.7029 37.9687L18.5154 52.0781C18.492 52.125 18.4451 52.1484 18.4217 52.1719C17.727 52.8692 16.9016 53.4225 15.9926 53.8C15.0836 54.1775 14.1091 54.3719 13.1248 54.3719C12.1406 54.3719 11.166 54.1775 10.257 53.8C9.34805 53.4225 8.52257 52.8692 7.82793 52.1719C7.13062 51.4772 6.57733 50.6518 6.1998 49.7428C5.82227 48.8338 5.62793 47.8592 5.62793 46.875C5.62793 45.8907 5.82227 44.9162 6.1998 44.0072C6.57733 43.0982 7.13062 42.2728 7.82793 41.5781L7.92168 41.4844L22.0311 29.2969C20.672 26.2009 20.2743 22.7682 20.8895 19.4435C21.5047 16.1189 23.1044 13.0557 25.4813 10.651C27.8581 8.2464 30.9025 6.6112 34.2198 5.95741C37.5371 5.30363 40.9742 5.6614 44.0857 6.98437C44.3672 7.10259 44.615 7.28856 44.8072 7.52573C44.9994 7.7629 45.13 8.04391 45.1873 8.34374C45.2464 8.64574 45.2303 8.95764 45.1404 9.25194C45.0505 9.54623 44.8895 9.81387 44.6717 10.0312L35.5545 19.1484L36.4217 23.5781L40.8514 24.4453L49.9686 15.3281C50.1859 15.1103 50.4536 14.9493 50.7479 14.8594C51.0422 14.7695 51.3541 14.7534 51.6561 14.8125C51.9559 14.8698 52.2369 15.0004 52.4741 15.1926C52.7112 15.3848 52.8972 15.6326 53.0154 15.9141C54.3385 19.0049 54.704 22.4216 54.0648 25.7223C53.4255 29.0231 51.8108 32.0563 49.4295 34.4297Z" fill="#00A0E3"/>
</svg>
