<svg width="60" height="60" viewBox="0 0 60 60" fill="none" xmlns="http://www.w3.org/2000/svg">
<path d="M15.0001 32.8125C15.0032 33.0596 14.9569 33.3048 14.8638 33.5337C14.7706 33.7626 14.6327 33.9706 14.4579 34.1453C14.2832 34.3201 14.0752 34.4581 13.8463 34.5512C13.6174 34.6443 13.3722 34.6907 13.1251 34.6875H2.81257C2.46424 34.6847 2.12323 34.5872 1.826 34.4056C1.52877 34.2239 1.28649 33.9649 1.12507 33.6563C0.974975 33.3419 0.913132 32.9927 0.946158 32.6459C0.979184 32.2991 1.10584 31.9679 1.31257 31.6875C2.97192 29.4601 5.18612 27.7065 7.73445 26.6016C6.63943 25.5992 5.79811 24.3511 5.27972 22.9601C4.76133 21.569 4.5807 20.0747 4.75269 18.6002C4.92468 17.1257 5.44438 15.7131 6.26901 14.4787C7.09364 13.2442 8.19962 12.2233 9.49594 11.4999C10.7923 10.7764 12.2418 10.3712 13.7254 10.3175C15.2089 10.2638 16.684 10.5631 18.0293 11.1909C19.3745 11.8187 20.5514 12.757 21.4631 13.9286C22.3749 15.1001 22.9953 16.4715 23.2735 17.9297C23.3429 18.3095 23.2948 18.7014 23.1356 19.0531C22.9765 19.4049 22.7139 19.6998 22.3829 19.8984C19.3515 21.696 17.0461 24.4991 15.8673 27.8203C15.2862 29.4202 14.9926 31.1103 15.0001 32.8125ZM58.6876 31.6875C57.0282 29.4601 54.814 27.7065 52.2657 26.6016C53.3607 25.5992 54.202 24.3511 54.7204 22.9601C55.2388 21.569 55.4194 20.0747 55.2475 18.6002C55.0755 17.1257 54.5558 15.7131 53.7311 14.4787C52.9065 13.2442 51.8005 12.2233 50.5042 11.4999C49.2079 10.7764 47.7583 10.3712 46.2748 10.3175C44.7912 10.2638 43.3161 10.5631 41.9709 11.1909C40.6257 11.8187 39.4487 12.757 38.537 13.9286C37.6253 15.1001 37.0048 16.4715 36.7266 17.9297C36.6573 18.3095 36.7054 18.7014 36.8645 19.0531C37.0236 19.4049 37.2862 19.6998 37.6173 19.8984C40.6526 21.6914 42.9594 24.4961 44.1329 27.8203C44.714 29.4202 45.0076 31.1103 45.0001 32.8125C44.9969 33.0596 45.0433 33.3048 45.1364 33.5337C45.2295 33.7626 45.3675 33.9706 45.5422 34.1453C45.717 34.3201 45.9249 34.4581 46.1538 34.5512C46.3827 34.6443 46.628 34.6907 46.8751 34.6875H57.1876C57.5358 34.6875 57.8771 34.5905 58.1733 34.4075C58.4695 34.2244 58.7089 33.9625 58.8646 33.651C59.0203 33.3396 59.0863 32.9909 59.055 32.6441C59.0237 32.2973 58.8965 31.9661 58.6876 31.6875ZM36.8438 41.7422C38.7099 40.3119 40.0809 38.3329 40.7643 36.0833C41.4477 33.8337 41.4092 31.4265 40.654 29.2C39.8989 26.9734 38.4651 25.0394 36.5542 23.6696C34.6433 22.2999 32.3512 21.5633 30.0001 21.5633C27.6489 21.5633 25.3569 22.2999 23.446 23.6696C21.535 25.0394 20.1013 26.9734 19.3461 29.2C18.591 31.4265 18.5524 33.8337 19.2358 36.0833C19.9192 38.3329 21.2903 40.3119 23.1563 41.7422C19.5107 43.3607 16.5551 46.2167 14.8126 49.8047C14.6739 50.0898 14.6118 50.4061 14.6324 50.7225C14.6529 51.0389 14.7554 51.3446 14.9298 51.6094C15.092 51.881 15.3221 52.1059 15.5973 52.262C15.8726 52.4182 16.1836 52.5002 16.5001 52.5H43.5001C43.8165 52.5002 44.1276 52.4182 44.4028 52.262C44.6781 52.1059 44.9081 51.881 45.0704 51.6094C45.2447 51.3446 45.3472 51.0389 45.3678 50.7225C45.3883 50.4061 45.3262 50.0898 45.1876 49.8047C43.445 46.2167 40.4895 43.3607 36.8438 41.7422Z" fill="#00A0E3"/>
</svg>
