<svg width="60" height="60" viewBox="0 0 60 60" fill="none" xmlns="http://www.w3.org/2000/svg">
<path d="M48.75 7.5H11.25C10.2554 7.5 9.30161 7.89509 8.59835 8.59835C7.89509 9.30161 7.5 10.2554 7.5 11.25V48.75C7.5 49.7446 7.89509 50.6984 8.59835 51.4016C9.30161 52.1049 10.2554 52.5 11.25 52.5H48.75C49.7446 52.5 50.6984 52.1049 51.4016 51.4016C52.1049 50.6984 52.5 49.7446 52.5 48.75V11.25C52.5 10.2554 52.1049 9.30161 51.4016 8.59835C50.6984 7.89509 49.7446 7.5 48.75 7.5ZM41.6016 25.7344L27.8672 38.8594C27.5121 39.1934 27.0422 39.378 26.5547 39.375C26.0744 39.3768 25.6122 39.1919 25.2656 38.8594L18.3984 32.2969C18.208 32.1307 18.0531 31.9277 17.943 31.7002C17.833 31.4726 17.7701 31.2251 17.7582 30.9726C17.7462 30.7201 17.7855 30.4678 17.8735 30.2309C17.9616 29.9939 18.0966 29.7773 18.2705 29.5938C18.4445 29.4104 18.6537 29.2641 18.8856 29.1636C19.1176 29.0631 19.3674 29.0105 19.6202 29.009C19.873 29.0076 20.1234 29.0572 20.3565 29.155C20.5896 29.2528 20.8005 29.3967 20.9766 29.5781L26.5547 34.8984L39.0234 23.0156C39.388 22.6976 39.8614 22.5327 40.3447 22.5556C40.828 22.5784 41.2837 22.7872 41.6166 23.1383C41.9496 23.4894 42.1339 23.9556 42.1311 24.4394C42.1283 24.9232 41.9385 25.3872 41.6016 25.7344Z" fill="#00A0E3"/>
</svg>
