<svg width="60" height="60" viewBox="0 0 60 60" fill="none" xmlns="http://www.w3.org/2000/svg">
<path d="M42.1875 33.75H37.5V26.25H42.1875C43.8563 26.25 45.4876 25.7552 46.8751 24.828C48.2627 23.9009 49.3441 22.5831 49.9827 21.0414C50.6213 19.4996 50.7884 17.8031 50.4629 16.1664C50.1373 14.5297 49.3337 13.0263 48.1537 11.8463C46.9737 10.6663 45.4703 9.86269 43.8336 9.53713C42.1969 9.21157 40.5004 9.37866 38.9586 10.0173C37.4169 10.6559 36.0991 11.7373 35.172 13.1249C34.2449 14.5124 33.75 16.1437 33.75 17.8125V22.5H26.25V17.8125C26.25 16.1437 25.7552 14.5124 24.828 13.1249C23.9009 11.7373 22.5831 10.6559 21.0414 10.0173C19.4996 9.37866 17.8031 9.21157 16.1664 9.53713C14.5297 9.86269 13.0263 10.6663 11.8463 11.8463C10.6663 13.0263 9.86269 14.5297 9.53713 16.1664C9.21157 17.8031 9.37866 19.4996 10.0173 21.0414C10.6559 22.5831 11.7373 23.9009 13.1249 24.828C14.5124 25.7552 16.1437 26.25 17.8125 26.25H22.5V33.75H17.8125C16.1437 33.75 14.5124 34.2449 13.1249 35.172C11.7373 36.0991 10.6559 37.4169 10.0173 38.9586C9.37866 40.5004 9.21157 42.1969 9.53713 43.8336C9.86269 45.4703 10.6663 46.9737 11.8463 48.1537C13.0263 49.3337 14.5297 50.1373 16.1664 50.4629C17.8031 50.7884 19.4996 50.6213 21.0414 49.9827C22.5831 49.3441 23.9009 48.2627 24.828 46.8751C25.7552 45.4876 26.25 43.8563 26.25 42.1875V37.5H33.75V42.1875C33.75 43.8563 34.2449 45.4876 35.172 46.8751C36.0991 48.2627 37.4169 49.3441 38.9586 49.9827C40.5004 50.6213 42.1969 50.7884 43.8336 50.4629C45.4703 50.1373 46.9737 49.3337 48.1537 48.1537C49.3337 46.9737 50.1373 45.4703 50.4629 43.8336C50.7884 42.1969 50.6213 40.5004 49.9827 38.9586C49.3441 37.4169 48.2627 36.0991 46.8751 35.172C45.4876 34.2449 43.8563 33.75 42.1875 33.75ZM37.5 17.8125C37.5 16.8854 37.7749 15.9791 38.29 15.2083C38.8051 14.4374 39.5371 13.8366 40.3937 13.4818C41.2502 13.127 42.1927 13.0342 43.102 13.2151C44.0113 13.3959 44.8465 13.8424 45.5021 14.4979C46.1576 15.1535 46.6041 15.9887 46.7849 16.898C46.9658 17.8073 46.873 18.7498 46.5182 19.6063C46.1634 20.4629 45.5626 21.1949 44.7917 21.71C44.0209 22.2251 43.1146 22.5 42.1875 22.5H37.5V17.8125ZM13.125 17.8125C13.125 16.5693 13.6189 15.377 14.4979 14.4979C15.377 13.6189 16.5693 13.125 17.8125 13.125C19.0557 13.125 20.248 13.6189 21.1271 14.4979C22.0061 15.377 22.5 16.5693 22.5 17.8125V22.5H17.8125C16.5712 22.4938 15.3825 21.998 14.5047 21.1203C13.627 20.2425 13.1312 19.0538 13.125 17.8125ZM22.5 42.1875C22.5 43.1146 22.2251 44.0209 21.71 44.7917C21.1949 45.5626 20.4629 46.1634 19.6063 46.5182C18.7498 46.873 17.8073 46.9658 16.898 46.7849C15.9887 46.6041 15.1535 46.1576 14.4979 45.5021C13.8424 44.8465 13.3959 44.0113 13.2151 43.102C13.0342 42.1927 13.127 41.2502 13.4818 40.3937C13.8366 39.5371 14.4374 38.8051 15.2083 38.29C15.9791 37.7749 16.8854 37.5 17.8125 37.5H22.5V42.1875ZM26.25 26.25H33.75V33.75H26.25V26.25ZM42.1875 46.875C40.9462 46.8688 39.7575 46.373 38.8797 45.4953C38.002 44.6175 37.5062 43.4288 37.5 42.1875V37.5H42.1875C43.4307 37.5 44.623 37.9939 45.5021 38.8729C46.3811 39.752 46.875 40.9443 46.875 42.1875C46.875 43.4307 46.3811 44.623 45.5021 45.5021C44.623 46.3811 43.4307 46.875 42.1875 46.875Z" fill="#00A0E3"/>
</svg>
