<svg width="60" height="60" viewBox="0 0 60 60" fill="none" xmlns="http://www.w3.org/2000/svg">
<path d="M30 44.0391C29.3935 44.4297 28.7677 44.7895 28.125 45.1172V54.375C28.125 54.8723 28.3225 55.3492 28.6742 55.7008C29.0258 56.0525 29.5027 56.25 30 56.25C30.4973 56.25 30.9742 56.0525 31.3258 55.7008C31.6775 55.3492 31.875 54.8723 31.875 54.375V45.1172C31.2323 44.7895 30.6065 44.4297 30 44.0391Z" fill="#00A0E3"/>
<path d="M46.4297 14.6719C45.0734 11.4334 42.7902 8.66797 39.867 6.72307C36.9439 4.77817 33.5111 3.74054 30.0001 3.74054C26.489 3.74054 23.0562 4.77817 20.1331 6.72307C17.2099 8.66797 14.9267 11.4334 13.5704 14.6719C10.6519 16.0243 8.17864 18.1795 6.43966 20.8855C4.70067 23.5915 3.7678 26.7366 3.75006 29.9531C3.72662 39.0469 11.1094 46.6406 20.1797 46.875C22.932 46.9469 25.66 46.3434 28.1251 45.1172V36.7734L17.9063 31.6875C17.4588 31.4637 17.1184 31.0713 16.9602 30.5966C16.8818 30.3616 16.8506 30.1134 16.8681 29.8662C16.8857 29.6191 16.9518 29.3778 17.0626 29.1562C17.1734 28.9346 17.3267 28.737 17.5139 28.5747C17.7011 28.4124 17.9184 28.2885 18.1534 28.2101C18.6281 28.0519 19.1463 28.0887 19.5938 28.3125L28.1251 32.6016V20.625C28.1251 20.1277 28.3226 19.6508 28.6742 19.2992C29.0259 18.9475 29.5028 18.75 30.0001 18.75C30.4973 18.75 30.9743 18.9475 31.3259 19.2992C31.6775 19.6508 31.8751 20.1277 31.8751 20.625V26.9766L40.4063 22.6875C40.8539 22.4637 41.372 22.4269 41.8467 22.5851C42.3214 22.7434 42.7138 23.0837 42.9376 23.5312C43.1613 23.9788 43.1982 24.4969 43.0399 24.9716C42.8817 25.4463 42.5414 25.8387 42.0938 26.0625L31.8751 31.1484V45.1172C34.2061 46.2735 36.773 46.8751 39.3751 46.875H39.8204C48.8907 46.6406 56.2735 39.0469 56.2501 29.9531C56.2323 26.7366 55.2994 23.5915 53.5605 20.8855C51.8215 18.1795 49.3482 16.0243 46.4297 14.6719Z" fill="#00A0E3"/>
</svg>
