<svg width="60" height="60" viewBox="0 0 60 60" fill="none" xmlns="http://www.w3.org/2000/svg">
<path d="M30 45.9375C38.802 45.9375 45.9375 38.802 45.9375 30C45.9375 21.198 38.802 14.0625 30 14.0625C21.198 14.0625 14.0625 21.198 14.0625 30C14.0625 38.802 21.198 45.9375 30 45.9375Z" fill="#00A0E3"/>
<path d="M30 10.3125C30.4973 10.3125 30.9742 10.115 31.3258 9.76332C31.6775 9.41169 31.875 8.93478 31.875 8.4375V6.5625C31.875 6.06522 31.6775 5.58831 31.3258 5.23667C30.9742 4.88504 30.4973 4.6875 30 4.6875C29.5027 4.6875 29.0258 4.88504 28.6742 5.23667C28.3225 5.58831 28.125 6.06522 28.125 6.5625V8.4375C28.125 8.93478 28.3225 9.41169 28.6742 9.76332C29.0258 10.115 29.5027 10.3125 30 10.3125Z" fill="#00A0E3"/>
<path d="M13.4299 16.0781C13.7843 16.4232 14.2594 16.6162 14.7541 16.6162C15.2487 16.6162 15.7239 16.4232 16.0783 16.0781C16.429 15.7266 16.6259 15.2504 16.6259 14.7539C16.6259 14.2574 16.429 13.7812 16.0783 13.4297L14.7424 12.0937C14.3857 11.7706 13.9184 11.5969 13.4372 11.6088C12.9561 11.6206 12.4979 11.8171 12.1576 12.1574C11.8172 12.4977 11.6208 12.9559 11.609 13.4371C11.5971 13.9182 11.7708 14.3855 12.0939 14.7422L13.4299 16.0781Z" fill="#00A0E3"/>
<path d="M8.4375 28.125H6.5625C6.06522 28.125 5.58831 28.3225 5.23667 28.6742C4.88504 29.0258 4.6875 29.5027 4.6875 30C4.6875 30.4973 4.88504 30.9742 5.23667 31.3258C5.58831 31.6775 6.06522 31.875 6.5625 31.875H8.4375C8.93478 31.875 9.41169 31.6775 9.76332 31.3258C10.115 30.9742 10.3125 30.4973 10.3125 30C10.3125 29.5027 10.115 29.0258 9.76332 28.6742C9.41169 28.3225 8.93478 28.125 8.4375 28.125Z" fill="#00A0E3"/>
<path d="M13.4294 43.9219L12.0935 45.2578C11.7428 45.6093 11.5459 46.0855 11.5459 46.582C11.5459 47.0785 11.7428 47.5547 12.0935 47.9062C12.4534 48.2503 12.9315 48.4432 13.4294 48.4453C13.9206 48.4445 14.3919 48.2509 14.7419 47.9062L16.0778 46.5703C16.401 46.2136 16.5747 45.7464 16.5628 45.2652C16.551 44.784 16.3545 44.3259 16.0142 43.9855C15.6739 43.6452 15.2157 43.4488 14.7345 43.4369C14.2534 43.4251 13.7861 43.5987 13.4294 43.9219Z" fill="#00A0E3"/>
<path d="M30 49.6875C29.5027 49.6875 29.0258 49.885 28.6742 50.2367C28.3225 50.5883 28.125 51.0652 28.125 51.5625V53.4375C28.125 53.9348 28.3225 54.4117 28.6742 54.7633C29.0258 55.115 29.5027 55.3125 30 55.3125C30.4973 55.3125 30.9742 55.115 31.3258 54.7633C31.6775 54.4117 31.875 53.9348 31.875 53.4375V51.5625C31.875 51.0652 31.6775 50.5883 31.3258 50.2367C30.9742 49.885 30.4973 49.6875 30 49.6875Z" fill="#00A0E3"/>
<path d="M46.5705 43.9219C46.2138 43.5987 45.7465 43.4251 45.2654 43.4369C44.7842 43.4488 44.326 43.6452 43.9857 43.9855C43.6454 44.3259 43.4489 44.784 43.4371 45.2652C43.4252 45.7464 43.5989 46.2136 43.9221 46.5703L45.258 47.9062C45.608 48.2509 46.0793 48.4445 46.5705 48.4453C47.0684 48.4432 47.5465 48.2503 47.9064 47.9062C48.2571 47.5547 48.454 47.0785 48.454 46.582C48.454 46.0855 48.2571 45.6093 47.9064 45.2578L46.5705 43.9219Z" fill="#00A0E3"/>
<path d="M53.4375 28.125H51.5625C51.0652 28.125 50.5883 28.3225 50.2367 28.6742C49.885 29.0258 49.6875 29.5027 49.6875 30C49.6875 30.4973 49.885 30.9742 50.2367 31.3258C50.5883 31.6775 51.0652 31.875 51.5625 31.875H53.4375C53.9348 31.875 54.4117 31.6775 54.7633 31.3258C55.115 30.9742 55.3125 30.4973 55.3125 30C55.3125 29.5027 55.115 29.0258 54.7633 28.6742C54.4117 28.3225 53.9348 28.125 53.4375 28.125Z" fill="#00A0E3"/>
<path d="M45.2575 16.6172C45.5012 16.6193 45.7428 16.5728 45.9682 16.4802C46.1936 16.3876 46.3982 16.2509 46.57 16.0781L47.906 14.7422C48.0942 14.5716 48.2458 14.3646 48.3516 14.1337C48.4574 13.9028 48.5152 13.6528 48.5214 13.3989C48.5277 13.145 48.4823 12.8924 48.388 12.6566C48.2937 12.4207 48.1524 12.2065 47.9728 12.0269C47.7932 11.8473 47.579 11.7061 47.3432 11.6117C47.1073 11.5174 46.8548 11.472 46.6008 11.4783C46.3469 11.4845 46.0969 11.5423 45.866 11.6481C45.6351 11.7539 45.4281 11.9055 45.2575 12.0938L43.9216 13.4297C43.5709 13.7812 43.374 14.2574 43.374 14.7539C43.374 15.2504 43.5709 15.7266 43.9216 16.0781C44.0962 16.2538 44.3046 16.3921 44.5342 16.4848C44.7639 16.5775 45.01 16.6225 45.2575 16.6172Z" fill="#00A0E3"/>
</svg>
