<svg width="60" height="60" fill="none" xmlns="http://www.w3.org/2000/svg"><path d="M48.75 7.5h-5.625V5.625a1.875 1.875 0 10-3.75 0V7.5h-18.75V5.625a1.875 1.875 0 10-3.75 0V7.5H11.25a3.75 3.75 0 00-3.75 3.75v37.5a3.75 3.75 0 003.75 3.75h37.5a3.75 3.75 0 003.75-3.75v-37.5a3.75 3.75 0 00-3.75-3.75zM24.375 44.063a5.672 5.672 0 01-3.984-1.641 1.875 1.875 0 010-2.649 1.854 1.854 0 012.648 0c.36.344.838.537 1.336.54a1.875 1.875 0 100-3.75h-.586l-.094-.047h-.07l-.117-.047h-.024l-.14-.094h-.047l-.094-.07-.094-.07-.047-.047-.07-.07a2.012 2.012 0 01-.305-.47 1.357 1.357 0 01-.14-.398c-.024-.023-.024-.047-.024-.094a.094.094 0 00-.023-.07v-.563c0-.046.023-.07.023-.093v-.094a.14.14 0 00.024-.094c.023-.023.023-.047.023-.094l.047-.07c0-.047 0-.07.024-.094l.047-.093v-.07l.046-.094.047-.07.07-.094.047-.047 1.313-1.641h-2.648a1.875 1.875 0 110-3.75h6.562a1.875 1.875 0 011.453 3.047l-2.062 2.601a5.626 5.626 0 01-3.141 10.29zm15-1.876a1.875 1.875 0 11-3.75 0V33.75l-.75.563a1.898 1.898 0 01-2.625-.376 1.875 1.875 0 01.375-2.624l3.75-2.813a1.875 1.875 0 013 1.5v12.188zM48.75 18.75h-37.5v-7.5h5.625v1.875a1.875 1.875 0 103.75 0V11.25h18.75v1.875a1.875 1.875 0 103.75 0V11.25h5.625v7.5z" fill="#00A0E3"/></svg>