<svg width="60" height="60" fill="none" xmlns="http://www.w3.org/2000/svg"><path d="M29.977 18.75a8.438 8.438 0 100-16.875 8.438 8.438 0 000 16.875z" fill="#00A0E3"/><path d="M49.617 32.695l-9.234-11.86-.141-.163a6.515 6.515 0 00-4.64-1.922h-11.25a6.516 6.516 0 00-4.641 1.922l-.164.164-9.211 11.86a4.69 4.69 0 006.632 6.632l3.305-2.578-4.664 14.695a4.734 4.734 0 00-.094 3.446 4.664 4.664 0 002.438 2.648 4.595 4.595 0 003.562.164 4.734 4.734 0 002.602-2.297l5.86-9.234 5.859 9.234a4.781 4.781 0 002.578 2.297c.52.184 1.066.28 1.617.281A4.478 4.478 0 0042 57.54a4.735 4.735 0 002.437-2.648 4.617 4.617 0 00-.117-3.446L39.68 36.75l3.304 2.578a4.688 4.688 0 007.551-1.61 4.618 4.618 0 00.348-1.788 4.67 4.67 0 00-1.266-3.235z" fill="#00A0E3"/></svg>