<svg width="60" height="60" viewBox="0 0 60 60" fill="none" xmlns="http://www.w3.org/2000/svg">
<path d="M50.625 11.25H41.25V9.375C41.2438 7.88506 40.6492 6.4579 39.5957 5.40434C38.5421 4.35078 37.1149 3.75617 35.625 3.75H24.375C22.8851 3.75617 21.4579 4.35078 20.4043 5.40434C19.3508 6.4579 18.7562 7.88506 18.75 9.375V11.25H9.375C8.87772 11.25 8.40081 11.4475 8.04918 11.7992C7.69754 12.1508 7.5 12.6277 7.5 13.125C7.5 13.6223 7.69754 14.0992 8.04918 14.4508C8.40081 14.8025 8.87772 15 9.375 15H11.25V48.75C11.25 49.7446 11.6451 50.6984 12.3483 51.4016C13.0516 52.1049 14.0054 52.5 15 52.5H45C45.9946 52.5 46.9484 52.1049 47.6516 51.4016C48.3549 50.6984 48.75 49.7446 48.75 48.75V15H50.625C51.1223 15 51.5992 14.8025 51.9508 14.4508C52.3025 14.0992 52.5 13.6223 52.5 13.125C52.5 12.6277 52.3025 12.1508 51.9508 11.7992C51.5992 11.4475 51.1223 11.25 50.625 11.25ZM26.25 39.375C26.25 39.8723 26.0525 40.3492 25.7008 40.7008C25.3492 41.0525 24.8723 41.25 24.375 41.25C23.8777 41.25 23.4008 41.0525 23.0492 40.7008C22.6975 40.3492 22.5 39.8723 22.5 39.375V24.375C22.5 23.8777 22.6975 23.4008 23.0492 23.0492C23.4008 22.6975 23.8777 22.5 24.375 22.5C24.8723 22.5 25.3492 22.6975 25.7008 23.0492C26.0525 23.4008 26.25 23.8777 26.25 24.375V39.375ZM37.5 39.375C37.5 39.8723 37.3025 40.3492 36.9508 40.7008C36.5992 41.0525 36.1223 41.25 35.625 41.25C35.1277 41.25 34.6508 41.0525 34.2992 40.7008C33.9475 40.3492 33.75 39.8723 33.75 39.375V24.375C33.75 23.8777 33.9475 23.4008 34.2992 23.0492C34.6508 22.6975 35.1277 22.5 35.625 22.5C36.1223 22.5 36.5992 22.6975 36.9508 23.0492C37.3025 23.4008 37.5 23.8777 37.5 24.375V39.375ZM37.5 11.25H22.5V9.375C22.5 8.87772 22.6975 8.40081 23.0492 8.04918C23.4008 7.69754 23.8777 7.5 24.375 7.5H35.625C36.1223 7.5 36.5992 7.69754 36.9508 8.04918C37.3025 8.40081 37.5 8.87772 37.5 9.375V11.25Z" fill="#00A0E3"/>
</svg>
