<svg width="60" height="60" fill="none" xmlns="http://www.w3.org/2000/svg"><path d="M39.375 52.5a1.875 1.875 0 01-1.875 1.875h-15a1.875 1.875 0 110-3.75h15a1.875 1.875 0 011.875 1.875zm15-37.5v26.25a5.649 5.649 0 01-5.625 5.625h-37.5a5.649 5.649 0 01-5.625-5.625V15a5.649 5.649 0 015.625-5.625h37.5A5.649 5.649 0 0154.375 15zM38.437 28.125a1.851 1.851 0 00-.867-1.57l-10.312-6.563a1.852 1.852 0 00-1.899-.07 1.874 1.874 0 00-.984 1.64v13.125a1.875 1.875 0 00.984 1.641 1.804 1.804 0 001.899-.07l10.312-6.563a1.851 1.851 0 00.867-1.57z" fill="#00A0E3"/></svg>