<svg width="60" height="60" fill="none" xmlns="http://www.w3.org/2000/svg"><path d="M46.875 35.625a7.43 7.43 0 00-4.57 1.57l-5.414-4.218A7.43 7.43 0 0037.5 30a3.795 3.795 0 00-.023-.516l3.117-1.03a7.476 7.476 0 10-1.219-4.079c-.004.172.004.345.023.516l-3.117 1.03A7.476 7.476 0 0030 22.5c-.416.007-.83.038-1.242.094l-1.594-3.61A7.43 7.43 0 0030 13.125a7.5 7.5 0 10-7.5 7.5c.416-.007.83-.038 1.242-.094l1.594 3.61A7.431 7.431 0 0022.5 30a7.595 7.595 0 00.82 3.422l-6.023 5.344A7.5 7.5 0 1020.625 45a7.593 7.593 0 00-.82-3.422l6.023-5.344a7.477 7.477 0 008.742-.304l5.414 4.218a7.43 7.43 0 00-.609 2.977 7.5 7.5 0 107.5-7.5zm0-15a3.75 3.75 0 110 7.5 3.75 3.75 0 010-7.5zm-28.125-7.5a3.75 3.75 0 117.5 0 3.75 3.75 0 01-7.5 0zM13.125 48.75a3.75 3.75 0 110-7.5 3.75 3.75 0 010 7.5zm33.75-1.875a3.75 3.75 0 110-7.5 3.75 3.75 0 010 7.5z" fill="#00A0E3"/></svg>