<svg width="60" height="60" fill="none" xmlns="http://www.w3.org/2000/svg"><path d="M54.422 12.117v11.25a1.875 1.875 0 01-1.875 1.875h-11.25a1.875 1.875 0 01-1.336-3.187l4.312-4.313-1.007-1.008a18.797 18.797 0 00-26.532 0 1.853 1.853 0 01-2.648 0 1.875 1.875 0 010-2.648 22.547 22.547 0 0131.828 0l1.008 1.008 4.289-4.29a1.875 1.875 0 012.039-.421 1.922 1.922 0 011.172 1.734zM43.266 43.266a18.797 18.797 0 01-26.532 0l-1.007-1.008 4.312-4.313a1.875 1.875 0 00-1.336-3.187H7.453a1.875 1.875 0 00-1.875 1.875v11.25a1.922 1.922 0 001.172 1.734 1.874 1.874 0 001.43-.002c.229-.097.437-.24.61-.42l4.288-4.289 1.008 1.008a22.524 22.524 0 0031.828 0 1.875 1.875 0 000-2.648 1.854 1.854 0 00-2.648 0z" fill="#00A0E3"/></svg>