<svg width="60" height="60" fill="none" xmlns="http://www.w3.org/2000/svg"><path d="M53.086 13.219l-22.5-7.5a1.992 1.992 0 00-1.172 0l-22.477 7.5H6.89l-.234.117h-.023l-.235.14c0 .024-.023.024-.047.047l-.187.165-.164.187c0 .024-.024.024-.024.047l-.14.21c0 .024 0 .024-.024.048l-.093.21-.07.258v.07a.867.867 0 00-.024.282v18.75a1.875 1.875 0 103.75 0V17.602l7.875 2.625A14.812 14.812 0 0015 28.125a15 15 0 007.031 12.703 22.524 22.524 0 00-10.898 8.766 1.898 1.898 0 001.236 2.876 1.851 1.851 0 001.904-.814 18.75 18.75 0 0131.453 0 1.876 1.876 0 001.57.844c.36.004.712-.102 1.009-.305a1.898 1.898 0 00.562-2.601 22.523 22.523 0 00-10.898-8.766 15 15 0 007.03-12.703c.01-2.792-.77-5.53-2.25-7.898l10.337-3.446a1.875 1.875 0 000-3.562zM30 39.375a11.25 11.25 0 01-11.25-11.25 11.39 11.39 0 012.18-6.68l8.484 2.836c.38.126.791.126 1.172 0l8.484-2.836a11.391 11.391 0 012.18 6.68A11.25 11.25 0 0130 39.375z" fill="#00A0E3"/></svg>