<svg width="60" height="60" fill="none" xmlns="http://www.w3.org/2000/svg"><path d="M52.5 9.258A1.898 1.898 0 0050.742 7.5c-17.883-1.055-32.203 4.336-38.32 14.438a20.461 20.461 0 00-3 11.507c.14 3.727 1.218 7.524 3.234 11.25l23.508-23.53a1.898 1.898 0 012.672 2.67l-23.532 23.51c3.727 2.015 7.524 3.093 11.25 3.234h.774a20.39 20.39 0 0010.734-3C48.164 41.461 53.554 27.141 52.5 9.258z" fill="#00A0E3"/><path d="M13.383 45.96a34.747 34.747 0 01-.727-1.265L8.04 49.29a1.898 1.898 0 000 2.672 1.922 1.922 0 002.672 0l4.594-4.617-1.266-.727a2.178 2.178 0 01-.656-.656z" fill="#00A0E3"/></svg>