<svg width="60" height="60" viewBox="0 0 60 60" fill="none" xmlns="http://www.w3.org/2000/svg">
<path d="M39.375 52.5C39.375 52.9973 39.1775 53.4742 38.8258 53.8258C38.4742 54.1775 37.9973 54.375 37.5 54.375H22.5C22.0027 54.375 21.5258 54.1775 21.1742 53.8258C20.8225 53.4742 20.625 52.9973 20.625 52.5C20.625 52.0027 20.8225 51.5258 21.1742 51.1742C21.5258 50.8225 22.0027 50.625 22.5 50.625H37.5C37.9973 50.625 38.4742 50.8225 38.8258 51.1742C39.1775 51.5258 39.375 52.0027 39.375 52.5ZM54.375 15V41.25C54.3688 42.7399 53.7742 44.1671 52.7207 45.2207C51.6671 46.2742 50.2399 46.8688 48.75 46.875H11.25C9.76006 46.8688 8.3329 46.2742 7.27934 45.2207C6.22578 44.1671 5.63117 42.7399 5.625 41.25V15C5.63117 13.5101 6.22578 12.0829 7.27934 11.0293C8.3329 9.97578 9.76006 9.38117 11.25 9.375H48.75C50.2399 9.38117 51.6671 9.97578 52.7207 11.0293C53.7742 12.0829 54.3688 13.5101 54.375 15ZM38.4375 28.125C38.4379 27.8112 38.3585 27.5025 38.2068 27.2278C38.0551 26.9531 37.8361 26.7215 37.5703 26.5547L27.2578 19.9922C26.9772 19.8101 26.6526 19.7074 26.3183 19.695C25.984 19.6826 25.6527 19.761 25.3594 19.9219C25.0631 20.0818 24.8154 20.3185 24.6422 20.6072C24.469 20.8959 24.3767 21.2258 24.375 21.5625V34.6875C24.3767 35.0242 24.469 35.3541 24.6422 35.6428C24.8154 35.9315 25.0631 36.1682 25.3594 36.3281C25.6511 36.4941 25.9832 36.5754 26.3186 36.563C26.654 36.5506 26.9792 36.4449 27.2578 36.2578L37.5703 29.6953C37.8361 29.5285 38.0551 29.2969 38.2068 29.0222C38.3585 28.7475 38.4379 28.4388 38.4375 28.125Z" fill="#00A0E3"/>
</svg>
