<svg width="60" height="60" viewBox="0 0 60 60" fill="none" xmlns="http://www.w3.org/2000/svg">
<path d="M54.4219 12.1172V23.3672C54.4219 23.8645 54.2243 24.3414 53.8727 24.693C53.5211 25.0446 53.0442 25.2422 52.5469 25.2422H41.2969C40.9279 25.2416 40.5673 25.1321 40.2602 24.9275C39.9532 24.7229 39.7133 24.4323 39.5707 24.092C39.4281 23.7517 39.389 23.3768 39.4584 23.0144C39.5279 22.6521 39.7026 22.3182 39.9609 22.0547L44.2734 17.7422L43.2656 16.7344C39.7426 13.225 34.9726 11.2546 30 11.2546C25.0274 11.2546 20.2574 13.225 16.7344 16.7344C16.5619 16.9108 16.3559 17.0511 16.1285 17.1468C15.9011 17.2425 15.6569 17.2918 15.4102 17.2918C15.1634 17.2918 14.9192 17.2425 14.6918 17.1468C14.4644 17.0511 14.2584 16.9108 14.0859 16.7344C13.7353 16.3829 13.5384 15.9067 13.5384 15.4102C13.5384 14.9137 13.7353 14.4374 14.0859 14.0859C18.3119 9.87528 24.0344 7.51105 30 7.51105C35.9656 7.51105 41.6881 9.87528 45.9141 14.0859L46.9219 15.0938L51.2109 10.8047C51.4711 10.5407 51.8036 10.3598 52.1665 10.2847C52.5294 10.2096 52.9065 10.2437 53.25 10.3828C53.5921 10.5277 53.8848 10.7687 54.0928 11.0765C54.3007 11.3843 54.4151 11.7458 54.4219 12.1172ZM43.2656 43.2656C39.7426 46.775 34.9726 48.7454 30 48.7454C25.0274 48.7454 20.2574 46.775 16.7344 43.2656L15.7266 42.2578L20.0391 37.9453C20.2974 37.6818 20.4721 37.348 20.5416 36.9856C20.611 36.6232 20.5719 36.2483 20.4293 35.908C20.2867 35.5677 20.0468 35.2771 19.7398 35.0725C19.4327 34.8679 19.0721 34.7584 18.7031 34.7578H7.45312C6.95584 34.7578 6.47893 34.9554 6.1273 35.307C5.77567 35.6586 5.57813 36.1355 5.57812 36.6328V47.8828C5.58494 48.2542 5.69925 48.6157 5.90723 48.9235C6.11521 49.2313 6.40794 49.4723 6.75 49.6172C6.97315 49.7089 7.21189 49.7566 7.45312 49.7578C7.70239 49.7601 7.94949 49.7114 8.17923 49.6146C8.40897 49.5179 8.6165 49.3752 8.78906 49.1953L13.0781 44.9063L14.0859 45.9141C18.3089 50.1304 24.0325 52.4986 30 52.4986C35.9675 52.4986 41.6911 50.1304 45.9141 45.9141C46.2647 45.5626 46.4616 45.0863 46.4616 44.5898C46.4616 44.0934 46.2647 43.6171 45.9141 43.2656C45.7416 43.0892 45.5356 42.949 45.3082 42.8532C45.0808 42.7575 44.8366 42.7082 44.5898 42.7082C44.3431 42.7082 44.0989 42.7575 43.8715 42.8532C43.6441 42.949 43.4381 43.0892 43.2656 43.2656V43.2656Z" fill="#00A0E3"/>
</svg>
