<svg width="60" height="60" fill="none" xmlns="http://www.w3.org/2000/svg"><path d="M58.125 28.102v-.047a.399.399 0 00-.023-.164v-.07c0-.048-.024-.094-.024-.141v-.047l-.047-.188h-.023l-3.281-8.156a3.68 3.68 0 00-3.493-2.414h-8.109V15a1.875 1.875 0 00-1.875-1.875H5.625a3.75 3.75 0 00-3.75 3.75v26.25a3.75 3.75 0 003.75 3.75h3.047a7.5 7.5 0 0014.531 0h13.594a7.5 7.5 0 0014.531 0h3.047a3.75 3.75 0 003.75-3.75V28.102zm-15-7.477h8.11l2.25 5.625h-10.36v-5.625zm-37.5-3.75h33.75v15H5.625v-15zM15.938 48.75a3.75 3.75 0 110-7.5 3.75 3.75 0 010 7.5zm28.124 0a3.75 3.75 0 110-7.5 3.75 3.75 0 010 7.5z" fill="#00A0E3"/></svg>