<svg width="60" height="60" fill="none" xmlns="http://www.w3.org/2000/svg"><path d="M32.32 34.734L20.414 12.258a1.875 1.875 0 00-3.328 0L5.18 34.734.21 44.133a1.898 1.898 0 00.798 2.531 1.899 1.899 0 002.53-.797l4.43-8.367h21.563l4.43 8.367a1.851 1.851 0 001.664 1.008 1.875 1.875 0 001.664-2.742l-4.969-9.399zM9.96 33.75l8.79-16.617 8.789 16.617H9.96zm38.79-11.508a9.844 9.844 0 00-6.938 2.766 1.875 1.875 0 102.625 2.672 6.094 6.094 0 014.313-1.688c3.094 0 5.625 2.11 5.625 4.688v1.687a10.078 10.078 0 00-5.625-1.687c-5.18 0-9.375 3.773-9.375 8.437s4.195 8.438 9.375 8.438a10.06 10.06 0 005.789-1.805 1.852 1.852 0 001.71 1.125A1.875 1.875 0 0058.126 45V30.68c0-4.664-4.196-8.438-9.375-8.438zm0 21.563c-3.094 0-5.625-2.11-5.625-4.688s2.531-4.687 5.625-4.687 5.625 2.11 5.625 4.687c0 2.578-2.531 4.688-5.625 4.688z" fill="#00A0E3"/></svg>