<svg width="60" height="60" fill="none" xmlns="http://www.w3.org/2000/svg"><path d="M42.188 33.75H37.5v-7.5h4.688a8.437 8.437 0 10-8.438-8.438V22.5h-7.5v-4.688a8.437 8.437 0 10-8.438 8.438H22.5v7.5h-4.688a8.437 8.437 0 108.438 8.438V37.5h7.5v4.688a8.437 8.437 0 108.438-8.438zM37.5 17.812a4.687 4.687 0 114.688 4.688H37.5v-4.688zm-24.375 0a4.688 4.688 0 019.375 0V22.5h-4.688a4.711 4.711 0 01-4.687-4.688zM22.5 42.188a4.687 4.687 0 11-4.688-4.687H22.5v4.688zm3.75-15.937h7.5v7.5h-7.5v-7.5zm15.938 20.625a4.711 4.711 0 01-4.688-4.688V37.5h4.688a4.688 4.688 0 010 9.375z" fill="#00A0E3"/></svg>