<svg width="60" height="60" fill="none" xmlns="http://www.w3.org/2000/svg"><path d="M50.625 11.25H41.25V9.375a5.649 5.649 0 00-5.625-5.625h-11.25a5.649 5.649 0 00-5.625 5.625v1.875H9.375a1.875 1.875 0 100 3.75h1.875v33.75A3.75 3.75 0 0015 52.5h30a3.75 3.75 0 003.75-3.75V15h1.875a1.875 1.875 0 100-3.75zM26.25 39.375a1.875 1.875 0 11-3.75 0v-15a1.875 1.875 0 113.75 0v15zm11.25 0a1.875 1.875 0 11-3.75 0v-15a1.875 1.875 0 113.75 0v15zm0-28.125h-15V9.375A1.875 1.875 0 0124.375 7.5h11.25A1.875 1.875 0 0137.5 9.375v1.875z" fill="#00A0E3"/></svg>