<svg width="60" height="60" viewBox="0 0 60 60" fill="none" xmlns="http://www.w3.org/2000/svg">
<path d="M58.125 28.1016V28.0547C58.1288 27.999 58.1208 27.9431 58.1016 27.8906V27.8203C58.1016 27.7734 58.0781 27.7266 58.0781 27.6797V27.6328L58.0312 27.4453H58.0078L54.7266 19.2891C54.4651 18.5752 53.989 17.9599 53.3637 17.5276C52.7384 17.0954 51.9945 16.8674 51.2344 16.875H43.125V15C43.125 14.5027 42.9275 14.0258 42.5758 13.6742C42.2242 13.3225 41.7473 13.125 41.25 13.125H5.625C4.63044 13.125 3.67661 13.5201 2.97335 14.2233C2.27009 14.9266 1.875 15.8804 1.875 16.875V43.125C1.875 44.1196 2.27009 45.0734 2.97335 45.7766C3.67661 46.4799 4.63044 46.875 5.625 46.875H8.67188C9.08494 48.4883 10.0232 49.9182 11.3387 50.9393C12.6542 51.9604 14.2722 52.5147 15.9375 52.5147C17.6028 52.5147 19.2208 51.9604 20.5363 50.9393C21.8518 49.9182 22.7901 48.4883 23.2031 46.875H36.7969C37.2099 48.4883 38.1482 49.9182 39.4637 50.9393C40.7792 51.9604 42.3972 52.5147 44.0625 52.5147C45.7278 52.5147 47.3458 51.9604 48.6613 50.9393C49.9768 49.9182 50.9151 48.4883 51.3281 46.875H54.375C55.3696 46.875 56.3234 46.4799 57.0266 45.7766C57.7299 45.0734 58.125 44.1196 58.125 43.125V28.125V28.1016ZM43.125 20.625H51.2344L53.4844 26.25H43.125V20.625ZM5.625 16.875H39.375V31.875H5.625V16.875ZM15.9375 48.75C15.1958 48.75 14.4708 48.5301 13.8541 48.118C13.2374 47.706 12.7568 47.1203 12.473 46.4351C12.1891 45.7498 12.1149 44.9958 12.2596 44.2684C12.4042 43.541 12.7614 42.8728 13.2858 42.3484C13.8103 41.8239 14.4785 41.4667 15.2059 41.3221C15.9333 41.1774 16.6873 41.2516 17.3726 41.5355C18.0578 41.8193 18.6435 42.2999 19.0555 42.9166C19.4676 43.5333 19.6875 44.2583 19.6875 45C19.6875 45.9946 19.2924 46.9484 18.5891 47.6516C17.8859 48.3549 16.9321 48.75 15.9375 48.75ZM44.0625 48.75C43.3208 48.75 42.5958 48.5301 41.9791 48.118C41.3624 47.706 40.8818 47.1203 40.5979 46.4351C40.3141 45.7498 40.2399 44.9958 40.3846 44.2684C40.5293 43.541 40.8864 42.8728 41.4109 42.3484C41.9353 41.8239 42.6035 41.4667 43.3309 41.3221C44.0583 41.1774 44.8123 41.2516 45.4976 41.5355C46.1828 41.8193 46.7685 42.2999 47.1805 42.9166C47.5926 43.5333 47.8125 44.2583 47.8125 45C47.8125 45.9946 47.4174 46.9484 46.7141 47.6516C46.0109 48.3549 45.0571 48.75 44.0625 48.75Z" fill="#00A0E3"/>
</svg>
