<svg width="60" height="60" fill="none" xmlns="http://www.w3.org/2000/svg"><path d="M30 44.04a21.5 21.5 0 01-1.875 1.077v9.258a1.875 1.875 0 103.75 0v-9.258A21.5 21.5 0 0130 44.04z" fill="#00A0E3"/><path d="M46.43 14.672a17.812 17.812 0 00-32.86 0 16.945 16.945 0 00-9.82 15.281c-.023 9.094 7.36 16.688 16.43 16.922 2.752.072 5.48-.532 7.945-1.758v-8.344l-10.219-5.086a1.887 1.887 0 011.688-3.375l8.531 4.29V20.625a1.875 1.875 0 113.75 0v6.352l8.531-4.29a1.887 1.887 0 111.688 3.375l-10.219 5.086v13.97a16.876 16.876 0 007.5 1.757h.445c9.07-.234 16.453-7.828 16.43-16.922a16.947 16.947 0 00-9.82-15.281z" fill="#00A0E3"/></svg>