<svg width="60" height="60" fill="none" xmlns="http://www.w3.org/2000/svg"><path d="M58.125 30.938a13.125 13.125 0 00-7.5-11.86v-2.203A11.25 11.25 0 0030 10.665a11.25 11.25 0 00-20.625 6.21v2.203a13.125 13.125 0 000 23.719v.328A11.25 11.25 0 0030 49.335a11.25 11.25 0 0020.625-6.21v-.328a13.148 13.148 0 007.5-11.86zm-37.5 19.687a7.5 7.5 0 01-7.453-6.703 11.56 11.56 0 001.828.14h1.875a1.875 1.875 0 000-3.75H15a9.375 9.375 0 01-3.117-18.21 1.9 1.9 0 001.242-1.782v-3.445a7.5 7.5 0 0115 0v17.883a11.11 11.11 0 00-7.5-2.883 1.875 1.875 0 100 3.75 7.5 7.5 0 010 15zM45 40.312h-1.875a1.875 1.875 0 100 3.75H45a11.56 11.56 0 001.828-.14 7.5 7.5 0 11-7.453-8.297 1.875 1.875 0 000-3.75 11.11 11.11 0 00-7.5 2.883V16.875a7.5 7.5 0 0115 0v3.445a1.898 1.898 0 001.242 1.782A9.375 9.375 0 0145 40.312zM14.062 30a1.875 1.875 0 010-3.75 4.711 4.711 0 004.688-4.688v-1.875a1.875 1.875 0 113.75 0v1.875A8.437 8.437 0 0114.062 30zm33.75-1.875A1.875 1.875 0 0145.937 30a8.438 8.438 0 01-8.437-8.438v-1.875a1.875 1.875 0 113.75 0v1.875a4.711 4.711 0 004.687 4.688 1.875 1.875 0 011.875 1.875z" fill="#00A0E3"/></svg>