<svg width="60" height="60" viewBox="0 0 60 60" fill="none" xmlns="http://www.w3.org/2000/svg">
<path d="M58.1248 30.9375C58.125 28.4536 57.4203 26.0207 56.0927 23.9214C54.7651 21.8221 52.869 20.1426 50.6248 19.0781V16.875C50.6231 14.4589 49.8437 12.1075 48.4018 10.1689C46.9599 8.23018 44.9322 6.80722 42.6187 6.11055C40.3052 5.41388 37.8289 5.48052 35.5563 6.3006C33.2836 7.12069 31.3354 8.65064 29.9998 10.6641C28.6643 8.65064 26.716 7.12069 24.4433 6.3006C22.1707 5.48052 19.6944 5.41388 17.3809 6.11055C15.0674 6.80722 13.0397 8.23018 11.5978 10.1689C10.1559 12.1075 9.37646 14.4589 9.3748 16.875V19.0781C7.13028 20.1424 5.23386 21.8217 3.90592 23.9211C2.57798 26.0204 1.87305 28.4534 1.87305 30.9375C1.87305 33.4215 2.57798 35.8546 3.90592 37.9539C5.23386 40.0532 7.13028 41.7326 9.3748 42.7969V43.125C9.37646 45.5411 10.1559 47.8925 11.5978 49.8311C13.0397 51.7698 15.0674 53.1928 17.3809 53.8894C19.6944 54.5861 22.1707 54.5195 24.4433 53.6994C26.716 52.8793 28.6643 51.3493 29.9998 49.3359C31.3354 51.3493 33.2836 52.8793 35.5563 53.6994C37.8289 54.5195 40.3052 54.5861 42.6187 53.8894C44.9322 53.1928 46.9599 51.7698 48.4018 49.8311C49.8437 47.8925 50.6231 45.5411 50.6248 43.125V42.7969C52.8673 41.7301 54.7618 40.0501 56.0891 37.9513C57.4164 35.8525 58.1222 33.4208 58.1248 30.9375ZM20.6248 50.625C18.7744 50.6239 16.9897 49.9388 15.6139 48.7014C14.2381 47.4641 13.3683 45.7618 13.1717 43.9219C13.7764 44.0171 14.3877 44.0641 14.9998 44.0625H16.8748C17.3721 44.0625 17.849 43.8649 18.2006 43.5133C18.5523 43.1617 18.7498 42.6848 18.7498 42.1875C18.7498 41.6902 18.5523 41.2133 18.2006 40.8617C17.849 40.51 17.3721 40.3125 16.8748 40.3125H14.9998C12.7904 40.3087 10.6533 39.5248 8.96558 38.0989C7.27785 36.6731 6.14792 34.697 5.77516 32.5192C5.40239 30.3415 5.81074 28.1021 6.92815 26.1961C8.04557 24.2901 9.80025 22.8399 11.8826 22.1016C12.247 21.9673 12.5614 21.7246 12.7836 21.4061C13.0057 21.0876 13.1248 20.7086 13.1248 20.3203V16.875C13.1248 14.8859 13.915 12.9782 15.3215 11.5717C16.728 10.1652 18.6357 9.37499 20.6248 9.37499C22.6139 9.37499 24.5216 10.1652 25.9281 11.5717C27.3346 12.9782 28.1248 14.8859 28.1248 16.875V34.7578C26.072 32.8948 23.3969 31.8665 20.6248 31.875C20.1275 31.875 19.6506 32.0725 19.299 32.4242C18.9473 32.7758 18.7498 33.2527 18.7498 33.75C18.7498 34.2473 18.9473 34.7242 19.299 35.0758C19.6506 35.4274 20.1275 35.625 20.6248 35.625C22.6139 35.625 24.5216 36.4152 25.9281 37.8217C27.3346 39.2282 28.1248 41.1359 28.1248 43.125C28.1248 45.1141 27.3346 47.0218 25.9281 48.4283C24.5216 49.8348 22.6139 50.625 20.6248 50.625ZM44.9998 40.3125H43.1248C42.6275 40.3125 42.1506 40.51 41.799 40.8617C41.4473 41.2133 41.2498 41.6902 41.2498 42.1875C41.2498 42.6848 41.4473 43.1617 41.799 43.5133C42.1506 43.8649 42.6275 44.0625 43.1248 44.0625H44.9998C45.6119 44.0641 46.2232 44.0171 46.8279 43.9219C46.6739 45.3632 46.1055 46.7291 45.1915 47.8541C44.2774 48.9792 43.057 49.8153 41.6777 50.2613C40.2984 50.7072 38.8195 50.7439 37.4198 50.3669C36.0201 49.9899 34.7597 49.2154 33.791 48.137C32.8223 47.0586 32.1868 45.7227 31.9615 44.2907C31.7362 42.8588 31.9307 41.3922 32.5215 40.0685C33.1122 38.7447 34.0739 37.6206 35.2902 36.832C36.5065 36.0434 37.9252 35.6241 39.3748 35.625C39.8721 35.625 40.349 35.4274 40.7006 35.0758C41.0523 34.7242 41.2498 34.2473 41.2498 33.75C41.2498 33.2527 41.0523 32.7758 40.7006 32.4242C40.349 32.0725 39.8721 31.875 39.3748 31.875C36.6027 31.8665 33.9276 32.8948 31.8748 34.7578V16.875C31.8748 14.8859 32.665 12.9782 34.0715 11.5717C35.478 10.1652 37.3857 9.37499 39.3748 9.37499C41.3639 9.37499 43.2716 10.1652 44.6781 11.5717C46.0846 12.9782 46.8748 14.8859 46.8748 16.875V20.3203C46.8748 20.7086 46.9939 21.0876 47.2161 21.4061C47.4382 21.7246 47.7526 21.9673 48.117 22.1016C50.1994 22.8399 51.954 24.2901 53.0715 26.1961C54.1889 28.1021 54.5972 30.3415 54.2245 32.5192C53.8517 34.697 52.7218 36.6731 51.034 38.0989C49.3463 39.5248 47.2092 40.3087 44.9998 40.3125ZM14.0623 30C13.565 30 13.0881 29.8024 12.7365 29.4508C12.3848 29.0992 12.1873 28.6223 12.1873 28.125C12.1873 27.6277 12.3848 27.1508 12.7365 26.7992C13.0881 26.4475 13.565 26.25 14.0623 26.25C15.3036 26.2438 16.4923 25.748 17.3701 24.8702C18.2478 23.9925 18.7436 22.8038 18.7498 21.5625V19.6875C18.7498 19.1902 18.9473 18.7133 19.299 18.3617C19.6506 18.01 20.1275 17.8125 20.6248 17.8125C21.1221 17.8125 21.599 18.01 21.9506 18.3617C22.3023 18.7133 22.4998 19.1902 22.4998 19.6875V21.5625C22.4998 23.8003 21.6109 25.9464 20.0285 27.5287C18.4462 29.111 16.3001 30 14.0623 30ZM47.8123 28.125C47.8123 28.6223 47.6148 29.0992 47.2631 29.4508C46.9115 29.8024 46.4346 30 45.9373 30C43.6995 30 41.5534 29.111 39.9711 27.5287C38.3888 25.9464 37.4998 23.8003 37.4998 21.5625V19.6875C37.4998 19.1902 37.6973 18.7133 38.049 18.3617C38.4006 18.01 38.8775 17.8125 39.3748 17.8125C39.8721 17.8125 40.349 18.01 40.7006 18.3617C41.0523 18.7133 41.2498 19.1902 41.2498 19.6875V21.5625C41.256 22.8038 41.7518 23.9925 42.6295 24.8702C43.5073 25.748 44.696 26.2438 45.9373 26.25C46.4346 26.25 46.9115 26.4475 47.2631 26.7992C47.6148 27.1508 47.8123 27.6277 47.8123 28.125Z" fill="#00A0E3"/>
</svg>
