<svg width="60" height="60" fill="none" xmlns="http://www.w3.org/2000/svg"><path d="M30 35.625c7.249 0 13.125-5.876 13.125-13.125S37.249 9.375 30 9.375 16.875 15.251 16.875 22.5 22.751 35.625 30 35.625z" fill="#00A0E3"/><path d="M30 1.875a20.602 20.602 0 00-13.125 36.516V56.25a1.851 1.851 0 00.89 1.594 1.875 1.875 0 001.829.093L30 52.712l10.406 5.227c.266.117.553.18.844.187a1.875 1.875 0 001.875-1.875V38.39A20.602 20.602 0 0030 1.876zm0 37.5A16.875 16.875 0 1146.875 22.5 16.899 16.899 0 0130 39.375z" fill="#00A0E3"/></svg>