<svg width="60" height="60" viewBox="0 0 60 60" fill="none" xmlns="http://www.w3.org/2000/svg">
<path d="M30 35.625C37.2487 35.625 43.125 29.7487 43.125 22.5C43.125 15.2513 37.2487 9.375 30 9.375C22.7513 9.375 16.875 15.2513 16.875 22.5C16.875 29.7487 22.7513 35.625 30 35.625Z" fill="#00A0E3"/>
<path d="M30 1.87501C25.7509 1.86636 21.6031 3.17177 18.1248 5.61239C14.6465 8.053 12.008 11.5094 10.5708 15.5081C9.13352 19.5067 8.96784 23.852 10.0964 27.9485C11.225 32.0449 13.5927 35.6922 16.875 38.3906V56.25C16.8731 56.57 16.9541 56.885 17.1102 57.1643C17.2663 57.4436 17.4921 57.6777 17.7656 57.8438C18.0369 58.0143 18.3474 58.1125 18.6675 58.1289C18.9875 58.1453 19.3064 58.0794 19.5937 57.9375L30 52.7109L40.4062 57.9375C40.6723 58.0551 40.9591 58.1188 41.25 58.125C41.7473 58.125 42.2242 57.9275 42.5758 57.5758C42.9274 57.2242 43.125 56.7473 43.125 56.25V38.3906C46.4073 35.6922 48.7749 32.0449 49.9035 27.9485C51.0321 23.852 50.8664 19.5067 49.4292 15.5081C47.9919 11.5094 45.3534 8.053 41.8752 5.61239C38.3969 3.17177 34.2491 1.86636 30 1.87501ZM30 39.375C26.6624 39.375 23.3998 38.3853 20.6247 36.5311C17.8497 34.6768 15.6867 32.0413 14.4095 28.9578C13.1323 25.8743 12.7981 22.4813 13.4492 19.2079C14.1004 15.9344 15.7075 12.9276 18.0676 10.5676C20.4276 8.20757 23.4344 6.60039 26.7078 5.94926C29.9813 5.29813 33.3743 5.63232 36.4578 6.90954C39.5413 8.18677 42.1768 10.3497 44.031 13.1248C45.8853 15.8998 46.875 19.1625 46.875 22.5C46.8688 26.9736 45.0889 31.2623 41.9256 34.4256C38.7622 37.5889 34.4736 39.3688 30 39.375Z" fill="#00A0E3"/>
</svg>
