<svg width="60" height="60" fill="none" xmlns="http://www.w3.org/2000/svg"><path d="M30 45.938c8.802 0 15.938-7.136 15.938-15.938S38.801 14.062 30 14.062 14.062 21.198 14.062 30 21.198 45.938 30 45.938zm0-35.625a1.875 1.875 0 001.875-1.876V6.563a1.875 1.875 0 10-3.75 0v1.875A1.875 1.875 0 0030 10.312zm-16.57 5.765a1.898 1.898 0 002.648 0 1.875 1.875 0 000-2.648l-1.336-1.336a1.875 1.875 0 00-2.648 2.648l1.336 1.336zM8.438 28.125H6.562a1.875 1.875 0 100 3.75h1.875a1.875 1.875 0 100-3.75zm4.992 15.797l-1.336 1.336a1.875 1.875 0 000 2.648c.36.344.838.537 1.335.54a1.88 1.88 0 001.313-.54l1.336-1.336a1.875 1.875 0 00-2.649-2.648zM30 49.688a1.875 1.875 0 00-1.875 1.874v1.876a1.875 1.875 0 103.75 0v-1.876A1.875 1.875 0 0030 49.688zm16.57-5.766a1.875 1.875 0 00-2.648 2.648l1.336 1.336c.35.345.821.538 1.313.54a1.945 1.945 0 001.335-.54 1.875 1.875 0 000-2.648l-1.335-1.336zm6.868-15.797h-1.876a1.875 1.875 0 100 3.75h1.876a1.875 1.875 0 100-3.75zm-8.18-11.508a1.829 1.829 0 001.312-.539l1.336-1.336a1.876 1.876 0 10-2.648-2.648l-1.336 1.336a1.875 1.875 0 00.612 3.055c.23.093.476.137.724.132z" fill="#00A0E3"/></svg>