<svg width="726" height="463" viewBox="0 0 726 463" fill="none" xmlns="http://www.w3.org/2000/svg">
<path d="M380.302 229.898C380.302 229.898 379.747 244.3 395.265 248.045C410.806 251.79 417.213 234.914 417.213 234.914C417.213 234.914 411.708 225.667 403.059 228.511C394.455 231.354 380.302 229.898 380.302 229.898Z" fill="#80AA74"/>
<path d="M438.675 246.959C437.657 245.132 436.061 243.144 434.373 241.572C432.638 239.977 430.673 238.659 428.522 237.688C426.371 236.671 424.012 236.255 421.653 236.024C419.271 235.978 416.82 236.116 414.437 236.787C412.078 237.295 409.511 238.289 406.967 238.706C404.423 239.26 401.787 239.492 399.197 239.468C394.039 239.376 388.581 237.827 385.112 233.966C388.859 237.55 394.247 238.59 399.197 238.313C401.694 238.128 404.192 237.735 406.597 237.018C409.072 236.417 411.246 235.353 413.836 234.567C416.334 233.666 419.04 233.273 421.746 233.134C424.451 233.18 427.25 233.481 429.84 234.452C432.43 235.4 434.882 236.764 437.056 238.497C439.23 240.278 441.08 242.15 442.745 244.693C443.439 245.757 443.138 247.19 442.074 247.906C441.01 248.6 439.577 248.299 438.86 247.236C438.836 247.19 438.79 247.144 438.767 247.074L438.675 246.959Z" fill="#417335"/>
<path d="M492.931 153.216C492.931 153.216 487.82 141.818 472.278 145.818C456.76 149.817 448.619 146.419 448.619 146.419C448.619 146.419 450.122 156.36 467.514 162.902C484.905 169.467 492.931 153.216 492.931 153.216Z" fill="#80AA74"/>
<path d="M521.886 149.285C519.527 148.777 516.52 148.708 513.768 148.892C510.97 149.077 508.148 149.54 505.373 150.233C502.621 150.95 499.869 151.805 497.209 152.938C494.457 154.048 491.566 155.157 488.629 155.782C485.692 156.498 482.708 156.891 479.702 157.053C476.718 157.238 473.712 157.122 470.752 156.753C464.854 156.036 458.957 154.418 454.031 151.158C459.165 154.094 465.062 155.296 470.867 155.62C473.781 155.782 476.695 155.689 479.563 155.342C482.431 155.019 485.275 154.441 488.028 153.562C490.826 152.776 493.37 151.597 496.029 150.326C498.712 148.962 501.557 147.875 504.425 146.927C507.316 146.003 510.299 145.286 513.352 144.893C516.451 144.523 519.411 144.292 522.857 144.801C524.129 144.986 525.008 146.165 524.823 147.413C524.638 148.684 523.458 149.563 522.209 149.378C522.163 149.378 522.117 149.355 522.047 149.355L521.886 149.285Z" fill="#417335"/>
<path d="M509.767 286.051C509.767 286.051 522.973 272.689 533.496 273.706C544.018 274.723 547.672 289.241 560.6 295.275C560.6 295.275 547.742 308.013 532.108 294.189C516.451 280.387 509.767 286.051 509.767 286.051Z" fill="#80AA74"/>
<path d="M586.202 291.299C579.773 294.42 573.136 296.2 566.197 296.778C562.728 296.986 559.259 296.893 555.813 296.246C552.414 295.529 549.037 294.558 546.031 292.801C540.087 289.565 534.721 285.566 528.616 283.138C525.586 281.89 522.256 281.705 519.041 282.491C515.827 283.277 512.774 284.641 509.744 286.028C512.681 284.456 515.665 282.93 518.903 281.913C522.117 280.919 525.748 280.896 528.986 282.029C535.461 284.202 541.151 287.947 547.071 290.721C549.939 292.177 553.108 292.894 556.253 293.379C559.421 293.772 562.659 293.68 565.827 293.31C572.141 292.432 578.478 290.282 583.913 287.253L584.051 287.184C585.162 286.56 586.572 286.953 587.197 288.085C587.821 289.195 587.428 290.605 586.295 291.229C586.272 291.253 586.225 291.276 586.202 291.299Z" fill="#417335"/>
<path d="M645.552 137.874C645.552 137.874 659.729 125.529 670.136 127.332C680.567 129.112 683.111 143.861 695.553 150.843C695.553 150.843 681.769 162.587 667.199 147.653C652.652 132.718 645.552 137.874 645.552 137.874Z" fill="#80AA74"/>
<path d="M721.386 148.785C714.749 151.421 707.996 152.692 701.034 152.785C697.565 152.739 694.096 152.369 690.72 151.49C687.389 150.519 684.082 149.294 681.238 147.329C675.548 143.653 670.484 139.284 664.586 136.394C661.649 134.938 658.342 134.498 655.081 135.03C651.82 135.585 648.651 136.718 645.529 137.874C648.582 136.533 651.658 135.215 654.965 134.452C658.249 133.712 661.88 133.944 665.026 135.308C671.316 137.943 676.705 142.104 682.417 145.318C685.169 146.982 688.291 147.93 691.39 148.647C694.536 149.271 697.75 149.41 700.942 149.294C707.302 148.901 713.8 147.213 719.42 144.578L719.559 144.509C720.715 143.977 722.103 144.462 722.635 145.641C723.167 146.797 722.681 148.184 721.502 148.716C721.479 148.739 721.432 148.762 721.386 148.785Z" fill="#417335"/>
<path d="M601.371 186.693C601.371 186.693 597.925 192.958 607.823 195.224C617.722 197.489 620.89 198.83 623.503 203.13C626.117 207.43 646.538 216.885 635.807 227.196C635.807 227.196 630.996 242.985 622.116 232.906C613.235 222.849 607.522 216.122 603.753 208.17C599.96 200.24 593.692 194.183 601.371 186.693Z" fill="#80AA74"/>
<path d="M603.128 196.634C607.592 200.148 611.778 204.031 615.524 208.354C616.45 209.441 617.352 210.574 618.207 211.73C619.04 212.932 619.872 214.065 620.682 215.151C622.416 217.301 624.313 219.336 626.464 221.092C630.673 224.699 635.529 227.519 640.571 229.762C645.613 231.912 651.025 233.692 656.159 233.877H656.228C657.5 233.923 658.495 234.986 658.448 236.281C658.402 237.552 657.338 238.546 656.043 238.5C655.997 238.5 655.928 238.5 655.881 238.477C649.66 237.784 644.248 235.495 639.045 232.883C633.911 230.155 629.054 226.872 624.891 222.803C622.787 220.815 620.913 218.549 619.271 216.168C618.462 214.943 617.698 213.718 617.005 212.539C616.241 211.36 615.455 210.204 614.599 209.071C611.246 204.586 607.338 200.425 603.128 196.634Z" fill="#417335"/>
<path d="M630.435 323.246C630.435 323.246 645.814 308.127 661.263 311.225C676.712 314.323 680.782 330.69 680.644 336.377C680.644 336.377 672.04 350.641 659.737 340.377C647.433 330.089 639.963 323.131 630.435 323.246Z" fill="#80AA74"/>
<path d="M639.084 321.351C646.577 319.432 654.602 320.495 661.887 323.085C669.172 325.836 675.81 330.228 681.476 335.568C686.934 340.677 693.71 344.469 700.926 345.255C708.049 346.133 715.611 343.729 721.162 339.706L721.324 339.591C722.365 338.851 723.799 339.059 724.562 340.099C725.302 341.14 725.094 342.573 724.053 343.336C724.03 343.359 724.007 343.359 724.007 343.382C722.133 344.654 720.399 345.555 718.479 346.364C717.554 346.78 716.56 347.081 715.612 347.451C714.617 347.728 713.646 348.029 712.651 348.26C708.673 349.185 704.51 349.416 700.486 348.722C692.392 347.428 685.315 342.85 679.88 337.256C674.63 331.8 668.432 327.246 661.471 324.194C654.51 321.304 646.67 319.825 639.084 321.351Z" fill="#417335"/>
<path d="M65.519 33.1411C65.519 33.1411 63.7151 40.9318 54.2792 49.9941C44.8434 59.0563 49.5613 69.39 56.2681 76.834C62.975 84.2779 56.4532 70.1297 56.4532 70.1297C56.4532 70.1297 62.4431 74.291 64.802 73.7593C67.161 73.2044 60.9861 63.2406 60.9861 63.2406C60.9861 63.2406 67.878 68.4884 69.52 67.9566C71.162 67.4018 66.6291 57.2531 66.6291 57.2531C66.6291 57.2531 72.619 62.1541 74.076 61.7842C75.533 61.4143 71.9021 51.4505 71.9021 51.4505C71.9021 51.4505 79.349 56.6982 80.0659 56.1665C80.7829 55.6117 76.62 41.3017 76.62 41.3017L65.519 33.1411Z" fill="#457EA3"/>
<path d="M77.314 24.0789C73.5211 23.8014 70.7921 17.5596 62.2582 17.5596C53.7243 17.5596 53.7244 26.8068 63.1602 33.326C63.1602 33.326 72.041 45.3011 86.3798 49.2774C100.719 53.2768 115.034 50.5489 115.034 50.5489C115.034 50.5489 139.526 60.5127 146.765 61.0675C154.026 61.6223 149.655 56.5364 149.655 56.5364C149.655 56.5364 153.471 53.0918 149.47 50.9188C149.47 50.9188 154.188 46.5726 150.557 44.0296C150.557 44.0296 153.448 41.4866 152.014 39.4985C150.557 37.5104 129.165 40.77 117 40.0533C117.046 40.0302 102.337 25.9052 77.314 24.0789Z" fill="#65A4C5"/>
<path opacity="0.3" d="M146.788 61.0675C147.25 61.1138 147.666 61.1138 148.06 61.1138C150.927 59.3337 147.343 54.9413 147.343 54.9413C150.095 51.9128 147.343 50.572 147.343 50.572C150.812 46.6188 147.343 44.7 147.343 44.7C147.343 44.7 149.933 41.3711 147.343 41.0937C145.377 40.8856 128.795 42.3883 120.885 43.1511C118.781 43.3592 116.977 44.9081 116.676 46.9887C116.676 47.0118 116.676 47.0581 116.653 47.0812C116.306 49.3236 117.439 51.543 119.567 52.3752C126.991 55.2418 141.492 60.6745 146.788 61.0675Z" fill="#457EA3"/>
<path opacity="0.3" d="M99.6311 44.8156C87.3507 44.2377 66.2356 28.3557 64.8018 35.2679C67.9933 38.8281 75.6484 46.2952 86.3794 49.2774C92.7393 51.0575 99.1224 51.4967 104.233 51.4505C108.419 51.4042 108.466 45.1393 104.303 45.0006C102.892 44.9544 101.343 44.9081 99.6311 44.8156Z" fill="#457EA3"/>
<path d="M59.5752 21.8365C59.9452 20.7037 59.2283 19.5015 58.0951 19.1317C55.5048 18.3225 50.8794 16.8892 50.0468 16.843C49.1911 16.7967 53.5622 20.6112 56.0599 22.7381C57.2162 23.709 59.0433 23.316 59.5521 21.8827C59.5521 21.8827 59.5752 21.8596 59.5752 21.8365Z" fill="#FFAB2F"/>
<path opacity="0.5" d="M59.5522 21.9058C59.5522 21.8827 59.5753 21.8596 59.5753 21.8364C59.6678 21.5821 59.6678 21.3279 59.6447 21.0967C57.6789 19.5478 53.2385 18.4844 51.3652 18.6C52.6835 19.8714 54.6493 21.5822 56.0369 22.7612C57.2164 23.7321 59.0434 23.3391 59.5522 21.9058Z" fill="#F88F00"/>
<path d="M77.6842 27.5466C76.3891 26.7143 76.5279 24.7724 77.9155 24.1482C82.5872 22.0214 91.3986 17.4903 99.0768 10.3237C110.132 -0.00996554 130.992 0.521746 135.363 1.07658C139.711 1.63141 120.122 7.78075 120.862 7.59581C121.579 7.41086 129.928 6.5093 131.57 7.4109C133.212 8.31249 112.167 15.5715 112.167 15.5715C112.167 15.5715 126.135 15.2016 127.407 16.843C128.679 18.4843 109.091 22.6456 109.091 22.6456C109.091 22.6456 119.799 24.102 121.232 25.3735C122.689 26.645 104.535 27.7315 104.535 27.7315C104.535 27.7315 113.971 29.9046 114.503 31.1761C115.058 32.4476 99.4468 32.2626 99.4468 32.2626C99.4468 32.2626 103.078 35.7072 103.078 36.9787C103.078 37.3486 101.713 37.2561 99.8169 36.9556C92.8556 35.7997 86.2412 33.118 80.3207 29.2804L77.6842 27.5466Z" fill="#457EA3"/>
<path d="M194.152 155.181C194.152 155.181 177.2 151.621 173.985 152.199C170.77 152.776 168.874 168.52 171.163 169.999C173.453 171.479 180.715 173.305 181.316 172.565C181.64 172.149 181.016 170.762 180.368 169.56C179.882 168.635 180.46 167.503 181.501 167.364L186.173 166.74C187.607 166.555 188.671 168.057 188.023 169.329C186.982 171.34 185.965 173.652 186.52 173.976C187.537 174.577 198.291 164.474 198.291 164.474L194.152 155.181Z" fill="#FFAD91"/>
<path opacity="0.4" d="M181.363 167.387C179.235 165.931 173.315 161.122 173.569 152.383C170.609 154.14 168.99 168.566 171.164 169.976C173.245 171.317 179.397 172.935 180.947 172.658L181.247 171.502C181.062 170.924 180.738 170.207 180.368 169.537C179.883 168.635 180.391 167.595 181.363 167.387Z" fill="#D23D1E"/>
<path opacity="0.4" d="M194.152 155.181C194.152 155.181 190.567 154.441 186.404 153.678C189.55 160.244 193.736 164.035 196.58 166.023C197.598 165.098 198.268 164.474 198.268 164.474L194.152 155.181Z" fill="#D23D1E"/>
<path d="M279.398 88.6012C279.398 88.6012 238.602 126.884 237.33 126.792C236.058 126.7 191.862 152.314 191.862 152.314C191.862 152.314 191.723 160.452 199.771 167.849C199.771 167.849 252.64 153.1 253.981 152.337C255.323 151.574 300.166 116.574 312.47 99.8827C324.773 83.1916 307.012 61.4145 279.398 88.6012Z" fill="#F88F00"/>
<path opacity="0.3" d="M309.001 104.136L278.635 93.6871L243.898 133.565L194.221 160.637C195.401 162.925 197.135 165.422 199.795 167.872C199.795 167.872 252.663 153.123 254.005 152.36C255.207 151.644 293.39 121.868 309.001 104.136Z" fill="#F88F00"/>
<path d="M111.126 369.091C110.455 378.592 102.222 385.759 92.7164 385.088C83.2112 384.418 76.0417 376.188 76.7124 366.686C77.3831 357.185 85.6164 350.019 95.1216 350.689C104.627 351.359 111.773 359.589 111.126 369.091Z" fill="#0C1A3C"/>
<path d="M90.936 367.496L107.981 282.329" stroke="#65A4C5" stroke-width="0.75" stroke-miterlimit="10" stroke-linecap="round" stroke-linejoin="round"/>
<path d="M96.9723 367.912L91.8843 281.22" stroke="#65A4C5" stroke-width="0.75" stroke-miterlimit="10" stroke-linecap="round" stroke-linejoin="round"/>
<path d="M92.0923 365.507L164.387 317.353" stroke="#65A4C5" stroke-width="0.75" stroke-miterlimit="10" stroke-linecap="round" stroke-linejoin="round"/>
<path d="M96.0698 370.062L153.795 305.17" stroke="#65A4C5" stroke-width="0.75" stroke-miterlimit="10" stroke-linecap="round" stroke-linejoin="round"/>
<path d="M94.3125 364.929L179.513 381.967" stroke="#65A4C5" stroke-width="0.75" stroke-miterlimit="10" stroke-linecap="round" stroke-linejoin="round"/>
<path d="M93.896 370.963L180.623 365.877" stroke="#65A4C5" stroke-width="0.75" stroke-miterlimit="10" stroke-linecap="round" stroke-linejoin="round"/>
<path d="M96.3013 366.085L144.475 438.352" stroke="#65A4C5" stroke-width="0.75" stroke-miterlimit="10" stroke-linecap="round" stroke-linejoin="round"/>
<path d="M91.7451 370.039L156.663 427.741" stroke="#65A4C5" stroke-width="0.75" stroke-miterlimit="10" stroke-linecap="round" stroke-linejoin="round"/>
<path d="M96.8791 368.282L79.8345 453.448" stroke="#65A4C5" stroke-width="0.75" stroke-miterlimit="10" stroke-linecap="round" stroke-linejoin="round"/>
<path d="M90.8428 367.866L95.9307 454.581" stroke="#65A4C5" stroke-width="0.75" stroke-miterlimit="10" stroke-linecap="round" stroke-linejoin="round"/>
<path d="M95.7229 370.27L23.4277 418.448" stroke="#65A4C5" stroke-width="0.75" stroke-miterlimit="10" stroke-linecap="round" stroke-linejoin="round"/>
<path d="M91.7683 365.716L34.02 430.607" stroke="#65A4C5" stroke-width="0.75" stroke-miterlimit="10" stroke-linecap="round" stroke-linejoin="round"/>
<path d="M93.5027 370.871L8.32568 353.833" stroke="#65A4C5" stroke-width="0.75" stroke-miterlimit="10" stroke-linecap="round" stroke-linejoin="round"/>
<path d="M93.9421 364.837L7.19238 369.923" stroke="#65A4C5" stroke-width="0.75" stroke-miterlimit="10" stroke-linecap="round" stroke-linejoin="round"/>
<path d="M91.5367 369.715L43.3398 297.448" stroke="#65A4C5" stroke-width="0.75" stroke-miterlimit="10" stroke-linecap="round" stroke-linejoin="round"/>
<path d="M96.0927 365.739L31.1519 308.036" stroke="#65A4C5" stroke-width="0.75" stroke-miterlimit="10" stroke-linecap="round" stroke-linejoin="round"/>
<g opacity="0.4">
<path d="M91.0281 368.744L71.9482 284.017" stroke="#65A4C5" stroke-width="0.75" stroke-miterlimit="10" stroke-linecap="round" stroke-linejoin="round"/>
<path d="M96.7172 366.663L56.7998 289.542" stroke="#65A4C5" stroke-width="0.75" stroke-miterlimit="10" stroke-linecap="round" stroke-linejoin="round"/>
<path d="M91.2827 366.455L137.722 293.056" stroke="#65A4C5" stroke-width="0.75" stroke-miterlimit="10" stroke-linecap="round" stroke-linejoin="round"/>
<path d="M96.7637 368.998L123.105 286.236" stroke="#65A4C5" stroke-width="0.75" stroke-miterlimit="10" stroke-linecap="round" stroke-linejoin="round"/>
<path d="M93.063 365.022L177.824 345.95" stroke="#65A4C5" stroke-width="0.75" stroke-miterlimit="10" stroke-linecap="round" stroke-linejoin="round"/>
<path d="M95.1445 370.686L172.297 330.784" stroke="#65A4C5" stroke-width="0.75" stroke-miterlimit="10" stroke-linecap="round" stroke-linejoin="round"/>
<path d="M95.353 365.276L168.782 411.697" stroke="#65A4C5" stroke-width="0.75" stroke-miterlimit="10" stroke-linecap="round" stroke-linejoin="round"/>
<path d="M92.7856 370.732L175.604 397.063" stroke="#65A4C5" stroke-width="0.75" stroke-miterlimit="10" stroke-linecap="round" stroke-linejoin="round"/>
<path d="M96.7866 367.056L115.866 451.783" stroke="#65A4C5" stroke-width="0.75" stroke-miterlimit="10" stroke-linecap="round" stroke-linejoin="round"/>
<path d="M91.0977 369.114L131.038 446.258" stroke="#65A4C5" stroke-width="0.75" stroke-miterlimit="10" stroke-linecap="round" stroke-linejoin="round"/>
<path d="M96.5324 369.322L50.0933 442.721" stroke="#65A4C5" stroke-width="0.75" stroke-miterlimit="10" stroke-linecap="round" stroke-linejoin="round"/>
<path d="M91.0515 366.779L64.7329 449.541" stroke="#65A4C5" stroke-width="0.75" stroke-miterlimit="10" stroke-linecap="round" stroke-linejoin="round"/>
<path d="M94.7515 370.755L9.99072 389.851" stroke="#65A4C5" stroke-width="0.75" stroke-miterlimit="10" stroke-linecap="round" stroke-linejoin="round"/>
<path d="M92.6931 365.091L15.5181 404.993" stroke="#65A4C5" stroke-width="0.75" stroke-miterlimit="10" stroke-linecap="round" stroke-linejoin="round"/>
<path d="M92.4851 370.524L19.0566 324.103" stroke="#65A4C5" stroke-width="0.75" stroke-miterlimit="10" stroke-linecap="round" stroke-linejoin="round"/>
<path d="M95.0289 365.045L12.2339 338.714" stroke="#65A4C5" stroke-width="0.75" stroke-miterlimit="10" stroke-linecap="round" stroke-linejoin="round"/>
</g>
<path d="M100.209 277.683C50.3706 274.215 7.14611 311.805 3.67705 361.624C0.207984 411.443 37.8126 454.65 87.6515 458.118C137.49 461.586 180.715 423.996 184.184 374.177C187.653 324.358 150.048 281.15 100.209 277.683ZM88.1603 450.651C42.438 447.46 7.93241 407.836 11.1008 362.132C14.2924 316.428 53.9553 281.936 99.6776 285.103C145.377 288.271 179.882 327.918 176.714 373.645C173.545 419.349 133.883 453.841 88.1603 450.651Z" fill="#0C1A3C"/>
<path d="M445.811 385.559C453 379.308 453.759 368.415 447.505 361.228C441.251 354.042 430.354 353.284 423.165 359.535C415.976 365.786 415.217 376.679 421.47 383.865C427.724 391.052 438.622 391.81 445.811 385.559Z" fill="#0C1A3C"/>
<path d="M431.598 373.298L412.518 288.571" stroke="#65A4C5" stroke-width="0.75" stroke-miterlimit="10"/>
<path d="M437.287 371.218L397.347 294.096" stroke="#65A4C5" stroke-width="0.75" stroke-miterlimit="10"/>
<path d="M431.852 371.009L478.291 297.61" stroke="#65A4C5" stroke-width="0.75" stroke-miterlimit="10"/>
<path d="M437.333 373.576L463.652 290.79" stroke="#65A4C5" stroke-width="0.75" stroke-miterlimit="10"/>
<path d="M433.633 369.576L518.393 350.504" stroke="#65A4C5" stroke-width="0.75" stroke-miterlimit="10"/>
<path d="M435.691 375.263L512.866 335.339" stroke="#65A4C5" stroke-width="0.75" stroke-miterlimit="10"/>
<path d="M435.899 369.831L509.328 416.251" stroke="#65A4C5" stroke-width="0.75" stroke-miterlimit="10"/>
<path d="M433.355 375.309L516.15 401.618" stroke="#65A4C5" stroke-width="0.75" stroke-miterlimit="10"/>
<path d="M437.356 371.611L456.436 456.338" stroke="#65A4C5" stroke-width="0.75" stroke-miterlimit="10"/>
<path d="M431.667 373.668L471.584 450.813" stroke="#65A4C5" stroke-width="0.75" stroke-miterlimit="10"/>
<path d="M437.102 373.876L390.663 447.276" stroke="#65A4C5" stroke-width="0.75" stroke-miterlimit="10"/>
<path d="M431.621 371.333L405.302 454.095" stroke="#65A4C5" stroke-width="0.75" stroke-miterlimit="10"/>
<path d="M435.321 375.333L350.561 394.405" stroke="#65A4C5" stroke-width="0.75" stroke-miterlimit="10"/>
<path d="M433.24 369.646L356.088 409.547" stroke="#65A4C5" stroke-width="0.75" stroke-miterlimit="10"/>
<path d="M433.032 375.078L359.603 328.658" stroke="#65A4C5" stroke-width="0.75" stroke-miterlimit="10"/>
<path d="M435.599 369.599L352.804 343.268" stroke="#65A4C5" stroke-width="0.75" stroke-miterlimit="10"/>
<g opacity="0.3">
<path d="M432.199 374.385L380.279 304.754" stroke="#65A4C5" stroke-width="0.75" stroke-miterlimit="10"/>
<path d="M436.547 370.2L368.669 315.966" stroke="#65A4C5" stroke-width="0.75" stroke-miterlimit="10"/>
</g>
<g opacity="0.3">
<path d="M431.482 372.212L444.04 286.259" stroke="#65A4C5" stroke-width="0.75" stroke-miterlimit="10"/>
<path d="M437.541 372.304L427.92 286.005" stroke="#65A4C5" stroke-width="0.75" stroke-miterlimit="10"/>
</g>
<g opacity="0.3">
<path d="M432.546 370.177L502.205 318.278" stroke="#65A4C5" stroke-width="0.75" stroke-miterlimit="10"/>
<path d="M436.732 374.523L490.988 306.672" stroke="#65A4C5" stroke-width="0.75" stroke-miterlimit="10"/>
</g>
<g opacity="0.3">
<path d="M434.719 369.461L520.683 382.014" stroke="#65A4C5" stroke-width="0.75" stroke-miterlimit="10"/>
<path d="M434.604 375.494L520.961 365.9" stroke="#65A4C5" stroke-width="0.75" stroke-miterlimit="10"/>
</g>
<g opacity="0.3">
<path d="M436.755 370.501L488.675 440.155" stroke="#65A4C5" stroke-width="0.75" stroke-miterlimit="10"/>
<path d="M432.407 374.708L500.262 428.943" stroke="#65A4C5" stroke-width="0.75" stroke-miterlimit="10"/>
</g>
<g opacity="0.3">
<path d="M437.449 372.697L424.891 458.626" stroke="#65A4C5" stroke-width="0.75" stroke-miterlimit="10"/>
<path d="M431.413 372.582L441.034 458.904" stroke="#65A4C5" stroke-width="0.75" stroke-miterlimit="10"/>
</g>
<g opacity="0.3">
<path d="M436.408 374.732L366.75 426.608" stroke="#65A4C5" stroke-width="0.75" stroke-miterlimit="10"/>
<path d="M432.222 370.385L377.966 438.213" stroke="#65A4C5" stroke-width="0.75" stroke-miterlimit="10"/>
</g>
<g opacity="0.3">
<path d="M434.234 375.425L348.271 362.872" stroke="#65A4C5" stroke-width="0.75" stroke-miterlimit="10"/>
<path d="M434.327 369.391L347.993 379.008" stroke="#65A4C5" stroke-width="0.75" stroke-miterlimit="10"/>
</g>
<path d="M440.756 282.237C390.918 278.769 347.693 316.359 344.224 366.178C340.755 415.997 378.359 459.204 428.198 462.672C478.037 466.14 521.262 428.55 524.731 378.731C528.2 328.912 490.618 285.704 440.756 282.237ZM428.73 455.205C383.008 452.015 348.503 412.391 351.671 366.686C354.862 320.982 394.502 286.49 440.248 289.658C485.947 292.825 520.452 332.472 517.284 378.199C514.092 423.903 474.429 458.395 428.73 455.205Z" fill="#0C1A3C"/>
<path d="M82.564 224.604C77.9386 222.061 72.3188 220.304 66.7914 219.772C61.2178 219.24 55.4822 219.749 50.1167 221.668C48.7522 222.084 47.5034 222.778 46.1852 223.309C45.5376 223.61 44.8438 223.841 44.2425 224.211L42.4154 225.32C41.2128 226.106 39.8946 226.731 38.7845 227.655L35.4079 230.383C34.2285 231.239 33.2802 232.325 32.2626 233.366L29.233 236.51C27.4059 238.775 25.6714 241.11 23.8906 243.445C25.5095 241.018 27.1053 238.544 28.7936 236.163L31.6382 232.788C32.5864 231.678 33.4884 230.499 34.6447 229.551L37.9056 226.546C38.9926 225.529 40.2878 224.789 41.4904 223.887L43.3174 222.593C43.9187 222.176 44.6356 221.876 45.2832 221.506C46.6245 220.859 47.9197 220.05 49.3073 219.518C54.8347 217.137 60.9633 216.143 67.0458 216.328C68.5722 216.328 70.0754 216.582 71.6018 216.698C73.1051 216.929 74.6083 217.183 76.0885 217.53C79.095 218.246 81.9165 219.148 84.8767 220.581C86.0331 221.136 86.5188 222.523 85.9637 223.679C85.4087 224.835 84.021 225.32 82.8647 224.766C82.8184 224.743 82.7953 224.719 82.7491 224.719L82.564 224.604Z" fill="#0C1A3C"/>
<path d="M44.5888 222.893C44.5888 222.893 31.2676 213.53 19.0103 221.113C19.0103 221.113 33.3722 230.221 44.5888 222.893Z" fill="#0C1A3C"/>
<path d="M26.9893 238.868C26.9893 238.868 12.4192 231.354 0 243.584C0 243.584 19.658 250.126 26.9893 238.868Z" fill="#0C1A3C"/>
<path d="M29.3019 261.038C29.3019 261.038 33.2798 252.808 25.8791 239.63C25.8791 239.654 14.0149 250.334 29.3019 261.038Z" fill="#0C1A3C"/>
<path d="M44.4967 223.101C43.8491 224.65 39.9638 235.03 47.1332 244.855C47.2026 244.948 47.3182 244.948 47.3644 244.855C48.2433 243.376 53.8863 232.811 44.728 223.055C44.6817 222.986 44.543 223.009 44.4967 223.101Z" fill="#0C1A3C"/>
<path d="M65.1026 205.069C66.2358 199.914 66.3283 194.019 65.2413 188.586C64.1775 183.084 62.0498 177.744 58.6964 173.143C57.9101 171.964 56.8925 170.947 55.9905 169.838C55.5048 169.306 55.1117 168.705 54.5798 168.242L52.984 166.809C51.897 165.884 50.9257 164.798 49.7231 163.989L46.1615 161.538C45.0051 160.66 43.6869 160.036 42.3918 159.365L38.5296 157.354C35.8468 156.244 33.0947 155.25 30.3657 154.21C33.141 155.088 35.9624 155.897 38.7608 156.822L42.808 158.579C44.1494 159.18 45.5371 159.712 46.7628 160.521L50.5788 162.787C51.8739 163.526 52.9378 164.567 54.1404 165.468L55.898 166.855C56.4761 167.318 56.9618 167.919 57.4937 168.427C58.5113 169.514 59.6446 170.531 60.5465 171.71C64.4088 176.334 67.0915 181.928 68.641 187.8C69.0804 189.257 69.2655 190.782 69.5892 192.262C69.7974 193.765 69.9823 195.29 70.0517 196.816C70.2136 199.891 70.1443 202.85 69.6124 206.11C69.4042 207.381 68.2247 208.236 66.9527 208.028C65.6807 207.82 64.8251 206.641 65.0332 205.37C65.0332 205.323 65.0563 205.3 65.0563 205.254L65.1026 205.069Z" fill="#0C1A3C"/>
<path d="M55.9213 168.196C55.9213 168.196 61.1248 152.776 50.3476 143.183C50.3476 143.183 45.7222 159.55 55.9213 168.196Z" fill="#0C1A3C"/>
<path d="M34.8063 155.897C34.8063 155.897 37.8591 139.807 22.6184 131.369C22.6184 131.369 21.9245 152.06 34.8063 155.897Z" fill="#0C1A3C"/>
<path d="M15.1943 163.503C15.1943 163.503 27.2667 167.456 34.8524 155.62C34.8524 155.62 20.0279 147.667 15.1943 163.503Z" fill="#0C1A3C"/>
<path d="M93.1096 125.382C90.3113 130.514 89.4325 136.548 90.4963 142.142C91.0051 144.986 92.1152 147.529 93.3178 150.257C94.4511 152.961 95.4917 155.736 96.3706 158.556C98.1282 164.197 99.1921 170.161 99.1921 176.195C99.2846 182.229 98.1745 188.262 96.3937 194.042C96.0237 195.267 94.7286 195.938 93.5028 195.568C92.2771 195.198 91.6064 193.903 91.9764 192.678C91.9996 192.632 91.9995 192.586 92.0227 192.539L92.0458 192.493C94.0579 187.245 95.4455 181.743 95.7462 176.102C96.1162 170.462 95.4918 164.752 94.1504 159.157C93.4797 156.36 92.6703 153.586 91.7221 150.858C90.7507 148.199 89.6869 145.263 89.3862 142.304C88.623 136.409 89.9875 130.329 93.1096 125.382Z" fill="#FFAB2F"/>
<path d="M84.8532 124.272C84.8532 124.272 76.3887 119.88 80.8522 112.69C85.3157 105.523 91.6526 115.973 91.6526 115.973C91.6526 115.973 95.2835 104.506 103.077 108.02C110.894 111.534 102.615 118.585 102.615 118.585C102.615 118.585 111.172 117.337 111.819 124.318C112.467 131.277 100.973 129.844 100.973 129.844C100.973 129.844 105.159 136.571 100.21 140.732C95.2604 144.916 89.9643 133.935 89.9643 133.935C89.9643 133.935 82.4711 141.033 78.2158 135.669C73.9835 130.306 81.6617 123.532 84.8532 124.272Z" fill="#FFAB2F"/>
<path d="M97.0179 125.659C96.8792 127.809 95.0059 129.427 92.8551 129.289C90.7043 129.15 89.0854 127.277 89.2241 125.127C89.3629 122.978 91.2362 121.359 93.387 121.498C95.5378 121.637 97.1798 123.509 97.0179 125.659Z" fill="white"/>
<path d="M147.204 118.446C142.463 121.845 138.994 126.884 137.514 132.387C136.728 135.161 136.612 137.935 136.496 140.917C136.334 143.853 136.057 146.789 135.594 149.725C134.716 155.574 133.05 161.399 130.414 166.832C127.847 172.288 124.216 177.235 120.099 181.651C119.22 182.575 117.763 182.622 116.838 181.766C115.913 180.888 115.867 179.431 116.723 178.507C116.746 178.46 116.792 178.437 116.815 178.414L116.838 178.391C120.932 174.554 124.609 170.207 127.338 165.26C130.136 160.359 132.079 154.95 133.328 149.332C133.952 146.535 134.415 143.668 134.762 140.801C135.039 137.981 135.386 134.883 136.404 132.086C138.346 126.399 142.255 121.521 147.204 118.446Z" fill="#FFAB2F"/>
<path d="M140.266 113.846C140.266 113.846 134.576 106.194 141.723 101.686C148.869 97.1779 149.979 109.361 149.979 109.361C149.979 109.361 158.259 100.622 163.74 107.188C169.221 113.753 158.721 116.481 158.721 116.481C158.721 116.481 166.978 119.117 164.503 125.659C162.028 132.202 152.315 125.89 152.315 125.89C152.315 125.89 153.147 133.75 146.88 135.369C140.613 136.964 140.636 124.781 140.636 124.781C140.636 124.781 130.784 127.902 129.327 121.197C127.846 114.516 137.722 111.765 140.266 113.846Z" fill="#FFAB2F"/>
<path d="M150.603 120.388C149.516 122.261 147.134 122.908 145.261 121.822C143.388 120.735 142.74 118.354 143.827 116.481C144.914 114.609 147.296 113.962 149.169 115.048C151.043 116.135 151.69 118.516 150.603 120.388Z" fill="white"/>
<path d="M95.5383 227.702C95.5383 227.702 51.3656 199.96 65.1493 151.967C65.1493 151.967 109.484 171.363 95.5383 227.702Z" fill="#0C1A3C"/>
<g opacity="0.4">
<path d="M68.8032 158.371C71.9948 163.226 74.8625 168.312 77.5221 173.49C80.1817 178.669 82.5869 183.986 84.7609 189.395C86.958 194.805 88.8313 200.33 90.4271 205.948C92.0922 211.565 93.2023 217.322 94.1505 223.101C94.2661 223.725 93.8267 224.326 93.2023 224.442C92.5778 224.558 91.9766 224.118 91.8609 223.494V223.471V223.425C91.0977 217.715 90.2189 212.005 88.7388 206.41C87.3511 200.792 85.6628 195.244 83.6739 189.811C79.6961 178.923 74.7931 168.335 68.8032 158.371Z" fill="#65A4C5"/>
</g>
<path d="M98.2202 219.31C98.2202 219.31 101.458 171.594 146.209 161.885C146.209 161.908 149.794 206.086 98.2202 219.31Z" fill="#0C1A3C"/>
<g opacity="0.4">
<path d="M142.624 167.618C137.837 177.166 131.986 186.228 125.395 194.759C122.111 199.035 118.572 203.127 114.803 207.057C111.079 211.034 106.962 214.64 102.73 218.154C101.25 219.379 99.053 219.171 97.8273 217.692C96.6015 216.212 96.8097 214.016 98.2899 212.791C98.3824 212.721 98.4749 212.629 98.5905 212.559L98.7061 212.49C103.008 209.623 107.286 206.641 111.264 203.22C115.265 199.845 119.15 196.261 122.781 192.447C130.113 184.887 136.843 176.588 142.624 167.618Z" fill="#65A4C5"/>
</g>
<path d="M94.104 228.834C94.104 228.834 110.686 179.385 160.571 181.466C160.571 181.466 152.176 229.089 94.104 228.834Z" fill="#80AA74"/>
<path d="M155.206 186.505C151.251 190.759 147.019 194.759 142.625 198.596C138.231 202.434 133.651 206.04 128.91 209.438C124.192 212.883 119.266 216.027 114.178 218.94C109.137 221.922 103.771 224.373 98.3826 226.708C97.6194 227.031 96.7637 226.684 96.4399 225.922C96.1161 225.159 96.463 224.303 97.2262 223.98C97.2494 223.98 97.2494 223.957 97.2725 223.957L97.3419 223.933C102.707 221.876 108.05 219.703 113.138 216.998C118.272 214.363 123.267 211.45 128.101 208.236C137.722 201.856 146.903 194.643 155.206 186.505Z" fill="#5C8951"/>
<path d="M93.4797 227.933C93.4797 227.933 41.5132 223.194 32.0542 174.184C32.0542 174.184 80.3435 171.386 93.4797 227.933Z" fill="#417335"/>
<path d="M38.2061 178.229C43.2709 181.096 48.1276 184.309 52.8686 187.685C57.6097 191.083 62.1888 194.712 66.583 198.527C71.0234 202.318 75.2325 206.41 79.2104 210.687C83.2576 214.917 86.8886 219.541 90.4039 224.28C90.8896 224.927 90.7508 225.875 90.1032 226.361C89.4557 226.846 88.5075 226.708 88.0218 226.06C88.0218 226.037 87.9987 226.037 87.9987 226.014L87.9524 225.968C84.7146 221.229 81.3843 216.536 77.5452 212.189C73.7987 207.82 69.7977 203.613 65.5654 199.66C57.1703 191.707 48.0351 184.448 38.2061 178.229Z" fill="#5C8951"/>
<path d="M93.4567 227.956C93.4567 227.956 74.1224 181.42 117.347 149.933C117.347 149.933 139.665 192.817 93.4567 227.956Z" fill="#5C8951"/>
<path d="M116.144 157.192C115.589 162.971 114.664 168.728 113.531 174.438C112.375 180.148 110.941 185.812 109.253 191.383C107.61 196.978 105.598 202.48 103.332 207.89C101.135 213.322 98.3828 218.524 95.515 223.656C95.1219 224.373 94.2199 224.627 93.503 224.234C92.786 223.841 92.5316 222.939 92.9248 222.223C92.9248 222.2 92.948 222.2 92.948 222.176L92.9942 222.13C96.0007 217.252 98.9147 212.259 101.297 207.011C103.748 201.786 105.945 196.446 107.819 190.967C111.635 180.009 114.526 168.705 116.144 157.192Z" fill="#80AA74"/>
<path d="M104.997 228.973C104.997 228.973 126.713 220.628 146.186 222.5C149.863 222.847 151.02 217.738 147.597 216.305C139.109 212.791 125.348 212.883 104.997 228.973Z" fill="#0C1A3C"/>
<path d="M126.898 262.101L65.4264 263.326L62.628 224.373C62.4892 222.315 64.2007 220.604 66.259 220.743L130.83 225.228C132.888 225.367 134.345 227.309 133.929 229.32L126.898 262.101Z" fill="#0C1A3C"/>
<path opacity="0.5" d="M69.9131 231.216L125.765 235.099" stroke="#65A4C5" stroke-miterlimit="10" stroke-linecap="round" stroke-linejoin="round"/>
<path opacity="0.5" d="M72.0874 250.334L120.955 253.732" stroke="#65A4C5" stroke-miterlimit="10" stroke-linecap="round" stroke-linejoin="round"/>
<path opacity="0.5" d="M81.292 227.17L83.0034 254.726" stroke="#65A4C5" stroke-miterlimit="10" stroke-linecap="round" stroke-linejoin="round"/>
<path opacity="0.5" d="M115.035 229.528L109.53 256.576" stroke="#65A4C5" stroke-miterlimit="10" stroke-linecap="round" stroke-linejoin="round"/>
<path opacity="0.5" d="M98.1282 228.95L96.2549 255.859" stroke="#65A4C5" stroke-miterlimit="10" stroke-linecap="round" stroke-linejoin="round"/>
<path d="M370.773 184.379C372.323 185.72 377.295 201.971 368.553 222.153C359.811 242.358 313.672 288.964 313.672 288.964C313.672 288.964 324.519 308.845 329.468 323.757C334.51 338.899 344.131 370.686 344.131 370.686C344.131 370.686 334.348 374.986 319.917 371.079C319.917 371.079 278.519 307.32 275.721 294.882C272.922 282.445 314.274 198.781 314.274 198.781L370.773 184.379Z" fill="#457EA3"/>
<path opacity="0.3" d="M275.86 290.721L276.531 297.425C282.937 314.139 319.917 371.125 319.917 371.125C334.325 375.032 344.131 370.732 344.131 370.732C344.131 370.732 335.389 341.835 330.209 326.022C316.008 321.93 284.394 310.857 275.86 290.721Z" fill="#457EA3"/>
<path opacity="0.3" d="M344.131 370.709C344.131 370.709 343.784 369.576 343.206 367.657C337.887 350.134 326.485 334.899 310.828 325.375C300.213 318.925 296.189 312.082 296.189 312.082L279.052 300.616L277.872 300.569C286.915 320.289 319.917 371.125 319.917 371.125C334.325 375.009 344.131 370.709 344.131 370.709Z" fill="#457EA3"/>
<path opacity="0.3" d="M370.773 184.379L314.274 198.804C314.274 198.804 279.167 269.846 275.86 290.698C284.116 290.374 300.583 288.525 322.16 280.156C335.898 265.661 362.17 236.879 368.553 222.153C377.295 201.971 372.3 185.72 370.773 184.379Z" fill="#457EA3"/>
<path opacity="0.3" d="M368.553 222.176C377.295 201.971 372.323 185.72 370.773 184.402L314.274 198.827C314.274 198.827 296.374 235.03 284.949 263.326C332.151 263.003 344.385 255.096 347.184 252.368C356.619 241.156 365.246 229.782 368.553 222.176Z" fill="#457EA3"/>
<path opacity="0.3" d="M291.679 247.352L321.143 246.219L353.081 245.179C360.065 236.463 365.94 228.164 368.553 222.176C370.958 216.605 372.3 211.38 372.993 206.641L306.133 215.703C301.924 224.558 296.651 235.932 291.679 247.352Z" fill="#457EA3"/>
<path d="M339.713 370.986C339.667 371.495 342.905 376.789 344.408 384.649C344.894 387.238 342.859 389.619 340.222 389.481L308.191 387.793C305.948 387.678 304.398 385.504 305.046 383.354L305.185 382.846C305.647 381.274 306.873 380.072 308.469 379.679C312.608 378.638 320.68 376.095 323.108 371.726L339.713 370.986Z" fill="#0C1A3C"/>
<path d="M189.318 167.942C189.318 171.271 186.612 173.976 183.282 173.976C179.952 173.976 177.246 171.271 177.246 167.942C177.246 164.613 179.952 161.908 183.282 161.908C186.612 161.908 189.318 164.613 189.318 167.942Z" fill="#0C1A3C"/>
<path d="M210.087 194.204C210.087 197.533 207.381 200.238 204.05 200.238C200.72 200.238 198.014 197.533 198.014 194.204C198.014 190.875 200.72 188.17 204.05 188.17C207.381 188.17 210.087 190.875 210.087 194.204Z" fill="#0C1A3C"/>
<path d="M160.571 205.115L133.05 265.43C132.102 267.534 129.072 267.488 128.193 265.361L127.361 263.349H60.269" stroke="#0C1A3C" stroke-width="2" stroke-miterlimit="10" stroke-linecap="round" stroke-linejoin="round"/>
<path d="M66.4209 263.326C66.4209 263.326 104.187 263.326 132.842 280.11" stroke="#0C1A3C" stroke-miterlimit="10" stroke-linecap="round" stroke-linejoin="round"/>
<path d="M436.315 377.876C440.27 378.222 442.583 373.529 439.923 370.593L330.948 250.773C331.041 250.357 331.133 249.918 331.203 249.594C331.295 249.132 331.388 248.762 331.434 248.462L331.503 248.045L331.55 247.814C331.573 247.722 331.573 247.629 331.596 247.306L325.698 246.89L321.142 246.173L322.553 246.404L321.142 246.15C321.119 246.265 320.957 247.005 320.749 248.045C320.032 251.305 318.552 257.986 316.609 266.517C304.491 270.007 290.314 271.071 275.744 270.031C249.633 268.25 222.436 259.905 204.258 249.155C184.022 237.226 170.886 230.753 164.133 227.655L187.653 176.519C188.855 173.883 187.699 170.762 185.063 169.56C182.426 168.358 179.304 169.514 178.101 172.149L89.2934 364.93C88.0677 367.565 89.224 370.686 91.8836 371.911C94.5201 373.113 97.6423 371.98 98.8449 369.345L147.944 262.933C157.148 268.297 178.055 282.537 202.084 312.475C219.661 334.321 244.014 347.591 263.926 355.544C265.036 355.983 266.123 356.399 267.21 356.815C282.52 362.618 298.617 366.062 314.921 367.472L436.315 377.876ZM306.989 356.237C309.209 346.528 313.857 326.161 318.529 305.678C321.744 291.53 324.982 277.313 327.41 266.563C327.664 265.43 327.896 264.367 328.15 263.326L421.606 366.085L306.989 356.237ZM210.294 305.886C184.646 273.961 162.144 258.911 152.361 253.339L159.762 237.226C166.145 240.139 178.98 246.473 198.939 258.217C218.944 269.984 247.228 278.561 275.027 280.526C288.487 281.451 301.808 280.78 314.019 278.029C311.776 287.947 309.232 299.067 306.78 309.886C303.82 322.855 300.976 335.339 298.871 344.563C297.923 348.724 297.136 352.192 296.535 354.781C290.406 353.394 279.074 350.411 266.03 345.071C247.506 337.465 225.628 325.005 210.294 305.886Z" fill="#FFAB2F"/>
<path d="M221.696 268.921C238.001 275.024 256.595 279.255 275.027 280.549C288.487 281.474 301.808 280.803 314.019 278.052L316.633 266.563C304.514 270.054 290.337 271.117 275.767 270.077C254.259 268.597 232.011 262.679 214.666 254.611C216.377 259.119 218.666 264.066 221.696 268.921Z" fill="#F88F00"/>
<path d="M330.925 250.796L328.127 263.326C331.411 263.326 334.579 264.528 337.008 266.702L381.134 306.002L330.925 250.796Z" fill="#F88F00"/>
<path d="M182.727 237.018C174.286 232.487 168.087 229.482 164.156 227.679L159.762 237.226C164.133 239.237 171.603 242.867 182.218 248.693L182.727 237.018Z" fill="#F88F00"/>
<path d="M181.085 274.723C168.388 263.28 158.143 256.622 152.361 253.339L147.944 262.933C154.234 266.609 165.983 274.423 180.484 288.571L181.085 274.723Z" fill="#F88F00"/>
<path d="M187.676 176.542C188.879 173.906 187.722 170.785 185.086 169.583C182.449 168.381 179.327 169.537 178.125 172.172L170.886 187.893L176.806 200.191L187.676 176.542Z" fill="#F88F00"/>
<path d="M439.9 370.617L427.296 356.769C424.035 358.248 421.329 360.745 419.525 363.843L421.56 366.085L418.531 365.831C417.837 367.519 417.374 369.345 417.235 371.264C417.12 372.998 417.259 374.685 417.629 376.304L436.269 377.899C440.247 378.222 442.583 373.553 439.9 370.617Z" fill="#F88F00"/>
<path d="M358.215 371.171L361.523 360.93L306.989 356.237C308.168 351.105 310.019 342.99 312.192 333.443L301.97 330.969C300.837 335.94 299.773 340.563 298.871 344.562C297.923 348.724 297.137 352.191 296.535 354.781C290.407 353.393 279.074 350.434 266.031 345.071C255.415 340.725 243.759 334.737 232.82 326.877C236.104 333.651 239.412 339.87 242.696 345.557C249.981 349.579 257.196 352.885 263.926 355.567C264.134 355.636 264.319 355.728 264.528 355.798C280.578 362.132 297.484 365.97 314.667 367.449L358.215 371.171Z" fill="#F88F00"/>
<path d="M331.411 248.462L331.48 248.045L331.526 247.814C331.55 247.722 331.55 247.629 331.573 247.306L325.675 246.89L322.53 246.404L321.119 246.15C321.096 246.265 320.934 247.005 320.726 248.045C320.009 251.305 318.529 257.986 316.586 266.493C323.548 261.962 330.879 250.75 330.879 250.75C330.971 250.334 331.064 249.895 331.133 249.571C331.272 249.132 331.365 248.762 331.411 248.462Z" fill="#F88F00"/>
<path d="M194.198 175.363C194.198 178.692 191.492 181.396 188.162 181.396C184.831 181.396 182.125 178.692 182.125 175.363C182.125 172.034 184.831 169.329 188.162 169.329C191.492 169.329 194.198 172.034 194.198 175.363Z" fill="#0C1A3C"/>
<path d="M428.915 371.934C428.915 369.969 430.511 368.397 432.453 368.397C434.419 368.397 435.992 369.993 435.992 371.934C435.992 373.876 434.396 375.472 432.453 375.472C430.488 375.472 428.915 373.9 428.915 371.934Z" fill="#0C1A3C"/>
<path d="M302.757 243.376C302.757 243.376 359.441 254.079 362.864 253.386C366.287 252.692 366.171 239.769 366.171 236.741C366.171 211.519 313.904 233.412 308.423 232.718C302.942 232.025 296.697 242.035 302.757 243.376Z" fill="#0C1A3C"/>
<path d="M140.705 248.623C140.705 248.623 146.325 249.386 155.183 253.363" stroke="#0C1A3C" stroke-miterlimit="10" stroke-linecap="round" stroke-linejoin="round"/>
<path d="M152.361 223.101C152.361 223.101 161.288 225.066 166.307 227.17" stroke="#0C1A3C" stroke-miterlimit="10" stroke-linecap="round" stroke-linejoin="round"/>
<path d="M148.661 231.216C148.661 231.216 153.009 235.284 160.571 238.868" stroke="#0C1A3C" stroke-miterlimit="10" stroke-linecap="round" stroke-linejoin="round"/>
<path d="M137.398 255.859C137.398 255.859 141.769 261.384 148.638 265.291" stroke="#0C1A3C" stroke-miterlimit="10" stroke-linecap="round" stroke-linejoin="round"/>
<path d="M166.307 230.198C167.98 230.198 169.337 228.842 169.337 227.17C169.337 225.497 167.98 224.141 166.307 224.141C164.634 224.141 163.277 225.497 163.277 227.17C163.277 228.842 164.634 230.198 166.307 230.198Z" fill="#0C1A3C"/>
<path d="M159.577 241.711C161.25 241.711 162.607 240.355 162.607 238.683C162.607 237.01 161.25 235.654 159.577 235.654C157.904 235.654 156.547 237.01 156.547 238.683C156.547 240.355 157.904 241.711 159.577 241.711Z" fill="#0C1A3C"/>
<path d="M151.598 253.339C151.598 251.675 152.963 250.311 154.628 250.311C156.293 250.311 157.657 251.675 157.657 253.339C157.657 255.004 156.293 256.368 154.628 256.368C152.94 256.368 151.598 255.004 151.598 253.339Z" fill="#0C1A3C"/>
<path d="M148.661 268.32C150.334 268.32 151.69 266.964 151.69 265.291C151.69 263.619 150.334 262.263 148.661 262.263C146.987 262.263 145.631 263.619 145.631 265.291C145.631 266.964 146.987 268.32 148.661 268.32Z" fill="#0C1A3C"/>
<path d="M290.361 83.3534C265.43 97.4784 265.337 135.623 264.713 144.616C264.088 153.609 291.309 166.878 292.234 167.965C293.159 169.028 303.196 175.871 308.307 198.666C308.307 198.666 355.764 201.694 375.861 183.824C375.861 183.824 344.779 115.372 329.977 92.2538C315.176 69.0897 290.361 83.3534 290.361 83.3534Z" fill="#FFAB2F"/>
<path d="M329.977 92.2307C329.237 91.0748 328.451 90.0114 327.665 89.0404C351.162 133.196 363.257 171.803 368.021 189.141C370.912 187.615 373.572 185.858 375.861 183.824C375.861 183.801 344.779 115.349 329.977 92.2307Z" fill="#FFC166"/>
<path d="M335.921 193.279C335.528 181.535 330.74 171.941 325.051 164.613C316.286 153.285 314.436 138.305 319.778 125.012C324.542 113.199 325.861 102.426 325.861 102.426L322.577 91.7915H298.525L265.013 142.096C264.851 143.09 264.759 143.945 264.713 144.593C264.088 153.586 291.309 166.855 292.234 167.942C293.159 169.005 303.196 175.848 308.307 198.642C308.307 198.642 320.703 199.428 335.482 197.833C335.805 196.377 335.967 194.874 335.921 193.279Z" fill="#F88F00"/>
<path opacity="0.3" d="M320.287 197.278C310.55 162.139 287.354 163.781 276.114 158.024C283.469 163.18 291.725 167.364 292.234 167.942C293.159 169.005 303.196 175.848 308.307 198.642C308.307 198.642 313.256 198.943 320.611 198.781C320.495 198.273 320.426 197.81 320.287 197.278Z" fill="#F88F00"/>
<path d="M290.661 84.7867L287.053 67.4252L305.393 53.1152L311.938 79.0304C312.216 80.1631 311.614 81.3421 310.504 81.7582L295.333 87.3759C293.298 88.1157 291.1 86.8904 290.661 84.7867Z" fill="#FFAD91"/>
<path opacity="0.4" d="M290.36 83.3534C296.882 80.2556 302.641 67.9569 304.237 54.0168L287.053 67.4252L290.36 83.3534Z" fill="#D23D1E"/>
<path d="M289.458 19.9872C277.085 19.8716 270.263 27.3387 272.044 49.6475C273.824 71.9562 279.953 74.2218 288.325 73.3202C296.72 72.4186 304.56 55.4038 305.046 37.5106C305.578 19.6173 289.458 19.9872 289.458 19.9872Z" fill="#FFAD91"/>
<path d="M293.251 40.5853C290.175 36.9558 285.642 34.9676 280.901 35.3837C276.715 35.7536 272.021 35.0832 268.297 31.6386C259.439 23.4549 276.97 0.0826769 310.805 10.74C325.097 15.248 333.469 14.5314 345.75 7.98903C358.03 1.44666 370.195 7.48042 378.636 13.7916C387.078 20.1028 399.219 18.369 418.947 11.2255C438.674 4.10521 464.137 18.0684 455.418 47.7749C446.699 77.4815 414.946 95.236 389.344 91.2366C363.743 87.2372 362.91 69.8063 341.726 71.4708C320.518 73.1353 305.647 69.1359 302.918 55.2883L300.49 55.0571C298.478 54.849 297.09 52.9071 297.576 50.9421C298.385 47.5669 297.275 43.9605 294.546 41.8105C294.084 41.4406 293.644 41.0476 293.251 40.5853Z" fill="#0C1A3C"/>
<path d="M301.415 51.127C301.415 51.127 304.329 44.0761 310.574 47.6825C316.818 51.2889 309.047 65.1134 298.501 62.4086L301.415 51.127Z" fill="#FFAD91"/>
<path d="M211.798 175.178C211.798 175.178 192.048 169.838 190.73 169.999C189.388 170.161 184.971 184.148 185.364 186.297C185.757 188.447 192.927 195.545 196.581 196.076C198.639 196.377 199.957 193.973 200.744 191.776C201.299 190.181 203.195 189.511 204.652 190.366C206.803 191.591 209.601 193.002 211.336 193.14C214.504 193.372 222.714 185.465 222.714 185.465L216.562 171.294L211.798 175.178Z" fill="#FFAD91"/>
<path opacity="0.4" d="M218.968 188.771C221.073 187.037 222.715 185.465 222.715 185.465L216.563 171.294L211.799 175.201C211.799 175.201 192.048 169.861 190.73 170.022C190.73 170.022 203.01 185.188 218.968 188.771Z" fill="#D23D1E"/>
<path d="M211.336 170.392L224.033 189.534C224.033 189.534 272.553 161.7 274.242 159.966C275.953 158.232 319.779 112.32 325.884 102.449C335.921 86.2201 315.13 76.0944 311.615 77.782C289.575 88.4394 254.098 137.912 254.098 137.912L211.336 170.392Z" fill="#FFAB2F"/>
<path d="M311.684 77.9207L307.406 80.9029L303.381 84.1857L299.612 87.7459L295.935 91.3985C291.055 96.2994 286.522 101.547 282.035 106.841C277.502 112.089 273.108 117.452 268.83 122.931C264.644 128.456 260.18 133.82 256.087 139.368L255.855 139.692L255.578 139.9L244.777 147.876L233.792 155.597C230.115 158.14 226.484 160.775 222.714 163.203C218.968 165.676 215.267 168.173 211.428 170.531L211.243 170.3L253.913 137.727L253.866 137.773C262.053 126.468 270.819 115.557 280.116 105.13C284.741 99.9058 289.621 94.8893 294.732 90.127C299.866 85.4109 305.232 80.8105 311.545 77.6664L311.684 77.9207Z" fill="#FFC166"/>
<path d="M327.133 388.371L302.086 359.589C301.947 359.451 301.785 359.358 301.577 359.335C301.392 359.312 301.184 359.381 301.045 359.52L299.056 361.254C298.756 361.531 298.709 361.994 298.987 362.294L324.034 391.076C324.172 391.215 324.334 391.307 324.543 391.33C324.566 391.33 324.566 391.33 324.589 391.33C324.774 391.33 324.936 391.261 325.074 391.145L327.063 389.411C327.364 389.157 327.387 388.695 327.133 388.371Z" fill="#457EA3"/>
<path opacity="0.3" d="M315.36 381.135L318.621 384.88L322.83 383.447L318.598 378.592L315.36 381.135Z" fill="#457EA3"/>
<path d="M316.794 388.094L334.209 388.764L334.325 392.394L316.54 391.862L316.794 388.094Z" fill="#457EA3"/>
<path d="M300.536 386.267C293.205 386.267 286.221 383.1 281.41 377.575C272.252 367.033 273.362 351.013 283.908 341.858C288.51 337.858 294.408 335.639 300.513 335.639C307.844 335.639 314.829 338.806 319.639 344.332C324.08 349.441 326.277 355.96 325.791 362.71C325.328 369.461 322.253 375.61 317.141 380.049C312.539 384.071 306.642 386.267 300.536 386.267Z" fill="#0C1A3C"/>
<path d="M300.513 337.119C307.428 337.119 313.973 340.101 318.506 345.302C322.692 350.111 324.75 356.237 324.311 362.595C323.872 368.952 320.981 374.732 316.17 378.916C311.822 382.684 306.272 384.765 300.536 384.765C293.621 384.765 287.076 381.782 282.543 376.581C273.917 366.663 274.958 351.59 284.879 342.967C289.227 339.199 294.778 337.119 300.513 337.119ZM300.513 334.16C294.269 334.16 288.001 336.333 282.937 340.748C271.766 350.458 270.587 367.38 280.3 378.546C285.596 384.649 293.043 387.747 300.536 387.747C306.781 387.747 313.048 385.574 318.113 381.158C329.283 371.449 330.463 354.526 320.749 343.361C315.453 337.281 308.006 334.16 300.513 334.16Z" fill="white"/>
<path d="M302.086 359.612L277.039 330.831C276.761 330.53 276.299 330.484 275.998 330.761L274.009 332.495C273.87 332.634 273.778 332.796 273.755 333.004C273.732 333.189 273.801 333.397 273.94 333.535L298.986 362.317C299.125 362.456 299.287 362.548 299.495 362.571C299.518 362.571 299.518 362.571 299.542 362.571C299.727 362.571 299.888 362.502 300.027 362.387L302.016 360.653C302.317 360.375 302.34 359.913 302.086 359.612Z" fill="#65A4C5"/>
<path opacity="0.3" d="M286.174 341.349L278.727 332.773L273.94 332.634C273.871 332.749 273.778 332.865 273.755 333.004C273.732 333.189 273.801 333.397 273.94 333.535L282.196 343.014L286.174 341.349Z" fill="#457EA3"/>
<path d="M266.744 329.666L266.481 333.449L284.292 334.687L284.555 330.905L266.744 329.666Z" fill="#65A4C5"/>
<path d="M296.189 312.059C293.02 307.065 276.808 306.511 271.72 311.227C268.158 314.533 258.445 317.515 252.987 319.017C250.605 319.665 248.755 321.56 248.177 323.988C247.622 326.392 249.333 328.727 251.808 328.889L296.628 332.033C296.605 332.033 299.542 317.353 296.189 312.059Z" fill="#0C1A3C"/>
<path d="M375.861 183.801C375.861 183.801 238.903 195.29 234.162 213.577C227.547 238.983 271.697 311.227 271.697 311.227C282.567 316.775 296.165 312.059 296.165 312.059L281.248 241.11C281.04 240.116 281.78 239.214 282.798 239.214C322.854 239.168 366.102 240.994 374.636 218.2C383.308 195.082 375.861 183.801 375.861 183.801Z" fill="#65A4C5"/>
<path d="M353.405 186.297L346.328 187.846L339.251 189.233L325.121 192.123L296.952 197.671C287.608 199.66 278.265 201.463 269.107 203.798C264.528 204.954 259.972 206.086 255.554 207.45C251.16 208.814 246.789 210.363 243.135 212.305C241.377 213.184 239.712 214.432 239.365 214.964L239.273 215.056C239.296 215.056 239.319 215.056 239.319 215.033C239.342 215.01 239.342 214.964 239.296 214.941L239.042 216.212C238.833 217.044 238.857 218.108 238.741 219.032C238.648 223.078 239.435 227.517 240.383 231.932C242.303 240.856 245.656 249.71 248.963 258.564C252.432 267.372 256.133 276.157 260.064 284.872C261.961 289.265 263.903 293.657 265.915 298.003L268.968 304.522L271.975 311.088L271.466 311.388C261.591 294.905 252.478 277.983 244.685 260.39C240.869 251.582 237.307 242.613 234.948 233.25C233.792 228.58 232.913 223.772 232.936 218.894C233.052 217.668 233.005 216.443 233.283 215.241L233.63 213.415C233.931 212.837 234.069 212.097 234.509 211.635C236.058 209.531 238.209 208.236 240.337 207.057C244.685 204.838 249.264 203.289 253.889 201.902C258.515 200.538 263.186 199.382 267.881 198.319C277.271 196.238 286.73 194.527 296.212 193.025C315.176 190.019 334.256 187.685 353.359 185.696L353.405 186.297Z" fill="#BEDFF0"/>
</svg>
