<svg width="1445" height="571" viewBox="0 0 1445 571" fill="none" xmlns="http://www.w3.org/2000/svg">
<path d="M0 562.666C0 562.666 11.7206 577.193 30.06 567.628C48.3994 558.062 40.2915 536.118 40.2915 536.118C40.2915 536.118 27.054 531.79 21.042 541.907C15.03 552.052 0 562.666 0 562.666Z" fill="#80AA74"/>
<path d="M71.5377 529.42C68.9453 528.482 65.6911 527.931 62.6851 527.848C59.6239 527.765 56.5352 528.179 53.6119 529.061C50.6335 529.916 47.986 531.542 45.4488 533.334C43.0771 535.347 40.8157 537.579 39.0507 540.281C37.1754 542.79 35.5483 545.932 33.4248 548.524C31.4392 551.253 29.0675 553.706 26.5303 555.912C21.4559 560.212 14.8096 563.382 8.13574 562.583C14.8372 562.886 21.0147 559.357 25.6202 554.892C27.9092 552.603 30.0327 550.095 31.7701 547.338C32.7078 546.015 33.5075 544.609 34.2797 543.148C35.0519 541.742 35.8793 540.281 36.7618 538.792C38.444 535.788 40.733 533.141 43.2426 530.715C45.9176 528.482 48.8685 526.387 52.233 525.174C55.5424 523.906 59.1 523.162 62.6575 523.024C66.2703 522.914 69.6623 523.162 73.4129 524.237C74.8746 524.65 75.7295 526.167 75.3158 527.655C74.9022 529.116 73.3854 529.971 71.8961 529.557C71.841 529.53 71.7859 529.53 71.7031 529.502L71.5377 529.42Z" fill="#417335"/>
<path d="M204 532.793C204 532.793 205.517 508.534 216.631 500.567C227.745 492.6 243.685 503.627 261.417 498.527C261.417 498.527 259.708 521.904 232.709 521.738C205.682 521.573 204 532.793 204 532.793Z" fill="#80AA74"/>
<path d="M282.79 472.752C279.205 481.215 274.296 488.603 268.064 495.081C264.864 498.223 261.417 501.09 257.556 503.406C253.64 505.584 249.531 507.514 245.146 508.396C236.597 510.298 227.965 511.015 219.94 513.854C215.913 515.232 212.521 517.906 210.039 521.407C207.612 524.908 205.765 528.878 204.027 532.793C205.572 528.768 207.171 524.743 209.488 521.021C211.804 517.327 215.307 514.24 219.416 512.586C227.551 509.223 236.294 508.037 244.457 505.749C248.511 504.729 252.234 502.717 255.709 500.539C259.156 498.223 262.245 495.384 265.03 492.324C270.49 486.094 274.848 478.568 277.578 470.987L277.633 470.822C278.157 469.388 279.729 468.644 281.163 469.168C282.597 469.692 283.342 471.263 282.818 472.696C282.818 472.669 282.79 472.724 282.79 472.752Z" fill="#417335"/>
<path d="M353 58.0109C353 58.0109 356.309 33.9172 367.975 26.8049C379.64 19.6926 394.726 31.8772 412.789 28.1005C412.789 28.1005 409.369 51.2845 382.426 49.1067C355.537 46.9565 353 58.0109 353 58.0109Z" fill="#80AA74"/>
<path d="M436.037 4.00691C431.845 12.1668 426.385 19.1964 419.683 25.1784C416.264 28.073 412.596 30.6918 408.597 32.7042C404.543 34.5788 400.296 36.2053 395.856 36.7566C387.196 38.0247 378.509 38.0799 370.319 40.3128C366.209 41.3879 362.624 43.8138 359.894 47.1219C357.191 50.4575 355.095 54.2342 353.055 58.0384C354.902 54.1515 356.805 50.2369 359.37 46.7083C361.935 43.1797 365.685 40.3679 369.905 39.0171C378.289 36.2604 387.086 35.7366 395.387 34.055C399.496 33.3383 403.357 31.6016 406.997 29.6719C410.61 27.6044 413.892 25.013 416.925 22.146C422.827 16.3294 427.736 9.16197 431.018 1.80156L431.101 1.63614C431.735 0.257785 433.362 -0.376264 434.741 0.230212C436.12 0.864255 436.754 2.49073 436.147 3.86909C436.065 3.89666 436.037 3.95178 436.037 4.00691Z" fill="#417335"/>
<path d="M1033.73 276.52C1033.73 276.52 1033.07 293.694 1051.57 298.16C1070.1 302.626 1077.74 282.502 1077.74 282.502C1077.74 282.502 1071.18 271.475 1060.86 274.866C1050.61 278.256 1033.73 276.52 1033.73 276.52Z" fill="#80AA74"/>
<path d="M1103.33 296.864C1102.12 294.686 1100.22 292.316 1098.21 290.441C1096.14 288.539 1093.79 286.968 1091.23 285.81C1088.66 284.597 1085.85 284.101 1083.04 283.825C1080.2 283.77 1077.27 283.935 1074.43 284.735C1071.62 285.341 1068.56 286.526 1065.52 287.023C1062.49 287.684 1059.35 287.96 1056.26 287.932C1050.11 287.822 1043.6 285.975 1039.46 281.371C1043.93 285.644 1050.36 286.885 1056.26 286.554C1059.24 286.334 1062.22 285.865 1065.08 285.01C1068.03 284.294 1070.63 283.025 1073.72 282.088C1076.69 281.013 1079.92 280.544 1083.15 280.379C1086.37 280.434 1089.71 280.793 1092.8 281.95C1095.89 283.081 1098.81 284.707 1101.4 286.775C1104 288.897 1106.2 291.13 1108.19 294.163C1109.02 295.431 1108.66 297.14 1107.39 297.994C1106.12 298.821 1104.41 298.463 1103.56 297.195C1103.53 297.14 1103.47 297.085 1103.44 297.002L1103.33 296.864Z" fill="#417335"/>
<path d="M1168.03 185.08C1168.03 185.08 1161.94 171.489 1143.41 176.258C1124.9 181.027 1115.19 176.975 1115.19 176.975C1115.19 176.975 1116.99 188.829 1137.72 196.63C1158.46 204.459 1168.03 185.08 1168.03 185.08Z" fill="#80AA74"/>
<path d="M1202.56 180.393C1199.75 179.787 1196.16 179.704 1192.88 179.925C1189.54 180.145 1186.18 180.696 1182.87 181.523C1179.59 182.378 1176.31 183.398 1173.13 184.749C1169.85 186.072 1166.41 187.395 1162.9 188.14C1159.4 188.994 1155.84 189.463 1152.26 189.656C1148.7 189.876 1145.11 189.738 1141.58 189.297C1134.55 188.443 1127.52 186.513 1121.65 182.626C1127.77 186.127 1134.8 187.561 1141.72 187.947C1145.2 188.14 1148.67 188.029 1152.09 187.616C1155.51 187.23 1158.9 186.541 1162.19 185.493C1165.52 184.556 1168.56 183.15 1171.73 181.634C1174.93 180.007 1178.32 178.712 1181.74 177.581C1185.19 176.479 1188.74 175.624 1192.38 175.155C1196.08 174.714 1199.61 174.439 1203.72 175.045C1205.24 175.266 1206.28 176.672 1206.06 178.16C1205.84 179.676 1204.44 180.724 1202.95 180.503C1202.89 180.503 1202.84 180.476 1202.75 180.476L1202.56 180.393Z" fill="#417335"/>
<path d="M1188.11 343.48C1188.11 343.48 1203.86 327.546 1216.4 328.759C1228.95 329.972 1233.31 347.284 1248.73 354.479C1248.73 354.479 1233.39 369.669 1214.75 353.184C1196.08 336.726 1188.11 343.48 1188.11 343.48Z" fill="#80AA74"/>
<path d="M1279.26 349.738C1271.59 353.459 1263.67 355.582 1255.4 356.271C1251.26 356.519 1247.13 356.409 1243.02 355.637C1238.96 354.783 1234.94 353.625 1231.35 351.53C1224.26 347.67 1217.87 342.901 1210.59 340.007C1206.97 338.518 1203 338.298 1199.17 339.235C1195.34 340.172 1191.69 341.799 1188.08 343.453C1191.58 341.578 1195.14 339.759 1199 338.546C1202.84 337.36 1207.17 337.333 1211.03 338.683C1218.75 341.275 1225.53 345.741 1232.59 349.049C1236.01 350.785 1239.79 351.64 1243.54 352.219C1247.32 352.688 1251.18 352.577 1254.96 352.136C1262.49 351.089 1270.04 348.525 1276.52 344.914L1276.69 344.831C1278.01 344.087 1279.7 344.555 1280.44 345.906C1281.19 347.229 1280.72 348.911 1279.37 349.655C1279.34 349.683 1279.28 349.71 1279.26 349.738Z" fill="#417335"/>
<path d="M1350.03 166.785C1350.03 166.785 1366.93 152.064 1379.34 154.215C1391.78 156.337 1394.81 173.925 1409.65 182.25C1409.65 182.25 1393.21 196.254 1375.84 178.446C1358.49 160.638 1350.03 166.785 1350.03 166.785Z" fill="#80AA74"/>
<path d="M1440.46 179.797C1432.54 182.939 1424.49 184.456 1416.19 184.566C1412.05 184.511 1407.91 184.07 1403.89 183.022C1399.92 181.864 1395.97 180.403 1392.58 178.06C1385.8 173.677 1379.76 168.467 1372.72 165.021C1369.22 163.284 1365.28 162.76 1361.39 163.394C1357.5 164.056 1353.72 165.407 1350 166.785C1353.64 165.186 1357.31 163.615 1361.25 162.705C1365.17 161.823 1369.5 162.099 1373.25 163.725C1380.75 166.868 1387.18 171.83 1393.99 175.662C1397.27 177.647 1400.99 178.777 1404.69 179.631C1408.44 180.376 1412.27 180.541 1416.08 180.403C1423.66 179.935 1431.41 177.922 1438.11 174.78L1438.28 174.697C1439.66 174.063 1441.31 174.642 1441.95 176.048C1442.58 177.426 1442 179.08 1440.59 179.714C1440.57 179.742 1440.51 179.769 1440.46 179.797Z" fill="#417335"/>
<path d="M1297.34 225C1297.34 225 1293.23 232.471 1305.04 235.172C1316.84 237.874 1320.62 239.473 1323.73 244.6C1326.85 249.728 1351.2 261.003 1338.41 273.298C1338.41 273.298 1332.67 292.126 1322.08 280.107C1311.49 268.115 1304.68 260.093 1300.18 250.61C1295.66 241.154 1288.19 233.932 1297.34 225Z" fill="#80AA74"/>
<path d="M1299.44 236.854C1304.76 241.044 1309.75 245.675 1314.22 250.83C1315.32 252.126 1316.4 253.477 1317.42 254.855C1318.41 256.289 1319.41 257.639 1320.37 258.935C1322.44 261.499 1324.7 263.925 1327.26 266.02C1332.28 270.32 1338.08 273.684 1344.09 276.358C1350.1 278.921 1356.55 281.044 1362.67 281.264H1362.76C1364.27 281.32 1365.46 282.588 1365.41 284.131C1365.35 285.648 1364.08 286.833 1362.54 286.778C1362.48 286.778 1362.4 286.778 1362.34 286.75C1354.93 285.923 1348.47 283.194 1342.27 280.079C1336.14 276.826 1330.35 272.912 1325.39 268.06C1322.88 265.689 1320.65 262.987 1318.69 260.148C1317.72 258.687 1316.81 257.226 1315.99 255.82C1315.08 254.414 1314.14 253.036 1313.12 251.685C1309.12 246.337 1304.46 241.375 1299.44 236.854Z" fill="#417335"/>
<path d="M1332 387.834C1332 387.834 1350.34 369.805 1368.76 373.499C1387.18 377.193 1392.04 396.71 1391.87 403.492C1391.87 403.492 1381.61 420.501 1366.94 408.261C1352.27 395.994 1343.36 387.696 1332 387.834Z" fill="#80AA74"/>
<path d="M1342.31 385.573C1351.25 383.285 1360.82 384.553 1369.51 387.641C1378.19 390.921 1386.11 396.159 1392.86 402.527C1399.37 408.619 1407.45 413.141 1416.06 414.078C1424.55 415.125 1433.57 412.258 1440.19 407.462L1440.38 407.324C1441.62 406.442 1443.33 406.69 1444.24 407.93C1445.12 409.171 1444.88 410.88 1443.64 411.79C1443.61 411.817 1443.58 411.817 1443.58 411.845C1441.35 413.361 1439.28 414.436 1436.99 415.401C1435.89 415.897 1434.7 416.256 1433.57 416.697C1432.38 417.028 1431.23 417.386 1430.04 417.662C1425.3 418.764 1420.33 419.04 1415.53 418.213C1405.88 416.669 1397.44 411.211 1390.96 404.54C1384.7 398.034 1377.31 392.603 1369.01 388.964C1360.71 385.518 1351.36 383.754 1342.31 385.573Z" fill="#417335"/>
<path d="M658.363 41.8961C658.363 41.8961 656.212 51.1862 644.96 61.9925C633.708 72.7988 639.334 85.1213 647.332 93.9979C655.329 102.875 647.552 86.0034 647.552 86.0034C647.552 86.0034 654.695 90.9655 657.508 90.3315C660.321 89.6699 652.958 77.7885 652.958 77.7885C652.958 77.7885 661.176 84.0462 663.134 83.4121C665.092 82.7505 659.687 70.6486 659.687 70.6486C659.687 70.6486 666.829 76.4928 668.567 76.0517C670.304 75.6106 665.974 63.7292 665.974 63.7292C665.974 63.7292 674.855 69.987 675.709 69.3529C676.564 68.6913 671.6 51.6273 671.6 51.6273L658.363 41.8961Z" fill="#457EA3"/>
<path d="M672.428 31.0898C667.905 30.759 664.651 23.3159 654.475 23.3159C644.298 23.3159 644.298 34.3427 655.55 42.1166C655.55 42.1166 666.14 56.3964 683.238 61.1379C700.337 65.9071 717.408 62.6541 717.408 62.6541C717.408 62.6541 746.613 74.5355 755.245 75.1971C763.904 75.8587 758.692 69.794 758.692 69.794C758.692 69.794 763.242 65.6865 758.471 63.0952C758.471 63.0952 764.097 57.9126 759.767 54.8802C759.767 54.8802 763.215 51.8478 761.505 49.477C759.767 47.1063 734.258 50.9932 719.752 50.1387C719.807 50.1111 702.267 33.2676 672.428 31.0898Z" fill="#65A4C5"/>
<path opacity="0.3" d="M755.272 75.1971C755.824 75.2523 756.32 75.2523 756.789 75.2523C760.208 73.1296 755.934 67.8919 755.934 67.8919C759.216 64.2806 755.934 62.6817 755.934 62.6817C760.071 57.9677 755.934 55.6796 755.934 55.6796C755.934 55.6796 759.023 51.71 755.934 51.3792C753.59 51.1311 733.816 52.9229 724.385 53.8326C721.875 54.0807 719.724 55.9277 719.365 58.4088C719.365 58.4364 719.365 58.4915 719.338 58.519C718.924 61.193 720.275 63.8395 722.813 64.8319C731.665 68.2502 748.957 74.7285 755.272 75.1971Z" fill="#457EA3"/>
<path opacity="0.3" d="M699.04 55.8175C684.396 55.1283 659.218 36.1897 657.508 44.4322C661.314 48.6776 670.442 57.5818 683.238 61.1379C690.822 63.2606 698.434 63.7843 704.528 63.7292C709.52 63.6741 709.575 56.2034 704.611 56.038C702.929 55.9829 701.081 55.9277 699.04 55.8175Z" fill="#457EA3"/>
<path d="M651.275 28.4158C651.716 27.065 650.862 25.6315 649.51 25.1904C646.422 24.2256 640.906 22.5164 639.913 22.4613C638.893 22.4061 644.105 26.9547 647.083 29.4909C648.462 30.6487 650.641 30.1801 651.248 28.4709C651.248 28.4709 651.275 28.4434 651.275 28.4158Z" fill="#FFAB2F"/>
<path opacity="0.5" d="M651.248 28.4985C651.248 28.4709 651.276 28.4434 651.276 28.4158C651.386 28.1125 651.386 27.8093 651.358 27.5337C649.014 25.6867 643.719 24.4186 641.485 24.5564C643.057 26.0726 645.401 28.1126 647.056 29.5185C648.463 30.6763 650.641 30.2076 651.248 28.4985Z" fill="#F88F00"/>
<path d="M672.869 35.2249C671.325 34.2325 671.49 31.9168 673.145 31.1725C678.716 28.6363 689.223 23.2332 698.379 14.6874C711.561 2.3649 736.437 2.99895 741.649 3.66056C746.834 4.32217 723.475 11.655 724.357 11.4345C725.212 11.2139 735.168 10.1388 737.126 11.214C739.084 12.2891 713.988 20.9451 713.988 20.9451C713.988 20.9451 730.645 20.504 732.162 22.4613C733.679 24.4186 710.32 29.3807 710.32 29.3807C710.32 29.3807 723.089 31.1174 724.799 32.6336C726.536 34.1497 704.887 35.4454 704.887 35.4454C704.887 35.4454 716.139 38.0367 716.773 39.5529C717.435 41.0691 698.82 40.8486 698.82 40.8486C698.82 40.8486 703.15 44.9561 703.15 46.4723C703.15 46.9133 701.523 46.8031 699.261 46.4447C690.96 45.0663 683.073 41.8685 676.013 37.2924L672.869 35.2249Z" fill="#457EA3"/>
<path d="M811.752 187.423C811.752 187.423 791.537 183.178 787.704 183.867C783.871 184.556 781.609 203.329 784.339 205.094C787.07 206.858 795.729 209.036 796.446 208.153C796.832 207.657 796.088 206.003 795.315 204.57C794.736 203.467 795.426 202.116 796.667 201.951L802.238 201.207C803.947 200.986 805.216 202.778 804.444 204.294C803.203 206.692 801.989 209.449 802.651 209.835C803.865 210.552 816.688 198.505 816.688 198.505L811.752 187.423Z" fill="#FFAD91"/>
<path opacity="0.4" d="M796.501 201.978C793.964 200.242 786.904 194.508 787.208 184.087C783.678 186.183 781.747 203.384 784.34 205.066C786.822 206.665 794.157 208.595 796.005 208.264L796.364 206.885C796.143 206.196 795.757 205.342 795.316 204.542C794.737 203.467 795.343 202.227 796.501 201.978Z" fill="#D23D1E"/>
<path opacity="0.4" d="M811.752 187.423C811.752 187.423 807.477 186.541 802.513 185.631C806.264 193.46 811.255 197.981 814.648 200.352C815.861 199.249 816.661 198.505 816.661 198.505L811.752 187.423Z" fill="#D23D1E"/>
<path d="M913.405 108.03C913.405 108.03 864.757 153.681 863.24 153.571C861.723 153.46 809.022 184.005 809.022 184.005C809.022 184.005 808.856 193.708 818.453 202.53C818.453 202.53 881.497 184.942 883.096 184.032C884.696 183.123 938.17 141.386 952.841 121.483C967.513 101.579 946.333 75.6109 913.405 108.03Z" fill="#F88F00"/>
<path opacity="0.3" d="M948.704 126.555L912.494 114.095L871.072 161.648L811.834 193.929C813.241 196.658 815.309 199.635 818.481 202.557C818.481 202.557 881.524 184.97 883.124 184.06C884.558 183.205 930.089 147.699 948.704 126.555Z" fill="#F88F00"/>
<path d="M712.747 442.501C711.947 453.831 702.129 462.377 690.795 461.578C679.46 460.778 670.911 450.964 671.711 439.634C672.51 428.304 682.328 419.759 693.663 420.558C704.997 421.357 713.519 431.171 712.747 442.501Z" fill="#0C1A3C"/>
<path d="M688.671 440.599L708.996 339.042" stroke="#65A4C5" stroke-width="0.75" stroke-miterlimit="10" stroke-linecap="round" stroke-linejoin="round"/>
<path d="M695.869 441.095L689.802 337.719" stroke="#65A4C5" stroke-width="0.75" stroke-miterlimit="10" stroke-linecap="round" stroke-linejoin="round"/>
<path d="M690.05 438.228L776.259 380.806" stroke="#65A4C5" stroke-width="0.75" stroke-miterlimit="10" stroke-linecap="round" stroke-linejoin="round"/>
<path d="M694.793 443.659L763.628 366.278" stroke="#65A4C5" stroke-width="0.75" stroke-miterlimit="10" stroke-linecap="round" stroke-linejoin="round"/>
<path d="M692.698 437.539L794.295 457.856" stroke="#65A4C5" stroke-width="0.75" stroke-miterlimit="10" stroke-linecap="round" stroke-linejoin="round"/>
<path d="M692.201 444.734L795.619 438.67" stroke="#65A4C5" stroke-width="0.75" stroke-miterlimit="10" stroke-linecap="round" stroke-linejoin="round"/>
<path d="M695.069 438.918L752.514 525.092" stroke="#65A4C5" stroke-width="0.75" stroke-miterlimit="10" stroke-linecap="round" stroke-linejoin="round"/>
<path d="M689.636 443.632L767.048 512.439" stroke="#65A4C5" stroke-width="0.75" stroke-miterlimit="10" stroke-linecap="round" stroke-linejoin="round"/>
<path d="M695.759 441.536L675.434 543.094" stroke="#65A4C5" stroke-width="0.75" stroke-miterlimit="10" stroke-linecap="round" stroke-linejoin="round"/>
<path d="M688.561 441.04L694.628 544.445" stroke="#65A4C5" stroke-width="0.75" stroke-miterlimit="10" stroke-linecap="round" stroke-linejoin="round"/>
<path d="M694.38 443.907L608.171 501.357" stroke="#65A4C5" stroke-width="0.75" stroke-miterlimit="10" stroke-linecap="round" stroke-linejoin="round"/>
<path d="M689.664 438.477L620.802 515.857" stroke="#65A4C5" stroke-width="0.75" stroke-miterlimit="10" stroke-linecap="round" stroke-linejoin="round"/>
<path d="M691.732 444.624L590.163 424.307" stroke="#65A4C5" stroke-width="0.75" stroke-miterlimit="10" stroke-linecap="round" stroke-linejoin="round"/>
<path d="M692.256 437.429L588.811 443.494" stroke="#65A4C5" stroke-width="0.75" stroke-miterlimit="10" stroke-linecap="round" stroke-linejoin="round"/>
<path d="M689.388 443.246L631.916 357.071" stroke="#65A4C5" stroke-width="0.75" stroke-miterlimit="10" stroke-linecap="round" stroke-linejoin="round"/>
<path d="M694.821 438.504L617.382 369.697" stroke="#65A4C5" stroke-width="0.75" stroke-miterlimit="10" stroke-linecap="round" stroke-linejoin="round"/>
<g opacity="0.4">
<path d="M688.781 442.088L666.029 341.054" stroke="#65A4C5" stroke-width="0.75" stroke-miterlimit="10" stroke-linecap="round" stroke-linejoin="round"/>
<path d="M695.566 439.607L647.966 347.643" stroke="#65A4C5" stroke-width="0.75" stroke-miterlimit="10" stroke-linecap="round" stroke-linejoin="round"/>
<path d="M689.085 439.359L744.462 351.833" stroke="#65A4C5" stroke-width="0.75" stroke-miterlimit="10" stroke-linecap="round" stroke-linejoin="round"/>
<path d="M695.621 442.391L727.032 343.701" stroke="#65A4C5" stroke-width="0.75" stroke-miterlimit="10" stroke-linecap="round" stroke-linejoin="round"/>
<path d="M691.208 437.65L792.281 414.907" stroke="#65A4C5" stroke-width="0.75" stroke-miterlimit="10" stroke-linecap="round" stroke-linejoin="round"/>
<path d="M693.69 444.403L785.69 396.823" stroke="#65A4C5" stroke-width="0.75" stroke-miterlimit="10" stroke-linecap="round" stroke-linejoin="round"/>
<path d="M693.938 437.953L781.499 493.308" stroke="#65A4C5" stroke-width="0.75" stroke-miterlimit="10" stroke-linecap="round" stroke-linejoin="round"/>
<path d="M690.877 444.459L789.634 475.858" stroke="#65A4C5" stroke-width="0.75" stroke-miterlimit="10" stroke-linecap="round" stroke-linejoin="round"/>
<path d="M695.648 440.075L718.4 541.109" stroke="#65A4C5" stroke-width="0.75" stroke-miterlimit="10" stroke-linecap="round" stroke-linejoin="round"/>
<path d="M688.864 442.529L736.492 534.52" stroke="#65A4C5" stroke-width="0.75" stroke-miterlimit="10" stroke-linecap="round" stroke-linejoin="round"/>
<path d="M695.345 442.777L639.968 530.303" stroke="#65A4C5" stroke-width="0.75" stroke-miterlimit="10" stroke-linecap="round" stroke-linejoin="round"/>
<path d="M688.809 439.745L657.425 538.435" stroke="#65A4C5" stroke-width="0.75" stroke-miterlimit="10" stroke-linecap="round" stroke-linejoin="round"/>
<path d="M693.221 444.486L592.148 467.257" stroke="#65A4C5" stroke-width="0.75" stroke-miterlimit="10" stroke-linecap="round" stroke-linejoin="round"/>
<path d="M690.767 437.732L598.739 485.313" stroke="#65A4C5" stroke-width="0.75" stroke-miterlimit="10" stroke-linecap="round" stroke-linejoin="round"/>
<path d="M690.519 444.211L602.958 388.856" stroke="#65A4C5" stroke-width="0.75" stroke-miterlimit="10" stroke-linecap="round" stroke-linejoin="round"/>
<path d="M693.552 437.677L594.823 406.278" stroke="#65A4C5" stroke-width="0.75" stroke-miterlimit="10" stroke-linecap="round" stroke-linejoin="round"/>
</g>
<path d="M699.73 333.501C640.299 329.366 588.756 374.19 584.619 433.597C580.482 493.004 625.324 544.527 684.755 548.662C744.186 552.797 795.729 507.973 799.866 448.566C804.002 389.159 759.161 337.636 699.73 333.501ZM685.362 539.758C630.84 535.954 589.694 488.704 593.472 434.204C597.277 379.703 644.574 338.573 699.096 342.35C753.59 346.127 794.736 393.404 790.958 447.932C787.18 502.432 739.884 543.562 685.362 539.758Z" fill="#0C1A3C"/>
<path d="M1111.84 462.139C1120.42 454.685 1121.32 441.695 1113.86 433.126C1106.41 424.556 1093.41 423.652 1084.84 431.106C1076.27 438.56 1075.36 451.55 1082.82 460.119C1090.28 468.689 1103.27 469.593 1111.84 462.139Z" fill="#0C1A3C"/>
<path d="M1094.9 447.519L1072.14 346.485" stroke="#65A4C5" stroke-width="0.75" stroke-miterlimit="10"/>
<path d="M1101.68 445.037L1054.05 353.074" stroke="#65A4C5" stroke-width="0.75" stroke-miterlimit="10"/>
<path d="M1095.2 444.789L1150.58 357.264" stroke="#65A4C5" stroke-width="0.75" stroke-miterlimit="10"/>
<path d="M1101.74 447.849L1133.12 349.132" stroke="#65A4C5" stroke-width="0.75" stroke-miterlimit="10"/>
<path d="M1097.32 443.08L1198.4 420.337" stroke="#65A4C5" stroke-width="0.75" stroke-miterlimit="10"/>
<path d="M1099.78 449.862L1191.81 402.253" stroke="#65A4C5" stroke-width="0.75" stroke-miterlimit="10"/>
<path d="M1100.03 443.383L1187.59 498.738" stroke="#65A4C5" stroke-width="0.75" stroke-miterlimit="10"/>
<path d="M1096.99 449.917L1195.72 481.288" stroke="#65A4C5" stroke-width="0.75" stroke-miterlimit="10"/>
<path d="M1101.76 445.506L1124.51 546.54" stroke="#65A4C5" stroke-width="0.75" stroke-miterlimit="10"/>
<path d="M1094.98 447.96L1142.58 539.951" stroke="#65A4C5" stroke-width="0.75" stroke-miterlimit="10"/>
<path d="M1101.46 448.208L1046.08 535.733" stroke="#65A4C5" stroke-width="0.75" stroke-miterlimit="10"/>
<path d="M1094.92 445.175L1063.54 543.866" stroke="#65A4C5" stroke-width="0.75" stroke-miterlimit="10"/>
<path d="M1099.34 449.944L998.263 472.687" stroke="#65A4C5" stroke-width="0.75" stroke-miterlimit="10"/>
<path d="M1096.85 443.163L1004.85 490.744" stroke="#65A4C5" stroke-width="0.75" stroke-miterlimit="10"/>
<path d="M1096.61 449.641L1009.05 394.287" stroke="#65A4C5" stroke-width="0.75" stroke-miterlimit="10"/>
<path d="M1099.67 443.108L1000.94 411.709" stroke="#65A4C5" stroke-width="0.75" stroke-miterlimit="10"/>
<g opacity="0.3">
<path d="M1095.61 448.814L1033.7 365.782" stroke="#65A4C5" stroke-width="0.75" stroke-miterlimit="10"/>
<path d="M1100.8 443.825L1019.86 379.152" stroke="#65A4C5" stroke-width="0.75" stroke-miterlimit="10"/>
</g>
<g opacity="0.3">
<path d="M1094.76 446.223L1109.73 343.728" stroke="#65A4C5" stroke-width="0.75" stroke-miterlimit="10"/>
<path d="M1101.98 446.333L1090.51 343.425" stroke="#65A4C5" stroke-width="0.75" stroke-miterlimit="10"/>
</g>
<g opacity="0.3">
<path d="M1096.03 443.797L1179.09 381.909" stroke="#65A4C5" stroke-width="0.75" stroke-miterlimit="10"/>
<path d="M1101.02 448.98L1165.72 368.07" stroke="#65A4C5" stroke-width="0.75" stroke-miterlimit="10"/>
</g>
<g opacity="0.3">
<path d="M1098.62 442.942L1201.13 457.911" stroke="#65A4C5" stroke-width="0.75" stroke-miterlimit="10"/>
<path d="M1098.48 450.137L1201.46 438.697" stroke="#65A4C5" stroke-width="0.75" stroke-miterlimit="10"/>
</g>
<g opacity="0.3">
<path d="M1101.05 444.183L1162.96 527.243" stroke="#65A4C5" stroke-width="0.75" stroke-miterlimit="10"/>
<path d="M1095.86 449.2L1176.77 513.872" stroke="#65A4C5" stroke-width="0.75" stroke-miterlimit="10"/>
</g>
<g opacity="0.3">
<path d="M1101.87 446.802L1086.9 549.269" stroke="#65A4C5" stroke-width="0.75" stroke-miterlimit="10"/>
<path d="M1094.67 446.664L1106.15 549.6" stroke="#65A4C5" stroke-width="0.75" stroke-miterlimit="10"/>
</g>
<g opacity="0.3">
<path d="M1100.63 449.228L1017.57 511.088" stroke="#65A4C5" stroke-width="0.75" stroke-miterlimit="10"/>
<path d="M1095.64 444.045L1030.94 524.927" stroke="#65A4C5" stroke-width="0.75" stroke-miterlimit="10"/>
</g>
<g opacity="0.3">
<path d="M1098.04 450.055L995.532 435.086" stroke="#65A4C5" stroke-width="0.75" stroke-miterlimit="10"/>
<path d="M1098.15 442.86L995.201 454.328" stroke="#65A4C5" stroke-width="0.75" stroke-miterlimit="10"/>
</g>
<path d="M1105.82 338.932C1046.39 334.797 994.843 379.621 990.706 439.028C986.569 498.435 1031.41 549.958 1090.84 554.093C1150.27 558.228 1201.82 513.404 1205.95 453.997C1210.09 394.59 1165.28 343.067 1105.82 338.932ZM1091.48 545.189C1036.95 541.384 995.808 494.134 999.586 439.634C1003.39 385.134 1050.66 344.004 1105.21 347.781C1159.7 351.557 1200.85 398.835 1197.07 453.363C1193.27 507.863 1145.97 548.993 1091.48 545.189Z" fill="#0C1A3C"/>
<path d="M678.688 270.207C673.173 267.175 666.471 265.08 659.88 264.446C653.234 263.811 646.394 264.418 639.996 266.706C638.369 267.202 636.88 268.029 635.308 268.663C634.536 269.022 633.708 269.297 632.991 269.738L630.813 271.062C629.379 271.999 627.807 272.743 626.483 273.846L622.457 277.099C621.05 278.119 619.919 279.414 618.706 280.655L615.093 284.404C612.915 287.106 610.846 289.89 608.723 292.674C610.653 289.78 612.556 286.83 614.569 283.991L617.961 279.966C619.092 278.643 620.168 277.237 621.546 276.106L625.435 272.523C626.731 271.31 628.276 270.428 629.71 269.352L631.888 267.809C632.605 267.312 633.46 266.954 634.232 266.513C635.832 265.741 637.376 264.776 639.031 264.142C645.622 261.303 652.93 260.117 660.183 260.338C662.003 260.338 663.796 260.641 665.616 260.779C667.409 261.055 669.201 261.358 670.966 261.771C674.551 262.626 677.916 263.701 681.446 265.41C682.825 266.072 683.404 267.726 682.742 269.104C682.08 270.483 680.426 271.062 679.047 270.4C678.991 270.372 678.964 270.345 678.909 270.345L678.688 270.207Z" fill="#0C1A3C"/>
<path d="M633.405 268.167C633.405 268.167 617.52 257.002 602.903 266.044C602.903 266.044 620.029 276.906 633.405 268.167Z" fill="#0C1A3C"/>
<path d="M612.418 287.216C612.418 287.216 595.044 278.257 580.234 292.84C580.234 292.84 603.676 300.641 612.418 287.216Z" fill="#0C1A3C"/>
<path d="M615.176 313.653C615.176 313.653 619.919 303.839 611.094 288.126C611.094 288.153 596.947 300.889 615.176 313.653Z" fill="#0C1A3C"/>
<path d="M633.294 268.415C632.522 270.262 627.889 282.64 636.438 294.356C636.521 294.466 636.659 294.466 636.714 294.356C637.762 292.592 644.491 279.993 633.57 268.36C633.515 268.277 633.35 268.305 633.294 268.415Z" fill="#0C1A3C"/>
<path d="M657.867 246.913C659.218 240.765 659.328 233.736 658.032 227.257C656.763 220.696 654.226 214.328 650.227 208.843C649.29 207.437 648.076 206.224 647.001 204.901C646.422 204.267 645.953 203.55 645.319 202.998L643.416 201.289C642.119 200.187 640.961 198.891 639.527 197.926L635.28 195.004C633.901 193.956 632.329 193.212 630.785 192.413L626.179 190.014C622.98 188.691 619.699 187.506 616.444 186.265C619.754 187.313 623.118 188.278 626.455 189.38L631.281 191.475C632.881 192.192 634.536 192.826 635.997 193.791L640.548 196.493C642.092 197.375 643.36 198.615 644.795 199.69L646.89 201.344C647.58 201.896 648.159 202.612 648.793 203.219C650.007 204.515 651.358 205.728 652.434 207.133C657.039 212.647 660.238 219.318 662.086 226.32C662.61 228.057 662.831 229.876 663.217 231.641C663.465 233.432 663.685 235.252 663.768 237.071C663.961 240.738 663.879 244.266 663.244 248.153C662.996 249.67 661.59 250.69 660.073 250.441C658.556 250.193 657.536 248.787 657.784 247.271C657.784 247.216 657.811 247.188 657.811 247.133L657.867 246.913Z" fill="#0C1A3C"/>
<path d="M646.918 202.943C646.918 202.943 653.123 184.556 640.272 173.116C640.272 173.116 634.756 192.633 646.918 202.943Z" fill="#0C1A3C"/>
<path d="M621.739 188.278C621.739 188.278 625.38 169.091 607.206 159.029C607.206 159.029 606.378 183.701 621.739 188.278Z" fill="#0C1A3C"/>
<path d="M598.353 197.347C598.353 197.347 612.749 202.061 621.794 187.947C621.794 187.947 604.117 178.464 598.353 197.347Z" fill="#0C1A3C"/>
<path d="M691.264 151.889C687.927 158.009 686.879 165.204 688.147 171.875C688.754 175.266 690.078 178.298 691.512 181.551C692.863 184.777 694.104 188.085 695.152 191.448C697.248 198.174 698.517 205.287 698.517 212.482C698.627 219.677 697.303 226.872 695.18 233.763C694.739 235.224 693.194 236.024 691.732 235.583C690.271 235.142 689.471 233.598 689.912 232.137C689.94 232.082 689.94 232.027 689.967 231.971L689.995 231.916C692.394 225.659 694.049 219.098 694.408 212.371C694.849 205.645 694.104 198.836 692.505 192.165C691.705 188.829 690.74 185.521 689.609 182.268C688.451 179.098 687.182 175.597 686.824 172.068C685.914 165.039 687.541 157.788 691.264 151.889Z" fill="#FFAB2F"/>
<path d="M681.418 150.566C681.418 150.566 671.325 145.328 676.647 136.755C681.97 128.209 689.526 140.669 689.526 140.669C689.526 140.669 693.856 126.996 703.15 131.186C712.471 135.376 702.598 143.784 702.598 143.784C702.598 143.784 712.802 142.296 713.574 150.621C714.346 158.919 700.64 157.209 700.64 157.209C700.64 157.209 705.632 165.232 699.73 170.194C693.828 175.183 687.513 162.089 687.513 162.089C687.513 162.089 678.578 170.552 673.503 164.156C668.456 157.761 677.612 149.684 681.418 150.566Z" fill="#FFAB2F"/>
<path d="M695.924 152.22C695.759 154.784 693.525 156.713 690.96 156.548C688.396 156.382 686.465 154.15 686.63 151.586C686.796 149.022 689.03 147.092 691.595 147.258C694.159 147.423 696.117 149.656 695.924 152.22Z" fill="white"/>
<path d="M755.769 143.619C750.115 147.671 745.979 153.681 744.214 160.242C743.276 163.55 743.138 166.858 743 170.414C742.807 173.915 742.476 177.416 741.925 180.917C740.877 187.892 738.891 194.839 735.747 201.317C732.686 207.823 728.356 213.722 723.447 218.987C722.399 220.09 720.662 220.145 719.559 219.125C718.456 218.078 718.401 216.341 719.421 215.238C719.449 215.183 719.504 215.156 719.531 215.128L719.559 215.1C724.44 210.524 728.825 205.342 732.079 199.442C735.416 193.598 737.733 187.147 739.222 180.449C739.967 177.113 740.518 173.695 740.932 170.276C741.263 166.913 741.676 163.219 742.89 159.883C745.206 153.102 749.867 147.285 755.769 143.619Z" fill="#FFAB2F"/>
<path d="M747.495 138.133C747.495 138.133 740.711 129.008 749.233 123.633C757.754 118.257 759.078 132.785 759.078 132.785C759.078 132.785 768.951 122.365 775.487 130.194C782.023 138.023 769.502 141.276 769.502 141.276C769.502 141.276 779.348 144.418 776.397 152.22C773.446 160.021 761.863 152.496 761.863 152.496C761.863 152.496 762.856 161.868 755.382 163.798C747.909 165.7 747.936 151.172 747.936 151.172C747.936 151.172 736.188 154.894 734.451 146.899C732.686 138.932 744.462 135.652 747.495 138.133Z" fill="#FFAB2F"/>
<path d="M759.822 145.935C758.526 148.167 755.686 148.939 753.452 147.644C751.218 146.348 750.446 143.509 751.742 141.276C753.038 139.043 755.879 138.271 758.113 139.567C760.346 140.862 761.119 143.702 759.822 145.935Z" fill="white"/>
<path d="M694.16 273.901C694.16 273.901 641.485 240.82 657.922 183.591C657.922 183.591 710.789 206.72 694.16 273.901Z" fill="#0C1A3C"/>
<g opacity="0.4">
<path d="M662.279 191.227C666.085 197.016 669.505 203.081 672.676 209.256C675.848 215.431 678.716 221.772 681.308 228.222C683.928 234.673 686.162 241.262 688.065 247.96C690.05 254.659 691.374 261.523 692.505 268.415C692.643 269.159 692.119 269.876 691.374 270.014C690.629 270.152 689.912 269.628 689.775 268.884V268.856V268.801C688.865 261.992 687.817 255.183 686.052 248.512C684.397 241.813 682.384 235.197 680.012 228.719C675.269 215.734 669.422 203.109 662.279 191.227Z" fill="#65A4C5"/>
</g>
<path d="M697.358 263.894C697.358 263.894 701.219 206.996 754.582 195.417C754.582 195.445 758.857 248.126 697.358 263.894Z" fill="#0C1A3C"/>
<g opacity="0.4">
<path d="M750.308 202.254C744.599 213.639 737.622 224.446 729.762 234.618C725.846 239.718 721.627 244.597 717.132 249.284C712.691 254.025 707.783 258.326 702.736 262.516C700.971 263.977 698.351 263.729 696.889 261.964C695.428 260.2 695.676 257.581 697.441 256.12C697.551 256.038 697.661 255.927 697.799 255.845L697.937 255.762C703.067 252.344 708.169 248.787 712.912 244.707C717.683 240.683 722.316 236.41 726.646 231.861C735.388 222.847 743.413 212.95 750.308 202.254Z" fill="#65A4C5"/>
</g>
<path d="M692.449 275.252C692.449 275.252 712.223 216.286 771.708 218.767C771.708 218.767 761.698 275.555 692.449 275.252Z" fill="#80AA74"/>
<path d="M765.311 224.776C760.595 229.849 755.548 234.618 750.308 239.194C745.068 243.77 739.608 248.071 733.954 252.123C728.328 256.23 722.454 259.98 716.387 263.453C710.375 267.009 703.977 269.931 697.551 272.716C696.641 273.102 695.621 272.688 695.235 271.778C694.849 270.869 695.262 269.849 696.172 269.463C696.2 269.463 696.2 269.435 696.228 269.435L696.31 269.408C702.708 266.954 709.079 264.363 715.146 261.137C721.268 257.995 727.225 254.521 732.989 250.689C744.462 243.081 755.41 234.48 765.311 224.776Z" fill="#5C8951"/>
<path d="M691.705 274.177C691.705 274.177 629.737 268.525 618.458 210.083C618.458 210.083 676.04 206.748 691.705 274.177Z" fill="#417335"/>
<path d="M625.793 214.907C631.833 218.326 637.624 222.158 643.278 226.182C648.931 230.235 654.392 234.563 659.632 239.111C664.927 243.632 669.946 248.512 674.689 253.612C679.515 258.656 683.845 264.17 688.037 269.821C688.616 270.593 688.451 271.723 687.679 272.302C686.906 272.881 685.776 272.716 685.197 271.944C685.197 271.916 685.169 271.916 685.169 271.889L685.114 271.833C681.253 266.182 677.282 260.586 672.704 255.403C668.236 250.193 663.465 245.176 658.418 240.462C648.407 230.979 637.514 222.323 625.793 214.907Z" fill="#5C8951"/>
<path d="M691.677 274.204C691.677 274.204 668.622 218.712 720.166 181.165C720.166 181.165 746.778 232.302 691.677 274.204Z" fill="#5C8951"/>
<path d="M718.732 189.821C718.07 196.713 716.967 203.577 715.615 210.386C714.236 217.195 712.527 223.949 710.513 230.593C708.555 237.264 706.156 243.825 703.453 250.276C700.834 256.754 697.552 262.957 694.132 269.077C693.663 269.931 692.588 270.235 691.733 269.766C690.878 269.297 690.575 268.222 691.043 267.368C691.043 267.34 691.071 267.34 691.071 267.312L691.126 267.257C694.711 261.441 698.186 255.486 701.027 249.228C703.95 242.998 706.57 236.63 708.804 230.097C713.354 217.03 716.801 203.55 718.732 189.821Z" fill="#80AA74"/>
<path d="M705.438 275.417C705.438 275.417 731.334 265.465 754.555 267.698C758.94 268.112 760.319 262.02 756.237 260.31C746.116 256.12 729.707 256.23 705.438 275.417Z" fill="#0C1A3C"/>
<path d="M731.555 314.921L658.253 316.382L654.916 269.931C654.75 267.478 656.791 265.438 659.245 265.603L736.243 270.951C738.698 271.117 740.435 273.432 739.939 275.831L731.555 314.921Z" fill="#0C1A3C"/>
<path opacity="0.5" d="M663.603 278.091L730.204 282.722" stroke="#65A4C5" stroke-miterlimit="10" stroke-linecap="round" stroke-linejoin="round"/>
<path opacity="0.5" d="M666.195 300.889L724.468 304.942" stroke="#65A4C5" stroke-miterlimit="10" stroke-linecap="round" stroke-linejoin="round"/>
<path opacity="0.5" d="M677.171 273.267L679.212 306.127" stroke="#65A4C5" stroke-miterlimit="10" stroke-linecap="round" stroke-linejoin="round"/>
<path opacity="0.5" d="M717.408 276.079L710.844 308.332" stroke="#65A4C5" stroke-miterlimit="10" stroke-linecap="round" stroke-linejoin="round"/>
<path opacity="0.5" d="M697.248 275.389L695.014 307.477" stroke="#65A4C5" stroke-miterlimit="10" stroke-linecap="round" stroke-linejoin="round"/>
<path d="M1022.37 222.24C1024.21 223.839 1030.14 243.219 1019.72 267.285C1009.29 291.379 954.275 346.954 954.275 346.954C954.275 346.954 967.209 370.661 973.111 388.442C979.123 406.499 990.595 444.404 990.595 444.404C990.595 444.404 978.93 449.531 961.721 444.872C961.721 444.872 912.356 368.842 909.019 354.011C905.683 339.18 954.992 239.415 954.992 239.415L1022.37 222.24Z" fill="#457EA3"/>
<path opacity="0.3" d="M909.185 349.049L909.985 357.043C917.624 376.974 961.721 444.927 961.721 444.927C978.902 449.586 990.595 444.459 990.595 444.459C990.595 444.459 980.171 410 973.993 391.144C957.061 386.264 919.361 373.06 909.185 349.049Z" fill="#457EA3"/>
<path opacity="0.3" d="M990.596 444.431C990.596 444.431 990.182 443.08 989.492 440.792C983.149 419.896 969.554 401.73 950.883 390.372C938.225 382.681 933.426 374.521 933.426 374.521L912.991 360.848L911.584 360.792C922.367 384.307 961.721 444.927 961.721 444.927C978.903 449.559 990.596 444.431 990.596 444.431Z" fill="#457EA3"/>
<path opacity="0.3" d="M1022.37 222.24L954.992 239.442C954.992 239.442 913.129 324.156 909.185 349.021C919.03 348.635 938.666 346.43 964.396 336.451C980.778 319.166 1012.11 284.845 1019.72 267.285C1030.14 243.219 1024.19 223.839 1022.37 222.24Z" fill="#457EA3"/>
<path opacity="0.3" d="M1019.72 267.312C1030.14 243.219 1024.21 223.839 1022.37 222.268L954.992 239.47C954.992 239.47 933.647 282.64 920.023 316.382C976.31 315.996 990.899 306.568 994.236 303.315C1005.49 289.945 1015.77 276.382 1019.72 267.312Z" fill="#457EA3"/>
<path opacity="0.3" d="M928.048 297.333L963.183 295.982L1001.27 294.742C1009.6 284.349 1016.6 274.452 1019.72 267.312C1022.59 260.669 1024.19 254.439 1025.01 248.787L945.285 259.594C940.265 270.152 933.978 283.715 928.048 297.333Z" fill="#457EA3"/>
<path d="M985.328 444.762C985.273 445.368 989.134 451.681 990.926 461.054C991.505 464.142 989.079 466.981 985.935 466.816L947.739 464.803C945.064 464.665 943.216 462.074 943.988 459.51L944.154 458.904C944.706 457.029 946.167 455.596 948.07 455.127C953.007 453.887 962.631 450.854 965.527 445.644L985.328 444.762Z" fill="#0C1A3C"/>
<path d="M805.988 202.64C805.988 206.61 802.761 209.835 798.79 209.835C794.819 209.835 791.592 206.61 791.592 202.64C791.592 198.67 794.819 195.445 798.79 195.445C802.761 195.445 805.988 198.67 805.988 202.64Z" fill="#0C1A3C"/>
<path d="M830.753 233.956C830.753 237.926 827.526 241.151 823.555 241.151C819.584 241.151 816.357 237.926 816.357 233.956C816.357 229.987 819.584 226.761 823.555 226.761C827.526 226.761 830.753 229.987 830.753 233.956Z" fill="#0C1A3C"/>
<path d="M771.708 246.968L738.891 318.891C737.76 321.399 734.147 321.344 733.099 318.808L732.106 316.41H652.103" stroke="#0C1A3C" stroke-width="2" stroke-miterlimit="10" stroke-linecap="round" stroke-linejoin="round"/>
<path d="M659.438 316.382C659.438 316.382 704.473 316.382 738.643 336.396" stroke="#0C1A3C" stroke-miterlimit="10" stroke-linecap="round" stroke-linejoin="round"/>
<path d="M1100.52 452.977C1105.24 453.39 1107.99 447.794 1104.82 444.293L974.876 301.413C974.986 300.917 975.096 300.393 975.179 300.007C975.289 299.456 975.4 299.015 975.455 298.656L975.537 298.16L975.593 297.884C975.62 297.774 975.62 297.664 975.648 297.278L968.615 296.782L963.183 295.927L964.865 296.203L963.183 295.9C963.155 296.037 962.962 296.92 962.714 298.16C961.859 302.047 960.094 310.014 957.777 320.186C943.326 324.349 926.421 325.617 909.047 324.376C877.911 322.254 845.48 312.302 823.803 299.483C799.672 285.259 784.008 277.54 775.955 273.846L804.002 212.867C805.436 209.725 804.057 206.003 800.913 204.57C797.769 203.136 794.046 204.515 792.612 207.657L686.713 437.539C685.251 440.682 686.63 444.404 689.801 445.865C692.945 447.298 696.668 445.947 698.102 442.805L756.651 315.913C767.627 322.309 792.557 339.29 821.211 374.99C842.17 401.04 871.21 416.864 894.955 426.347C896.278 426.871 897.574 427.367 898.871 427.863C917.127 434.783 936.322 438.89 955.764 440.572L1100.52 452.977ZM946.305 427.174C948.952 415.596 954.495 391.309 960.066 366.885C963.9 350.014 967.761 333.06 970.656 320.241C970.96 318.891 971.235 317.622 971.539 316.382L1082.98 438.918L946.305 427.174ZM831.001 367.133C800.417 329.063 773.584 311.117 761.918 304.473L770.743 285.259C778.355 288.732 793.66 296.285 817.46 310.29C841.315 324.321 875.043 334.549 908.192 336.892C924.242 337.995 940.127 337.195 954.688 333.915C952.013 345.741 948.98 359.001 946.057 371.902C942.527 387.367 939.134 402.253 936.625 413.253C935.494 418.215 934.556 422.35 933.839 425.437C926.531 423.783 913.018 420.227 897.464 413.859C875.374 404.79 849.285 389.931 831.001 367.133Z" fill="#FFAB2F"/>
<path d="M844.597 323.053C864.04 330.331 886.212 335.376 908.192 336.919C924.242 338.022 940.127 337.223 954.689 333.942L957.805 320.241C943.354 324.404 926.449 325.672 909.075 324.431C883.427 322.667 856.897 315.61 836.213 305.989C838.254 311.365 840.984 317.264 844.597 323.053Z" fill="#F88F00"/>
<path d="M974.848 301.441L971.511 316.382C975.427 316.382 979.205 317.815 982.101 320.407L1034.72 367.271L974.848 301.441Z" fill="#F88F00"/>
<path d="M798.128 285.011C788.062 279.607 780.671 276.024 775.983 273.873L770.743 285.259C775.955 287.657 784.863 291.985 797.521 298.932L798.128 285.011Z" fill="#F88F00"/>
<path d="M796.17 329.972C781.03 316.327 768.813 308.387 761.918 304.473L756.651 315.913C764.152 320.296 778.162 329.614 795.453 346.485L796.17 329.972Z" fill="#F88F00"/>
<path d="M804.03 212.895C805.464 209.752 804.085 206.031 800.941 204.597C797.797 203.164 794.074 204.542 792.64 207.685L784.008 226.43L791.068 241.096L804.03 212.895Z" fill="#F88F00"/>
<path d="M1104.8 444.321L1089.77 427.808C1085.88 429.572 1082.65 432.55 1080.5 436.244L1082.93 438.918L1079.31 438.614C1078.49 440.627 1077.93 442.805 1077.77 445.093C1077.63 447.16 1077.8 449.173 1078.24 451.102L1100.47 453.004C1105.21 453.39 1108 447.822 1104.8 444.321Z" fill="#F88F00"/>
<path d="M1007.39 444.982L1011.33 432.77L946.305 427.174C947.712 421.054 949.918 411.378 952.51 399.993L940.321 397.043C938.969 402.97 937.701 408.483 936.625 413.252C935.494 418.214 934.557 422.35 933.84 425.437C926.532 423.783 913.018 420.254 897.464 413.859C884.806 408.676 870.907 401.536 857.862 392.164C861.778 400.241 865.722 407.656 869.638 414.438C878.325 419.235 886.93 423.177 894.955 426.374C895.203 426.457 895.424 426.567 895.672 426.65C914.811 434.203 934.971 438.78 955.461 440.544L1007.39 444.982Z" fill="#F88F00"/>
<path d="M975.427 298.656L975.51 298.16L975.565 297.884C975.593 297.774 975.593 297.664 975.621 297.278L968.588 296.782L964.838 296.203L963.155 295.9C963.128 296.037 962.935 296.92 962.686 298.16C961.831 302.047 960.067 310.014 957.75 320.159C966.051 314.755 974.793 301.385 974.793 301.385C974.904 300.889 975.014 300.365 975.097 299.979C975.262 299.456 975.372 299.015 975.427 298.656Z" fill="#F88F00"/>
<path d="M811.807 211.489C811.807 215.459 808.58 218.684 804.609 218.684C800.638 218.684 797.411 215.459 797.411 211.489C797.411 207.519 800.638 204.294 804.609 204.294C808.58 204.294 811.807 207.519 811.807 211.489Z" fill="#0C1A3C"/>
<path d="M1091.7 445.892C1091.7 443.549 1093.6 441.675 1095.92 441.675C1098.26 441.675 1100.14 443.577 1100.14 445.892C1100.14 448.208 1098.23 450.11 1095.92 450.11C1093.57 450.11 1091.7 448.236 1091.7 445.892Z" fill="#0C1A3C"/>
<path d="M941.259 292.591C941.259 292.591 1008.85 305.355 1012.93 304.528C1017.02 303.701 1016.88 288.291 1016.88 284.68C1016.88 254.604 954.551 280.71 948.015 279.883C941.479 279.056 934.033 290.993 941.259 292.591Z" fill="#0C1A3C"/>
<path d="M748.019 298.849C748.019 298.849 754.721 299.759 765.283 304.5" stroke="#0C1A3C" stroke-miterlimit="10" stroke-linecap="round" stroke-linejoin="round"/>
<path d="M761.918 268.415C761.918 268.415 772.564 270.758 778.548 273.267" stroke="#0C1A3C" stroke-miterlimit="10" stroke-linecap="round" stroke-linejoin="round"/>
<path d="M757.506 278.091C757.506 278.091 762.691 282.943 771.709 287.216" stroke="#0C1A3C" stroke-miterlimit="10" stroke-linecap="round" stroke-linejoin="round"/>
<path d="M744.075 307.477C744.075 307.477 749.287 314.066 757.478 318.725" stroke="#0C1A3C" stroke-miterlimit="10" stroke-linecap="round" stroke-linejoin="round"/>
<path d="M778.548 276.878C780.544 276.878 782.161 275.261 782.161 273.267C782.161 271.273 780.544 269.656 778.548 269.656C776.553 269.656 774.936 271.273 774.936 273.267C774.936 275.261 776.553 276.878 778.548 276.878Z" fill="#0C1A3C"/>
<path d="M770.523 290.607C772.518 290.607 774.136 288.99 774.136 286.995C774.136 285.001 772.518 283.384 770.523 283.384C768.528 283.384 766.91 285.001 766.91 286.995C766.91 288.99 768.528 290.607 770.523 290.607Z" fill="#0C1A3C"/>
<path d="M761.008 304.473C761.008 302.488 762.635 300.862 764.621 300.862C766.607 300.862 768.234 302.488 768.234 304.473C768.234 306.458 766.607 308.084 764.621 308.084C762.608 308.084 761.008 306.458 761.008 304.473Z" fill="#0C1A3C"/>
<path d="M757.506 322.336C759.501 322.336 761.118 320.72 761.118 318.725C761.118 316.731 759.501 315.114 757.506 315.114C755.511 315.114 753.893 316.731 753.893 318.725C753.893 320.72 755.511 322.336 757.506 322.336Z" fill="#0C1A3C"/>
<path d="M926.476 101.772C896.747 118.616 896.637 164.101 895.892 174.825C895.148 185.548 927.607 201.372 928.71 202.668C929.813 203.936 941.782 212.096 947.877 239.277C947.877 239.277 1004.47 242.888 1028.43 221.579C1028.43 221.579 991.368 139.952 973.718 112.385C956.068 84.7631 926.476 101.772 926.476 101.772Z" fill="#FFAB2F"/>
<path d="M973.718 112.358C972.835 110.979 971.898 109.711 970.96 108.554C998.979 161.207 1013.4 207.244 1019.08 227.919C1022.53 226.1 1025.7 224.005 1028.43 221.579C1028.43 221.551 991.368 139.925 973.718 112.358Z" fill="#FFC166"/>
<path d="M980.805 232.854C980.336 218.85 974.628 207.409 967.843 198.67C957.391 185.163 955.185 167.299 961.556 151.448C967.237 137.361 968.809 124.515 968.809 124.515L964.893 111.834H936.212L896.251 171.82C896.058 173.005 895.948 174.025 895.892 174.797C895.148 185.521 927.607 201.344 928.71 202.64C929.813 203.908 941.782 212.068 947.877 239.249C947.877 239.249 962.659 240.186 980.281 238.284C980.667 236.548 980.86 234.756 980.805 232.854Z" fill="#F88F00"/>
<path opacity="0.3" d="M962.163 237.623C950.552 195.721 922.892 197.678 909.489 190.814C918.259 196.961 928.104 201.951 928.711 202.64C929.814 203.908 941.783 212.068 947.877 239.249C947.877 239.249 953.779 239.608 962.549 239.415C962.411 238.808 962.328 238.257 962.163 237.623Z" fill="#F88F00"/>
<path d="M926.835 103.481L922.533 82.7783L944.402 65.7143L952.207 96.617C952.538 97.9678 951.821 99.3737 950.497 99.8699L932.406 106.569C929.979 107.451 927.359 105.99 926.835 103.481Z" fill="#FFAD91"/>
<path opacity="0.4" d="M926.476 101.772C934.253 98.0781 941.12 83.4124 943.023 66.7894L922.533 82.7783L926.476 101.772Z" fill="#D23D1E"/>
<path d="M925.401 26.2106C910.647 26.0728 902.511 34.977 904.635 61.5792C906.758 88.1815 914.066 90.883 924.049 89.8079C934.06 88.7328 943.409 68.4434 943.988 47.1065C944.623 25.7695 925.401 26.2106 925.401 26.2106Z" fill="#FFAD91"/>
<path d="M929.924 50.7729C926.256 46.4449 920.851 44.0741 915.197 44.5703C910.206 45.0114 904.607 44.212 900.167 40.1045C889.605 30.3457 910.509 2.47536 950.856 15.1838C967.899 20.5594 977.882 19.7048 992.526 11.9033C1007.17 4.10185 1021.68 11.2968 1031.74 18.8227C1041.81 26.3485 1056.29 24.2809 1079.81 15.7627C1103.33 7.27205 1133.7 23.9226 1123.3 59.3463C1112.9 94.77 1075.04 115.942 1044.51 111.172C1013.98 106.403 1012.99 85.6177 987.727 87.6026C962.438 89.5874 944.706 84.8183 941.451 68.3056L938.556 68.03C936.156 67.7818 934.502 65.4662 935.081 63.123C936.046 59.0982 934.722 54.7977 931.468 52.234C930.917 51.7929 930.393 51.3243 929.924 50.7729Z" fill="#0C1A3C"/>
<path d="M939.659 63.3435C939.659 63.3435 943.134 54.9356 950.58 59.236C958.026 63.5365 948.76 80.0216 936.184 76.7963L939.659 63.3435Z" fill="#FFAD91"/>
<path d="M832.794 211.269C832.794 211.269 809.243 204.901 807.671 205.094C806.071 205.287 800.804 221.965 801.273 224.528C801.741 227.092 810.291 235.555 814.648 236.189C817.102 236.548 818.674 233.681 819.612 231.062C820.274 229.16 822.535 228.36 824.273 229.38C826.837 230.841 830.174 232.523 832.243 232.688C836.021 232.964 845.811 223.536 845.811 223.536L838.475 206.637L832.794 211.269Z" fill="#FFAD91"/>
<path opacity="0.4" d="M841.344 227.478C843.853 225.411 845.811 223.536 845.811 223.536L838.476 206.637L832.794 211.296C832.794 211.296 809.243 204.928 807.671 205.121C807.671 205.121 822.315 223.205 841.344 227.478Z" fill="#D23D1E"/>
<path d="M832.243 205.562L847.383 228.388C847.383 228.388 905.242 195.197 907.255 193.129C909.296 191.062 961.556 136.314 968.837 124.543C980.805 105.19 956.013 93.116 951.821 95.1284C925.539 107.837 883.234 166.83 883.234 166.83L832.243 205.562Z" fill="#FFAB2F"/>
<path d="M951.904 95.2938L946.802 98.85L942.003 102.764L937.508 107.01L933.123 111.365C927.304 117.21 921.899 123.467 916.549 129.78C911.143 136.038 905.904 142.434 900.802 148.967C895.81 155.555 890.487 161.951 885.606 168.567L885.33 168.953L884.999 169.201L872.12 178.712L859.021 187.919C854.636 190.952 850.306 194.094 845.811 196.989C841.343 199.939 836.931 202.916 832.353 205.728L832.132 205.452L883.014 166.61L882.959 166.665C892.721 153.185 903.173 140.173 914.26 127.74C919.775 121.51 925.594 115.528 931.689 109.849C937.811 104.226 944.21 98.7397 951.738 94.9906L951.904 95.2938Z" fill="#FFC166"/>
<path d="M970.326 465.492L940.459 431.171C940.293 431.006 940.1 430.896 939.852 430.868C939.631 430.84 939.383 430.923 939.218 431.089L936.846 433.156C936.487 433.487 936.432 434.038 936.763 434.397L966.63 468.718C966.796 468.883 966.989 468.993 967.237 469.021C967.265 469.021 967.265 469.021 967.292 469.021C967.513 469.021 967.706 468.938 967.871 468.8L970.243 466.733C970.601 466.43 970.629 465.878 970.326 465.492Z" fill="#457EA3"/>
<path opacity="0.3" d="M956.288 456.864L960.177 461.33L965.196 459.621L960.149 453.831L956.288 456.864Z" fill="#457EA3"/>
<path d="M957.998 465.162L978.764 465.961L978.902 470.289L957.695 469.655L957.998 465.162Z" fill="#457EA3"/>
<path d="M938.611 462.984C929.868 462.984 921.54 459.207 915.803 452.618C904.883 440.048 906.206 420.944 918.782 410.027C924.27 405.258 931.302 402.612 938.583 402.612C947.325 402.612 955.654 406.388 961.39 412.977C966.685 419.069 969.305 426.843 968.726 434.893C968.174 442.942 964.506 450.275 958.412 455.568C952.923 460.365 945.891 462.984 938.611 462.984Z" fill="#0C1A3C"/>
<path d="M938.583 404.376C946.829 404.376 954.633 407.932 960.039 414.135C965.03 419.869 967.485 427.174 966.961 434.755C966.437 442.336 962.99 449.228 957.253 454.217C952.069 458.711 945.45 461.192 938.611 461.192C930.365 461.192 922.56 457.636 917.155 451.433C906.868 439.607 908.109 421.633 919.94 411.35C925.125 406.857 931.744 404.376 938.583 404.376ZM938.583 400.847C931.137 400.847 923.663 403.439 917.624 408.704C904.303 420.282 902.897 440.461 914.48 453.776C920.795 461.054 929.675 464.748 938.611 464.748C946.057 464.748 953.53 462.157 959.57 456.891C972.89 445.313 974.297 425.134 962.714 411.819C956.398 404.569 947.518 400.847 938.583 400.847Z" fill="white"/>
<path d="M940.458 431.199L910.591 396.878C910.26 396.519 909.709 396.464 909.35 396.795L906.978 398.863C906.813 399.028 906.703 399.221 906.675 399.469C906.648 399.69 906.73 399.938 906.896 400.103L936.763 434.424C936.928 434.59 937.121 434.7 937.37 434.727C937.397 434.727 937.397 434.727 937.425 434.727C937.645 434.727 937.838 434.645 938.004 434.507L940.375 432.439C940.734 432.109 940.762 431.557 940.458 431.199Z" fill="#65A4C5"/>
<path opacity="0.3" d="M921.485 409.421L912.604 399.193L906.896 399.028C906.813 399.166 906.703 399.304 906.675 399.469C906.648 399.69 906.73 399.938 906.896 400.103L916.741 411.406L921.485 409.421Z" fill="#457EA3"/>
<path d="M898.315 395.489L898.001 400L919.241 401.477L919.554 396.966L898.315 395.489Z" fill="#65A4C5"/>
<path d="M933.426 374.493C929.648 368.539 910.316 367.877 904.249 373.501C900.002 377.443 888.419 380.999 881.911 382.791C879.07 383.563 876.864 385.823 876.174 388.718C875.513 391.585 877.553 394.369 880.504 394.562L933.95 398.311C933.923 398.311 937.425 380.806 933.426 374.493Z" fill="#0C1A3C"/>
<path d="M1028.43 221.551C1028.43 221.551 865.116 235.252 859.462 257.058C851.575 287.354 904.221 373.501 904.221 373.501C917.183 380.117 933.399 374.493 933.399 374.493L915.611 289.89C915.363 288.705 916.245 287.629 917.459 287.629C965.224 287.574 1016.79 289.752 1026.97 262.571C1037.31 235.004 1028.43 221.551 1028.43 221.551Z" fill="#65A4C5"/>
<path d="M1001.65 224.528L993.216 226.375L984.777 228.029L967.927 231.475L934.337 238.091C923.195 240.462 912.054 242.612 901.133 245.397C895.672 246.775 890.239 248.126 884.972 249.752C879.732 251.379 874.52 253.226 870.163 255.541C868.067 256.589 866.081 258.078 865.667 258.712L865.557 258.822C865.585 258.822 865.612 258.822 865.612 258.794C865.64 258.767 865.64 258.712 865.584 258.684L865.281 260.2C865.033 261.193 865.061 262.461 864.923 263.563C864.812 268.388 865.75 273.68 866.881 278.946C869.17 289.587 873.168 300.145 877.112 310.703C881.249 321.206 885.661 331.682 890.35 342.074C892.611 347.312 894.928 352.55 897.327 357.733L900.967 365.507L904.552 373.336L903.946 373.694C892.17 354.039 881.304 333.859 872.01 312.881C867.46 302.378 863.213 291.682 860.4 280.517C859.021 274.949 857.973 269.215 858.001 263.398C858.138 261.937 858.083 260.476 858.414 259.042L858.828 256.865C859.187 256.175 859.352 255.293 859.876 254.742C861.724 252.233 864.288 250.69 866.826 249.284C872.01 246.637 877.471 244.79 882.986 243.136C888.502 241.51 894.073 240.131 899.671 238.863C910.868 236.382 922.147 234.342 933.454 232.55C956.068 228.967 978.82 226.182 1001.6 223.812L1001.65 224.528Z" fill="#BEDFF0"/>
</svg>
